<svg width="80" height="80" viewBox="0 0 80 80" fill="none" xmlns="http://www.w3.org/2000/svg">
<path d="M59.4424 66.7078L64.5361 62.3719C64.9971 61.9828 65.683 62.0359 66.0689 62.4953C66.458 62.9516 66.4049 63.6375 65.9455 64.0281L61.8127 67.55V74.7953H72.1861V64.2625C72.1861 62.3406 71.1283 60.6172 69.4846 59.7141C67.9127 60.4234 66.0924 60.4234 64.5189 59.7141C63.0393 60.7063 62.2111 62.7531 59.5143 64.4266C59.1158 64.675 58.6189 64.6344 58.2689 64.3641L53.5736 61.2687C53.5564 61.2562 53.5377 61.2422 53.5252 61.2328C53.5033 61.2156 53.4846 61.2734 53.3877 61.3C53.1846 61.3531 53.0064 61.4469 52.9314 61.5438C52.9189 61.5609 53.0471 62.2078 53.1658 62.3141L54.6455 63.4172L59.1627 66.7656C59.283 66.8547 59.3799 66.7531 59.4424 66.7078ZM66.9986 50.3734C63.5877 50.3734 61.8689 54.5187 64.283 56.9328C66.6971 59.3469 70.8424 57.6281 70.8424 54.2172C70.8424 52.0922 69.1252 50.3734 66.9986 50.3734ZM62.7377 49.9531C62.7736 49.9125 62.8127 49.8781 62.8533 49.8375C63.083 48.9344 63.2658 48.0219 63.3846 47.1C63.3971 47.0156 63.4064 46.9266 63.4205 46.8438H54.708C53.9455 46.8438 53.3221 46.0422 53.7596 45.2C54.4158 43.9469 53.5471 41.9359 51.6783 41.9359C49.9471 41.9359 48.8783 43.7703 49.6283 45.2578C49.9955 45.9938 49.4518 46.8391 48.6533 46.8391V46.8438H39.8924V52.7391C42.3986 52.6641 44.4893 54.6922 44.4893 57.2172C44.4893 59.7422 42.3986 61.7703 39.8924 61.6953V67.5234C44.2377 67.55 48.4096 66.4078 52.0768 64.2234L51.9299 64.1172C50.7908 63.275 50.3705 61.15 51.2564 60.1484C52.0986 59.1969 53.6877 58.6906 54.8174 59.4797L56.6424 60.6844C57.4533 59.8781 58.2064 59.0109 58.8971 58.0891C59.6768 57.0438 60.3814 55.9234 60.9924 54.7359C60.9752 54.5625 60.9705 54.3906 60.9705 54.2172C60.9705 52.5531 61.6439 51.0422 62.7377 49.9531ZM65.3908 48.4031C69.2174 47.3453 73.0314 50.2234 73.0314 54.2188C73.0314 55.8172 72.4064 57.2703 71.3924 58.3516C73.2393 59.7297 74.3736 61.9031 74.3736 64.2641V75.8906C74.3736 76.4922 73.8861 76.9844 73.2799 76.9844H60.7189C60.1174 76.9844 59.6252 76.4922 59.6252 75.8906V68.95C59.0143 69.0438 58.3768 68.8969 57.8674 68.5156L53.9611 65.6234C49.4205 68.5469 44.2174 69.9234 38.7564 69.6813C34.2971 69.4781 29.8721 68.0344 26.1283 65.6234L22.2221 68.5156C21.708 68.8969 21.0752 69.0422 20.4596 68.95V75.8906C20.4596 76.4922 19.9721 76.9844 19.3658 76.9844H6.80176C6.19863 76.9844 5.70801 76.4922 5.70801 75.8906V64.2641C5.70801 61.9031 6.84707 59.7281 8.69395 58.3516C6.45801 55.9781 6.51426 52.2578 8.82207 49.9547C10.3361 48.4406 12.5689 47.8203 14.6908 48.4047C13.9596 44.1609 14.283 39.825 15.6611 35.7422L11.9627 33.8906L11.958 33.8953C11.5814 33.7047 11.2268 33.4438 10.908 33.125C10.6377 32.85 10.3939 32.5359 10.1955 32.1953C8.7252 30.4859 10.6424 25.7594 11.8877 22.6953C12.1799 21.9688 12.4377 21.3406 12.5658 20.9688C13.2127 19.1219 14.8018 17.3984 16.5205 16.2953C13.783 13.6156 13.7564 9.2125 16.4674 6.50312C19.1564 3.81406 23.5189 3.81406 26.2064 6.50312C28.8721 9.16875 28.8986 13.4797 26.2736 16.1812C27.8408 17.1734 29.0377 18.675 29.6486 20.4375C36.2486 17.5188 43.8393 17.5188 50.4393 20.4375C51.0502 18.675 52.2471 17.1734 53.8143 16.1812C51.183 13.4797 51.2143 9.17031 53.8768 6.50312C56.5689 3.81406 60.9283 3.81406 63.6205 6.50312C66.3314 9.21406 66.3049 13.6156 63.5627 16.2953C65.2814 17.3984 66.8705 19.1203 67.5174 20.9688C67.6502 21.3406 67.9033 21.9703 68.2002 22.6953C69.4455 25.7609 71.3627 30.4859 69.8924 32.1953C69.6924 32.5359 69.4502 32.8516 69.1799 33.125C68.8611 33.4438 68.5018 33.7047 68.1252 33.8953V33.8906L64.4268 35.7422C65.7986 39.8188 66.1252 44.1547 65.3908 48.4031ZM62.6533 58.3953C62.3877 58.1203 62.1486 57.8188 61.9408 57.4969C60.9533 59.0875 59.8018 60.5656 58.4955 61.9078L58.9299 62.1906C60.6299 60.9422 61.333 59.5422 62.6533 58.3953ZM17.233 49.8375C18.3939 50.9406 19.1158 52.4953 19.1158 54.2172C19.1158 54.3906 19.1064 54.5625 19.0939 54.7359L20.0986 56.5031C21.0377 58.0047 22.1939 59.4391 23.4424 60.6797L25.2674 59.475C26.5346 58.5938 28.4205 59.3953 28.983 60.3656C29.6783 61.5578 29.1424 63.4437 28.1283 64.1391L28.008 64.2234C30.9674 65.9859 34.2658 67.0719 37.7033 67.4078V60.3828C37.7033 59.6297 38.4689 59.0844 39.1877 59.3594C40.6721 59.9266 42.3018 58.8375 42.3018 57.2156C42.3018 55.5062 40.5439 54.5359 39.233 55.0547C38.4439 55.3688 37.7049 54.7938 37.7049 54.0531V46.8438H31.6721C31.5877 50.7672 26.8096 52.7031 24.0236 49.9125C23.2346 49.1234 22.7393 48.0391 22.7127 46.8438H16.6721C16.7893 47.8578 16.9752 48.85 17.233 49.8375ZM18.1455 57.4953C17.9377 57.8188 17.6986 58.1203 17.433 58.3938C18.7533 59.5406 19.4564 60.9406 21.158 62.1891L21.5924 61.9063C20.2846 60.5656 19.1283 59.0859 18.1455 57.4953ZM15.5674 59.7156C13.9955 60.425 12.1752 60.425 10.6018 59.7156C8.95488 60.6188 7.89551 62.3422 7.89551 64.2641V74.7969H18.2689V67.5516L14.1361 64.0297C13.6799 63.6406 13.6221 62.9531 14.0127 62.4969C14.4018 62.0359 15.0893 61.9828 15.5455 62.3734L20.6971 66.7531C20.7674 66.8109 20.8564 66.8109 20.9236 66.7656L26.8986 62.3328C27.0533 62.2219 27.1596 61.5578 27.1518 61.5438C27.0846 61.45 26.9174 61.3625 26.7268 61.3094C26.4924 61.2422 26.683 61.1719 26.4252 61.3234L21.8189 64.3656C21.4643 64.6359 20.9689 64.675 20.5705 64.4281C17.8752 62.7531 17.0424 60.7062 15.5674 59.7156ZM15.8018 51.4984C13.3877 49.0844 9.24238 50.8031 9.24238 54.2172C9.24238 57.6281 13.3877 59.3469 15.8018 56.9328C17.3033 55.4313 17.3033 53 15.8018 51.4984ZM61.0721 23.4531C60.8721 22.8859 61.1736 22.2656 61.7408 22.0672C62.3127 21.8672 62.933 22.1687 63.1314 22.7359L65.2221 28.7156C65.4127 29.2563 65.1518 29.8453 64.633 30.0703L59.4064 32.6922V32.6969C58.3518 33.2188 58.4236 34.9328 59.5033 35.3547C59.7736 35.4609 60.0752 35.4656 60.3533 35.3406V35.3359L60.4908 35.2734L67.1518 31.9391L67.1471 31.9344C67.8564 31.5844 67.9533 31.0125 68.2986 30.7031C69.0424 30.025 66.2346 23.9 65.4549 21.6812C64.883 20.0422 63.1689 18.4437 61.5486 17.6594C59.7143 18.4828 57.5939 18.4516 55.7814 17.5891C54.1643 18.3016 52.9158 19.7156 52.4111 21.4109C52.7564 21.6016 53.0939 21.7969 53.4299 22C53.8861 20.9109 55.5299 21.2375 55.5299 22.425V23.4297C57.7221 25.0859 59.6408 27.0875 61.208 29.3516L62.8471 28.5281L61.0721 23.4531ZM16.9533 22.7359C17.1486 22.1687 17.7721 21.8672 18.3393 22.0672C18.9111 22.2672 19.208 22.8859 19.0127 23.4531L17.2361 28.5297L18.8752 29.3531C20.4393 27.0891 22.3611 25.0875 24.5486 23.4313V22.4266C24.5486 21.2391 26.1924 20.9125 26.6518 22.0016C26.9846 21.7984 27.3252 21.6031 27.6705 21.4125C27.1658 19.7109 25.9158 18.3031 24.3002 17.5906C22.4893 18.4547 20.3674 18.4859 18.5283 17.6609C16.9111 18.4453 15.1971 20.0438 14.6221 21.6828C13.8471 23.9016 11.0346 30.0266 11.7783 30.7047C12.1283 31.0141 12.2252 31.5859 12.9299 31.9359V31.9406L16.9377 33.9469C17.0346 33.9953 17.1189 34.0578 17.1939 34.1234C17.2111 34.1328 17.3314 34.1328 17.5799 34.2703L19.6658 35.3156L19.6705 35.3109C21.1096 36.0281 22.3018 33.5531 20.5924 32.6484L18.758 31.7313C18.608 31.6563 18.4783 31.55 18.3814 31.4219C18.2221 31.4219 18.0627 31.3813 17.9127 31.3063L15.4455 30.0703C14.9314 29.8438 14.6705 29.2547 14.8564 28.7156L16.9533 22.7359ZM37.7049 44.6562V40.8563C35.0252 41.2547 32.5846 39.1562 32.5846 36.4234C32.5846 33.6859 35.0252 31.5906 37.7049 31.9906V20.55C30.9018 21.2188 24.7721 24.8234 20.8424 30.3422L21.6486 30.7406C24.3908 32.1047 24.2127 36.2859 21.3736 37.3938C20.5314 37.7219 19.5393 37.6906 18.6986 37.2703V37.2656L17.6314 36.7344C16.8033 39.2938 16.4314 41.925 16.5064 44.6578H23.9518C24.6564 44.6578 25.2408 45.3172 24.9799 46.1375C24.7455 46.8547 25.0064 47.8078 25.5689 48.3703C27.1283 49.9297 29.7893 48.5922 29.4627 46.4031C29.4455 46.2828 29.4189 46.1734 29.3877 46.0703C29.1705 45.3656 29.7018 44.6625 30.4283 44.6625V44.6578H37.7049V44.6562ZM39.8924 20.4328V33.5125H39.8877C39.8877 34.3453 38.9705 34.8859 38.2408 34.4469C36.7439 33.5516 34.7721 34.6203 34.7721 36.4219C34.7721 38.3578 36.9252 39.2125 38.1783 38.4328C39.0283 37.9016 39.8924 38.5438 39.8924 39.3313V44.6547H47.2189C46.9658 42.0234 49.0439 39.7469 51.6783 39.7469C54.3174 39.7469 56.3955 42.0234 56.1377 44.6547H63.5783C63.6486 41.9219 63.2814 39.2906 62.4486 36.7313L61.2174 37.3469L61.2127 37.3422C58.4439 38.5375 55.6768 35.7031 56.6689 32.7844C56.9658 31.9156 57.5768 31.1625 58.4314 30.7375L58.4361 30.7422L59.2377 30.3391C54.8096 24.1172 47.6439 20.3844 39.8924 20.4328ZM24.6611 8.04531C22.8268 6.21094 19.8518 6.21094 18.0127 8.04531C16.1783 9.88281 16.1783 12.8594 18.0127 14.6938C19.8502 16.5281 22.8268 16.5281 24.6611 14.6938C26.4939 12.8594 26.4939 9.88281 24.6611 8.04531ZM58.7471 6.67188C56.1518 6.67188 54.0471 8.775 54.0471 11.3719C54.0471 13.9672 56.1502 16.0719 58.7471 16.0719C61.3424 16.0719 63.4471 13.9688 63.4471 11.3719C63.4471 8.775 61.3424 6.67188 58.7471 6.67188Z" fill="#999999"/>
</svg>
