<svg width="30" height="30" viewBox="0 0 30 30" fill="none" xmlns="http://www.w3.org/2000/svg">
<rect width="30" height="30" rx="5" fill="#0D8792"/>
<path fill-rule="evenodd" clip-rule="evenodd" d="M18.2523 16.0446C17.305 16.2302 16.6963 16.9919 16.5954 17.9424C14.4242 17.0993 12.8943 15.5662 12.0545 13.4015C13.005 13.3006 13.77 12.6919 13.9522 11.7447C14.1638 10.6575 11.3026 7.79957 10.2186 8.01114C9.52199 8.14786 8.58125 9.05277 8.29155 9.68425C7.64377 11.0969 8.17762 12.6822 8.897 13.9581C10.3228 16.4841 13.5161 19.6773 16.042 21.103C17.3181 21.8224 18.9033 22.3562 20.3161 21.7085C20.9476 21.4188 21.8525 20.478 21.9892 19.7815C22.1975 18.691 19.3363 15.8331 18.2523 16.0446Z" fill="white"/>
</svg>
