<svg width="80" height="79" viewBox="0 0 80 79" fill="none" xmlns="http://www.w3.org/2000/svg">
<g clip-path="url(#clip0_1_165581)">
<path d="M13.6094 26.5957C13.9747 25.9463 14.8007 25.703 15.4502 26.0684C16.0993 26.4338 16.3427 27.2589 15.9775 27.9082C14.9763 29.7077 14.2053 31.6021 13.6641 33.5234C13.5152 34.051 13.0685 34.4293 12.541 34.4971L8.58984 35.0117V47.0537L12.5273 47.5811C13.0685 47.6488 13.5016 48.028 13.6504 48.5557C14.2051 50.5174 14.9899 52.425 15.9775 54.2109C16.2346 54.6844 16.1938 55.2661 15.8691 55.6855L13.4473 58.8252L21.9717 67.3486L25.124 64.9268C25.5569 64.6021 26.1388 64.5479 26.6123 64.8184C28.3983 65.8061 30.2793 66.5908 32.2412 67.1455C32.7552 67.2943 33.147 67.7411 33.2148 68.2686L33.7295 72.2197H45.7852L46.2988 68.2686C46.3666 67.7275 46.7459 67.2943 47.2734 67.1455C49.2217 66.5908 51.1164 65.806 52.9023 64.8184C53.3758 64.5616 53.9576 64.6021 54.377 64.9268L57.543 67.3623L66.0674 58.8379L63.6318 55.6719C63.3072 55.2389 63.2664 54.6573 63.5234 54.1973C64.5246 52.3978 65.2957 50.5033 65.8369 48.582C65.9858 48.0546 66.4324 47.6761 66.96 47.6084L70.9248 47.0938V35.0518L66.9463 34.5381C66.4052 34.4704 65.9585 34.0911 65.8232 33.5635C65.2821 31.6289 64.4973 29.7485 63.5098 27.9492C63.1445 27.2998 63.3878 26.4738 64.0371 26.1084C64.6866 25.7431 65.5126 25.9873 65.8779 26.6367C66.8249 28.3413 67.596 30.127 68.1777 31.9668L72.4668 32.5225C73.1433 32.6036 73.6444 33.1849 73.6445 33.8613V48.2578C73.6445 48.9343 73.1433 49.5165 72.4668 49.5977L68.2051 50.1523C67.718 51.7082 67.0819 53.2372 66.3242 54.7119L68.9492 58.1348C69.3551 58.676 69.3142 59.4338 68.8271 59.9209L58.625 70.123C58.1379 70.6098 57.3799 70.6499 56.8389 70.2441L53.416 67.6191C51.9548 68.3768 50.426 68.9994 48.8701 69.5L48.3154 73.7617C48.2072 74.4112 47.6384 74.9258 46.9619 74.9258H32.5254C31.849 74.9258 31.2669 74.4254 31.1855 73.749L30.6309 69.4863C29.0614 68.9857 27.5462 68.3496 26.085 67.6055L22.6885 70.2168C22.1473 70.6362 21.3894 70.5829 20.9023 70.1094L10.7002 59.9072C10.2133 59.4337 10.1732 58.6622 10.5791 58.1211L13.1904 54.7256C12.4328 53.2509 11.7965 51.7217 11.2959 50.1523L7.04785 49.5977C6.3849 49.5029 5.88385 48.9343 5.88379 48.2578V33.834C5.88402 33.1578 6.38437 32.5765 7.06055 32.4951L11.3096 31.9404C11.8914 30.1139 12.6623 28.314 13.6094 26.5957ZM59.0176 33.5635C59.7346 33.3337 60.4925 33.7399 60.709 34.4434C61.3855 36.5811 61.7236 38.8001 61.7236 41.0596C61.7372 53.1827 51.8731 63.0596 39.7363 63.0596C27.5996 63.0595 17.7363 53.1961 17.7363 41.0596C17.7363 39.0977 17.9937 37.1493 18.5078 35.2686C18.7108 34.5516 19.4413 34.1184 20.1719 34.3213C20.8887 34.5108 21.3218 35.2549 21.1191 35.9854C20.6726 37.6225 20.4424 39.3412 20.4424 41.0596C20.4424 51.6943 29.1015 60.3534 39.7363 60.3535C50.3712 60.3535 59.0312 51.6943 59.0312 41.0596C59.0312 39.0842 58.733 37.1356 58.1377 35.2549C57.9078 34.5379 58.3141 33.7799 59.0176 33.5635ZM39.749 10.4678C45.6618 10.4678 50.4785 15.2845 50.4785 21.1973C50.4785 24.9656 48.5202 28.2854 45.5703 30.2002C50.9328 32.1178 55.1277 36.6214 56.5137 42.3994C56.6894 43.13 56.2433 43.8603 55.5127 44.0361C54.7957 44.2119 54.0519 43.7656 53.876 43.0352C52.3611 36.6835 46.8134 32.1619 40.3096 31.9121C40.124 31.9217 39.9369 31.9268 39.749 31.9268C39.561 31.9268 39.3741 31.9217 39.1885 31.9121C32.6854 32.1627 27.1387 36.6845 25.624 43.0488C25.4751 43.6846 24.9202 44.0908 24.2979 44.0908C24.1898 44.0908 24.0819 44.0768 23.9873 44.0498C23.2568 43.874 22.8098 43.1436 22.9854 42.4131C24.3706 36.6276 28.563 32.1151 33.9219 30.1973C30.9753 28.2819 29.0196 24.9631 29.0195 21.1973C29.0195 15.2847 33.8364 10.468 39.749 10.4678ZM13.5967 4C18.4405 4.00011 22.3779 7.93751 22.3779 12.7812C22.3779 15.678 20.9688 18.2495 18.8008 19.8496C22.8906 21.4972 26.0631 25.04 27.1396 29.5322C27.3153 30.2627 26.8692 30.9931 26.1387 31.1689C25.4217 31.3448 24.678 30.8984 24.502 30.168C23.3113 25.1754 18.8865 21.6302 13.7314 21.5625H13.3926C8.2512 21.6303 3.82722 25.1756 2.62305 30.1816C2.51466 30.7903 1.95934 31.21 1.35059 31.21C1.24256 31.2099 1.13458 31.1959 1.04004 31.1689C0.309561 30.9931 -0.137491 30.2627 0.0380859 29.5322C1.11541 25.0369 4.29185 21.4918 8.38574 19.8457C6.22112 18.2453 4.81543 15.6753 4.81543 12.7812C4.81546 7.93744 8.75281 4 13.5967 4ZM66.418 4C71.2618 4 75.1992 7.93745 75.1992 12.7812C75.1992 15.6782 73.7903 18.2495 71.6221 19.8496C75.7122 21.4971 78.8853 25.0398 79.9619 29.5322C80.1375 30.2626 79.6912 30.9929 78.9609 31.1689C78.2439 31.3448 77.4992 30.8985 77.3232 30.168C76.1326 25.1753 71.7078 21.6302 66.5527 21.5625H66.2148C61.0733 21.6302 56.6485 25.1755 55.4443 30.1816C55.3359 30.7902 54.7816 31.2099 54.1729 31.21C54.0646 31.21 53.956 31.196 53.8613 31.1689C53.131 30.993 52.6848 30.2626 52.8604 29.5322C53.9377 25.0368 57.114 21.4918 61.208 19.8457C59.0433 18.2453 57.6367 15.6754 57.6367 12.7812C57.6368 7.9376 61.5743 4.00024 66.418 4ZM39.749 13.1875C35.3247 13.1877 31.7256 16.7867 31.7256 21.2109C31.7257 25.4131 34.9729 28.8675 39.0898 29.2041C39.2327 29.1989 39.3759 29.1951 39.5195 29.1934H39.9795C40.1223 29.1953 40.2652 29.1987 40.4072 29.2041C44.5249 28.8683 47.7724 25.4137 47.7725 21.2109C47.7725 16.7865 44.1735 13.1875 39.749 13.1875ZM66.418 6.70605C63.0627 6.7063 60.3438 9.42593 60.3438 12.7812C60.3438 16.0265 62.8871 18.676 66.0898 18.8467C66.136 18.8456 66.1823 18.8434 66.2285 18.8428H66.5938C66.643 18.8434 66.6921 18.8465 66.7412 18.8477C69.9466 18.6799 72.4932 16.0285 72.4932 12.7812C72.4931 9.42578 69.7735 6.70605 66.418 6.70605ZM13.5967 6.70605C10.2412 6.70605 7.52151 9.42577 7.52148 12.7812C7.52148 16.0267 10.0656 18.6763 13.2686 18.8467C13.3144 18.8456 13.3603 18.8434 13.4062 18.8428H13.7715C13.8206 18.8434 13.87 18.8465 13.9189 18.8477C17.1245 18.6801 19.6719 16.0286 19.6719 12.7812C19.6718 9.42584 16.9386 6.70617 13.5967 6.70605Z" fill="#999999"/>
</g>
<defs>
<clipPath id="clip0_1_165581">
<rect width="80.0002" height="78.9258" fill="white"/>
</clipPath>
</defs>
</svg>
