<svg width="41" height="58" viewBox="0 0 41 58" fill="none" xmlns="http://www.w3.org/2000/svg">
<path d="M40 20.3846C40 31.1108 20.5 57 20.5 57C20.5 57 1 31.1108 1 20.3846C1 15.2435 3.05446 10.3129 6.71142 6.67762C10.3684 3.0423 15.3283 1 20.5 1C25.6717 1 30.6316 3.0423 34.2886 6.67762C37.9455 10.3129 40 15.2435 40 20.3846V20.3846Z" stroke="#111111" stroke-width="2" stroke-linecap="round" stroke-linejoin="round"/>
<path d="M20.499 26.8462C24.0889 26.8462 26.999 23.9532 26.999 20.3846C26.999 16.816 24.0889 13.9231 20.499 13.9231C16.9092 13.9231 13.999 16.816 13.999 20.3846C13.999 23.9532 16.9092 26.8462 20.499 26.8462Z" stroke="#111111" stroke-width="2" stroke-linecap="round" stroke-linejoin="round"/>
</svg>
