<svg width="60" height="44" viewBox="0 0 60 44" fill="none" xmlns="http://www.w3.org/2000/svg">
<path d="M5 42.3334H55C57.2119 42.3334 59 40.5513 59 38.4095V4.92419C59 2.78255 57.2122 1.00037 55 1.00037H5C2.78781 1.00037 1.00003 2.78255 1 4.92419V38.4095L1.00488 38.6088C1.11159 40.6606 2.85665 42.3334 5 42.3334Z" stroke="#111111" stroke-width="2" stroke-miterlimit="10" stroke-linecap="round" stroke-linejoin="round"/>
<mask id="path-2-inside-1_91_316" fill="white">
<path d="M56.667 1.7784L33.9305 21.9267C31.6794 23.9512 27.9961 23.9512 25.7454 21.9267L1.66699 1.7784"/>
</mask>
<path d="M55.3405 0.281561C56.1672 -0.451015 57.4313 -0.374729 58.1638 0.451954C58.8964 1.27864 58.8201 2.54267 57.9934 3.27524L56.667 1.7784L55.3405 0.281561ZM33.9305 21.9267L32.5931 20.4396C32.5968 20.4363 32.6004 20.4331 32.6041 20.4298L33.9305 21.9267ZM25.7454 21.9267L27.0289 20.3928C27.0472 20.4081 27.0652 20.4238 27.083 20.4397L25.7454 21.9267ZM0.383509 3.31224C-0.463609 2.6034 -0.575698 1.34204 0.13315 0.494919C0.841999 -0.352198 2.10336 -0.464287 2.95048 0.24456L1.66699 1.7784L0.383509 3.31224ZM56.667 1.7784L57.9934 3.27524L35.257 23.4235L33.9305 21.9267L32.6041 20.4298L55.3405 0.281561L56.667 1.7784ZM33.9305 21.9267L35.2679 23.4138C32.2564 26.1221 27.4191 26.1223 24.4079 23.4136L25.7454 21.9267L27.083 20.4397C28.573 21.7801 31.1024 21.7803 32.5931 20.4396L33.9305 21.9267ZM25.7454 21.9267L24.4619 23.4605L0.383509 3.31224L1.66699 1.7784L2.95048 0.24456L27.0289 20.3928L25.7454 21.9267Z" fill="#111111" mask="url(#path-2-inside-1_91_316)"/>
</svg>
