<svg width="143" height="80" viewBox="0 0 143 80" fill="none" xmlns="http://www.w3.org/2000/svg">
<g clip-path="url(#clip0_4026_3779)">
<path d="M35.908 24.4852C34.5849 26.8579 32.5546 28.7717 29.817 30.2287C27.0773 31.6857 23.6782 32.4131 19.6176 32.4131H12.1122V50.1697H0V0.703613H19.6176C23.5847 0.703613 26.9359 1.38556 29.6756 2.74729C32.4131 4.11118 34.4674 5.98816 35.8383 8.38472C37.2071 10.7813 37.8926 13.5286 37.8926 16.6287C37.8926 19.4951 37.231 22.1146 35.9101 24.4852H35.908ZM23.8676 21.2097C25.0013 20.1294 25.5671 18.6031 25.5671 16.6287C25.5671 14.6543 25.0013 13.1302 23.8676 12.0478C22.7338 10.9675 21.0103 10.4262 18.6971 10.4262H12.11V22.8269H18.6971C21.0103 22.8269 22.7338 22.2878 23.8676 21.2053V21.2097Z" fill="url(#paint0_linear_4026_3779)"/>
<path d="M114.953 48.9005C112.072 47.7271 109.769 45.9887 108.048 43.6874C106.324 41.3861 105.415 38.615 105.321 35.372H118.213C118.4 37.2035 119.037 38.602 120.125 39.5654C121.211 40.5288 122.628 41.0094 124.375 41.0094C126.123 41.0094 127.585 40.5981 128.625 39.7754C129.663 38.9549 130.183 37.814 130.183 36.357C130.183 35.136 129.77 34.1272 128.943 33.3261C128.116 32.5273 127.102 31.8713 125.896 31.3539C124.693 30.8365 122.98 30.2498 120.761 29.5917C117.549 28.6045 114.929 27.6194 112.898 26.6322C110.868 25.645 109.121 24.1902 107.658 22.2634C106.194 20.3388 105.463 17.8254 105.463 14.723C105.463 10.1204 107.138 6.5137 110.492 3.90715C113.843 1.30059 118.213 -0.00268555 123.594 -0.00268555C128.976 -0.00268555 133.484 1.30059 136.838 3.90715C140.189 6.5137 141.984 10.1421 142.222 14.7923H129.119C129.023 13.1968 128.434 11.939 127.348 11.0232C126.262 10.1075 124.869 9.64849 123.17 9.64849C121.705 9.64849 120.526 10.036 119.629 10.811C118.733 11.5861 118.284 12.7032 118.284 14.158C118.284 15.7557 119.039 17.0005 120.55 17.8925C122.06 18.7844 124.421 19.7478 127.633 20.7805C130.843 21.8608 133.452 22.8934 135.458 23.8806C137.465 24.8678 139.199 26.301 140.663 28.178C142.126 30.0571 142.859 32.4753 142.859 35.4348C142.859 38.3942 142.139 40.8146 140.698 43.1159C139.258 45.4172 137.169 47.2508 134.431 48.6126C131.691 49.9765 128.458 50.6563 124.728 50.6563C120.998 50.6563 117.834 50.0696 114.955 48.894L114.953 48.9005Z" fill="url(#paint1_linear_4026_3779)"/>
<path d="M92.7047 33.5951H71.6312C67.0484 33.5951 63.3316 29.8996 63.3316 25.3381C63.3316 20.7766 67.0462 17.0811 71.6312 17.0811H92.7047C94.8155 17.0811 96.5281 15.3795 96.5281 13.2774V4.37309C96.5281 2.27312 94.8177 0.569336 92.7047 0.569336H71.6312C57.8826 0.569336 46.7344 11.658 46.7344 25.3381C46.7344 39.016 57.8804 50.1069 71.6312 50.1069H92.7047C94.8155 50.1069 96.5281 48.4052 96.5281 46.3031V37.3967C96.5281 35.2967 94.8177 33.5929 92.7047 33.5929V33.5951Z" fill="url(#paint2_linear_4026_3779)"/>
<path d="M71.6307 17.0833H92.7042C94.815 17.0833 96.5276 15.3817 96.5276 13.2796V9.39355C96.5276 11.4935 94.8172 13.1973 92.7042 13.1973H71.6307C67.0479 13.1973 63.3311 16.8928 63.3311 21.4543C63.3311 22.1232 63.4137 22.7749 63.5639 23.3984C64.443 19.7765 67.7181 17.0855 71.6286 17.0855L71.6307 17.0833Z" fill="url(#paint3_linear_4026_3779)"/>
<path d="M96.5281 46.3029V42.4169C96.5281 44.5169 94.8177 46.2207 92.7047 46.2207H71.6312C58.5398 46.2207 47.8072 36.1668 46.8105 23.396C46.7605 24.0368 46.7344 24.6863 46.7344 25.3401C46.7344 39.018 57.8804 50.1088 71.6312 50.1088H92.7047C94.8155 50.1088 96.5281 48.4072 96.5281 46.3051V46.3029Z" fill="url(#paint4_linear_4026_3779)"/>
<path d="M63.3325 25.3376C63.3325 20.7783 67.0471 17.0807 71.6322 17.0807H88.0444V0.571045H71.6322C57.8836 0.571045 46.7354 11.6597 46.7354 25.3398H63.3325V25.3376Z" fill="url(#paint5_linear_4026_3779)"/>
<path d="M63.3325 25.3379C63.3325 29.8972 67.0471 33.5949 71.6322 33.5949H88.0444V50.1066H71.6322C57.8836 50.1066 46.7354 39.018 46.7354 25.3379H63.3325Z" fill="url(#paint6_linear_4026_3779)"/>
<path d="M71.6312 50.1067H88.0434V46.2207H71.6312C59.2122 46.2207 48.6102 37.1713 46.7344 25.3401C46.7344 39.018 57.8804 50.1088 71.6312 50.1088V50.1067Z" fill="url(#paint7_linear_4026_3779)"/>
<path d="M71.6307 17.083H88.0429V13.197H71.6307C67.0479 13.197 63.3311 16.8925 63.3311 21.454C63.3311 22.123 63.4137 22.7746 63.5639 23.3981C64.443 19.7762 67.7181 17.0852 71.6286 17.0852L71.6307 17.083Z" fill="url(#paint8_linear_4026_3779)"/>
<path d="M16.5275 65.6876H12.6193C11.8424 64.2631 10.4344 63.5141 8.63915 63.5141C5.60566 63.5141 3.49483 65.6638 3.49483 69.0194C3.49483 72.375 5.62959 74.5724 8.78495 74.5724C11.405 74.5724 13.0806 73.0765 13.5898 70.6842H7.76435V68.1015H16.9388V71.0479C16.2599 74.4772 13.1763 77.6163 8.66309 77.6163C3.73638 77.6163 0 74.068 0 69.0216C0 63.9752 3.73638 60.4031 8.63915 60.4031C12.4256 60.4031 15.4351 62.3104 16.5275 65.6898V65.6876Z" fill="white"/>
<path d="M19.46 59.6045H22.8569V77.4715H19.46V59.6045Z" fill="white"/>
<path d="M32.1783 77.6879C28.2961 77.6879 25.3584 74.9839 25.3584 70.7818C25.3584 66.5797 28.3919 63.8757 32.2741 63.8757C36.1562 63.8757 39.1919 66.5559 39.1919 70.7818C39.1919 75.0077 36.0844 77.6879 32.1783 77.6879ZM32.1783 74.7414C33.9736 74.7414 35.6971 73.4382 35.6971 70.7818C35.6971 68.1255 34.0215 66.8222 32.2262 66.8222C30.4309 66.8222 28.8032 68.1016 28.8032 70.7818C28.8032 73.462 30.3569 74.7414 32.1761 74.7414H32.1783Z" fill="white"/>
<path d="M49.5278 63.878C52.9748 63.878 55.6688 66.5582 55.6688 70.7343C55.6688 74.9104 52.9748 77.688 49.5278 77.688C47.417 77.688 45.9111 76.7225 45.0864 75.5642V77.4715H41.6895V59.6045H45.0864V66.0516C45.9111 64.8198 47.4888 63.878 49.5278 63.878ZM48.6291 66.8483C46.8098 66.8483 45.0864 68.249 45.0864 70.7841C45.0864 73.3192 46.8098 74.7199 48.6291 74.7199C50.4483 74.7199 52.1957 73.2716 52.1957 70.7365C52.1957 68.2014 50.4722 66.8483 48.6291 66.8483Z" fill="white"/>
<path d="M63.4093 63.8782C65.5702 63.8782 67.0499 64.8914 67.8507 66.002V64.0947H71.2738V77.4717H67.8507V75.5167C67.0499 76.675 65.5201 77.6903 63.3854 77.6903C59.9885 77.6903 57.2705 74.9127 57.2705 70.7366C57.2705 66.5605 59.9885 63.8803 63.4115 63.8803L63.4093 63.8782ZM64.2819 66.8484C62.4627 66.8484 60.7392 68.2015 60.7392 70.7366C60.7392 73.2717 62.4627 74.7201 64.2819 74.7201C66.1012 74.7201 67.8486 73.3194 67.8486 70.7842C67.8486 68.2491 66.149 66.8484 64.2819 66.8484Z" fill="white"/>
<path d="M74.5947 59.6045H77.9916V77.4715H74.5947V59.6045Z" fill="white"/>
<path d="M93.8388 60.2854V62.4676H96.2304V63.1712H93.8388V65.4184H96.5133V66.122H92.9814V59.584H96.5133V60.2876H93.8388V60.2854Z" fill="white"/>
<path d="M100.507 66.1223L99.2816 64.2106L98.1043 66.1223H97.21L98.8769 63.5742L97.21 60.9893H98.1805L99.4057 62.8901L100.574 60.9893H101.469L99.8104 63.5287L101.477 66.1244H100.507V66.1223Z" fill="white"/>
<path d="M103.939 61.1992C104.274 61.0022 104.666 60.9048 105.112 60.9048C105.558 60.9048 105.987 61.0152 106.359 61.2317C106.733 61.4503 107.025 61.7578 107.24 62.1539C107.453 62.5501 107.56 63.0112 107.56 63.5352C107.56 64.0591 107.453 64.5159 107.24 64.9207C107.027 65.3277 106.733 65.6416 106.359 65.8668C105.984 66.0919 105.569 66.2045 105.112 66.2045C104.655 66.2045 104.285 66.1071 103.95 65.9101C103.615 65.7131 103.358 65.4684 103.182 65.174V68.5556H102.324V60.9871H103.182V61.9331C103.351 61.6387 103.604 61.3941 103.939 61.197V61.1992ZM106.448 62.5241C106.291 62.2362 106.08 62.0176 105.813 61.8682C105.545 61.7188 105.253 61.643 104.931 61.643C104.609 61.643 104.326 61.7188 104.061 61.8725C103.793 62.0262 103.58 62.247 103.421 62.5371C103.26 62.8272 103.182 63.1628 103.182 63.5438C103.182 63.9248 103.262 64.2691 103.421 64.5592C103.582 64.8493 103.795 65.0722 104.061 65.2238C104.328 65.3775 104.618 65.4533 104.931 65.4533C105.245 65.4533 105.545 65.3775 105.813 65.2238C106.08 65.0701 106.291 64.8493 106.448 64.5592C106.605 64.2691 106.683 63.927 106.683 63.533C106.683 63.139 106.605 62.8077 106.448 62.522V62.5241Z" fill="white"/>
<path d="M113.367 63.875H109.243C109.274 64.3816 109.448 64.7756 109.766 65.0593C110.083 65.3429 110.466 65.4857 110.919 65.4857C111.289 65.4857 111.598 65.3991 111.846 65.2281C112.094 65.0571 112.268 64.8276 112.368 64.5397H113.291C113.154 65.0333 112.878 65.4338 112.462 65.7434C112.048 66.0529 111.533 66.2067 110.917 66.2067C110.427 66.2067 109.99 66.0984 109.602 65.8798C109.217 65.6611 108.913 65.3515 108.693 64.9467C108.473 64.544 108.364 64.0764 108.364 63.546C108.364 63.0156 108.471 62.5501 108.684 62.1496C108.897 61.7491 109.198 61.4417 109.583 61.2274C109.968 61.0109 110.412 60.9048 110.915 60.9048C111.417 60.9048 111.837 61.0109 112.214 61.223C112.59 61.4352 112.88 61.7275 113.084 62.0998C113.289 62.4722 113.391 62.8922 113.391 63.3598C113.391 63.5222 113.382 63.6932 113.363 63.875H113.367ZM112.294 62.3445C112.151 62.1106 111.953 61.9331 111.707 61.8097C111.459 61.6885 111.184 61.6279 110.882 61.6279C110.449 61.6279 110.079 61.7643 109.777 62.0392C109.472 62.3141 109.298 62.6952 109.254 63.1823H112.512C112.512 62.8575 112.44 62.5783 112.294 62.3445Z" fill="white"/>
<path d="M116.029 61.1387C116.308 60.9763 116.649 60.8962 117.05 60.8962V61.7774H116.823C115.864 61.7774 115.383 62.2969 115.383 63.3318V66.1223H114.525V60.9893H115.383V61.8228C115.533 61.5284 115.748 61.3011 116.027 61.1387H116.029Z" fill="white"/>
<path d="M118.067 59.9869C117.954 59.8743 117.897 59.7379 117.897 59.5756C117.897 59.4132 117.954 59.2768 118.067 59.1642C118.18 59.0516 118.317 58.9954 118.481 58.9954C118.644 58.9954 118.77 59.0516 118.881 59.1642C118.99 59.2768 119.046 59.4132 119.046 59.5756C119.046 59.7379 118.992 59.8743 118.881 59.9869C118.772 60.0995 118.637 60.1558 118.481 60.1558C118.324 60.1558 118.18 60.0995 118.067 59.9869ZM118.896 60.9892V66.1222H118.039V60.9892H118.896Z" fill="white"/>
<path d="M125.033 63.875H120.909C120.94 64.3816 121.114 64.7756 121.432 65.0593C121.749 65.3429 122.132 65.4857 122.585 65.4857C122.955 65.4857 123.264 65.3991 123.512 65.2281C123.76 65.0571 123.934 64.8276 124.034 64.5397H124.957C124.82 65.0333 124.544 65.4338 124.128 65.7434C123.714 66.0529 123.199 66.2067 122.583 66.2067C122.093 66.2067 121.656 66.0984 121.268 65.8798C120.883 65.6611 120.579 65.3515 120.359 64.9467C120.139 64.544 120.03 64.0764 120.03 63.546C120.03 63.0156 120.137 62.5501 120.35 62.1496C120.563 61.7491 120.864 61.4417 121.249 61.2274C121.634 61.0109 122.078 60.9048 122.581 60.9048C123.083 60.9048 123.503 61.0109 123.88 61.223C124.256 61.4352 124.546 61.7275 124.75 62.0998C124.955 62.4722 125.057 62.8922 125.057 63.3598C125.057 63.5222 125.048 63.6932 125.029 63.875H125.033ZM123.96 62.3445C123.817 62.1106 123.619 61.9331 123.373 61.8097C123.125 61.6885 122.85 61.6279 122.548 61.6279C122.115 61.6279 121.745 61.7643 121.443 62.0392C121.138 62.3141 120.964 62.6952 120.92 63.1823H124.178C124.178 62.8575 124.106 62.5783 123.96 62.3445Z" fill="white"/>
<path d="M130.231 61.4613C130.621 61.8402 130.814 62.3836 130.814 63.0958V66.1224H129.968V63.2192C129.968 62.7083 129.84 62.3143 129.583 62.0437C129.326 61.7731 128.973 61.6367 128.527 61.6367C128.081 61.6367 127.716 61.7774 127.45 62.0588C127.183 62.3403 127.05 62.7494 127.05 63.2863V66.1245H126.192V60.9915H127.05V61.7233C127.22 61.4613 127.45 61.2578 127.742 61.1149C128.033 60.972 128.355 60.8984 128.708 60.8984C129.335 60.8984 129.844 61.0868 130.233 61.4656L130.231 61.4613Z" fill="white"/>
<path d="M132.219 62.1539C132.432 61.7578 132.728 61.4503 133.109 61.2317C133.487 61.013 133.922 60.9048 134.412 60.9048C135.045 60.9048 135.57 61.0585 135.979 61.3638C136.39 61.669 136.662 62.0955 136.793 62.6367H135.87C135.783 62.325 135.611 62.0782 135.357 61.8963C135.102 61.7145 134.786 61.6257 134.41 61.6257C133.92 61.6257 133.524 61.7924 133.224 62.1258C132.924 62.4592 132.771 62.9333 132.771 63.546C132.771 64.1587 132.921 64.6414 133.224 64.9792C133.526 65.3169 133.92 65.4857 134.41 65.4857C134.786 65.4857 135.1 65.3991 135.352 65.2238C135.602 65.0484 135.776 64.7995 135.87 64.4747H136.793C136.656 64.9986 136.379 65.4186 135.964 65.7347C135.55 66.0508 135.032 66.2088 134.41 66.2088C133.92 66.2088 133.485 66.1006 133.106 65.8819C132.726 65.6633 132.43 65.3537 132.216 64.9553C132.003 64.5548 131.896 64.0872 131.896 63.5503C131.896 63.0134 132.003 62.5566 132.216 62.1583L132.219 62.1539Z" fill="white"/>
<path d="M142.614 63.875H138.49C138.521 64.3816 138.695 64.7756 139.013 65.0593C139.33 65.3429 139.713 65.4857 140.166 65.4857C140.536 65.4857 140.845 65.3991 141.093 65.2281C141.341 65.0571 141.515 64.8276 141.615 64.5397H142.538C142.401 65.0333 142.125 65.4338 141.709 65.7434C141.295 66.0529 140.78 66.2067 140.164 66.2067C139.674 66.2067 139.237 66.0984 138.85 65.8798C138.464 65.6611 138.16 65.3515 137.94 64.9467C137.72 64.544 137.611 64.0764 137.611 63.546C137.611 63.0156 137.718 62.5501 137.931 62.1496C138.144 61.7491 138.445 61.4417 138.83 61.2274C139.215 61.0109 139.659 60.9048 140.162 60.9048C140.664 60.9048 141.084 61.0109 141.461 61.223C141.837 61.4352 142.127 61.7275 142.331 62.0998C142.536 62.4722 142.638 62.8922 142.638 63.3598C142.638 63.5222 142.629 63.6932 142.61 63.875H142.614ZM141.541 62.3445C141.398 62.1106 141.2 61.9331 140.954 61.8097C140.706 61.6885 140.432 61.6279 140.129 61.6279C139.696 61.6279 139.326 61.7643 139.024 62.0392C138.719 62.3141 138.545 62.6952 138.501 63.1823H141.759C141.759 62.8575 141.687 62.5783 141.541 62.3445Z" fill="white"/>
<path d="M97.2766 76.1312H94.4151L93.8884 77.5839H92.9854L95.3573 71.0913H96.3453L98.7085 77.5839H97.8054L97.2788 76.1312H97.2766ZM97.0329 75.4384L95.8469 72.1413L94.661 75.4384H97.0329Z" fill="white"/>
<path d="M99.742 73.6156C99.9552 73.2194 100.251 72.912 100.632 72.6934C101.011 72.4747 101.446 72.3665 101.936 72.3665C102.569 72.3665 103.091 72.5202 103.502 72.8254C103.914 73.1307 104.186 73.5572 104.316 74.0984H103.393C103.306 73.7866 103.135 73.5398 102.88 73.358C102.625 73.1761 102.31 73.0874 101.933 73.0874C101.444 73.0874 101.048 73.2541 100.747 73.5875C100.447 73.9209 100.295 74.395 100.295 75.0077C100.295 75.6203 100.445 76.1031 100.747 76.4408C101.048 76.7785 101.444 76.9474 101.933 76.9474C102.31 76.9474 102.623 76.8608 102.876 76.6855C103.126 76.5101 103.3 76.2611 103.393 75.9364H104.316C104.179 76.4603 103.903 76.8803 103.487 77.1964C103.074 77.5125 102.556 77.6705 101.933 77.6705C101.444 77.6705 101.008 77.5622 100.63 77.3436C100.249 77.1249 99.9531 76.8154 99.7398 76.417C99.5266 76.0165 99.4199 75.5489 99.4199 75.012C99.4199 74.4751 99.5266 74.0183 99.7398 73.6199L99.742 73.6156Z" fill="white"/>
<path d="M105.459 73.6156C105.672 73.2194 105.968 72.912 106.349 72.6934C106.73 72.4747 107.163 72.3665 107.652 72.3665C108.286 72.3665 108.808 72.5202 109.219 72.8254C109.63 73.1307 109.902 73.5572 110.033 74.0984H109.11C109.023 73.7866 108.851 73.5398 108.597 73.358C108.342 73.1761 108.027 73.0874 107.65 73.0874C107.161 73.0874 106.764 73.2541 106.464 73.5875C106.164 73.9209 106.012 74.395 106.012 75.0077C106.012 75.6203 106.162 76.1031 106.464 76.4408C106.764 76.7785 107.161 76.9474 107.65 76.9474C108.027 76.9474 108.34 76.8608 108.592 76.6855C108.843 76.5101 109.017 76.2611 109.11 75.9364H110.033C109.896 76.4603 109.62 76.8803 109.204 77.1964C108.79 77.5125 108.272 77.6705 107.65 77.6705C107.161 77.6705 106.725 77.5622 106.347 77.3436C105.966 77.1249 105.67 76.8154 105.457 76.417C105.243 76.0165 105.137 75.5489 105.137 75.012C105.137 74.4751 105.243 74.0183 105.457 73.6199L105.459 73.6156Z" fill="white"/>
<path d="M115.749 72.4487V77.5817H114.892V76.824C114.729 77.086 114.5 77.2916 114.209 77.4367C113.917 77.5839 113.595 77.6575 113.243 77.6575C112.84 77.6575 112.481 77.5752 112.159 77.4085C111.839 77.244 111.587 76.995 111.402 76.6638C111.217 76.3326 111.123 75.9299 111.123 75.4558V72.4487H111.97V75.3432C111.97 75.8498 112.098 76.2373 112.355 76.5101C112.612 76.7807 112.964 76.9171 113.41 76.9171C113.856 76.9171 114.228 76.7764 114.494 76.495C114.757 76.2135 114.89 75.8043 114.89 75.2675V72.4487H115.747H115.749Z" fill="white"/>
<path d="M118.703 72.6004C118.981 72.438 119.323 72.3579 119.723 72.3579V73.239H119.497C118.538 73.239 118.057 73.7586 118.057 74.7934V77.584H117.199V72.451H118.057V73.2845C118.207 72.9901 118.422 72.7627 118.701 72.6004H118.703Z" fill="white"/>
<path d="M120.713 73.6156C120.926 73.2194 121.22 72.912 121.595 72.6934C121.969 72.4747 122.384 72.3665 122.841 72.3665C123.298 72.3665 123.686 72.4639 124.019 72.6566C124.352 72.8492 124.6 73.0939 124.763 73.3883V72.4509H125.629V77.5839H124.763V76.6292C124.593 76.9279 124.341 77.1769 124.006 77.3739C123.671 77.5709 123.279 77.6683 122.833 77.6683C122.387 77.6683 121.96 77.5558 121.59 77.3306C121.22 77.1055 120.929 76.7915 120.715 76.3845C120.502 75.9797 120.396 75.5164 120.396 74.999C120.396 74.4816 120.502 74.014 120.715 73.6178L120.713 73.6156ZM124.526 73.9945C124.369 73.7065 124.158 73.4879 123.89 73.3342C123.623 73.1805 123.331 73.1047 123.009 73.1047C122.687 73.1047 122.398 73.1805 122.134 73.3298C121.871 73.4792 121.66 73.6979 121.503 73.9858C121.346 74.2737 121.268 74.6093 121.268 74.9968C121.268 75.3843 121.346 75.7329 121.503 76.023C121.66 76.3131 121.871 76.5361 122.134 76.6876C122.398 76.8413 122.689 76.9171 123.009 76.9171C123.329 76.9171 123.623 76.8413 123.89 76.6876C124.158 76.5339 124.369 76.3131 124.526 76.023C124.682 75.7329 124.761 75.393 124.761 75.0077C124.761 74.6223 124.682 74.2824 124.526 73.9966V73.9945Z" fill="white"/>
<path d="M127.079 73.6156C127.292 73.2194 127.588 72.912 127.969 72.6934C128.348 72.4747 128.783 72.3665 129.272 72.3665C129.906 72.3665 130.428 72.5202 130.839 72.8254C131.251 73.1307 131.523 73.5572 131.653 74.0984H130.73C130.643 73.7866 130.471 73.5398 130.217 73.358C129.962 73.1761 129.647 73.0874 129.27 73.0874C128.781 73.0874 128.385 73.2541 128.084 73.5875C127.784 73.9209 127.632 74.395 127.632 75.0077C127.632 75.6203 127.782 76.1031 128.084 76.4408C128.387 76.7785 128.781 76.9474 129.27 76.9474C129.647 76.9474 129.96 76.8608 130.212 76.6855C130.463 76.5101 130.637 76.2611 130.73 75.9364H131.653C131.516 76.4603 131.24 76.8803 130.824 77.1964C130.411 77.5125 129.893 77.6705 129.27 77.6705C128.781 77.6705 128.345 77.5622 127.967 77.3436C127.586 77.1249 127.29 76.8154 127.077 76.417C126.863 76.0165 126.757 75.5489 126.757 75.012C126.757 74.4751 126.863 74.0183 127.077 73.6199L127.079 73.6156Z" fill="white"/>
<path d="M137.236 72.4487L134.129 79.9999H133.243L134.259 77.5276L132.179 72.4509H133.13L134.749 76.6097L136.35 72.4509H137.236V72.4487Z" fill="white"/>
<path d="M86.2845 58.1018H85.8467V78.5667H86.2845V58.1018Z" fill="white"/>
</g>
<defs>
<linearGradient id="paint0_linear_4026_3779" x1="0" y1="25.4356" x2="37.8926" y2="25.4356" gradientUnits="userSpaceOnUse">
<stop stop-color="#0095FF"/>
<stop offset="0.57" stop-color="#4B9CD6"/>
<stop offset="1" stop-color="#3568B0"/>
</linearGradient>
<linearGradient id="paint1_linear_4026_3779" x1="105.319" y1="25.3311" x2="142.857" y2="25.3311" gradientUnits="userSpaceOnUse">
<stop stop-color="#EB6471"/>
<stop offset="0.57" stop-color="#E63540"/>
<stop offset="1" stop-color="#C31C26"/>
</linearGradient>
<linearGradient id="paint2_linear_4026_3779" x1="68.9024" y1="3.11744" x2="68.9024" y2="58.6193" gradientUnits="userSpaceOnUse">
<stop stop-color="#F8F2F0"/>
<stop offset="0.57" stop-color="#EEE1DC"/>
<stop offset="1" stop-color="#CCBEBA"/>
</linearGradient>
<linearGradient id="paint3_linear_4026_3779" x1="77.182" y1="1.33575" x2="77.182" y2="23.0044" gradientUnits="userSpaceOnUse">
<stop stop-color="#F8F2F0"/>
<stop offset="0.57" stop-color="#EEE1DC"/>
<stop offset="1" stop-color="#CCBEBA"/>
</linearGradient>
<linearGradient id="paint4_linear_4026_3779" x1="-1231.51" y1="23.1427" x2="-1231.51" y2="38.4335" gradientUnits="userSpaceOnUse">
<stop stop-color="#F8F2F0"/>
<stop offset="0.57" stop-color="#EEE1DC"/>
<stop offset="1" stop-color="#CCBEBA"/>
</linearGradient>
<linearGradient id="paint5_linear_4026_3779" x1="64.6665" y1="3.11698" x2="64.6665" y2="27.8316" gradientUnits="userSpaceOnUse">
<stop stop-color="#0095FF"/>
<stop offset="0.57" stop-color="#4B9CD6"/>
<stop offset="1" stop-color="#3568B0"/>
</linearGradient>
<linearGradient id="paint6_linear_4026_3779" x1="64.6665" y1="26.3424" x2="64.6665" y2="56.7096" gradientUnits="userSpaceOnUse">
<stop stop-color="#EB6471"/>
<stop offset="0.57" stop-color="#E63540"/>
<stop offset="1" stop-color="#C31C26"/>
</linearGradient>
<linearGradient id="paint7_linear_4026_3779" x1="64.6677" y1="22.8526" x2="64.6677" y2="50.5505" gradientUnits="userSpaceOnUse">
<stop stop-color="#EB6471"/>
<stop offset="0.57" stop-color="#E63540"/>
<stop offset="1" stop-color="#C31C26"/>
</linearGradient>
<linearGradient id="paint8_linear_4026_3779" x1="72.9495" y1="-0.275226" x2="72.9495" y2="20.4083" gradientUnits="userSpaceOnUse">
<stop stop-color="#78C9DA"/>
<stop offset="0.57" stop-color="#4B9CD6"/>
<stop offset="1" stop-color="#3568B0"/>
</linearGradient>
<clipPath id="clip0_4026_3779">
<rect width="142.857" height="80" fill="white"/>
</clipPath>
</defs>
</svg>
