<svg width="1212" height="269" viewBox="0 0 1212 269" fill="none" xmlns="http://www.w3.org/2000/svg">
<path d="M571.729 60C586.9 60 600.938 62.5238 613.794 67.6201C626.65 72.7164 637.535 80.1378 646.5 89.9346L632.758 103.739C616.799 87.5102 596.653 79.3955 572.271 79.3955C556.116 79.3955 541.388 83.1066 528.139 90.5283C514.889 97.9502 504.545 108.144 497.009 121.058C489.522 133.972 485.778 148.469 485.778 164.5C485.778 180.531 489.522 195.028 497.009 207.942C504.496 220.856 514.889 231.05 528.139 238.472C541.388 245.893 556.066 249.604 572.271 249.604C596.801 249.604 616.947 241.391 632.758 224.964L646.5 238.769C637.536 248.565 626.601 256.036 613.646 261.231C600.692 266.427 586.605 269 571.435 269L569.542 268.888C550.05 268.615 532.408 264.117 516.662 255.394C500.408 246.388 487.65 233.92 478.39 217.987C469.13 202.055 464.5 184.192 464.5 164.45C464.5 144.708 469.13 126.846 478.39 110.914C487.65 94.9818 500.457 82.513 516.81 73.5078C533.162 64.5026 551.485 60 571.729 60ZM916.486 2.04883V21.3145L841.524 115.472C869.29 116.999 890.446 124.488 904.945 137.988C919.445 151.489 926.694 169.079 926.694 190.758C926.694 205.884 922.995 219.285 915.696 231.012C908.397 242.738 897.548 252.001 883.147 258.801C868.747 265.6 851.24 269 830.526 269C811.391 269 793.243 265.896 776.229 259.737C759.165 253.529 745.504 245.301 735.147 234.954L748.414 213.422C757.242 222.488 768.979 229.879 783.626 235.545C798.273 241.211 813.906 244.068 830.575 244.068C852.275 244.068 869.043 239.339 880.929 229.879C892.814 220.468 898.731 207.165 898.731 190.758C898.731 174.351 892.765 161.491 880.929 152.179C869.043 142.866 851.141 138.186 827.173 138.186H808.235V118.132L881.668 26.2412H157.597L146.5 2.04883H916.486ZM135.032 27.3457L244.5 267H217.811L189.052 202.997V202.947H55.6035L26.8447 266.951H0.5L110.017 27.3457L122.524 0L135.032 27.3457ZM347.356 62C373.569 62 394.094 68.2701 408.98 80.7617C423.867 93.2533 431.285 110.436 431.285 132.309C431.285 148.305 427.23 161.834 419.119 172.844C411.008 183.854 399.385 191.803 384.351 196.691L434.5 266.95H410.761L363.826 201.086C358.534 201.678 353.094 201.975 347.406 201.975H292.261V267H270.5V62H347.356ZM1069.57 2C1097.58 2 1122.29 7.61683 1143.74 18.8506C1165.19 30.0844 1181.86 45.7035 1193.7 65.7568C1205.58 85.8102 1211.5 108.672 1211.5 134.392C1211.5 160.111 1205.53 182.973 1193.7 203.026C1181.86 223.079 1165.19 238.698 1143.74 249.932C1122.29 261.165 1097.58 266.783 1069.57 266.783H961.71V2.04883H1069.57V2ZM989.722 242.541H1068.09C1091.31 242.541 1111.63 237.959 1129.04 228.745C1146.45 219.531 1159.96 206.82 1169.53 190.561C1179.1 174.301 1183.93 155.578 1183.93 134.392C1183.93 113.205 1179.15 94.4821 1169.53 78.2227C1159.96 61.9632 1146.45 49.2508 1129.04 40.0371C1111.63 30.8235 1091.31 26.2412 1068.09 26.2412H989.722V242.541ZM292.261 183.559H346.812C367.139 183.559 382.718 179.065 393.45 170.079C404.182 161.093 409.573 148.503 409.573 132.309C409.573 116.114 404.182 102.98 393.45 94.0928C382.669 85.2057 367.139 80.7617 346.812 80.7617H292.261V183.559ZM64.8604 182.401H179.794L122.328 53.6562L64.8604 182.401Z" fill="url(#paint0_linear_1_7585)"/>
<defs>
<linearGradient id="paint0_linear_1_7585" x1="606" y1="0" x2="606" y2="269" gradientUnits="userSpaceOnUse">
<stop offset="0.4375" stop-color="#DDDDDD"/>
<stop offset="1" stop-color="white"/>
</linearGradient>
</defs>
</svg>
