<svg width="153" height="152" viewBox="0 0 153 152" fill="none" xmlns="http://www.w3.org/2000/svg">
<path fill-rule="evenodd" clip-rule="evenodd" d="M23.646 142.411H6.90778L3.30482 150.377H0L13.7358 120.556L15.3021 117.154L16.8684 120.556L30.6 150.377H27.2532L23.646 142.411ZM22.487 139.856L15.2769 123.836L8.06678 139.856H22.487Z" fill="url(#paint0_linear_1_7550)"/>
<path fill-rule="evenodd" clip-rule="evenodd" d="M71.9341 151.247C69.4032 151.247 67.1234 150.662 65.0904 149.497C63.0573 148.328 61.4635 146.713 60.309 144.645C59.1544 142.576 58.5771 140.259 58.5771 137.698C58.5771 135.136 59.1544 132.819 60.309 130.751C61.4635 128.682 63.0657 127.063 65.1071 125.898C67.1485 124.729 69.4367 124.148 71.9675 124.148C73.8667 124.148 75.6153 124.48 77.2216 125.139C78.8279 125.798 80.1917 126.762 81.3086 128.032L79.5935 129.821C77.5981 127.714 75.0798 126.662 72.0386 126.662C70.0182 126.662 68.1817 127.142 66.5294 128.111C64.8728 129.075 63.5802 130.393 62.6432 132.069C61.7062 133.744 61.2376 135.621 61.2376 137.702C61.2376 139.784 61.7062 141.66 62.6432 143.336C63.5802 145.011 64.877 146.329 66.5294 147.293C68.1817 148.258 70.0223 148.742 72.0386 148.742C75.1049 148.742 77.6232 147.677 79.5935 145.544L81.3086 147.333C80.1875 148.603 78.8196 149.571 77.2049 150.243C75.586 150.915 73.829 151.251 71.9299 151.251L71.9341 151.247Z" fill="url(#paint1_linear_1_7550)"/>
<path fill-rule="evenodd" clip-rule="evenodd" d="M34.0971 150.373H36.8759V142.331H43.9304C44.6574 142.331 45.3585 142.293 46.0339 142.223L52.0388 150.373H55.08L48.6621 141.679C50.5892 141.077 52.0689 140.093 53.1099 138.727C54.1466 137.361 54.6671 135.692 54.6671 133.712C54.6671 131.009 53.7164 128.884 51.8151 127.339C49.9139 125.795 47.2856 125.022 43.9347 125.022H34.1014V150.377L34.0971 150.373ZM43.853 140.052H36.8716V127.339H43.853C46.4554 127.339 48.4427 127.887 49.8192 128.987C51.1957 130.088 51.884 131.661 51.884 133.716C51.884 135.771 51.1957 137.278 49.8192 138.387C48.4427 139.499 46.4554 140.052 43.853 140.052Z" fill="url(#paint2_linear_1_7550)"/>
<path fill-rule="evenodd" clip-rule="evenodd" d="M135.054 117.159H121.418V150.965H135.054C138.593 150.965 141.721 150.25 144.434 148.817C147.146 147.384 149.249 145.387 150.749 142.829C152.25 140.271 153 137.349 153 134.064C153 130.779 152.25 127.857 150.749 125.299C149.249 122.741 147.146 120.743 144.434 119.31C141.721 117.877 138.597 117.163 135.054 117.163V117.159ZM115.7 117.159H18.36L19.7587 120.251H111.296L102.014 131.985V134.543H104.404C107.435 134.543 109.698 135.138 111.199 136.331C112.699 137.524 113.449 139.163 113.449 141.259C113.449 143.355 112.699 145.049 111.199 146.255C109.698 147.461 107.579 148.065 104.832 148.065C102.726 148.065 100.75 147.701 98.8982 146.978C97.0501 146.255 95.5666 145.314 94.4476 144.155L92.7733 146.905C94.0831 148.227 95.8124 149.279 97.9657 150.067C100.119 150.854 102.408 151.251 104.832 151.251C107.447 151.251 109.664 150.815 111.483 149.947C113.301 149.078 114.674 147.893 115.598 146.396C116.522 144.899 116.984 143.184 116.984 141.255C116.984 138.487 116.069 136.241 114.234 134.517C112.398 132.793 109.728 131.835 106.218 131.643L115.692 119.618V117.154L115.7 117.159ZM134.863 147.872H124.957V120.247H134.863C137.796 120.247 140.365 120.833 142.569 122.009C144.769 123.186 146.477 124.811 147.689 126.886C148.901 128.961 149.507 131.352 149.507 134.055C149.507 136.759 148.901 139.15 147.689 141.225C146.477 143.299 144.769 144.929 142.569 146.101C140.369 147.278 137.8 147.864 134.863 147.864V147.872Z" fill="url(#paint3_linear_1_7550)"/>
<path fill-rule="evenodd" clip-rule="evenodd" d="M133.232 99.6682C128.129 71.1152 106.208 49.4596 76.5 49.4596C46.7918 49.4596 24.8706 71.1152 19.7682 99.6682L15.7371 94.6888C22.5036 65.682 45.6359 43.7139 76.2375 43.7139C106.839 43.7139 130.492 65.682 137.263 94.6888L133.232 99.6682Z" fill="url(#paint4_linear_1_7550)"/>
<path fill-rule="evenodd" clip-rule="evenodd" d="M15.5391 94.6831C22.3276 65.6412 45.7944 44.3281 76.5 44.3281C107.206 44.3281 130.672 65.6412 137.461 94.6831L143.383 99.6685C138.153 65.5041 111.823 39.3428 76.5 39.3428C41.1766 39.3428 14.8424 65.4998 9.61714 99.6642L15.5391 94.6788V94.6831Z" fill="url(#paint5_linear_1_7550)"/>
<path fill-rule="evenodd" clip-rule="evenodd" d="M86.5543 0.0783338V35.2057C89.8969 35.6426 93.2056 36.3062 96.4679 37.1883V9.92812C101.18 9.92812 108.968 9.5879 115.48 10.2011C135.079 12.0451 136.118 38.755 114.694 44.8161C118.133 46.8239 121.387 49.0921 124.434 51.5829C147.739 37.7806 144.295 3.23279 116.718 0.641179C107.349 -0.236691 93.8817 0.0237294 86.5543 0.0783338Z" fill="url(#paint6_linear_1_7550)"/>
<path fill-rule="evenodd" clip-rule="evenodd" d="M76.3132 99.6686H85.68L68.346 55.3969C65.4079 55.8261 62.5329 56.4891 59.7507 57.373L76.3132 99.6686ZM60.9353 36.4823C58.0519 37.0899 55.2318 37.8676 52.4748 38.7982L46.6491 23.9206L38.2603 45.3425C33.2777 48.3087 28.6533 51.8401 24.48 55.8601L46.6491 0L60.9353 36.4865V36.4823Z" fill="url(#paint7_linear_1_7550)"/>
<path fill-rule="evenodd" clip-rule="evenodd" d="M132.891 99.6686H143.383L137.151 94.4229L132.891 99.6686Z" fill="url(#paint8_linear_1_7550)"/>
<path fill-rule="evenodd" clip-rule="evenodd" d="M9.61714 99.6686H20.1086L15.8512 94.4229L9.61714 99.6686Z" fill="url(#paint9_linear_1_7550)"/>
<defs>
<linearGradient id="paint0_linear_1_7550" x1="15.3021" y1="117.154" x2="15.3021" y2="150.377" gradientUnits="userSpaceOnUse">
<stop stop-color="#00646E"/>
<stop offset="1" stop-color="#004C4B"/>
</linearGradient>
<linearGradient id="paint1_linear_1_7550" x1="69.9429" y1="124.14" x2="69.9429" y2="151.243" gradientUnits="userSpaceOnUse">
<stop stop-color="#00646E"/>
<stop offset="1" stop-color="#004C4B"/>
</linearGradient>
<linearGradient id="paint2_linear_1_7550" x1="44.5843" y1="125.018" x2="44.5843" y2="150.373" gradientUnits="userSpaceOnUse">
<stop stop-color="#00646E"/>
<stop offset="1" stop-color="#004C4B"/>
</linearGradient>
<linearGradient id="paint3_linear_1_7550" x1="85.6779" y1="117.159" x2="85.6779" y2="151.256" gradientUnits="userSpaceOnUse">
<stop stop-color="#E1AD1A"/>
<stop offset="1" stop-color="#C5201F"/>
</linearGradient>
<linearGradient id="paint4_linear_1_7550" x1="137.263" y1="71.6931" x2="15.7371" y2="71.6931" gradientUnits="userSpaceOnUse">
<stop stop-color="#E1AD1A"/>
<stop offset="1" stop-color="#AD141C"/>
</linearGradient>
<linearGradient id="paint5_linear_1_7550" x1="9.61714" y1="69.5035" x2="143.379" y2="69.5035" gradientUnits="userSpaceOnUse">
<stop stop-color="#E1AD1A"/>
<stop offset="1" stop-color="#B4151F"/>
</linearGradient>
<linearGradient id="paint6_linear_1_7550" x1="113.219" y1="0.229546" x2="113.219" y2="51.5871" gradientUnits="userSpaceOnUse">
<stop stop-color="#00646E"/>
<stop offset="1" stop-color="#004C4B"/>
</linearGradient>
<linearGradient id="paint7_linear_1_7550" x1="55.08" y1="0" x2="55.08" y2="99.6686" gradientUnits="userSpaceOnUse">
<stop stop-color="#00646E"/>
<stop offset="1" stop-color="#004C4B"/>
</linearGradient>
<linearGradient id="paint8_linear_1_7550" x1="132.891" y1="97.0457" x2="143.383" y2="97.0457" gradientUnits="userSpaceOnUse">
<stop stop-color="#E1AD1A"/>
<stop offset="1" stop-color="#B2151D"/>
</linearGradient>
<linearGradient id="paint9_linear_1_7550" x1="9.61714" y1="-6.29757" x2="20.1041" y2="-6.29757" gradientUnits="userSpaceOnUse">
<stop stop-color="#E1AD1A"/>
<stop offset="1" stop-color="#B2151D"/>
</linearGradient>
</defs>
</svg>
