<svg width="80" height="80" viewBox="0 0 80 80" fill="none" xmlns="http://www.w3.org/2000/svg">
<g clip-path="url(#clip0_1_165568)">
<path d="M15.6522 52.1739H1.73913C0.77913 52.1739 0 52.9513 0 53.913V78.2608C0 79.2226 0.77913 80 1.73913 80H15.6522C16.6122 80 17.3913 79.2226 17.3913 78.2608V53.913C17.3913 52.9513 16.6122 52.1739 15.6522 52.1739ZM13.913 76.5217H3.47826V55.6521H13.913V76.5217Z" fill="#999999"/>
<path d="M36.5213 45.2174H22.6083C21.6483 45.2174 20.8691 45.9948 20.8691 46.9565V78.2609C20.8691 79.2226 21.6483 80 22.6083 80H36.5213C37.4813 80 38.2604 79.2226 38.2604 78.2609V46.9565C38.2604 45.9948 37.4813 45.2174 36.5213 45.2174ZM34.7822 76.5218H24.3474V48.6957H34.7822V76.5218Z" fill="#999999"/>
<path d="M57.3914 34.7826H43.4784C42.5166 34.7826 41.7393 35.5617 41.7393 36.5217V78.2609C41.7393 79.2226 42.5166 80 43.4784 80H57.3914C58.3532 80 59.1306 79.2226 59.1306 78.2609V36.5217C59.1306 35.5617 58.3532 34.7826 57.3914 34.7826ZM55.6523 76.5217H45.2175V38.2609H55.6523V76.5217Z" fill="#999999"/>
<path d="M78.2606 20.8696H64.3475C63.3858 20.8696 62.6084 21.6487 62.6084 22.6087V78.2609C62.6084 79.2226 63.3858 80 64.3475 80H78.2606C79.2223 80 79.9997 79.2226 79.9997 78.2609V22.6087C79.9997 21.6487 79.2223 20.8696 78.2606 20.8696ZM76.5214 76.5217H66.0867V24.3478H76.5214V76.5217Z" fill="#999999"/>
<path d="M67.3548 13.913C68.3165 13.913 69.0939 13.1339 69.0939 12.1739V1.73913C69.0939 1.70261 69.0748 1.67478 69.073 1.64C69.0661 1.51826 69.0348 1.40522 69.0017 1.2887C68.9722 1.18261 68.9513 1.08 68.9044 0.984348C68.8591 0.890435 68.793 0.810435 68.7287 0.726957C68.6557 0.626087 68.5844 0.530435 68.4922 0.448696C68.4643 0.424348 68.4539 0.393043 68.4261 0.372173C68.3687 0.326956 68.2974 0.313044 68.2365 0.276522C68.1304 0.213914 68.0313 0.154783 67.913 0.114783C67.7983 0.0765217 67.6852 0.0591305 67.567 0.0452174C67.4957 0.0347826 67.4296 0 67.3548 0H57.3913C56.4296 0 55.6522 0.77913 55.6522 1.73913C55.6522 2.69913 56.4296 3.47826 57.3913 3.47826H63.6365C52.9113 15.6817 29.1774 34.7826 1.73913 34.7826C0.77913 34.7826 0 35.5617 0 36.5217C0 37.4817 0.77913 38.2609 1.73913 38.2609C29.8522 38.2609 54.1617 19.1861 65.6157 6.4887V12.1739C65.6157 13.1339 66.393 13.913 67.3548 13.913Z" fill="#999999"/>
</g>
<defs>
<clipPath id="clip0_1_165568">
<rect width="80" height="80" fill="white"/>
</clipPath>
</defs>
</svg>
