<svg width="156" height="35" viewBox="0 0 156 35" fill="none" xmlns="http://www.w3.org/2000/svg">
<path fill-rule="evenodd" clip-rule="evenodd" d="M23.459 23.6247L16.0904 7.12595L8.72189 23.6247H23.4653H23.459ZM24.646 26.2577H7.53484L3.84741 34.4597H0.46936L14.5119 3.75422L16.1157 0.249901L17.7195 3.75422L31.7557 34.466H28.3335L24.646 26.264V26.2577Z" fill="url(#paint0_linear_1_2537)"/>
<path fill-rule="evenodd" clip-rule="evenodd" d="M73.5486 34.6996C70.9535 34.6996 68.611 34.125 66.5273 32.9759C64.4437 31.8267 62.8083 30.2355 61.6213 28.2024C60.4342 26.1693 59.8407 23.8899 59.8407 21.3705C59.8407 18.8512 60.4342 16.5718 61.6213 14.5387C62.8083 12.5055 64.45 10.9144 66.5463 9.76523C68.6425 8.61606 70.9914 8.04148 73.5865 8.04148C75.5312 8.04148 77.3307 8.3635 78.9787 9.01385C80.6267 9.6642 82.0221 10.6113 83.1713 11.8615L81.4097 13.6231C79.3639 11.5521 76.7814 10.5166 73.6559 10.5166C71.5849 10.5166 69.697 10.9902 67.9985 11.9373C66.3 12.8844 64.9741 14.1851 64.008 15.8331C63.0483 17.4811 62.5684 19.3311 62.5684 21.3769C62.5684 23.4226 63.0483 25.2727 64.008 26.9206C64.9677 28.5686 66.3 29.8693 67.9985 30.8164C69.697 31.7635 71.5786 32.2371 73.6559 32.2371C76.8004 32.2371 79.3828 31.189 81.4097 29.0927L83.1713 30.8543C82.0221 32.1045 80.6204 33.0579 78.9598 33.7209C77.2992 34.3839 75.4933 34.7122 73.5486 34.7122" fill="url(#paint1_linear_1_2537)"/>
<path fill-rule="evenodd" clip-rule="evenodd" d="M44.826 23.8015C47.4211 23.8015 49.41 23.2269 50.7802 22.0777C52.1503 20.9286 52.8386 19.3185 52.8386 17.2475C52.8386 15.1764 52.1503 13.4969 50.7802 12.3603C49.4037 11.2238 47.4211 10.6555 44.826 10.6555H37.8615V23.8015H44.826ZM35.0896 34.4723H37.8615V26.1566H44.9017C45.6279 26.1566 46.3224 26.1188 46.998 26.043L52.9901 34.466H56.0209L49.6184 25.481C51.5379 24.8559 53.0217 23.8394 54.0572 22.4313C55.0927 21.0233 55.6105 19.2932 55.6105 17.2475C55.6105 14.4503 54.6633 12.253 52.7628 10.6555C50.8622 9.05807 48.2419 8.25618 44.8954 8.25618H35.0833V34.4723H35.0896Z" fill="url(#paint2_linear_1_2537)"/>
<path fill-rule="evenodd" clip-rule="evenodd" d="M137.169 31.3594C140.143 31.3594 142.745 30.7722 144.974 29.5915C147.203 28.4107 148.933 26.7817 150.158 24.6981C151.382 22.6144 152.001 20.215 152.001 17.5C152.001 14.7849 151.389 12.3856 150.158 10.3019C148.933 8.21826 147.203 6.58922 144.974 5.40848C142.745 4.22775 140.143 3.64054 137.169 3.64054H127.136V31.3594H137.169ZM117.76 0.540314H19.1779L20.5985 3.64054H113.302L103.9 15.4163V17.9862H106.325C109.394 17.9862 111.686 18.586 113.207 19.7794C114.723 20.9727 115.487 22.6207 115.487 24.7233C115.487 26.8259 114.729 28.5307 113.207 29.7367C111.686 30.949 109.539 31.5552 106.761 31.5552C104.627 31.5552 102.625 31.1889 100.75 30.4628C98.8744 29.7367 97.3716 28.7896 96.2414 27.6278L94.5429 30.3871C95.8689 31.713 97.6179 32.7675 99.8026 33.563C101.981 34.3523 104.305 34.7501 106.754 34.7501C109.406 34.7501 111.648 34.3144 113.492 33.4431C115.335 32.5717 116.724 31.3847 117.659 29.8819C118.593 28.3792 119.067 26.6617 119.067 24.7233C119.067 21.9451 118.139 19.691 116.282 17.9609C114.426 16.2308 111.717 15.2711 108.162 15.0754L117.76 3.00913V0.540314ZM137.359 0.540314H123.55V34.466H137.359C140.945 34.466 144.109 33.7462 146.855 32.3065C149.602 30.8669 151.736 28.8654 153.251 26.2955C154.767 23.7257 155.531 20.7959 155.531 17.5C155.531 14.204 154.773 11.2743 153.251 8.70444C151.736 6.1346 149.602 4.13304 146.855 2.69342C144.109 1.25381 140.945 0.534 137.359 0.534V0.540314Z" fill="url(#paint3_linear_1_2537)"/>
<defs>
<linearGradient id="paint0_linear_1_2537" x1="16.1094" y1="34.466" x2="16.1094" y2="0.249901" gradientUnits="userSpaceOnUse">
<stop stop-color="#005050"/>
<stop offset="1" stop-color="#066770"/>
</linearGradient>
<linearGradient id="paint1_linear_1_2537" x1="71.5092" y1="34.6996" x2="71.5092" y2="8.03517" gradientUnits="userSpaceOnUse">
<stop stop-color="#005050"/>
<stop offset="1" stop-color="#066770"/>
</linearGradient>
<linearGradient id="paint2_linear_1_2537" x1="45.5584" y1="34.4723" x2="45.5584" y2="8.26249" gradientUnits="userSpaceOnUse">
<stop stop-color="#005050"/>
<stop offset="1" stop-color="#066770"/>
</linearGradient>
<linearGradient id="paint3_linear_1_2537" x1="87.3575" y1="34.7564" x2="87.3575" y2="0.540314" gradientUnits="userSpaceOnUse">
<stop stop-color="#C32E2D"/>
<stop offset="1" stop-color="#DDAB28"/>
</linearGradient>
</defs>
</svg>
