<svg width="80" height="80" viewBox="0 0 80 80" fill="none" xmlns="http://www.w3.org/2000/svg">
<path d="M78.861 20.9963C78.8608 20.9963 78.8608 20.9963 78.8607 20.9963L78.858 20.9937L73.6943 20.2569C72.9685 20.1536 72.4639 19.4814 72.5673 18.7556C72.6169 18.4068 72.8032 18.0922 73.085 17.8808L77.2585 14.7507C77.845 14.3108 77.9638 13.4789 77.5239 12.8923L72.7452 6.52056C72.3053 5.934 71.4733 5.81519 70.8867 6.25507L66.7146 9.38518C66.1305 9.82838 65.2979 9.71422 64.8547 9.13015C64.6395 8.84657 64.5472 8.48833 64.5986 8.13606L65.3367 2.97231C65.4407 2.24653 64.9368 1.57401 64.2112 1.46981C64.2107 1.46981 64.2102 1.46964 64.2097 1.46964L56.33 0.343971C55.6044 0.239767 54.9315 0.743531 54.8273 1.46931C54.8273 1.46948 54.8273 1.46948 54.8273 1.46964L54.0893 6.63339C53.9859 7.35917 53.3137 7.86377 52.588 7.76039C52.2392 7.71078 51.9246 7.52444 51.7132 7.24269L48.5844 3.06921C48.1445 2.48265 47.3125 2.36384 46.726 2.80372L42.737 5.79711C40.9323 5.60529 39.1124 5.60529 37.3078 5.79711C25.4892 7.14794 16.2212 16.5731 15.0691 28.4127C15.0333 28.7884 15.02 29.1614 15.0014 29.5344H14.6032C13.9733 29.5356 13.4309 29.9793 13.305 30.5964L12.3877 34.9584L8.71333 32.4243C8.18601 32.0604 7.47383 32.1253 7.02084 32.5783L3.03852 36.5606C2.58619 37.0134 2.52148 37.7246 2.88453 38.2518L5.40667 41.9195L1.04337 42.8367C0.433081 42.9705 -0.00132441 43.5116 3.03392e-06 44.1363V49.4461C-0.000328827 50.074 0.439552 50.6162 1.05399 50.7456L5.41729 51.6629L2.89515 55.3306C2.5321 55.8578 2.59681 56.569 3.04914 57.0218L7.03146 61.0041C7.48445 61.4571 8.19663 61.522 8.72395 61.1581L12.3917 58.6293L13.3089 62.9926C13.4349 63.6097 13.9773 64.0534 14.6072 64.0546H19.9169C20.5448 64.0549 21.0871 63.615 21.2165 63.0006L22.1338 58.6373L25.8015 61.1594C26.3287 61.5225 27.0398 61.4578 27.4927 61.0055L29.5542 58.9373V62.7205C29.5601 64.609 30.5718 66.3511 32.2091 67.2922V74.6675C32.2091 77.6 34.5863 79.9773 37.5188 79.9773H42.8286C45.7611 79.9773 48.1384 77.6 48.1384 74.6675V67.2922C49.7756 66.3511 50.7873 64.609 50.7932 62.7205V57.4665C50.8293 55.2558 51.9858 53.2149 53.8636 52.0479C54.9652 51.3332 56.0099 50.5343 56.9884 49.6585L55.2176 47.6806C54.3423 48.4651 53.4072 49.1801 52.4207 49.8191C49.7849 51.4734 48.1714 54.3546 48.1384 57.4665V62.7205C48.1384 64.1868 46.9498 65.3754 45.4835 65.3754H34.8639C33.3976 65.3754 32.2091 64.1868 32.2091 62.7205V57.3563C32.1784 54.3034 30.5902 51.4777 27.9984 49.8642C17.4773 43.2532 14.3073 29.365 20.9183 18.8439C25.0201 12.316 32.1787 8.34281 39.8883 8.31527C39.8686 8.36256 39.8511 8.41084 39.8365 8.45996C39.7873 8.80841 39.8785 9.16234 40.0901 9.44359L43.2189 13.6157C43.5487 14.0427 43.5804 14.6291 43.2985 15.0892C43.027 15.5521 42.5022 15.8047 41.9711 15.7277L36.8073 14.9896C36.0815 14.8856 35.409 15.3895 35.3048 16.1152C35.3048 16.1156 35.3047 16.1161 35.3047 16.1166L34.1777 24.0003C34.0736 24.7259 34.5775 25.3986 35.3032 25.5028C35.3037 25.5028 35.3042 25.503 35.3047 25.503L40.4684 26.2411C41.1942 26.3444 41.6988 27.0166 41.5954 27.7424C41.5458 28.0912 41.3594 28.4058 41.0777 28.6172L36.9055 31.746C36.319 32.1858 36.2002 33.0178 36.6401 33.6044L41.4188 39.9761C41.8587 40.5627 42.6907 40.6815 43.2773 40.2416L47.4507 37.1128C48.0378 36.6738 48.8698 36.7937 49.3088 37.381C49.5189 37.6619 49.6093 38.0146 49.5601 38.3619L48.8233 43.5257C48.7191 44.2513 49.2229 44.9241 49.9487 45.0284C49.9488 45.0284 49.9488 45.0284 49.949 45.0284L57.834 46.1553C57.8961 46.1633 57.9586 46.1673 58.0212 46.1673C58.6821 46.1681 59.2427 45.6826 59.3367 45.0284L60.0734 39.8646C60.1768 39.1388 60.849 38.6342 61.5747 38.7376C61.9235 38.7872 62.2381 38.9736 62.4495 39.2553L65.5796 43.4275C66.0195 44.014 66.8515 44.1328 67.438 43.6929L73.8098 38.9142C74.3963 38.4743 74.5151 37.6423 74.0753 37.0557L70.9465 32.8836C70.6181 32.456 70.5864 31.8706 70.8668 31.4101C71.1325 30.941 71.6621 30.6868 72.1943 30.7729L77.358 31.5097C78.0836 31.6139 78.7565 31.1099 78.8607 30.3843C78.8607 30.3842 78.8607 30.3842 78.8607 30.384L79.9864 22.499C80.0906 21.7732 79.5868 21.1005 78.861 20.9963ZM34.8639 68.0303H45.4835V70.6852H34.8639V68.0303ZM34.8639 73.34H45.4835V74.6675C45.4835 76.1338 44.2949 77.3224 42.8286 77.3224H37.5188C36.0525 77.3224 34.8639 76.1338 34.8639 74.6675V73.34ZM24.2962 50.4483C25.021 51.041 25.7783 51.5929 26.5648 52.101C27.819 52.8936 28.7632 54.0928 29.2396 55.4979L26.3922 58.3399L23.6351 56.439C22.4278 55.6071 20.7746 55.9114 19.9425 57.1187C19.743 57.4082 19.603 57.7345 19.5307 58.0784L18.8351 61.3931H15.6797L14.9842 58.0837C14.6822 56.6489 13.2743 55.7305 11.8395 56.0325C11.4955 56.1049 11.1693 56.2449 10.8797 56.4444L8.12129 58.3399L5.70269 55.9267L7.60226 53.1709C8.43507 51.9641 8.13175 50.3107 6.92494 49.4779C6.63522 49.278 6.30867 49.1376 5.9642 49.0651L2.65489 48.3682V45.2142L5.9642 44.5173C7.3985 44.2131 8.31477 42.8039 8.01062 41.3694C7.93844 41.0291 7.80022 40.7064 7.60359 40.4195L5.70269 37.6557L8.12129 35.2424L10.881 37.1433C12.0889 37.9745 13.742 37.6692 14.5732 36.4614C14.7723 36.1721 14.912 35.8463 14.9842 35.5026L15.2165 34.3982C15.4292 35.9277 15.7815 37.4344 16.2691 38.8995C11.9014 39.4202 8.78269 43.3833 9.30338 47.7511C9.82407 52.1189 13.7871 55.2375 18.1549 54.7169C20.7843 54.4033 23.0859 52.8035 24.2962 50.4483ZM22.2347 48.5779C21.2434 51.3332 18.2064 52.7632 15.4511 51.7721C12.6958 50.7808 11.2658 47.7438 12.2569 44.9885C13.0152 42.8807 15.0165 41.4768 17.2566 41.4814C17.2738 41.4814 17.2898 41.4814 17.307 41.4814C18.5278 44.1136 20.1949 46.5144 22.2347 48.5779ZM76.4129 28.6902L72.5633 28.1406C70.386 27.8297 68.3689 29.3428 68.058 31.52C67.9086 32.5655 68.1807 33.6276 68.8146 34.4725L71.1469 37.5827L66.8991 40.7686L64.5655 37.6597C63.246 35.9 60.7499 35.5431 58.9904 36.8626C58.1455 37.4961 57.5868 38.4394 57.4371 39.4849L56.8995 43.3398L51.6441 42.5885L52.1937 38.7389C52.5055 36.5618 50.9932 34.544 48.816 34.2324C47.7698 34.0826 46.7072 34.3547 45.8618 34.9889L42.7516 37.3212L39.5657 33.0734L42.6746 30.7398C44.4343 29.4203 44.7912 26.9242 43.4717 25.1647C42.8382 24.3197 41.8949 23.7611 40.8494 23.6114L36.9998 23.0618L37.7511 17.8065L41.6007 18.356C43.7779 18.6678 45.7956 17.1555 46.1072 14.9784C46.257 13.9322 45.9849 12.8696 45.3507 12.0241L43.0105 8.91129L47.2583 5.72542L49.5919 8.83562C50.9114 10.5953 53.4075 10.9522 55.167 9.63275C56.0119 8.99923 56.5706 8.05592 56.7203 7.01039L57.2698 3.1608L62.5252 3.91081L61.9756 7.76039C61.6647 9.93773 63.1776 11.9548 65.355 12.2657C66.4005 12.4151 67.4626 12.1429 68.3075 11.5091L71.4177 9.17677L74.6036 13.4246L71.4934 15.7582C69.7337 17.0777 69.3768 19.5738 70.6963 21.3333C71.3298 22.1782 72.2731 22.7369 73.3186 22.8866L77.1682 23.4362L76.4129 28.6902Z" fill="#999999"/>
<path d="M57.0795 12.6281C51.2145 12.6281 46.46 17.3826 46.46 23.2476C46.46 29.1126 51.2145 33.8671 57.0795 33.8671C62.9445 33.8671 67.699 29.1126 67.699 23.2476C67.6924 17.3853 62.9418 12.6345 57.0795 12.6281ZM57.0795 31.2122C52.6807 31.2122 49.1148 27.6464 49.1148 23.2476C49.1148 18.8488 52.6807 15.2829 57.0795 15.2829C61.4783 15.2829 65.0441 18.8488 65.0441 23.2476C65.039 27.6442 61.4762 31.2071 57.0795 31.2122Z" fill="#999999"/>
<path d="M41.5016 58.7381H38.8467V62.7204H41.5016V58.7381Z" fill="#999999"/>
<path d="M34.3673 45.7013C26.1728 42.5001 22.125 33.2621 25.3263 25.0677C26.5668 21.8924 28.793 19.1989 31.6779 17.3829L30.2589 15.1369C21.5747 20.6078 18.9698 32.0827 24.4407 40.7668C26.5595 44.1301 29.7008 46.7254 33.4036 48.1716C36.681 49.4274 38.8453 52.5734 38.8461 56.0832H41.501C41.5051 51.4783 38.6674 47.3485 34.3673 45.7013Z" fill="#999999"/>
<path d="M74.6866 49.4457H65.3945V52.1006H74.6866V49.4457Z" fill="#999999"/>
<path d="M64.9181 56.3897L63.2188 58.4294L71.184 65.0656L72.8834 63.0258L64.9181 56.3897Z" fill="#999999"/>
<path d="M60.0846 60.0655H57.4297V69.3576H60.0846V60.0655Z" fill="#999999"/>
<path d="M11.9743 20.2812L1.35547 22.9356L1.99896 25.5098L12.6178 22.8554L11.9743 20.2812Z" fill="#999999"/>
<path d="M5.10279 7.21659L3.56055 9.37579L12.8519 16.0123L14.3942 13.8531L5.10279 7.21659Z" fill="#999999"/>
<path d="M17.5066 3.87248e-05L14.9346 0.657654L17.6495 11.2764L20.2216 10.6188L17.5066 3.87248e-05Z" fill="#999999"/>
</svg>
