<svg width="80" height="80" viewBox="0 0 80 80" fill="none" xmlns="http://www.w3.org/2000/svg">
<mask id="mask0_1_2596" style="mask-type:luminance" maskUnits="userSpaceOnUse" x="0" y="0" width="80" height="80">
<path d="M1.5 78.5V1.5H78.5V78.5H1.5Z" fill="white" stroke="white" stroke-width="3"/>
</mask>
<g mask="url(#mask0_1_2596)">
<path d="M67.4702 17.305C69.5835 18.2333 71.9188 18.7495 74.3751 18.7495C74.3751 45.0517 69.9766 70.4051 40.0001 78.4373C10.0236 70.4051 5.62517 45.0517 5.62517 18.7495C15.1177 18.7495 22.8126 11.0545 22.8126 1.56206H57.1876C57.1876 4.01784 57.7037 6.35299 58.6316 8.4658" stroke="#999999" stroke-width="3" stroke-miterlimit="22.926" stroke-linecap="round" stroke-linejoin="round"/>
<path d="M19.8542 57.615C13.6829 48.0856 12.2403 35.251 11.942 24.1382C19.8292 21.935 26.0392 15.7088 28.2195 7.81224H51.7802C53.9605 15.7088 60.1707 21.935 68.0579 24.1382C67.756 35.3878 66.2693 47.8492 60.4187 57.187C55.5912 64.8922 48.4848 69.3831 39.9999 71.9404C35.814 70.6787 31.964 68.9461 28.5573 66.5897" stroke="#999999" stroke-width="3" stroke-miterlimit="22.926" stroke-linecap="round" stroke-linejoin="round"/>
<path d="M51.5525 30.0018L44.6433 32.4935L39.9995 26.6037L35.3556 32.4935L28.4464 30.0018V40.6487H51.5525V30.0018Z" stroke="#999999" stroke-width="3" stroke-miterlimit="22.926" stroke-linecap="round" stroke-linejoin="round"/>
<path d="M40 40.6486V71.9404M40 7.81224V26.6036" stroke="#999999" stroke-width="3" stroke-miterlimit="22.926" stroke-linecap="round" stroke-linejoin="round"/>
<path d="M28.4467 35.3252H12.7191M67.2805 35.3252H51.5528" stroke="#999999" stroke-width="3" stroke-miterlimit="22.926" stroke-linecap="round" stroke-linejoin="round"/>
<path d="M62.2201 13.7142L62.2216 13.7156" stroke="#999999" stroke-width="3" stroke-miterlimit="2.613" stroke-linecap="round" stroke-linejoin="round"/>
<path d="M23.7654 62.5401L23.7668 62.5415" stroke="#999999" stroke-width="3" stroke-miterlimit="2.613" stroke-linecap="round" stroke-linejoin="round"/>
</g>
</svg>
