<svg width="80" height="80" viewBox="0 0 80 80" fill="none" xmlns="http://www.w3.org/2000/svg">
<path d="M72.974 52.5508C73.2162 52.5908 73.4417 52.702 73.6215 52.8691C73.8004 53.0358 73.926 53.2517 73.9838 53.4893C74.0414 53.7269 74.0283 53.9759 73.9457 54.2061L64.9271 79.1748C64.8394 79.4174 64.6786 79.6277 64.4672 79.7754C64.2559 79.9228 64.0041 80.0011 63.7465 80C63.6124 79.9984 63.4786 79.9755 63.3519 79.9316L36.6088 70.7373C36.3732 70.6546 36.1677 70.5033 36.0189 70.3027C35.8702 70.1022 35.7846 69.8617 35.7738 69.6123C35.763 69.3629 35.8275 69.1159 35.9584 68.9033C36.0893 68.6907 36.2807 68.5217 36.5082 68.4189L72.2582 52.6436C72.4823 52.5431 72.7317 52.5108 72.974 52.5508ZM40.4398 69.4131L63.0082 77.1689L70.6215 56.1064L40.4398 69.4131ZM64.5804 61.3887C64.8227 61.4287 65.0481 61.5389 65.2279 61.7061C65.4046 61.8717 65.5296 62.0851 65.5873 62.3203C65.645 62.5555 65.6331 62.8027 65.5531 63.0312L62.3588 71.875C62.3048 72.0301 62.221 72.1733 62.1117 72.2959C62.0023 72.4186 61.8691 72.5184 61.7211 72.5898C61.5731 72.6612 61.4124 72.7027 61.2484 72.7119C61.0844 72.7211 60.9201 72.6979 60.765 72.6436L51.2904 69.3877C51.0549 69.305 50.8493 69.1535 50.7006 68.9531C50.5518 68.7525 50.4662 68.5112 50.4554 68.2617C50.4447 68.0123 50.5091 67.7653 50.64 67.5527C50.7709 67.3401 50.9622 67.1711 51.1898 67.0684L63.8656 61.4814C64.0896 61.3811 64.3382 61.3487 64.5804 61.3887ZM55.1215 68.0684L60.4154 69.8877L62.1967 64.9434L55.1215 68.0684ZM20.6215 19.3379C22.2215 16.9566 26.7906 13.0437 32.5219 15.1562C32.6548 15.2077 32.7838 15.2688 32.9086 15.3379C33.1852 15.5202 33.3788 15.8044 33.4457 16.1289C33.5125 16.4535 33.4472 16.7916 33.265 17.0684L28.1215 24.7998L52.7777 27.9062L52.0902 30.3379L26.5648 27.125L12.7279 47.9248C12.5587 48.1801 12.3013 48.365 12.0052 48.4434C11.7092 48.5216 11.3947 48.4878 11.1215 48.3496C10.2432 47.87 9.26251 47.6087 8.26208 47.5869C7.26151 47.5652 6.26985 47.7836 5.37146 48.2246C4.67678 48.5447 4.06457 49.0205 3.5824 49.6143C3.10032 50.208 2.76092 50.9049 2.59021 51.6504C2.34092 53.0466 2.65565 54.4849 3.46521 55.6494C4.27476 56.8138 5.51309 57.6096 6.90857 57.8623L42.3344 63.125L38.0463 65L6.46521 60.3184C4.41731 59.9498 2.59883 58.7849 1.40857 57.0781C0.218358 55.3713 -0.246365 53.262 0.115601 51.2129C0.425868 50.159 0.851254 49.1423 1.38416 48.1816L20.6215 19.3379ZM24.9486 34.1387C25.11 34.1062 25.2764 34.1058 25.4379 34.1377C25.5994 34.1696 25.7531 34.2337 25.89 34.3252C26.1668 34.5076 26.3603 34.7925 26.4271 35.1172C26.4938 35.4417 26.4287 35.7799 26.2465 36.0566L14.4652 53.8125L50.8842 59.375L46.6273 61.25L12.1469 55.9746C11.9393 55.9433 11.7425 55.8606 11.5756 55.7334C11.4086 55.6062 11.2761 55.4389 11.1908 55.2471C11.1055 55.0553 11.07 54.8449 11.0873 54.6357C11.1046 54.4266 11.1747 54.2249 11.2904 54.0498L24.1527 34.6748C24.2435 34.5375 24.3609 34.4191 24.4974 34.3271C24.6339 34.2353 24.7873 34.1712 24.9486 34.1387ZM48.3773 33.7939C48.5504 33.746 48.7334 33.7433 48.9076 33.7871C49.0817 33.831 49.2417 33.9199 49.3715 34.0439L61.5775 45C61.8261 45.2238 61.9759 45.5371 61.9935 45.8711C62.0111 46.2051 61.895 46.5326 61.6713 46.7812C61.4476 47.0298 61.1341 47.1796 60.8002 47.1973C60.4662 47.2148 60.1386 47.0987 59.89 46.875L57.7709 45L52.5336 54.2812C52.4229 54.4729 52.2628 54.6314 52.0707 54.7412C51.8786 54.8509 51.661 54.9082 51.4398 54.9062C51.3775 54.9062 26.831 51.2672 26.7152 51.25C26.5163 51.2234 26.3258 51.1495 26.1615 51.0342C25.9974 50.9189 25.8634 50.7658 25.7709 50.5879C25.6825 50.4057 25.6394 50.2043 25.6459 50.002C25.6524 49.7994 25.709 49.601 25.809 49.4248L31.515 39.4121C31.515 39.4121 28.6404 39.9247 28.5648 39.9248C28.2333 39.9546 27.9033 39.852 27.6478 39.6387C27.3923 39.4254 27.2324 39.1186 27.2025 38.7871C27.1728 38.4559 27.2756 38.1265 27.4886 37.8711C27.702 37.6156 28.0087 37.4546 28.3402 37.4248L48.3773 33.7939ZM78.8959 31.2188C79.1023 31.2431 79.2992 31.3188 79.4691 31.4385C79.6391 31.5581 79.7771 31.7181 79.8695 31.9043C79.9618 32.0903 80.0067 32.2964 79.9994 32.5039C79.9921 32.7116 79.9329 32.9146 79.8275 33.0938L69.3148 51.2188L65.4213 52.9316L76.6957 33.4561L73.5707 33.0625C73.5494 32.8363 73.5075 32.6122 73.4457 32.3936L72.8959 30.4629L78.8959 31.2188ZM34.7338 38.8066L28.89 49.0752L50.765 52.3184L55.8715 43.2373L48.2269 36.3623L34.7338 38.8066ZM38.9056 42.0879C39.0696 42.1085 39.2281 42.162 39.3715 42.2441C39.6573 42.409 39.8668 42.6797 39.9535 42.998C40.0401 43.3164 39.9972 43.6564 39.8344 43.9434L38.8842 45.625L46.4594 46.7812L47.9408 43.9316C48.0166 43.7851 48.1201 43.654 48.2465 43.5479C48.3728 43.4417 48.5197 43.3619 48.6771 43.3125C48.8345 43.2632 49.0002 43.2458 49.1644 43.2607C49.3287 43.2757 49.4883 43.3234 49.6342 43.4004C49.7807 43.4778 49.9107 43.583 50.016 43.7109C50.1213 43.8389 50.1997 43.9868 50.2474 44.1455C50.2951 44.3042 50.3106 44.471 50.2933 44.6357C50.276 44.8006 50.2265 44.9611 50.1469 45.1064L48.2719 48.75C48.1596 48.9445 47.9969 49.1049 47.8011 49.2148C47.6055 49.3248 47.3839 49.3803 47.1595 49.375C47.097 49.375 36.684 47.8496 36.684 47.8496C36.4805 47.8207 36.2873 47.7424 36.1215 47.6211C35.9555 47.4996 35.8218 47.3387 35.7328 47.1533C35.6438 46.9678 35.6017 46.7632 35.6107 46.5576C35.6197 46.3521 35.6796 46.1516 35.7845 45.9746L37.6595 42.7188C37.7401 42.5746 37.8481 42.4477 37.9779 42.3457C38.1078 42.2436 38.2571 42.1682 38.4164 42.124C38.5755 42.0799 38.7418 42.0674 38.9056 42.0879ZM30.1781 17.125C25.7156 16.425 22.8094 20.5377 22.6781 20.7314L6.32166 45.2871C7.9566 44.9574 9.65107 45.0899 11.2152 45.6689L30.1781 17.125ZM62.4965 0C62.8278 9.78927e-05 63.1459 0.131878 63.3802 0.366211C63.6146 0.600614 63.7465 0.918566 63.7465 1.25V2.75C64.6949 3.0064 65.5467 3.53674 66.1957 4.27441C66.8447 5.01217 67.2615 5.92495 67.3949 6.89844C67.5282 7.87186 67.3723 8.863 66.9457 9.74805C66.519 10.6331 65.841 11.373 64.9965 11.875L67.0961 19.1377H69.7025C70.034 19.1377 70.3519 19.2695 70.5863 19.5039C70.8206 19.7383 70.9525 20.0563 70.9525 20.3877C70.9559 20.5565 70.9249 20.7243 70.8617 20.8809C70.7985 21.0375 70.7041 21.1797 70.5844 21.2988C70.4647 21.4179 70.3222 21.5117 70.1654 21.5742C70.0085 21.6367 69.8401 21.6663 69.6713 21.6621H67.7963L70.1957 30.125L70.7777 32.1816L71.0336 33.0752C71.0779 33.2335 71.0903 33.3993 71.0707 33.5625C71.051 33.7255 70.9998 33.8832 70.9193 34.0264C70.8387 34.1696 70.7302 34.2959 70.601 34.3975C70.4716 34.499 70.3228 34.5748 70.1644 34.6191C70.0062 34.6634 69.8403 34.6759 69.6771 34.6562C69.514 34.6365 69.3565 34.5845 69.2133 34.5039C69.0699 34.4232 68.9437 34.3149 68.8422 34.1855C68.7407 34.0562 68.6658 33.9083 68.6215 33.75L68.2338 32.3936L67.4965 29.7812L65.1898 21.6562H59.7709L56.3402 33.75C56.246 34.0657 56.0306 34.3312 55.7416 34.4893C55.4525 34.6472 55.1128 34.6849 54.7963 34.5938C54.4774 34.5048 54.2062 34.2931 54.0433 34.0049C53.8805 33.7168 53.8389 33.3756 53.9271 33.0566L57.14 21.6436H55.265C54.9335 21.6436 54.6156 21.5118 54.3812 21.2773C54.1468 21.0429 54.015 20.7251 54.015 20.3936C54.0151 20.0621 54.1469 19.7441 54.3812 19.5098C54.6156 19.2755 54.9336 19.1436 55.265 19.1436H57.8715L59.934 11.875C59.0899 11.3682 58.4141 10.6235 57.9916 9.73438C57.569 8.84516 57.4178 7.85046 57.558 6.87598C57.6982 5.90166 58.1237 4.9908 58.7797 4.25684C59.4357 3.52277 60.2938 2.99834 61.2465 2.75V1.25C61.2465 0.918479 61.3783 0.600631 61.6127 0.366211C61.8471 0.131906 62.165 0 62.4965 0ZM64.7894 29.4248L65.5277 32.0312L59.64 31.2871L60.3275 28.8623L64.7894 29.4248ZM60.4838 19.1377H64.5023L62.6273 12.5625H62.3588L60.4838 19.1377ZM63.4398 5.26562C62.9831 5.07651 62.4803 5.0266 61.9955 5.12305C61.5107 5.21956 61.0657 5.45807 60.7162 5.80762C60.3666 6.15716 60.1281 6.6021 60.0316 7.08691C59.9352 7.57177 59.9851 8.07451 60.1742 8.53125C60.3634 8.98807 60.684 9.37862 61.0951 9.65332C61.5062 9.92797 61.9894 10.0752 62.4838 10.0752H62.4965C63.1572 10.0718 63.7902 9.80629 64.2562 9.33789C64.722 8.8695 64.9837 8.23579 64.9838 7.5752C64.9838 7.0808 64.8365 6.59762 64.5619 6.18652C64.2872 5.7754 63.8966 5.45484 63.4398 5.26562Z" fill="#999999"/>
</svg>
