<svg width="214" height="35" viewBox="0 0 214 35" fill="none" xmlns="http://www.w3.org/2000/svg">
<path fill-rule="evenodd" clip-rule="evenodd" d="M22.9896 23.4705L15.6211 6.97176L8.25253 23.4705H22.9959H22.9896ZM24.1767 26.1035H7.06548L3.37805 34.3055H0L14.0426 3.60003L15.6463 0.0957031L17.2501 3.60003L31.2864 34.3118H27.8641L24.1767 26.1098V26.1035Z" fill="url(#paint0_linear_1_4673)"/>
<path fill-rule="evenodd" clip-rule="evenodd" d="M22.9896 23.4705L15.6211 6.97176L8.25253 23.4705H22.9959H22.9896ZM24.1767 26.1035H7.06548L3.37805 34.3055H0L14.0426 3.60003L15.6463 0.0957031L17.2501 3.60003L31.2864 34.3118H27.8641L24.1767 26.1098V26.1035Z" fill="white"/>
<path fill-rule="evenodd" clip-rule="evenodd" d="M73.0793 34.5458C70.4842 34.5458 68.1417 33.9712 66.058 32.8221C63.9744 31.6729 62.339 30.0817 61.152 28.0486C59.9649 26.0155 59.3714 23.7361 59.3714 21.2168C59.3714 18.6974 59.9649 16.418 61.152 14.3849C62.339 12.3518 63.9807 10.7606 66.077 9.61144C68.1732 8.46228 70.5221 7.8877 73.1172 7.8877C75.0619 7.8877 76.8614 8.20971 78.5094 8.86007C80.1574 9.51042 81.5528 10.4575 82.702 11.7077L80.9403 13.4694C78.8946 11.3983 76.3121 10.3628 73.1866 10.3628C71.1156 10.3628 69.2277 10.8364 67.5292 11.7835C65.8307 12.7306 64.5047 14.0313 63.5387 15.6793C62.5789 17.3273 62.0991 19.1773 62.0991 21.2231C62.0991 23.2688 62.5789 25.1189 63.5387 26.7668C64.4984 28.4148 65.8307 29.7155 67.5292 30.6626C69.2277 31.6098 71.1093 32.0833 73.1866 32.0833C76.331 32.0833 78.9135 31.0352 80.9403 28.9389L82.702 30.7005C81.5528 31.9507 80.1511 32.9041 78.4905 33.5671C76.8299 34.2301 75.024 34.5584 73.0793 34.5584" fill="url(#paint1_linear_1_4673)"/>
<path fill-rule="evenodd" clip-rule="evenodd" d="M73.0793 34.5458C70.4842 34.5458 68.1417 33.9712 66.058 32.8221C63.9744 31.6729 62.339 30.0817 61.152 28.0486C59.9649 26.0155 59.3714 23.7361 59.3714 21.2168C59.3714 18.6974 59.9649 16.418 61.152 14.3849C62.339 12.3518 63.9807 10.7606 66.077 9.61144C68.1732 8.46228 70.5221 7.8877 73.1172 7.8877C75.0619 7.8877 76.8614 8.20971 78.5094 8.86007C80.1574 9.51042 81.5528 10.4575 82.702 11.7077L80.9403 13.4694C78.8946 11.3983 76.3121 10.3628 73.1866 10.3628C71.1156 10.3628 69.2277 10.8364 67.5292 11.7835C65.8307 12.7306 64.5047 14.0313 63.5387 15.6793C62.5789 17.3273 62.0991 19.1773 62.0991 21.2231C62.0991 23.2688 62.5789 25.1189 63.5387 26.7668C64.4984 28.4148 65.8307 29.7155 67.5292 30.6626C69.2277 31.6098 71.1093 32.0833 73.1866 32.0833C76.331 32.0833 78.9135 31.0352 80.9403 28.9389L82.702 30.7005C81.5528 31.9507 80.1511 32.9041 78.4905 33.5671C76.8299 34.2301 75.024 34.5584 73.0793 34.5584" fill="white"/>
<path fill-rule="evenodd" clip-rule="evenodd" d="M44.3567 23.6469C46.9518 23.6469 48.9407 23.0723 50.3109 21.9231C51.681 20.774 52.3693 19.1639 52.3693 17.0928C52.3693 15.0218 51.681 13.3423 50.3109 12.2057C48.9344 11.0692 46.9518 10.5009 44.3567 10.5009H37.3922V23.6469H44.3567ZM34.6203 34.3177H37.3922V26.002H44.4324C45.1586 26.002 45.8531 25.9641 46.5287 25.8884L52.5208 34.3114H55.5516L49.1491 25.3264C51.0686 24.7013 52.5524 23.6848 53.5879 22.2767C54.6234 20.8687 55.1412 19.1386 55.1412 17.0928C55.1412 14.2957 54.194 12.0984 52.2935 10.5009C50.3929 8.90345 47.7726 8.10156 44.4261 8.10156H34.614V34.3177H34.6203Z" fill="url(#paint2_linear_1_4673)"/>
<path fill-rule="evenodd" clip-rule="evenodd" d="M44.3567 23.6469C46.9518 23.6469 48.9407 23.0723 50.3109 21.9231C51.681 20.774 52.3693 19.1639 52.3693 17.0928C52.3693 15.0218 51.681 13.3423 50.3109 12.2057C48.9344 11.0692 46.9518 10.5009 44.3567 10.5009H37.3922V23.6469H44.3567ZM34.6203 34.3177H37.3922V26.002H44.4324C45.1586 26.002 45.8531 25.9641 46.5287 25.8884L52.5208 34.3114H55.5516L49.1491 25.3264C51.0686 24.7013 52.5524 23.6848 53.5879 22.2767C54.6234 20.8687 55.1412 19.1386 55.1412 17.0928C55.1412 14.2957 54.194 12.0984 52.2935 10.5009C50.3929 8.90345 47.7726 8.10156 44.4261 8.10156H34.614V34.3177H34.6203Z" fill="white"/>
<path fill-rule="evenodd" clip-rule="evenodd" d="M136.7 31.2053C139.674 31.2053 142.275 30.6181 144.504 29.4374C146.733 28.2566 148.463 26.6276 149.688 24.5439C150.913 22.4603 151.532 20.0609 151.532 17.3459C151.532 14.6308 150.919 12.2314 149.688 10.1478C148.463 8.06414 146.733 6.4351 144.504 5.25437C142.275 4.07363 139.674 3.48642 136.7 3.48642H126.667V31.2053H136.7ZM117.291 0.386197H18.7085L20.1292 3.48642H112.833L103.431 15.2622V17.8321H105.856C108.924 17.8321 111.216 18.4319 112.738 19.6253C114.253 20.8186 115.017 22.4666 115.017 24.5692C115.017 26.6718 114.26 28.3766 112.738 29.5826C111.216 30.7949 109.07 31.401 106.291 31.401C104.157 31.401 102.156 31.0348 100.28 30.3087C98.4051 29.5826 96.9023 28.6355 95.7721 27.4737L94.0736 30.2329C95.3996 31.5589 97.1486 32.6134 99.3332 33.4089C101.512 34.1982 103.835 34.596 106.285 34.596C108.937 34.596 111.178 34.1603 113.022 33.289C114.866 32.4176 116.255 31.2306 117.19 29.7278C118.124 28.2251 118.598 26.5076 118.598 24.5692C118.598 21.791 117.669 19.5369 115.813 17.8068C113.957 16.0767 111.248 15.117 107.693 14.9213L117.291 2.85501V0.386197ZM136.89 0.386197H123.081V34.3118H136.89C140.476 34.3118 143.639 33.592 146.386 32.1524C149.133 30.7128 151.267 28.7112 152.782 26.1414C154.297 23.5716 155.061 20.6418 155.061 17.3459C155.061 14.0499 154.304 11.1202 152.782 8.55033C151.267 5.98049 149.133 3.97892 146.386 2.5393C143.639 1.09969 140.476 0.379883 136.89 0.379883V0.386197Z" fill="white"/>
<defs>
<linearGradient id="paint0_linear_1_4673" x1="15.6526" y1="34.3118" x2="15.6526" y2="0.103945" gradientUnits="userSpaceOnUse">
<stop stop-color="#005050"/>
<stop offset="1" stop-color="#066770"/>
</linearGradient>
<linearGradient id="paint1_linear_1_4673" x1="71.0437" y1="34.5584" x2="71.0437" y2="7.89412" gradientUnits="userSpaceOnUse">
<stop stop-color="#005050"/>
<stop offset="1" stop-color="#066770"/>
</linearGradient>
<linearGradient id="paint2_linear_1_4673" x1="45.0891" y1="34.3177" x2="45.0891" y2="8.10788" gradientUnits="userSpaceOnUse">
<stop stop-color="#005050"/>
<stop offset="1" stop-color="#066770"/>
</linearGradient>
</defs>
</svg>
