<svg width="95" height="14" viewBox="0 0 95 14" fill="none" xmlns="http://www.w3.org/2000/svg">
<path d="M8.10833 0.366437C8.04959 0.258949 7.96637 0.171004 7.85868 0.102603C7.75098 0.0342007 7.63105 0 7.49888 0C7.36671 0 7.24678 0.0342007 7.13909 0.102603C7.03139 0.171004 6.94818 0.258949 6.88943 0.366437L4.93627 4.22136L0.589376 4.85163C0.462102 4.87117 0.347066 4.92247 0.244268 5.00553C0.14147 5.08859 0.0704902 5.18875 0.031329 5.30601C-0.00783224 5.42327 -0.0102798 5.54298 0.0239862 5.66512C0.0582523 5.78727 0.119442 5.89231 0.207554 5.98026L3.36493 8.98504L2.61597 13.2211C2.59639 13.3481 2.61107 13.4702 2.66002 13.5875C2.70898 13.7048 2.78485 13.8 2.88765 13.8733C2.99045 13.9466 3.10793 13.9881 3.2401 13.9979C3.37227 14.0077 3.4922 13.9832 3.59989 13.9246L7.50622 11.9312L11.3979 13.9246C11.5154 13.9832 11.6377 14.0077 11.765 13.9979C11.8923 13.9881 12.0098 13.9466 12.1175 13.8733C12.2251 13.8 12.3035 13.7048 12.3524 13.5875C12.4014 13.4702 12.4112 13.3481 12.3818 13.2211L11.6475 8.98504L14.7902 5.98026C14.8881 5.89231 14.9517 5.78727 14.9811 5.66512C15.0105 5.54298 15.0056 5.42327 14.9664 5.30601C14.9273 5.18875 14.8587 5.08859 14.7608 5.00553C14.6629 4.92247 14.5503 4.87117 14.4231 4.85163L10.0615 4.22136L8.10833 0.366437Z" fill="#FDAA29"/>
<path d="M28.1083 0.366437C28.0496 0.258949 27.9664 0.171004 27.8587 0.102603C27.751 0.0342007 27.631 0 27.4989 0C27.3667 0 27.2468 0.0342007 27.1391 0.102603C27.0314 0.171004 26.9482 0.258949 26.8894 0.366437L24.9363 4.22136L20.5894 4.85163C20.4621 4.87117 20.3471 4.92247 20.2443 5.00553C20.1415 5.08859 20.0705 5.18875 20.0313 5.30601C19.9922 5.42327 19.9897 5.54298 20.024 5.66512C20.0583 5.78727 20.1194 5.89231 20.2076 5.98026L23.3649 8.98504L22.616 13.2211C22.5964 13.3481 22.6111 13.4702 22.66 13.5875C22.709 13.7048 22.7849 13.8 22.8876 13.8733C22.9904 13.9466 23.1079 13.9881 23.2401 13.9979C23.3723 14.0077 23.4922 13.9832 23.5999 13.9246L27.5062 11.9312L31.3979 13.9246C31.5154 13.9832 31.6377 14.0077 31.765 13.9979C31.8923 13.9881 32.0098 13.9466 32.1175 13.8733C32.2251 13.8 32.3035 13.7048 32.3524 13.5875C32.4014 13.4702 32.4112 13.3481 32.3818 13.2211L31.6475 8.98504L34.7902 5.98026C34.8881 5.89231 34.9517 5.78727 34.9811 5.66512C35.0105 5.54298 35.0056 5.42327 34.9664 5.30601C34.9273 5.18875 34.8587 5.08859 34.7608 5.00553C34.6629 4.92247 34.5503 4.87117 34.4231 4.85163L30.0615 4.22136L28.1083 0.366437Z" fill="#FDAA29"/>
<path d="M48.1083 0.366437C48.0496 0.258949 47.9664 0.171004 47.8587 0.102603C47.751 0.0342007 47.631 0 47.4989 0C47.3667 0 47.2468 0.0342007 47.1391 0.102603C47.0314 0.171004 46.9482 0.258949 46.8894 0.366437L44.9363 4.22136L40.5894 4.85163C40.4621 4.87117 40.3471 4.92247 40.2443 5.00553C40.1415 5.08859 40.0705 5.18875 40.0313 5.30601C39.9922 5.42327 39.9897 5.54298 40.024 5.66512C40.0583 5.78727 40.1194 5.89231 40.2076 5.98026L43.3649 8.98504L42.616 13.2211C42.5964 13.3481 42.6111 13.4702 42.66 13.5875C42.709 13.7048 42.7849 13.8 42.8876 13.8733C42.9904 13.9466 43.1079 13.9881 43.2401 13.9979C43.3723 14.0077 43.4922 13.9832 43.5999 13.9246L47.5062 11.9312L51.3979 13.9246C51.5154 13.9832 51.6377 14.0077 51.765 13.9979C51.8923 13.9881 52.0098 13.9466 52.1175 13.8733C52.2251 13.8 52.3035 13.7048 52.3524 13.5875C52.4014 13.4702 52.4112 13.3481 52.3818 13.2211L51.6475 8.98504L54.7902 5.98026C54.8881 5.89231 54.9517 5.78727 54.9811 5.66512C55.0105 5.54298 55.0056 5.42327 54.9664 5.30601C54.9273 5.18875 54.8587 5.08859 54.7608 5.00553C54.6629 4.92247 54.5503 4.87117 54.4231 4.85163L50.0615 4.22136L48.1083 0.366437Z" fill="#FDAA29"/>
<path d="M68.1083 0.366437C68.0496 0.258949 67.9664 0.171004 67.8587 0.102603C67.751 0.0342007 67.631 0 67.4989 0C67.3667 0 67.2468 0.0342007 67.1391 0.102603C67.0314 0.171004 66.9482 0.258949 66.8894 0.366437L64.9363 4.22136L60.5894 4.85163C60.4621 4.87117 60.3471 4.92247 60.2443 5.00553C60.1415 5.08859 60.0705 5.18875 60.0313 5.30601C59.9922 5.42327 59.9897 5.54298 60.024 5.66512C60.0583 5.78727 60.1194 5.89231 60.2076 5.98026L63.3649 8.98504L62.616 13.2211C62.5964 13.3481 62.6111 13.4702 62.66 13.5875C62.709 13.7048 62.7849 13.8 62.8876 13.8733C62.9904 13.9466 63.1079 13.9881 63.2401 13.9979C63.3723 14.0077 63.4922 13.9832 63.5999 13.9246L67.5062 11.9312L71.3979 13.9246C71.5154 13.9832 71.6377 14.0077 71.765 13.9979C71.8923 13.9881 72.0098 13.9466 72.1175 13.8733C72.2251 13.8 72.3035 13.7048 72.3524 13.5875C72.4014 13.4702 72.4112 13.3481 72.3818 13.2211L71.6475 8.98504L74.7902 5.98026C74.8881 5.89231 74.9517 5.78727 74.9811 5.66512C75.0105 5.54298 75.0056 5.42327 74.9664 5.30601C74.9273 5.18875 74.8587 5.08859 74.7608 5.00553C74.6629 4.92247 74.5503 4.87117 74.4231 4.85163L70.0615 4.22136L68.1083 0.366437Z" fill="#FDAA29"/>
<path d="M88.1083 0.366437C88.0496 0.258949 87.9664 0.171004 87.8587 0.102603C87.751 0.0342007 87.631 0 87.4989 0C87.3667 0 87.2468 0.0342007 87.1391 0.102603C87.0314 0.171004 86.9482 0.258949 86.8894 0.366437L84.9363 4.22136L80.5894 4.85163C80.4621 4.87117 80.3471 4.92247 80.2443 5.00553C80.1415 5.08859 80.0705 5.18875 80.0313 5.30601C79.9922 5.42327 79.9897 5.54298 80.024 5.66512C80.0583 5.78727 80.1194 5.89231 80.2076 5.98026L83.3649 8.98504L82.616 13.2211C82.5964 13.3481 82.6111 13.4702 82.66 13.5875C82.709 13.7048 82.7849 13.8 82.8876 13.8733C82.9904 13.9466 83.1079 13.9881 83.2401 13.9979C83.3723 14.0077 83.4922 13.9832 83.5999 13.9246L87.5062 11.9312L91.3979 13.9246C91.5154 13.9832 91.6377 14.0077 91.765 13.9979C91.8923 13.9881 92.0098 13.9466 92.1175 13.8733C92.2251 13.8 92.3035 13.7048 92.3524 13.5875C92.4014 13.4702 92.4112 13.3481 92.3818 13.2211L91.6475 8.98504L94.7902 5.98026C94.8881 5.89231 94.9517 5.78727 94.9811 5.66512C95.0105 5.54298 95.0056 5.42327 94.9664 5.30601C94.9273 5.18875 94.8587 5.08859 94.7608 5.00553C94.6629 4.92247 94.5503 4.87117 94.4231 4.85163L90.0615 4.22136L88.1083 0.366437Z" fill="#FDAA29"/>
</svg>
