<svg width="60" height="60" viewBox="0 0 60 60" fill="none" xmlns="http://www.w3.org/2000/svg">
<circle cx="30" cy="30" r="29.5" fill="black" fill-opacity="0.5"/>
<circle cx="30" cy="30" r="29.5" fill="url(#paint0_linear_1_5113)"/>
<circle cx="30" cy="30" r="29.5" stroke="white"/>
<circle cx="30" cy="30" r="29.5" stroke="url(#paint1_linear_1_5113)"/>
<path d="M41.8799 17.1206C41.8891 17.1206 41.8982 17.1213 41.9073 17.1216C41.949 17.1228 41.99 17.1271 42.0303 17.1333C42.0459 17.1357 42.0617 17.137 42.0772 17.1401C42.0812 17.1409 42.085 17.1422 42.0889 17.1431C42.2714 17.1819 42.4452 17.2718 42.587 17.4136C42.7919 17.6185 42.8882 17.8903 42.878 18.1587V37.1274C42.878 37.6797 42.4302 38.1274 41.878 38.1274C41.3258 38.1273 40.878 37.6797 40.878 37.1274V20.5366L18.8282 42.5864C18.4377 42.9769 17.8047 42.9769 17.4141 42.5864C17.0236 42.1959 17.0236 41.5629 17.4141 41.1724L39.4659 19.1206H22.8712C22.3189 19.1206 21.8712 18.6729 21.8712 18.1206C21.8712 17.5683 22.3189 17.1206 22.8712 17.1206H41.8799Z" fill="white"/>
<defs>
<linearGradient id="paint0_linear_1_5113" x1="0.00147629" y1="30.0111" x2="59.9985" y2="30.0111" gradientUnits="userSpaceOnUse">
<stop stop-color="#C32E2D"/>
<stop offset="1" stop-color="#DDAB28"/>
</linearGradient>
<linearGradient id="paint1_linear_1_5113" x1="0.00147629" y1="30.0111" x2="59.9985" y2="30.0111" gradientUnits="userSpaceOnUse">
<stop stop-color="#C32E2D"/>
<stop offset="1" stop-color="#DDAB28"/>
</linearGradient>
</defs>
</svg>
