<svg width="36" height="38" viewBox="0 0 36 38" fill="none" xmlns="http://www.w3.org/2000/svg">
<path d="M30.8003 6.19449C27.7794 3.14342 23.7676 1.2723 19.4886 0.918636C15.2096 0.56497 10.945 1.75204 7.46419 4.26573C3.98333 6.77941 1.51531 10.4542 0.505293 14.6274C-0.504721 18.8005 0.00976315 23.1971 1.95594 27.0243L0.0455243 36.2993C0.0257017 36.3916 0.0251402 36.487 0.0438755 36.5795C0.0626108 36.6721 0.100239 36.7598 0.154408 36.8371C0.233761 36.9545 0.347033 37.0448 0.479097 37.0961C0.611161 37.1474 0.755731 37.1572 0.8935 37.1241L9.98366 34.9696C13.8001 36.8665 18.1657 37.3479 22.3038 36.3281C26.4418 35.3083 30.0839 32.8535 32.5819 29.4005C35.0799 25.9475 36.2718 21.7202 35.9456 17.4709C35.6194 13.2215 33.7961 9.22573 30.8003 6.19449ZM27.966 28.816C25.8758 30.9003 23.1843 32.2761 20.2708 32.7497C17.3572 33.2232 14.3685 32.7706 11.7258 31.4556L10.4588 30.8287L4.88591 32.1485L4.90241 32.0792L6.05724 26.47L5.43693 25.2459C4.08664 22.594 3.6103 19.5827 4.07617 16.6435C4.54203 13.7043 5.92619 10.988 8.03035 8.88359C10.6743 6.24049 14.2597 4.75568 17.9982 4.75568C21.7367 4.75568 25.3221 6.24049 27.966 8.88359C27.9885 8.90941 28.0128 8.93367 28.0386 8.95618C30.6498 11.6061 32.1074 15.1808 32.0938 18.901C32.0802 22.6212 30.5965 26.1852 27.966 28.816Z" fill="#DDDDDD"/>
<path d="M27.4707 24.7018C26.7877 25.7775 25.7087 27.094 24.3526 27.4206C21.977 27.9947 18.331 27.4404 13.7942 23.2104L13.7381 23.161C9.74899 19.4622 8.71294 16.3838 8.96371 13.9421C9.10228 12.5563 10.2571 11.3025 11.2305 10.4842C11.3844 10.3529 11.5668 10.2594 11.7633 10.2112C11.9598 10.163 12.1649 10.1614 12.362 10.2066C12.5592 10.2518 12.7431 10.3426 12.899 10.4715C13.0549 10.6005 13.1784 10.7642 13.2597 10.9494L14.728 14.249C14.8234 14.4629 14.8587 14.6988 14.8302 14.9313C14.8018 15.1638 14.7105 15.3842 14.5663 15.5688L13.8239 16.5322C13.6646 16.7312 13.5685 16.9732 13.5479 17.2272C13.5273 17.4813 13.5832 17.7356 13.7084 17.9576C14.1241 18.6868 15.1206 19.7592 16.2259 20.7523C17.4666 21.8741 18.8425 22.9003 19.7135 23.25C19.9466 23.3453 20.2029 23.3685 20.4493 23.3167C20.6957 23.265 20.9209 23.1406 21.096 22.9597L21.9572 22.0919C22.1234 21.9281 22.33 21.8112 22.5561 21.7532C22.7821 21.6953 23.0195 21.6983 23.244 21.762L26.7316 22.7518C26.924 22.8108 27.1003 22.9131 27.2471 23.0507C27.394 23.1883 27.5074 23.3577 27.5787 23.5458C27.65 23.734 27.6773 23.936 27.6586 24.1363C27.6399 24.3367 27.5756 24.5301 27.4707 24.7018Z" fill="#DDDDDD"/>
</svg>
