<svg width="162" height="150" viewBox="0 0 162 150" fill="none" xmlns="http://www.w3.org/2000/svg">
<path d="M74.7076 84.2001C75.3536 85.0322 75.8244 85.9956 76.0981 87.0138L76.6564 87.1014C77.0834 78.5618 78.2658 72.8688 80.6963 68.3362C83.1159 72.8907 84.2983 78.5618 84.7252 87.1014L85.2945 87.0138V86.9043C85.5573 85.908 86.0171 84.9665 86.6302 84.1454C87.9987 82.4156 89.838 81.1127 91.9291 80.412C93.4619 79.8208 105.198 75.343 106.468 74.8723C109.643 73.6899 111.581 72.6826 113.037 69.4967C113.727 67.537 114.066 65.4678 114.044 63.3876C115.26 62.4899 116.212 61.2746 116.792 59.8733C117.384 58.2748 117.701 56.5888 117.756 54.8809C121.139 53.4905 123.832 50.8191 125.266 47.458C126.087 45.1918 126.493 42.7832 126.46 40.3746C133.521 34.572 134.627 27.8498 134.419 20H133.85C134.047 27.0397 131.978 33.302 124.894 37.5718C114.395 43.8889 103.622 45.0056 93.1444 51.4322C87.0025 55.1765 83.1815 59.0959 80.762 63.2891C78.2877 59.1945 74.4011 55.2203 68.2701 51.476C57.727 45.0494 46.954 43.9327 36.5204 37.6156C29.426 33.3458 27.3568 27.0835 27.5539 20.0985H26.9955C26.7765 27.9484 27.8823 34.6596 34.9329 40.4621C34.911 42.9036 35.3271 45.3231 36.1591 47.6113C37.5933 50.9724 40.2866 53.6437 43.6696 55.0451C43.7243 56.7421 44.0528 58.4281 44.633 60.0265C45.2133 61.4279 46.1658 62.6432 47.381 63.5409C47.3591 65.6211 47.6985 67.6903 48.3882 69.65C49.8115 72.8031 51.7493 73.8431 54.9571 75.0255C56.2271 75.4963 67.9745 79.9741 69.4963 80.5653C71.5436 81.2551 73.3501 82.5141 74.7076 84.2001ZM112.687 67.1648C111.899 68.9603 109.72 70.0222 107.213 71.0185C105.866 71.5769 93.9983 75.7372 91.7649 76.624C90.5934 77.0729 89.5096 77.7188 88.568 78.5509C88.8965 77.259 89.4001 76.0109 90.0789 74.8613C91.4584 73.0001 93.3633 71.5988 95.553 70.8543C97.0857 70.2521 108.833 65.7743 110.092 65.2926C111.231 64.8985 112.337 64.3839 113.377 63.7708C113.322 64.9313 113.092 66.0699 112.687 67.1648ZM116.431 57.5413C115.643 59.3368 113.464 60.4097 111.023 61.406C109.687 61.9534 97.8083 66.1247 95.5749 67.0005C94.6333 67.3618 93.7465 67.8545 92.9473 68.4566C93.221 67.4385 93.637 66.4641 94.1845 65.5663C95.553 63.8365 97.3923 62.5446 99.4724 61.8439C100.994 61.2527 115.402 55.8224 116.672 55.3517C116.814 55.3079 116.957 55.2422 117.088 55.1765C116.968 55.9867 116.749 56.7859 116.431 57.5413ZM90.5606 57.5413C99.6804 50.5126 112.216 49.1222 121.993 43.3963C123.361 42.6189 124.664 41.754 125.912 40.8015C125.639 42.6627 125.047 44.4692 124.172 46.1333C123.077 48.3229 121.007 50.0856 117.526 51.4651C116.179 52.0015 101.651 57.1253 99.4177 58.034C97.2609 58.8003 95.4544 60.3112 94.3049 62.2928C93.2758 64.4606 92.5641 66.7597 92.1809 69.1245C91.5131 69.7704 90.9329 70.5039 90.4621 71.3141C89.1921 73.3176 88.4148 76.4926 87.7907 79.4158C87.3856 79.8865 87.0244 80.4011 86.6959 80.9266C85.9624 82.2185 85.4369 83.6089 85.1413 85.065C84.8457 78.5618 84.6924 72.179 82.032 66.1028C84.4077 62.8293 87.2871 59.9499 90.5606 57.5851V57.5413ZM37.1116 46.1224C36.2358 44.4582 35.6446 42.6627 35.3709 40.8015C36.6189 41.7759 37.9327 42.6627 39.3013 43.4619C49.0889 49.1878 61.6246 50.5783 70.7335 57.607C74.007 59.9608 76.8754 62.8183 79.2512 66.0809C76.5798 72.179 76.1528 85.1088 76.1528 85.1088C76.1528 85.1088 75.3207 82.2075 74.5763 80.9047C74.2478 80.3683 73.8865 79.8646 73.4815 79.3939C72.8574 76.4707 72.0801 73.2957 70.8211 71.2922C70.3393 70.493 69.7591 69.7485 69.0912 69.1026C68.7081 66.7378 67.9855 64.4387 66.9673 62.2709C65.8287 60.2893 64.0222 58.7784 61.8654 58.0011C59.6758 57.1143 45.1147 51.9906 43.7681 51.4322C40.2756 50.0746 38.2612 48.3229 37.1116 46.1224ZM44.852 57.5413C44.5345 56.7859 44.3046 55.9867 44.1841 55.1765C44.3265 55.2422 44.4688 55.3079 44.6111 55.3517C45.8811 55.8224 60.2889 61.2527 61.8107 61.8439C63.9018 62.5556 65.7411 63.8475 67.1096 65.5663C67.6461 66.4641 68.0621 67.4385 68.3358 68.4566C67.5366 67.8545 66.6498 67.3618 65.7083 67.0005C63.5186 66.1247 51.607 61.9534 50.2604 61.406C47.808 60.4097 45.6402 59.3368 44.852 57.5413ZM54.0047 71.0185C51.5632 70.0222 49.3955 68.9603 48.5963 67.1648C48.1583 66.0809 47.8956 64.9313 47.808 63.7708C48.8481 64.3839 49.9538 64.8985 51.0924 65.2926C52.3624 65.7743 64.0989 70.2521 65.6426 70.8543C67.8322 71.5988 69.7372 73.0001 71.1167 74.8613C71.7845 76.0218 72.2881 77.259 72.6275 78.5509C71.675 77.7188 70.5911 77.0729 69.4087 76.624C67.23 75.7372 55.3622 71.5769 54.0047 71.0185ZM17.1202 126.197L19.3099 128.387L17.1202 130.577L14.9306 128.387L17.1202 126.197ZM18.9814 114.242L28.364 130.664H24.0723L22.6819 128.113L19.3975 122.004L16.9779 117.439L14.3942 122.19L11.2301 127.971L9.82876 130.577H6.02975L15.2919 114.154L18.9814 114.242ZM50.3151 114.242H53.3697V130.664H49.8224V120.493C49.8224 120.088 49.8224 119.508 49.9429 118.753C49.6801 119.355 49.3626 119.924 48.9904 120.46L42.8375 128.65H42.1587L36.0059 120.428C35.6008 119.913 35.2723 119.355 35.0096 118.753C35.0753 119.333 35.1081 119.913 35.1081 120.493V130.577H31.9769V114.154H35.0534L42.7171 124.008L50.3151 114.242ZM77.1819 114.242H80.2255V130.664H76.7112V120.493C76.7221 119.913 76.7659 119.333 76.8425 118.753C76.5688 119.344 76.2404 119.913 75.8791 120.46L69.7262 128.65H68.9708L62.807 120.428C62.4238 119.913 62.1063 119.344 61.8654 118.753C61.9311 119.333 61.964 119.913 61.964 120.493V130.577H58.8985V114.154H61.964L69.6277 124.008L77.1819 114.242ZM85.6668 114.242H103.37V121.238C103.37 123.362 102.144 124.424 99.6914 124.424H97.5018L103.195 130.577H98.29L91.1628 121.588H97.9944C98.4104 121.621 98.8374 121.555 99.2316 121.402C99.571 121.15 99.7571 120.734 99.7133 120.307V117.023H89.4111V130.577H85.6668V114.242ZM109.26 115.03C108.581 115.906 108.286 117.012 108.406 118.118V130.609H126.022C127.149 130.73 128.288 130.456 129.23 129.81C129.908 128.934 130.215 127.829 130.084 126.734V114.242H112.479C111.351 114.121 110.213 114.395 109.26 115.03ZM126.285 127.533H112.227V117.165H126.295V127.533H126.285ZM154.925 127.533V130.577H139.455C138.327 130.697 137.189 130.423 136.247 129.777C135.569 128.902 135.262 127.796 135.393 126.701V118.118C135.262 117.012 135.569 115.906 136.247 115.03C137.189 114.395 138.327 114.121 139.455 114.242H150.852C151.98 114.121 153.108 114.395 154.049 115.03C154.739 115.906 155.045 117.012 154.914 118.118V120.307H151.104V117.165H139.203V127.533H154.925ZM152.078 105.275H148.356V97.1409H152.133L152.078 105.275ZM137.331 105.275H131.189L128.792 102.473H135.612C136.028 102.505 136.455 102.44 136.849 102.287C137.189 102.035 137.375 101.619 137.331 101.192V97.9072H123.099V102.287V105.286H71.0619V108.275C71.0619 110.399 69.8357 111.45 67.3833 111.45H58.8547V108.68H65.8506C66.2776 108.713 66.6936 108.647 67.0877 108.483C67.4381 108.231 67.6242 107.815 67.5694 107.388V95.1045H71.0619V102.243H119.321V95.1045H141.01V102.111C141.01 104.224 139.773 105.286 137.331 105.286V105.275ZM49.5706 87.1014H53.3697V101.422C53.501 102.516 53.1945 103.611 52.5157 104.487C51.5742 105.122 50.4465 105.396 49.3188 105.275H10.0915C8.96386 105.396 7.8362 105.122 6.89465 104.487C6.20492 103.622 5.89837 102.516 6.02975 101.422V99.232H9.83971V102.341H49.5706V87.1014ZM154.925 92.1594V94.2287H145.444V92.1594H147.502V89.4005C147.425 88.7436 147.612 88.0867 148.017 87.5612C148.575 87.189 149.254 87.0247 149.922 87.1014H152.505C153.173 87.0247 153.852 87.189 154.41 87.5612C154.815 88.0867 155.002 88.7436 154.925 89.4005V90.6924H152.352V89.2363H150.02V92.1594H154.925ZM30.3894 96.1446H25.9335V94.0644H27.9918V91.3055C27.9151 90.6486 28.0903 89.9917 28.4954 89.4662C29.0538 89.083 29.7216 88.9188 30.3894 88.9735H32.9842C33.652 88.9078 34.3198 89.0721 34.8891 89.4333C35.2942 89.9589 35.4694 90.6157 35.3928 91.2726V92.5864H32.8309V91.1632H30.4989V94.0863H35.4037V96.1665H30.3894V96.1446Z" fill="#033972"/>
</svg>
