<svg width="300" height="150" viewBox="0 0 300 150" fill="none" xmlns="http://www.w3.org/2000/svg">
<path d="M103.144 102.699C103.144 103.307 103.287 103.697 103.943 103.697C104.599 103.697 104.722 103.282 104.722 102.699V88.1094H107.296V102.922C107.296 104.67 106.059 105.768 103.917 105.768C101.777 105.767 100.564 104.645 100.564 102.922V88.1094H103.144V102.699ZM127.755 87.7686C129.872 87.7686 131.134 88.8654 131.134 90.6133V102.923C131.134 104.652 129.896 105.768 127.755 105.768C125.614 105.768 124.401 104.646 124.401 102.923V90.6133C124.401 88.884 125.639 87.7686 127.755 87.7686ZM157.287 98.8379V105.433H154.712V98.9619L152.063 88.1152H154.707C156.066 93.8722 155.677 92.393 156.117 95.6211H156.167C156.265 94.041 156.383 92.9935 156.506 92.4355C156.63 91.8778 156.965 90.4148 157.528 88.1094H159.935L157.287 98.8379ZM205.512 75.1426L235.383 105.433H216.107L185.865 75.1426L216.15 44.8096H235.427L205.512 75.1426ZM296 75.0986L265.713 105.433H246.443L276.351 75.0986L246.486 44.8096H265.756L296 75.0986ZM99.6782 105.427H97.0796L96.5972 100.734H94.7778L94.2202 105.427H91.8872L93.855 88.1094H97.7104L99.6782 105.427ZM115.428 90.3711H113.194V105.427H110.62V90.3711H108.361V88.1094H115.428V90.3711ZM119.098 94.7471H120.534V88.1094H123.108V105.427H120.534V97.0098H119.098V105.427H116.523V88.1094H119.098V94.7471ZM135.875 88.1094C138.034 88.1094 139.129 89.057 139.129 91.0029V93.5566C139.129 95.2859 138.325 95.9188 136.605 96.1357L136.581 96.1846C138.666 96.4511 139.056 97.3503 139.081 99.0547L139.129 101.366C139.154 103.021 139.254 104.385 139.446 105.427H136.871C136.654 104.355 136.555 103.214 136.555 101.392V98.7637C136.555 97.865 136.264 97.3994 135.12 97.3994H134.977V105.427H132.403V88.1094H135.875ZM143.14 105.427H140.566V88.1094H143.14V105.427ZM151.278 90.3711H149.043V105.427H146.469V90.3711H144.216V88.1094H151.278V90.3711ZM127.78 89.8379C127.297 89.838 126.982 90.0306 126.982 90.8359V102.705C126.982 103.312 127.124 103.703 127.78 103.703C128.436 103.703 128.56 103.288 128.56 102.705V90.8359C128.56 90.1296 128.368 89.8379 127.78 89.8379ZM95.019 98.4717H96.3491L95.8169 91.2764H95.6499L95.019 98.4717ZM134.977 95.2861H135.292C136.363 95.2861 136.555 94.8709 136.555 94.2139V90.9785C136.555 90.4455 136.239 90.1787 135.583 90.1787H134.977V95.2861ZM154.712 88.1152H154.707C154.706 88.1133 154.706 88.1113 154.706 88.1094L154.712 88.1152ZM76.6948 66.124C78.8112 66.124 80.0737 67.2219 80.0737 68.9697V72.7871H77.4995V69.1865C77.4995 68.4304 77.283 68.1885 76.7261 68.1885C76.1692 68.1885 75.9214 68.48 75.9214 69.1865V81.0557C75.9214 81.6629 76.0703 82.0537 76.7261 82.0537C77.382 82.0537 77.4995 81.6382 77.4995 81.0557V77.2373H80.0737V81.2783C80.0737 83.0076 78.836 84.124 76.6948 84.124C74.5539 84.1239 73.3413 83.0075 73.3413 81.2783V68.9697C73.3413 67.2406 74.5787 66.1242 76.6948 66.124ZM149.483 66.124C151.599 66.1241 152.862 67.222 152.862 68.9697V72.7871H150.287V69.1865C150.287 68.4304 150.07 68.1885 149.507 68.1885C148.944 68.1885 148.703 68.4799 148.703 69.1865V81.0557C148.703 81.663 148.851 82.0537 149.507 82.0537C150.163 82.0537 150.287 81.6382 150.287 81.0557V77.2373H152.862V81.2783C152.862 83.0075 151.624 84.1239 149.483 84.124C147.342 84.124 146.128 83.0076 146.128 81.2783V68.9697C146.128 67.2405 147.366 66.124 149.483 66.124ZM23.3452 81.0557C23.3452 81.6629 23.4875 82.0535 24.1431 82.0537C24.799 82.0537 24.9233 81.6382 24.9233 81.0557V66.459H27.4976V81.2725C27.4976 83.0265 26.2598 84.1172 24.1187 84.1172C21.9775 84.1172 20.7651 82.9955 20.7651 81.2725V66.459H23.3452V81.0557ZM16.5317 66.459C18.3508 66.4591 19.4456 67.6305 19.4458 69.502V72.2236C19.4457 73.5126 18.982 74.2195 17.064 74.6348V74.6836C19.0316 74.9997 19.5141 75.874 19.5142 77.2871V80.0391C19.5142 82.5677 18.3014 83.783 16.4575 83.7832H12.7876V66.459H16.5317ZM43.4761 73.1035H44.9116V66.459H47.4858V83.7832H44.9116V75.3662H43.4761V83.7832H40.9009V66.459H43.4761V73.1035ZM61.0444 66.459C62.8637 66.459 63.9593 67.6304 63.9595 69.502V72.2236C63.9594 73.5126 63.4949 74.2195 61.5767 74.6348V74.6836C63.5445 74.9997 64.0278 75.874 64.0278 77.2871V80.0391C64.0278 82.5679 62.8147 83.7832 60.9644 83.7832H57.2944V66.459H61.0444ZM100.242 81.5205H103.522V83.7832H97.6675V66.459H100.242V81.5205ZM122.13 68.7217H118.968V73.1719H122.006V75.4404H118.968V81.5205H122.173V83.7832H116.393V66.459H122.13V68.7217ZM129.005 68.7217H125.8V73.1719H128.888V75.4404H125.8V83.7832H123.225V66.459H129.005V68.7217ZM135.788 68.7217H132.631V73.1719H135.665V75.4404H132.631V81.5205H135.837V83.7832H130.057V66.459H135.788V68.7217ZM159.879 68.7217H156.723V73.1719H159.755V75.4404H156.723V81.5205H159.929V83.7832H154.149V66.459H159.879V68.7217ZM11.7915 83.7764H9.19189L8.70947 79.085H6.89014L6.3335 83.7764H4.00049L5.96826 66.459H9.82373L11.7915 83.7764ZM36.0933 66.459C38.6426 66.4591 39.6137 67.5312 39.6138 70.252V80.7148C39.6136 82.4438 38.3517 83.7762 36.6255 83.7764H32.8872V66.4531H36.0933V66.459ZM56.311 83.7764H53.7114L53.2231 79.085H51.4038L50.8462 83.7764H48.5132L50.481 66.459H54.3433L56.311 83.7764ZM67.8823 83.7764H65.3081V66.459H67.8823V83.7764ZM83.9233 83.7764H81.3491V66.459H83.9233V83.7764ZM96.3491 83.7764H93.7749V66.459H96.3491V83.7764ZM111.585 66.459C114.135 66.4591 115.106 67.5312 115.106 70.252V80.7148C115.106 82.4438 113.844 83.7762 112.118 83.7764H108.379V66.4531H111.585V66.459ZM141.915 74.1445C142.156 75.8242 142.446 78.211 142.694 81.248H142.793C142.793 77.8205 142.719 76.7972 142.719 75.5576V66.459H144.835V83.7764H141.023L139.884 75.626C139.668 73.996 139.445 72.7811 139.037 69.0068H138.938C138.938 69.3727 139.012 70.1537 139.012 71.3682V83.7764H136.902V66.459H140.751L141.915 74.1445ZM87.4751 66.459L88.2554 73.4629C88.3792 74.5355 88.738 79.4498 88.8618 80.4912H88.9116C88.9611 79.2516 89.2273 76.2088 89.4253 74.2627L90.2046 66.4531H92.7788L90.7368 83.7705H86.8501L84.9077 66.4531H87.4819L87.4751 66.459ZM15.3618 81.7129H15.8442C16.6239 81.7129 16.9398 81.3966 16.9399 80.4238V76.9707C16.9399 76.1961 16.6981 75.707 15.9185 75.707H15.3618V81.7129ZM59.8755 81.7129H60.3579C61.1375 81.7129 61.4535 81.3966 61.4536 80.4238V76.9707C61.4535 76.1961 61.2117 75.707 60.4321 75.707H59.8755V81.7129ZM35.4614 81.7119H36.0933C36.6253 81.7119 37.0396 81.6125 37.0396 80.4971V69.7188C37.0395 68.6963 36.699 68.5293 36.0679 68.5293H35.4614V81.7119ZM110.954 81.7119H111.585C112.117 81.7119 112.532 81.6125 112.532 80.4971V69.7188C112.532 68.6963 112.191 68.5293 111.56 68.5293H110.954V81.7119ZM7.13135 76.8223H8.46826L7.93604 69.6201H7.76318L7.13135 76.8223ZM51.6567 76.8223H52.9878L52.4556 69.6201H52.2886L51.6567 76.8223ZM15.3618 73.6367H15.9438C16.5996 73.6366 16.8657 73.3694 16.8657 72.3965V69.918C16.8657 68.6786 16.6243 68.4366 15.9438 68.4365H15.3618V73.6367ZM59.8755 73.6367H60.4565C61.1125 73.6367 61.3794 73.3696 61.3794 72.3965V69.918C61.3794 68.6784 61.1373 68.4365 60.4565 68.4365H59.8755V73.6367ZM28.5562 61.4141C29.1993 61.4143 29.4525 61.8602 29.4526 62.585C29.4526 63.31 29.2118 63.7566 28.5562 63.7568C27.9002 63.7568 27.6587 63.3101 27.6587 62.585C27.6588 61.8601 27.9003 61.4141 28.5562 61.4141ZM30.8394 61.4141C31.4764 61.4142 31.7172 61.8602 31.7173 62.585C31.7173 63.31 31.4951 63.7567 30.8394 63.7568C30.1834 63.7568 29.9419 63.3101 29.9419 62.585C29.942 61.8601 30.1835 61.4141 30.8394 61.4141ZM100.731 61.4141C101.374 61.4141 101.628 61.8601 101.628 62.585C101.628 63.3101 101.387 63.7568 100.731 63.7568C100.075 63.7568 99.8335 63.3101 99.8335 62.585C99.8336 61.8601 100.075 61.4141 100.731 61.4141ZM103.014 61.4141C103.651 61.4141 103.893 61.8601 103.893 62.585C103.893 63.3101 103.67 63.7568 103.014 63.7568C102.358 63.7568 102.117 63.3101 102.117 62.585C102.117 61.8601 102.358 61.4141 103.014 61.4141ZM106.79 59.4111C107.433 59.4113 107.686 59.8769 107.686 60.5957C107.686 61.3144 107.445 61.7791 106.79 61.7793C106.134 61.7793 105.879 61.3145 105.879 60.5957C105.879 59.8767 106.134 59.4111 106.79 59.4111ZM127.372 59.4111C128.015 59.4111 128.269 59.8767 128.269 60.5957C128.269 61.3145 128.021 61.7793 127.372 61.7793C126.722 61.7792 126.462 61.3145 126.462 60.5957C126.462 59.8768 126.716 59.4112 127.372 59.4111ZM146.667 59.4111C147.31 59.4111 147.564 59.8578 147.564 60.583C147.564 61.3082 147.322 61.7549 146.667 61.7549C146.011 61.7547 145.77 61.308 145.77 60.583C145.77 59.858 146.011 59.4113 146.667 59.4111ZM148.957 59.4111C149.594 59.4111 149.835 59.8578 149.835 60.583C149.835 61.3082 149.613 61.7549 148.957 61.7549C148.301 61.7548 148.059 61.3081 148.059 60.583C148.059 59.8579 148.301 59.4112 148.957 59.4111ZM68.4331 48.416C69.1385 48.416 69.9372 48.6456 70.8159 49.0918L70.0796 50.8398C69.5538 50.5982 69.1021 50.4679 68.6567 50.4678C67.9698 50.4678 67.5669 50.9331 67.5669 51.7822L67.5737 51.7881V55.7607H70.9155V57.7939H67.3813C66.4162 57.794 65.8591 58.1783 65.8589 59.1387V61.3213H63.8296V58.7549C63.8296 57.3293 64.4051 56.3999 65.5376 55.9971V51.4287C65.5376 49.5508 66.6263 48.4162 68.4331 48.416ZM128.882 57.7881H124.866C124.816 60.1618 123.665 61.3144 121.264 61.3145C120.689 61.3145 120.021 61.2531 119.587 61.123L119.185 58.9287C119.952 59.1889 120.639 59.331 121.214 59.3311C122.291 59.3311 122.848 58.9161 122.848 57.875V57.7939H122.434C120.243 57.7939 119.092 56.7032 119.092 54.3789V52.2344C119.092 49.7986 120.163 48.7578 122.434 48.7578H124.866V55.7617H126.846L126.852 55.7549V48.7393H128.882V57.7881ZM113.058 48.7568L114.97 48.7637C116.926 48.7637 117.947 49.6932 117.947 51.5029V57.7998H109.759C107.983 57.7998 106.721 56.6784 106.721 54.9492V50.8027H105.892C105.026 50.8027 104.58 51.2798 104.58 52.2402V59.8018H100.724C98.6945 59.8017 97.605 58.7109 97.605 56.6904V51.6455H99.6353V56.3564C99.6354 57.3045 100.1 57.7695 101.158 57.7695H102.55V51.7266C102.55 49.737 103.577 48.7451 105.638 48.7451H106.727V47.4619H108.776V54.5527C108.776 55.3395 109.19 55.7547 109.765 55.7549H111.028V44.7969H113.058V48.7568ZM36.1548 55.7617H38.1353V48.7393H40.1646V57.8008H34.1069V50.7969H33.6118C32.8259 50.7969 32.4106 51.2429 32.4106 52.123V59.7959H28.5552C26.5256 59.7958 25.437 58.705 25.437 56.6846V51.6396H27.4663V56.3496C27.4663 57.2979 27.9306 57.7637 28.9888 57.7637H30.3813V51.7197C30.3815 49.7304 31.4086 48.7393 33.4692 48.7393H36.1548V55.7617ZM58.1548 57.7939H53.6128C53.2291 58.9654 52.3805 59.5048 51.0376 59.5234H51.019C49.6454 59.5233 48.7855 58.9777 48.3833 57.7939H40.9634V55.7607H43.8599V51.918C43.8597 51.1496 43.4383 50.7783 42.77 50.7783H42.145V48.7451H42.9126C44.8805 48.7451 45.8891 49.687 45.8892 51.4844V55.7607H48.1108V52.5752C48.1109 49.9474 49.0205 48.7453 51.019 48.7451H51.0376C52.9869 48.7451 53.8843 49.9659 53.8843 52.5752V55.7607H56.1245V44.7969H58.1548V57.7939ZM155.046 46.9287C157.973 46.9288 159.922 48.9185 159.922 51.9121V57.7939H137.725C135.516 57.7939 134.383 56.7032 134.383 54.3789V52.2344C134.383 49.7985 135.454 48.7568 137.725 48.7568H138.109V47.9268H140.138V55.7549H142.119V48.7383H144.149V55.7549H146.772V48.7383H148.802V55.7549H150.429V55.7363H151.729V52.6309C151.729 51.1436 152.781 50.1642 154.322 50.1641C155.863 50.1641 156.884 51.1252 156.884 52.5508V55.7363H158.066V52.0361C158.066 50.1147 156.692 48.832 154.613 48.832C153.876 48.8321 152.868 49.1045 151.797 49.5879L151.191 47.9395C152.664 47.2825 154.007 46.9287 155.046 46.9287ZM61.7563 57.7881H59.7261V44.7969H61.7563V57.7881ZM74.0962 55.7549H76.188C76.0766 55.3582 76.0142 54.9057 76.0142 54.3789V52.2344C76.0142 49.7986 77.0849 48.7569 79.356 48.7568H81.7886V57.7881H72.0659V44.7969H74.0962V55.7549ZM91.5288 55.7607H93.5083L93.5151 55.7549V44.7969H95.5444V57.7881H82.5923V55.7549H85.4888V51.9121C85.4888 51.1435 85.0735 50.7715 84.3989 50.7715H83.7739V48.7383H84.5415C86.5094 48.7383 87.5181 49.6811 87.5181 51.4785V55.7549H89.4985V44.7969H91.5288V55.7607ZM132.316 57.7881H130.287V44.7969H132.316V57.7881ZM51.0005 50.7656C50.4067 50.7658 50.1528 51.2121 50.1528 52.3027V55.9844C50.1529 57.0439 50.4129 57.4901 51.019 57.4902H51.0376C51.6131 57.4902 51.855 57.0441 51.855 55.9844H51.8491V52.3027C51.8491 51.2119 51.5946 50.7656 51.019 50.7656H51.0005ZM122.334 50.8027C121.419 50.8028 121.134 51.2496 121.134 52.2412V54.3857C121.134 55.2779 121.549 55.7617 122.334 55.7617H122.83V50.8027H122.334ZM79.2573 50.8027C78.3416 50.8027 78.0562 51.2488 78.0562 52.2402V54.3848C78.0562 55.2773 78.4714 55.7607 79.2573 55.7607H79.7524V50.8027H79.2573ZM113.058 55.7607H115.905V51.918C115.905 51.1682 115.489 50.7969 114.815 50.7969H113.058V55.7607ZM137.625 50.7969C136.716 50.797 136.413 51.2489 136.413 52.2402V54.3848C136.413 55.2771 136.827 55.7606 137.625 55.7607H138.109V50.7969H137.625ZM154.329 51.7881C153.834 51.7881 153.561 52.1537 153.561 52.9717V55.7422H155.046V52.9717C155.046 52.1601 154.793 51.7882 154.329 51.7881ZM143.994 45.9805H143.387C143.134 45.9805 143.003 46.0921 143.003 46.3027V46.4951H144.359V47.6172H141.877V46.3027C141.877 45.4227 142.471 44.8584 143.591 44.8584H143.994V45.9805ZM115.428 44.6914C116.072 44.6914 116.326 45.1561 116.326 45.875C116.326 46.594 116.066 47.0586 115.428 47.0586C114.772 47.0586 114.519 46.5939 114.519 45.875C114.519 45.1561 114.785 44.6914 115.428 44.6914ZM39.1372 44.6729C39.7808 44.6729 40.0346 45.1375 40.0347 45.8564C40.0347 46.5754 39.7746 47.04 39.1372 47.04C38.4877 47.0398 38.228 46.5753 38.228 45.8564C38.2281 45.1377 38.4939 44.673 39.1372 44.6729ZM79.3687 44.6729C80.0121 44.6729 80.2661 45.1376 80.2661 45.8564C80.2661 46.5754 80.0059 47.04 79.3687 47.04C78.7127 47.04 78.4585 46.5754 78.4585 45.8564C78.4585 45.1375 78.7251 44.6729 79.3687 44.6729ZM136.624 44.2324C137.261 44.2325 137.521 44.6792 137.521 45.4043C137.521 46.1294 137.261 46.5751 136.624 46.5752C135.968 46.5752 135.726 46.1294 135.726 45.4043C135.726 44.6791 135.986 44.2324 136.624 44.2324ZM138.914 44.2324C139.551 44.2326 139.792 44.6793 139.792 45.4043C139.791 46.1293 139.551 46.575 138.914 46.5752C138.258 46.5752 138.016 46.1294 138.016 45.4043C138.016 44.6791 138.276 44.2324 138.914 44.2324Z" fill="black"/>
</svg>
