<svg width="120" height="60" viewBox="0 0 120 60" fill="none" xmlns="http://www.w3.org/2000/svg">
<path d="M41.8635 40.9946C41.8636 41.2355 41.9199 41.39 42.1799 41.3901C42.4402 41.3901 42.4895 41.2258 42.4895 40.9946V35.2036H43.512V41.0825C43.512 41.7763 43.02 42.2124 42.1702 42.2124C41.3205 42.2123 40.8391 41.7664 40.8391 41.0825V35.2036H41.8635V40.9946ZM51.6321 35.0679C52.472 35.0679 52.9727 35.5032 52.9729 36.1968V41.0835C52.9727 41.7696 52.4818 42.2124 51.6321 42.2124C50.7824 42.2124 50.3012 41.7672 50.301 41.0835V36.1968C50.3012 35.5106 50.7922 35.0679 51.6321 35.0679ZM63.3538 39.4614V42.0796H62.3323V39.5112L61.2805 35.2056H62.3293C62.8691 37.4909 62.7156 36.9037 62.8899 38.1851H62.9094C62.9487 37.5577 62.9951 37.1418 63.0442 36.9204C63.0933 36.699 63.226 36.1186 63.4495 35.2036H64.4045L63.3538 39.4614ZM82.4954 30.0562L94.3518 42.0796H86.7004L74.6965 30.0562L86.718 18.0161H94.3694L82.4954 30.0562ZM118.412 30.0396L106.391 42.0796H98.7415L110.614 30.0396L98.759 18.0161H106.408L118.412 30.0396ZM40.4875 42.0767H39.4563L39.2649 40.2144H38.5422L38.3215 42.0767H37.3958L38.176 35.2036H39.7063L40.4875 42.0767ZM46.7385 36.1011H45.8518V42.0767H44.8303V36.1011H43.9338V35.2036H46.7385V36.1011ZM48.1956 37.8384H48.7659V35.2036H49.7874V42.0767H48.7659V38.7358H48.1956V42.0767H47.1741V35.2036H48.1956V37.8384ZM54.8547 35.2036C55.712 35.2036 56.1467 35.5796 56.1467 36.3521V37.3657C56.1467 38.0521 55.8276 38.3031 55.1448 38.3892L55.135 38.4087C55.9627 38.5145 56.1174 38.8718 56.1272 39.5483L56.1467 40.4653C56.1566 41.122 56.1956 41.6634 56.2717 42.0767H55.2502C55.1643 41.6511 55.1252 41.1982 55.1252 40.4751V39.4321C55.1252 39.0755 55.0093 38.8911 54.5549 38.8911H54.4983V42.0767H53.4768V35.2036H54.8547ZM57.7385 42.0767H56.717V35.2036H57.7385V42.0767ZM60.969 36.1011H60.0813V42.0767H59.0598V36.1011H58.1663V35.2036H60.969V36.1011ZM51.6418 35.8892C51.4503 35.8892 51.3255 35.9659 51.3254 36.2856V40.9966C51.3254 41.2377 51.3815 41.393 51.6418 41.3931C51.9022 41.3931 51.9514 41.2278 51.9514 40.9966V36.2856C51.9514 36.0052 51.8752 35.8892 51.6418 35.8892ZM38.6379 39.3169H39.1663L38.9553 36.4604H38.8889L38.6379 39.3169ZM54.4983 38.0522H54.6243C55.049 38.0522 55.1252 37.8872 55.1252 37.6265V36.3423C55.1252 36.1307 54.9998 36.0249 54.7395 36.0249H54.4983V38.0522ZM62.3323 35.2056H62.3293V35.2036L62.3323 35.2056ZM31.3655 26.4771C32.2052 26.4772 32.7061 26.9125 32.7063 27.606V29.1216H31.6848V27.6929C31.6848 27.3927 31.5983 27.2964 31.3772 27.2964C31.1563 27.2965 31.0579 27.4125 31.0579 27.6929V32.4038C31.0579 32.6447 31.1171 32.7992 31.3772 32.7993C31.6375 32.7993 31.6848 32.635 31.6848 32.4038V30.8882H32.7063V32.4927C32.7061 33.1787 32.215 33.6215 31.3655 33.6216C30.5158 33.6216 30.0337 33.1788 30.0334 32.4927V27.606C30.0336 26.9198 30.5256 26.4771 31.3655 26.4771ZM60.2561 26.4771C61.096 26.4771 61.5967 26.9124 61.5969 27.606V29.1216H60.5754V27.6929C60.5754 27.3927 60.4894 27.2964 60.2659 27.2964C60.0424 27.2964 59.9465 27.4125 59.9465 27.6929V32.4038C59.9466 32.6448 60.0056 32.7993 60.2659 32.7993C60.5262 32.7993 60.5754 32.635 60.5754 32.4038V30.8882H61.5969V32.4927C61.5967 33.1788 61.1058 33.6216 60.2561 33.6216C59.4064 33.6216 58.9253 33.1788 58.925 32.4927V27.606C58.9252 26.9198 59.4162 26.4771 60.2561 26.4771ZM10.1897 32.4038C10.1897 32.6447 10.2459 32.7993 10.5061 32.7993C10.7664 32.7993 10.8156 32.6349 10.8157 32.4038V26.6099H11.8372V32.4897C11.8371 33.1859 11.3462 33.6187 10.4963 33.6187C9.64651 33.6186 9.16533 33.1736 9.16528 32.4897V26.6099H10.1897V32.4038ZM7.48462 26.6099C8.20677 26.6099 8.64185 27.0749 8.64185 27.8179V28.8979C8.64182 29.4096 8.45695 29.6902 7.69556 29.855V29.8745C8.47664 30 8.6682 30.3468 8.66821 30.9077V32.0005C8.66808 33.0039 8.18717 33.4858 7.45532 33.4858H5.99829V26.6099H7.48462ZM18.1799 29.2476H18.7493V26.6099H19.7717V33.4858H18.7493V30.145H18.1799V33.4858H17.1575V26.6099H18.1799V29.2476ZM25.1536 26.6099C25.8755 26.61 26.3098 27.075 26.3098 27.8179V28.8979C26.3098 29.4096 26.1259 29.6902 25.3645 29.855V29.8745C26.1455 30 26.3371 30.3469 26.3372 30.9077V32.0005C26.337 33.0039 25.8556 33.4858 25.1213 33.4858H23.6643V26.6099H25.1536ZM40.7112 32.5884H42.0129V33.4858H39.6897V26.6099H40.7112V32.5884ZM49.3997 27.5083H48.1438V29.2739H49.3499V30.1743H48.1438V32.5884H49.4163V33.4858H47.1223V26.6099H49.3997V27.5083ZM52.1282 27.5083H50.8557V29.2739H52.0813V30.1743H50.8557V33.4858H49.8342V26.6099H52.1282V27.5083ZM54.8206 27.5083H53.5676V29.2739H54.7717V30.1743H53.5676V32.5884H54.8401V33.4858H52.5461V26.6099H54.8206V27.5083ZM64.3831 27.5083H63.1301V29.2739H64.3342V30.1743H63.1301V32.5884H64.4026V33.4858H62.1086V26.6099H64.3831V27.5083ZM5.60376 33.4839H4.57153L4.38013 31.6216H3.65845L3.43677 33.4839H2.51099L3.29224 26.6099H4.82251L5.60376 33.4839ZM15.2493 26.6099C16.2612 26.6099 16.6467 27.0357 16.6467 28.1157V32.2681C16.6467 32.9545 16.1455 33.4839 15.4602 33.4839H13.9768V26.6069H15.2493V26.6099ZM23.2737 33.4839H22.2424L22.0481 31.6216H21.3264L21.1047 33.4839H20.179L20.9602 26.6099H22.4934L23.2737 33.4839ZM27.8674 33.4839H26.8459V26.6099H27.8674V33.4839ZM34.2346 33.4839H33.2122V26.6099H34.2346V33.4839ZM39.1663 33.4839H38.1448V26.6099H39.1663V33.4839ZM45.2141 26.6099C46.2259 26.6099 46.6116 27.0358 46.6116 28.1157V32.2681C46.6116 32.9545 46.1104 33.4839 45.425 33.4839H43.9417V26.6069H45.2141V26.6099ZM57.2522 29.6606C57.348 30.3273 57.4635 31.2746 57.5618 32.48H57.6008C57.6008 31.1195 57.5715 30.7132 57.5715 30.2212V26.6099H58.4114V33.4839H56.8987L56.4465 30.2485C56.3606 29.6015 56.2717 29.1188 56.1096 27.6206H56.0706C56.0706 27.7657 56.0998 28.076 56.0999 28.5581V33.4839H55.2629V26.6099H56.7903L57.2522 29.6606ZM35.6438 26.6099L35.9534 29.3901C36.0025 29.8162 36.1454 31.7652 36.1946 32.1792H36.2141C36.2338 31.687 36.3396 30.4798 36.4182 29.7075L36.7278 26.6069H37.7493L36.9387 33.481H35.3958L34.6252 26.6069H35.6467L35.6438 26.6099ZM7.02075 32.6646H7.21216C7.52155 32.6645 7.64668 32.5389 7.64673 32.1528V30.7827C7.64673 30.4752 7.55095 30.2808 7.24146 30.2808H7.02075V32.6646ZM14.9983 32.6646H15.2493C15.4605 32.6645 15.6252 32.6249 15.6252 32.1821V27.9038C15.6252 27.498 15.49 27.4312 15.2395 27.4312H14.9983V32.6646ZM24.6887 32.6646H24.8801C25.1896 32.6646 25.3156 32.5389 25.3157 32.1528V30.7827C25.3157 30.4753 25.2196 30.2809 24.9104 30.2808H24.6887V32.6646ZM44.9631 32.6646H45.2141C45.4252 32.6645 45.5901 32.6247 45.5901 32.1821V27.9038C45.5901 27.4981 45.4547 27.4312 45.2043 27.4312H44.9631V32.6646ZM3.75415 30.7231H4.28442L4.07349 27.8647H4.00415L3.75415 30.7231ZM21.427 30.7231H21.9553L21.7434 27.8647H21.678L21.427 30.7231ZM7.02075 29.4585H7.25122C7.51159 29.4585 7.61743 29.3526 7.61743 28.9663V27.9829C7.61743 27.4909 7.52141 27.395 7.25122 27.395H7.02075V29.4585ZM24.6887 29.4585H24.9202C25.1803 29.4584 25.2854 29.3524 25.2854 28.9663V27.9829C25.2854 27.4911 25.1901 27.3951 24.9202 27.395H24.6887V29.4585ZM12.2571 24.6079C12.5125 24.6079 12.6135 24.7849 12.6135 25.0728C12.6134 25.3604 12.5173 25.5376 12.2571 25.5376C11.9971 25.5374 11.9017 25.3602 11.9016 25.0728C11.9016 24.7851 11.997 24.6081 12.2571 24.6079ZM13.1633 24.6079C13.4163 24.6079 13.5129 24.7849 13.5129 25.0728C13.5129 25.3604 13.4236 25.5376 13.1633 25.5376C12.9034 25.5374 12.8079 25.3602 12.8079 25.0728C12.8079 24.7851 12.9033 24.6081 13.1633 24.6079ZM40.9055 24.6079C41.161 24.6079 41.262 24.7849 41.262 25.0728C41.2619 25.3604 41.1658 25.5376 40.9055 25.5376C40.6453 25.5376 40.5492 25.3604 40.5491 25.0728C40.5491 24.7849 40.6452 24.6079 40.9055 24.6079ZM41.8118 24.6079C42.0648 24.6079 42.1604 24.7849 42.1604 25.0728C42.1603 25.3604 42.072 25.5376 41.8118 25.5376C41.5515 25.5376 41.4554 25.3604 41.4553 25.0728C41.4553 24.7849 41.5514 24.6079 41.8118 24.6079ZM43.3098 23.813C43.5653 23.813 43.6663 23.9973 43.6663 24.2827C43.6662 24.568 43.5701 24.7524 43.3098 24.7524C43.0497 24.7523 42.9495 24.5679 42.9495 24.2827C42.9495 23.9975 43.0497 23.8131 43.3098 23.813ZM51.4797 23.813C51.7352 23.813 51.8362 23.9973 51.8362 24.2827C51.8361 24.568 51.7376 24.7524 51.4797 24.7524C51.2219 24.7524 51.1185 24.5679 51.1184 24.2827C51.1184 23.9974 51.2194 23.813 51.4797 23.813ZM59.1389 23.813C59.3941 23.8132 59.4944 23.9901 59.4944 24.2778C59.4943 24.5654 59.3989 24.7425 59.1389 24.7427C58.8786 24.7427 58.7825 24.5655 58.7825 24.2778C58.7825 23.99 58.8785 23.813 59.1389 23.813ZM60.0471 23.813C60.3001 23.813 60.3958 23.99 60.3958 24.2778C60.3957 24.5655 60.3074 24.7427 60.0471 24.7427C59.787 24.7425 59.6917 24.5654 59.6917 24.2778C59.6917 23.9901 59.787 23.8131 60.0471 23.813ZM28.0862 19.4487C28.3661 19.4488 28.6829 19.5393 29.0315 19.7163L28.7395 20.4106C28.5307 20.3147 28.3509 20.2632 28.1741 20.2632C27.9016 20.2633 27.7424 20.4477 27.7424 20.7847L27.7444 20.7866V22.3638H29.0706V23.1704H27.6682C27.2851 23.1704 27.0637 23.3233 27.0637 23.7046V24.5708H26.2581V23.5522C26.2581 22.9864 26.4873 22.6174 26.9368 22.4575V20.644C26.9368 19.8986 27.3689 19.4487 28.0862 19.4487ZM52.0793 23.1685H50.4846C50.4649 24.1104 50.0086 24.5677 49.0559 24.5679C48.8275 24.5679 48.5618 24.5434 48.3899 24.4917L48.2297 23.6206C48.5341 23.7239 48.8071 23.7807 49.0354 23.7808C49.4628 23.7808 49.6848 23.6159 49.6848 23.2026V23.1704H49.5198C48.6502 23.1704 48.1936 22.7375 48.1936 21.8149V20.9634C48.1937 19.9969 48.6185 19.5835 49.5198 19.5835H50.4846V22.3638H51.2708L51.2737 22.3608V19.5767H52.0793V23.1685ZM45.7981 19.5835L46.5569 19.5864C47.333 19.5864 47.7384 19.9551 47.7385 20.6733V23.1733H44.4895C43.7846 23.1733 43.2835 22.7278 43.2834 22.0415V20.396H42.9543C42.6105 20.396 42.4329 20.585 42.4329 20.9663V23.9673H40.9026C40.0972 23.9672 39.6653 23.5347 39.6653 22.7329V20.73H40.4709V22.6001C40.471 22.9762 40.6548 23.1605 41.0745 23.1606H41.6272V20.7622C41.6272 19.9726 42.0351 19.5788 42.8528 19.5786H43.2854V19.0698H44.0989V21.8843C44.099 22.1965 44.2632 22.3608 44.4915 22.3608H44.9924V18.0112H45.7981V19.5835ZM15.2737 22.3638H16.0598V19.5767H16.8655V23.1733H14.4612V20.3931H14.2639C13.9522 20.3932 13.7874 20.5703 13.7874 20.9194V23.9653H12.2571C11.4516 23.9652 11.0198 23.5319 11.0198 22.73V20.728H11.8254V22.5972C11.8254 22.9735 12.0092 23.1586 12.429 23.1587H12.9817V20.7593C12.9818 19.97 13.3897 19.5768 14.2073 19.5767H15.2737V22.3638ZM24.0061 23.1704H22.2034C22.0511 23.6354 21.7139 23.8496 21.1809 23.8569H21.1741C20.6288 23.8569 20.2869 23.6403 20.1272 23.1704H17.1829V22.3638H18.3323V20.8384C18.3323 20.5333 18.1649 20.3853 17.8997 20.3853H17.6516V19.5786H17.9563C18.7373 19.5787 19.1379 19.9531 19.1379 20.6665V22.3638H20.0198V21.0991C20.0198 20.0561 20.3807 19.5786 21.1741 19.5786H21.1809C21.9546 19.5786 22.3108 20.0634 22.3108 21.0991V22.3638H23.2004V18.0112H24.0061V23.1704ZM62.4641 18.8579C63.6258 18.8579 64.3995 19.6474 64.3997 20.8354V23.1704H55.5891C54.7123 23.1703 54.2629 22.7374 54.2629 21.8149V20.9634C54.263 19.9969 54.6879 19.5836 55.5891 19.5835H55.7415V19.2544H56.5471V22.3608H57.3333V19.5767H58.1389V22.3608H59.1809V19.5767H59.9866V22.3608H60.6321V22.354H61.1477V21.1216C61.1477 20.5312 61.5655 20.1421 62.177 20.1421C62.7886 20.1421 63.1936 20.5235 63.1936 21.0894V22.354H63.6633V20.8853C63.6633 20.1226 63.1176 19.6128 62.2922 19.6128C62 19.6129 61.5998 19.7218 61.175 19.9136L60.9338 19.2593C61.5182 18.9986 62.0515 18.858 62.4641 18.8579ZM25.4358 23.1685H24.6301V18.0112H25.4358V23.1685ZM30.3333 22.3608H31.1633C31.1192 22.2035 31.095 22.0238 31.095 21.8149V20.9644C31.095 19.9976 31.5198 19.5836 32.4211 19.5835H33.387V23.1685H29.5276V18.0112H30.3333V22.3608ZM37.2532 22.3638H38.0383L38.0413 22.3608V18.0112H38.8469V23.1685H33.7063V22.3608H34.8557V20.8364C34.8557 20.5314 34.6908 20.3833 34.4231 20.3833H34.175V19.5767H34.4797C35.2607 19.5767 35.6613 19.9503 35.6614 20.6636V22.3608H36.4475V18.0112H37.2532V22.3638ZM53.4426 23.1685H52.637V18.0112H53.4426V23.1685ZM21.1663 20.3804C20.9307 20.3805 20.8304 20.5581 20.8303 20.9907V22.4526C20.8304 22.8731 20.9334 23.0503 21.1741 23.0503H21.1809C21.4093 23.0503 21.5051 22.8731 21.5051 22.4526H21.5032V20.9907C21.5031 20.558 21.4023 20.3805 21.1741 20.3804H21.1663ZM32.3821 20.396C32.0186 20.396 31.9055 20.5727 31.9055 20.9663V21.8179C31.9056 22.1719 32.0702 22.3638 32.3821 22.3638H32.5784V20.396H32.3821ZM45.7981 22.3638H46.928V20.8384C46.928 20.5409 46.7638 20.3932 46.4963 20.3931H45.7981V22.3638ZM49.4807 20.396C49.1172 20.396 49.0042 20.5727 49.0042 20.9663V21.8179C49.0043 22.1719 49.1689 22.3638 49.4807 22.3638H49.677V20.396H49.4807ZM55.55 20.3931C55.189 20.3931 55.0686 20.5727 55.0686 20.9663V21.8179C55.0687 22.1719 55.2333 22.3638 55.55 22.3638H55.7415V20.3931H55.55ZM62.1799 20.7866C61.9835 20.7866 61.8753 20.9317 61.8752 21.2563V22.356H62.4641V21.2563C62.4641 20.9344 62.3639 20.7868 62.1799 20.7866ZM58.0774 18.4819H57.8372C57.7364 18.4819 57.6848 18.5262 57.6848 18.6099V18.686H58.2219V19.1313H57.2375V18.6099C57.2375 18.2605 57.4736 18.0366 57.9182 18.0366H58.0774V18.4819ZM46.7395 17.9702C46.9947 17.9704 47.095 18.1547 47.095 18.4399C47.0949 18.7251 46.9922 18.9095 46.7395 18.9097C46.4792 18.9097 46.3782 18.7252 46.3782 18.4399C46.3782 18.1546 46.484 17.9702 46.7395 17.9702ZM16.4573 17.9624C16.7127 17.9624 16.8137 18.1469 16.8137 18.4321C16.8137 18.7175 16.7103 18.9019 16.4573 18.9019C16.1997 18.9016 16.0969 18.7173 16.0969 18.4321C16.097 18.147 16.2022 17.9626 16.4573 17.9624ZM32.426 17.9624C32.6814 17.9624 32.7824 18.1469 32.7825 18.4321C32.7825 18.7175 32.679 18.9019 32.426 18.9019C32.1658 18.9018 32.0647 18.7174 32.0647 18.4321C32.0648 18.147 32.1708 17.9625 32.426 17.9624ZM55.1516 17.7876C55.4045 17.7876 55.508 17.9648 55.5081 18.2524C55.5081 18.5403 55.4046 18.7173 55.1516 18.7173C54.8916 18.7171 54.7961 18.5401 54.7961 18.2524C54.7962 17.965 54.899 17.7878 55.1516 17.7876ZM56.0608 17.7876C56.3137 17.7876 56.4093 17.9648 56.4094 18.2524C56.4094 18.5403 56.3138 18.7173 56.0608 18.7173C55.8005 18.7172 55.7043 18.5402 55.7043 18.2524C55.7044 17.9649 55.808 17.7877 56.0608 17.7876Z" fill="black"/>
</svg>
