<svg width="300" height="150" viewBox="0 0 300 150" fill="none" xmlns="http://www.w3.org/2000/svg">
<path d="M103.144 102.467C103.144 103.074 103.286 103.465 103.942 103.465C104.598 103.465 104.722 103.049 104.722 102.467V87.877H107.296V102.689C107.296 104.437 106.058 105.535 103.917 105.535C101.776 105.535 100.563 104.412 100.563 102.689V87.877H103.144V102.467ZM127.755 87.5361C129.871 87.5362 131.134 88.633 131.134 90.3809V102.69C131.134 104.419 129.896 105.535 127.755 105.535C125.614 105.535 124.401 104.413 124.4 102.69V90.3809C124.4 88.6516 125.638 87.5361 127.755 87.5361ZM157.286 98.6055V105.2H154.712V98.7295L152.062 87.8828H154.706C156.066 93.6398 155.677 92.1606 156.116 95.3887H156.166C156.265 93.8086 156.382 92.7611 156.506 92.2031C156.63 91.6453 156.964 90.1824 157.527 87.877H159.935L157.286 98.6055ZM205.512 74.9102L235.383 105.2H216.106L185.864 74.9102L216.149 44.5771H235.427L205.512 74.9102ZM295.999 74.8662L265.713 105.2H246.442L276.351 74.8662L246.485 44.5771H265.756L295.999 74.8662ZM99.6777 105.194H97.0791L96.5967 100.502H94.7773L94.2197 105.194H91.8867L93.8545 87.877H97.71L99.6777 105.194ZM115.428 90.1387H113.193V105.194H110.619V90.1387H108.36V87.877H115.428V90.1387ZM119.098 94.5146H120.533V87.877H123.107V105.194H120.533V96.7773H119.098V105.194H116.522V87.877H119.098V94.5146ZM135.874 87.877C138.034 87.877 139.129 88.8246 139.129 90.7705V93.3242C139.129 95.0535 138.325 95.6864 136.604 95.9033L136.58 95.9521C138.665 96.2187 139.055 97.1179 139.08 98.8223L139.129 101.134C139.154 102.789 139.253 104.153 139.445 105.194H136.87C136.654 104.122 136.555 102.981 136.555 101.159V98.5312C136.555 97.6325 136.264 97.167 135.119 97.167H134.977V105.194H132.402V87.877H135.874ZM143.14 105.194H140.565V87.877H143.14V105.194ZM151.277 90.1387H149.043V105.194H146.469V90.1387H144.216V87.877H151.277V90.1387ZM127.779 89.6055C127.297 89.6055 126.982 89.7981 126.981 90.6035V102.473C126.981 103.08 127.124 103.471 127.779 103.471C128.435 103.471 128.56 103.055 128.56 102.473V90.6035C128.56 89.8971 128.367 89.6055 127.779 89.6055ZM95.0186 98.2393H96.3486L95.8164 91.0439H95.6494L95.0186 98.2393ZM134.977 95.0537H135.292C136.363 95.0537 136.555 94.6384 136.555 93.9814V90.7461C136.555 90.2131 136.239 89.9463 135.583 89.9463H134.977V95.0537ZM154.712 87.8828H154.706C154.706 87.8809 154.706 87.8789 154.705 87.877L154.712 87.8828ZM76.6943 65.8916C78.8108 65.8916 80.0732 66.9894 80.0732 68.7373V72.5547H77.499V68.9541C77.499 68.1979 77.2825 67.9561 76.7256 67.9561C76.1687 67.9561 75.9209 68.2476 75.9209 68.9541V80.8232C75.9209 81.4305 76.0698 81.8212 76.7256 81.8213C77.3815 81.8213 77.499 81.4058 77.499 80.8232V77.0049H80.0732V81.0459C80.0732 82.7752 78.8355 83.8916 76.6943 83.8916C74.5534 83.8914 73.3408 82.775 73.3408 81.0459V68.7373C73.3408 67.0082 74.5782 65.8918 76.6943 65.8916ZM149.482 65.8916C151.599 65.8917 152.861 66.9895 152.861 68.7373V72.5547H150.286V68.9541C150.286 68.1979 150.07 67.9561 149.507 67.9561C148.944 67.9561 148.702 68.2475 148.702 68.9541V80.8232C148.702 81.4306 148.851 81.8213 149.507 81.8213C150.163 81.8213 150.286 81.4058 150.286 80.8232V77.0049H152.861V81.0459C152.861 82.7751 151.623 83.8915 149.482 83.8916C147.341 83.8916 146.128 82.7752 146.128 81.0459V68.7373C146.128 67.008 147.366 65.8916 149.482 65.8916ZM23.3447 80.8232C23.3447 81.4305 23.487 81.8211 24.1426 81.8213C24.7985 81.8213 24.9228 81.4058 24.9229 80.8232V66.2266H27.4971V81.04C27.4971 82.7941 26.2593 83.8848 24.1182 83.8848C21.977 83.8847 20.7646 82.7631 20.7646 81.04V66.2266H23.3447V80.8232ZM16.5312 66.2266C18.3503 66.2267 19.4451 67.3981 19.4453 69.2695V71.9912C19.4452 73.2802 18.9815 73.9871 17.0635 74.4023V74.4512C19.0311 74.7673 19.5137 75.6416 19.5137 77.0547V79.8066C19.5137 82.3353 18.301 83.5506 16.457 83.5508H12.7871V66.2266H16.5312ZM43.4756 72.8711H44.9111V66.2266H47.4854V83.5508H44.9111V75.1338H43.4756V83.5508H40.9004V66.2266H43.4756V72.8711ZM61.0439 66.2266C62.8632 66.2266 63.9588 67.398 63.959 69.2695V71.9912C63.9589 73.2802 63.4944 73.9871 61.5762 74.4023V74.4512C63.5441 74.7673 64.0273 75.6416 64.0273 77.0547V79.8066C64.0273 82.3355 62.8142 83.5508 60.9639 83.5508H57.2939V66.2266H61.0439ZM100.241 81.2881H103.521V83.5508H97.667V66.2266H100.241V81.2881ZM122.13 68.4893H118.968V72.9395H122.006V75.208H118.968V81.2881H122.173V83.5508H116.393V66.2266H122.13V68.4893ZM129.005 68.4893H125.8V72.9395H128.888V75.208H125.8V83.5508H123.225V66.2266H129.005V68.4893ZM135.787 68.4893H132.631V72.9395H135.664V75.208H132.631V81.2881H135.837V83.5508H130.057V66.2266H135.787V68.4893ZM159.879 68.4893H156.723V72.9395H159.755V75.208H156.723V81.2881H159.929V83.5508H154.148V66.2266H159.879V68.4893ZM11.791 83.5439H9.19141L8.70898 78.8525H6.88965L6.33301 83.5439H4L5.96777 66.2266H9.82324L11.791 83.5439ZM36.0928 66.2266C38.6421 66.2267 39.6132 67.2988 39.6133 70.0195V80.4824C39.6131 82.2114 38.3513 83.5438 36.625 83.5439H32.8867V66.2207H36.0928V66.2266ZM56.3105 83.5439H53.7109L53.2227 78.8525H51.4033L50.8457 83.5439H48.5127L50.4805 66.2266H54.3428L56.3105 83.5439ZM67.8818 83.5439H65.3076V66.2266H67.8818V83.5439ZM83.9229 83.5439H81.3486V66.2266H83.9229V83.5439ZM96.3486 83.5439H93.7744V66.2266H96.3486V83.5439ZM111.585 66.2266C114.134 66.2267 115.105 67.2988 115.105 70.0195V80.4824C115.105 82.2114 113.843 83.5438 112.117 83.5439H108.379V66.2207H111.585V66.2266ZM141.914 73.9121C142.155 75.5918 142.446 77.9786 142.693 81.0156H142.793C142.793 77.5881 142.719 76.5648 142.719 75.3252V66.2266H144.835V83.5439H141.022L139.884 75.3936C139.667 73.7636 139.445 72.5487 139.036 68.7744H138.938C138.938 69.1402 139.012 69.9213 139.012 71.1357V83.5439H136.901V66.2266H140.751L141.914 73.9121ZM87.4746 66.2266L88.2549 73.2305C88.3787 74.3031 88.7376 79.2174 88.8613 80.2588H88.9111C88.9606 79.0192 89.2268 75.9764 89.4248 74.0303L90.2041 66.2207H92.7783L90.7363 83.5381H86.8496L84.9072 66.2207H87.4814L87.4746 66.2266ZM15.3613 81.4805H15.8438C16.6234 81.4805 16.9394 81.1642 16.9395 80.1914V76.7383C16.9394 75.9637 16.6976 75.4746 15.918 75.4746H15.3613V81.4805ZM59.875 81.4805H60.3574C61.137 81.4805 61.453 81.1642 61.4531 80.1914V76.7383C61.4531 75.9637 61.2113 75.4746 60.4316 75.4746H59.875V81.4805ZM35.4609 81.4795H36.0928C36.6248 81.4795 37.0391 81.3801 37.0391 80.2646V69.4863C37.039 68.4639 36.6985 68.2969 36.0674 68.2969H35.4609V81.4795ZM110.953 81.4795H111.585C112.117 81.4795 112.531 81.3801 112.531 80.2646V69.4863C112.531 68.4639 112.191 68.2969 111.56 68.2969H110.953V81.4795ZM7.13086 76.5898H8.46777L7.93555 69.3877H7.7627L7.13086 76.5898ZM51.6562 76.5898H52.9873L52.4551 69.3877H52.2881L51.6562 76.5898ZM15.3613 73.4043H15.9434C16.5991 73.4042 16.8652 73.137 16.8652 72.1641V69.6855C16.8652 68.4461 16.6238 68.2042 15.9434 68.2041H15.3613V73.4043ZM59.875 73.4043H60.4561C61.112 73.4043 61.3789 73.1372 61.3789 72.1641V69.6855C61.3789 68.4459 61.1368 68.2041 60.4561 68.2041H59.875V73.4043ZM28.5557 61.1816C29.1988 61.1818 29.452 61.6278 29.4521 62.3525C29.4521 63.0776 29.2113 63.5242 28.5557 63.5244C27.8997 63.5244 27.6582 63.0777 27.6582 62.3525C27.6583 61.6276 27.8998 61.1816 28.5557 61.1816ZM30.8389 61.1816C31.4759 61.1818 31.7167 61.6278 31.7168 62.3525C31.7168 63.0776 31.4946 63.5243 30.8389 63.5244C30.1829 63.5244 29.9414 63.0777 29.9414 62.3525C29.9415 61.6276 30.183 61.1816 30.8389 61.1816ZM100.73 61.1816C101.374 61.1816 101.628 61.6276 101.628 62.3525C101.628 63.0777 101.386 63.5244 100.73 63.5244C100.075 63.5244 99.833 63.0777 99.833 62.3525C99.8331 61.6276 100.075 61.1816 100.73 61.1816ZM103.014 61.1816C103.651 61.1816 103.892 61.6276 103.893 62.3525C103.893 63.0777 103.67 63.5244 103.014 63.5244C102.358 63.5244 102.116 63.0777 102.116 62.3525C102.116 61.6277 102.358 61.1817 103.014 61.1816ZM106.789 59.1787C107.432 59.1789 107.686 59.6444 107.686 60.3633C107.685 61.082 107.445 61.5467 106.789 61.5469C106.133 61.5469 105.879 61.0821 105.879 60.3633C105.879 59.6443 106.133 59.1787 106.789 59.1787ZM127.371 59.1787C128.015 59.1787 128.269 59.6443 128.269 60.3633C128.268 61.0821 128.021 61.5469 127.371 61.5469C126.721 61.5468 126.462 61.082 126.462 60.3633C126.462 59.6444 126.715 59.1788 127.371 59.1787ZM146.666 59.1787C147.31 59.1787 147.563 59.6254 147.563 60.3506C147.563 61.0758 147.322 61.5225 146.666 61.5225C146.01 61.5223 145.77 61.0756 145.77 60.3506C145.77 59.6256 146.01 59.1789 146.666 59.1787ZM148.956 59.1787C149.593 59.1787 149.835 59.6254 149.835 60.3506C149.835 61.0758 149.612 61.5225 148.956 61.5225C148.3 61.5224 148.059 61.0757 148.059 60.3506C148.059 59.6255 148.3 59.1788 148.956 59.1787ZM68.4326 48.1836C69.138 48.1836 69.9368 48.4132 70.8154 48.8594L70.0791 50.6074C69.5533 50.3658 69.1017 50.2354 68.6562 50.2354C67.9693 50.2354 67.5664 50.7007 67.5664 51.5498L67.5732 51.5557V55.5283H70.915V57.5615H67.3809C66.4157 57.5616 65.8586 57.9459 65.8584 58.9062V61.0889H63.8291V58.5225C63.8291 57.0969 64.4046 56.1675 65.5371 55.7646V51.1963C65.5371 49.3184 66.6259 48.1838 68.4326 48.1836ZM128.882 57.5557H124.865C124.816 59.9294 123.665 61.082 121.264 61.082C120.688 61.082 120.02 61.0207 119.587 60.8906L119.185 58.6963C119.952 58.9565 120.638 59.0986 121.214 59.0986C122.291 59.0986 122.848 58.6837 122.848 57.6426V57.5615H122.434C120.243 57.5615 119.092 56.4708 119.092 54.1465V52.002C119.092 49.5662 120.163 48.5254 122.434 48.5254H124.865V55.5293H126.846L126.852 55.5225V48.5068H128.882V57.5557ZM113.058 48.5244L114.97 48.5312C116.925 48.5313 117.946 49.4608 117.946 51.2705V57.5674H109.759C107.983 57.5673 106.721 56.446 106.721 54.7168V50.5703H105.892C105.025 50.5703 104.579 51.0473 104.579 52.0078V59.5693H100.724C98.694 59.5692 97.6045 58.4785 97.6045 56.458V51.4131H99.6348V56.124C99.6349 57.0721 100.099 57.5371 101.157 57.5371H102.55V51.4941C102.55 49.5046 103.577 48.5127 105.638 48.5127H106.727V47.2295H108.775V54.3203C108.775 55.1071 109.189 55.5222 109.765 55.5225H111.027V44.5645H113.058V48.5244ZM36.1543 55.5293H38.1348V48.5068H40.1641V57.5684H34.1064V50.5645H33.6113C32.8254 50.5645 32.4102 51.0105 32.4102 51.8906V59.5635H28.5547C26.5252 59.5633 25.4365 58.4726 25.4365 56.4521V51.4072H27.4658V56.1172C27.4658 57.0655 27.9301 57.5312 28.9883 57.5312H30.3809V51.4873C30.381 49.498 31.4081 48.5068 33.4688 48.5068H36.1543V55.5293ZM58.1543 57.5615H53.6123C53.2286 58.733 52.38 59.2724 51.0371 59.291H51.0186C49.645 59.2909 48.785 58.7452 48.3828 57.5615H40.9629V55.5283H43.8594V51.6855C43.8593 50.9172 43.4378 50.5459 42.7695 50.5459H42.1445V48.5127H42.9121C44.88 48.5127 45.8887 49.4545 45.8887 51.252V55.5283H48.1104V52.3428C48.1104 49.715 49.02 48.5128 51.0186 48.5127H51.0371C52.9864 48.5127 53.8838 49.7334 53.8838 52.3428V55.5283H56.124V44.5645H58.1543V57.5615ZM155.046 46.6963C157.973 46.6964 159.922 48.6861 159.922 51.6797V57.5615H137.725C135.515 57.5615 134.383 56.4708 134.383 54.1465V52.002C134.383 49.5661 135.453 48.5244 137.725 48.5244H138.108V47.6943H140.138V55.5225H142.118V48.5059H144.148V55.5225H146.771V48.5059H148.802V55.5225H150.429V55.5039H151.729V52.3984C151.729 50.9111 152.781 49.9318 154.321 49.9316C155.862 49.9316 156.884 50.8928 156.884 52.3184V55.5039H158.065V51.8037C158.065 49.8823 156.692 48.5996 154.612 48.5996C153.876 48.5997 152.867 48.8721 151.797 49.3555L151.19 47.707C152.663 47.05 154.006 46.6963 155.046 46.6963ZM61.7559 57.5557H59.7256V44.5645H61.7559V57.5557ZM74.0957 55.5225H76.1875C76.0761 55.1258 76.0137 54.6733 76.0137 54.1465V52.002C76.0137 49.5662 77.0845 48.5245 79.3555 48.5244H81.7881V57.5557H72.0654V44.5645H74.0957V55.5225ZM91.5283 55.5283H93.5078L93.5146 55.5225V44.5645H95.5439V57.5557H82.5918V55.5225H85.4883V51.6797C85.4883 50.9111 85.073 50.5391 84.3984 50.5391H83.7734V48.5059H84.541C86.5089 48.5059 87.5176 49.4487 87.5176 51.2461V55.5225H89.498V44.5645H91.5283V55.5283ZM132.315 57.5557H130.286V44.5645H132.315V57.5557ZM51 50.5332C50.4062 50.5334 50.1523 50.9797 50.1523 52.0703V55.752C50.1524 56.8115 50.4124 57.2576 51.0186 57.2578H51.0371C51.6126 57.2578 51.8545 56.8117 51.8545 55.752H51.8486V52.0703C51.8486 50.9795 51.5941 50.5332 51.0186 50.5332H51ZM122.334 50.5703C121.418 50.5704 121.134 51.0171 121.134 52.0088V54.1533C121.134 55.0455 121.548 55.5292 122.334 55.5293H122.829V50.5703H122.334ZM79.2568 50.5703C78.3411 50.5703 78.0557 51.0164 78.0557 52.0078V54.1523C78.0557 55.0449 78.4709 55.5283 79.2568 55.5283H79.752V50.5703H79.2568ZM113.058 55.5283H115.904V51.6855C115.904 50.9358 115.489 50.5645 114.814 50.5645H113.058V55.5283ZM137.625 50.5645C136.716 50.5646 136.412 51.0165 136.412 52.0078V54.1523C136.412 55.0447 136.827 55.5281 137.625 55.5283H138.108V50.5645H137.625ZM154.328 51.5557C153.833 51.5557 153.561 51.9213 153.561 52.7393V55.5098H155.046V52.7393C155.046 51.9276 154.792 51.5558 154.328 51.5557ZM143.993 45.748H143.387C143.133 45.748 143.003 45.8596 143.003 46.0703V46.2627H144.358V47.3848H141.877V46.0703C141.877 45.1902 142.471 44.626 143.591 44.626H143.993V45.748ZM115.428 44.459C116.071 44.459 116.325 44.9237 116.325 45.6426C116.325 46.3616 116.065 46.8262 115.428 46.8262C114.772 46.8261 114.519 46.3615 114.519 45.6426C114.519 44.9237 114.784 44.459 115.428 44.459ZM39.1367 44.4404C39.7803 44.4404 40.0342 44.9051 40.0342 45.624C40.0342 46.343 39.7741 46.8076 39.1367 46.8076C38.4872 46.8074 38.2275 46.3428 38.2275 45.624C38.2276 44.9053 38.4935 44.4406 39.1367 44.4404ZM79.3682 44.4404C80.0116 44.4405 80.2656 44.9052 80.2656 45.624C80.2656 46.3429 80.0054 46.8075 79.3682 46.8076C78.7122 46.8076 78.458 46.343 78.458 45.624C78.458 44.9051 78.7246 44.4404 79.3682 44.4404ZM136.623 44C137.26 44.0001 137.521 44.4468 137.521 45.1719C137.52 45.897 137.26 46.3427 136.623 46.3428C135.967 46.3428 135.726 45.897 135.726 45.1719C135.726 44.4467 135.986 44 136.623 44ZM138.913 44C139.55 44.0002 139.791 44.4469 139.791 45.1719C139.791 45.8968 139.55 46.3426 138.913 46.3428C138.257 46.3428 138.016 45.897 138.016 45.1719C138.016 44.4467 138.276 44 138.913 44Z" fill="black"/>
</svg>
