<svg width="190" height="100" viewBox="0 0 190 100" fill="none" xmlns="http://www.w3.org/2000/svg">
<path d="M67.7207 66.0391C67.7207 66.3925 67.8039 66.62 68.1855 66.6201C68.5674 66.6201 68.6396 66.3782 68.6396 66.0391V57.5449H70.1387V66.1689C70.1386 67.1864 69.4174 67.8252 68.1709 67.8252C66.9246 67.8251 66.2188 67.1719 66.2188 66.1689V57.5449H67.7207V66.0391ZM82.0498 57.3457C83.2817 57.3459 84.0166 57.9855 84.0166 59.0029V66.1689C84.0166 67.1756 83.2961 67.825 82.0498 67.8252C80.8032 67.8252 80.0967 67.1721 80.0967 66.1689V59.0029C80.0967 57.9962 80.8176 57.3457 82.0498 57.3457ZM99.2422 63.791V67.6299H97.7432V63.8633L96.2012 57.5479H97.7412C98.5329 60.8997 98.3058 60.0386 98.5615 61.918H98.5898C98.6475 60.9981 98.7161 60.3883 98.7881 60.0635C98.8601 59.7387 99.055 58.8871 99.3828 57.5449H100.784L99.2422 63.791ZM127.319 49.9951L144.71 67.6299H133.487L115.88 49.9951L133.513 32.3359H144.735L127.319 49.9951ZM180 49.9697L162.367 67.6299H151.148L168.561 49.9697L151.174 32.3359H162.393L180 49.9697ZM65.7031 67.627H64.1904L63.9092 64.8945H62.8496L62.5254 67.627H61.167L62.3135 57.5449H64.5576L65.7031 67.627ZM74.8721 58.8613H73.5713V67.627H72.0732V58.8613H70.7578V57.5449H74.8721V58.8613ZM77.0088 61.4092H77.8447V57.5449H79.3438V67.627H77.8447V62.7266H77.0088V67.627H75.5098V57.5449H77.0088V61.4092ZM86.7764 57.5449C88.0336 57.5449 88.6708 58.0966 88.6709 59.2295V60.7168C88.6708 61.7232 88.2026 62.0915 87.2012 62.2178L87.1865 62.2461C88.4006 62.4013 88.6282 62.9247 88.6426 63.917L88.6709 65.2627C88.6853 66.2262 88.7438 67.0207 88.8555 67.627H87.3564C87.2303 67.0027 87.1729 66.3382 87.1729 65.2773V63.7471C87.1728 63.2242 87.0031 62.9542 86.3369 62.9541H86.2539V67.627H84.7549V57.5449H86.7764ZM91.0059 67.627H89.5068V57.5449H91.0059V67.627ZM95.7432 58.8613H94.4434V67.627H92.9443V58.8613H91.6328V57.5449H95.7432V58.8613ZM82.0635 58.5518C81.7826 58.5518 81.5986 58.6639 81.5986 59.1328V66.043C81.5987 66.3963 81.6819 66.6239 82.0635 66.624C82.4452 66.624 82.5175 66.382 82.5176 66.043V59.1328C82.5176 58.7214 82.4057 58.5518 82.0635 58.5518ZM62.9902 63.5781H63.7646L63.4551 59.3887H63.3574L62.9902 63.5781ZM86.2539 61.7227H86.4375C87.0608 61.7227 87.1729 61.4811 87.1729 61.0986V59.2148C87.1727 58.9049 86.9888 58.7501 86.6074 58.75H86.2539V61.7227ZM97.7432 57.5479H97.7412C97.741 57.5469 97.7405 57.5459 97.7402 57.5449L97.7432 57.5479ZM52.3223 44.7451C53.5544 44.7451 54.29 45.3838 54.29 46.4014V48.624H52.791V46.5273C52.7909 46.0876 52.6647 45.9464 52.3408 45.9463C52.0167 45.9463 51.8722 46.1163 51.8721 46.5273V53.4375C51.8721 53.7911 51.9589 54.0186 52.3408 54.0186C52.7224 54.0184 52.791 53.7766 52.791 53.4375V51.2148H54.29V53.5684C54.2898 54.5749 53.5687 55.2246 52.3223 55.2246C51.076 55.2245 50.3703 54.5748 50.3701 53.5684V46.4014C50.3702 45.3947 51.0903 44.7452 52.3223 44.7451ZM94.6982 44.7451C95.9304 44.7451 96.666 45.3838 96.666 46.4014V48.624H95.167V46.5273C95.1669 46.0874 95.0407 45.9463 94.7129 45.9463C94.3853 45.9463 94.2452 46.1163 94.2451 46.5273V53.4375C94.2451 53.7911 94.3311 54.0185 94.7129 54.0186C95.0948 54.0186 95.167 53.7767 95.167 53.4375V51.2148H96.666V53.5684C96.6658 54.5749 95.9446 55.2246 94.6982 55.2246C93.4521 55.2245 92.7463 54.5747 92.7461 53.5684V46.4014C92.7461 45.3948 93.4663 44.7453 94.6982 44.7451ZM21.2627 53.4385C21.2627 53.7921 21.3457 54.0195 21.7275 54.0195C22.109 54.0194 22.1807 53.7775 22.1807 53.4385V44.9404H23.6797V53.5645C23.6797 54.5856 22.9594 55.2206 21.7129 55.2207C20.4663 55.2207 19.7598 54.5676 19.7598 53.5645V44.9404H21.2627V53.4385ZM17.2949 44.9404C18.3541 44.9404 18.9921 45.6223 18.9922 46.7119V48.2959C18.9922 49.0464 18.7222 49.4584 17.6055 49.7002V49.7285C18.7509 49.9125 19.0322 50.4216 19.0322 51.2441V52.8467C19.0322 54.3189 18.3256 55.0264 17.252 55.0264H15.1152V44.9404H17.2949ZM32.9824 48.8086H33.8184V44.9404H35.3174V55.0264H33.8184V50.126H32.9824V55.0264H31.4834V44.9404H32.9824V48.8086ZM43.2109 44.9404C44.27 44.9405 44.9071 45.6224 44.9072 46.7119V48.2959C44.9072 49.0465 44.6374 49.4584 43.5205 49.7002V49.7285C44.6661 49.9125 44.9472 50.4216 44.9473 51.2441V52.8467C44.9472 54.3188 44.2412 55.0263 43.1641 55.0264H41.0273V44.9404H43.2109ZM66.0312 53.709H67.9404V55.0264H64.5322V44.9404H66.0312V53.709ZM78.7744 46.2578H76.9336V48.8486H78.7021V50.1689H76.9336V53.709H78.7998V55.0264H75.4346V44.9404H78.7744V46.2578ZM82.7773 46.2578H80.9111V48.8486H82.709V50.1689H80.9111V55.0264H79.4121V44.9404H82.7773V46.2578ZM86.7256 46.2578H84.8887V48.8486H86.6533V50.1689H84.8887V53.709H86.7549V55.0264H83.3896V44.9404H86.7256V46.2578ZM100.752 46.2578H98.9141V48.8486H100.68V50.1689H98.9141V53.709H100.78V55.0264H97.416V44.9404H100.752V46.2578ZM14.5361 55.0225H13.0225L12.7412 52.291H11.6826L11.3584 55.0225H10L11.1455 44.9404H13.3896L14.5361 55.0225ZM28.6846 44.9404C30.1686 44.9406 30.7344 45.5645 30.7344 47.1484V53.2393C30.7344 54.246 29.9992 55.0224 28.9941 55.0225H26.8174V44.9365H28.6846V44.9404ZM40.4551 55.0225H38.9414L38.6572 52.291H37.5977L37.2734 55.0225H35.915L37.0605 44.9404H39.3096L40.4551 55.0225ZM47.1924 55.0225H45.6934V44.9404H47.1924V55.0225ZM56.5303 55.0225H55.0322V44.9404H56.5303V55.0225ZM63.7646 55.0225H62.2666V44.9404H63.7646V55.0225ZM72.6348 44.9404C74.1191 44.9404 74.6855 45.5644 74.6855 47.1484V53.2393C74.6855 54.2459 73.9504 55.0223 72.9453 55.0225H70.7686V44.9365H72.6348V44.9404ZM90.293 49.415C90.4335 50.3929 90.603 51.7819 90.7471 53.5498H90.8047C90.8047 51.5547 90.7607 50.9589 90.7607 50.2373V44.9404H91.9932V55.0225H89.7734L89.1113 50.2773C88.9852 49.3284 88.855 48.6212 88.6172 46.4238H88.5596C88.5596 46.6369 88.6025 47.0919 88.6025 47.7988V55.0225H87.374V44.9404H89.6152L90.293 49.415ZM58.5986 44.9404L59.0527 49.0176C59.1248 49.6417 59.3332 52.5023 59.4053 53.1094H59.4346C59.4634 52.3875 59.6181 50.6163 59.7334 49.4834L60.1875 44.9365H61.6865L60.4971 55.0186H58.2344L57.1035 44.9365H58.6025L58.5986 44.9404ZM16.6143 53.8213H16.8955C17.3494 53.8213 17.5332 53.6368 17.5332 53.0703V51.0605C17.5332 50.6095 17.3924 50.3242 16.9385 50.3242H16.6143V53.8213ZM42.5303 53.8213H42.8105C43.2645 53.8213 43.4482 53.6368 43.4482 53.0703V51.0605C43.4482 50.6096 43.3081 50.3244 42.8545 50.3242H42.5303V53.8213ZM28.3164 53.8203H28.6846C28.9942 53.8203 29.2354 53.7625 29.2354 53.1133V46.8379C29.2353 46.2429 29.0372 46.1456 28.6699 46.1455H28.3164V53.8203ZM72.2676 53.8203H72.6348C72.9446 53.8203 73.1865 53.7628 73.1865 53.1133V46.8379C73.1865 46.2429 72.9883 46.1456 72.6211 46.1455H72.2676V53.8203ZM11.8232 50.9736H12.6006L12.291 46.7803H12.1904L11.8232 50.9736ZM37.7451 50.9736H38.5205L38.21 46.7803H38.1133L37.7451 50.9736ZM16.6143 49.1191H16.9531C17.335 49.1191 17.4902 48.9639 17.4902 48.3975V46.9541C17.4902 46.2324 17.3494 46.0918 16.9531 46.0918H16.6143V49.1191ZM42.5303 49.1191H42.8682C43.25 49.1191 43.4053 48.9639 43.4053 48.3975V46.9541C43.4053 46.2324 43.2645 46.0918 42.8682 46.0918H42.5303V49.1191ZM24.2959 42.0029C24.6705 42.0029 24.8183 42.2625 24.8184 42.6846C24.8184 43.1068 24.6778 43.3672 24.2959 43.3672C23.9141 43.3671 23.7734 43.1067 23.7734 42.6846C23.7735 42.2626 23.9142 42.003 24.2959 42.0029ZM25.625 42.0029C25.996 42.0029 26.1367 42.2625 26.1367 42.6846C26.1367 43.1068 26.0069 43.3672 25.625 43.3672C25.2433 43.3671 25.1025 43.1067 25.1025 42.6846C25.1026 42.2626 25.2434 42.003 25.625 42.0029ZM66.3154 42.0029C66.69 42.0029 66.8378 42.2625 66.8379 42.6846C66.8379 43.1068 66.6973 43.3672 66.3154 43.3672C65.9339 43.367 65.7939 43.1066 65.7939 42.6846C65.794 42.2627 65.934 42.0031 66.3154 42.0029ZM67.6455 42.0029C68.0162 42.0031 68.1562 42.2627 68.1562 42.6846C68.1562 43.1066 68.0271 43.367 67.6455 43.3672C67.2636 43.3672 67.123 43.1068 67.123 42.6846C67.1231 42.2625 67.2637 42.0029 67.6455 42.0029ZM69.8428 40.8369C70.2174 40.8369 70.3652 41.1078 70.3652 41.5264C70.3652 41.945 70.2247 42.2158 69.8428 42.2158C69.4609 42.2158 69.3135 41.9449 69.3135 41.5264C69.3135 41.1079 69.461 40.837 69.8428 40.8369ZM81.8262 40.8369C82.2006 40.837 82.3486 41.1079 82.3486 41.5264C82.3486 41.9449 82.2043 42.2157 81.8262 42.2158C81.4479 42.2158 81.2959 41.945 81.2959 41.5264C81.2959 41.1078 81.4443 40.8369 81.8262 40.8369ZM93.0596 40.8369C93.4342 40.837 93.582 41.0974 93.582 41.5195C93.582 41.9415 93.4413 42.2011 93.0596 42.2012C92.6778 42.2012 92.5372 41.9415 92.5371 41.5195C92.5371 41.0973 92.6777 40.8369 93.0596 40.8369ZM94.3926 40.8369C94.7637 40.8369 94.9043 41.0973 94.9043 41.5195C94.9042 41.9415 94.7744 42.2012 94.3926 42.2012C94.0108 42.2011 93.8702 41.9415 93.8701 41.5195C93.8701 41.0974 94.0107 40.8369 94.3926 40.8369ZM47.5127 34.4355C47.9233 34.4356 48.388 34.5694 48.8994 34.8291L48.4707 35.8467C48.1647 35.7061 47.9018 35.6309 47.6426 35.6309C47.2427 35.6309 47.0078 35.9011 47.0078 36.3955L47.0117 36.3994V38.7119H48.957V39.8955H46.9004C46.3383 39.8955 46.0137 40.1194 46.0137 40.6787V41.9492H44.832V40.4551C44.832 39.6253 45.1671 39.0842 45.8262 38.8496V36.1895C45.8263 35.0963 46.4608 34.4355 47.5127 34.4355ZM82.7051 39.8916H80.3672C80.3384 41.2735 79.6681 41.9452 78.2705 41.9453C77.9355 41.9453 77.5461 41.9087 77.2939 41.833L77.0596 40.5557C77.5063 40.7072 77.9062 40.79 78.2412 40.79C78.8681 40.79 79.1924 40.5486 79.1924 39.9424V39.8955H78.9512C77.6758 39.8955 77.0059 39.2604 77.0059 37.9072V36.6582C77.006 35.2404 77.6291 34.6338 78.9512 34.6338H80.3672V38.7119H81.5195L81.5234 38.708V34.623H82.7051V39.8916ZM73.4922 34.6348L74.6055 34.6377C75.7438 34.6377 76.3387 35.179 76.3389 36.2324V39.8994H71.5723C70.5383 39.8994 69.8028 39.246 69.8027 38.2393V35.8252H69.3203C68.816 35.8252 68.5567 36.1029 68.5566 36.6621V41.0645H66.3115C65.1301 41.0643 64.4961 40.4291 64.4961 39.2529V36.3154H65.6777V39.0586C65.6778 39.6105 65.9485 39.8809 66.5645 39.8809H67.375V36.3623C67.3752 35.2043 67.9733 34.627 69.1729 34.627H69.8066V33.8799H70.999V38.0078C70.999 38.4661 71.2411 38.708 71.5762 38.708H72.3105V32.3281H73.4922V34.6348ZM28.7197 38.7119H29.873V34.623H31.0547V39.8994H27.5273V35.8213H27.2393C26.7818 35.8213 26.54 36.0814 26.54 36.5938V41.0605H24.2959C23.1142 41.0605 22.4805 40.4254 22.4805 39.249V36.3125H23.6621V39.0547C23.6621 39.6067 23.9319 39.8769 24.5479 39.877H25.3584V36.3594C25.3584 35.2011 25.9567 34.6231 27.1562 34.623H28.7197V38.7119ZM41.5283 39.8955H38.8838C38.6604 40.5775 38.1666 40.8915 37.3848 40.9023H37.374C36.5743 40.9023 36.074 40.5846 35.8398 39.8955H31.5195V38.7119H33.2061V36.4746C33.206 36.0272 32.9604 35.8105 32.5713 35.8105H32.208V34.627H32.6543C33.7999 34.627 34.3876 35.1755 34.3877 36.2217V38.7119H35.6807V36.8574C35.6807 35.3275 36.2104 34.627 37.374 34.627H37.3848C38.5197 34.627 39.042 35.3383 39.042 36.8574V38.7119H40.3467V32.3281H41.5283V39.8955ZM97.9375 33.5693C99.6416 33.5693 100.777 34.7279 100.777 36.4707V39.8955H87.8535C86.5674 39.8955 85.9083 39.2603 85.9082 37.9072V36.6582C85.9083 35.2403 86.5314 34.6338 87.8535 34.6338H88.0771V34.1504H89.2588V38.708H90.4111V34.623H91.5938V38.708H93.1211V34.623H94.3027V38.708H95.25V38.6973H96.0068V36.8896C96.0068 36.0236 96.6195 35.4531 97.5166 35.4531C98.4136 35.4532 99.0078 36.0129 99.0078 36.8428V38.6973H99.6963V36.543C99.6962 35.4244 98.8961 34.6777 97.6855 34.6777C97.2569 34.6778 96.67 34.8368 96.0469 35.1182L95.6934 34.1582C96.5507 33.7758 97.3323 33.5694 97.9375 33.5693ZM43.625 39.8916H42.4434V32.3281H43.625V39.8916ZM50.8096 38.708H52.0273C51.9625 38.4771 51.9258 38.2139 51.9258 37.9072V36.6582C51.9259 35.2404 52.55 34.6348 53.8721 34.6348H55.2871V39.8916H49.6279V32.3281H50.8096V38.708ZM60.958 38.7119H62.1113L62.1143 38.708V32.3281H63.2969V39.8916H55.7559V38.708H57.4414V36.4707C57.4413 36.0235 57.2002 35.8066 56.8076 35.8066H56.4434V34.623H56.8906C58.0363 34.6231 58.623 35.1723 58.623 36.2188V38.708H59.7764V32.3281H60.958V38.7119ZM84.7051 39.8916H83.5234V32.3281H84.7051V39.8916ZM37.3633 35.8037C37.0175 35.8037 36.8701 36.0633 36.8701 36.6982V38.8418C36.8701 39.4588 37.021 39.7187 37.374 39.7188H37.3848C37.7198 39.7188 37.8604 39.4588 37.8604 38.8418H37.8574V36.6982C37.8574 36.0632 37.7091 35.8037 37.374 35.8037H37.3633ZM53.8145 35.8252C53.2813 35.8252 53.1153 36.0849 53.1152 36.6621V37.9111C53.1153 38.4305 53.357 38.7119 53.8145 38.7119H54.1025V35.8252H53.8145ZM73.4922 38.7119H75.1494V36.4746C75.1494 36.038 74.9083 35.8213 74.5156 35.8213H73.4922V38.7119ZM78.8936 35.8252C78.3604 35.8252 78.1944 36.0848 78.1943 36.6621V37.9111C78.1945 38.4305 78.4361 38.7119 78.8936 38.7119H79.1816V35.8252H78.8936ZM87.7959 35.8213C87.2663 35.8213 87.0899 36.0848 87.0898 36.6621V37.9111C87.09 38.4305 87.3313 38.7119 87.7959 38.7119H88.0771V35.8213H87.7959ZM97.5195 36.3984C97.2316 36.3986 97.0733 36.6118 97.0732 37.0879V38.7012H97.9375V37.0879C97.9375 36.6152 97.7897 36.3984 97.5195 36.3984ZM91.5029 33.0176H91.1504C91.0027 33.0176 90.9268 33.0824 90.9268 33.2051V33.3174H91.7158V33.9697H90.2705V33.2051C90.2705 32.6928 90.6167 32.3644 91.2686 32.3643H91.5029V33.0176ZM74.8721 32.2676C75.2468 32.2676 75.3945 32.5384 75.3945 32.957C75.3944 33.3753 75.243 33.6455 74.8721 33.6455C74.4906 33.6453 74.3429 33.3752 74.3428 32.957C74.3428 32.5386 74.4977 32.2678 74.8721 32.2676ZM30.457 32.2559C30.8315 32.256 30.9795 32.5268 30.9795 32.9453C30.9795 33.3637 30.8279 33.6346 30.457 33.6348C30.0788 33.6348 29.9268 33.3638 29.9268 32.9453C29.9268 32.5267 30.0823 32.2559 30.457 32.2559ZM53.8789 32.2559C54.2534 32.256 54.4014 32.5268 54.4014 32.9453C54.4013 33.3637 54.2498 33.6347 53.8789 33.6348C53.497 33.6348 53.3487 33.3638 53.3486 32.9453C53.3486 32.5267 53.5042 32.2559 53.8789 32.2559ZM87.2119 32C87.583 32 87.7344 32.2604 87.7344 32.6826C87.7343 33.1047 87.5829 33.3643 87.2119 33.3643C86.8303 33.3641 86.6895 33.1046 86.6895 32.6826C86.6895 32.2605 86.8411 32.0002 87.2119 32ZM88.5449 32C88.916 32 89.0566 32.2604 89.0566 32.6826C89.0566 33.1047 88.9159 33.3643 88.5449 33.3643C88.1634 33.364 88.0235 33.1045 88.0234 32.6826C88.0234 32.2606 88.1742 32.0002 88.5449 32Z" fill="black"/>
</svg>
