<svg width="174" height="150" viewBox="0 0 174 150" fill="none" xmlns="http://www.w3.org/2000/svg">
<path d="M27.2004 87.696L26.7048 90.9791H3C3.98082 88.7078 3.91887 87.4275 3.91887 85.786V63.2169C3.91887 61.6269 3.98082 60.2331 3 58.0237H26.1266L26.1679 61.3688C25.7343 61.1933 25.3833 61.0384 25.0632 60.8939C24.2063 60.5738 23.1222 60.2744 21.9969 60.2847H9.31852V73.1902H24.196L23.4629 75.73H9.31852V88.6458H22.7299C24.9909 88.6871 27.2417 87.4069 27.2417 87.4069L27.1797 87.6857C27.1797 87.696 27.19 87.696 27.2004 87.696ZM62.8814 90.9791C63.2015 89.3582 63.2015 87.0662 62.9434 85.1975L60.8372 69.6696L49.3358 90.9688H47.1471L35.4599 68.7094L33.1885 85.5382C32.9407 87.4792 32.8684 89.9364 33.0749 90.9791H28.9658C29.7608 89.2963 29.957 88.5632 30.3286 85.7963L34.0454 58.0237H35.9348L49.5733 83.9379L63.2015 58.0237H64.6263L68.4669 85.7343C68.8489 88.491 69.138 89.2859 69.902 90.9791H62.8814ZM97.4991 90.9791L92.0272 78.9099H81.0214L75.6217 90.9791H71.3268C72.6896 89.2859 73.1542 88.5013 74.1144 86.3951L86.8753 58.0237H88.3104L100.865 85.6001C102.207 88.2948 102.837 89.1311 104.757 90.9791H97.4991ZM131.931 90.9791L126.459 78.9099H115.453L110.054 90.9791H105.759C107.121 89.2859 107.586 88.5013 108.546 86.3951L121.307 58.0237H122.742L135.307 85.6001C136.649 88.2948 137.279 89.1311 139.199 90.9791H131.931ZM163.131 90.9998C159.838 87.9954 155.574 84.0102 150.236 77.6916C148.708 75.9055 147.634 75.6784 146.943 75.6371V85.786C146.943 87.4172 146.943 88.7078 147.872 90.9791H140.624C141.605 88.7078 141.543 87.4275 141.543 85.786V63.1962C141.543 61.6063 141.605 60.2125 140.624 58.003H147.727C152.58 58.003 164.05 57.5694 164.05 67.0472C164.05 72.0545 160.075 74.7492 155.409 75.4306L154.025 75.5648C154.025 75.5648 169.161 90.3597 169.811 90.9998H163.131ZM154.552 73.5412L154.541 73.5516C157.597 72.3952 158.63 69.4941 158.527 67.0369C158.413 64.6726 157.35 59.5311 146.953 59.944V73.9955C146.953 73.9955 152.776 74.3156 154.407 73.6032C154.5 73.5619 154.552 73.5412 154.552 73.5412ZM116.506 76.6076H125.396L120.915 66.7684L116.506 76.6076ZM82.0848 76.6076H90.9741L86.4933 66.7684L82.0848 76.6076Z" fill="#3C3D3F"/>
</svg>
