<svg width="118" height="150" viewBox="0 0 118 150" fill="none" xmlns="http://www.w3.org/2000/svg">
<path fill-rule="evenodd" clip-rule="evenodd" d="M22.8156 38.9191C16.0869 39.6748 11.2919 42.5589 8.74234 47.3836C7.52867 49.6808 7.10914 51.5942 7.10263 54.8644C7.09591 58.242 7.43271 59.8328 8.69425 62.3818C10.1905 65.405 13.3742 68.2299 16.8657 69.6323C19.7462 70.7893 21.3901 70.9881 28.9629 71.0952C34.2844 71.1704 36.024 71.133 36.2596 70.9386C36.7066 70.5699 36.7251 55.2533 36.2791 54.8851C36.079 54.7199 34.8265 54.6636 32.2371 54.7028L28.485 54.76L28.4281 59.117L28.3714 63.4739L25.5934 63.3799C23.451 63.3073 22.5649 63.1874 21.7198 62.8562C18.3444 61.5336 16.6213 58.8253 16.6213 54.8425C16.6213 50.8003 18.5659 48.0564 22.2285 46.9315C23.467 46.5511 24.1777 46.5118 29.8299 46.5118C34.3996 46.5118 36.1326 46.4448 36.3171 46.2612C36.638 45.9422 36.6682 39.7775 36.3518 39.1895C36.1437 38.8028 35.8649 38.7869 29.79 38.817C26.3006 38.8341 23.1621 38.88 22.8156 38.9191ZM52.4148 39.2899C52.2319 39.5674 51.4672 41.1883 50.7155 42.892C49.1971 46.3324 45.4524 54.7815 41.7073 63.2171C40.3558 66.2605 39.062 69.1497 38.8318 69.6373C38.1103 71.1663 38.0698 71.1521 43.1721 71.1521C48.4694 71.1521 47.7271 71.5824 49.3886 67.5471L50.486 64.8817L57.0914 64.9369L63.6967 64.992L64.8205 67.7766C65.4384 69.3082 66.0566 70.696 66.1939 70.8605C66.3997 71.1072 67.2617 71.15 71.0868 71.1038L75.7298 71.0476L75.7034 70.5256C75.6889 70.2385 74.9691 68.4531 74.104 66.5581C72.5398 63.1321 71.5916 61.0055 65.3992 47.0339C63.6175 43.0142 62.0219 39.514 61.8533 39.2555C61.5513 38.793 61.4789 38.7856 57.1469 38.7856H52.747L52.4148 39.2899ZM78.2861 38.9383C78.2321 39.0266 78.125 46.1767 78.048 54.8271C77.9413 66.8221 77.9671 70.6263 78.1569 70.8537C78.3675 71.1059 80.2624 71.1521 90.4118 71.1521C99.47 71.1521 102.48 71.0905 102.67 70.9015C102.982 70.591 103.022 64.7585 102.717 63.9615L102.512 63.4259H95.0546H87.5969L87.5427 51.158L87.4885 38.8901L82.9364 38.8339C80.4327 38.803 78.3402 38.85 78.2861 38.9383ZM59.1198 53.5683C59.9979 55.7841 60.7165 57.6398 60.7165 57.6924C60.7165 57.7448 59.0629 57.7879 57.0419 57.7879C55.0208 57.7879 53.3673 57.7419 53.3673 57.686C53.3673 57.5688 56.1448 50.5666 56.6668 49.368C57.0108 48.5781 57.0169 48.5749 57.2688 49.0548C57.4087 49.3214 58.2419 51.3526 59.1198 53.5683ZM25.6503 95.7775C25.6503 107.786 25.5764 113.864 25.4216 114.581C24.9532 116.754 23.1558 117.924 20.2959 117.92C17.8936 117.917 16.2843 117.13 15.394 115.525C15.0988 114.993 15.0307 113.924 14.9415 108.426L14.8365 101.952H10.9519H7.06735L7.01191 108.372C6.95165 115.323 7.09255 116.706 8.07692 118.83C9.41426 121.717 12.2305 124.069 15.7814 125.266C17.5643 125.867 18.0326 125.939 20.1909 125.943C22.1254 125.948 22.9189 125.853 24.1805 125.469C29.3434 123.894 32.7572 120.242 33.4016 115.604C33.5742 114.362 33.6273 108.682 33.5845 96.0011L33.5244 78.1474L29.5874 78.0906L25.6503 78.0338V95.7775ZM38.6678 78.1996C38.4068 116.062 38.406 115.831 38.8087 115.995C39.2274 116.165 44.374 116.179 79.8769 116.1L103.342 116.047V111.372C103.342 106.049 103.094 104.246 101.987 101.517C99.6096 95.653 94.3474 91.3069 88.1151 90.0603C86.7736 89.7918 85.327 89.7364 80.8742 89.783L75.3099 89.841L75.2525 93.6519C75.2212 95.748 75.2212 97.478 75.2525 97.4968C75.284 97.5154 77.9556 97.5939 81.1892 97.6714C86.4332 97.7971 87.199 97.8598 88.2757 98.2526C90.8087 99.1768 92.9496 101.045 94.1272 103.36C94.8018 104.686 95.3627 106.603 95.3627 107.582V108.217H70.9003H46.438V93.1299V78.043H42.5535C40.4169 78.043 38.6685 78.1133 38.6678 78.1996ZM83.2027 120.723C83.0418 120.916 82.9799 121.816 83.0194 123.386L83.079 125.757L84.4596 125.923C85.2189 126.014 86.4473 126.013 87.1893 125.922L88.5384 125.756L88.5798 123.46C88.6024 122.197 88.5724 120.999 88.513 120.798C88.4181 120.477 88.1059 120.433 85.9252 120.433C84.0617 120.433 83.3851 120.505 83.2027 120.723Z" fill="#4A4F55"/>
<path d="M86.1922 27.7277V24.0103C86.8653 24.0259 92.0102 23.9807 98.775 24.0103H111.189V27.7657V31.5244H98.9531C92.2206 31.5559 86.8654 31.5244 86.1923 31.5244C86.192 30.1274 86.1922 30.283 86.1922 27.7277Z" fill="#FA4615"/>
</svg>
