<svg width="190" height="100" viewBox="0 0 190 100" fill="none" xmlns="http://www.w3.org/2000/svg">
<path d="M179.18 47.1215C178.284 47.8541 177.416 48.6148 174.589 50.2491L173.861 50.6436V50.1082C173.861 50.0518 174.057 42.8105 170.586 36.5835C170.362 36.8934 169.634 37.8233 168.878 38.7813C169.326 38.7249 169.774 38.8376 170.194 39.2603C170.922 39.9647 172.098 41.6834 172.769 43.4586C173.133 44.5856 173.441 46.1071 173.357 47.4033C173.357 47.4033 172.937 54.7573 172.098 61.8014C171.342 68.1975 170.922 69.0428 170.922 69.0428C170.446 68.4511 170.222 67.6903 170.11 67.2677L170.026 67.324C170.026 67.324 169.578 66.676 169.326 65.4362C169.018 63.9992 168.962 61.4351 168.99 60.1954C168.99 60.1954 169.018 59.8291 168.71 59.2092C168.571 58.9274 168.459 58.6175 168.375 58.3076C167.927 56.3352 167.031 55.7717 166.527 55.18C165.939 54.4474 165.491 53.6866 165.239 53.0386L165.183 53.0667C164.848 53.3767 164.624 53.6866 164.596 53.8838C164.708 55.0391 164.82 55.8562 164.652 56.4479L164.4 56.2507C164.484 57.0114 164.12 57.8849 164.344 58.5893L163.896 58.533L163.952 58.6457C164.008 58.7302 164.064 58.7866 164.176 58.8429L164.316 58.8993C164.344 58.9274 164.456 58.9556 164.764 59.0683C165.015 58.5048 164.82 57.9413 164.568 57.6313C164.344 57.3777 164.624 56.9833 165.043 57.1805C165.603 57.4341 166.219 57.8004 166.891 58.4203C167.815 59.3219 168.095 60.1672 167.899 60.3363C167.759 60.4771 167.619 60.449 167.451 60.3644L167.423 60.4771C167.367 60.6462 167.227 60.7589 167.031 60.8153L167.003 60.8434C166.891 60.9843 166.751 61.0407 166.471 61.0407C166.219 61.0407 165.967 60.8998 165.911 60.8716L165.715 60.7307L165.603 60.928C166.331 61.9423 167.759 63.5766 168.766 65.408C169.494 66.7041 169.83 67.7748 169.83 67.7748C169.83 67.7748 169.438 67.8876 168.934 67.7748C169.102 68.282 169.214 68.761 169.186 69.0991C168.794 69.1273 168.291 69.071 167.759 68.761C167.787 68.8456 167.787 68.9301 167.815 69.0146C168.263 69.3527 168.766 69.719 168.99 69.8881C166.779 70.9306 163.56 70.4516 163.504 70.4516C163.336 70.4234 163.224 70.4234 163.084 70.3953L163 70.5925C163.224 71.0997 163.728 72.3113 163.84 72.5648C165.239 73.2129 166.555 73.6356 168.571 73.2974C168.571 73.2974 168.906 73.2693 169.774 72.9593C170.67 72.6494 172.322 71.6914 173.581 70.4798C175.177 68.9864 176.129 67.4086 176.436 66.7887C178.9 61.9705 179.292 54.8137 179.292 51.9115V50.4181C179.292 49.4601 179.236 47.8541 179.18 47.1215Z" fill="#E62832"/>
<path d="M155.141 72.4849C155.228 72.2315 155.687 71.1615 155.917 70.5983C155.888 70.5138 155.859 70.4012 155.831 70.3167C155.515 70.3731 155.199 70.4012 154.883 70.4575C154.682 70.4857 151.552 70.9644 149.255 69.8944C149.542 69.6973 150.059 69.2749 150.748 68.8525L150.777 68.7117C150.231 69.0215 149.714 69.0496 149.312 69.0496C149.283 68.7117 149.369 68.233 149.57 67.7262C149.054 67.8388 148.652 67.7262 148.652 67.7262C148.652 67.7262 148.996 66.628 149.743 65.3609C150.432 64.1501 151.408 62.9112 152.241 61.8975C152.327 61.5033 152.643 61.1654 152.672 61.1372L152.815 60.9965C152.729 60.912 152.643 60.8557 152.557 60.7712C152.471 60.8557 152.385 60.912 152.327 60.9401C152.069 61.0528 151.896 61.1091 151.753 61.1091C151.466 61.1091 151.293 61.0528 151.207 60.912L151.179 60.8838C150.978 60.8275 150.834 60.7149 150.777 60.5459L150.748 60.4333C150.576 60.4896 150.489 60.4896 150.346 60.377C150.145 60.208 150.432 59.3351 151.38 58.4622C152.04 57.8428 152.672 57.4767 153.275 57.2233C153.734 57.0262 153.993 57.4204 153.763 57.6738C153.505 57.9836 153.304 58.5467 153.562 59.1099C153.849 59.0254 153.935 58.9691 153.993 58.9691C154.108 58.9409 154.222 58.8846 154.366 58.7157L154.424 58.603L154.021 58.6593C154.222 58.1807 153.907 56.9699 154.108 56.1814L153.82 56.3504C153.677 55.6464 153.706 54.5201 153.763 53.957C153.763 53.8162 153.562 53.5627 153.275 53.2812C153.045 53.8443 152.672 54.5201 152.011 55.3085C151.494 55.928 150.576 56.463 150.116 58.4341C150.03 58.7438 149.915 59.0254 149.771 59.3351C149.456 59.9546 149.484 60.3207 149.484 60.3207C149.513 61.5596 149.456 64.122 149.14 65.558C148.881 66.8252 148.422 67.4728 148.422 67.4728L148.364 67.4165C148.25 67.8388 148.049 68.5991 147.532 69.1904C147.532 69.1904 147.101 68.3457 146.326 61.9538C145.464 54.9143 145.033 47.5369 145.033 47.5369C144.947 46.2417 145.263 44.7211 145.636 43.5948C146.326 41.8209 147.532 40.1032 148.278 39.3993C148.738 38.9488 149.255 38.8643 149.743 38.9488C149.599 38.7517 149.456 38.5546 149.456 38.5546C148.967 37.9069 148.393 37.203 147.905 36.5835C144.402 42.6375 144.488 49.8741 144.488 49.9304V50.6906L143.885 50.3809C141.128 48.8322 139.922 47.903 139.032 47.1709C139.003 47.903 138.917 50.4091 138.917 50.4091V51.9296C138.917 54.8299 139.434 61.9257 141.846 66.797C142.19 67.4165 143.081 69.0215 144.717 70.5138C145.952 71.6402 147.388 72.4567 148.967 72.9636C149.054 72.9917 149.255 73.0481 149.341 73.0762C151.179 73.6394 153.189 73.5267 155.141 72.5694V72.4849Z" fill="#E62832"/>
<path d="M156.362 74.6028C156.382 73.739 156.483 72.4433 156.625 71.2915C156.423 71.5794 156.261 71.6946 156.241 71.6946L156.139 71.5794C155.755 72.9328 155.208 74.8044 155.208 74.8332C155.451 74.5164 155.856 74.2861 156.362 74.6028Z" fill="#E62832"/>
<path d="M161.812 75.4396C161.84 74.5616 161.508 72.2296 161.287 70.8853L161.204 70.7755L161.066 70.5835C160.983 70.8579 160.9 71.1322 160.762 71.4066C160.624 71.7358 160.375 72.0924 160.32 72.065C160.292 72.065 159.657 71.626 159.242 70.7481C158.828 71.5986 158.22 72.0376 158.164 72.0376C158.109 72.0376 157.888 71.7083 157.722 71.3791C157.667 71.2419 157.584 71.0773 157.556 70.9402C157.335 72.3394 157.031 74.5891 157.087 75.4396C155.788 74.5891 154.987 75.4396 155.263 76.0432L155.346 76.1803C155.512 76.3998 155.705 76.5096 156.009 76.5096C156.424 76.537 156.976 76.5919 157.612 76.8662C158.192 77.1406 158.828 77.5795 159.463 78.3752C160.099 77.5795 160.734 77.1406 161.315 76.8662C161.95 76.5644 162.503 76.537 162.917 76.5096C163.194 76.4821 163.415 76.3449 163.58 76.1803L163.663 76.0432C163.912 75.4396 163.111 74.5616 161.812 75.4396Z" fill="#E62832"/>
<path d="M162.062 71.6162C162.032 71.6162 161.853 71.4981 161.583 71.2915C161.793 72.3245 161.972 73.6231 162.002 74.5971C162.75 74.3019 163.349 74.5085 163.708 74.8332C163.708 74.8037 162.84 72.6491 162.331 71.321C162.212 71.4686 162.062 71.6162 162.062 71.6162Z" fill="#E62832"/>
<path d="M179.37 50.2528C179.342 49.2956 179.313 47.6908 179.256 46.9587C178.344 47.6908 177.46 48.4509 174.58 50.0839L173.839 50.4781V49.9431C173.839 49.8868 174.039 42.651 170.503 36.4288C170.275 36.7104 169.534 37.6676 168.764 38.6249C169.22 38.5686 169.676 38.6812 170.104 39.1035C170.845 39.8074 172.043 41.5248 172.727 43.2986C173.098 44.4248 173.411 45.9452 173.326 47.2403C173.326 47.2403 172.898 54.5887 172.043 61.6274C171.273 68.0185 170.845 68.8632 170.845 68.8632C170.361 68.2719 170.133 67.5117 170.019 67.0894L169.962 67.1457C169.962 67.1457 169.505 66.4982 169.249 65.2593C168.935 63.8235 168.878 61.2614 168.907 60.0226C168.907 60.0226 168.935 59.6565 168.622 59.0371C168.479 58.7556 168.365 58.4459 168.279 58.1362C167.823 56.1653 166.911 55.6023 166.398 55.011C165.799 54.279 165.343 53.5188 165.086 52.8712L165.029 52.8994C164.687 53.2091 164.459 53.5188 164.43 53.7159C164.544 54.8702 164.658 55.6867 164.487 56.278L164.231 56.0809C164.316 56.8411 163.946 57.7139 164.174 58.4177L163.717 58.3614L163.774 58.474C163.832 58.5585 163.889 58.6148 164.003 58.6711L164.145 58.7274C164.174 58.7556 164.288 58.7837 164.601 58.8964C164.858 58.3333 164.658 57.7702 164.402 57.4605C164.174 57.2071 164.459 56.8129 164.886 57.01C165.457 57.2634 166.084 57.6294 166.768 58.2488C167.709 59.1498 167.994 59.9944 167.795 60.1633C167.652 60.3041 167.51 60.2759 167.338 60.1915L167.31 60.3041C167.253 60.473 167.11 60.5857 166.911 60.642L166.882 60.6701C166.768 60.8109 166.626 60.8672 166.341 60.8672C166.084 60.8672 165.827 60.7264 165.77 60.6983L165.571 60.5575L165.428 60.7546C166.169 61.7682 167.624 63.4011 168.65 65.2312C169.391 66.5263 169.733 67.6244 169.733 67.6244C169.733 67.6244 169.334 67.737 168.821 67.6244C168.992 68.1311 169.106 68.6098 169.078 68.9476C168.679 68.9758 168.165 68.9195 167.624 68.6098C167.652 68.6942 167.652 68.7787 167.681 68.8632C168.137 69.201 168.65 69.567 168.878 69.736C166.626 70.7777 163.347 70.2991 163.29 70.2991C163.119 70.2709 163.005 70.2709 162.862 70.2427L162.777 70.4398C163.005 70.9466 163.518 72.1573 163.632 72.4107C165.058 73.0582 166.398 73.4806 168.45 73.1427C168.45 73.1427 168.793 73.1145 169.676 72.8048C170.589 72.4951 172.271 71.5379 173.554 70.3272C175.179 68.835 176.149 67.2583 176.462 66.6389C178.971 61.8245 179.37 54.6731 179.37 51.7732C179.37 50.8159 179.37 50.3091 179.37 50.2528ZM163.746 74.3815C163.746 74.3534 162.919 72.298 162.434 71.0311C162.32 71.2 162.206 71.3126 162.178 71.3126C162.149 71.3126 161.978 71.2 161.722 71.0029C161.921 71.9883 162.092 73.2272 162.121 74.1563C162.834 73.8466 163.404 74.0718 163.746 74.3815ZM161.693 75.0009C161.722 74.1 161.38 71.7068 161.151 70.3272L161.066 70.2146L160.923 70.0175C160.838 70.2991 160.752 70.5806 160.61 70.8622C160.467 71.2 160.211 71.566 160.154 71.5379C160.125 71.5379 159.469 71.0874 159.042 70.1864C158.614 71.0592 157.987 71.5097 157.93 71.5097C157.873 71.5097 157.644 71.1719 157.473 70.834C157.416 70.6932 157.331 70.5243 157.302 70.3835C157.074 71.8194 156.761 74.1281 156.818 75.0009C155.478 74.1281 154.651 75.0009 154.936 75.6203L155.021 75.7611C155.192 75.9863 155.392 76.0989 155.706 76.0989C156.133 76.1271 156.704 76.1834 157.359 76.465C157.958 76.7465 158.614 77.197 159.27 78.0135C159.925 77.197 160.581 76.7465 161.18 76.465C161.836 76.1553 162.406 76.1271 162.834 76.0989C163.119 76.0708 163.347 75.93 163.518 75.7611L163.603 75.6203C163.86 75.0009 163.033 74.1 161.693 75.0009ZM154.736 74.3815C155.107 74.0718 155.677 73.8747 156.361 74.1563C156.39 73.3116 156.532 72.0447 156.732 70.9185C156.447 71.2 156.219 71.3126 156.19 71.3126L156.048 71.2C155.506 72.4951 154.765 74.3534 154.736 74.3815ZM154.879 72.3544L154.907 72.298C154.993 72.0447 155.449 70.9748 155.677 70.4117C155.649 70.3272 155.62 70.2146 155.592 70.1301C155.278 70.1864 154.964 70.2146 154.651 70.2709C154.451 70.2991 151.343 70.7777 149.062 69.7078C149.348 69.5107 149.861 69.0884 150.545 68.6661L150.574 68.5253C150.032 68.835 149.519 68.8632 149.119 68.8632C149.091 68.5253 149.176 68.0467 149.376 67.5399C148.863 67.6525 148.464 67.5399 148.464 67.5399C148.464 67.5399 148.806 66.4419 149.547 65.1467C150.231 63.9361 151.201 62.6973 152.028 61.7118C152.113 61.3177 152.427 60.9798 152.455 60.9517L152.598 60.8109C152.512 60.7264 152.427 60.6701 152.341 60.5857C152.256 60.6701 152.17 60.7264 152.113 60.7546C151.857 60.8672 151.685 60.9235 151.543 60.9235C151.258 60.9235 151.087 60.8672 151.001 60.7264L150.973 60.6983C150.773 60.642 150.631 60.5293 150.574 60.3604L150.545 60.2478C150.374 60.3041 150.288 60.3041 150.146 60.1915C149.946 60.0226 150.231 59.1498 151.172 58.277C151.828 57.6576 152.455 57.2915 153.054 57.0381C153.51 56.8411 153.767 57.2352 153.539 57.4886C153.282 57.7983 153.083 58.3614 153.339 58.9245C153.624 58.8401 153.71 58.7837 153.767 58.7837C153.881 58.7556 153.995 58.6993 154.137 58.5304L154.195 58.4459L153.795 58.5022C153.995 58.0236 153.681 56.8129 153.881 56.0246L153.596 56.1935C153.453 55.4896 153.482 54.3634 153.539 53.8003C153.539 53.6596 153.339 53.4062 153.054 53.1246C152.826 53.6877 152.455 54.3634 151.8 55.1518C151.286 55.7712 150.374 56.3061 149.918 58.277C149.832 58.5867 149.718 58.8682 149.576 59.1779C149.262 59.7973 149.29 60.1633 149.29 60.1633C149.319 61.4021 149.262 63.9642 148.948 65.4001C148.692 66.6671 148.236 67.2865 148.236 67.2865L148.179 67.2302C148.064 67.6525 147.865 68.4127 147.352 69.0039C147.352 69.0039 146.924 68.1593 146.154 61.7682C145.299 54.7295 144.871 47.3529 144.871 47.3529C144.786 46.0578 145.099 44.5374 145.47 43.4112C146.154 41.6375 147.352 39.92 148.093 39.2162C148.549 38.7657 149.062 38.6812 149.547 38.7657C149.405 38.5686 149.262 38.3715 149.262 38.3715C148.777 37.724 148.207 37.0201 147.722 36.4007C144.244 42.454 144.329 49.6897 144.329 49.7461V50.5062L143.731 50.1965C140.994 48.648 139.796 47.7189 138.912 46.9869C138.884 47.7189 138.798 50.2247 138.798 50.2247V51.745C138.798 54.645 139.311 61.74 141.706 66.6108C142.048 67.2302 142.932 68.835 144.529 70.3272C145.755 71.4534 147.181 72.2699 148.749 72.7767C148.834 72.8048 149.034 72.8611 149.119 72.8893C150.944 73.4524 152.94 73.3398 154.879 72.3544ZM138.941 46.1704C139.283 46.4519 140.994 47.8878 143.731 49.4364C143.788 47.8315 143.845 42.0598 147.352 35.8939C146.953 35.3589 146.781 35.1337 146.382 34.6269C146.097 34.9366 145.727 35.1337 145.185 35.3026C145.213 34.092 144.928 33.4163 144.586 32.6842C144.101 32.7124 143.246 32.7124 141.906 32.4308C140.138 36.1473 139.254 40.455 138.941 46.1704ZM141.934 32.4027C142.105 32.3182 142.647 31.9804 142.989 31.5017C143.16 31.2765 143.303 31.0231 143.389 30.826L143.018 30.3755C142.619 30.995 142.277 31.6988 141.934 32.4027ZM143.731 30.1503C143.788 30.0377 143.845 29.9532 143.902 29.8969C143.018 28.7707 142.448 28.0105 142.391 27.9542C142.248 27.7853 141.877 27.0814 141.991 26.5183C140.937 26.0397 140.195 25.5048 140.195 25.5048C140.195 25.5048 141.849 27.7008 143.731 30.1503ZM143.845 29.2494C143.93 29.362 144.044 29.5028 144.13 29.6154C145.555 27.8135 147.466 26.5183 149.747 25.6737C149.576 25.4203 149.319 24.8009 149.975 24.1533C150.973 24.266 151.201 24.8572 151.286 25.1669C153.083 24.6883 155.192 24.4067 157.559 24.3223C157.644 22.7174 158.813 22.3233 158.813 22.3233C158.813 22.3233 158.842 22.0136 159.07 21.9291C159.327 22.0417 159.327 22.3233 159.327 22.3233C159.327 22.3233 160.496 22.7174 160.581 24.3223C162.948 24.4067 165.058 24.6883 166.854 25.1669C166.911 24.8572 167.167 24.266 168.165 24.1533C168.85 24.8009 168.564 25.3921 168.393 25.6737C170.703 26.5183 172.67 27.8698 174.096 29.6717C174.21 29.5309 174.295 29.4183 174.381 29.2775C173.041 27.6445 171.188 26.3213 169.192 25.5329C169.42 24.8854 169.192 24.3504 168.821 23.9563C168.821 23.7029 168.679 23.4776 168.507 23.3932C168.308 23.365 168.023 23.4495 167.823 23.6466C167.253 23.731 166.683 24.0126 166.369 24.632C164.886 24.266 163.204 24.0407 161.094 23.9281C161.037 22.9708 160.467 22.3514 159.783 22.0136C159.64 21.6757 159.355 21.4786 159.099 21.4223C158.842 21.4786 158.557 21.6757 158.414 22.0136C157.701 22.3514 157.131 22.9427 157.103 23.9281C154.964 24.0407 153.311 24.266 151.828 24.632C151.514 24.0126 150.944 23.731 150.374 23.6466C150.174 23.4495 149.889 23.365 149.69 23.3932C149.519 23.4776 149.376 23.7029 149.376 23.9563C149.005 24.3504 148.777 24.8854 149.005 25.5329C146.953 26.3494 145.156 27.6164 143.845 29.2494ZM174.324 29.9814L174.466 30.2348C176.377 27.729 178.144 25.4203 178.144 25.4203C178.144 25.4203 177.403 25.9271 176.348 26.4339C176.462 26.997 176.092 27.7008 175.949 27.8698C175.892 27.9542 175.265 28.7707 174.324 29.9814ZM175.094 30.4319C174.98 30.5726 174.752 30.8823 174.752 30.8823C175.037 31.4173 175.35 31.9522 176.177 32.3745C175.864 31.6988 175.493 31.0513 175.094 30.4319ZM169.676 36.5696C169.819 36.3725 170.532 35.4434 171.473 34.2328C171.416 34.1483 171.33 34.0638 171.273 33.9794C170.617 34.824 169.962 35.6968 169.334 36.5415C168.878 37.1609 168.137 38.1744 168.108 38.287C168.108 38.4841 169.306 37.0482 169.676 36.5696ZM157.673 69.5952C157.759 69.9049 157.93 70.2991 158.072 70.4961C158.072 70.4961 158.699 69.9894 158.87 68.8632C158.756 68.9476 158.557 69.1166 158.386 69.201C158.129 69.3699 157.873 69.5107 157.673 69.5952ZM149.861 69.5952C150.83 69.9612 153.51 69.9894 154.765 69.8486C156.361 69.6515 157.587 69.1729 158.614 68.469C158.357 68.2438 158.015 67.9341 157.673 67.6244C157.131 68.0467 156.647 68.3845 156.361 68.5253C154.451 69.2855 151.914 69.4826 151.914 69.4826C151.914 69.4826 155.192 68.7505 156.333 68.1311C156.561 68.0185 156.932 67.737 157.359 67.371C156.932 66.9768 156.532 66.5545 156.19 66.2448C155.991 66.4419 155.82 66.5545 155.592 66.7234C155.164 67.0331 154.537 67.2302 154.052 67.4554C151.743 68.3282 150.203 69.2855 149.861 69.5952ZM153.624 50.5062C153.795 49.9713 153.995 46.5364 152.626 45.0724C152.969 46.3956 153.425 47.9441 153.624 50.5062ZM151.03 42.0316C150.973 42.4821 150.973 43.0452 151.087 43.4675C151.172 43.7491 151.315 44.0306 151.4 44.284C151.457 43.4112 151.229 42.454 151.03 42.0316ZM151.714 43.1297C151.714 44.0869 151.914 44.819 152.256 46.0015C152.284 44.7345 152.028 43.4675 151.714 43.1297ZM146.724 34.1201C147.722 35.4434 148.492 36.457 148.635 36.6541C148.977 37.1327 150.203 38.5686 150.174 38.3715C150.174 38.2589 149.433 37.2453 148.948 36.6259C148.264 35.725 147.551 34.7677 146.867 33.8667C146.838 33.9512 146.781 34.0357 146.724 34.1201ZM145.841 29.4183C145.727 29.3057 145.47 29.0804 144.843 29.5309C143.702 30.5163 144.073 31.3891 142.875 32.1775C143.303 32.2619 143.645 32.2901 143.93 32.2901C144.13 32.2901 144.272 32.2901 144.415 32.2619C144.643 32.2338 144.814 32.2056 144.957 32.1775C145.242 32.825 145.641 33.4163 145.612 34.5425C146.981 33.8104 146.439 31.5017 147.722 31.5299C147.01 30.7134 145.955 29.5591 145.841 29.4183ZM172.128 28.8833C171.387 28.1513 170.218 27.363 168.793 26.7436C165.115 25.1388 160.41 25.1388 159.07 25.1388C157.73 25.1388 153.054 25.1388 149.348 26.7436C147.922 27.363 146.753 28.1513 146.012 28.8833C146.012 28.8833 147.694 30.7416 148.122 31.2483C148.35 31.5017 148.435 31.727 148.293 32.1211C150.859 30.4319 153.767 29.5872 158.985 29.5309H159.213C164.316 29.5872 167.31 30.4319 169.876 32.1211C169.733 31.727 169.819 31.5017 170.047 31.2483C170.475 30.7416 172.128 28.8833 172.128 28.8833ZM171.416 32.7687C171.587 33.36 171.758 34.0075 172.271 34.4017L172.499 34.5425C172.499 33.4163 172.87 32.825 173.155 32.1775C173.583 32.2338 174.124 32.4027 175.236 32.2056C174.181 31.5017 174.409 30.7134 173.611 29.8406C173.526 29.7561 173.44 29.6435 173.326 29.5591C173.041 29.362 172.841 29.3057 172.67 29.2775C172.471 29.2775 172.357 29.362 172.3 29.4464C172.185 29.5591 171.102 30.7416 170.361 31.5299C171.045 31.5017 171.216 32.093 171.416 32.7687ZM170.503 34.3735C170.617 34.2328 170.731 34.092 170.845 33.9231C169.334 32.5998 167.082 31.2765 164.63 30.7416C162.976 30.3755 161.636 30.3474 160.809 30.3755C160.125 30.3755 159.669 30.6571 159.669 31.0794C159.241 30.995 159.127 30.46 159.07 30.3755C159.042 30.6008 158.813 31.0231 158.471 31.0794C158.471 30.6571 158.044 30.4037 157.331 30.3755C156.504 30.3755 155.164 30.4037 153.51 30.7416C151.001 31.2765 148.834 32.4872 147.323 33.8386C147.437 33.9794 147.551 34.1201 147.665 34.2609C149.034 32.9939 150.83 32.0085 152.769 31.4454C154.366 30.995 156.333 30.826 157.245 30.8542C158.044 30.8823 158.158 31.3328 158.072 31.5862C158.443 31.6144 158.956 31.3047 159.07 31.1076C159.156 31.2765 159.64 31.6144 160.096 31.5862C160.011 31.3328 160.125 30.8823 160.923 30.8542C161.836 30.826 163.803 30.9668 165.4 31.4454C167.253 32.0367 169.163 33.1629 170.503 34.3735ZM164.544 41.4967C164.744 41.4967 164.915 41.4685 165.086 41.3841C165.229 41.2996 165.257 41.2433 165.314 41.1588C166.483 39.4977 168.622 36.823 170.247 34.7114C166.939 31.5017 162.206 31.2765 160.98 31.361C160.695 31.3891 160.353 31.6144 160.724 32.093C160.467 32.2056 159.441 32.1211 159.07 31.7833C158.699 32.1211 157.673 32.2338 157.416 32.093C157.787 31.6144 157.445 31.3891 157.16 31.361C155.905 31.2765 150.944 31.7551 147.95 34.6551C149.604 36.823 153.054 41.3278 153.14 41.4122C153.197 41.4967 153.368 41.6093 153.596 41.6093H153.681C153.852 41.6093 154.023 41.4685 154.223 41.2715C154.594 40.8773 154.765 40.6802 155.107 40.3142C155.791 39.6385 156.418 39.1035 156.532 39.0191C156.818 38.7657 156.903 38.5404 156.932 38.3434C156.903 38.09 156.704 38.0055 156.59 37.8647L156.532 37.9492C156.418 37.8647 156.304 37.4706 156.304 37.4706L156.247 37.6395C156.247 37.6395 155.991 37.0482 155.592 37.0764C155.05 37.1609 154.679 36.9075 154.651 36.9075C154.622 36.9075 154.594 37.0764 154.594 37.3016H154.565C154.195 36.9919 154.08 36.1754 154.793 35.6405C155.249 35.3026 155.335 35.3308 155.677 35.1619C155.82 35.1056 155.934 34.9648 155.962 34.9085C156.19 34.6269 156.675 34.458 156.932 34.4017C157.274 34.3172 158.072 34.2046 158.87 34.2328C159.327 34.2609 159.754 34.3454 160.039 34.4862C160.268 34.5706 160.952 35.0774 161.351 35.5842C161.608 35.8939 162.035 36.823 162.263 37.4142C162.777 38.6249 162.72 38.5123 163.062 39.3006C163.461 40.2297 163.689 40.7365 164.06 41.2433C164.174 41.4122 164.288 41.4685 164.544 41.4967ZM154.423 50.3373C154.423 50.8159 154.765 51.4917 155.221 51.745C154.964 51.013 154.736 50.7878 154.423 50.3373ZM160.724 55.7149C160.553 55.9964 160.41 56.1372 160.182 56.3343C160.268 56.1372 160.268 55.912 160.268 55.912C160.153 56.1372 159.925 56.4187 159.754 56.5877C159.355 56.9818 159.27 57.376 159.27 57.376C159.27 57.376 159.384 57.2352 159.868 56.9537C160.382 56.644 160.553 56.1935 160.724 55.7149ZM161.037 60.7264C160.895 60.5293 160.524 60.0507 160.211 59.7692C160.439 60.2759 160.524 60.6138 160.553 60.7264L160.61 60.6983L160.781 60.6701L160.98 60.6983L161.037 60.7264ZM160.781 64.837C161.066 65.1186 161.408 65.4564 161.665 65.7098C161.807 65.5409 161.95 65.4001 162.035 65.2875L161.151 64.471L160.781 64.837ZM159.184 63.2604C159.583 63.6545 160.096 64.2176 160.439 64.5273C160.667 64.3021 160.809 64.1895 160.809 64.1895L159.469 62.9788C159.412 63.007 159.298 63.1196 159.184 63.2604ZM159.042 62.5002V62.9507L159.27 62.7254L159.042 62.5002ZM159.042 62.2468C159.042 62.2186 159.27 61.9652 159.384 61.8808L159.412 61.8526C159.355 61.374 159.241 60.7827 159.07 60.5575C159.013 60.7827 159.042 61.6274 159.042 62.2468ZM159.583 60.0226C159.64 60.3886 159.697 61.2614 159.697 61.5429C159.783 61.4303 159.897 61.3458 160.011 61.2332C160.011 61.0643 159.897 60.3886 159.583 60.0226ZM159.013 59.6565C159.013 59.6565 159.099 59.6284 159.298 59.5158C159.469 59.4032 159.612 59.2905 159.697 59.1216C159.783 58.9527 159.783 58.7837 159.754 58.6993C159.754 58.6993 159.726 58.8682 159.498 59.0653C159.412 59.1498 159.27 59.2905 159.184 59.375C159.07 59.5158 159.013 59.6565 159.013 59.6565ZM158.671 57.1789C158.671 56.5595 157.987 56.5032 157.816 55.8838C157.759 56.7566 158.357 56.7566 158.671 57.1789ZM159.042 58.5867C159.042 58.5867 159.099 58.4459 159.298 58.3051C159.441 58.2206 160.211 57.742 160.382 57.5449C160.524 57.3479 160.581 57.0663 160.581 57.0663C160.581 57.0663 160.439 57.2915 160.125 57.4605C159.868 57.6012 159.241 57.9954 159.127 58.1643C159.07 58.2488 159.042 58.3333 159.042 58.4177L158.985 58.2488C158.785 57.8546 158.215 57.6857 157.873 57.2915C157.644 57.0381 157.644 56.9255 157.644 56.9255C157.644 57.1789 157.701 57.376 157.787 57.5168C157.873 57.6576 158.158 57.8828 158.557 58.1362C158.985 58.4177 159.042 58.5867 159.042 58.5867ZM158.756 59.375C158.756 59.375 158.699 58.8964 158.329 58.7556C158.357 59.0934 158.756 59.375 158.756 59.375ZM158.585 61.8808C158.585 61.5148 158.557 61.0924 158.528 60.9235C158.414 61.0924 158.329 61.3458 158.272 61.5711L158.585 61.8808ZM156.504 60.8672C156.618 60.839 156.875 60.6983 157.017 60.6701L157.131 60.642C157.217 60.3604 157.331 59.9099 157.445 59.7129C157.359 59.6847 156.647 60.6701 156.504 60.8672ZM157.644 60.9235L157.901 61.1487C157.93 60.8672 158.072 59.9381 158.015 59.8255C157.673 60.4449 157.644 60.8672 157.644 60.9235ZM157.673 55.6586C157.673 55.6586 157.673 55.4896 157.559 55.2926C157.502 55.1799 157.331 55.0392 157.217 54.9265C157.131 54.8421 157.131 54.7858 157.131 54.7858C157.103 54.8984 157.16 55.1518 157.188 55.2362C157.217 55.3489 157.302 55.4615 157.416 55.5459C157.587 55.6304 157.673 55.6586 157.673 55.6586ZM157.388 62.1342L154.565 64.7526C154.736 64.9215 154.936 65.1186 155.05 65.2593H155.192C155.364 65.0904 158.186 62.5565 158.414 62.3594V62.3031C158.3 62.1623 157.987 61.8526 157.787 61.6274C157.53 61.374 157.217 61.0361 156.989 61.0924C156.761 61.1487 156.761 61.1769 156.447 61.2332C155.848 61.3458 155.392 61.2051 155.164 61.1487L155.107 61.1206L155.078 61.3177L155.05 61.5148C155.335 61.5711 155.506 61.5711 156.219 61.5711C156.447 61.5711 156.59 61.6555 156.39 61.8526C156.39 61.8526 154.537 63.6545 154.451 63.7671C154.052 64.1332 154.052 64.2176 154.166 64.3302C154.195 64.3584 154.195 64.3302 154.28 64.4429L155.021 63.7953L156.219 62.7536L157.131 61.9089L157.245 61.8808L157.416 62.0497L157.388 62.1342ZM161.722 61.5429C162.406 61.5429 162.577 61.5429 162.862 61.4866L162.805 61.2614L162.777 61.0924H162.748C162.52 61.1487 162.064 61.2895 161.465 61.1769C161.18 61.1206 161.151 61.1206 160.923 61.0361C160.724 60.9798 160.382 61.3177 160.125 61.5711C159.897 61.7963 159.612 62.1342 159.498 62.2468V62.3313C159.726 62.5283 162.548 65.0904 162.72 65.2312H162.862C162.976 65.1186 163.176 64.9215 163.347 64.7244L160.524 62.106L160.496 61.9934L160.667 61.8245L160.781 61.8526L161.693 62.6973L162.891 63.739L163.632 64.3866C163.746 64.2739 163.717 64.3021 163.746 64.2739C163.86 64.1613 163.832 64.0768 163.461 63.7108C163.347 63.5982 161.522 61.7963 161.522 61.7963C161.38 61.6274 161.494 61.5429 161.722 61.5429ZM161.151 54.0819C161.151 54.0819 161.579 53.6596 161.75 52.3081C161.836 52.4208 161.978 52.5052 162.035 52.7023C162.32 52.3644 162.862 50.5344 162.919 49.915C163.09 49.9994 162.948 49.9431 163.147 50.0558C163.29 49.8024 163.603 48.7606 163.746 47.3247L163.974 47.4092C164.06 46.7616 164.174 45.6918 164.202 44.9597C164.231 44.3122 164.202 43.0171 163.946 42.2569C163.66 41.4967 163.546 41.1025 163.119 40.4268C163.119 40.4268 162.948 40.5113 162.891 40.6239C162.777 40.2579 162.434 39.3851 162.263 39.0754C161.836 38.2589 161.636 37.7521 161.208 37.4706C161.408 37.4706 161.494 37.5269 161.722 37.5269C161.437 37.2735 161.322 37.0764 161.009 36.8512C161.123 36.7948 161.294 36.7948 161.608 36.8512C161.18 36.457 161.037 35.8657 159.925 35.4716C160.125 35.4434 160.268 35.4997 160.524 35.4997C160.382 35.2745 160.039 34.9366 159.498 34.7677C158.357 34.5425 156.818 34.5143 156.076 35.3589C156.019 35.4153 155.82 35.4716 155.649 35.5279C155.535 35.5842 155.478 35.6123 155.449 35.6405C155.335 35.725 155.306 35.8657 155.535 36.2036C155.221 36.1473 155.135 35.8657 155.078 35.8939C154.964 35.9784 154.85 36.0628 154.736 36.2317C154.622 36.4007 154.537 36.7104 154.565 36.8512C154.594 36.8793 154.879 36.9919 154.907 36.6822C154.936 36.5696 155.421 36.5415 155.592 36.5415C155.848 36.5415 156.076 36.5978 156.39 36.5978C156.276 36.6259 155.934 36.7385 155.791 36.7667C155.649 36.7948 155.649 36.9638 155.763 36.9638C155.905 36.9919 155.962 36.9075 156.105 36.8793C156.162 36.9075 156.105 37.0764 156.162 37.1609C157.074 36.9638 157.131 37.921 158.101 37.724C157.644 37.3579 157.245 36.7948 156.903 36.5978C157.873 36.7385 158.386 37.5832 159.412 37.6395C159.393 37.5832 159.355 37.4893 159.298 37.3579C159.64 37.3579 159.897 37.6395 160.011 37.6113C159.868 37.7521 159.583 37.8647 159.184 37.921C159.241 38.0618 159.64 38.09 159.783 38.09C159.583 38.287 159.327 38.3715 158.87 38.287C158.728 38.4278 158.5 38.7375 157.844 39.1598C157.844 39.0472 157.854 38.944 157.873 38.8501C157.416 39.1035 157.131 39.5822 156.789 39.6948C156.903 39.5259 156.96 39.2443 157.046 39.1035C155.877 40.1453 154.765 41.1588 154.337 41.919C153.881 42.7637 153.71 43.6365 153.795 45.0724C153.852 45.8325 154.166 48.0286 154.223 48.4509C154.309 48.4228 154.394 48.3665 154.451 48.3383C154.736 49.9431 155.563 52.1674 156.019 52.8994C156.105 52.7305 156.133 52.646 156.276 52.5615C156.333 52.9839 156.561 53.4625 156.932 53.7722C156.932 53.4906 157.046 53.3217 157.074 53.2091C157.16 53.5188 157.103 54.4761 157.673 55.011C157.644 54.7576 157.73 54.5324 157.816 54.1664C157.901 54.4761 157.93 54.8702 158.072 55.1799C158.243 55.5459 158.471 55.912 158.671 55.9964C158.642 55.2362 158.756 55.2644 158.785 54.9547C158.785 55.011 159.099 55.2925 159.241 56.2498C159.811 55.8275 160.039 54.4197 160.039 54.4197C160.039 54.4197 160.211 54.5605 160.325 54.9547C160.809 54.4479 160.98 53.7722 161.123 53.2654C161.18 53.547 161.208 53.913 161.151 54.0819ZM151.971 47.9723C152.398 48.5636 153.197 50.4499 153.197 51.745C153.71 50.4499 152.883 47.8878 152.113 46.4801C152.113 46.9024 151.999 47.015 151.914 47.184C151.771 45.551 150.716 44.3403 150.545 43.2141C150.516 43.4112 150.488 43.552 150.431 43.7209C150.06 43.0734 149.718 42.3132 149.49 41.3841C149.433 41.4685 149.29 41.7501 149.29 42.0598C148.777 40.6521 149.262 40.0608 149.433 39.9763C149.832 39.7511 150.288 40.1171 150.659 40.5113C151.201 41.1025 151.771 42.3132 153.624 42.3413C153.909 42.3413 154.023 42.285 153.881 42.2569C152.37 41.9753 152.085 41.3841 150.802 40.0045C150.003 39.1598 149.233 38.6531 148.293 39.7511C146.468 41.8627 145.898 43.6365 145.584 45.1005C145.384 45.9452 145.27 47.6908 145.498 48.5636C145.727 48.4791 145.727 48.4228 145.727 48.4228C145.727 48.4228 145.955 50.8441 146.382 51.4353C146.496 51.1819 146.667 50.5344 146.667 49.9713C146.895 50.6752 147.095 51.0693 147.437 51.4635C147.608 50.8722 147.608 50.3091 147.523 49.6334C147.893 50.5062 148.179 50.8722 148.378 51.013C148.521 50.6189 148.692 49.9994 148.578 48.0286C148.72 48.7606 148.806 49.3519 148.834 49.8024C148.948 49.8868 149.091 49.9994 149.233 50.0558C149.29 49.8587 149.49 49.5771 149.176 47.0713C150.032 49.7742 149.547 50.5062 149.462 50.7033C149.176 50.5344 148.977 50.3373 148.863 50.1965C148.891 51.013 148.72 51.3227 148.606 51.6324C148.293 51.4635 148.093 51.2383 147.893 50.9286C147.922 51.7732 147.694 52.28 147.694 52.28C147.694 52.28 147.067 51.6043 146.895 51.0693C146.924 51.379 146.696 52.3644 146.496 52.5334C145.784 51.6324 145.555 49.0422 145.555 49.0422L145.441 49.1266C145.47 49.7461 145.555 50.7315 145.641 51.8295C145.755 53.1246 145.869 54.5605 145.983 55.8556C146.268 58.9527 146.61 62.0497 147.038 65.1186C147.038 65.1186 147.095 65.6254 147.181 65.9069C147.266 65.5972 147.295 64.3584 147.238 63.6827C147.209 63.5138 147.466 63.2322 147.466 62.3031C147.466 61.9371 147.038 57.1789 146.867 55.3207C146.838 55.0955 146.81 54.5887 146.81 54.5887L146.838 54.7858C146.981 55.4896 147.095 56.1935 147.209 56.8974C147.266 57.3197 147.352 57.7702 147.409 58.2206C147.608 59.6002 147.779 60.9798 147.808 62.3594C147.836 63.2604 147.523 63.4856 147.551 63.6827C147.722 64.7807 147.58 65.8506 147.352 66.47C147.266 66.4419 147.181 66.3574 147.152 66.3011C147.295 67.1457 147.494 67.8214 147.494 67.8214C147.836 67.1176 148.007 66.3574 147.95 64.471C147.95 64.3302 148.236 63.9079 148.264 62.9225C148.264 62.641 148.236 61.7118 148.15 60.5857C148.007 58.5585 147.836 56.5314 147.665 54.5324C147.665 54.4479 147.637 54.1945 147.637 54.1664C147.665 54.2508 147.694 54.3353 147.694 54.4479C148.264 57.0381 148.492 59.741 148.635 62.3594C148.692 63.5419 148.236 64.4429 148.264 64.6118C148.321 65.203 148.321 65.1749 148.293 65.6817C148.264 66.3011 148.236 66.3855 148.236 66.3855C148.435 65.9351 149.091 64.3865 148.891 59.5439C148.891 59.4313 148.891 59.3187 148.863 59.1779C148.692 55.7993 148.407 53.6033 148.407 53.6033C148.72 54.5324 149.005 56.5595 149.176 58.9245L149.233 58.8119C149.576 57.9109 149.633 57.01 149.576 56.0809C149.462 54.3071 149.262 52.8712 149.262 52.8712L149.319 53.012C149.376 53.2091 149.547 53.744 149.718 54.645C149.832 55.2644 149.946 55.912 149.975 56.5314V56.7848C150.659 55.7712 150.374 53.7722 150.032 51.6887C150.317 52.3644 150.859 54.2227 150.716 55.6304C151.742 54.6731 151.172 52.8149 150.802 50.647C151.372 51.9421 151.8 53.4906 151.657 54.5324C152.484 53.4625 152.17 52.0547 151.429 49.2956C151.885 50.0276 152.512 51.7732 152.541 52.8431C153.14 51.7169 152.512 49.6616 151.971 47.9723ZM153.054 57.6857C153.225 57.4323 152.969 57.3478 152.512 57.6576C152.227 57.8265 151.258 58.474 150.745 59.1498C150.631 59.3187 150.659 59.4031 150.887 59.2061C151.372 58.7274 152.142 58.0236 152.113 58.3614C152.113 58.643 152.142 58.9245 152.256 59.2061L152.484 59.1498L153.14 58.9808C152.911 58.474 152.854 57.9954 153.054 57.6857ZM152.74 61.0361C152.484 61.3177 152.256 61.6274 152.256 62.0497C152.256 62.3313 152.455 62.5002 152.683 62.5002C153.054 62.472 152.854 62.0779 153.083 62.3031C153.168 62.4157 153.453 62.0779 153.539 61.9934C153.368 62.0215 153.14 62.0497 153.168 61.7963C153.197 61.6274 153.339 61.4866 153.425 61.3458C153.51 61.2332 153.824 60.642 154.023 60.7264C154.109 60.7827 154.052 61.3458 153.909 61.6837C153.567 62.3876 153.51 62.8662 153.738 63.007H153.767V63.0351C153.738 63.2885 153.738 63.5701 154.052 63.739L154.08 63.7108C153.995 63.4574 154.08 63.3167 154.109 63.204C154.109 63.1759 154.137 63.0914 153.938 63.0351H153.909H154.252C154.394 63.007 154.537 62.9788 154.565 62.7254C154.565 62.641 154.594 62.5565 154.594 62.4439C154.651 62.0497 154.708 61.6837 154.765 61.4021C154.822 61.0924 154.907 60.3041 154.907 60.3041L155.078 60.2759C155.164 60.2759 155.306 60.3323 155.392 60.5012C155.421 60.5575 155.421 60.642 155.392 60.7546C155.478 60.7264 155.592 60.642 155.592 60.473V60.4449C155.706 60.3604 155.763 60.276 155.791 60.1633C155.848 59.8818 155.506 59.6002 155.478 59.5721C155.278 59.4313 155.335 59.1216 155.421 58.8682L155.535 58.5585C155.649 58.6711 155.763 58.8119 155.934 58.8964C156.39 59.2061 156.846 59.1498 156.846 59.1498C156.846 59.1498 156.732 58.8964 156.704 58.5867C156.647 58.1643 156.675 57.8265 156.675 57.8265L157.017 58.1925C157.017 58.1925 157.217 57.5168 157.103 56.2217C156.96 54.7295 156.618 54.1664 156.561 53.9411C156.447 53.6033 156.247 53.2654 156.247 53.2654C156.247 53.2654 156.219 53.4343 155.962 53.6596C155.677 53.2936 155.164 52.5897 155.021 52.1111C154.936 52.2518 154.822 52.3645 154.736 52.4771L154.679 52.5334V52.4771C154.622 52.1111 154.423 51.8577 154.223 51.6043C154.08 51.4353 153.938 51.2383 153.881 51.0693C153.767 51.4635 153.738 51.8858 153.71 52.28C153.681 52.6742 153.653 52.9839 153.567 53.2091L153.738 53.0965C153.824 53.0402 153.881 53.012 153.909 53.012H153.938L153.966 53.0683C153.852 53.5751 153.738 54.1664 153.71 54.5042C153.653 55.011 153.71 55.4615 153.738 55.6867L154.137 55.4615C154.137 55.4615 153.909 56.1935 154.023 57.4323C154.052 57.6294 154.023 57.9954 153.995 58.108C154.223 58.0799 154.423 57.9673 154.537 57.8828C154.451 58.2206 154.366 58.5022 154.28 58.6148C153.966 59.0371 153.311 59.1498 152.826 59.2624C152.227 59.4313 151.628 59.5439 151.087 59.8255C150.916 59.9099 150.716 60.107 150.773 60.2478C150.83 60.3886 151.03 60.4167 151.115 60.4167L151.144 60.5012C151.286 60.6983 151.714 60.5857 151.828 60.5293C151.942 60.473 152.028 60.3886 152.056 60.3604C152.028 60.3886 151.885 60.3323 151.8 60.3041L151.742 60.2196C151.714 59.9662 152.769 59.9381 152.94 59.9381C153.111 59.9381 153.168 59.9662 153.225 60.0789C153.311 60.1915 153.368 60.3604 152.74 61.0361ZM153.254 64.6963C153.054 65.3438 152.626 66.3011 151.971 67.202C151.657 67.6525 151.172 68.1311 151.172 68.1311C151.172 68.1311 151.144 68.2156 151.115 68.3564L151.03 68.4127L151.571 68.1311C151.657 68.0748 151.743 68.0467 151.828 67.9904C152.17 67.7933 152.569 67.6244 152.94 67.4554C153.311 66.7797 153.767 65.9632 153.909 65.7661C153.852 65.9351 153.767 66.3855 153.368 67.2865L153.653 67.1739C154.252 66.9486 154.793 66.7516 155.05 66.6389C155.478 66.4419 155.649 66.3011 155.82 66.1603L155.991 66.0195L155.563 65.5972L155.421 65.7098C155.421 65.7098 155.164 65.9351 154.936 65.738C154.736 65.5691 153.852 64.5836 153.767 64.4992C153.681 64.3866 153.567 64.2176 153.795 63.9079V63.8798C153.51 63.6264 153.482 63.2885 153.482 63.1196C153.368 62.9788 153.311 62.7817 153.339 62.5283C153.254 62.5846 153.168 62.6128 153.083 62.5846C152.997 62.6691 152.854 62.7536 152.712 62.7536H152.655C152.512 62.7536 152.37 62.7254 152.256 62.641C152.142 62.5283 152.142 62.5565 152.028 62.3594L151.999 62.3313C151.486 62.8662 151.001 63.5419 150.317 64.6118C149.462 65.9632 149.262 66.4419 149.091 66.9486C149.661 66.9205 149.975 66.836 150.688 66.0758C151.03 65.738 151.914 64.4147 152.484 63.739C151.999 64.8933 151.486 65.7661 151.058 66.3292C150.574 67.0049 150.06 67.4273 150.06 67.4273C150.06 67.4273 149.832 67.568 149.718 68.2438C150.089 68.2438 151.087 67.7088 151.999 66.47C152.313 66.0758 152.512 65.7943 153.254 64.6963ZM159.327 69.0321C159.327 69.7078 159.897 70.3835 160.011 70.4961C160.011 70.4961 160.211 70.2427 160.325 69.567C159.868 69.37 159.555 69.1729 159.327 69.0321ZM163.204 69.8204C164.459 69.9894 167.139 69.933 168.108 69.567C167.738 69.2855 166.227 68.3001 163.889 67.3991C163.404 67.202 162.777 66.9768 162.349 66.6671C162.092 66.47 161.921 66.3574 161.665 66.104C160.895 65.4001 158.87 63.3167 158.5 62.9225L157.16 64.1332C157.16 64.1332 160.724 67.568 161.636 68.0467C162.777 68.6661 166.084 69.3981 166.084 69.3981C166.084 69.3981 163.575 69.201 161.636 68.4408C160.496 67.9904 156.846 64.4429 156.846 64.4429L155.962 65.2593C156.418 65.738 157.388 66.836 158.985 68.103C160.039 69.0039 161.379 69.5952 163.204 69.8204ZM165.713 63.7953C166.284 64.4992 167.167 65.7943 167.51 66.1321C168.251 66.8923 168.564 66.9768 169.106 67.0049C168.935 66.4982 168.736 65.9914 167.88 64.6399C167.424 63.9361 166.683 62.7817 165.913 61.9371C165.913 62.0779 165.913 62.1905 165.856 62.3313L165.827 62.4157C165.77 62.5002 165.713 62.5846 165.628 62.641C165.514 62.7254 165.343 62.7536 165.2 62.7536C165.058 62.7254 164.915 62.6691 164.829 62.5846C164.744 62.5846 164.658 62.5565 164.544 62.5283C164.573 62.7817 164.516 62.9788 164.402 63.1196C164.402 63.2885 164.373 63.5982 164.117 63.8516L164.145 63.9079C164.345 64.2458 164.259 64.3866 164.174 64.4992C164.088 64.5836 163.204 65.5691 163.005 65.738C162.777 65.9351 162.52 65.7098 162.52 65.7098L162.377 65.5972C162.377 65.5972 162.149 65.8224 161.978 65.9914L162.035 66.0477C162.32 66.3011 162.663 66.4982 163.033 66.6671C163.347 66.8079 164.288 67.1457 164.943 67.3991C164.801 66.9486 164.63 66.4137 164.43 65.8788C164.601 66.104 165.058 66.8923 165.428 67.5962H165.457C165.97 67.8214 166.654 68.1593 167.139 68.469C167.11 68.3001 167.053 68.1875 167.053 68.1875C167.053 68.1875 166.569 67.7088 166.255 67.2583C165.599 66.3292 165.2 65.372 164.972 64.7526C165.713 65.8506 165.884 66.1603 166.169 66.5263C167.082 67.7651 168.08 68.2719 168.45 68.3001C168.308 67.6244 168.08 67.4554 168.08 67.4554C168.08 67.4554 167.624 67.0894 167.139 66.4137C167.253 66.5826 167.367 66.7234 167.11 66.3855C166.911 66.1321 166.996 66.2166 167.11 66.3574C166.683 65.7943 166.198 64.9215 165.713 63.7953ZM164.829 58.9808L165.428 59.1216C165.514 59.1498 165.599 59.1779 165.713 59.1779C165.799 58.8964 165.856 58.6148 165.856 58.3333C165.856 58.0236 166.597 58.6993 167.082 59.1779C167.281 59.375 167.338 59.2905 167.196 59.1216C166.711 58.4459 165.713 57.7983 165.428 57.6294C164.943 57.3479 164.715 57.4042 164.886 57.6576C165.086 58.0236 165.058 58.474 164.829 58.9808ZM163.946 53.0683L163.974 53.012H164.031C164.06 53.012 164.117 53.0402 164.202 53.0965L164.373 53.2091C164.259 52.9839 164.259 52.646 164.231 52.28C164.202 51.8858 164.202 51.4917 164.088 51.1256L164.06 51.0693C164.003 51.2664 163.86 51.4353 163.717 51.6043C163.518 51.8577 163.318 52.1392 163.261 52.4771V52.5334L163.204 52.4771C163.318 52.5615 162.919 52.1392 162.919 52.1111C162.777 52.6742 161.779 53.8848 161.551 54.1382C161.522 54.1664 161.151 54.7295 161.009 56.0809C160.866 57.376 161.009 58.1643 161.009 58.1643L161.351 57.7983C161.351 57.7983 161.38 58.1643 161.322 58.5585C161.294 58.8682 161.18 59.1216 161.18 59.1216C161.18 59.1216 161.864 59.2342 162.406 58.6148L162.491 58.8682C162.577 59.1216 162.634 59.4032 162.434 59.5721C162.406 59.6002 162.064 59.8818 162.121 60.1633C162.149 60.2478 162.178 60.3604 162.32 60.4449V60.473C162.32 60.642 162.463 60.7264 162.52 60.7546C162.491 60.6138 162.52 60.5293 162.52 60.5012C162.606 60.3323 162.72 60.2759 162.834 60.2759L163.005 60.3041C163.005 60.3041 163.09 61.0924 163.147 61.4021C163.204 61.6837 163.29 62.0497 163.318 62.4439C163.318 62.5283 163.347 62.6128 163.347 62.7254C163.375 62.9788 163.546 63.007 163.689 63.0351H164.031H164.003C163.803 63.0914 163.803 63.1759 163.832 63.204C163.86 63.3167 163.917 63.4574 163.86 63.7108L163.889 63.739C164.202 63.5701 164.202 63.2885 164.174 63.0351V63.007H164.202C164.43 62.8662 164.373 62.4157 164.031 61.6837C163.86 61.3458 163.803 60.7827 163.917 60.7264H163.946C164.003 60.7264 164.06 60.7264 164.231 60.9517C164.345 61.1206 164.459 61.2332 164.601 61.4303C164.744 61.5992 164.829 61.74 164.829 61.8808L164.801 61.9934L164.687 62.0215L164.459 61.9934C164.544 62.0779 164.829 62.3876 164.915 62.3031C165.115 62.0497 164.943 62.4439 165.314 62.5002C165.542 62.5002 165.742 62.3594 165.742 62.0497C165.742 61.9371 165.713 61.8808 165.713 61.7963C165.656 61.5148 165.457 61.2614 165.343 61.1487L165.257 61.0643C164.63 60.3886 164.687 60.2196 164.715 60.1633C164.772 60.0507 164.829 60.0226 165.001 60.0226C165.257 60.0226 165.514 60.0507 165.542 60.0507C165.799 60.107 166.227 60.1633 166.198 60.3041L166.141 60.3886C166.055 60.4167 165.913 60.473 165.884 60.4449C165.913 60.473 165.998 60.5575 166.112 60.6138C166.227 60.6701 166.654 60.7827 166.797 60.5857L166.854 60.5012C166.939 60.5012 167.139 60.473 167.196 60.3323C167.224 60.1915 167.053 60.0226 166.882 59.9099C166.74 59.8255 166.312 59.6565 165.941 59.5721C165.799 59.5439 165.628 59.4876 165.485 59.4595L164.715 59.2624C164.687 59.2624 164.288 59.1216 164.145 59.0653L163.974 58.9808C163.832 58.9245 163.746 58.8401 163.66 58.6993C163.575 58.5867 163.489 58.277 163.404 57.9391C163.489 57.9954 163.717 58.1362 164.003 58.1925C163.974 58.0799 163.946 57.7139 163.974 57.5168C164.088 56.278 164.117 55.5741 164.117 55.5741L164.373 55.8275C164.402 55.6023 164.345 55.0955 164.288 54.5887C164.145 54.1664 164.06 53.5751 163.946 53.0683ZM167.082 43.4112C167.196 42.9889 167.196 42.4258 167.139 41.9753C166.939 42.4258 166.711 43.3549 166.768 44.2277C166.854 43.9743 166.996 43.6928 167.082 43.4112ZM165.884 45.9452C166.227 44.7627 166.426 44.0588 166.426 43.0734C166.112 43.4112 165.856 44.6782 165.884 45.9452ZM164.772 44.8753C165.2 43.5802 164.829 42.9326 164.601 42.7918C164.601 43.3831 164.744 43.6646 164.772 44.8753ZM164.516 50.4499C164.715 47.8878 165.172 46.3393 165.514 45.016C164.145 46.5083 164.345 49.915 164.516 50.4499ZM170.674 49.6053C170.589 50.2528 170.589 50.8159 170.76 51.4353C171.074 51.0412 171.273 50.647 171.53 49.9431C171.53 50.5062 171.701 51.1538 171.815 51.4072C172.243 50.8159 172.471 48.3946 172.471 48.3946C172.471 48.3946 172.471 48.4509 172.699 48.5354C172.927 47.6626 172.813 45.917 172.613 45.0724C172.3 43.6083 171.701 41.8346 169.905 39.7229C168.964 38.6249 168.194 39.1317 167.395 39.9763C166.112 41.3559 165.856 41.9472 164.316 42.2287C164.174 42.2569 164.288 42.3413 164.573 42.3132C166.398 42.285 166.968 41.0744 167.538 40.4831C167.909 40.089 168.365 39.7229 168.764 39.9482C168.907 40.0326 169.42 40.5957 168.907 42.0316C168.907 41.6938 168.793 41.4404 168.707 41.3559C168.479 42.285 168.137 43.0452 167.766 43.6928C167.709 43.5238 167.681 43.3831 167.652 43.186C167.481 44.3403 166.426 45.5228 166.284 47.1558C166.169 46.9869 166.084 46.8743 166.084 46.4519C165.286 47.8878 164.487 50.4499 165.001 51.745C164.972 50.4499 165.799 48.5636 166.227 47.9723C165.685 49.6616 165.058 51.7169 165.599 52.9839C165.628 51.914 166.255 50.1684 166.711 49.4364C165.97 52.1955 165.656 53.6033 166.483 54.6731C166.341 53.6314 166.768 52.0547 167.338 50.7878C166.939 52.9557 166.398 54.8139 167.424 55.7712C167.281 54.3634 167.823 52.4771 168.108 51.8295C167.766 53.913 167.481 55.912 168.165 56.9255C168.165 56.1935 168.308 55.4615 168.45 54.7576C168.622 53.8567 168.907 52.9839 168.907 52.9839C168.907 52.9839 168.707 54.4479 168.564 56.1935C168.536 56.4751 168.536 56.7848 168.536 57.0945C168.536 57.4605 168.564 57.8265 168.65 58.1925C168.707 58.5022 168.793 58.8119 168.964 59.0934C169.135 56.7566 169.42 54.7295 169.733 53.7722C169.733 53.7722 169.448 55.9683 169.277 59.3468C169.277 59.4595 169.277 59.5721 169.249 59.7129C169.021 64.5555 169.676 66.104 169.905 66.5545C169.905 66.5545 169.848 66.47 169.848 65.8506C169.819 65.3157 169.819 65.372 169.876 64.7807C169.905 64.6118 169.448 63.7108 169.505 62.5283C169.534 61.7963 169.591 61.0924 169.648 60.3886C169.705 59.741 169.762 59.1216 169.819 58.5304C169.905 57.9954 169.933 57.4605 170.019 56.9255C170.133 56.1372 170.275 55.377 170.418 54.5887C170.532 53.9693 170.475 54.5042 170.446 54.6731C170.389 55.377 170.247 56.8974 170.133 58.4459C170.047 59.6002 169.791 61.9371 169.848 63.0351C169.905 63.9924 170.19 64.4429 170.161 64.5836C170.104 66.47 170.304 67.2302 170.617 67.9341C170.617 67.9341 170.817 67.2583 170.959 66.4137C170.931 66.47 170.874 66.5545 170.76 66.5826C170.532 65.9632 170.389 64.8933 170.56 63.7953C170.589 63.5982 170.304 63.3448 170.304 62.472C170.332 61.0924 170.532 59.6847 170.703 58.3333C170.76 57.8828 170.817 57.4323 170.902 57.01C170.959 56.7284 170.988 56.4751 171.045 56.1935C171.102 55.743 171.188 55.3207 171.273 54.8984L171.302 54.7013C171.302 54.7013 171.302 55.011 171.245 55.4333C171.102 57.2915 170.674 62.0497 170.674 62.4157C170.646 63.3448 170.902 63.6264 170.902 63.7953C170.845 64.471 170.874 65.7098 170.959 66.0195C171.045 65.738 171.102 65.2312 171.102 65.2312C171.102 65.2312 171.359 63.3167 171.672 60.5575C171.729 60.1352 171.758 59.7129 171.815 59.2905C171.843 58.8964 171.9 58.474 171.929 58.0799C171.986 57.6012 172.014 57.0945 172.071 56.6158C172.1 56.3906 172.1 56.1935 172.128 55.9683C172.243 54.6731 172.385 53.2091 172.471 51.9421C172.471 51.9421 172.642 49.8587 172.699 49.2111L172.585 49.1266C172.585 49.1266 172.357 51.7169 171.644 52.6178C171.444 52.4489 171.245 51.4917 171.245 51.1538C171.102 51.6606 170.446 52.3645 170.446 52.3645C170.446 52.3645 170.218 51.8577 170.247 51.013C170.019 51.3227 169.848 51.548 169.534 51.7169C169.42 51.4353 169.249 51.0975 169.277 50.281C169.163 50.4218 168.964 50.6189 168.679 50.7878C168.593 50.5907 168.137 49.8587 168.964 47.1558C168.622 49.6334 168.821 49.9431 168.907 50.1402C169.049 50.0839 169.192 49.9713 169.306 49.8868C169.334 49.4363 169.42 48.8451 169.562 48.1131C169.448 50.0839 169.591 50.7033 169.762 51.0975C170.047 50.8441 170.304 50.4781 170.674 49.6053ZM176.234 32.4308C174.894 32.7124 174.067 32.6842 173.554 32.6842C173.212 33.3881 172.955 34.0638 172.955 35.3026C172.414 35.1337 172.128 34.9929 171.843 34.6832C171.473 35.19 171.245 35.4716 170.845 35.9784C174.352 42.1443 174.352 47.8315 174.409 49.4364C177.118 47.916 178.857 46.4519 179.199 46.1704C178.886 40.455 178.002 36.1473 176.234 32.4308ZM177.232 66.9768C175.892 69.567 174.238 71.1719 171.986 72.5796C168.679 74.6631 165.229 74.1563 164.117 73.5087L164.231 73.7903L164.345 74.0718C164.801 75.2543 164.487 76.465 162.862 76.662C162.434 76.7184 161.95 76.7184 161.408 76.9717C161.009 77.1688 160.581 77.4504 160.096 77.929C159.897 78.1261 159.469 78.661 159.27 79.0834C159.07 78.661 158.642 78.1261 158.443 77.929C157.958 77.4504 157.53 77.1407 157.131 76.9717C156.561 76.7184 156.105 76.6902 155.677 76.662C154.052 76.465 153.767 75.2543 154.195 74.0718L154.309 73.8184L154.423 73.5369C153.596 74.0155 151.571 74.3815 149.205 73.7339L148.977 73.6776C147.067 73.1709 145.384 72.2417 143.959 70.9185C142.248 69.3136 141.307 67.5962 140.937 66.9486C137.8 60.5293 138.228 50.9849 138.228 49.9713C138.114 38.9628 140.594 32.7969 142.704 29.8125C142.077 28.9678 141.678 28.4892 141.649 28.461C141.45 28.2639 141.079 27.9261 140.309 27.8135C140.11 26.3776 139.568 24.6601 139.568 24.6601C139.568 24.6601 141.022 25.7019 142.391 26.2931C142.277 27.0251 142.476 27.4474 142.676 27.729C142.704 27.7572 143.018 28.1795 143.503 28.827C144.443 27.6727 145.441 26.828 147.01 25.9271C147.38 25.7019 147.779 25.5048 148.236 25.3077C148.207 24.7164 148.407 24.1533 148.806 23.7592C148.834 23.4213 149.119 22.999 149.462 22.8582C149.832 22.7738 150.374 22.9427 150.631 23.1679C151.229 23.2524 151.8 23.5621 152.199 24.0126C153.482 23.731 154.964 23.5339 156.647 23.4495C156.846 22.633 157.388 22.0417 158.044 21.732C158.215 21.3942 158.699 21.0282 159.127 21C159.555 21.0282 160.039 21.366 160.211 21.732C160.866 22.0417 161.408 22.633 161.608 23.4495C163.29 23.5621 164.772 23.7592 166.055 24.0126C166.483 23.5621 167.025 23.2524 167.624 23.1679C167.88 22.9145 168.422 22.7456 168.793 22.8582C169.135 22.999 169.42 23.4213 169.448 23.7592C169.848 24.1533 170.047 24.7164 170.019 25.3077C170.446 25.5048 170.845 25.7019 171.245 25.9271C172.813 26.828 173.896 27.7853 174.809 28.8552C175.379 28.1232 175.721 27.6727 175.721 27.6445C175.921 27.3911 176.092 26.9407 176.006 26.2086C177.375 25.6174 178.829 24.6038 178.829 24.6038C178.829 24.6038 178.287 26.3213 178.087 27.7572C177.346 27.8698 176.975 28.1795 176.747 28.4047C176.719 28.4329 176.263 28.996 175.55 29.9532C177.66 32.9658 180.083 39.0754 179.998 49.9994C179.941 50.8441 180.368 60.5575 177.232 66.9768ZM152.37 29.5028C152.569 29.5872 152.712 29.6717 152.94 29.7561C153.083 29.5872 153.168 29.5028 153.339 29.3057C153.111 29.2212 152.969 29.1367 152.74 29.0523C152.626 29.193 152.484 29.3901 152.37 29.5028ZM163.233 27.4756C163.204 27.4756 163.062 27.5601 162.976 27.7572C163.062 27.8698 163.204 27.9261 163.432 27.9542H163.546C163.66 27.7008 163.432 27.3911 163.233 27.4756ZM168.023 28.7426C167.937 29.0523 167.681 29.2494 167.538 29.4464C166.711 29.1367 164.886 28.6863 163.889 28.5736C163.632 28.8552 163.204 29.2494 162.777 29.362C162.149 29.2775 161.75 29.1367 161.322 28.9397C161.551 28.9678 161.636 28.9397 161.807 28.9397C162.434 28.9115 162.976 28.7426 163.375 28.4892C162.491 28.3484 162.292 28.1232 162.72 27.5882C162.919 27.3348 163.233 26.8844 163.689 26.997C164.06 27.0814 164.145 27.5882 164.088 27.9824C165.115 28.095 166.398 28.461 167.395 28.7707C167.453 28.4892 167.281 28.3484 167.167 28.1513C167.31 28.0105 167.538 27.8135 167.709 27.7008C167.966 27.8698 168.108 28.4329 168.023 28.7426ZM164.031 29.193C164.174 29.3338 164.288 29.4464 164.459 29.6154C164.687 29.5028 164.772 29.4464 165.029 29.3057C164.858 29.1367 164.772 29.0523 164.601 28.8833C164.402 28.996 164.174 29.1086 164.031 29.193ZM168.507 28.996C168.308 29.4464 168.137 29.8969 167.909 30.2911C168.051 30.3474 168.222 30.2348 168.336 30.1503C168.935 29.7843 169.363 28.7989 169.591 28.2358C169.591 28.2076 169.249 28.2921 169.049 28.3766C168.736 28.5455 168.679 28.63 168.507 28.996ZM168.793 28.1232C169.277 28.095 169.705 28.2076 169.905 27.9824C169.619 27.8979 169.306 27.8135 169.192 27.6727C169.306 27.5601 169.505 27.7008 169.591 27.7853L169.762 27.6164C169.448 27.363 168.964 27.5038 168.85 27.7853C168.935 27.8416 169.078 27.8698 169.135 27.9261C169.049 27.9542 168.85 28.0669 168.793 28.1232ZM151.001 29.8969C150.859 29.8406 150.745 29.8125 150.574 29.7561C150.459 29.9251 150.345 30.1222 150.26 30.2629C150.459 30.3192 150.631 30.3755 150.859 30.46C150.944 30.3192 151.001 30.2348 151.087 30.1222C151.229 30.1503 151.343 30.2066 151.514 30.2629C151.628 30.0658 151.685 29.9814 151.828 29.7561C151.6 29.6998 151.457 29.6435 151.201 29.5591C151.115 29.6717 151.058 29.7843 151.001 29.8969ZM161.037 27.3348C160.752 26.8562 159.612 27.2785 158.899 27.5882C159.298 27.5882 159.669 27.5601 160.096 27.5882C160.268 27.5882 160.752 27.5882 161.037 27.6164C161.066 27.4756 161.094 27.4193 161.037 27.3348ZM161.522 28.2076C159.127 28.0669 154.394 28.3202 152.085 28.9397C152.085 28.9397 151.828 28.3484 151.628 28.1232C151.001 27.4756 150.773 28.1795 150.745 28.2639C151.514 28.3202 151.657 28.7144 151.657 28.7144C151.486 29.0523 151.343 29.1649 150.916 29.4464C150.773 29.5309 150.288 29.8406 149.604 29.8969C148.15 29.9532 148.549 28.461 149.433 27.8698C149.319 28.0105 148.806 28.7989 149.119 29.193C149.49 29.6435 150.83 29.2775 151.144 28.8833C150.973 28.7144 150.631 28.6581 150.146 28.7144C150.174 28.4892 150.288 27.8698 150.973 27.2785C151.229 27.3348 151.942 27.7008 152.17 28.3202C154.309 27.7572 158.186 27.5882 158.386 27.5882C158.329 27.2222 158.215 25.8426 158.215 25.7582C158.186 25.5329 158.357 25.4203 158.5 25.3358C158.671 25.6174 158.813 25.73 159.184 25.8708C159.042 26.0397 158.899 26.096 158.756 26.2368C158.785 26.5183 158.813 27.0251 158.813 27.2222C159.156 27.0814 159.64 26.8844 160.239 26.7436C160.439 26.6873 160.724 26.6591 160.895 26.6873C161.094 26.7154 161.351 26.828 161.465 26.9125C161.551 26.997 161.693 27.1659 161.693 27.363C161.693 27.6727 161.608 27.9824 161.522 28.2076ZM157.445 35.3026L157.103 35.3308L157.331 35.4997L157.445 35.4434V35.3026ZM157.616 35.3026C157.616 35.3026 157.673 35.4153 157.644 35.6123C157.616 35.8094 157.53 36.0065 157.217 36.0628C156.903 36.1473 156.561 35.9502 156.561 35.6123C156.561 35.5279 156.59 35.4153 156.618 35.3308C156.504 35.3308 156.504 35.4153 156.39 35.556C156.333 35.6405 156.219 35.6123 156.076 35.725C156.076 35.5279 156.304 35.2182 156.532 35.1337C156.903 34.9648 158.129 34.9366 158.985 35.3589C158.671 35.3026 158.414 35.3308 158.129 35.3026C157.787 35.3026 157.616 35.3026 157.616 35.3026ZM160.752 25.8426C160.553 25.7019 160.439 25.6174 160.239 25.4766C160.068 25.5892 159.868 25.7582 159.754 25.8426C159.925 25.9834 160.039 26.0679 160.239 26.2086C160.439 26.0679 160.524 25.9834 160.752 25.8426ZM155.62 35.725C155.563 35.7531 155.506 35.922 155.706 35.922C155.877 35.922 155.905 35.7531 155.905 35.7531L155.62 35.725ZM160.923 37.1609C160.895 37.0482 160.61 36.6822 160.039 36.5415C160.211 36.6822 160.296 36.9638 160.353 37.0482C160.239 37.1045 159.925 37.1327 159.811 37.1609C160.011 37.3298 160.41 37.3579 160.923 37.1609ZM159.697 36.1473C159.355 35.7531 158.899 35.6123 158.671 35.556C158.927 35.8939 159.213 36.1754 159.697 36.1473ZM159.384 35.5842C159.555 35.7813 160.153 36.0065 160.467 36.3162C160.439 35.8094 160.011 35.5279 159.384 35.5842ZM159.156 42.651C158.471 43.6365 159.156 44.6782 159.156 44.6782C159.156 44.65 159.612 43.2986 159.156 42.651ZM160.296 46.5927C160.296 46.5927 161.066 45.8888 161.123 44.4811C160.695 45.185 160.239 45.5791 160.239 45.5791C160.239 45.5791 159.84 45.2976 159.498 44.9034C159.469 45.8044 160.296 46.5927 160.296 46.5927ZM159.384 40.455C158.785 41.1025 159.156 41.6375 159.156 41.6375C159.156 41.6375 159.897 40.8491 159.384 40.455ZM160.239 38.0618C160.439 38.2589 161.066 38.3997 161.408 38.7094C161.351 38.2026 160.809 37.8647 160.239 38.0618ZM161.18 39.6385C161.18 39.2725 161.066 38.6249 160.211 38.5123C160.153 38.9346 160.895 39.2162 161.18 39.6385ZM160.838 40.821C160.439 41.2433 160.809 42.0879 161.037 42.82C161.237 42.454 161.494 41.2151 160.838 40.821ZM162.919 42.7355C162.691 43.7772 162.235 44.1432 162.235 44.1432C162.235 44.1432 161.864 43.8617 161.579 43.4675C161.551 44.3122 162.292 45.1005 162.263 45.1005C162.263 45.1005 163.147 44.3966 162.919 42.7355ZM161.807 39.188C161.722 39.6666 162.491 40.3705 162.491 40.3705C162.491 40.3424 162.577 39.4695 161.807 39.188ZM163.147 41.3559C163.09 41.8909 163.717 43.1297 163.746 43.2423C163.746 43.1297 164.088 42.1161 163.147 41.3559ZM158.129 47.7471C158.3 47.381 158.785 46.7053 158.528 45.551C158.443 46.4238 157.873 46.7898 157.873 46.7898C157.873 46.7898 157.559 46.6209 157.302 46.0859C157.416 47.1558 157.816 47.4655 158.129 47.7471ZM157.559 41.2151C156.59 41.9472 157.046 42.6229 157.217 42.9889C157.416 42.3132 157.502 42.1161 157.559 41.2151ZM157.074 43.4394C156.418 44.2559 157.445 45.2694 157.416 45.2694C157.416 45.2694 157.502 43.7491 157.074 43.4394ZM154.622 46.649C154.48 45.8325 154.537 45.2694 154.137 44.5656C154.023 45.4102 154.537 46.5083 154.622 46.649ZM155.478 42.3976C155.763 41.4404 156.304 40.8773 156.504 40.3142C155.506 41.0181 155.306 42.0598 155.478 42.3976ZM155.905 44.9034C155.905 45.3257 155.905 45.6918 155.791 46.1422C155.506 46.0859 155.392 45.8888 155.192 45.7199C155.364 46.2549 156.048 46.9024 156.162 47.0713C156.247 46.3112 156.276 45.4102 155.905 44.9034ZM155.221 46.7335C154.993 47.6908 155.962 48.6199 155.962 48.648C155.962 48.648 155.962 47.4937 155.221 46.7335ZM155.506 49.3237C155.848 49.8868 156.105 50.1402 156.361 50.3936C155.934 49.7742 155.62 48.5917 155.192 48.282C155.164 48.4509 155.306 48.9859 155.506 49.3237ZM154.309 43.6646C154.223 43.186 154.822 42.7637 154.622 41.9753C154.023 42.651 154.137 43.2704 154.309 43.6646ZM157.816 50.2247C157.701 50.1965 157.103 49.6616 156.932 49.3237C157.017 49.8587 157.787 50.9286 158.129 51.1538C158.243 50.9567 158.699 50.0839 158.3 48.7043C158.129 49.5208 157.958 49.9431 157.816 50.2247ZM160.41 47.7752C160.239 48.3665 159.982 48.7325 159.555 49.1548C159.384 48.9859 159.184 48.7888 158.927 48.282C158.842 49.2393 159.384 49.8024 159.697 49.9994C159.897 49.8587 160.553 48.9577 160.41 47.7752ZM161.693 50.3091C162.292 49.5771 162.606 48.7606 162.349 47.8878C161.807 48.7043 161.807 49.549 161.693 50.3091ZM160.239 51.5761C160.41 51.1819 160.866 50.4218 160.752 49.5771C160.41 49.915 160.211 51.0693 160.239 51.5761ZM163.375 46.9024C163.632 46.4801 164.031 45.8607 163.717 45.4947C163.575 45.8888 163.489 46.3393 163.375 46.9024ZM161.408 48.282C161.408 48.282 162.406 47.3247 162.377 46.1422C162.092 46.9306 161.408 47.2684 161.408 47.2684C161.408 47.2684 161.037 47.0432 160.866 46.5083C160.724 47.7189 161.408 48.282 161.408 48.282ZM163.261 45.5791C163.261 45.551 163.917 44.4529 163.546 43.8617C163.119 43.9462 163.261 45.5791 163.261 45.5791ZM163.233 47.4655C162.834 47.9723 162.748 49.1548 162.606 49.549C162.748 49.4082 163.461 47.7471 163.233 47.4655ZM158.756 53.0965C158.956 52.4489 158.927 51.6887 158.642 51.3509C158.471 51.9984 158.471 52.5897 158.756 53.0965ZM159.384 54.7576C159.583 54.1945 159.583 53.5188 159.355 53.2091C159.156 53.8003 159.156 54.3353 159.384 54.7576ZM160.211 54.2227C160.382 53.8003 160.781 53.378 160.752 51.9984C160.325 52.4208 160.153 53.6877 160.211 54.2227ZM157.644 53.2091C157.559 52.8994 157.388 51.8577 156.96 51.4072C156.789 52.1392 157.302 52.8712 157.644 53.2091ZM162.663 54.11C162.663 54.11 162.663 53.8003 162.548 53.6877C162.463 54.0537 161.95 54.8702 162.064 55.7993C162.292 54.9828 162.948 54.8139 163.119 54.0256C163.261 54.11 163.375 54.1664 163.518 54.1664C163.432 53.8567 163.204 53.547 163.147 52.9275C163.09 53.1528 163.005 53.7722 162.663 54.11ZM155.877 55.743C155.991 54.8139 155.478 54.0256 155.392 53.6314C155.278 53.744 155.278 54.0537 155.278 54.0537C154.936 53.7159 154.85 53.0683 154.793 52.8712C154.708 53.4906 154.48 53.8285 154.423 54.11C154.565 54.11 154.679 54.0537 154.822 53.9693C154.993 54.7576 155.62 54.9265 155.877 55.743ZM150.773 47.0995C150.773 47.0995 150.459 47.015 150.288 46.7898C150.431 47.4374 151.03 47.7189 151.03 47.7189C151.03 47.7189 151.543 46.5364 150.402 44.8471C151.001 46.649 150.773 47.0995 150.773 47.0995ZM150.089 48.8733C150.089 48.8733 149.804 48.7606 149.633 48.5354C149.718 49.014 149.889 49.2111 150.345 49.5208C150.574 48.8169 150.716 48.2538 149.69 46.1704C150.374 48.1975 150.089 48.8733 150.089 48.8733ZM145.926 47.8878C145.926 47.8878 145.641 47.4374 145.584 46.2549C145.327 47.5218 145.812 48.282 145.812 48.282C145.812 48.282 146.154 48.0568 146.126 47.6908C146.097 47.7752 145.926 47.8878 145.926 47.8878ZM146.553 47.2684C146.553 47.2684 146.24 46.7898 146.126 45.4384C145.898 46.9024 146.496 47.7189 146.496 47.7189C146.496 47.7189 146.867 47.4655 146.838 47.0432C146.781 47.1558 146.553 47.2684 146.553 47.2684ZM149.319 43.6646C149.034 43.3549 148.606 42.9044 148.179 41.2715C148.236 42.651 148.948 43.9462 149.462 44.3966C149.718 44.0588 149.747 43.0171 149.405 42.2569C149.376 42.2569 149.433 43.1015 149.319 43.6646ZM148.578 44.819C148.321 44.4811 147.865 43.7772 147.58 42.1161C147.494 43.4957 148.179 44.9879 148.635 45.4665C148.92 45.1287 149.005 44.4811 148.72 43.7209C148.72 43.7209 148.777 44.2559 148.578 44.819ZM147.893 45.6918C147.665 45.3539 147.352 44.9034 147.067 42.8763C147.01 44.7063 147.494 45.7762 147.922 46.3112C148.236 46.0015 148.293 45.4384 148.207 45.0724C148.207 45.0724 148.064 45.551 147.893 45.6918ZM147.209 46.5364C147.01 46.2267 146.867 45.8607 146.696 44.0588C146.582 45.6918 146.838 46.6772 147.209 47.1558C147.494 46.9024 147.58 46.3956 147.523 46.0578C147.523 46.0578 147.38 46.4519 147.209 46.5364ZM172.014 47.6344C172.014 48.0005 172.328 48.2257 172.328 48.2257C172.328 48.2257 172.813 47.4655 172.556 46.1985C172.499 47.381 172.214 47.8315 172.214 47.8315C172.214 47.8315 172.043 47.7189 172.014 47.6344ZM171.33 47.015C171.302 47.4374 171.672 47.6908 171.672 47.6908C171.672 47.6908 172.271 46.8461 172.043 45.4102C171.929 46.7616 171.615 47.2403 171.615 47.2403C171.615 47.2403 171.359 47.0995 171.33 47.015ZM168.85 43.6083C168.707 43.0452 168.793 42.2006 168.793 42.2006C168.45 42.9607 168.479 43.9743 168.736 44.3403C169.249 43.8899 169.962 42.5947 170.019 41.2151C169.562 42.8481 169.135 43.2986 168.85 43.6083ZM169.562 44.7627C169.363 44.1996 169.42 43.6646 169.42 43.6646C169.135 44.453 169.22 45.1005 169.505 45.4102C169.962 44.9316 170.646 43.4394 170.56 42.0598C170.304 43.7209 169.819 44.4248 169.562 44.7627ZM171.102 42.82C170.817 44.819 170.503 45.2976 170.275 45.6355C170.104 45.5228 169.962 45.016 169.962 45.016C169.876 45.3821 169.933 45.9452 170.247 46.2549C170.674 45.7199 171.159 44.65 171.102 42.82ZM171.473 44.0025C171.302 45.8044 171.131 46.1704 170.959 46.4801C170.788 46.3675 170.674 46.0015 170.674 46.0015C170.617 46.3393 170.703 46.818 170.988 47.0995C171.33 46.6209 171.587 45.6355 171.473 44.0025ZM167.395 47.0432C167.395 47.0432 167.139 46.5927 167.766 44.7908C166.626 46.4801 167.139 47.6626 167.139 47.6626C167.139 47.6626 167.738 47.3811 167.88 46.7335C167.709 46.9587 167.395 47.0432 167.395 47.0432ZM168.507 48.4791C168.422 48.9577 168.251 49.1548 167.795 49.4645C167.567 48.7606 167.424 48.1975 168.45 46.1141C167.766 48.1694 168.051 48.8451 168.051 48.8451C168.051 48.8451 168.336 48.7043 168.507 48.4791Z" fill="black"/>
<path d="M12.1914 55.7085C13.5638 55.7086 14.25 56.3388 14.25 57.5991V57.9146H13.3525C13.3525 56.9981 12.9567 56.5397 12.165 56.5396C11.7163 56.5396 11.3723 56.6825 11.1875 56.9976C11.0028 57.3126 10.8975 57.6855 10.8975 58.1724V60.7212C10.8975 61.5233 11.0027 62.0396 11.2402 62.2974C11.4777 62.555 11.7684 62.6693 12.1113 62.6694C12.6657 62.6694 13.0886 62.5545 13.3525 62.354V60.1196H12.0586V59.3179H14.2236V62.9556C13.6166 63.3279 12.9304 63.5004 12.1387 63.5005C11.4261 63.5005 10.8715 63.2708 10.5283 62.8413C10.1588 62.4116 10 61.6668 10 60.6069V58.1724C10 56.5396 10.7395 55.7085 12.1914 55.7085ZM18.5 55.7085C19.1997 55.7085 19.7182 55.9397 20.0811 56.3726C20.4438 56.8054 20.625 57.4114 20.625 58.1616V60.6431C20.625 61.624 20.4442 62.3454 20.1074 62.8071C19.7705 63.2689 19.2256 63.5005 18.5 63.5005C17.7229 63.5004 17.1786 63.2692 16.8418 62.7788C16.5309 62.346 16.375 61.6245 16.375 60.6724V58.1899C16.375 57.411 16.5572 56.8054 16.9199 56.3726C17.2827 55.9398 17.8005 55.7086 18.5 55.7085ZM24.5469 62.6831L26.1221 56.4165H27L25.0371 63.5005H24.0049L22.042 56.4165H22.9717L24.5469 62.6831ZM31.9072 57.2075H29.2891V59.4683H31.7021V60.2583H29.2891V62.7104H31.958V63.5005H28.417V56.4165H31.9072V57.2075ZM35.7998 56.4165C36.3446 56.4165 36.7531 56.5807 37.0527 56.8804C37.3524 57.18 37.5156 57.6159 37.5156 58.188C37.5156 59.0869 37.0796 59.6321 36.1807 59.8228C36.5619 59.85 36.8347 59.9858 37.0254 60.2036C37.2161 60.4216 37.3253 60.7759 37.3525 61.3208C37.3798 62.2471 37.4615 62.9556 37.625 63.5005H36.6719C36.5901 63.3643 36.5077 63.0641 36.4805 62.5737C36.4532 62.1108 36.4266 61.6206 36.3994 61.1577C36.3722 60.5585 36.0178 60.2311 35.3643 60.231H34.3018V63.4731H33.375V56.4165H35.7998ZM43.1689 62.52V56.4165H44V63.5005H42.7256L39.873 57.3159V63.5005H39.042V56.4165H40.3438L43.1689 62.52ZM49.2998 62.3833L51.0566 56.4165H52.5V63.5005H51.6084V57.2339L49.6934 63.5005H48.8799L46.9385 57.1802V63.5005H46.125V56.4165H47.542L49.2998 62.3833ZM58.1152 57.2075H55.5039V59.4683H57.9336V60.2583H55.5039V62.7104H58.167V63.5005H54.625V56.4165H58.1152V57.2075ZM63.7158 62.52V56.4165H64.542V63.5005H63.2744L60.4102 57.3159V63.5005H59.584V56.4165H60.9062L63.7158 62.52ZM70.208 57.2075H68.5234V63.5005H67.6689V57.2075H65.958V56.4165H70.208V57.2075ZM76.2295 55.7085C77.0456 55.7086 77.65 55.9397 78.0732 56.3726C78.4964 56.8054 78.708 57.4114 78.708 58.1616V60.6431C78.708 61.6242 78.4965 62.3454 78.1035 62.8071C77.7105 63.2688 77.0759 63.5004 76.2295 63.5005C75.3225 63.5005 74.687 63.2694 74.2939 62.7788C73.9312 62.346 73.7501 61.6245 73.75 60.6724V58.1899C73.75 57.4111 73.9617 56.8054 74.3848 56.3726C74.808 55.9397 75.4132 55.7085 76.2295 55.7085ZM83.667 57.2075H81.0518V59.4683H83.5303V60.2583H81.0518V63.5005H80.125V56.4165H83.667V57.2075ZM92.167 63.5005H91.1143L90.6016 61.811H87.876L87.3633 63.5005H86.5L88.7129 56.4165H89.873L92.167 63.5005ZM100.278 60.9009C100.278 61.5636 100.399 62.0144 100.61 62.3062C100.852 62.5714 101.215 62.731 101.699 62.731C102.213 62.7309 102.576 62.5985 102.817 62.3335C103.059 62.0682 103.181 61.5903 103.181 60.9272V56.4702H104.209V60.8472C104.209 61.8022 103.997 62.4657 103.573 62.8901C103.15 63.3144 102.546 63.5005 101.729 63.5005C100.913 63.5005 100.248 63.2881 99.8545 62.8901C99.4616 62.4922 99.25 61.8021 99.25 60.8472V56.4165H100.278V60.9009ZM110.169 56.4165C111.015 56.4165 111.65 56.6351 112.073 57.0981C112.497 57.5613 112.709 58.4332 112.709 59.7954C112.709 61.4022 112.467 62.4101 111.983 62.8462C111.5 63.2821 110.773 63.5005 109.806 63.5005H107.75V56.4165H110.169ZM115.04 59.4683H117.461V56.4165H118.375V63.5005H117.461V60.2583H115.04V63.5005H114.125V56.4165H115.04V59.4683ZM125.458 63.5005H124.46L123.947 61.811H121.222L120.709 63.5005H119.792L122.005 56.4165H123.165L125.458 63.5005ZM133.959 63.5005H133.25V56.4165H133.959V63.5005ZM95.5049 56.4165C96.1397 56.4165 96.6538 56.5808 97.0166 56.8804C97.3794 57.18 97.5918 57.5884 97.5918 58.106C97.5918 59.0594 97.0776 59.6318 96.0801 59.7681C97.2588 59.8499 97.8329 60.4217 97.833 61.4839C97.833 62.165 97.6216 62.656 97.2285 62.9829C96.8355 63.3097 96.2909 63.4731 95.5654 63.4731H92.875V56.4165H95.5049ZM129.13 56.4165C129.674 56.4166 130.115 56.5807 130.426 56.8804C130.737 57.18 130.918 57.5886 130.918 58.106C130.918 59.0594 130.477 59.6318 129.622 59.7681C130.633 59.8498 131.125 60.4217 131.125 61.4839C131.125 62.165 130.943 62.656 130.606 62.9829C130.27 63.3096 129.803 63.4731 129.182 63.4731H126.875V56.4165H129.13ZM18.4746 56.5454C17.6713 56.5454 17.2569 57.0935 17.2568 58.1899V60.7583C17.2568 61.422 17.3342 61.913 17.5156 62.2593C17.697 62.5766 18.0079 62.7494 18.5 62.7495C18.9405 62.7495 19.2522 62.605 19.4336 62.2876C19.6407 61.999 19.7187 61.4798 19.7188 60.73V58.1323C19.7187 57.6132 19.6148 57.2094 19.3818 56.9497C19.1486 56.69 18.8633 56.5454 18.4746 56.5454ZM76.1992 56.5454C75.262 56.5454 74.7784 57.0935 74.7783 58.1899V60.7583C74.7783 61.422 74.8684 61.913 75.0801 62.2593C75.2917 62.5767 75.6551 62.7495 76.2295 62.7495C76.7433 62.7495 77.1058 62.605 77.3174 62.2876C77.5591 61.999 77.6504 61.48 77.6504 60.73V58.1323C77.6504 57.613 77.5289 57.2094 77.2568 56.9497C76.9848 56.69 76.6526 56.5455 76.1992 56.5454ZM93.9033 62.7104H95.3545C95.7775 62.7104 96.1098 62.6011 96.3818 62.3833C96.6539 62.1654 96.7754 61.8654 96.7754 61.5112C96.7753 61.0755 96.6539 60.7487 96.3818 60.5308C96.1097 60.3129 95.6563 60.2036 95.0215 60.2036H93.9033V62.7104ZM108.778 62.7104H109.806C110.501 62.7104 110.986 62.5472 111.258 62.2476C111.53 61.9479 111.681 61.4021 111.681 60.6665V59.0864C111.681 58.4056 111.559 57.9154 111.287 57.6431C111.015 57.3435 110.653 57.2075 110.139 57.2075H108.778V62.7104ZM127.73 62.7104H129C129.363 62.7104 129.648 62.6012 129.881 62.3833C130.114 62.1654 130.218 61.8654 130.218 61.5112C130.218 61.0755 130.114 60.7487 129.881 60.5308C129.648 60.3129 129.259 60.2036 128.715 60.2036H127.73V62.7104ZM88.1465 60.9937H90.3857L89.2256 57.2075L88.1465 60.9937ZM121.465 60.9937H123.704L122.571 57.2075L121.465 60.9937ZM34.3018 59.4683H35.6357C35.9354 59.4683 36.1813 59.3591 36.3447 59.1411C36.5081 58.9232 36.6172 58.6504 36.6172 58.2964C36.6171 57.9969 36.5355 57.7515 36.3721 57.5337C36.2086 57.3158 35.99 57.2075 35.6631 57.2075H34.3018V59.4683ZM93.9033 59.3862H95.3545C96.1402 59.3861 96.533 59.0052 96.5332 58.27C96.5332 57.9431 96.4128 57.6697 96.2012 57.479C95.9896 57.2883 95.6869 57.2076 95.3242 57.2075H93.9033V59.3862ZM127.756 59.3862H129C129.674 59.3862 130.011 59.0053 130.011 58.27C130.011 57.9431 129.907 57.6697 129.726 57.479C129.544 57.2885 129.284 57.2075 128.974 57.2075H127.756V59.3862ZM11.5996 51.02C11.7774 51.02 11.9254 51.0748 12.0439 51.1841C12.1624 51.3206 12.2216 51.4568 12.2217 51.5933C12.2217 51.7571 12.1624 51.8942 12.0439 52.0034C11.9255 52.1125 11.7772 52.1665 11.5996 52.1665C11.422 52.1665 11.2737 52.1126 11.1553 52.0034C11.0368 51.8942 10.9775 51.7571 10.9775 51.5933C10.9776 51.4296 11.037 51.2933 11.1553 51.1841C11.2737 51.0749 11.4219 51.0201 11.5996 51.02ZM13.6436 51.02C13.8213 51.02 13.9704 51.0748 14.0889 51.1841C14.2071 51.3205 14.2666 51.4569 14.2666 51.5933C14.2666 51.7571 14.2073 51.8942 14.0889 52.0034C13.9704 52.1127 13.8213 52.1665 13.6436 52.1665C13.466 52.1664 13.3176 52.1126 13.1992 52.0034C13.0808 51.8942 13.0215 51.7571 13.0215 51.5933C13.0215 51.4296 13.081 51.2932 13.1992 51.1841C13.3176 51.0749 13.466 51.0201 13.6436 51.02ZM49.627 46.7173H49.8418C49.9479 46.5448 50.078 46.5005 50.2344 46.5005H62.417V47.9165H50.2344C50.0723 47.9165 49.9372 47.8226 49.8291 47.6812C49.8217 47.6683 49.8155 47.6545 49.8086 47.6421H49.627V48.105H49.6543C49.6543 48.5386 49.6267 48.9434 49.5713 49.3481C49.5159 49.7527 49.4054 50.0996 49.2393 50.4175C49.0731 50.7355 48.8515 50.9671 48.5469 51.1694C48.2422 51.3718 47.8541 51.4585 47.3555 51.4585V50.5337C47.7156 50.5337 47.9653 50.4468 48.1592 50.3022C48.353 50.1577 48.4911 49.955 48.5742 49.6948C48.6573 49.4347 48.7125 49.1456 48.7402 48.8276C48.7679 48.5097 48.7686 48.1628 48.7686 47.8159V47.6138H48.4639C47.4667 47.6138 46.7187 47.4107 46.1924 46.9771C45.6661 46.5434 45.417 45.9942 45.417 45.3003C45.417 44.8089 45.5278 44.3462 45.7217 43.9126C45.9156 43.4791 46.2198 43.1032 46.6074 42.7563C46.9952 42.4094 47.4389 42.1492 47.9375 41.9468C48.4638 41.7444 49.0176 41.5993 49.627 41.5415V46.7173ZM108.312 46.7173H108.633C108.739 46.5446 108.87 46.5005 109.026 46.5005H114.833V47.9165H109.026C108.864 47.9165 108.728 47.8227 108.62 47.6812C108.613 47.6682 108.607 47.6546 108.6 47.6421H108.312V48.105H108.344C108.344 48.5386 108.312 48.9434 108.249 49.3481C108.186 49.7528 108.059 50.0996 107.869 50.4175C107.679 50.7355 107.425 50.9671 107.077 51.1694C106.729 51.3717 106.286 51.4585 105.716 51.4585V50.5337C106.127 50.5337 106.413 50.4468 106.635 50.3022C106.856 50.1577 107.014 49.9549 107.109 49.6948C107.204 49.4347 107.267 49.1456 107.299 48.8276C107.33 48.5097 107.331 48.1628 107.331 47.8159V47.6138H106.982C105.843 47.6138 104.988 47.4107 104.387 46.9771C103.785 46.5434 103.5 45.9941 103.5 45.3003C103.5 44.8089 103.627 44.3462 103.849 43.9126C104.07 43.479 104.418 43.1032 104.861 42.7563C105.304 42.4094 105.811 42.1491 106.381 41.9468C106.982 41.7444 107.616 41.5993 108.312 41.5415V46.7173ZM17.667 46.686H18.4873V42.2505H19.2627V46.6577H19.917V47.5679H17.792V47.5786H16.9326L15.2441 42.6069C15.0072 42.6888 14.7998 42.7986 14.6221 42.9351C14.4444 43.0716 14.2956 43.2351 14.1475 43.4263C14.029 43.6175 13.9401 43.8093 13.8809 44.0005C13.8217 44.2189 13.792 44.41 13.792 44.6011C13.792 45.0654 13.9407 45.4755 14.2666 45.8306C14.5924 46.1855 14.977 46.5136 15.3916 46.7866C15.5098 46.8411 15.599 46.9222 15.6582 46.9497L15.8066 47.1138L16.0439 47.4692C16.0439 47.715 15.9847 48.0156 15.8662 48.3159C15.7477 48.6163 15.5694 48.9168 15.3027 49.1899C15.0362 49.463 14.7105 49.7088 14.2959 49.8999C13.8811 50.0911 13.3474 50.1733 12.7549 50.1733C12.4588 50.1733 12.1626 50.1185 11.8369 50.0366C11.511 49.9547 11.2149 49.7903 10.9482 49.5991C10.6816 49.4079 10.4443 49.1623 10.2666 48.8618C10.0889 48.5614 10 48.206 10 47.7964V46.7319H10.9482V47.8511C10.9482 48.0969 11.0075 48.3161 11.126 48.5073C11.2444 48.6984 11.3927 48.862 11.5703 48.9712C11.7481 49.0804 11.9557 49.19 12.1631 49.2446C12.3702 49.2991 12.5773 49.3266 12.7549 49.3267C13.2289 49.3267 13.6149 49.2718 13.9111 49.1353C14.2072 48.9987 14.4444 48.8615 14.6221 48.6704C14.7996 48.4794 14.9183 48.3156 14.9775 48.1245C15.0367 47.9337 15.0953 47.7971 15.125 47.688L15.0664 47.6333C14.8887 47.5241 14.6813 47.3869 14.4443 47.1958C14.2073 47.0319 13.9694 46.8137 13.7324 46.5679C13.4955 46.3222 13.3183 46.0488 13.1406 45.7212C12.9925 45.3934 12.9033 45.0381 12.9033 44.6284C12.9033 44.246 12.9626 43.8907 13.0811 43.5356C13.1996 43.1807 13.4066 42.88 13.6436 42.6069C13.9101 42.3338 14.2068 42.0882 14.5918 41.9243C14.9769 41.7332 15.4213 41.6234 15.9248 41.5415L17.667 46.686ZM18.875 48.8472C19.0203 48.8472 19.1414 48.9044 19.2383 49.0181C19.3351 49.1318 19.3838 49.2742 19.3838 49.4448C19.3838 49.6154 19.3351 49.7579 19.2383 49.8716C19.1415 49.9851 19.0202 50.0415 18.875 50.0415C18.7298 50.0414 18.6327 49.9852 18.5117 49.8716C18.4149 49.7579 18.3662 49.6154 18.3662 49.4448C18.3662 49.2743 18.4149 49.1318 18.5117 49.0181C18.6085 48.9044 18.7298 48.8472 18.875 48.8472ZM70.2842 48.8472C70.4648 48.8473 70.6159 48.9044 70.7363 49.0181C70.8568 49.1318 70.917 49.2743 70.917 49.4448C70.917 49.6154 70.8568 49.7579 70.7363 49.8716C70.6159 49.9852 70.4648 50.0414 70.2842 50.0415C70.1035 50.0415 69.9825 49.9851 69.832 49.8716C69.7115 49.7579 69.6504 49.6154 69.6504 49.4448C69.6504 49.2742 69.7115 49.1318 69.832 49.0181C69.9526 48.9045 70.1034 48.8472 70.2842 48.8472ZM37.7686 45.02C37.9872 44.6758 38.2609 44.3314 38.5889 43.9585C38.9168 43.6144 39.2992 43.2703 39.791 43.0122C40.2556 42.7254 40.8021 42.4952 41.4307 42.2944C42.0592 42.1223 42.77 42.0073 43.5625 42.0073H44V47.9175H36.0742V47.8882C35.9102 47.8882 35.7734 47.8307 35.6641 47.7446C35.555 47.6301 35.5001 47.5444 35.5 47.4585C35.5 47.3724 35.5547 47.2574 35.6641 47.1714C35.7734 47.0566 35.9102 47.0278 36.0742 47.0278H36.8936V38.7085H37.7686V45.02ZM35.5 47.9165H20.4844C20.3224 47.9164 20.1872 47.8226 20.0791 47.6812C19.971 47.4923 19.917 47.3502 19.917 47.2085C19.917 47.0668 19.971 46.8775 20.0791 46.7358C20.1872 46.5473 20.3223 46.5005 20.4844 46.5005H35.5V47.9165ZM70.7959 47.5679H68.792V47.9165H62.9844C62.8224 47.9164 62.6872 47.8226 62.5791 47.6812C62.471 47.4923 62.417 47.3502 62.417 47.2085C62.417 47.0668 62.471 46.8775 62.5791 46.7358C62.6872 46.5473 62.8223 46.5005 62.9844 46.5005H68.792V46.686H69.832V42.2505H70.7959V47.5679ZM73.0498 47.9165H72.25V39.3149H73.0498V47.9165ZM81.4658 46.5806H81.4941C81.4941 46.7309 81.5374 46.8147 81.6436 46.8325C81.6616 46.7991 81.6812 46.7659 81.7041 46.7358C81.8122 46.5473 81.9473 46.5005 82.1094 46.5005H85.083V47.9165H82.1094C81.9746 47.9164 81.8601 47.85 81.7627 47.7466H81.5781C81.2982 47.7466 81.046 47.6611 80.8779 47.4624C80.7099 47.2634 80.5977 46.9785 80.5977 46.6089L80.5693 42.8286C80.3733 42.9423 80.1209 43.0555 79.8408 43.2261C79.5608 43.3682 79.3087 43.5671 79.0566 43.7944C78.8046 44.0218 78.6085 44.2779 78.4404 44.562C78.2724 44.8462 78.1885 45.1877 78.1885 45.5571C78.1885 46.0688 78.3286 46.4099 78.6367 46.6089C78.9448 46.8078 79.4206 46.9504 80.0928 47.0073L80.0371 47.9165C79.4489 47.8881 79.0009 47.7744 78.6367 47.6323C78.2725 47.4618 77.992 47.263 77.7959 47.064C77.5999 46.8366 77.4603 46.6089 77.4043 46.3247C77.3483 46.0689 77.292 45.8129 77.292 45.5571C77.292 44.9319 77.4599 44.3634 77.7959 43.9087C78.1321 43.4538 78.5244 43.0555 78.9727 42.7144C79.4208 42.4017 79.8695 42.1457 80.3457 41.9468C80.8217 41.7479 81.1858 41.6346 81.4658 41.5493V46.5806ZM102.792 47.9165H85.6514C85.4893 47.9165 85.3542 47.8226 85.2461 47.6812C85.138 47.4923 85.084 47.3502 85.084 47.2085C85.084 47.0668 85.138 46.8775 85.2461 46.7358C85.3542 46.5473 85.4893 46.5005 85.6514 46.5005H97.833V46.9888H99.0244C98.8465 46.7722 98.6977 46.5246 98.5791 46.2153C98.4604 45.9059 98.4014 45.5652 98.4014 45.1011C98.4014 44.4512 98.5786 43.8937 98.9346 43.4604C99.2905 43.0273 99.7061 42.6559 100.181 42.3774C100.655 42.0989 101.13 41.9133 101.635 41.7896C102.139 41.6348 102.525 41.5415 102.792 41.5415V47.9165ZM126.869 40.3247H125.955V39.5005C125.727 39.6182 125.469 39.7955 125.155 40.0015C124.87 40.2074 124.556 40.4135 124.271 40.6782C123.956 40.943 123.67 41.2073 123.413 41.5015C123.127 41.7957 122.928 42.12 122.757 42.4731C123.328 42.7085 123.87 42.9438 124.327 43.2085C124.784 43.4733 125.184 43.7675 125.556 44.1206C125.898 44.4737 126.213 44.8861 126.47 45.3569C126.698 45.7689 126.898 46.2986 127.069 46.9458H132.217C132.099 46.7029 132.01 46.3688 131.951 45.9741C131.892 45.5796 131.833 45.0636 131.804 44.4263C131.774 43.9712 131.686 43.6066 131.598 43.3638C131.48 43.0907 131.361 42.908 131.214 42.7866C131.066 42.6652 130.889 42.5738 130.712 42.5435C130.535 42.5131 130.358 42.4829 130.181 42.4829C129.768 42.4829 129.325 42.6345 128.882 42.938L128.321 42.1792C128.557 41.9971 128.823 41.8455 129.147 41.7241C129.472 41.6027 129.826 41.5415 130.21 41.5415C131.007 41.5415 131.598 41.7844 132.011 42.2397C132.424 42.7254 132.689 43.4239 132.777 44.3647C132.836 45.2147 132.925 45.7924 132.984 46.187C133.043 46.5511 133.221 46.763 133.457 46.854L133.958 47.0063L133.929 47.9165H127.495V47.8872H126.355C126.298 47.5341 126.212 47.1518 126.069 46.7104C125.927 46.2691 125.756 45.8568 125.527 45.4448C125.584 45.6802 125.584 45.9162 125.584 46.2104C125.584 46.4457 125.556 46.6812 125.527 46.9165C125.499 47.1518 125.413 47.5048 125.327 47.9165H115.401C115.239 47.9165 115.104 47.8225 114.996 47.6812C114.888 47.4923 114.833 47.3502 114.833 47.2085C114.833 47.0668 114.888 46.8775 114.996 46.7358C115.104 46.5474 115.239 46.5005 115.401 46.5005H121.209V47.0044H124.584C124.641 46.7691 124.642 46.5045 124.642 46.2397C124.642 45.6808 124.527 45.21 124.299 44.8569C124.07 44.5039 123.813 44.2095 123.471 43.9741C123.157 43.7681 122.814 43.5908 122.442 43.4731C122.071 43.3554 121.756 43.2966 121.471 43.2378L121.614 42.7964C121.814 42.1197 122.157 41.5018 122.643 40.9722C123.1 40.4426 123.614 39.972 124.156 39.5601C124.699 39.1481 125.213 38.8239 125.698 38.5591C126.212 38.2943 126.584 38.1182 126.869 38.0005V40.3247ZM43.0977 42.9253C42.0868 43.0114 41.2672 43.2414 40.6387 43.5854C39.9827 43.9297 39.4627 44.3026 39.0801 44.7329C38.6975 45.1632 38.3974 45.5654 38.2061 45.9956C38.0148 46.4258 37.8779 46.7414 37.8232 46.9995H43.125V42.9253H43.0977ZM101.872 42.7183C101.664 42.7801 101.398 42.8729 101.131 42.9966C100.834 43.1203 100.567 43.2748 100.3 43.4604C100.033 43.646 99.8254 43.8628 99.6475 44.1411C99.4695 44.4196 99.3799 44.6985 99.3799 45.0698C99.3799 45.7816 99.5882 46.2461 100.033 46.4937C100.478 46.741 101.071 46.8651 101.872 46.896V42.7183ZM48.7686 42.6401C48.0206 42.8425 47.411 43.1902 46.9678 43.6528C46.5247 44.1154 46.3027 44.6649 46.3027 45.272C46.3028 45.7055 46.4695 46.0812 46.8018 46.3413C47.1342 46.6015 47.6881 46.7173 48.4082 46.7173H48.7686V42.6401ZM107.362 42.6401C106.508 42.8425 105.811 43.1902 105.305 43.6528C104.798 44.1154 104.545 44.6649 104.545 45.272C104.545 45.7055 104.735 46.0812 105.115 46.3413C105.495 46.6014 106.128 46.7173 106.951 46.7173H107.362V42.6401ZM39.5996 40.0854C39.7636 40.0854 39.9004 40.1436 40.0098 40.2583C40.1189 40.373 40.1738 40.5161 40.1738 40.688C40.1738 40.8601 40.1191 41.0039 40.0098 41.1187C39.9004 41.2334 39.7636 41.2905 39.5996 41.2905C39.4357 41.2905 39.2988 41.2334 39.1895 41.1187C39.0801 41.0039 39.0254 40.8601 39.0254 40.688C39.0254 40.5161 39.0804 40.3729 39.1895 40.2583C39.2988 40.1436 39.4357 40.0855 39.5996 40.0854ZM78.9443 39.4165C79.1124 39.4165 79.2532 39.4737 79.3652 39.5874C79.4772 39.7295 79.5332 39.8436 79.5332 40.0142C79.5332 40.1844 79.4769 40.3263 79.3652 40.4399C79.2532 40.5537 79.1124 40.6108 78.9443 40.6108C78.7764 40.6108 78.6364 40.5536 78.5244 40.4399C78.4125 40.3263 78.3565 40.1845 78.3564 40.0142C78.3564 39.8436 78.4124 39.7011 78.5244 39.5874C78.6364 39.4738 78.7764 39.4166 78.9443 39.4165ZM80.8779 39.4165C81.0458 39.4166 81.1859 39.4738 81.2979 39.5874C81.4099 39.7295 81.4658 39.8436 81.4658 40.0142C81.4658 40.1845 81.4097 40.3263 81.2979 40.4399C81.1859 40.5536 81.0458 40.6107 80.8779 40.6108C80.7099 40.6108 80.5691 40.5537 80.457 40.4399C80.3453 40.3263 80.2891 40.1845 80.2891 40.0142C80.2891 39.8436 80.345 39.7011 80.457 39.5874C80.5691 39.4737 80.7099 39.4165 80.8779 39.4165ZM72.9248 36.5835C73.1997 36.5835 73.4751 36.6414 73.75 36.7866L73.6006 37.2231C73.3756 37.1069 73.1502 37.0483 72.9502 37.0483C72.8252 37.0483 72.7 37.0771 72.625 37.1353C72.55 37.1934 72.5 37.3103 72.5 37.4556C72.5001 37.6878 72.5757 37.8326 72.7256 37.9487C72.8755 38.0649 73.075 38.0942 73.2998 38.0942H73.6748V38.5591H71.625V38.0942H72.2754C72.2254 38.0652 72.2004 38.0071 72.1504 37.8618C72.1005 37.7167 72.1006 37.6006 72.1006 37.4556C72.1006 37.1359 72.1756 36.9029 72.3506 36.7866C72.5254 36.6706 72.7001 36.5836 72.9248 36.5835Z" fill="black"/>
</svg>
