<svg width="300" height="150" viewBox="0 0 300 150" fill="none" xmlns="http://www.w3.org/2000/svg">
<path d="M294.258 69.97C292.716 71.2312 291.222 72.5409 286.355 75.3544L285.102 76.0335V75.1119C285.102 75.0149 285.439 62.5482 279.464 51.8279C279.078 52.3615 277.825 53.9622 276.524 55.6115C277.295 55.5145 278.066 55.7086 278.789 56.4362C280.042 57.6489 282.066 60.6079 283.222 63.6639C283.849 65.6042 284.379 68.2237 284.235 70.4551C284.235 70.4551 283.512 83.1158 282.066 95.2429C280.765 106.254 280.042 107.709 280.042 107.709C279.223 106.691 278.837 105.381 278.644 104.653L278.5 104.75C278.5 104.75 277.729 103.635 277.295 101.5C276.765 99.0265 276.668 94.6122 276.717 92.4779C276.717 92.4779 276.765 91.8473 276.235 90.7801C275.994 90.295 275.801 89.7614 275.656 89.2278C274.885 85.8322 273.343 84.8621 272.476 83.8434C271.464 82.5822 270.693 81.2724 270.259 80.1568L270.163 80.2053C269.584 80.7389 269.199 81.2724 269.15 81.612C269.343 83.6008 269.536 85.0076 269.247 86.0263L268.813 85.6867C268.958 86.9964 268.331 88.5002 268.717 89.7129L267.946 89.6159L268.042 89.8099C268.138 89.9554 268.235 90.0525 268.428 90.1495L268.669 90.2465C268.717 90.295 268.91 90.3435 269.44 90.5375C269.873 89.5674 269.536 88.5972 269.102 88.0636C268.717 87.627 269.199 86.9479 269.922 87.2875C270.885 87.7241 271.946 88.3547 273.102 89.4218C274.693 90.9741 275.174 92.4294 274.837 92.7204C274.596 92.963 274.355 92.9144 274.066 92.7689L274.018 92.963C273.921 93.254 273.681 93.448 273.343 93.5451L273.295 93.5936C273.102 93.8361 272.861 93.9331 272.379 93.9331C271.946 93.9331 271.512 93.6906 271.416 93.6421L271.078 93.3995L270.885 93.7391C272.138 95.4854 274.596 98.2989 276.331 101.452C277.584 103.683 278.162 105.527 278.162 105.527C278.162 105.527 277.488 105.721 276.62 105.527C276.909 106.4 277.102 107.224 277.054 107.807C276.379 107.855 275.512 107.758 274.596 107.224C274.644 107.37 274.644 107.515 274.693 107.661C275.464 108.243 276.331 108.874 276.717 109.165C272.909 110.96 267.367 110.135 267.271 110.135C266.982 110.086 266.789 110.086 266.548 110.038L266.404 110.377C266.789 111.251 267.657 113.336 267.849 113.773C270.259 114.889 272.524 115.616 275.994 115.034C275.994 115.034 276.572 114.986 278.066 114.452C279.608 113.919 282.451 112.269 284.62 110.183C287.367 107.612 289.005 104.896 289.536 103.829C293.776 95.5339 294.451 83.2128 294.451 78.2164V75.6455C294.451 73.9962 294.355 71.2312 294.258 69.97Z" fill="#E62832"/>
<path d="M252.874 113.635C253.022 113.199 253.813 111.357 254.209 110.387C254.16 110.242 254.11 110.048 254.061 109.903C253.517 110 252.973 110.048 252.429 110.145C252.083 110.194 246.694 111.018 242.739 109.176C243.234 108.836 244.124 108.109 245.31 107.382L245.36 107.14C244.42 107.673 243.53 107.721 242.838 107.721C242.789 107.14 242.937 106.315 243.283 105.443C242.393 105.637 241.701 105.443 241.701 105.443C241.701 105.443 242.294 103.552 243.58 101.371C244.766 99.2864 246.447 97.1534 247.881 95.4082C248.029 94.7296 248.573 94.1479 248.622 94.0994L248.87 93.857C248.721 93.7116 248.573 93.6146 248.425 93.4692C248.276 93.6146 248.128 93.7116 248.029 93.76C247.584 93.9539 247.288 94.0509 247.04 94.0509C246.546 94.0509 246.249 93.954 246.101 93.7116L246.052 93.6631C245.706 93.5661 245.458 93.3722 245.36 93.0814L245.31 92.8875C245.014 92.9844 244.865 92.9844 244.618 92.7905C244.272 92.4997 244.766 90.9969 246.398 89.4941C247.535 88.4276 248.622 87.7974 249.661 87.3611C250.452 87.0218 250.897 87.7005 250.501 88.1368C250.056 88.67 249.71 89.6395 250.155 90.6091C250.649 90.4636 250.798 90.3667 250.897 90.3667C251.094 90.3182 251.292 90.2213 251.539 89.9304L251.638 89.7365L250.946 89.8335C251.292 89.0093 250.748 86.9249 251.094 85.5675L250.6 85.8584C250.353 84.6465 250.402 82.7074 250.501 81.7379C250.501 81.4955 250.155 81.0592 249.661 80.5744C249.265 81.544 248.622 82.7074 247.485 84.0647C246.596 85.1312 245.014 86.0523 244.223 89.4456C244.074 89.9789 243.876 90.4636 243.629 90.9969C243.085 92.0634 243.135 92.6936 243.135 92.6936C243.184 94.8265 243.085 99.2379 242.542 101.71C242.097 103.892 241.306 105.007 241.306 105.007L241.207 104.91C241.009 105.637 240.663 106.946 239.773 107.964C239.773 107.964 239.032 106.509 237.697 95.5052C236.214 83.3861 235.472 70.6852 235.472 70.6852C235.324 68.4553 235.868 65.8376 236.51 63.8985C237.697 60.8445 239.773 57.8874 241.059 56.6755C241.85 55.8999 242.739 55.7545 243.58 55.8999C243.333 55.5606 243.085 55.2212 243.085 55.2212C242.245 54.1063 241.256 52.8944 240.416 51.8279C234.384 62.2503 234.533 74.7088 234.533 74.8057V76.1146L233.495 75.5814C228.749 72.9152 226.672 71.3154 225.14 70.055C225.09 71.3154 224.942 75.6298 224.942 75.6298V78.2476C224.942 83.2406 225.832 95.4567 229.985 103.843C230.578 104.91 232.11 107.673 234.928 110.242C237.054 112.181 239.526 113.587 242.245 114.459C242.393 114.508 242.739 114.605 242.888 114.653C246.052 115.623 249.512 115.429 252.874 113.781V113.635Z" fill="#E62832"/>
<path d="M254.975 117.282C255.01 115.795 255.184 113.564 255.428 111.582C255.08 112.077 254.801 112.276 254.766 112.276L254.592 112.077C253.93 114.407 252.989 117.629 252.989 117.679C253.407 117.134 254.104 116.737 254.975 117.282Z" fill="#E62832"/>
<path d="M264.358 118.722C264.405 117.211 263.834 113.196 263.454 110.882L263.311 110.693L263.073 110.362C262.931 110.835 262.788 111.307 262.55 111.779C262.312 112.346 261.884 112.96 261.789 112.913C261.741 112.913 260.647 112.157 259.933 110.646C259.22 112.11 258.173 112.866 258.078 112.866C257.983 112.866 257.602 112.299 257.317 111.732C257.222 111.496 257.079 111.212 257.032 110.976C256.651 113.385 256.128 117.258 256.223 118.722C253.987 117.258 252.607 118.722 253.083 119.762L253.226 119.998C253.511 120.376 253.844 120.565 254.367 120.565C255.081 120.612 256.032 120.706 257.127 121.179C258.126 121.651 259.22 122.407 260.314 123.776C261.408 122.407 262.502 121.651 263.501 121.179C264.596 120.659 265.547 120.612 266.261 120.565C266.736 120.517 267.117 120.281 267.402 119.998L267.545 119.762C267.973 118.722 266.594 117.211 264.358 118.722Z" fill="#E62832"/>
<path d="M264.789 112.14C264.737 112.14 264.428 111.937 263.964 111.582C264.325 113.36 264.634 115.596 264.686 117.272C265.974 116.764 267.004 117.12 267.623 117.679C267.623 117.628 266.128 113.919 265.253 111.632C265.046 111.886 264.789 112.14 264.789 112.14Z" fill="#E62832"/>
<path d="M294.587 75.3614C294.538 73.7134 294.488 70.9505 294.39 69.6903C292.82 70.9505 291.298 72.2593 286.34 75.0706L285.064 75.7492V74.8282C285.064 74.7313 285.408 62.2742 279.321 51.5621C278.928 52.0468 277.652 53.6949 276.327 55.3429C277.112 55.2459 277.898 55.4398 278.634 56.1669C279.91 57.3787 281.972 60.3354 283.15 63.3891C283.788 65.3279 284.328 67.9453 284.18 70.175C284.18 70.175 283.444 82.8259 281.972 94.9437C280.646 105.947 279.91 107.401 279.91 107.401C279.076 106.383 278.683 105.074 278.487 104.347L278.388 104.444C278.388 104.444 277.603 103.329 277.161 101.196C276.621 98.7244 276.523 94.3136 276.572 92.1809C276.572 92.1809 276.621 91.5507 276.081 90.4844C275.836 89.9997 275.64 89.4665 275.492 88.9333C274.707 85.5403 273.136 84.5709 272.253 83.553C271.222 82.2928 270.436 80.984 269.995 79.8692L269.897 79.9177C269.308 80.4509 268.915 80.984 268.866 81.3233C269.062 83.3107 269.258 84.7163 268.964 85.7342L268.522 85.3949C268.669 86.7036 268.031 88.2062 268.424 89.418L267.639 89.3211L267.737 89.515C267.835 89.6604 267.933 89.7573 268.129 89.8542L268.375 89.9512C268.424 89.9997 268.62 90.0481 269.16 90.242C269.602 89.2726 269.258 88.3032 268.817 87.77C268.424 87.3338 268.915 86.6552 269.651 86.9945C270.633 87.4307 271.713 88.0608 272.891 89.1272C274.511 90.6783 275.001 92.1324 274.658 92.4232C274.412 92.6656 274.167 92.6171 273.872 92.4717L273.823 92.6656C273.725 92.9564 273.48 93.1503 273.136 93.2472L273.087 93.2957C272.891 93.538 272.645 93.635 272.154 93.635C271.713 93.635 271.271 93.3926 271.173 93.3442L270.829 93.1018L270.584 93.4411C271.86 95.1861 274.363 97.9974 276.13 101.148C277.407 103.378 277.996 105.268 277.996 105.268C277.996 105.268 277.308 105.462 276.425 105.268C276.719 106.141 276.916 106.965 276.867 107.546C276.18 107.595 275.296 107.498 274.363 106.965C274.412 107.11 274.412 107.255 274.462 107.401C275.247 107.982 276.13 108.613 276.523 108.903C272.645 110.697 267 109.873 266.902 109.873C266.608 109.824 266.411 109.824 266.166 109.776L266.019 110.115C266.411 110.988 267.295 113.072 267.491 113.508C269.946 114.623 272.253 115.35 275.787 114.768C275.787 114.768 276.376 114.72 277.898 114.187C279.468 113.654 282.364 112.006 284.573 109.921C287.371 107.352 289.04 104.638 289.58 103.572C293.899 95.283 294.587 82.9714 294.587 77.9788C294.587 76.3308 294.587 75.4584 294.587 75.3614ZM267.688 116.901C267.688 116.853 266.264 113.314 265.43 111.133C265.233 111.424 265.037 111.618 264.988 111.618C264.939 111.618 264.644 111.424 264.203 111.085C264.546 112.781 264.841 114.914 264.89 116.513C266.117 115.98 267.099 116.368 267.688 116.901ZM264.154 117.967C264.203 116.416 263.614 112.296 263.221 109.921L263.074 109.727L262.828 109.388C262.681 109.873 262.534 110.357 262.288 110.842C262.043 111.424 261.601 112.054 261.503 112.006C261.454 112.006 260.325 111.23 259.589 109.679C258.852 111.182 257.772 111.957 257.674 111.957C257.576 111.957 257.183 111.375 256.889 110.794C256.791 110.551 256.643 110.261 256.594 110.018C256.202 112.49 255.662 116.465 255.76 117.967C253.453 116.465 252.029 117.967 252.52 119.034L252.667 119.276C252.962 119.664 253.306 119.858 253.846 119.858C254.582 119.906 255.564 120.003 256.692 120.488C257.723 120.973 258.852 121.748 259.981 123.154C261.11 121.748 262.239 120.973 263.27 120.488C264.399 119.955 265.381 119.906 266.117 119.858C266.608 119.809 267 119.567 267.295 119.276L267.442 119.034C267.884 117.967 266.461 116.416 264.154 117.967ZM252.177 116.901C252.815 116.368 253.796 116.029 254.974 116.513C255.024 115.059 255.269 112.878 255.613 110.939C255.122 111.424 254.729 111.618 254.68 111.618L254.435 111.424C253.502 113.654 252.226 116.853 252.177 116.901ZM252.422 113.411L252.471 113.314C252.618 112.878 253.404 111.036 253.796 110.067C253.747 109.921 253.698 109.727 253.649 109.582C253.109 109.679 252.569 109.727 252.029 109.824C251.686 109.873 246.335 110.697 242.409 108.855C242.899 108.516 243.783 107.789 244.961 107.061L245.01 106.819C244.077 107.352 243.194 107.401 242.507 107.401C242.458 106.819 242.605 105.995 242.948 105.123C242.065 105.317 241.378 105.123 241.378 105.123C241.378 105.123 241.967 103.232 243.243 101.003C244.421 98.9183 246.09 96.7856 247.513 95.0891C247.661 94.4105 248.201 93.8289 248.25 93.7804L248.495 93.538C248.348 93.3926 248.201 93.2957 248.053 93.1503C247.906 93.2957 247.759 93.3926 247.661 93.4411C247.219 93.635 246.924 93.7319 246.679 93.7319C246.188 93.7319 245.894 93.635 245.746 93.3926L245.697 93.3442C245.354 93.2472 245.108 93.0533 245.01 92.7625L244.961 92.5686C244.666 92.6656 244.519 92.6656 244.274 92.4717C243.93 92.1809 244.421 90.6783 246.041 89.1757C247.17 88.1093 248.25 87.4792 249.281 87.0429C250.066 86.7036 250.508 87.3822 250.115 87.8185C249.673 88.3516 249.33 89.3211 249.771 90.2905C250.262 90.1451 250.41 90.0481 250.508 90.0481C250.704 89.9997 250.9 89.9027 251.146 89.6119L251.244 89.4665L250.557 89.5634C250.9 88.7394 250.36 86.6552 250.704 85.298L250.213 85.5888C249.968 84.377 250.017 82.4382 250.115 81.4688C250.115 81.2264 249.771 80.7902 249.281 80.3055C248.888 81.2749 248.25 82.4382 247.121 83.7954C246.237 84.8617 244.666 85.7827 243.881 89.1757C243.734 89.7088 243.538 90.1936 243.292 90.7267C242.752 91.7931 242.801 92.4232 242.801 92.4232C242.85 94.5559 242.752 98.9668 242.212 101.439C241.77 103.62 240.985 104.686 240.985 104.686L240.887 104.589C240.691 105.317 240.347 106.625 239.463 107.643C239.463 107.643 238.727 106.189 237.402 95.1861C235.929 83.0683 235.193 70.3689 235.193 70.3689C235.046 68.1392 235.586 65.5218 236.224 63.5829C237.402 60.5293 239.463 57.5725 240.74 56.3608C241.525 55.5852 242.409 55.4398 243.243 55.5852C242.998 55.2459 242.752 54.9066 242.752 54.9066C241.918 53.7918 240.936 52.58 240.102 51.5137C234.113 61.9349 234.26 74.392 234.26 74.4889V75.7976L233.23 75.2645C228.517 72.5986 226.456 70.999 224.934 69.7388C224.885 70.999 224.738 75.3129 224.738 75.3129V77.9304C224.738 82.9229 225.621 95.1376 229.744 103.523C230.333 104.589 231.855 107.352 234.604 109.921C236.715 111.86 239.169 113.266 241.869 114.138C242.016 114.187 242.359 114.284 242.507 114.332C245.648 115.302 249.084 115.108 252.422 113.411ZM224.983 68.3331C225.572 68.8178 228.517 71.2898 233.23 73.9557C233.328 71.1929 233.426 61.2563 239.463 50.6412C238.776 49.7202 238.482 49.3325 237.794 48.46C237.304 48.9932 236.666 49.3325 235.733 49.6233C235.782 47.539 235.291 46.3757 234.702 45.1155C233.868 45.164 232.395 45.1639 230.088 44.6792C227.045 51.0774 225.523 58.4935 224.983 68.3331ZM230.137 44.6308C230.432 44.4854 231.364 43.9037 231.953 43.0797C232.248 42.6919 232.493 42.2557 232.64 41.9164L232.002 41.1409C231.315 42.2072 230.726 43.419 230.137 44.6308ZM233.23 40.7531C233.328 40.5592 233.426 40.4138 233.524 40.3168C232.002 38.378 231.021 37.0693 230.922 36.9723C230.677 36.6815 230.039 35.4697 230.235 34.5003C228.419 33.6763 227.143 32.7554 227.143 32.7554C227.143 32.7554 229.99 36.5361 233.23 40.7531ZM233.426 39.202C233.573 39.3959 233.769 39.6383 233.917 39.8321C236.371 36.73 239.66 34.5003 243.587 33.0462C243.292 32.61 242.85 31.5436 243.979 30.4288C245.697 30.6226 246.09 31.6405 246.237 32.1737C249.33 31.3497 252.962 30.865 257.036 30.7196C257.183 27.9567 259.196 27.2781 259.196 27.2781C259.196 27.2781 259.245 26.745 259.638 26.5995C260.079 26.7934 260.079 27.2781 260.079 27.2781C260.079 27.2781 262.092 27.9567 262.239 30.7196C266.313 30.865 269.946 31.3497 273.038 32.1737C273.136 31.6405 273.578 30.6226 275.296 30.4288C276.474 31.5436 275.983 32.5615 275.689 33.0462C279.665 34.5003 283.052 36.8269 285.506 39.9291C285.702 39.6867 285.849 39.4928 285.997 39.2505C283.69 36.4392 280.499 34.161 277.063 32.8038C277.456 31.689 277.063 30.7681 276.425 30.0895C276.425 29.6532 276.18 29.2655 275.885 29.12C275.541 29.0716 275.051 29.217 274.707 29.5563C273.725 29.7017 272.744 30.1864 272.204 31.2528C269.651 30.6226 266.755 30.2349 263.123 30.041C263.025 28.393 262.043 27.3266 260.865 26.745C260.619 26.1633 260.128 25.824 259.687 25.7271C259.245 25.824 258.754 26.1633 258.509 26.745C257.282 27.3266 256.3 28.3445 256.251 30.041C252.569 30.2349 249.722 30.6226 247.17 31.2528C246.63 30.1864 245.648 29.7017 244.666 29.5563C244.323 29.217 243.832 29.0716 243.488 29.12C243.194 29.2655 242.948 29.6532 242.948 30.0895C242.31 30.7681 241.918 31.689 242.31 32.8038C238.776 34.2095 235.684 36.3907 233.426 39.202ZM285.898 40.4623L286.144 40.8985C289.433 36.5846 292.476 32.61 292.476 32.61C292.476 32.61 291.2 33.4824 289.384 34.3549C289.58 35.3243 288.942 36.5361 288.696 36.8269C288.598 36.9723 287.518 38.378 285.898 40.4623ZM287.224 41.2378C287.027 41.4802 286.635 42.0133 286.635 42.0133C287.126 42.9343 287.666 43.8552 289.089 44.5823C288.549 43.419 287.911 42.3042 287.224 41.2378ZM277.898 51.8045C278.143 51.4652 279.37 49.8656 280.99 47.7814C280.892 47.636 280.744 47.4906 280.646 47.3451C279.517 48.7993 278.388 50.3019 277.308 51.756C276.523 52.8224 275.247 54.5673 275.198 54.7612C275.198 55.1005 277.259 52.6285 277.898 51.8045ZM257.232 108.661C257.38 109.194 257.674 109.873 257.92 110.212C257.92 110.212 259 109.34 259.294 107.401C259.098 107.546 258.754 107.837 258.46 107.982C258.018 108.273 257.576 108.516 257.232 108.661ZM243.783 108.661C245.452 109.291 250.066 109.34 252.226 109.097C254.974 108.758 257.085 107.934 258.852 106.722C258.41 106.334 257.821 105.801 257.232 105.268C256.3 105.995 255.465 106.577 254.974 106.819C251.686 108.128 247.317 108.467 247.317 108.467C247.317 108.467 252.962 107.207 254.925 106.141C255.318 105.947 255.956 105.462 256.692 104.832C255.956 104.153 255.269 103.426 254.68 102.893C254.336 103.232 254.042 103.426 253.649 103.717C252.913 104.25 251.833 104.589 250.999 104.977C247.023 106.48 244.372 108.128 243.783 108.661ZM250.262 75.7976C250.557 74.8767 250.9 68.9632 248.544 66.4427C249.133 68.7209 249.919 71.3868 250.262 75.7976ZM245.795 61.2079C245.697 61.9834 245.697 62.9528 245.894 63.6799C246.041 64.1646 246.286 64.6493 246.434 65.0855C246.532 63.5829 246.139 61.9349 245.795 61.2079ZM246.974 63.0982C246.974 64.7463 247.317 66.0065 247.906 68.0423C247.955 65.8611 247.513 63.6799 246.974 63.0982ZM238.384 47.5875C240.102 49.8656 241.427 51.6106 241.672 51.9499C242.261 52.7739 244.372 55.2459 244.323 54.9066C244.323 54.7127 243.047 52.9678 242.212 51.9014C241.034 50.3504 239.807 48.7023 238.629 47.1513C238.58 47.2967 238.482 47.4421 238.384 47.5875ZM236.862 39.4928C236.666 39.299 236.224 38.9112 235.144 39.6867C233.18 41.3832 233.819 42.8858 231.757 44.243C232.493 44.3884 233.082 44.4369 233.573 44.4369C233.917 44.4369 234.162 44.4369 234.408 44.3884C234.8 44.3399 235.095 44.2915 235.34 44.243C235.831 45.3578 236.518 46.3757 236.469 48.3146C238.825 47.0543 237.893 43.0797 240.102 43.1282C238.874 41.7225 237.058 39.7352 236.862 39.4928ZM282.119 38.5719C280.843 37.3116 278.83 35.9545 276.376 34.8881C270.044 32.1252 261.945 32.1252 259.638 32.1252C257.331 32.1252 249.281 32.1252 242.899 34.8881C240.445 35.9545 238.433 37.3116 237.156 38.5719C237.156 38.5719 240.052 41.771 240.789 42.6435C241.181 43.0797 241.329 43.4675 241.083 44.1461C245.501 41.2378 250.508 39.7837 259.49 39.6867H259.883C268.669 39.7837 273.823 41.2378 278.241 44.1461C277.996 43.4675 278.143 43.0797 278.536 42.6435C279.272 41.771 282.119 38.5719 282.119 38.5719ZM280.892 45.2609C281.186 46.2788 281.481 47.3936 282.364 48.0722L282.757 48.3146C282.757 46.3757 283.395 45.3578 283.886 44.243C284.622 44.3399 285.555 44.6308 287.469 44.2915C285.653 43.0797 286.046 41.7225 284.671 40.2199C284.524 40.0745 284.377 39.8806 284.18 39.7352C283.69 39.3959 283.346 39.299 283.052 39.2505C282.708 39.2505 282.512 39.3959 282.413 39.5413C282.217 39.7352 280.352 41.771 279.076 43.1282C280.254 43.0797 280.548 44.0976 280.892 45.2609ZM279.321 48.0237C279.517 47.7814 279.714 47.539 279.91 47.2482C277.308 44.9701 273.431 42.6919 269.209 41.771C266.362 41.1409 264.055 41.0924 262.632 41.1409C261.454 41.1409 260.668 41.6256 260.668 42.3526C259.932 42.2072 259.736 41.2863 259.638 41.1409C259.589 41.5286 259.196 42.2557 258.607 42.3526C258.607 41.6256 257.871 41.1893 256.643 41.1409C255.22 41.1409 252.913 41.1893 250.066 41.771C245.746 42.6919 242.016 44.7762 239.414 47.1028C239.611 47.3451 239.807 47.5875 240.003 47.8299C242.359 45.6487 245.452 43.9522 248.79 42.9828C251.538 42.2072 254.925 41.9164 256.496 41.9649C257.871 42.0133 258.067 42.7889 257.92 43.2251C258.558 43.2736 259.441 42.7404 259.638 42.4011C259.785 42.6919 260.619 43.2736 261.405 43.2251C261.257 42.7889 261.454 42.0133 262.828 41.9649C264.399 41.9164 267.786 42.1587 270.535 42.9828C273.725 44.0006 277.014 45.9395 279.321 48.0237ZM269.062 60.2869C269.406 60.2869 269.7 60.2384 269.995 60.093C270.24 59.9476 270.289 59.8507 270.387 59.7053C272.4 56.8455 276.081 52.2407 278.879 48.6054C273.185 43.0797 265.037 42.6919 262.926 42.8373C262.436 42.8858 261.846 43.2736 262.485 44.0976C262.043 44.2915 260.276 44.1461 259.638 43.5644C259 44.1461 257.232 44.3399 256.791 44.0976C257.429 43.2736 256.84 42.8858 256.349 42.8373C254.189 42.6919 245.648 43.5159 240.494 48.5085C243.341 52.2407 249.281 59.9961 249.428 60.1415C249.526 60.2869 249.82 60.4808 250.213 60.4808H250.36C250.655 60.4808 250.949 60.2384 251.293 59.8991C251.931 59.2206 252.226 58.8813 252.815 58.2511C253.993 57.0878 255.073 56.1669 255.269 56.0215C255.76 55.5852 255.907 55.1975 255.956 54.8582C255.907 54.4219 255.564 54.2765 255.367 54.0342L255.269 54.1796C255.073 54.0342 254.876 53.3556 254.876 53.3556L254.778 53.6464C254.778 53.6464 254.336 52.6285 253.649 52.677C252.717 52.8224 252.078 52.3861 252.029 52.3861C251.98 52.3861 251.931 52.677 251.931 53.0647H251.882C251.244 52.5315 251.048 51.1259 252.275 50.2049C253.06 49.6233 253.207 49.6718 253.796 49.3809C254.042 49.284 254.238 49.0416 254.287 48.9447C254.68 48.46 255.514 48.1692 255.956 48.0722C256.545 47.9268 257.92 47.7329 259.294 47.7814C260.079 47.8299 260.816 47.9753 261.307 48.2176C261.699 48.363 262.877 49.2355 263.564 50.108C264.006 50.6412 264.743 52.2407 265.135 53.2586C266.019 55.3429 265.921 55.149 266.51 56.5062C267.197 58.1057 267.59 58.9782 268.228 59.8507C268.424 60.1415 268.62 60.2384 269.062 60.2869ZM251.637 75.5068C251.637 76.3308 252.226 77.4941 253.011 77.9304C252.569 76.6701 252.177 76.2824 251.637 75.5068ZM262.485 84.7648C262.19 85.2495 261.945 85.4919 261.552 85.8312C261.699 85.4919 261.699 85.1041 261.699 85.1041C261.503 85.4919 261.11 85.9766 260.816 86.2674C260.128 86.946 259.981 87.6246 259.981 87.6246C259.981 87.6246 260.178 87.3822 261.012 86.8975C261.896 86.3643 262.19 85.5888 262.485 84.7648ZM263.025 93.3926C262.779 93.0533 262.141 92.2293 261.601 91.7446C261.994 92.6171 262.141 93.1988 262.19 93.3926L262.288 93.3442L262.583 93.2957L262.926 93.3442L263.025 93.3926ZM262.583 100.469C263.074 100.954 263.663 101.536 264.104 101.972C264.35 101.681 264.595 101.439 264.743 101.245L263.221 99.8393L262.583 100.469ZM259.834 97.755C260.521 98.4336 261.405 99.403 261.994 99.9362C262.386 99.5485 262.632 99.3546 262.632 99.3546L260.325 97.2703C260.227 97.3188 260.03 97.5127 259.834 97.755ZM259.589 96.4463V97.2218L259.981 96.8341L259.589 96.4463ZM259.589 96.0101C259.589 95.9616 259.981 95.5254 260.178 95.3799L260.227 95.3315C260.128 94.5075 259.932 93.4896 259.638 93.1018C259.539 93.4896 259.589 94.9437 259.589 96.0101ZM260.521 92.1809C260.619 92.811 260.718 94.3136 260.718 94.7983C260.865 94.6044 261.061 94.459 261.257 94.2651C261.257 93.9743 261.061 92.811 260.521 92.1809ZM259.539 91.5507C259.539 91.5507 259.687 91.5023 260.03 91.3084C260.325 91.1145 260.57 90.9206 260.718 90.6298C260.865 90.339 260.865 90.0481 260.816 89.9027C260.816 89.9027 260.767 90.1935 260.374 90.5328C260.227 90.6783 259.981 90.9206 259.834 91.066C259.638 91.3084 259.539 91.5507 259.539 91.5507ZM258.95 87.2853C258.95 86.2189 257.772 86.122 257.478 85.0556C257.38 86.5582 258.41 86.5582 258.95 87.2853ZM259.589 89.7088C259.589 89.7088 259.687 89.4665 260.03 89.2241C260.276 89.0787 261.601 88.2547 261.896 87.9154C262.141 87.5761 262.239 87.0914 262.239 87.0914C262.239 87.0914 261.994 87.4792 261.454 87.77C261.012 88.0123 259.932 88.6909 259.736 88.9818C259.638 89.1272 259.589 89.2726 259.589 89.418L259.49 89.1272C259.147 88.4486 258.165 88.1578 257.576 87.4792C257.183 87.0429 257.183 86.849 257.183 86.849C257.183 87.2853 257.282 87.6246 257.429 87.8669C257.576 88.1093 258.067 88.4971 258.754 88.9333C259.49 89.418 259.589 89.7088 259.589 89.7088ZM259.098 91.066C259.098 91.066 259 90.242 258.361 89.9997C258.41 90.5813 259.098 91.066 259.098 91.066ZM258.803 95.3799C258.803 94.7498 258.754 94.0228 258.705 93.7319C258.509 94.0228 258.361 94.459 258.263 94.8468L258.803 95.3799ZM255.22 93.635C255.416 93.5865 255.858 93.3442 256.103 93.2957L256.3 93.2472C256.447 92.7625 256.643 91.987 256.84 91.6477C256.692 91.5992 255.465 93.2957 255.22 93.635ZM257.183 93.7319L257.625 94.1197C257.674 93.635 257.92 92.0354 257.821 91.8416C257.232 92.9079 257.183 93.635 257.183 93.7319ZM257.232 84.6678C257.232 84.6678 257.232 84.377 257.036 84.0377C256.938 83.8438 256.643 83.6015 256.447 83.4076C256.3 83.2622 256.3 83.1652 256.3 83.1652C256.251 83.3591 256.349 83.7954 256.398 83.9408C256.447 84.1347 256.594 84.3285 256.791 84.474C257.085 84.6194 257.232 84.6678 257.232 84.6678ZM256.742 95.8162L251.882 100.324C252.177 100.615 252.52 100.954 252.717 101.196H252.962C253.256 100.906 258.116 96.5432 258.509 96.2039V96.107C258.312 95.8647 257.772 95.3315 257.429 94.9437C256.987 94.5075 256.447 93.9258 256.054 94.0228C255.662 94.1197 255.662 94.1682 255.122 94.2651C254.091 94.459 253.306 94.2166 252.913 94.1197L252.815 94.0712L252.766 94.4105L252.717 94.7498C253.207 94.8468 253.502 94.8468 254.729 94.8468C255.122 94.8468 255.367 94.9922 255.024 95.3315C255.024 95.3315 251.833 98.4336 251.686 98.6275C250.999 99.2576 250.999 99.403 251.195 99.5969C251.244 99.6454 251.244 99.5969 251.391 99.7908L252.667 98.676L254.729 96.8825L256.3 95.4284L256.496 95.3799L256.791 95.6708L256.742 95.8162ZM264.203 94.7983C265.381 94.7983 265.675 94.7983 266.166 94.7014L266.068 94.3136L266.019 94.0228H265.97C265.577 94.1197 264.792 94.3621 263.761 94.1682C263.27 94.0712 263.221 94.0712 262.828 93.9258C262.485 93.8289 261.896 94.4105 261.454 94.8468C261.061 95.2345 260.57 95.8162 260.374 96.0101V96.1555C260.767 96.4948 265.626 100.906 265.921 101.148H266.166C266.362 100.954 266.706 100.615 267 100.276L262.141 95.7677L262.092 95.5738L262.386 95.283L262.583 95.3315L264.154 96.7856L266.215 98.579L267.491 99.6939C267.688 99.5 267.639 99.5485 267.688 99.5C267.884 99.3061 267.835 99.1607 267.197 98.5306C267 98.3367 263.859 95.2345 263.859 95.2345C263.614 94.9437 263.81 94.7983 264.203 94.7983ZM263.221 81.9535C263.221 81.9535 263.957 81.2264 264.252 78.8998C264.399 79.0937 264.644 79.2391 264.743 79.5784C265.233 78.9967 266.166 75.8461 266.264 74.7798C266.559 74.9252 266.313 74.8282 266.657 75.0221C266.902 74.5859 267.442 72.7924 267.688 70.3204L268.08 70.4658C268.228 69.351 268.424 67.5091 268.473 66.2489C268.522 65.134 268.473 62.9044 268.031 61.5956C267.54 60.2869 267.344 59.6083 266.608 58.445C266.608 58.445 266.313 58.5904 266.215 58.7843C266.019 58.1542 265.43 56.6516 265.135 56.1184C264.399 54.7127 264.055 53.8403 263.319 53.3556C263.663 53.3556 263.81 53.4525 264.203 53.4525C263.712 53.0163 263.515 52.677 262.975 52.2892C263.172 52.1923 263.466 52.1923 264.006 52.2892C263.27 51.6106 263.025 50.5927 261.11 49.9141C261.454 49.8656 261.699 49.9626 262.141 49.9626C261.896 49.5748 261.307 48.9932 260.374 48.7023C258.41 48.3146 255.76 48.2661 254.484 49.7202C254.385 49.8172 254.042 49.9141 253.747 50.0111C253.551 50.108 253.453 50.1565 253.404 50.2049C253.207 50.3504 253.158 50.5927 253.551 51.1744C253.011 51.0774 252.864 50.5927 252.766 50.6412C252.569 50.7866 252.373 50.932 252.177 51.2228C251.98 51.5137 251.833 52.0468 251.882 52.2892C251.931 52.3377 252.422 52.5315 252.471 51.9984C252.52 51.8045 253.355 51.756 253.649 51.756C254.091 51.756 254.484 51.853 255.024 51.853C254.827 51.9014 254.238 52.0953 253.993 52.1438C253.747 52.1923 253.747 52.4831 253.944 52.4831C254.189 52.5315 254.287 52.3861 254.533 52.3377C254.631 52.3861 254.533 52.677 254.631 52.8224C256.202 52.4831 256.3 54.1311 257.969 53.7918C257.183 53.1617 256.496 52.1923 255.907 51.853C257.576 52.0953 258.46 53.5494 260.227 53.6464C260.194 53.5494 260.128 53.3879 260.03 53.1617C260.619 53.1617 261.061 53.6464 261.257 53.5979C261.012 53.8403 260.521 54.0342 259.834 54.1311C259.932 54.3734 260.619 54.4219 260.865 54.4219C260.521 54.7612 260.079 54.9066 259.294 54.7612C259.049 55.0036 258.656 55.5368 257.527 56.2638C257.527 56.0699 257.543 55.8922 257.576 55.7306C256.791 56.1669 256.3 56.9909 255.711 57.1848C255.907 56.8939 256.005 56.4092 256.153 56.1669C254.14 57.9603 252.226 59.7053 251.489 61.014C250.704 62.4681 250.41 63.9707 250.557 66.4427C250.655 67.7515 251.195 71.5322 251.293 72.2593C251.44 72.2108 251.588 72.1138 251.686 72.0654C252.177 74.8282 253.6 78.6574 254.385 79.9177C254.533 79.6269 254.582 79.4814 254.827 79.336C254.925 80.0631 255.318 80.8871 255.956 81.4203C255.956 80.9356 256.153 80.6448 256.202 80.4509C256.349 80.984 256.251 82.6321 257.232 83.553C257.183 83.1168 257.331 82.729 257.478 82.0989C257.625 82.6321 257.674 83.3107 257.92 83.8438C258.214 84.474 258.607 85.1041 258.95 85.2495C258.901 83.9408 259.098 83.9893 259.147 83.4561C259.147 83.553 259.687 84.0377 259.932 85.6857C260.914 84.9587 261.307 82.5351 261.307 82.5351C261.307 82.5351 261.601 82.7775 261.797 83.4561C262.632 82.5836 262.926 81.4203 263.172 80.5478C263.27 81.0325 263.319 81.6626 263.221 81.9535ZM247.415 71.4353C248.152 72.4531 249.526 75.7007 249.526 77.9304C250.41 75.7007 248.986 71.2898 247.661 68.8663C247.661 69.5934 247.464 69.7872 247.317 70.0781C247.072 67.2667 245.256 65.1825 244.961 63.2436C244.912 63.5829 244.863 63.8253 244.765 64.1161C244.127 63.0013 243.538 61.6926 243.145 60.093C243.047 60.2384 242.801 60.7232 242.801 61.2563C241.918 58.8328 242.752 57.8149 243.047 57.6695C243.734 57.2817 244.519 57.9118 245.157 58.5904C246.09 59.6083 247.072 61.6926 250.262 61.741C250.753 61.741 250.949 61.6441 250.704 61.5956C248.102 61.1109 247.612 60.093 245.403 57.7179C244.028 56.2638 242.703 55.3913 241.083 57.2817C237.942 60.917 236.96 63.9707 236.42 66.4912C236.076 67.9453 235.88 70.9505 236.273 72.4531C236.666 72.3077 236.666 72.2108 236.666 72.2108C236.666 72.2108 237.058 76.3793 237.794 77.3972C237.991 76.9609 238.285 75.8461 238.285 74.8767C238.678 76.0885 239.022 76.7671 239.611 77.4457C239.905 76.4278 239.905 75.4583 239.758 74.295C240.396 75.7976 240.887 76.4278 241.23 76.6701C241.476 75.9915 241.77 74.9252 241.574 71.5322C241.82 72.7924 241.967 73.8103 242.016 74.5859C242.212 74.7313 242.458 74.9252 242.703 75.0221C242.801 74.6828 243.145 74.1981 242.605 69.8842C244.077 74.5374 243.243 75.7976 243.096 76.1369C242.605 75.8461 242.261 75.5068 242.065 75.2645C242.114 76.6701 241.82 77.2033 241.623 77.7365C241.083 77.4457 240.74 77.0579 240.396 76.5247C240.445 77.9788 240.052 78.8513 240.052 78.8513C240.052 78.8513 238.973 77.688 238.678 76.7671C238.727 77.3003 238.334 78.9967 237.991 79.2876C236.764 77.7365 236.371 73.2772 236.371 73.2772L236.175 73.4226C236.224 74.4889 236.371 76.1854 236.518 78.0758C236.715 80.3055 236.911 82.7775 237.107 85.0071C237.598 90.339 238.187 95.6708 238.923 100.954C238.923 100.954 239.022 101.827 239.169 102.311C239.316 101.778 239.365 99.6454 239.267 98.4821C239.218 98.1913 239.66 97.7066 239.66 96.107C239.66 95.4769 238.923 87.2853 238.629 84.0862C238.58 83.6984 238.531 82.8259 238.531 82.8259L238.58 83.1652C238.825 84.377 239.022 85.5888 239.218 86.8006C239.316 87.5276 239.463 88.3032 239.562 89.0787C239.905 91.4538 240.2 93.8289 240.249 96.2039C240.298 97.755 239.758 98.1428 239.807 98.4821C240.102 100.372 239.856 102.214 239.463 103.281C239.316 103.232 239.169 103.087 239.12 102.99C239.365 104.444 239.709 105.607 239.709 105.607C240.298 104.396 240.592 103.087 240.494 99.8393C240.494 99.5969 240.985 98.8699 241.034 97.1734C241.034 96.6887 240.985 95.0891 240.838 93.1503C240.592 89.6604 240.298 86.1704 240.003 82.729C240.003 82.5836 239.954 82.1474 239.954 82.0989C240.003 82.2443 240.052 82.3897 240.052 82.5836C241.034 87.0429 241.427 91.6961 241.672 96.2039C241.77 98.2397 240.985 99.7908 241.034 100.082C241.132 101.1 241.132 101.051 241.083 101.924C241.034 102.99 240.985 103.135 240.985 103.135C241.329 102.36 242.458 99.6939 242.114 91.3568C242.114 91.163 242.114 90.9691 242.065 90.7267C241.77 84.9102 241.28 81.1295 241.28 81.1295C241.82 82.729 242.31 86.2189 242.605 90.2905L242.703 90.0966C243.292 88.5455 243.39 86.9945 243.292 85.3949C243.096 82.3412 242.752 79.8692 242.752 79.8692L242.85 80.1116C242.948 80.4509 243.243 81.3718 243.538 82.9229C243.734 83.9893 243.93 85.1041 243.979 86.1704V86.6067C245.157 84.8617 244.666 81.4203 244.077 77.8334C244.568 78.9967 245.501 82.1958 245.256 84.6194C247.023 82.9714 246.041 79.7723 245.403 76.04C246.384 78.2697 247.121 80.9356 246.875 82.729C248.299 80.8871 247.759 78.4636 246.483 73.7134C247.268 74.9736 248.348 77.9788 248.397 79.8207C249.428 77.8819 248.348 74.3435 247.415 71.4353ZM249.281 88.1578C249.575 87.7215 249.133 87.5761 248.348 88.1093C247.857 88.4001 246.188 89.5149 245.305 90.6783C245.108 90.9691 245.157 91.1145 245.55 90.7752C246.384 89.9512 247.71 88.7394 247.661 89.3211C247.661 89.8058 247.71 90.2905 247.906 90.7752L248.299 90.6783L249.428 90.3874C249.035 89.5149 248.937 88.6909 249.281 88.1578ZM248.741 93.9258C248.299 94.4105 247.906 94.9437 247.906 95.6708C247.906 96.1555 248.25 96.4463 248.642 96.4463C249.281 96.3978 248.937 95.7192 249.33 96.107C249.477 96.3009 249.968 95.7192 250.115 95.5738C249.82 95.6223 249.428 95.6708 249.477 95.2345C249.526 94.9437 249.771 94.7014 249.919 94.459C250.066 94.2651 250.606 93.2472 250.949 93.3926C251.097 93.4896 250.999 94.459 250.753 95.0406C250.164 96.2524 250.066 97.0764 250.459 97.3188H250.508V97.3673C250.459 97.8035 250.459 98.2882 250.999 98.579L251.048 98.5306C250.9 98.0943 251.048 97.852 251.097 97.6581C251.097 97.6096 251.146 97.4642 250.802 97.3673H250.753H251.342C251.588 97.3188 251.833 97.2703 251.882 96.8341C251.882 96.6887 251.931 96.5433 251.931 96.3494C252.029 95.6708 252.128 95.0406 252.226 94.5559C252.324 94.0228 252.471 92.6656 252.471 92.6656L252.766 92.6171C252.913 92.6171 253.158 92.714 253.306 93.0049C253.355 93.1018 253.355 93.2472 253.306 93.4411C253.453 93.3926 253.649 93.2472 253.649 92.9564V92.9079C253.846 92.7625 253.944 92.6171 253.993 92.4232C254.091 91.9385 253.502 91.4538 253.453 91.4053C253.109 91.163 253.207 90.6298 253.355 90.1935L253.551 89.6604C253.747 89.8542 253.944 90.0966 254.238 90.242C255.024 90.7752 255.809 90.6783 255.809 90.6783C255.809 90.6783 255.613 90.242 255.564 89.7088C255.465 88.9818 255.514 88.4001 255.514 88.4001L256.103 89.0302C256.103 89.0302 256.447 87.8669 256.251 85.6373C256.005 83.0683 255.416 82.0989 255.318 81.7111C255.122 81.1295 254.778 80.5478 254.778 80.5478C254.778 80.5478 254.729 80.8386 254.287 81.2264C253.796 80.5963 252.913 79.3845 252.667 78.5605C252.52 78.8028 252.324 78.9967 252.177 79.1906L252.078 79.2876V79.1906C251.98 78.5605 251.637 78.1243 251.293 77.688C251.048 77.3972 250.802 77.0579 250.704 76.7671C250.508 77.4457 250.459 78.1727 250.41 78.8513C250.36 79.5299 250.311 80.0631 250.164 80.4509L250.459 80.257C250.606 80.16 250.704 80.1116 250.753 80.1116H250.802L250.851 80.2085C250.655 81.081 250.459 82.0989 250.41 82.6805C250.311 83.553 250.41 84.3285 250.459 84.7163L251.146 84.3285C251.146 84.3285 250.753 85.5888 250.949 87.7215C250.999 88.0608 250.949 88.6909 250.9 88.8848C251.293 88.8364 251.637 88.6425 251.833 88.4971C251.686 89.0787 251.538 89.5634 251.391 89.7573C250.851 90.4844 249.722 90.6783 248.888 90.8721C247.857 91.163 246.826 91.3568 245.894 91.8416C245.599 91.987 245.256 92.3263 245.354 92.5686C245.452 92.811 245.795 92.8595 245.943 92.8595L245.992 93.0049C246.237 93.3442 246.974 93.1503 247.17 93.0533C247.366 92.9564 247.513 92.811 247.563 92.7625C247.513 92.811 247.268 92.714 247.121 92.6656L247.023 92.5202C246.974 92.0839 248.79 92.0354 249.084 92.0354C249.379 92.0354 249.477 92.0839 249.575 92.2778C249.722 92.4717 249.82 92.7625 248.741 93.9258ZM249.624 100.227C249.281 101.342 248.544 102.99 247.415 104.541C246.875 105.317 246.041 106.141 246.041 106.141C246.041 106.141 245.992 106.286 245.943 106.528L245.795 106.625L246.728 106.141C246.875 106.044 247.023 105.995 247.17 105.898C247.759 105.559 248.446 105.268 249.084 104.977C249.722 103.814 250.508 102.408 250.753 102.069C250.655 102.36 250.508 103.135 249.82 104.686L250.311 104.493C251.342 104.105 252.275 103.765 252.717 103.572C253.453 103.232 253.747 102.99 254.042 102.748L254.336 102.505L253.6 101.778L253.355 101.972C253.355 101.972 252.913 102.36 252.52 102.02C252.177 101.73 250.655 100.033 250.508 99.8877C250.36 99.6939 250.164 99.403 250.557 98.8699V98.8214C250.066 98.3851 250.017 97.8035 250.017 97.5127C249.82 97.2703 249.722 96.931 249.771 96.4948C249.624 96.5917 249.477 96.6402 249.33 96.5917C249.182 96.7371 248.937 96.8825 248.692 96.8825H248.593C248.348 96.8825 248.102 96.8341 247.906 96.6887C247.71 96.4948 247.71 96.5432 247.513 96.2039L247.464 96.1555C246.581 97.0764 245.746 98.2397 244.568 100.082C243.096 102.408 242.752 103.232 242.458 104.105C243.439 104.056 243.979 103.911 245.206 102.602C245.795 102.02 247.317 99.7423 248.299 98.579C247.464 100.566 246.581 102.069 245.845 103.038C245.01 104.202 244.127 104.929 244.127 104.929C244.127 104.929 243.734 105.171 243.538 106.334C244.176 106.334 245.894 105.413 247.464 103.281C248.004 102.602 248.348 102.117 249.624 100.227ZM260.079 107.692C260.079 108.855 261.061 110.018 261.257 110.212C261.257 110.212 261.601 109.776 261.797 108.613C261.012 108.273 260.472 107.934 260.079 107.692ZM266.755 109.049C268.915 109.34 273.529 109.243 275.198 108.613C274.56 108.128 271.958 106.431 267.933 104.88C267.099 104.541 266.019 104.153 265.282 103.62C264.841 103.281 264.546 103.087 264.104 102.651C262.779 101.439 259.294 97.852 258.656 97.1734L256.349 99.2576C256.349 99.2576 262.485 105.171 264.055 105.995C266.019 107.061 271.713 108.322 271.713 108.322C271.713 108.322 267.393 107.982 264.055 106.674C262.092 105.898 255.809 99.7908 255.809 99.7908L254.287 101.196C255.073 102.02 256.742 103.911 259.49 106.092C261.307 107.643 263.614 108.661 266.755 109.049ZM271.075 98.676C272.056 99.8877 273.578 102.117 274.167 102.699C275.443 104.008 275.983 104.153 276.916 104.202C276.621 103.329 276.278 102.457 274.805 100.13C274.02 98.9183 272.743 96.931 271.418 95.4769C271.418 95.7192 271.418 95.9131 271.32 96.1555L271.271 96.3009C271.173 96.4463 271.075 96.5917 270.927 96.6887C270.731 96.8341 270.436 96.8825 270.191 96.8825C269.946 96.8341 269.7 96.7371 269.553 96.5917C269.406 96.5917 269.258 96.5433 269.062 96.4948C269.111 96.931 269.013 97.2703 268.817 97.5127C268.817 97.8035 268.768 98.3367 268.326 98.7729L268.375 98.8699C268.718 99.4515 268.571 99.6939 268.424 99.8877C268.277 100.033 266.755 101.73 266.411 102.02C266.019 102.36 265.577 101.972 265.577 101.972L265.332 101.778C265.332 101.778 264.939 102.166 264.644 102.457L264.743 102.554C265.233 102.99 265.822 103.329 266.461 103.62C267 103.862 268.62 104.444 269.749 104.88C269.504 104.105 269.209 103.184 268.866 102.263C269.16 102.651 269.946 104.008 270.584 105.22H270.633C271.516 105.607 272.694 106.189 273.529 106.722C273.48 106.431 273.382 106.237 273.382 106.237C273.382 106.237 272.547 105.413 272.007 104.638C270.878 103.038 270.191 101.39 269.798 100.324C271.075 102.214 271.369 102.748 271.86 103.378C273.431 105.51 275.149 106.383 275.787 106.431C275.541 105.268 275.149 104.977 275.149 104.977C275.149 104.977 274.363 104.347 273.529 103.184C273.725 103.475 273.922 103.717 273.48 103.135C273.136 102.699 273.283 102.844 273.48 103.087C272.744 102.117 271.909 100.615 271.075 98.676ZM269.553 90.3874L270.584 90.6298C270.731 90.6783 270.878 90.7267 271.075 90.7267C271.222 90.242 271.32 89.7573 271.32 89.2726C271.32 88.7394 272.596 89.9027 273.431 90.7267C273.774 91.066 273.872 90.9206 273.627 90.6298C272.793 89.4665 271.075 88.3516 270.584 88.0608C269.749 87.5761 269.357 87.673 269.651 88.1093C269.995 88.7394 269.946 89.5149 269.553 90.3874ZM268.031 80.2085L268.08 80.1116H268.179C268.228 80.1116 268.326 80.16 268.473 80.257L268.768 80.4509C268.571 80.0631 268.571 79.4814 268.522 78.8513C268.473 78.1727 268.473 77.4941 268.277 76.864L268.228 76.7671C268.129 77.1064 267.884 77.3972 267.639 77.688C267.295 78.1243 266.951 78.609 266.853 79.1906V79.2876L266.755 79.1906C266.951 79.336 266.264 78.609 266.264 78.5605C266.019 79.5299 264.301 81.6142 263.908 82.0504C263.859 82.0989 263.221 83.0683 262.975 85.3949C262.73 87.6246 262.975 88.9818 262.975 88.9818L263.564 88.3516C263.564 88.3516 263.614 88.9818 263.515 89.6604C263.466 90.1935 263.27 90.6298 263.27 90.6298C263.27 90.6298 264.448 90.8237 265.381 89.7573L265.528 90.1935C265.675 90.6298 265.773 91.1145 265.43 91.4053C265.381 91.4538 264.792 91.9385 264.89 92.4232C264.939 92.5686 264.988 92.7625 265.233 92.9079V92.9564C265.233 93.2472 265.479 93.3926 265.577 93.4411C265.528 93.1987 265.577 93.0533 265.577 93.0049C265.724 92.714 265.921 92.6171 266.117 92.6171L266.411 92.6656C266.411 92.6656 266.559 94.0228 266.657 94.5559C266.755 95.0406 266.902 95.6708 266.951 96.3494C266.951 96.4948 267 96.6402 267 96.8341C267.05 97.2703 267.344 97.3188 267.59 97.3673H268.179H268.129C267.786 97.4642 267.786 97.6096 267.835 97.6581C267.884 97.852 267.982 98.0943 267.884 98.5306L267.933 98.579C268.473 98.2882 268.473 97.8035 268.424 97.3673V97.3188H268.473C268.866 97.0764 268.768 96.3009 268.179 95.0406C267.884 94.459 267.786 93.4896 267.982 93.3926H268.031C268.129 93.3926 268.228 93.3926 268.522 93.7804C268.718 94.0712 268.915 94.2651 269.16 94.6044C269.406 94.8952 269.553 95.1376 269.553 95.3799L269.504 95.5738L269.308 95.6223L268.915 95.5738C269.062 95.7192 269.553 96.2524 269.7 96.107C270.044 95.6708 269.749 96.3494 270.387 96.4463C270.78 96.4463 271.124 96.204 271.124 95.6708C271.124 95.4769 271.075 95.3799 271.075 95.2345C270.976 94.7498 270.633 94.3136 270.436 94.1197L270.289 93.9743C269.209 92.811 269.308 92.5202 269.357 92.4232C269.455 92.2293 269.553 92.1809 269.847 92.1809C270.289 92.1809 270.731 92.2293 270.78 92.2293C271.222 92.3263 271.958 92.4232 271.909 92.6656L271.811 92.811C271.664 92.8595 271.418 92.9564 271.369 92.9079C271.418 92.9564 271.565 93.1018 271.762 93.1987C271.958 93.2957 272.694 93.4896 272.94 93.1503L273.038 93.0049C273.185 93.0049 273.529 92.9564 273.627 92.714C273.676 92.4717 273.382 92.1809 273.087 91.987C272.842 91.8416 272.105 91.5507 271.467 91.4053C271.222 91.3568 270.927 91.2599 270.682 91.2114L269.357 90.8721C269.308 90.8721 268.62 90.6298 268.375 90.5328L268.08 90.3874C267.835 90.2905 267.688 90.1451 267.54 89.9027C267.393 89.7088 267.246 89.1757 267.099 88.594C267.246 88.6909 267.639 88.9333 268.129 89.0302C268.08 88.8364 268.031 88.2062 268.08 87.8669C268.277 85.7342 268.326 84.5224 268.326 84.5224L268.768 84.9587C268.817 84.5709 268.718 83.6984 268.62 82.8259C268.375 82.0989 268.228 81.081 268.031 80.2085ZM273.431 63.5829C273.627 62.8559 273.627 61.8865 273.529 61.1109C273.185 61.8865 272.793 63.486 272.891 64.9886C273.038 64.5524 273.283 64.0677 273.431 63.5829ZM271.369 67.9453C271.958 65.9096 272.302 64.6978 272.302 63.0013C271.762 63.5829 271.32 65.7641 271.369 67.9453ZM269.455 66.1034C270.191 63.8738 269.553 62.7589 269.16 62.5166C269.16 63.5345 269.406 64.0192 269.455 66.1034ZM269.013 75.7007C269.357 71.2898 270.142 68.6239 270.731 66.3458C268.375 68.9148 268.718 74.7798 269.013 75.7007ZM279.616 74.2466C279.468 75.3614 279.468 76.3308 279.763 77.3972C280.303 76.7186 280.646 76.04 281.088 74.8282C281.088 75.7976 281.383 76.9125 281.579 77.3487C282.315 76.3308 282.708 72.1623 282.708 72.1623C282.708 72.1623 282.708 72.2593 283.101 72.4047C283.493 70.9021 283.297 67.8969 282.953 66.4427C282.413 63.9222 281.383 60.8686 278.29 57.2332C276.67 55.3429 275.345 56.2153 273.971 57.6695C271.762 60.0446 271.32 61.0625 268.669 61.5472C268.424 61.5956 268.62 61.741 269.111 61.6926C272.253 61.6441 273.234 59.5598 274.216 58.542C274.854 57.8634 275.64 57.2332 276.327 57.621C276.572 57.7664 277.456 58.7358 276.572 61.2079C276.572 60.6262 276.376 60.19 276.229 60.0446C275.836 61.6441 275.247 62.9528 274.609 64.0677C274.511 63.7768 274.462 63.5345 274.412 63.1952C274.118 65.1825 272.302 67.2183 272.056 70.0296C271.86 69.7388 271.713 69.5449 271.713 68.8178C270.338 71.2898 268.964 75.7007 269.847 77.9304C269.798 75.7007 271.222 72.4531 271.958 71.4353C271.026 74.3435 269.946 77.8819 270.878 80.0631C270.927 78.2212 272.007 75.216 272.793 73.9557C271.516 78.7059 270.976 81.1295 272.4 82.9714C272.154 81.1779 272.891 78.4636 273.872 76.2824C273.185 80.0146 272.253 83.2137 274.02 84.8617C273.774 82.4382 274.707 79.1906 275.198 78.0758C274.609 81.6626 274.118 85.1041 275.296 86.849C275.296 85.5888 275.541 84.3285 275.787 83.1168C276.081 81.5657 276.572 80.0631 276.572 80.0631C276.572 80.0631 276.229 82.5836 275.983 85.5888C275.934 86.0735 275.934 86.6067 275.934 87.1399C275.934 87.77 275.983 88.4001 276.13 89.0302C276.229 89.5634 276.376 90.0966 276.67 90.5813C276.965 86.5582 277.456 83.0683 277.996 81.4203C277.996 81.4203 277.505 85.201 277.21 91.0175C277.21 91.2114 277.21 91.4053 277.161 91.6477C276.769 99.9847 277.897 102.651 278.29 103.426C278.29 103.426 278.192 103.281 278.192 102.214C278.143 101.293 278.143 101.39 278.241 100.372C278.29 100.082 277.505 98.5306 277.603 96.4948C277.652 95.2345 277.75 94.0228 277.848 92.811C277.947 91.6961 278.045 90.6298 278.143 89.6119C278.29 88.6909 278.339 87.77 278.487 86.849C278.683 85.4919 278.928 84.1831 279.174 82.8259C279.37 81.7596 279.272 82.6805 279.223 82.9714C279.125 84.1831 278.879 86.8006 278.683 89.4665C278.536 91.4538 278.094 95.4769 278.192 97.3673C278.29 99.0153 278.781 99.7908 278.732 100.033C278.634 103.281 278.977 104.589 279.517 105.801C279.517 105.801 279.861 104.638 280.106 103.184C280.057 103.281 279.959 103.426 279.763 103.475C279.37 102.408 279.125 100.566 279.419 98.676C279.468 98.3367 278.977 97.9004 278.977 96.3978C279.026 94.0228 279.37 91.5992 279.665 89.2726C279.763 88.4971 279.861 87.7215 280.008 86.9945C280.106 86.5097 280.155 86.0735 280.254 85.5888C280.352 84.8133 280.499 84.0862 280.646 83.3591L280.695 83.0198C280.695 83.0198 280.695 83.553 280.597 84.2801C280.352 87.4792 279.616 95.6708 279.616 96.3009C279.566 97.9004 280.008 98.3851 280.008 98.676C279.91 99.8393 279.959 101.972 280.106 102.505C280.254 102.02 280.352 101.148 280.352 101.148C280.352 101.148 280.794 97.852 281.334 93.1018C281.432 92.3747 281.481 91.6477 281.579 90.9206C281.628 90.242 281.726 89.5149 281.775 88.8364C281.873 88.0123 281.923 87.1399 282.021 86.3159C282.07 85.9281 282.07 85.5888 282.119 85.201C282.315 82.9714 282.561 80.4509 282.708 78.2697C282.708 78.2697 283.002 74.6828 283.101 73.568L282.904 73.4226C282.904 73.4226 282.512 77.8819 281.284 79.433C280.941 79.1422 280.597 77.4941 280.597 76.9125C280.352 77.785 279.223 78.9967 279.223 78.9967C279.223 78.9967 278.83 78.1243 278.879 76.6701C278.487 77.2033 278.192 77.5911 277.652 77.8819C277.456 77.3972 277.161 76.8155 277.21 75.4099C277.014 75.6522 276.67 75.9915 276.18 76.2824C276.032 75.9431 275.247 74.6828 276.67 70.0296C276.081 74.295 276.425 74.8282 276.572 75.1675C276.818 75.0706 277.063 74.8767 277.259 74.7313C277.308 73.9557 277.456 72.9379 277.701 71.6776C277.505 75.0706 277.75 76.1369 278.045 76.8155C278.536 76.3793 278.977 75.7492 279.616 74.2466ZM289.187 44.6792C286.88 45.1639 285.457 45.1155 284.573 45.1155C283.984 46.3273 283.542 47.4906 283.542 49.6233C282.61 49.3325 282.119 49.0901 281.628 48.5569C280.99 49.4294 280.597 49.9141 279.91 50.7866C285.948 61.4017 285.948 71.1929 286.046 73.9557C290.709 71.3383 293.703 68.8178 294.292 68.3331C293.752 58.4935 292.231 51.0774 289.187 44.6792ZM290.905 104.153C288.598 108.613 285.751 111.375 281.873 113.799C276.18 117.386 270.24 116.513 268.326 115.398L268.522 115.883L268.718 116.368C269.504 118.404 268.964 120.488 266.166 120.827C265.43 120.924 264.595 120.924 263.663 121.36C262.975 121.7 262.239 122.184 261.405 123.008C261.061 123.348 260.325 124.269 259.981 124.996C259.638 124.269 258.901 123.348 258.558 123.008C257.723 122.184 256.987 121.651 256.3 121.36C255.318 120.924 254.533 120.876 253.796 120.827C250.999 120.488 250.508 118.404 251.244 116.368L251.44 115.932L251.637 115.447C250.213 116.271 246.728 116.901 242.654 115.786L242.261 115.689C238.973 114.817 236.076 113.217 233.622 110.939C230.677 108.176 229.057 105.22 228.419 104.105C223.02 93.0533 223.756 76.6217 223.756 74.8767C223.56 55.9245 227.83 45.3094 231.462 40.1714C230.383 38.7173 229.695 37.8933 229.646 37.8448C229.303 37.5055 228.665 36.9239 227.339 36.73C226.996 34.258 226.063 31.3012 226.063 31.3012C226.063 31.3012 228.566 33.0947 230.922 34.1126C230.726 35.3728 231.07 36.0999 231.413 36.5846C231.462 36.633 232.002 37.3601 232.837 38.4749C234.457 36.4876 236.175 35.0335 238.874 33.4824C239.512 33.0947 240.2 32.7554 240.985 32.4161C240.936 31.3982 241.28 30.4288 241.967 29.7502C242.016 29.1685 242.507 28.4414 243.096 28.1991C243.734 28.0537 244.666 28.3445 245.108 28.7323C246.139 28.8777 247.121 29.4109 247.808 30.1864C250.017 29.7017 252.569 29.3624 255.465 29.217C255.809 27.8113 256.742 26.7934 257.871 26.2602C258.165 25.6786 259 25.0485 259.736 25C260.472 25.0485 261.307 25.6301 261.601 26.2602C262.73 26.7934 263.663 27.8113 264.006 29.217C266.902 29.4109 269.455 29.7502 271.664 30.1864C272.4 29.4109 273.333 28.8777 274.363 28.7323C274.805 28.296 275.738 28.0052 276.376 28.1991C276.965 28.4414 277.456 29.1685 277.505 29.7502C278.192 30.4288 278.536 31.3982 278.487 32.4161C279.223 32.7554 279.91 33.0947 280.597 33.4824C283.297 35.0335 285.162 36.6815 286.733 38.5234C287.715 37.2632 288.304 36.4876 288.304 36.4392C288.647 36.0029 288.942 35.2274 288.795 33.9671C291.151 32.9493 293.654 31.2043 293.654 31.2043C293.654 31.2043 292.721 34.161 292.378 36.633C291.102 36.8269 290.463 37.3601 290.071 37.7479C290.022 37.7964 289.236 38.7658 288.009 40.4138C291.642 45.6002 295.814 56.1184 295.667 74.9252C295.568 76.3793 296.305 93.1018 290.905 104.153ZM248.102 39.6383C248.446 39.7837 248.692 39.9291 249.084 40.0745C249.33 39.7837 249.477 39.6383 249.771 39.299C249.379 39.1535 249.133 39.0081 248.741 38.8627C248.544 39.1051 248.299 39.4444 248.102 39.6383ZM266.804 36.1483C266.755 36.1483 266.51 36.2938 266.362 36.633C266.51 36.8269 266.755 36.9239 267.148 36.9723H267.344C267.54 36.5361 267.148 36.0029 266.804 36.1483ZM275.051 38.3295C274.903 38.8627 274.462 39.202 274.216 39.5413C272.793 39.0081 269.651 38.2326 267.933 38.0387C267.491 38.5234 266.755 39.202 266.019 39.3959C264.939 39.2505 264.252 39.0081 263.515 38.6688C263.908 38.7173 264.055 38.6688 264.35 38.6688C265.43 38.6204 266.362 38.3295 267.05 37.8933C265.528 37.6509 265.184 37.2632 265.921 36.3422C266.264 35.906 266.804 35.1304 267.59 35.3243C268.228 35.4697 268.375 36.3422 268.277 37.0208C270.044 37.2147 272.253 37.8448 273.971 38.378C274.069 37.8933 273.774 37.6509 273.578 37.3116C273.823 37.0693 274.216 36.73 274.511 36.5361C274.952 36.8269 275.198 37.7964 275.051 38.3295ZM268.179 39.1051C268.424 39.3474 268.62 39.5413 268.915 39.8321C269.308 39.6383 269.455 39.5413 269.897 39.299C269.602 39.0081 269.455 38.8627 269.16 38.5719C268.817 38.7658 268.424 38.9597 268.179 39.1051ZM275.885 38.7658C275.541 39.5413 275.247 40.3168 274.854 40.9954C275.1 41.0924 275.394 40.8985 275.59 40.7531C276.621 40.123 277.358 38.4265 277.75 37.4571C277.75 37.4086 277.161 37.554 276.818 37.6994C276.278 37.9902 276.18 38.1357 275.885 38.7658ZM276.376 37.2632C277.21 37.2147 277.947 37.4086 278.29 37.0208C277.799 36.8754 277.259 36.73 277.063 36.4876C277.259 36.2938 277.603 36.5361 277.75 36.6815L278.045 36.3907C277.505 35.9545 276.67 36.1968 276.474 36.6815C276.621 36.7785 276.867 36.8269 276.965 36.9239C276.818 36.9723 276.474 37.1662 276.376 37.2632ZM245.746 40.3168C245.501 40.2199 245.305 40.1714 245.01 40.0745C244.814 40.3653 244.617 40.7046 244.47 40.947C244.814 41.0439 245.108 41.1409 245.501 41.2863C245.648 41.0439 245.746 40.8985 245.894 40.7046C246.139 40.7531 246.335 40.85 246.63 40.947C246.826 40.6077 246.924 40.4623 247.17 40.0745C246.777 39.9776 246.532 39.8806 246.09 39.7352C245.943 39.9291 245.845 40.123 245.746 40.3168ZM263.025 35.906C262.534 35.082 260.57 35.809 259.343 36.3422C260.03 36.3422 260.668 36.2938 261.405 36.3422C261.699 36.3422 262.534 36.3422 263.025 36.3907C263.074 36.1483 263.123 36.0514 263.025 35.906ZM263.859 37.4086C259.736 37.1662 251.588 37.6025 247.612 38.6688C247.612 38.6688 247.17 37.6509 246.826 37.2632C245.746 36.1483 245.354 37.3601 245.305 37.5055C246.63 37.6025 246.875 38.2811 246.875 38.2811C246.581 38.8627 246.335 39.0566 245.599 39.5413C245.354 39.6867 244.519 40.2199 243.341 40.3168C240.838 40.4138 241.525 37.8448 243.047 36.8269C242.85 37.0693 241.967 38.4265 242.507 39.1051C243.145 39.8806 245.452 39.2505 245.992 38.5719C245.697 38.2811 245.108 38.1841 244.274 38.2811C244.323 37.8933 244.519 36.8269 245.697 35.809C246.139 35.906 247.366 36.5361 247.759 37.6025C251.44 36.633 258.116 36.3422 258.46 36.3422C258.361 35.7121 258.165 33.337 258.165 33.1916C258.116 32.8038 258.41 32.61 258.656 32.4645C258.95 32.9492 259.196 33.1431 259.834 33.3855C259.589 33.6763 259.343 33.7733 259.098 34.0156C259.147 34.5003 259.196 35.3728 259.196 35.7121C259.785 35.4697 260.619 35.1304 261.65 34.8881C261.994 34.7911 262.485 34.7427 262.779 34.7912C263.123 34.8396 263.564 35.0335 263.761 35.1789C263.908 35.3243 264.154 35.6152 264.154 35.9545C264.154 36.4876 264.006 37.0208 263.859 37.4086ZM256.84 49.6233L256.251 49.6718L256.643 49.9626L256.84 49.8656V49.6233ZM257.134 49.6233C257.134 49.6233 257.232 49.8172 257.183 50.1565C257.134 50.4958 256.987 50.8351 256.447 50.932C255.907 51.0774 255.318 50.7381 255.318 50.1565C255.318 50.0111 255.367 49.8172 255.416 49.6718C255.22 49.6718 255.22 49.8172 255.024 50.0595C254.925 50.2049 254.729 50.1565 254.484 50.3504C254.484 50.0111 254.876 49.4779 255.269 49.3325C255.907 49.0416 258.018 48.9932 259.49 49.7202C258.95 49.6233 258.509 49.6718 258.018 49.6233C257.429 49.6233 257.134 49.6233 257.134 49.6233ZM262.534 33.337C262.19 33.0947 261.994 32.9492 261.65 32.7069C261.356 32.9008 261.012 33.1916 260.816 33.337C261.11 33.5794 261.307 33.7248 261.65 33.9671C261.994 33.7248 262.141 33.5794 262.534 33.337ZM253.698 50.3504C253.6 50.3988 253.502 50.6896 253.846 50.6896C254.14 50.6896 254.189 50.3988 254.189 50.3988L253.698 50.3504ZM262.828 52.8224C262.779 52.6285 262.288 51.9984 261.307 51.756C261.601 51.9984 261.748 52.4831 261.846 52.6285C261.65 52.7254 261.11 52.7739 260.914 52.8224C261.257 53.1132 261.945 53.1617 262.828 52.8224ZM260.718 51.0774C260.128 50.3988 259.343 50.1565 258.95 50.0595C259.392 50.6412 259.883 51.1259 260.718 51.0774ZM260.178 50.108C260.472 50.4473 261.503 50.8351 262.043 51.3682C261.994 50.4958 261.257 50.0111 260.178 50.108ZM259.785 62.2742C258.607 63.9707 259.785 65.7641 259.785 65.7641C259.785 65.7157 260.57 63.3891 259.785 62.2742ZM261.748 69.0602C261.748 69.0602 263.074 67.8484 263.172 65.4248C262.436 66.6366 261.65 67.3152 261.65 67.3152C261.65 67.3152 260.963 66.8305 260.374 66.1519C260.325 67.703 261.748 69.0602 261.748 69.0602ZM260.178 58.4935C259.147 59.6083 259.785 60.5293 259.785 60.5293C259.785 60.5293 261.061 59.1721 260.178 58.4935ZM261.65 54.3734C261.994 54.7127 263.074 54.9551 263.663 55.4883C263.564 54.6158 262.632 54.0342 261.65 54.3734ZM263.27 57.0878C263.27 56.4577 263.074 55.3429 261.601 55.149C261.503 55.8761 262.779 56.3608 263.27 57.0878ZM262.681 59.1236C261.994 59.8507 262.632 61.3048 263.025 62.5651C263.368 61.9349 263.81 59.8022 262.681 59.1236ZM266.264 62.4196C265.872 64.2131 265.086 64.8432 265.086 64.8432C265.086 64.8432 264.448 64.3585 263.957 63.6799C263.908 65.134 265.184 66.4912 265.135 66.4912C265.135 66.4912 266.657 65.2794 266.264 62.4196ZM264.35 56.3123C264.203 57.1363 265.528 58.3481 265.528 58.3481C265.528 58.2996 265.675 56.797 264.35 56.3123ZM266.657 60.0446C266.559 60.9655 267.639 63.0982 267.688 63.2921C267.688 63.0982 268.277 61.3533 266.657 60.0446ZM258.018 71.0475C258.312 70.4174 259.147 69.2541 258.705 67.2667C258.558 68.7693 257.576 69.3995 257.576 69.3995C257.576 69.3995 257.036 69.1086 256.594 68.1877C256.791 70.0296 257.478 70.5628 258.018 71.0475ZM257.036 59.8022C255.367 61.0625 256.153 62.2258 256.447 62.8559C256.791 61.6926 256.938 61.3533 257.036 59.8022ZM256.202 63.6314C255.073 65.0371 256.84 66.782 256.791 66.782C256.791 66.782 256.938 64.1646 256.202 63.6314ZM251.98 69.1571C251.735 67.7515 251.833 66.782 251.146 65.5703C250.949 67.0244 251.833 68.9148 251.98 69.1571ZM253.453 61.838C253.944 60.19 254.876 59.2206 255.22 58.2511C253.502 59.4629 253.158 61.2563 253.453 61.838ZM254.189 66.1519C254.189 66.879 254.189 67.5091 253.993 68.2846C253.502 68.1877 253.306 67.8484 252.962 67.5576C253.256 68.4785 254.435 69.5934 254.631 69.8842C254.778 68.5755 254.827 67.0244 254.189 66.1519ZM253.011 69.3025C252.618 70.9505 254.287 72.5501 254.287 72.5986C254.287 72.5986 254.287 70.6112 253.011 69.3025ZM253.502 73.7619C254.091 74.7313 254.533 75.1675 254.974 75.6038C254.238 74.5374 253.698 72.5016 252.962 71.9684C252.913 72.2593 253.158 73.1802 253.502 73.7619ZM251.44 64.0192C251.293 63.1952 252.324 62.4681 251.98 61.1109C250.949 62.2742 251.146 63.3406 251.44 64.0192ZM257.478 75.3129C257.282 75.2645 256.251 74.3435 255.956 73.7619C256.103 74.6828 257.429 76.5247 258.018 76.9125C258.214 76.5732 259 75.0706 258.312 72.6955C258.018 74.1012 257.723 74.8282 257.478 75.3129ZM261.945 71.096C261.65 72.1138 261.208 72.744 260.472 73.471C260.178 73.1802 259.834 72.8409 259.392 71.9684C259.245 73.6165 260.178 74.5859 260.718 74.9252C261.061 74.6828 262.19 73.1317 261.945 71.096ZM264.154 75.4583C265.184 74.1981 265.724 72.7924 265.282 71.2898C264.35 72.6955 264.35 74.1496 264.154 75.4583ZM261.65 77.6395C261.945 76.9609 262.73 75.6522 262.534 74.1981C261.945 74.7798 261.601 76.7671 261.65 77.6395ZM267.05 69.5934C267.491 68.8663 268.179 67.7999 267.639 67.1698C267.393 67.8484 267.246 68.6239 267.05 69.5934ZM263.663 71.9684C263.663 71.9684 265.381 70.3204 265.332 68.2846C264.841 69.6418 263.663 70.2235 263.663 70.2235C263.663 70.2235 263.025 69.8357 262.73 68.9148C262.485 70.999 263.663 71.9684 263.663 71.9684ZM266.853 67.3152C266.853 67.2667 267.982 65.3764 267.344 64.3585C266.608 64.5039 266.853 67.3152 266.853 67.3152ZM266.804 70.5628C266.117 71.4353 265.97 73.471 265.724 74.1496C265.97 73.9073 267.197 71.0475 266.804 70.5628ZM259.098 80.257C259.441 79.1421 259.392 77.8334 258.901 77.2518C258.607 78.3666 258.607 79.3845 259.098 80.257ZM260.178 83.1168C260.521 82.1474 260.521 80.984 260.128 80.4509C259.785 81.4688 259.785 82.3897 260.178 83.1168ZM261.601 82.1958C261.896 81.4688 262.583 80.7417 262.534 78.3666C261.797 79.0937 261.503 81.2749 261.601 82.1958ZM257.183 80.4509C257.036 79.9177 256.742 78.1243 256.005 77.3487C255.711 78.609 256.594 79.8692 257.183 80.4509ZM265.822 82.0019C265.822 82.0019 265.822 81.4688 265.626 81.2749C265.479 81.905 264.595 83.3107 264.792 84.9102C265.184 83.5045 266.313 83.2137 266.608 81.8565C266.853 82.0019 267.05 82.0989 267.295 82.0989C267.148 81.5657 266.755 81.0325 266.657 79.9662C266.559 80.3539 266.411 81.4203 265.822 82.0019ZM254.14 84.8133C254.336 83.2137 253.453 81.8565 253.306 81.1779C253.109 81.3718 253.109 81.905 253.109 81.905C252.52 81.3233 252.373 80.2085 252.275 79.8692C252.128 80.9356 251.735 81.5172 251.637 82.0019C251.882 82.0019 252.078 81.905 252.324 81.7596C252.618 83.1168 253.698 83.4076 254.14 84.8133ZM245.354 69.9326C245.354 69.9326 244.814 69.7872 244.519 69.3995C244.765 70.5143 245.795 70.999 245.795 70.999C245.795 70.999 246.679 68.9632 244.716 66.055C245.746 69.1571 245.354 69.9326 245.354 69.9326ZM244.176 72.9863C244.176 72.9863 243.685 72.7924 243.39 72.4047C243.538 73.2287 243.832 73.568 244.617 74.1012C245.01 72.8894 245.256 71.92 243.488 68.3331C244.666 71.823 244.176 72.9863 244.176 72.9863ZM237.009 71.2898C237.009 71.2898 236.518 70.5143 236.42 68.4785C235.978 70.6597 236.813 71.9684 236.813 71.9684C236.813 71.9684 237.402 71.5807 237.353 70.9505C237.304 71.096 237.009 71.2898 237.009 71.2898ZM238.089 70.2235C238.089 70.2235 237.549 69.3995 237.353 67.0729C236.96 69.5934 237.991 70.999 237.991 70.999C237.991 70.999 238.629 70.5628 238.58 69.8357C238.482 70.0296 238.089 70.2235 238.089 70.2235ZM242.85 64.0192C242.359 63.486 241.623 62.7105 240.887 59.8991C240.985 62.2742 242.212 64.5039 243.096 65.2794C243.538 64.6978 243.587 62.9044 242.998 61.5956C242.948 61.5956 243.047 63.0498 242.85 64.0192ZM241.574 66.0065C241.132 65.4248 240.347 64.2131 239.856 61.3533C239.709 63.7284 240.887 66.2973 241.672 67.1213C242.163 66.5397 242.31 65.4248 241.82 64.1161C241.82 64.1161 241.918 65.0371 241.574 66.0065ZM240.396 67.5091C240.003 66.9274 239.463 66.1519 238.973 62.662C238.874 65.8126 239.709 67.6545 240.445 68.5755C240.985 68.0423 241.083 67.0729 240.936 66.4427C240.936 66.4427 240.691 67.2667 240.396 67.5091ZM239.218 68.9632C238.874 68.43 238.629 67.7999 238.334 64.6978C238.138 67.5091 238.58 69.2056 239.218 70.0296C239.709 69.5934 239.856 68.7209 239.758 68.1392C239.758 68.1392 239.512 68.8178 239.218 68.9632ZM281.923 70.8536C281.923 71.4837 282.462 71.8715 282.462 71.8715C282.462 71.8715 283.297 70.5628 282.855 68.3816C282.757 70.4174 282.266 71.1929 282.266 71.1929C282.266 71.1929 281.972 70.999 281.923 70.8536ZM280.744 69.7872C280.695 70.5143 281.334 70.9505 281.334 70.9505C281.334 70.9505 282.364 69.4964 281.972 67.0244C281.775 69.351 281.235 70.175 281.235 70.175C281.235 70.175 280.794 69.9327 280.744 69.7872ZM276.474 63.9222C276.229 62.9528 276.376 61.4987 276.376 61.4987C275.787 62.8074 275.836 64.5524 276.278 65.1825C277.161 64.407 278.388 62.1773 278.487 59.8022C277.701 62.6135 276.965 63.3891 276.474 63.9222ZM277.701 65.9096C277.358 64.9401 277.456 64.0192 277.456 64.0192C276.965 65.3764 277.112 66.4912 277.603 67.0244C278.388 66.2004 279.566 63.6314 279.419 61.2563C278.977 64.1161 278.143 65.3279 277.701 65.9096ZM280.352 62.5651C279.861 66.0065 279.321 66.8305 278.928 67.4122C278.634 67.2183 278.388 66.3458 278.388 66.3458C278.241 66.9759 278.339 67.9453 278.879 68.4785C279.616 67.5576 280.45 65.7157 280.352 62.5651ZM280.99 64.6008C280.695 67.703 280.401 68.3331 280.106 68.8663C279.812 68.6724 279.616 68.0423 279.616 68.0423C279.517 68.6239 279.665 69.4479 280.155 69.9326C280.744 69.1086 281.186 67.4122 280.99 64.6008ZM273.971 69.8357C273.971 69.8357 273.529 69.0602 274.609 65.958C272.645 68.8663 273.529 70.9021 273.529 70.9021C273.529 70.9021 274.56 70.4174 274.805 69.3025C274.511 69.6903 273.971 69.8357 273.971 69.8357ZM275.885 72.3077C275.738 73.1317 275.443 73.471 274.658 74.0042C274.265 72.7924 274.02 71.823 275.787 68.2362C274.609 71.7745 275.1 72.9379 275.1 72.9379C275.1 72.9379 275.59 72.6955 275.885 72.3077Z" fill="black"/>
<path d="M6.77246 84.7537C9.13546 84.7537 10.3174 85.8387 10.3174 88.0085V88.5505H8.77148C8.77143 86.9725 8.08988 86.1833 6.72656 86.1833C5.95408 86.1834 5.36302 86.43 5.04492 86.9724C4.7268 87.5149 4.54492 88.1565 4.54492 88.9949V93.3835C4.54492 94.7644 4.72676 95.6526 5.13574 96.0964C5.54473 96.5403 6.045 96.737 6.63574 96.7371C7.58986 96.7371 8.317 96.5401 8.77148 96.1951V92.3484H6.54492V90.9675H10.2715V97.2302C9.22632 97.8713 8.04487 98.1677 6.68164 98.1677C5.45461 98.1677 4.49997 97.7727 3.90918 97.033C3.27299 96.2932 3 95.0109 3 93.1863V88.9949C3 86.1838 4.27295 84.7537 6.77246 84.7537ZM17.6338 84.7537C18.8384 84.7537 19.7309 85.151 20.3555 85.8962C20.98 86.6415 21.292 87.6847 21.292 88.9763V93.2488C21.292 94.938 20.9794 96.1804 20.3994 96.9753C19.8194 97.77 18.8828 98.1677 17.6338 98.1677C16.2954 98.1677 15.3583 97.7701 14.7783 96.9255C14.2429 96.1803 13.9756 94.9381 13.9756 93.2986V89.0261C13.9756 87.6848 14.2876 86.6415 14.9121 85.8962C15.5367 85.151 16.4292 84.7537 17.6338 84.7537ZM28.0439 96.7605L30.7559 85.9734H32.2676L28.8887 98.1677H27.1104L23.7314 85.9734H25.332L28.0439 96.7605ZM40.7148 87.3328H36.208V91.2263H40.3613V92.5867H36.208V96.8074H40.8037V98.1677H34.7061V85.9734H40.7148V87.3328ZM47.416 85.9734C48.3541 85.9734 49.0583 86.2543 49.5742 86.7703C50.09 87.2861 50.371 88.0366 50.3711 89.0212C50.3711 90.569 49.6209 91.5073 48.0732 91.8357C48.7298 91.8826 49.1991 92.1177 49.5273 92.4929C49.8554 92.8682 50.043 93.4781 50.0898 94.4158C50.1368 96.0103 50.2772 97.2297 50.5586 98.1677H48.917C48.7763 97.9332 48.6358 97.4171 48.5889 96.573C48.542 95.7757 48.4951 94.9309 48.4482 94.1335C48.4012 93.102 47.7915 92.5398 46.666 92.5398H44.8369V98.1208H43.2422V85.9734H47.416ZM60.1035 96.4792V85.9734H61.5342V98.1677H59.3408L54.4287 87.5212V98.1677H52.998V85.9734H55.2393L60.1035 96.4792ZM70.6572 96.2449L73.6836 85.9734H76.168V98.1677H74.6318V87.3796L71.335 98.1677H69.9346L66.5928 87.2859V98.1677H65.1924V85.9734H67.6318L70.6572 96.2449ZM85.835 87.3328H81.3398V91.2263H85.5234V92.5867H81.3398V96.8074H85.9238V98.1677H79.8262V85.9734H85.835V87.3328ZM95.4766 96.4792V85.9734H96.8984V98.1677H94.7178L89.7852 87.5212V98.1677H88.3623V85.9734H90.6387L95.4766 96.4792ZM106.654 87.3328H103.754V98.1677H102.281V87.3328H99.3369V85.9734H106.654V87.3328ZM117.02 84.7537C118.425 84.7537 119.466 85.151 120.194 85.8962C120.923 86.6415 121.287 87.6846 121.287 88.9763V93.2488C121.287 94.9379 120.924 96.1804 120.247 96.9753C119.57 97.7702 118.477 98.1677 117.02 98.1677C115.458 98.1677 114.365 97.77 113.688 96.9255C113.064 96.1803 112.751 94.9381 112.751 93.2986V89.0261C112.751 87.6847 113.116 86.6415 113.845 85.8962C114.573 85.1511 115.614 84.7537 117.02 84.7537ZM129.824 87.3328H125.321V91.2263H129.59V92.5867H125.321V98.1677H123.727V85.9734H129.824V87.3328ZM144.457 98.1677H142.646L141.763 95.2595H137.071L136.188 98.1677H134.702L138.511 85.9734H140.509L144.457 98.1677ZM158.422 93.6921C158.422 94.8334 158.63 95.6097 158.994 96.1121C159.411 96.5688 160.035 96.8435 160.868 96.8435C161.753 96.8435 162.378 96.6146 162.794 96.158C163.21 95.7012 163.419 94.8789 163.419 93.7371V86.0642H165.188V93.6003C165.188 95.2444 164.824 96.3862 164.096 97.1169C163.367 97.8477 162.325 98.1677 160.92 98.1677C159.515 98.1676 158.37 97.802 157.693 97.1169C157.017 96.4318 156.652 95.2445 156.652 93.6003V85.9734H158.422V93.6921ZM175.45 85.9734C176.907 85.9734 178.001 86.348 178.729 87.1453C179.458 87.9426 179.822 89.4438 179.822 91.7888C179.822 94.5557 179.406 96.2912 178.573 97.0417C177.74 97.7922 176.491 98.1677 174.825 98.1677H171.286V85.9734H175.45ZM183.836 91.2263H188.003V85.9734H189.578V98.1677H188.003V92.5867H183.836V98.1677H182.261V85.9734H183.836V91.2263ZM201.772 98.1677H200.054L199.171 95.2595H194.479L193.596 98.1677H192.017L195.826 85.9734H197.823L201.772 98.1677ZM216.405 98.1677H215.187V85.9734H216.405V98.1677ZM150.205 85.9734C151.298 85.9734 152.183 86.2545 152.808 86.7703C153.432 87.2861 153.797 87.9896 153.797 88.8806C153.797 90.5222 152.912 91.5074 151.194 91.7419C153.224 91.8826 154.213 92.8678 154.213 94.697C154.213 95.8695 153.848 96.7133 153.172 97.2761C152.495 97.8389 151.559 98.1208 150.31 98.1208H145.677V85.9734H150.205ZM208.093 85.9734C209.03 85.9734 209.788 86.2544 210.323 86.7703C210.859 87.2861 211.171 87.9896 211.171 88.8806C211.171 90.5221 210.413 91.5074 208.94 91.7419C210.68 91.8827 211.527 92.8679 211.527 94.697C211.527 95.8693 211.216 96.7133 210.636 97.2761C210.056 97.839 209.252 98.1208 208.182 98.1208H204.211V85.9734H208.093ZM17.5889 86.1941C16.206 86.1942 15.4922 87.1384 15.4922 89.0261V93.448C15.4922 94.5905 15.6262 95.4349 15.9385 96.031C16.2508 96.5775 16.7861 96.8757 17.6338 96.8757C18.3922 96.8757 18.9279 96.6273 19.2402 96.0808C19.5971 95.584 19.7305 94.6897 19.7305 93.3982V88.9265C19.7305 88.0323 19.5519 87.3365 19.1504 86.8894C18.7489 86.4425 18.2579 86.1941 17.5889 86.1941ZM116.968 86.1941C115.354 86.1941 114.521 87.1382 114.521 89.0261V93.448C114.522 94.5905 114.678 95.4349 115.042 96.031C115.406 96.5774 116.031 96.8757 117.02 96.8757C117.904 96.8757 118.529 96.6273 118.894 96.0808C119.31 95.584 119.466 94.6897 119.466 93.3982V88.9265C119.466 88.0323 119.257 87.3365 118.789 86.8894C118.321 86.4425 117.748 86.1942 116.968 86.1941ZM147.446 96.8074H149.945C150.674 96.8073 151.246 96.62 151.715 96.2449C152.183 95.8697 152.392 95.3536 152.392 94.7439C152.392 93.9935 152.183 93.4306 151.715 93.0554C151.246 92.6803 150.466 92.493 149.373 92.4929H147.446V96.8074ZM173.056 96.8074H174.825C176.022 96.8074 176.855 96.5261 177.323 96.0105C177.792 95.4946 178.053 94.5561 178.053 93.2898V90.5691C178.053 89.3969 177.844 88.5527 177.376 88.0837C176.908 87.5678 176.282 87.3328 175.397 87.3328H173.056V96.8074ZM205.684 96.8074H207.869C208.494 96.8074 208.985 96.6201 209.387 96.2449C209.788 95.8697 209.966 95.3535 209.966 94.7439C209.966 93.9936 209.788 93.4306 209.387 93.0554C208.985 92.6802 208.316 92.493 207.379 92.4929H205.684V96.8074ZM137.535 93.8523H141.392L139.394 87.3328L137.535 93.8523ZM194.896 93.8523H198.753L196.802 87.3328L194.896 93.8523ZM44.8369 91.2263H47.1348C47.6507 91.2263 48.0731 91.0381 48.3545 90.6628C48.6357 90.2878 48.8232 89.8191 48.8232 89.2097C48.8232 88.6938 48.6827 88.2714 48.4014 87.8962C48.12 87.521 47.7445 87.3328 47.1816 87.3328H44.8369V91.2263ZM147.446 91.0857H149.945C151.298 91.0856 151.975 90.4289 151.976 89.1628C151.976 88.6 151.767 88.1308 151.402 87.8025C151.038 87.4743 150.518 87.3328 149.894 87.3328H147.446V91.0857ZM205.728 91.0857H207.869C209.029 91.0857 209.609 90.4289 209.609 89.1628C209.609 88.6 209.43 88.1308 209.118 87.8025C208.806 87.4743 208.36 87.3328 207.825 87.3328H205.728V91.0857ZM5.75488 76.6814C6.0607 76.6815 6.31562 76.7756 6.51953 76.9636C6.72341 77.1987 6.8252 77.4337 6.8252 77.6687C6.82517 77.9507 6.72345 78.1857 6.51953 78.3738C6.31562 78.5618 6.0607 78.6559 5.75488 78.656C5.44886 78.656 5.19327 78.5619 4.98926 78.3738C4.78536 78.1857 4.68362 77.9507 4.68359 77.6687C4.68359 77.3867 4.7854 77.1517 4.98926 76.9636C5.19327 76.7755 5.44886 76.6814 5.75488 76.6814ZM9.27344 76.6814C9.57946 76.6814 9.83505 76.7755 10.0391 76.9636C10.2429 77.1986 10.3447 77.4337 10.3447 77.6687C10.3447 77.9507 10.2429 78.1857 10.0391 78.3738C9.83505 78.5619 9.57946 78.656 9.27344 78.656C8.96753 78.656 8.71275 78.5618 8.50879 78.3738C8.3048 78.1857 8.20217 77.9508 8.20215 77.6687C8.20215 77.3866 8.30484 77.1517 8.50879 76.9636C8.71275 76.7756 8.96753 76.6814 9.27344 76.6814ZM71.2217 69.2742H71.5898C71.7726 68.9767 71.9981 68.9001 72.2676 68.9001H93.2402V71.3396H72.2676C71.9883 71.3396 71.7555 71.1763 71.5693 70.9324C71.5568 70.9104 71.5459 70.8882 71.5342 70.8669H71.2217V71.6628H71.2695C71.2695 72.4094 71.2214 73.1066 71.126 73.8035C71.0306 74.5 70.8397 75.0969 70.5537 75.6443C70.2676 76.1918 69.8859 76.5908 69.3613 76.9392C68.8369 77.2874 68.1695 77.4362 67.3115 77.4363V75.8435C67.9312 75.8434 68.3606 75.6948 68.6943 75.446C69.0282 75.1972 69.2661 74.8481 69.4092 74.4001C69.5522 73.9522 69.6476 73.4544 69.6953 72.907C69.743 72.3595 69.7432 71.762 69.7432 71.1648V70.8171H69.2188C67.502 70.8171 66.2147 70.468 65.3086 69.7214C64.4025 68.9748 63.9727 68.0293 63.9727 66.8347C63.9727 65.9888 64.1634 65.1925 64.4971 64.446C64.8309 63.6995 65.3559 63.0521 66.0234 62.4548C66.691 61.8576 67.4542 61.4097 68.3125 61.0613C69.2186 60.7129 70.1725 60.4636 71.2217 60.364V69.2742ZM172.253 69.2742H172.806C172.988 68.9769 173.213 68.9002 173.482 68.9001H183.48V71.3396H173.482C173.203 71.3396 172.97 71.1763 172.784 70.9324C172.772 70.9104 172.761 70.8882 172.749 70.8669H172.253V71.6628H172.308C172.308 72.4094 172.254 73.1066 172.145 73.8035C172.036 74.5 171.817 75.0969 171.49 75.6443C171.163 76.1918 170.727 76.5908 170.128 76.9392C169.528 77.2876 168.765 77.4363 167.784 77.4363V75.8435C168.492 75.8435 168.983 75.6947 169.364 75.446C169.746 75.1972 170.019 74.8481 170.183 74.4001C170.346 73.9523 170.454 73.4543 170.509 72.907C170.563 72.3595 170.563 71.762 170.563 71.1648V70.8171H169.964C168.002 70.8171 166.531 70.468 165.495 69.7214C164.46 68.9748 163.969 68.0292 163.969 66.8347C163.969 65.9887 164.187 65.1925 164.568 64.446C164.95 63.6995 165.55 63.0521 166.312 62.4548C167.076 61.8576 167.948 61.4097 168.929 61.0613C169.964 60.7129 171.054 60.4636 172.253 60.364V69.2742ZM16.2002 69.2214H17.6123V61.5837H18.9463V69.1716H20.0723V70.739H16.4141V70.7566H14.9355L12.0283 62.198C11.6203 62.3391 11.263 62.5274 10.957 62.7625C10.651 62.9976 10.3956 63.28 10.1406 63.6091C9.93672 63.9382 9.78361 64.2674 9.68164 64.5964C9.57968 64.9725 9.52833 65.3016 9.52832 65.6306C9.52832 66.43 9.78368 67.1355 10.3447 67.7468C10.9058 68.3581 11.5691 68.9221 12.2832 69.3923C12.4872 69.4864 12.6402 69.6275 12.7422 69.6746L12.9971 69.9568L13.4053 70.5681C13.4053 70.9913 13.3026 71.5089 13.0986 72.0261C12.8946 72.5433 12.5888 73.0609 12.1299 73.531C11.6709 74.0011 11.1094 74.4236 10.3955 74.7527C9.68146 75.0818 8.76322 75.2234 7.74316 75.2234C7.23326 75.2233 6.723 75.1291 6.16211 74.988C5.60138 74.847 5.09164 74.565 4.63281 74.2361C4.1738 73.9069 3.765 73.4838 3.45898 72.9666C3.15298 72.4493 3.00002 71.8378 3 71.1326V69.2986H4.63281V71.2263C4.63281 71.6495 4.73446 72.0261 4.93848 72.3552C5.14239 72.6842 5.39733 72.966 5.70312 73.1541C6.00915 73.3421 6.3666 73.5307 6.72363 73.6248C7.08045 73.7187 7.43728 73.7653 7.74316 73.7654C8.55914 73.7654 9.2224 73.6713 9.73242 73.4363C10.2424 73.2012 10.651 72.9666 10.957 72.6375C11.263 72.3083 11.4673 72.0261 11.5693 71.697C11.6713 71.3679 11.7732 71.1322 11.8242 70.9441L11.7217 70.8503C11.4157 70.6623 11.0584 70.4275 10.6504 70.0984C10.2424 69.8163 9.83477 69.4395 9.42676 69.0164C9.01873 68.5932 8.71227 68.1226 8.40625 67.5583C8.15134 66.9942 7.99902 66.3827 7.99902 65.6775C7.99905 65.0193 8.1007 64.4078 8.30469 63.7966C8.5087 63.1855 8.86549 62.6681 9.27344 62.198C9.73247 61.7278 10.2432 61.3044 10.9062 61.0222C11.5692 60.6932 12.3343 60.5051 13.2012 60.364L16.2002 69.2214ZM18.2793 72.9421C18.5294 72.9421 18.7385 73.0393 18.9053 73.2351C19.072 73.4309 19.1552 73.6759 19.1553 73.9695C19.1553 74.2631 19.0719 74.5081 18.9053 74.7039C18.7385 74.8997 18.5294 74.9978 18.2793 74.9978C18.0294 74.9977 17.8626 74.8996 17.6543 74.7039C17.4876 74.5081 17.4043 74.2631 17.4043 73.9695C17.4044 73.6759 17.4876 73.4309 17.6543 73.2351C17.821 73.0395 18.0294 72.9422 18.2793 72.9421ZM106.784 72.9421C107.095 72.9422 107.355 73.0394 107.562 73.2351C107.77 73.4309 107.874 73.6759 107.874 73.9695C107.874 74.2631 107.77 74.5081 107.562 74.7039C107.355 74.8996 107.095 74.9977 106.784 74.9978C106.473 74.9978 106.265 74.8996 106.006 74.7039C105.798 74.508 105.694 74.2632 105.694 73.9695C105.694 73.6759 105.798 73.4309 106.006 73.2351C106.213 73.0395 106.473 72.9421 106.784 72.9421ZM46.9004 71.3396H21.0498C20.7706 71.3395 20.5377 71.1762 20.3516 70.9324C20.1656 70.6074 20.0723 70.3636 20.0723 70.1199C20.0723 69.876 20.1654 69.5503 20.3516 69.3064C20.5377 68.9815 20.7707 68.9002 21.0498 68.9001H46.9004V71.3396ZM50.8057 66.3513C51.1821 65.7587 51.6531 65.1662 52.2178 64.5242C52.7824 63.9316 53.4412 63.3388 54.2881 62.8943C55.088 62.4005 56.0292 62.0056 57.1113 61.6599C58.1935 61.3636 59.4168 61.1658 60.7812 61.1658H61.5342V71.3396H47.8887V71.2898C47.6064 71.2898 47.3708 71.1909 47.1826 71.0427C46.9948 70.8455 46.9006 70.6975 46.9004 70.5496C46.9004 70.4015 46.9945 70.2036 47.1826 70.0554C47.3708 69.8579 47.6064 69.8083 47.8887 69.8083H49.2998V55.4861H50.8057V66.3513ZM107.666 70.739H104.216V71.3396H94.2178C93.9385 71.3396 93.7057 71.1763 93.5195 70.9324C93.3335 70.6074 93.2402 70.3637 93.2402 70.1199C93.2402 69.876 93.3334 69.5503 93.5195 69.3064C93.7057 68.9815 93.9386 68.9001 94.2178 68.9001H104.216V69.2214H106.006V61.5837H107.666V70.739ZM111.547 71.3396H110.17V56.531H111.547V71.3396ZM162.75 71.3396H133.24C132.961 71.3395 132.728 71.1762 132.542 70.9324C132.36 70.6153 132.268 70.3754 132.264 70.1375V71.3396H127.144C126.91 71.3396 126.71 71.2251 126.542 71.0457H126.228C125.745 71.0456 125.312 70.8988 125.022 70.5564C124.733 70.2139 124.54 69.7247 124.54 69.0886L124.491 62.5789C124.154 62.7746 123.719 62.9708 123.237 63.2644C122.755 63.5091 122.322 63.8516 121.888 64.2429C121.454 64.6344 121.116 65.0748 120.826 65.5642C120.537 66.0535 120.393 66.641 120.393 67.2771C120.393 68.158 120.634 68.746 121.164 69.0886C121.695 69.4311 122.515 69.6753 123.672 69.7732L123.575 71.3396C122.563 71.2906 121.791 71.095 121.164 70.8503C120.537 70.5567 120.054 70.2134 119.717 69.8708C119.379 69.4795 119.138 69.0876 119.042 68.5984C118.946 68.1581 118.849 67.7174 118.849 67.2771C118.849 66.2007 119.138 65.2221 119.717 64.4392C120.296 63.6561 120.972 62.9708 121.743 62.3835C122.515 61.8453 123.286 61.4048 124.105 61.0623C124.925 60.7197 125.553 60.5235 126.035 60.3767V69.0388H126.083C126.083 69.297 126.158 69.4412 126.34 69.4724C126.371 69.4147 126.406 69.3583 126.445 69.3064C126.631 68.9815 126.864 68.9001 127.144 68.9001H132.264V70.0984C132.269 69.8571 132.361 69.5432 132.542 69.3064C132.728 68.9815 132.961 68.9002 133.24 68.9001H154.213V69.741H156.263C155.956 69.368 155.701 68.9417 155.497 68.4089C155.293 67.8762 155.19 67.2901 155.19 66.491C155.19 65.3723 155.497 64.4135 156.109 63.6677C156.722 62.9218 157.438 62.282 158.255 61.8025C159.072 61.323 159.89 61.0039 160.758 60.7908C161.626 60.5244 162.29 60.364 162.75 60.364V71.3396ZM204.201 58.2693H202.628V56.8503C202.235 57.053 201.792 57.3571 201.251 57.7117C200.759 58.0662 200.218 58.4209 199.727 58.8767C199.186 59.3326 198.694 59.7891 198.251 60.2957C197.759 60.8022 197.415 61.3597 197.12 61.9675C198.104 62.3728 199.038 62.7782 199.825 63.2341C200.612 63.69 201.3 64.1966 201.939 64.8044C202.529 65.4123 203.07 66.1219 203.513 66.9324C203.906 67.6416 204.25 68.5534 204.545 69.6677H205.256C205.263 69.6676 205.271 69.6667 205.278 69.6667H213.408C213.205 69.2487 213.052 68.6741 212.95 67.9949C212.849 67.3155 212.747 66.4264 212.696 65.3289C212.645 64.545 212.493 63.9178 212.341 63.4998C212.138 63.0295 211.935 62.7156 211.681 62.5066C211.427 62.2975 211.121 62.1409 210.816 62.0886C210.512 62.0364 210.206 61.9841 209.901 61.9841C209.19 61.9842 208.428 62.2458 207.666 62.7683L206.701 61.4617C207.108 61.1482 207.564 60.8865 208.123 60.6775C208.682 60.4684 209.293 60.364 209.953 60.364C211.325 60.3641 212.34 60.7824 213.052 61.5662C213.763 62.4023 214.221 63.6043 214.373 65.2244C214.475 66.6875 214.627 67.6807 214.729 68.3601C214.83 68.9873 215.135 69.3537 215.542 69.5105L216.405 69.7712L216.354 71.3396H205.278V71.2888H203.316C203.218 70.6809 203.07 70.0223 202.824 69.2625C202.578 68.5026 202.283 67.793 201.89 67.0837C201.988 67.489 201.988 67.8945 201.988 68.4011C201.988 68.8064 201.939 69.2117 201.89 69.6169C201.84 70.0222 201.693 70.6304 201.546 71.3396H184.458C184.179 71.3396 183.946 71.1763 183.76 70.9324C183.574 70.6073 183.48 70.3637 183.48 70.1199C183.48 69.876 183.574 69.5503 183.76 69.3064C183.946 68.9816 184.179 68.9001 184.458 68.9001H194.456V69.7693H200.268C200.366 69.364 200.365 68.9078 200.365 68.4519C200.365 67.4894 200.169 66.679 199.775 66.071C199.382 65.4631 198.94 64.9558 198.35 64.5505C197.809 64.196 197.218 63.8928 196.579 63.6902C195.94 63.4876 195.399 63.3862 194.907 63.2849L195.153 62.5242C195.498 61.3591 196.088 60.2953 196.924 59.3835C197.711 58.4717 198.596 57.6611 199.53 56.9519C200.464 56.2428 201.35 55.6851 202.186 55.2292C203.07 54.7735 203.71 54.4699 204.201 54.2673V58.2693ZM59.9814 62.7458C58.2405 62.894 56.8283 63.289 55.7461 63.8816C54.617 64.4742 53.7232 65.1165 53.0645 65.8572C52.4058 66.5979 51.888 67.2893 51.5586 68.03C51.2293 68.7705 50.9946 69.3142 50.9004 69.7585H60.0283V62.7458H59.9814ZM161.166 62.3884C160.809 62.4949 160.349 62.6549 159.89 62.8679C159.379 63.081 158.919 63.3481 158.459 63.6677C157.999 63.9874 157.641 64.3602 157.335 64.8396C157.029 65.319 156.876 65.799 156.876 66.4382C156.876 67.6632 157.233 68.4622 157.999 68.8884C158.765 69.3146 159.787 69.5275 161.166 69.5808V62.3884ZM69.7432 62.2556C68.4556 62.604 67.4065 63.2014 66.6436 63.9978C65.8806 64.7942 65.499 65.7397 65.499 66.7849C65.499 67.5315 65.7852 68.1787 66.3574 68.6267C66.9296 69.0746 67.8833 69.2741 69.123 69.2742H69.7432V62.2556ZM170.618 62.2556C169.147 62.604 167.947 63.2014 167.075 63.9978C166.203 64.7941 165.768 65.7398 165.768 66.7849C165.768 67.5315 166.095 68.1787 166.749 68.6267C167.403 69.0745 168.493 69.2742 169.91 69.2742H170.618V62.2556ZM53.959 57.8572C54.241 57.8573 54.476 57.9558 54.6641 58.1531C54.8523 58.3506 54.9463 58.598 54.9463 58.8943C54.9462 59.1905 54.8522 59.437 54.6641 59.6345C54.476 59.832 54.2411 59.9313 53.959 59.9314C53.6767 59.9314 53.4411 59.8321 53.2529 59.6345C53.0648 59.437 52.9708 59.1905 52.9707 58.8943C52.9707 58.598 53.0647 58.3506 53.2529 58.1531C53.4411 57.9557 53.6768 57.8572 53.959 57.8572ZM121.694 56.7058C121.984 56.7058 122.225 56.804 122.418 56.9998C122.611 57.2444 122.707 57.4405 122.707 57.7341C122.707 58.0275 122.611 58.2719 122.418 58.4675C122.225 58.6633 121.984 58.7615 121.694 58.7615C121.405 58.7614 121.164 58.6633 120.971 58.4675C120.778 58.2719 120.682 58.0274 120.682 57.7341C120.682 57.4406 120.778 57.1955 120.971 56.9998C121.164 56.804 121.405 56.7058 121.694 56.7058ZM125.022 56.7058C125.312 56.7059 125.552 56.8042 125.745 56.9998C125.938 57.2445 126.035 57.4405 126.035 57.7341C126.035 58.0276 125.938 58.2718 125.745 58.4675C125.552 58.6632 125.312 58.7614 125.022 58.7615C124.733 58.7615 124.492 58.6633 124.299 58.4675C124.106 58.2719 124.01 58.0276 124.01 57.7341C124.01 57.4405 124.106 57.1955 124.299 56.9998C124.492 56.804 124.733 56.7058 125.022 56.7058ZM111.332 51.8279C111.805 51.8279 112.279 51.9284 112.752 52.1785L112.493 52.9285C112.106 52.7286 111.719 52.6287 111.375 52.6287C111.16 52.6287 110.945 52.6782 110.815 52.7781C110.686 52.8781 110.6 53.0787 110.6 53.3289C110.6 53.7291 110.729 53.9793 110.987 54.1794C111.246 54.3795 111.59 54.4294 111.978 54.4294H112.623V55.2302H109.094V54.4294H110.213C110.127 54.3794 110.083 54.2792 109.997 54.0291C109.911 53.779 109.911 53.5789 109.911 53.3289C109.911 52.7786 110.041 52.3786 110.342 52.1785C110.643 51.9784 110.945 51.8279 111.332 51.8279Z" fill="black"/>
</svg>
