<svg width="300" height="150" viewBox="0 0 300 150" fill="none" xmlns="http://www.w3.org/2000/svg">
<path d="M294.923 69.9722C293.381 71.2334 291.887 72.5431 287.02 75.3566L285.767 76.0357V75.1141C285.767 75.0171 286.104 62.5504 280.129 51.8301C279.743 52.3637 278.49 53.9644 277.189 55.6137C277.96 55.5167 278.731 55.7107 279.454 56.4384C280.707 57.6511 282.731 60.6101 283.888 63.6661C284.514 65.6064 285.044 68.2259 284.9 70.4573C284.9 70.4573 284.177 83.118 282.731 95.245C281.43 106.256 280.707 107.712 280.707 107.712C279.888 106.693 279.502 105.383 279.309 104.656L279.165 104.753C279.165 104.753 278.394 103.637 277.96 101.503C277.43 99.0287 277.333 94.6144 277.382 92.4801C277.382 92.4801 277.43 91.8495 276.9 90.7823C276.659 90.2972 276.466 89.7636 276.321 89.23C275.55 85.8344 274.008 84.8643 273.141 83.8456C272.129 82.5844 271.358 81.2746 270.924 80.159L270.828 80.2075C270.249 80.7411 269.864 81.2746 269.816 81.6142C270.008 83.603 270.201 85.0098 269.912 86.0285L269.478 85.6889C269.623 86.9986 268.996 88.5024 269.382 89.7151L268.611 89.6181L268.707 89.8121C268.804 89.9576 268.9 90.0547 269.093 90.1517L269.334 90.2487C269.382 90.2972 269.575 90.3457 270.105 90.5397C270.538 89.5696 270.201 88.5994 269.767 88.0658C269.382 87.6292 269.864 86.9501 270.587 87.2897C271.55 87.7263 272.611 88.3569 273.767 89.424C275.358 90.9763 275.839 92.4316 275.502 92.7226C275.261 92.9652 275.02 92.9166 274.731 92.7711L274.683 92.9652C274.587 93.2562 274.346 93.4502 274.008 93.5473L273.96 93.5958C273.767 93.8383 273.526 93.9353 273.044 93.9353C272.611 93.9353 272.177 93.6928 272.081 93.6443L271.743 93.4017L271.55 93.7413C272.803 95.4876 275.261 98.3011 276.996 101.454C278.249 103.686 278.827 105.529 278.827 105.529C278.827 105.529 278.153 105.723 277.285 105.529C277.574 106.402 277.767 107.227 277.719 107.809C277.044 107.857 276.177 107.76 275.261 107.227C275.309 107.372 275.309 107.518 275.358 107.663C276.129 108.245 276.996 108.876 277.382 109.167C273.574 110.962 268.032 110.137 267.936 110.137C267.647 110.089 267.454 110.089 267.213 110.04L267.069 110.38C267.454 111.253 268.322 113.339 268.514 113.775C270.924 114.891 273.189 115.619 276.659 115.036C276.659 115.036 277.237 114.988 278.731 114.454C280.273 113.921 283.116 112.271 285.285 110.186C288.032 107.615 289.671 104.898 290.201 103.831C294.442 95.5361 295.116 83.215 295.116 78.2186V75.6477C295.116 73.9984 295.02 71.2334 294.923 69.9722Z" fill="#E62832"/>
<path d="M253.539 113.638C253.687 113.201 254.478 111.359 254.874 110.39C254.825 110.244 254.775 110.05 254.726 109.905C254.182 110.002 253.638 110.05 253.094 110.147C252.748 110.196 247.359 111.02 243.404 109.178C243.899 108.838 244.789 108.111 245.975 107.384L246.025 107.142C245.085 107.675 244.195 107.723 243.503 107.723C243.454 107.142 243.602 106.318 243.948 105.445C243.058 105.639 242.366 105.445 242.366 105.445C242.366 105.445 242.96 103.554 244.245 101.373C245.431 99.2886 247.112 97.1556 248.546 95.4104C248.694 94.7318 249.238 94.1501 249.288 94.1016L249.535 93.8592C249.386 93.7138 249.238 93.6168 249.09 93.4714C248.941 93.6168 248.793 93.7138 248.694 93.7622C248.249 93.9561 247.953 94.0531 247.706 94.0531C247.211 94.0531 246.915 93.9562 246.766 93.7138L246.717 93.6653C246.371 93.5683 246.124 93.3744 246.025 93.0836L245.975 92.8897C245.679 92.9866 245.53 92.9866 245.283 92.7927C244.937 92.5019 245.431 90.9991 247.063 89.4963C248.2 88.4298 249.288 87.7996 250.326 87.3633C251.117 87.024 251.562 87.7027 251.166 88.139C250.721 88.6722 250.375 89.6417 250.82 90.6113C251.314 90.4658 251.463 90.3689 251.562 90.3689C251.759 90.3204 251.957 90.2235 252.204 89.9326L252.303 89.7387L251.611 89.8356C251.957 89.0115 251.413 86.9271 251.759 85.5697L251.265 85.8606C251.018 84.6487 251.067 82.7096 251.166 81.7401C251.166 81.4977 250.82 81.0614 250.326 80.5766C249.93 81.5462 249.288 82.7096 248.15 84.0669C247.261 85.1334 245.679 86.0545 244.888 89.4478C244.739 89.9811 244.542 90.4658 244.294 90.9991C243.751 92.0656 243.8 92.6958 243.8 92.6958C243.849 94.8287 243.751 99.2401 243.207 101.712C242.762 103.894 241.971 105.009 241.971 105.009L241.872 104.912C241.674 105.639 241.328 106.948 240.438 107.966C240.438 107.966 239.697 106.512 238.362 95.5074C236.879 83.3883 236.137 70.6874 236.137 70.6874C235.989 68.4575 236.533 65.8398 237.175 63.9007C238.362 60.8467 240.438 57.8896 241.724 56.6777C242.515 55.9021 243.404 55.7567 244.245 55.9021C243.998 55.5628 243.751 55.2234 243.751 55.2234C242.91 54.1085 241.921 52.8966 241.081 51.8301C235.05 62.2525 235.198 74.711 235.198 74.8079V76.1168L234.16 75.5836C229.414 72.9173 227.337 71.3176 225.805 70.0572C225.755 71.3176 225.607 75.632 225.607 75.632V78.2498C225.607 83.2428 226.497 95.4589 230.65 103.845C231.243 104.912 232.775 107.675 235.593 110.244C237.719 112.183 240.191 113.589 242.91 114.462C243.058 114.51 243.404 114.607 243.553 114.656C246.717 115.625 250.177 115.431 253.539 113.783V113.638Z" fill="#E62832"/>
<path d="M255.64 117.284C255.675 115.797 255.849 113.567 256.093 111.584C255.745 112.079 255.466 112.278 255.431 112.278L255.257 112.079C254.595 114.409 253.654 117.631 253.654 117.681C254.072 117.136 254.769 116.739 255.64 117.284Z" fill="#E62832"/>
<path d="M265.023 118.725C265.07 117.213 264.499 113.198 264.119 110.884L263.976 110.695L263.738 110.365C263.596 110.837 263.453 111.309 263.215 111.781C262.977 112.348 262.549 112.962 262.454 112.915C262.406 112.915 261.312 112.159 260.598 110.648C259.885 112.112 258.838 112.868 258.743 112.868C258.648 112.868 258.267 112.301 257.982 111.734C257.887 111.498 257.744 111.215 257.697 110.979C257.316 113.387 256.793 117.26 256.888 118.725C254.652 117.26 253.272 118.725 253.748 119.764L253.891 120C254.176 120.378 254.509 120.567 255.032 120.567C255.746 120.614 256.698 120.708 257.792 121.181C258.791 121.653 259.885 122.409 260.979 123.779C262.073 122.409 263.167 121.653 264.166 121.181C265.261 120.661 266.212 120.614 266.926 120.567C267.401 120.52 267.782 120.283 268.067 120L268.21 119.764C268.638 118.725 267.259 117.213 265.023 118.725Z" fill="#E62832"/>
<path d="M265.454 112.143C265.402 112.143 265.093 111.939 264.629 111.584C264.99 113.362 265.299 115.598 265.351 117.275C266.639 116.766 267.669 117.122 268.288 117.681C268.288 117.63 266.794 113.921 265.918 111.635C265.711 111.889 265.454 112.143 265.454 112.143Z" fill="#E62832"/>
<path d="M295.252 75.3636C295.203 73.7156 295.154 70.9527 295.055 69.6925C293.485 70.9527 291.963 72.2615 287.005 75.0728L285.729 75.7514V74.8304C285.729 74.7335 286.073 62.2764 279.986 51.5643C279.593 52.049 278.317 53.6971 276.992 55.3451C277.777 55.2481 278.563 55.442 279.299 56.1691C280.575 57.3809 282.637 60.3376 283.815 63.3913C284.453 65.3301 284.993 67.9475 284.846 70.1772C284.846 70.1772 284.109 82.8281 282.637 94.9459C281.311 105.949 280.575 107.403 280.575 107.403C279.741 106.385 279.348 105.076 279.152 104.349L279.053 104.446C279.053 104.446 278.268 103.331 277.826 101.199C277.286 98.7266 277.188 94.3158 277.237 92.1831C277.237 92.1831 277.286 91.5529 276.746 90.4866C276.501 90.0019 276.305 89.4687 276.157 88.9355C275.372 85.5425 273.801 84.5731 272.918 83.5552C271.887 82.295 271.102 80.9862 270.66 79.8714L270.562 79.9199C269.973 80.4531 269.58 80.9862 269.531 81.3255C269.727 83.3129 269.923 84.7185 269.629 85.7364L269.187 85.3971C269.334 86.7058 268.696 88.2084 269.089 89.4202L268.304 89.3233L268.402 89.5172C268.5 89.6626 268.598 89.7595 268.795 89.8564L269.04 89.9534C269.089 90.0019 269.285 90.0503 269.825 90.2442C270.267 89.2748 269.923 88.3054 269.482 87.7722C269.089 87.3359 269.58 86.6574 270.316 86.9967C271.298 87.4329 272.378 88.063 273.556 89.1294C275.176 90.6805 275.667 92.1346 275.323 92.4254C275.077 92.6678 274.832 92.6193 274.538 92.4739L274.488 92.6678C274.39 92.9586 274.145 93.1525 273.801 93.2494L273.752 93.2979C273.556 93.5402 273.31 93.6372 272.82 93.6372C272.378 93.6372 271.936 93.3948 271.838 93.3464L271.494 93.104L271.249 93.4433C272.525 95.1883 275.028 97.9996 276.795 101.15C278.072 103.38 278.661 105.27 278.661 105.27C278.661 105.27 277.974 105.464 277.09 105.27C277.384 106.143 277.581 106.967 277.532 107.548C276.845 107.597 275.961 107.5 275.028 106.967C275.077 107.112 275.077 107.258 275.127 107.403C275.912 107.985 276.795 108.615 277.188 108.906C273.31 110.699 267.666 109.875 267.567 109.875C267.273 109.827 267.077 109.827 266.831 109.778L266.684 110.117C267.076 110.99 267.96 113.074 268.156 113.51C270.611 114.625 272.918 115.352 276.452 114.771C276.452 114.771 277.041 114.722 278.563 114.189C280.133 113.656 283.029 112.008 285.238 109.923C288.036 107.354 289.705 104.64 290.245 103.574C294.564 95.2852 295.252 82.9736 295.252 77.981C295.252 76.333 295.252 75.4605 295.252 75.3636ZM268.353 116.903C268.353 116.855 266.929 113.316 266.095 111.135C265.898 111.426 265.702 111.62 265.653 111.62C265.604 111.62 265.309 111.426 264.868 111.087C265.211 112.783 265.506 114.916 265.555 116.516C266.782 115.982 267.764 116.37 268.353 116.903ZM264.819 117.97C264.868 116.419 264.279 112.299 263.886 109.923L263.739 109.73L263.493 109.39C263.346 109.875 263.199 110.36 262.953 110.844C262.708 111.426 262.266 112.056 262.168 112.008C262.119 112.008 260.99 111.232 260.254 109.681C259.517 111.184 258.437 111.959 258.339 111.959C258.241 111.959 257.848 111.378 257.554 110.796C257.456 110.554 257.308 110.263 257.259 110.02C256.867 112.492 256.327 116.467 256.425 117.97C254.118 116.467 252.694 117.97 253.185 119.036L253.333 119.278C253.627 119.666 253.971 119.86 254.511 119.86C255.247 119.908 256.229 120.005 257.358 120.49C258.388 120.975 259.517 121.75 260.646 123.156C261.775 121.75 262.904 120.975 263.935 120.49C265.064 119.957 266.046 119.908 266.782 119.86C267.273 119.812 267.666 119.569 267.96 119.278L268.107 119.036C268.549 117.97 267.126 116.419 264.819 117.97ZM252.842 116.903C253.48 116.37 254.461 116.031 255.64 116.516C255.689 115.061 255.934 112.88 256.278 110.941C255.787 111.426 255.394 111.62 255.345 111.62L255.1 111.426C254.167 113.656 252.891 116.855 252.842 116.903ZM253.087 113.413L253.136 113.316C253.283 112.88 254.069 111.038 254.461 110.069C254.412 109.923 254.363 109.73 254.314 109.584C253.774 109.681 253.234 109.73 252.694 109.827C252.351 109.875 247 110.699 243.074 108.857C243.564 108.518 244.448 107.791 245.626 107.064L245.675 106.821C244.742 107.354 243.859 107.403 243.172 107.403C243.123 106.821 243.27 105.997 243.614 105.125C242.73 105.319 242.043 105.125 242.043 105.125C242.043 105.125 242.632 103.234 243.908 101.005C245.086 98.9205 246.755 96.7878 248.178 95.0913C248.326 94.4127 248.866 93.8311 248.915 93.7826L249.16 93.5402C249.013 93.3948 248.866 93.2979 248.718 93.1525C248.571 93.2979 248.424 93.3948 248.326 93.4433C247.884 93.6372 247.589 93.7341 247.344 93.7341C246.853 93.7341 246.559 93.6372 246.411 93.3948L246.362 93.3464C246.019 93.2494 245.773 93.0555 245.675 92.7647L245.626 92.5708C245.332 92.6678 245.184 92.6678 244.939 92.4739C244.595 92.1831 245.086 90.6805 246.706 89.1778C247.835 88.1115 248.915 87.4814 249.946 87.0451C250.731 86.7058 251.173 87.3844 250.78 87.8207C250.338 88.3538 249.995 89.3233 250.436 90.2927C250.927 90.1473 251.075 90.0503 251.173 90.0503C251.369 90.0019 251.565 89.9049 251.811 89.6141L251.909 89.4687L251.222 89.5656C251.565 88.7416 251.025 86.6574 251.369 85.3002L250.878 85.591C250.633 84.3792 250.682 82.4404 250.78 81.471C250.78 81.2286 250.436 80.7924 249.946 80.3076C249.553 81.2771 248.915 82.4404 247.786 83.7976C246.902 84.8639 245.332 85.7849 244.546 89.1778C244.399 89.711 244.203 90.1957 243.957 90.7289C243.417 91.7953 243.466 92.4254 243.466 92.4254C243.515 94.5581 243.417 98.969 242.877 101.441C242.435 103.622 241.65 104.689 241.65 104.689L241.552 104.592C241.356 105.319 241.012 106.627 240.128 107.645C240.128 107.645 239.392 106.191 238.067 95.1883C236.594 83.0705 235.858 70.3711 235.858 70.3711C235.711 68.1414 236.251 65.524 236.889 63.5851C238.067 60.5315 240.128 57.5747 241.405 56.363C242.19 55.5874 243.074 55.442 243.908 55.5874C243.663 55.2481 243.417 54.9088 243.417 54.9088C242.583 53.794 241.601 52.5822 240.767 51.5159C234.778 61.9371 234.925 74.3942 234.925 74.4911V75.7998L233.895 75.2667C229.182 72.6008 227.121 71.0012 225.599 69.741C225.55 71.0012 225.403 75.3151 225.403 75.3151V77.9326C225.403 82.9251 226.286 95.1398 230.409 103.525C230.999 104.592 232.52 107.354 235.269 109.923C237.38 111.862 239.834 113.268 242.534 114.14C242.681 114.189 243.025 114.286 243.172 114.334C246.313 115.304 249.749 115.11 253.087 113.413ZM225.648 68.3353C226.237 68.82 229.182 71.292 233.895 73.9579C233.993 71.1951 234.091 61.2585 240.128 50.6434C239.441 49.7224 239.147 49.3347 238.46 48.4622C237.969 48.9954 237.331 49.3347 236.398 49.6255C236.447 47.5412 235.956 46.3779 235.367 45.1177C234.533 45.1661 233.06 45.1661 230.753 44.6814C227.71 51.0796 226.188 58.4957 225.648 68.3353ZM230.802 44.633C231.097 44.4876 232.029 43.9059 232.618 43.0819C232.913 42.6941 233.158 42.2579 233.306 41.9186L232.667 41.1431C231.98 42.2094 231.391 43.4212 230.802 44.633ZM233.895 40.7553C233.993 40.5614 234.091 40.416 234.189 40.319C232.667 38.3802 231.686 37.0715 231.588 36.9745C231.342 36.6837 230.704 35.4719 230.9 34.5025C229.084 33.6785 227.808 32.7576 227.808 32.7576C227.808 32.7576 230.655 36.5383 233.895 40.7553ZM234.091 39.2042C234.238 39.3981 234.435 39.6405 234.582 39.8343C237.036 36.7322 240.325 34.5025 244.252 33.0484C243.957 32.6122 243.515 31.5458 244.644 30.431C246.362 30.6248 246.755 31.6427 246.902 32.1759C249.995 31.3519 253.627 30.8672 257.701 30.7218C257.848 27.9589 259.861 27.2803 259.861 27.2803C259.861 27.2803 259.91 26.7472 260.303 26.6017C260.744 26.7956 260.744 27.2803 260.744 27.2803C260.744 27.2803 262.757 27.9589 262.904 30.7218C266.978 30.8672 270.611 31.3519 273.703 32.1759C273.801 31.6427 274.243 30.6248 275.961 30.431C277.139 31.5458 276.648 32.5637 276.354 33.0484C280.33 34.5025 283.717 36.8291 286.171 39.9313C286.367 39.6889 286.514 39.495 286.662 39.2527C284.355 36.4414 281.164 34.1632 277.728 32.806C278.121 31.6912 277.728 30.7703 277.09 30.0917C277.09 29.6554 276.845 29.2676 276.55 29.1222C276.206 29.0738 275.716 29.2192 275.372 29.5585C274.39 29.7039 273.409 30.1886 272.869 31.255C270.316 30.6248 267.42 30.2371 263.788 30.0432C263.69 28.3952 262.708 27.3288 261.53 26.7472C261.284 26.1655 260.794 25.8262 260.352 25.7293C259.91 25.8262 259.419 26.1655 259.174 26.7472C257.947 27.3288 256.965 28.3467 256.916 30.0432C253.234 30.2371 250.387 30.6248 247.835 31.255C247.295 30.1886 246.313 29.7039 245.332 29.5585C244.988 29.2192 244.497 29.0738 244.153 29.1222C243.859 29.2676 243.614 29.6554 243.614 30.0917C242.975 30.7703 242.583 31.6912 242.975 32.806C239.441 34.2117 236.349 36.3929 234.091 39.2042ZM286.564 40.4645L286.809 40.9007C290.098 36.5868 293.141 32.6121 293.141 32.6121C293.141 32.6121 291.865 33.4846 290.049 34.3571C290.245 35.3265 289.607 36.5383 289.361 36.8291C289.263 36.9745 288.183 38.3802 286.564 40.4645ZM287.889 41.24C287.692 41.4823 287.3 42.0155 287.3 42.0155C287.791 42.9365 288.331 43.8574 289.754 44.5845C289.214 43.4212 288.576 42.3064 287.889 41.24ZM278.563 51.8067C278.808 51.4674 280.035 49.8678 281.655 47.7836C281.557 47.6382 281.41 47.4928 281.311 47.3473C280.182 48.8015 279.053 50.3041 277.974 51.7582C277.188 52.8246 275.912 54.5695 275.863 54.7634C275.863 55.1027 277.924 52.6307 278.563 51.8067ZM257.897 108.663C258.045 109.196 258.339 109.875 258.585 110.214C258.585 110.214 259.665 109.342 259.959 107.403C259.763 107.548 259.419 107.839 259.125 107.985C258.683 108.275 258.241 108.518 257.897 108.663ZM244.448 108.663C246.117 109.293 250.731 109.342 252.891 109.099C255.64 108.76 257.75 107.936 259.517 106.724C259.076 106.337 258.487 105.803 257.897 105.27C256.965 105.997 256.13 106.579 255.64 106.821C252.351 108.13 247.982 108.469 247.982 108.469C247.982 108.469 253.627 107.209 255.59 106.143C255.983 105.949 256.621 105.464 257.358 104.834C256.621 104.155 255.934 103.428 255.345 102.895C255.001 103.234 254.707 103.428 254.314 103.719C253.578 104.252 252.498 104.592 251.664 104.979C247.688 106.482 245.037 108.13 244.448 108.663ZM250.927 75.7998C251.222 74.8789 251.565 68.9654 249.209 66.4449C249.798 68.7231 250.584 71.389 250.927 75.7998ZM246.46 61.2101C246.362 61.9856 246.362 62.955 246.559 63.6821C246.706 64.1668 246.951 64.6515 247.099 65.0877C247.197 63.5851 246.804 61.9371 246.46 61.2101ZM247.639 63.1004C247.639 64.7484 247.982 66.0087 248.571 68.0445C248.62 65.8633 248.178 63.6821 247.639 63.1004ZM239.049 47.5897C240.767 49.8678 242.092 51.6128 242.337 51.9521C242.926 52.7761 245.037 55.2481 244.988 54.9088C244.988 54.7149 243.712 52.97 242.877 51.9036C241.699 50.3525 240.472 48.7045 239.294 47.1535C239.245 47.2989 239.147 47.4443 239.049 47.5897ZM237.527 39.495C237.331 39.3012 236.889 38.9134 235.809 39.6889C233.845 41.3854 234.484 42.888 232.422 44.2452C233.158 44.3906 233.747 44.4391 234.238 44.4391C234.582 44.4391 234.827 44.4391 235.073 44.3906C235.465 44.3421 235.76 44.2937 236.005 44.2452C236.496 45.36 237.183 46.3779 237.134 48.3168C239.49 47.0565 238.558 43.0819 240.767 43.1304C239.539 41.7247 237.723 39.7374 237.527 39.495ZM282.784 38.5741C281.508 37.3138 279.495 35.9567 277.041 34.8903C270.709 32.1274 262.61 32.1274 260.303 32.1274C257.996 32.1274 249.946 32.1274 243.564 34.8903C241.11 35.9567 239.098 37.3138 237.821 38.5741C237.821 38.5741 240.717 41.7732 241.454 42.6457C241.846 43.0819 241.994 43.4697 241.748 44.1483C246.166 41.24 251.173 39.7859 260.155 39.6889H260.548C269.334 39.7859 274.488 41.24 278.906 44.1483C278.661 43.4697 278.808 43.0819 279.201 42.6457C279.937 41.7732 282.784 38.5741 282.784 38.5741ZM281.557 45.2631C281.851 46.281 282.146 47.3958 283.029 48.0744L283.422 48.3168C283.422 46.3779 284.06 45.36 284.551 44.2452C285.287 44.3421 286.22 44.633 288.134 44.2937C286.318 43.0819 286.711 41.7247 285.336 40.2221C285.189 40.0767 285.042 39.8828 284.846 39.7374C284.355 39.3981 284.011 39.3012 283.717 39.2527C283.373 39.2527 283.177 39.3981 283.078 39.5435C282.882 39.7374 281.017 41.7732 279.741 43.1304C280.919 43.0819 281.213 44.0998 281.557 45.2631ZM279.986 48.0259C280.182 47.7836 280.379 47.5412 280.575 47.2504C277.974 44.9723 274.096 42.6941 269.874 41.7732C267.027 41.1431 264.72 41.0946 263.297 41.1431C262.119 41.1431 261.333 41.6278 261.333 42.3548C260.597 42.2094 260.401 41.2885 260.303 41.1431C260.254 41.5308 259.861 42.2579 259.272 42.3548C259.272 41.6278 258.536 41.1915 257.308 41.1431C255.885 41.1431 253.578 41.1915 250.731 41.7732C246.411 42.6941 242.681 44.7784 240.079 47.105C240.276 47.3473 240.472 47.5897 240.668 47.8321C243.025 45.6509 246.117 43.9544 249.455 42.985C252.204 42.2094 255.59 41.9186 257.161 41.9671C258.536 42.0155 258.732 42.7911 258.585 43.2273C259.223 43.2758 260.106 42.7426 260.303 42.4033C260.45 42.6941 261.284 43.2758 262.07 43.2273C261.923 42.7911 262.119 42.0155 263.493 41.9671C265.064 41.9186 268.451 42.1609 271.2 42.985C274.39 44.0028 277.679 45.9417 279.986 48.0259ZM269.727 60.2891C270.071 60.2891 270.365 60.2406 270.66 60.0952C270.905 59.9498 270.954 59.8529 271.052 59.7075C273.065 56.8477 276.746 52.2429 279.544 48.6076C273.85 43.0819 265.702 42.6941 263.591 42.8395C263.101 42.888 262.512 43.2758 263.15 44.0998C262.708 44.2937 260.941 44.1483 260.303 43.5666C259.665 44.1483 257.897 44.3421 257.456 44.0998C258.094 43.2758 257.505 42.888 257.014 42.8395C254.854 42.6941 246.313 43.5181 241.159 48.5107C244.006 52.2429 249.946 59.9983 250.093 60.1437C250.191 60.2891 250.486 60.483 250.878 60.483H251.025C251.32 60.483 251.615 60.2406 251.958 59.9013C252.596 59.2227 252.891 58.8834 253.48 58.2533C254.658 57.09 255.738 56.1691 255.934 56.0237C256.425 55.5874 256.572 55.1997 256.621 54.8604C256.572 54.4241 256.229 54.2787 256.032 54.0363L255.934 54.1818C255.738 54.0363 255.541 53.3578 255.541 53.3578L255.443 53.6486C255.443 53.6486 255.001 52.6307 254.314 52.6792C253.382 52.8246 252.743 52.3883 252.694 52.3883C252.645 52.3883 252.596 52.6792 252.596 53.0669H252.547C251.909 52.5337 251.713 51.1281 252.94 50.2071C253.725 49.6255 253.872 49.674 254.461 49.3831C254.707 49.2862 254.903 49.0438 254.952 48.9469C255.345 48.4622 256.179 48.1714 256.621 48.0744C257.21 47.929 258.585 47.7351 259.959 47.7836C260.744 47.8321 261.481 47.9775 261.972 48.2198C262.364 48.3652 263.542 49.2377 264.23 50.1102C264.671 50.6434 265.408 52.2429 265.8 53.2608C266.684 55.3451 266.586 55.1512 267.175 56.5084C267.862 58.1079 268.255 58.9804 268.893 59.8529C269.089 60.1437 269.285 60.2406 269.727 60.2891ZM252.302 75.509C252.302 76.333 252.891 77.4963 253.676 77.9326C253.234 76.6723 252.842 76.2846 252.302 75.509ZM263.15 84.767C262.855 85.2517 262.61 85.494 262.217 85.8333C262.364 85.494 262.364 85.1063 262.364 85.1063C262.168 85.494 261.775 85.9788 261.481 86.2696C260.794 86.9482 260.646 87.6268 260.646 87.6268C260.646 87.6268 260.843 87.3844 261.677 86.8997C262.561 86.3665 262.855 85.591 263.15 84.767ZM263.69 93.3948C263.444 93.0555 262.806 92.2315 262.266 91.7468C262.659 92.6193 262.806 93.201 262.855 93.3948L262.953 93.3464L263.248 93.2979L263.591 93.3464L263.69 93.3948ZM263.248 100.472C263.739 100.956 264.328 101.538 264.769 101.974C265.015 101.683 265.26 101.441 265.408 101.247L263.886 99.8415L263.248 100.472ZM260.499 97.7572C261.186 98.4358 262.07 99.4052 262.659 99.9384C263.051 99.5507 263.297 99.3568 263.297 99.3568L260.99 97.2725C260.892 97.321 260.695 97.5149 260.499 97.7572ZM260.254 96.4485V97.224L260.646 96.8363L260.254 96.4485ZM260.254 96.0123C260.254 95.9638 260.646 95.5276 260.843 95.3821L260.892 95.3337C260.794 94.5097 260.597 93.4918 260.303 93.104C260.204 93.4918 260.254 94.9459 260.254 96.0123ZM261.186 92.1831C261.284 92.8132 261.383 94.3158 261.383 94.8005C261.53 94.6066 261.726 94.4612 261.923 94.2673C261.923 93.9765 261.726 92.8132 261.186 92.1831ZM260.205 91.5529C260.205 91.5529 260.352 91.5045 260.695 91.3106C260.99 91.1167 261.235 90.9228 261.383 90.632C261.53 90.3411 261.53 90.0503 261.481 89.9049C261.481 89.9049 261.432 90.1957 261.039 90.535C260.892 90.6805 260.646 90.9228 260.499 91.0682C260.303 91.3106 260.205 91.5529 260.205 91.5529ZM259.615 87.2875C259.615 86.2211 258.437 86.1242 258.143 85.0578C258.045 86.5604 259.076 86.5604 259.615 87.2875ZM260.254 89.711C260.254 89.711 260.352 89.4687 260.695 89.2263C260.941 89.0809 262.266 88.2569 262.561 87.9176C262.806 87.5783 262.904 87.0936 262.904 87.0936C262.904 87.0936 262.659 87.4814 262.119 87.7722C261.677 88.0145 260.597 88.6931 260.401 88.984C260.303 89.1294 260.254 89.2748 260.254 89.4202L260.155 89.1294C259.812 88.4508 258.83 88.16 258.241 87.4814C257.848 87.0451 257.848 86.8512 257.848 86.8512C257.848 87.2875 257.947 87.6268 258.094 87.8691C258.241 88.1115 258.732 88.4993 259.419 88.9355C260.155 89.4202 260.254 89.711 260.254 89.711ZM259.763 91.0682C259.763 91.0682 259.665 90.2442 259.026 90.0019C259.076 90.5835 259.763 91.0682 259.763 91.0682ZM259.468 95.3821C259.468 94.752 259.419 94.025 259.37 93.7341C259.174 94.025 259.026 94.4612 258.928 94.849L259.468 95.3821ZM255.885 93.6372C256.081 93.5887 256.523 93.3464 256.769 93.2979L256.965 93.2494C257.112 92.7647 257.308 91.9892 257.505 91.6499C257.358 91.6014 256.13 93.2979 255.885 93.6372ZM257.848 93.7341L258.29 94.1219C258.339 93.6372 258.585 92.0376 258.487 91.8438C257.897 92.9101 257.848 93.6372 257.848 93.7341ZM257.897 84.67C257.897 84.67 257.897 84.3792 257.701 84.0399C257.603 83.846 257.308 83.6037 257.112 83.4098C256.965 83.2644 256.965 83.1674 256.965 83.1674C256.916 83.3613 257.014 83.7976 257.063 83.943C257.112 84.1369 257.259 84.3307 257.456 84.4762C257.75 84.6216 257.897 84.67 257.897 84.67ZM257.407 95.8184L252.547 100.326C252.842 100.617 253.185 100.956 253.382 101.199H253.627C253.922 100.908 258.781 96.5454 259.174 96.2061V96.1092C258.977 95.8669 258.437 95.3337 258.094 94.9459C257.652 94.5097 257.112 93.928 256.719 94.0249C256.327 94.1219 256.327 94.1704 255.787 94.2673C254.756 94.4612 253.971 94.2188 253.578 94.1219L253.48 94.0734L253.431 94.4127L253.382 94.752C253.872 94.849 254.167 94.849 255.394 94.849C255.787 94.849 256.032 94.9944 255.689 95.3337C255.689 95.3337 252.498 98.4358 252.351 98.6297C251.664 99.2598 251.664 99.4052 251.86 99.5991C251.909 99.6476 251.909 99.5991 252.056 99.793L253.333 98.6782L255.394 96.8847L256.965 95.4306L257.161 95.3821L257.456 95.673L257.407 95.8184ZM264.868 94.8005C266.046 94.8005 266.34 94.8005 266.831 94.7036L266.733 94.3158L266.684 94.0249H266.635C266.242 94.1219 265.457 94.3643 264.426 94.1704C263.935 94.0734 263.886 94.0734 263.493 93.928C263.15 93.8311 262.561 94.4127 262.119 94.849C261.726 95.2367 261.235 95.8184 261.039 96.0123V96.1577C261.432 96.497 266.291 100.908 266.586 101.15H266.831C267.027 100.956 267.371 100.617 267.666 100.278L262.806 95.7699L262.757 95.576L263.051 95.2852L263.248 95.3337L264.819 96.7878L266.88 98.5812L268.156 99.6961C268.353 99.5022 268.304 99.5507 268.353 99.5022C268.549 99.3083 268.5 99.1629 267.862 98.5328C267.666 98.3389 264.524 95.2367 264.524 95.2367C264.279 94.9459 264.475 94.8005 264.868 94.8005ZM263.886 81.9557C263.886 81.9557 264.622 81.2286 264.917 78.902C265.064 79.0959 265.309 79.2413 265.408 79.5806C265.898 78.9989 266.831 75.8483 266.929 74.782C267.224 74.9274 266.978 74.8304 267.322 75.0243C267.567 74.5881 268.107 72.7946 268.353 70.3226L268.745 70.468C268.893 69.3532 269.089 67.5113 269.138 66.251C269.187 65.1362 269.138 62.9065 268.696 61.5978C268.205 60.2891 268.009 59.6105 267.273 58.4472C267.273 58.4472 266.978 58.5926 266.88 58.7865C266.684 58.1564 266.095 56.6538 265.8 56.1206C265.064 54.7149 264.72 53.8425 263.984 53.3578C264.328 53.3578 264.475 53.4547 264.868 53.4547C264.377 53.0185 264.18 52.6792 263.641 52.2914C263.837 52.1944 264.131 52.1944 264.671 52.2914C263.935 51.6128 263.69 50.5949 261.775 49.9163C262.119 49.8678 262.364 49.9648 262.806 49.9648C262.561 49.577 261.972 48.9954 261.039 48.7045C259.076 48.3168 256.425 48.2683 255.149 49.7224C255.05 49.8194 254.707 49.9163 254.412 50.0133C254.216 50.1102 254.118 50.1587 254.069 50.2071C253.872 50.3525 253.823 50.5949 254.216 51.1766C253.676 51.0796 253.529 50.5949 253.431 50.6434C253.234 50.7888 253.038 50.9342 252.842 51.225C252.645 51.5159 252.498 52.049 252.547 52.2914C252.596 52.3399 253.087 52.5337 253.136 52.0006C253.185 51.8067 254.02 51.7582 254.314 51.7582C254.756 51.7582 255.149 51.8552 255.689 51.8552C255.492 51.9036 254.903 52.0975 254.658 52.146C254.412 52.1944 254.412 52.4853 254.609 52.4853C254.854 52.5337 254.952 52.3883 255.198 52.3399C255.296 52.3883 255.198 52.6792 255.296 52.8246C256.867 52.4853 256.965 54.1333 258.634 53.794C257.848 53.1639 257.161 52.1945 256.572 51.8552C258.241 52.0975 259.125 53.5516 260.892 53.6486C260.859 53.5516 260.794 53.3901 260.695 53.1639C261.284 53.1639 261.726 53.6486 261.923 53.6001C261.677 53.8425 261.186 54.0363 260.499 54.1333C260.597 54.3756 261.284 54.4241 261.53 54.4241C261.186 54.7634 260.744 54.9088 259.959 54.7634C259.714 55.0058 259.321 55.5389 258.192 56.266C258.192 56.0721 258.208 55.8944 258.241 55.7328C257.456 56.1691 256.965 56.9931 256.376 57.187C256.572 56.8961 256.67 56.4114 256.818 56.1691C254.805 57.9625 252.891 59.7075 252.154 61.0162C251.369 62.4703 251.075 63.9729 251.222 66.4449C251.32 67.7537 251.86 71.5344 251.958 72.2615C252.105 72.213 252.253 72.116 252.351 72.0676C252.842 74.8304 254.265 78.6596 255.051 79.9199C255.198 79.6291 255.247 79.4836 255.492 79.3382C255.59 80.0653 255.983 80.8893 256.621 81.4225C256.621 80.9378 256.818 80.6469 256.867 80.4531C257.014 80.9862 256.916 82.6343 257.897 83.5552C257.848 83.119 257.996 82.7312 258.143 82.1011C258.29 82.6343 258.339 83.3129 258.585 83.846C258.879 84.4762 259.272 85.1063 259.615 85.2517C259.566 83.943 259.763 83.9914 259.812 83.4583C259.812 83.5552 260.352 84.0399 260.597 85.6879C261.579 84.9609 261.972 82.5373 261.972 82.5373C261.972 82.5373 262.266 82.7797 262.462 83.4583C263.297 82.5858 263.591 81.4225 263.837 80.55C263.935 81.0347 263.984 81.6648 263.886 81.9557ZM248.08 71.4375C248.817 72.4553 250.191 75.7029 250.191 77.9326C251.075 75.7029 249.651 71.292 248.326 68.8685C248.326 69.5956 248.129 69.7894 247.982 70.0803C247.737 67.2689 245.921 65.1847 245.626 63.2458C245.577 63.5851 245.528 63.8275 245.43 64.1183C244.792 63.0035 244.203 61.6948 243.81 60.0952C243.712 60.2406 243.466 60.7254 243.466 61.2585C242.583 58.835 243.417 57.8171 243.712 57.6717C244.399 57.2839 245.184 57.914 245.822 58.5926C246.755 59.6105 247.737 61.6948 250.927 61.7432C251.418 61.7432 251.614 61.6463 251.369 61.5978C248.768 61.1131 248.277 60.0952 246.068 57.7201C244.693 56.266 243.368 55.3935 241.748 57.2839C238.607 60.9192 237.625 63.9729 237.085 66.4934C236.742 67.9475 236.545 70.9527 236.938 72.4553C237.331 72.3099 237.331 72.213 237.331 72.213C237.331 72.213 237.723 76.3815 238.46 77.3994C238.656 76.9631 238.95 75.8483 238.95 74.8789C239.343 76.0907 239.687 76.7693 240.276 77.4479C240.57 76.43 240.57 75.4605 240.423 74.2972C241.061 75.7998 241.552 76.43 241.896 76.6723C242.141 75.9937 242.435 74.9274 242.239 71.5344C242.485 72.7946 242.632 73.8125 242.681 74.5881C242.877 74.7335 243.123 74.9274 243.368 75.0243C243.466 74.685 243.81 74.2003 243.27 69.8864C244.742 74.5396 243.908 75.7998 243.761 76.1391C243.27 75.8483 242.926 75.509 242.73 75.2667C242.779 76.6723 242.485 77.2055 242.288 77.7387C241.748 77.4479 241.405 77.0601 241.061 76.5269C241.11 77.981 240.717 78.8535 240.717 78.8535C240.717 78.8535 239.638 77.6902 239.343 76.7693C239.392 77.3024 238.999 78.9989 238.656 79.2898C237.429 77.7387 237.036 73.2794 237.036 73.2794L236.84 73.4248C236.889 74.4911 237.036 76.1876 237.183 78.078C237.38 80.3077 237.576 82.7797 237.772 85.0093C238.263 90.3412 238.852 95.673 239.588 100.956C239.588 100.956 239.687 101.829 239.834 102.313C239.981 101.78 240.03 99.6476 239.932 98.4843C239.883 98.1935 240.325 97.7087 240.325 96.1092C240.325 95.4791 239.588 87.2875 239.294 84.0884C239.245 83.7006 239.196 82.8281 239.196 82.8281L239.245 83.1674C239.49 84.3792 239.687 85.591 239.883 86.8028C239.981 87.5298 240.128 88.3054 240.227 89.0809C240.57 91.456 240.865 93.8311 240.914 96.2061C240.963 97.7572 240.423 98.145 240.472 98.4843C240.767 100.375 240.521 102.217 240.128 103.283C239.981 103.234 239.834 103.089 239.785 102.992C240.03 104.446 240.374 105.61 240.374 105.61C240.963 104.398 241.257 103.089 241.159 99.8415C241.159 99.5991 241.65 98.8721 241.699 97.1756C241.699 96.6909 241.65 95.0913 241.503 93.1525C241.257 89.6626 240.963 86.1726 240.668 82.7312C240.668 82.5858 240.619 82.1496 240.619 82.1011C240.668 82.2465 240.717 82.3919 240.717 82.5858C241.699 87.0451 242.092 91.6983 242.337 96.2061C242.435 98.2419 241.65 99.793 241.699 100.084C241.797 101.102 241.797 101.053 241.748 101.926C241.699 102.992 241.65 103.138 241.65 103.138C241.994 102.362 243.123 99.6961 242.779 91.359C242.779 91.1652 242.779 90.9713 242.73 90.7289C242.435 84.9124 241.945 81.1317 241.945 81.1317C242.485 82.7312 242.975 86.2211 243.27 90.2927L243.368 90.0988C243.957 88.5477 244.055 86.9967 243.957 85.3971C243.761 82.3434 243.417 79.8714 243.417 79.8714L243.515 80.1138C243.614 80.4531 243.908 81.374 244.203 82.9251C244.399 83.9914 244.595 85.1063 244.644 86.1726V86.6089C245.822 84.8639 245.332 81.4225 244.742 77.8356C245.233 78.9989 246.166 82.198 245.921 84.6216C247.688 82.9736 246.706 79.7745 246.068 76.0422C247.05 78.2719 247.786 80.9378 247.54 82.7312C248.964 80.8893 248.424 78.4658 247.148 73.7156C247.933 74.9758 249.013 77.981 249.062 79.8229C250.093 77.8841 249.013 74.3457 248.08 71.4375ZM249.946 88.16C250.24 87.7237 249.798 87.5783 249.013 88.1115C248.522 88.4023 246.853 89.5171 245.97 90.6805C245.773 90.9713 245.822 91.1167 246.215 90.7774C247.05 89.9534 248.375 88.7416 248.326 89.3233C248.326 89.808 248.375 90.2927 248.571 90.7774L248.964 90.6805L250.093 90.3896C249.7 89.5171 249.602 88.6931 249.946 88.16ZM249.406 93.928C248.964 94.4127 248.571 94.9459 248.571 95.673C248.571 96.1577 248.915 96.4485 249.307 96.4485C249.946 96.4 249.602 95.7214 249.995 96.1092C250.142 96.3031 250.633 95.7214 250.78 95.576C250.486 95.6245 250.093 95.673 250.142 95.2367C250.191 94.9459 250.436 94.7036 250.584 94.4612C250.731 94.2673 251.271 93.2494 251.614 93.3948C251.762 93.4918 251.664 94.4612 251.418 95.0428C250.829 96.2546 250.731 97.0786 251.124 97.321H251.173V97.3695C251.124 97.8057 251.124 98.2904 251.664 98.5812L251.713 98.5328C251.565 98.0965 251.713 97.8542 251.762 97.6603C251.762 97.6118 251.811 97.4664 251.467 97.3695H251.418H252.007C252.253 97.321 252.498 97.2725 252.547 96.8363C252.547 96.6909 252.596 96.5454 252.596 96.3516C252.694 95.673 252.793 95.0428 252.891 94.5581C252.989 94.025 253.136 92.6678 253.136 92.6678L253.431 92.6193C253.578 92.6193 253.823 92.7162 253.971 93.0071C254.02 93.104 254.02 93.2494 253.971 93.4433C254.118 93.3948 254.314 93.2494 254.314 92.9586V92.9101C254.511 92.7647 254.609 92.6193 254.658 92.4254C254.756 91.9407 254.167 91.456 254.118 91.4075C253.774 91.1652 253.872 90.632 254.02 90.1957L254.216 89.6626C254.412 89.8564 254.609 90.0988 254.903 90.2442C255.689 90.7774 256.474 90.6805 256.474 90.6805C256.474 90.6805 256.278 90.2442 256.229 89.711C256.13 88.984 256.179 88.4023 256.179 88.4023L256.769 89.0324C256.769 89.0324 257.112 87.8691 256.916 85.6395C256.67 83.0705 256.081 82.1011 255.983 81.7133C255.787 81.1317 255.443 80.55 255.443 80.55C255.443 80.55 255.394 80.8408 254.952 81.2286C254.461 80.5985 253.578 79.3867 253.333 78.5627C253.185 78.805 252.989 78.9989 252.842 79.1928L252.743 79.2898V79.1928C252.645 78.5627 252.302 78.1265 251.958 77.6902C251.713 77.3994 251.467 77.0601 251.369 76.7693C251.173 77.4479 251.124 78.1749 251.075 78.8535C251.025 79.5321 250.976 80.0653 250.829 80.4531L251.124 80.2592C251.271 80.1622 251.369 80.1138 251.418 80.1138H251.467L251.516 80.2107C251.32 81.0832 251.124 82.1011 251.075 82.6827C250.976 83.5552 251.075 84.3307 251.124 84.7185L251.811 84.3307C251.811 84.3307 251.418 85.591 251.614 87.7237C251.664 88.063 251.614 88.6931 251.565 88.887C251.958 88.8386 252.302 88.6447 252.498 88.4993C252.351 89.0809 252.204 89.5656 252.056 89.7595C251.516 90.4866 250.387 90.6805 249.553 90.8743C248.522 91.1652 247.491 91.359 246.559 91.8438C246.264 91.9892 245.921 92.3285 246.019 92.5708C246.117 92.8132 246.461 92.8616 246.608 92.8616L246.657 93.0071C246.902 93.3464 247.639 93.1525 247.835 93.0555C248.031 92.9586 248.178 92.8132 248.228 92.7647C248.178 92.8132 247.933 92.7162 247.786 92.6678L247.688 92.5224C247.639 92.0861 249.455 92.0376 249.749 92.0376C250.044 92.0376 250.142 92.0861 250.24 92.28C250.387 92.4739 250.486 92.7647 249.406 93.928ZM250.289 100.229C249.946 101.344 249.209 102.992 248.08 104.543C247.54 105.319 246.706 106.143 246.706 106.143C246.706 106.143 246.657 106.288 246.608 106.53L246.46 106.627L247.393 106.143C247.54 106.046 247.688 105.997 247.835 105.9C248.424 105.561 249.111 105.27 249.749 104.979C250.387 103.816 251.173 102.41 251.418 102.071C251.32 102.362 251.173 103.138 250.486 104.689L250.976 104.495C252.007 104.107 252.94 103.768 253.382 103.574C254.118 103.234 254.412 102.992 254.707 102.75L255.001 102.507L254.265 101.78L254.02 101.974C254.02 101.974 253.578 102.362 253.185 102.023C252.842 101.732 251.32 100.035 251.173 99.8899C251.025 99.6961 250.829 99.4052 251.222 98.8721V98.8236C250.731 98.3873 250.682 97.8057 250.682 97.5149C250.486 97.2725 250.387 96.9332 250.436 96.497C250.289 96.5939 250.142 96.6424 249.995 96.5939C249.847 96.7393 249.602 96.8847 249.357 96.8847H249.258C249.013 96.8847 248.768 96.8363 248.571 96.6909C248.375 96.497 248.375 96.5454 248.178 96.2061L248.129 96.1577C247.246 97.0786 246.411 98.2419 245.233 100.084C243.761 102.41 243.417 103.234 243.123 104.107C244.104 104.058 244.644 103.913 245.871 102.604C246.461 102.023 247.982 99.7445 248.964 98.5812C248.129 100.569 247.246 102.071 246.51 103.041C245.675 104.204 244.792 104.931 244.792 104.931C244.792 104.931 244.399 105.173 244.203 106.337C244.841 106.337 246.559 105.416 248.129 103.283C248.669 102.604 249.013 102.12 250.289 100.229ZM260.744 107.694C260.744 108.857 261.726 110.02 261.923 110.214C261.923 110.214 262.266 109.778 262.462 108.615C261.677 108.275 261.137 107.936 260.744 107.694ZM267.42 109.051C269.58 109.342 274.194 109.245 275.863 108.615C275.225 108.13 272.623 106.434 268.598 104.882C267.764 104.543 266.684 104.155 265.948 103.622C265.506 103.283 265.211 103.089 264.769 102.653C263.444 101.441 259.959 97.8542 259.321 97.1756L257.014 99.2598C257.014 99.2598 263.15 105.173 264.72 105.997C266.684 107.064 272.378 108.324 272.378 108.324C272.378 108.324 268.058 107.985 264.72 106.676C262.757 105.9 256.474 99.793 256.474 99.793L254.952 101.199C255.738 102.023 257.407 103.913 260.155 106.094C261.972 107.645 264.279 108.663 267.42 109.051ZM271.74 98.6782C272.721 99.8899 274.243 102.12 274.832 102.701C276.108 104.01 276.648 104.155 277.581 104.204C277.286 103.331 276.943 102.459 275.47 100.132C274.685 98.9205 273.409 96.9332 272.083 95.4791C272.083 95.7214 272.083 95.9153 271.985 96.1577L271.936 96.3031C271.838 96.4485 271.74 96.5939 271.592 96.6909C271.396 96.8363 271.102 96.8847 270.856 96.8847C270.611 96.8363 270.365 96.7393 270.218 96.5939C270.071 96.5939 269.923 96.5454 269.727 96.497C269.776 96.9332 269.678 97.2725 269.482 97.5149C269.482 97.8057 269.433 98.3389 268.991 98.7751L269.04 98.8721C269.384 99.4537 269.236 99.6961 269.089 99.8899C268.942 100.035 267.42 101.732 267.077 102.023C266.684 102.362 266.242 101.974 266.242 101.974L265.997 101.78C265.997 101.78 265.604 102.168 265.309 102.459L265.408 102.556C265.898 102.992 266.487 103.331 267.126 103.622C267.666 103.865 269.285 104.446 270.414 104.882C270.169 104.107 269.874 103.186 269.531 102.265C269.825 102.653 270.611 104.01 271.249 105.222H271.298C272.181 105.61 273.359 106.191 274.194 106.724C274.145 106.434 274.047 106.24 274.047 106.24C274.047 106.24 273.212 105.416 272.672 104.64C271.543 103.041 270.856 101.393 270.463 100.326C271.74 102.217 272.034 102.75 272.525 103.38C274.096 105.513 275.814 106.385 276.452 106.434C276.206 105.27 275.814 104.979 275.814 104.979C275.814 104.979 275.028 104.349 274.194 103.186C274.39 103.477 274.587 103.719 274.145 103.138C273.801 102.701 273.948 102.847 274.145 103.089C273.409 102.12 272.574 100.617 271.74 98.6782ZM270.218 90.3896L271.249 90.632C271.396 90.6805 271.543 90.7289 271.74 90.7289C271.887 90.2442 271.985 89.7595 271.985 89.2748C271.985 88.7416 273.261 89.9049 274.096 90.7289C274.439 91.0682 274.538 90.9228 274.292 90.632C273.458 89.4687 271.74 88.3538 271.249 88.063C270.414 87.5783 270.022 87.6752 270.316 88.1115C270.66 88.7416 270.611 89.5171 270.218 90.3896ZM268.696 80.2107L268.745 80.1138H268.844C268.893 80.1138 268.991 80.1622 269.138 80.2592L269.433 80.4531C269.236 80.0653 269.236 79.4836 269.187 78.8535C269.138 78.1749 269.138 77.4963 268.942 76.8662L268.893 76.7693C268.794 77.1086 268.549 77.3994 268.304 77.6902C267.96 78.1265 267.616 78.6112 267.518 79.1928V79.2898L267.42 79.1928C267.616 79.3382 266.929 78.6112 266.929 78.5627C266.684 79.5321 264.966 81.6164 264.573 82.0526C264.524 82.1011 263.886 83.0705 263.641 85.3971C263.395 87.6268 263.641 88.984 263.641 88.984L264.23 88.3538C264.23 88.3538 264.279 88.984 264.18 89.6626C264.131 90.1957 263.935 90.632 263.935 90.632C263.935 90.632 265.113 90.8259 266.046 89.7595L266.193 90.1957C266.34 90.632 266.438 91.1167 266.095 91.4075C266.046 91.456 265.457 91.9407 265.555 92.4254C265.604 92.5708 265.653 92.7647 265.898 92.9101V92.9586C265.898 93.2494 266.144 93.3948 266.242 93.4433C266.193 93.2009 266.242 93.0555 266.242 93.0071C266.389 92.7162 266.586 92.6193 266.782 92.6193L267.077 92.6678C267.077 92.6678 267.224 94.025 267.322 94.5581C267.42 95.0428 267.567 95.673 267.616 96.3516C267.616 96.497 267.666 96.6424 267.666 96.8363C267.715 97.2725 268.009 97.321 268.255 97.3695H268.844H268.795C268.451 97.4664 268.451 97.6118 268.5 97.6603C268.549 97.8542 268.647 98.0965 268.549 98.5328L268.598 98.5812C269.138 98.2904 269.138 97.8057 269.089 97.3695V97.321H269.138C269.531 97.0786 269.433 96.3031 268.844 95.0428C268.549 94.4612 268.451 93.4918 268.647 93.3948H268.696C268.795 93.3948 268.893 93.3948 269.187 93.7826C269.384 94.0734 269.58 94.2673 269.825 94.6066C270.071 94.8974 270.218 95.1398 270.218 95.3821L270.169 95.576L269.973 95.6245L269.58 95.576C269.727 95.7214 270.218 96.2546 270.365 96.1092C270.709 95.673 270.414 96.3516 271.052 96.4485C271.445 96.4485 271.789 96.2062 271.789 95.673C271.789 95.4791 271.74 95.3821 271.74 95.2367C271.641 94.752 271.298 94.3158 271.102 94.1219L270.954 93.9765C269.874 92.8132 269.973 92.5224 270.022 92.4254C270.12 92.2315 270.218 92.1831 270.513 92.1831C270.954 92.1831 271.396 92.2315 271.445 92.2315C271.887 92.3285 272.623 92.4254 272.574 92.6678L272.476 92.8132C272.329 92.8616 272.083 92.9586 272.034 92.9101C272.083 92.9586 272.23 93.104 272.427 93.2009C272.623 93.2979 273.359 93.4918 273.605 93.1525L273.703 93.0071C273.85 93.0071 274.194 92.9586 274.292 92.7162C274.341 92.4739 274.047 92.1831 273.752 91.9892C273.507 91.8438 272.77 91.5529 272.132 91.4075C271.887 91.359 271.592 91.2621 271.347 91.2136L270.022 90.8743C269.973 90.8743 269.285 90.632 269.04 90.535L268.745 90.3896C268.5 90.2927 268.353 90.1473 268.205 89.9049C268.058 89.711 267.911 89.1778 267.764 88.5962C267.911 88.6931 268.304 88.9355 268.795 89.0324C268.745 88.8386 268.696 88.2084 268.745 87.8691C268.942 85.7364 268.991 84.5246 268.991 84.5246L269.433 84.9609C269.482 84.5731 269.384 83.7006 269.285 82.8281C269.04 82.1011 268.893 81.0832 268.696 80.2107ZM274.096 63.5851C274.292 62.8581 274.292 61.8887 274.194 61.1131C273.85 61.8887 273.458 63.4882 273.556 64.9908C273.703 64.5546 273.949 64.0699 274.096 63.5851ZM272.034 67.9475C272.623 65.9118 272.967 64.7 272.967 63.0035C272.427 63.5851 271.985 65.7663 272.034 67.9475ZM270.12 66.1056C270.856 63.876 270.218 62.7611 269.825 62.5188C269.825 63.5367 270.071 64.0214 270.12 66.1056ZM269.678 75.7029C270.022 71.292 270.807 68.6261 271.396 66.348C269.04 68.917 269.384 74.782 269.678 75.7029ZM280.281 74.2488C280.133 75.3636 280.133 76.333 280.428 77.3994C280.968 76.7208 281.311 76.0422 281.753 74.8304C281.753 75.7998 282.048 76.9147 282.244 77.3509C282.98 76.333 283.373 72.1645 283.373 72.1645C283.373 72.1645 283.373 72.2615 283.766 72.4069C284.158 70.9043 283.962 67.8991 283.618 66.4449C283.078 63.9244 282.048 60.8708 278.955 57.2354C277.335 55.3451 276.01 56.2175 274.636 57.6717C272.427 60.0468 271.985 61.0646 269.334 61.5494C269.089 61.5978 269.285 61.7432 269.776 61.6948C272.918 61.6463 273.899 59.562 274.881 58.5442C275.519 57.8656 276.305 57.2354 276.992 57.6232C277.237 57.7686 278.121 58.738 277.237 61.2101C277.237 60.6284 277.041 60.1922 276.894 60.0468C276.501 61.6463 275.912 62.955 275.274 64.0699C275.176 63.779 275.127 63.5367 275.077 63.1974C274.783 65.1847 272.967 67.2205 272.721 70.0318C272.525 69.741 272.378 69.5471 272.378 68.82C271.003 71.292 269.629 75.7029 270.513 77.9326C270.463 75.7029 271.887 72.4553 272.623 71.4375C271.691 74.3457 270.611 77.8841 271.543 80.0653C271.592 78.2234 272.672 75.2182 273.458 73.9579C272.181 78.7081 271.641 81.1317 273.065 82.9736C272.82 81.1801 273.556 78.4658 274.538 76.2846C273.85 80.0168 272.918 83.2159 274.685 84.8639C274.439 82.4404 275.372 79.1928 275.863 78.078C275.274 81.6648 274.783 85.1063 275.961 86.8512C275.961 85.591 276.206 84.3307 276.452 83.119C276.746 81.5679 277.237 80.0653 277.237 80.0653C277.237 80.0653 276.894 82.5858 276.648 85.591C276.599 86.0757 276.599 86.6089 276.599 87.1421C276.599 87.7722 276.648 88.4023 276.795 89.0324C276.894 89.5656 277.041 90.0988 277.335 90.5835C277.63 86.5604 278.121 83.0705 278.661 81.4225C278.661 81.4225 278.17 85.2032 277.875 91.0197C277.875 91.2136 277.875 91.4075 277.826 91.6499C277.434 99.9869 278.563 102.653 278.955 103.428C278.955 103.428 278.857 103.283 278.857 102.217C278.808 101.296 278.808 101.393 278.906 100.375C278.955 100.084 278.17 98.5328 278.268 96.497C278.317 95.2367 278.415 94.0249 278.513 92.8132C278.612 91.6983 278.71 90.632 278.808 89.6141C278.955 88.6931 279.004 87.7722 279.152 86.8512C279.348 85.494 279.593 84.1853 279.839 82.8281C280.035 81.7618 279.937 82.6827 279.888 82.9736C279.79 84.1853 279.544 86.8028 279.348 89.4687C279.201 91.456 278.759 95.4791 278.857 97.3695C278.955 99.0175 279.446 99.793 279.397 100.035C279.299 103.283 279.642 104.592 280.182 105.803C280.182 105.803 280.526 104.64 280.771 103.186C280.722 103.283 280.624 103.428 280.428 103.477C280.035 102.41 279.79 100.569 280.084 98.6782C280.133 98.3389 279.642 97.9026 279.642 96.4C279.692 94.025 280.035 91.6014 280.33 89.2748C280.428 88.4993 280.526 87.7237 280.673 86.9967C280.771 86.5119 280.82 86.0757 280.919 85.591C281.017 84.8155 281.164 84.0884 281.311 83.3613L281.36 83.022C281.36 83.022 281.36 83.5552 281.262 84.2823C281.017 87.4814 280.281 95.673 280.281 96.3031C280.231 97.9026 280.673 98.3873 280.673 98.6782C280.575 99.8415 280.624 101.974 280.771 102.507C280.919 102.023 281.017 101.15 281.017 101.15C281.017 101.15 281.459 97.8542 281.999 93.104C282.097 92.3769 282.146 91.6499 282.244 90.9228C282.293 90.2442 282.391 89.5171 282.44 88.8386C282.538 88.0145 282.588 87.1421 282.686 86.3181C282.735 85.9303 282.735 85.591 282.784 85.2032C282.98 82.9736 283.226 80.4531 283.373 78.2719C283.373 78.2719 283.667 74.685 283.766 73.5702L283.569 73.4248C283.569 73.4248 283.177 77.8841 281.949 79.4352C281.606 79.1443 281.262 77.4963 281.262 76.9147C281.017 77.7872 279.888 78.9989 279.888 78.9989C279.888 78.9989 279.495 78.1265 279.544 76.6723C279.152 77.2055 278.857 77.5933 278.317 77.8841C278.121 77.3994 277.826 76.8177 277.875 75.4121C277.679 75.6544 277.335 75.9937 276.845 76.2846C276.697 75.9453 275.912 74.685 277.335 70.0318C276.746 74.2972 277.09 74.8304 277.237 75.1697C277.483 75.0728 277.728 74.8789 277.924 74.7335C277.974 73.9579 278.121 72.9401 278.366 71.6798C278.17 75.0728 278.415 76.1391 278.71 76.8177C279.201 76.3815 279.642 75.7514 280.281 74.2488ZM289.852 44.6814C287.545 45.1661 286.122 45.1177 285.238 45.1177C284.649 46.3295 284.207 47.4928 284.207 49.6255C283.275 49.3347 282.784 49.0923 282.293 48.5591C281.655 49.4316 281.262 49.9163 280.575 50.7888C286.613 61.4039 286.613 71.1951 286.711 73.9579C291.374 71.3405 294.368 68.82 294.957 68.3353C294.417 58.4957 292.896 51.0796 289.852 44.6814ZM291.57 104.155C289.263 108.615 286.416 111.378 282.539 113.801C276.845 117.388 270.905 116.516 268.991 115.401L269.187 115.885L269.384 116.37C270.169 118.406 269.629 120.49 266.831 120.829C266.095 120.926 265.26 120.926 264.328 121.363C263.64 121.702 262.904 122.187 262.07 123.011C261.726 123.35 260.99 124.271 260.646 124.998C260.303 124.271 259.566 123.35 259.223 123.011C258.388 122.187 257.652 121.653 256.965 121.363C255.983 120.926 255.198 120.878 254.461 120.829C251.664 120.49 251.173 118.406 251.909 116.37L252.105 115.934L252.302 115.449C250.878 116.273 247.393 116.903 243.319 115.788L242.926 115.692C239.638 114.819 236.742 113.219 234.287 110.941C231.342 108.178 229.722 105.222 229.084 104.107C223.685 93.0555 224.421 76.6239 224.421 74.8789C224.225 55.9267 228.495 45.3116 232.127 40.1736C231.048 38.7195 230.36 37.8955 230.311 37.847C229.968 37.5077 229.33 36.9261 228.004 36.7322C227.661 34.2602 226.728 31.3034 226.728 31.3034C226.728 31.3034 229.231 33.0969 231.588 34.1148C231.391 35.375 231.735 36.1021 232.078 36.5868C232.127 36.6352 232.667 37.3623 233.502 38.4771C235.122 36.4898 236.84 35.0357 239.539 33.4846C240.178 33.0969 240.865 32.7576 241.65 32.4183C241.601 31.4004 241.945 30.431 242.632 29.7524C242.681 29.1707 243.172 28.4436 243.761 28.2013C244.399 28.0559 245.332 28.3467 245.773 28.7345C246.804 28.8799 247.786 29.4131 248.473 30.1886C250.682 29.7039 253.234 29.3646 256.13 29.2192C256.474 27.8135 257.407 26.7956 258.536 26.2624C258.83 25.6808 259.665 25.0507 260.401 25.0022C261.137 25.0507 261.972 25.6323 262.266 26.2624C263.395 26.7956 264.328 27.8135 264.671 29.2192C267.567 29.4131 270.12 29.7524 272.329 30.1886C273.065 29.4131 273.998 28.8799 275.028 28.7345C275.47 28.2982 276.403 28.0074 277.041 28.2013C277.63 28.4436 278.121 29.1707 278.17 29.7524C278.857 30.431 279.201 31.4004 279.152 32.4183C279.888 32.7576 280.575 33.0969 281.262 33.4846C283.962 35.0357 285.827 36.6837 287.398 38.5256C288.38 37.2654 288.969 36.4898 288.969 36.4414C289.312 36.0051 289.607 35.2296 289.46 33.9693C291.816 32.9514 294.319 31.2065 294.319 31.2065C294.319 31.2065 293.386 34.1632 293.043 36.6352C291.767 36.8291 291.128 37.3623 290.736 37.7501C290.687 37.7986 289.901 38.768 288.674 40.416C292.307 45.6024 296.479 56.1206 296.332 74.9274C296.233 76.3815 296.97 93.104 291.57 104.155ZM248.768 39.6405C249.111 39.7859 249.357 39.9313 249.749 40.0767C249.995 39.7859 250.142 39.6405 250.436 39.3012C250.044 39.1557 249.798 39.0103 249.406 38.8649C249.209 39.1073 248.964 39.4466 248.768 39.6405ZM267.469 36.1505C267.42 36.1505 267.175 36.2959 267.027 36.6352C267.175 36.8291 267.42 36.9261 267.813 36.9745H268.009C268.205 36.5383 267.813 36.0051 267.469 36.1505ZM275.716 38.3317C275.568 38.8649 275.127 39.2042 274.881 39.5435C273.458 39.0103 270.316 38.2348 268.598 38.0409C268.156 38.5256 267.42 39.2042 266.684 39.3981C265.604 39.2527 264.917 39.0103 264.18 38.671C264.573 38.7195 264.72 38.671 265.015 38.671C266.095 38.6226 267.027 38.3317 267.715 37.8955C266.193 37.6531 265.849 37.2654 266.586 36.3444C266.929 35.9082 267.469 35.1326 268.255 35.3265C268.893 35.4719 269.04 36.3444 268.942 37.023C270.709 37.2169 272.918 37.847 274.636 38.3802C274.734 37.8955 274.439 37.6531 274.243 37.3138C274.488 37.0715 274.881 36.7322 275.176 36.5383C275.617 36.8291 275.863 37.7986 275.716 38.3317ZM268.844 39.1073C269.089 39.3496 269.285 39.5435 269.58 39.8343C269.973 39.6405 270.12 39.5435 270.562 39.3012C270.267 39.0103 270.12 38.8649 269.825 38.5741C269.482 38.768 269.089 38.9619 268.844 39.1073ZM276.55 38.768C276.206 39.5435 275.912 40.319 275.519 40.9976C275.765 41.0946 276.059 40.9007 276.256 40.7553C277.286 40.1252 278.023 38.4287 278.415 37.4593C278.415 37.4108 277.826 37.5562 277.483 37.7016C276.943 37.9924 276.845 38.1378 276.55 38.768ZM277.041 37.2654C277.875 37.2169 278.612 37.4108 278.955 37.023C278.464 36.8776 277.924 36.7322 277.728 36.4898C277.924 36.2959 278.268 36.5383 278.415 36.6837L278.71 36.3929C278.17 35.9567 277.335 36.199 277.139 36.6837C277.286 36.7807 277.532 36.8291 277.63 36.9261C277.483 36.9745 277.139 37.1684 277.041 37.2654ZM246.411 40.319C246.166 40.2221 245.97 40.1736 245.675 40.0767C245.479 40.3675 245.282 40.7068 245.135 40.9492C245.479 41.0461 245.773 41.1431 246.166 41.2885C246.313 41.0461 246.411 40.9007 246.559 40.7068C246.804 40.7553 247 40.8522 247.295 40.9492C247.491 40.6099 247.589 40.4645 247.835 40.0767C247.442 39.9797 247.197 39.8828 246.755 39.7374C246.608 39.9313 246.51 40.1252 246.411 40.319ZM263.69 35.9082C263.199 35.0842 261.235 35.8112 260.008 36.3444C260.695 36.3444 261.333 36.2959 262.07 36.3444C262.364 36.3444 263.199 36.3444 263.69 36.3929C263.739 36.1505 263.788 36.0536 263.69 35.9082ZM264.524 37.4108C260.401 37.1684 252.253 37.6047 248.277 38.671C248.277 38.671 247.835 37.6531 247.491 37.2654C246.411 36.1505 246.019 37.3623 245.97 37.5077C247.295 37.6047 247.54 38.2833 247.54 38.2833C247.246 38.8649 247 39.0588 246.264 39.5435C246.019 39.6889 245.184 40.2221 244.006 40.319C241.503 40.416 242.19 37.847 243.712 36.8291C243.515 37.0715 242.632 38.4287 243.172 39.1073C243.81 39.8828 246.117 39.2527 246.657 38.5741C246.362 38.2833 245.773 38.1863 244.939 38.2833C244.988 37.8955 245.184 36.8291 246.362 35.8112C246.804 35.9082 248.031 36.5383 248.424 37.6047C252.105 36.6352 258.781 36.3444 259.125 36.3444C259.026 35.7143 258.83 33.3392 258.83 33.1938C258.781 32.806 259.076 32.6121 259.321 32.4667C259.615 32.9514 259.861 33.1453 260.499 33.3877C260.254 33.6785 260.008 33.7755 259.763 34.0178C259.812 34.5025 259.861 35.375 259.861 35.7143C260.45 35.4719 261.284 35.1326 262.315 34.8903C262.659 34.7933 263.15 34.7449 263.444 34.7933C263.788 34.8418 264.23 35.0357 264.426 35.1811C264.573 35.3265 264.819 35.6174 264.819 35.9567C264.819 36.4898 264.671 37.023 264.524 37.4108ZM257.505 49.6255L256.916 49.674L257.308 49.9648L257.505 49.8678V49.6255ZM257.799 49.6255C257.799 49.6255 257.897 49.8194 257.848 50.1587C257.799 50.498 257.652 50.8373 257.112 50.9342C256.572 51.0796 255.983 50.7403 255.983 50.1587C255.983 50.0133 256.032 49.8194 256.081 49.674C255.885 49.674 255.885 49.8194 255.689 50.0617C255.59 50.2071 255.394 50.1587 255.149 50.3525C255.149 50.0133 255.541 49.4801 255.934 49.3347C256.572 49.0438 258.683 48.9954 260.155 49.7224C259.615 49.6255 259.174 49.674 258.683 49.6255C258.094 49.6255 257.799 49.6255 257.799 49.6255ZM263.199 33.3392C262.855 33.0969 262.659 32.9514 262.315 32.7091C262.021 32.903 261.677 33.1938 261.481 33.3392C261.775 33.5816 261.972 33.727 262.315 33.9693C262.659 33.727 262.806 33.5816 263.199 33.3392ZM254.363 50.3525C254.265 50.401 254.167 50.6918 254.511 50.6918C254.805 50.6918 254.854 50.401 254.854 50.401L254.363 50.3525ZM263.493 52.8246C263.444 52.6307 262.953 52.0006 261.972 51.7582C262.266 52.0006 262.413 52.4853 262.512 52.6307C262.315 52.7276 261.775 52.7761 261.579 52.8246C261.923 53.1154 262.61 53.1639 263.493 52.8246ZM261.383 51.0796C260.794 50.401 260.008 50.1587 259.615 50.0617C260.057 50.6434 260.548 51.1281 261.383 51.0796ZM260.843 50.1102C261.137 50.4495 262.168 50.8373 262.708 51.3704C262.659 50.498 261.923 50.0133 260.843 50.1102ZM260.45 62.2764C259.272 63.9729 260.45 65.7663 260.45 65.7663C260.45 65.7179 261.235 63.3913 260.45 62.2764ZM262.413 69.0624C262.413 69.0624 263.739 67.8506 263.837 65.427C263.101 66.6388 262.315 67.3174 262.315 67.3174C262.315 67.3174 261.628 66.8327 261.039 66.1541C260.99 67.7052 262.413 69.0624 262.413 69.0624ZM260.843 58.4957C259.812 59.6105 260.45 60.5315 260.45 60.5315C260.45 60.5315 261.726 59.1743 260.843 58.4957ZM262.315 54.3756C262.659 54.7149 263.739 54.9573 264.328 55.4905C264.23 54.618 263.297 54.0363 262.315 54.3756ZM263.935 57.09C263.935 56.4599 263.739 55.3451 262.266 55.1512C262.168 55.8782 263.444 56.363 263.935 57.09ZM263.346 59.1258C262.659 59.8529 263.297 61.307 263.69 62.5672C264.033 61.9371 264.475 59.8044 263.346 59.1258ZM266.929 62.4218C266.537 64.2153 265.751 64.8454 265.751 64.8454C265.751 64.8454 265.113 64.3607 264.622 63.6821C264.573 65.1362 265.849 66.4934 265.8 66.4934C265.8 66.4934 267.322 65.2816 266.929 62.4218ZM265.015 56.3145C264.868 57.1385 266.193 58.3503 266.193 58.3503C266.193 58.3018 266.34 56.7992 265.015 56.3145ZM267.322 60.0468C267.224 60.9677 268.304 63.1004 268.353 63.2943C268.353 63.1004 268.942 61.3555 267.322 60.0468ZM258.683 71.0497C258.977 70.4196 259.812 69.2563 259.37 67.2689C259.223 68.7715 258.241 69.4017 258.241 69.4017C258.241 69.4017 257.701 69.1108 257.259 68.1899C257.456 70.0318 258.143 70.565 258.683 71.0497ZM257.701 59.8044C256.032 61.0647 256.818 62.228 257.112 62.8581C257.456 61.6948 257.603 61.3555 257.701 59.8044ZM256.867 63.6336C255.738 65.0393 257.505 66.7842 257.456 66.7842C257.456 66.7842 257.603 64.1668 256.867 63.6336ZM252.645 69.1593C252.4 67.7537 252.498 66.7842 251.811 65.5725C251.614 67.0266 252.498 68.917 252.645 69.1593ZM254.118 61.8402C254.609 60.1922 255.541 59.2227 255.885 58.2533C254.167 59.4651 253.823 61.2585 254.118 61.8402ZM254.854 66.1541C254.854 66.8812 254.854 67.5113 254.658 68.2868C254.167 68.1899 253.971 67.8506 253.627 67.5598C253.922 68.4807 255.1 69.5956 255.296 69.8864C255.443 68.5777 255.492 67.0266 254.854 66.1541ZM253.676 69.3047C253.283 70.9527 254.952 72.5523 254.952 72.6008C254.952 72.6008 254.952 70.6134 253.676 69.3047ZM254.167 73.7641C254.756 74.7335 255.198 75.1697 255.64 75.606C254.903 74.5396 254.363 72.5038 253.627 71.9706C253.578 72.2615 253.823 73.1824 254.167 73.7641ZM252.105 64.0214C251.958 63.1974 252.989 62.4703 252.645 61.1131C251.614 62.2764 251.811 63.3428 252.105 64.0214ZM258.143 75.3151C257.947 75.2667 256.916 74.3457 256.621 73.7641C256.768 74.685 258.094 76.5269 258.683 76.9147C258.879 76.5754 259.665 75.0728 258.977 72.6977C258.683 74.1034 258.388 74.8304 258.143 75.3151ZM262.61 71.0982C262.315 72.116 261.873 72.7462 261.137 73.4732C260.843 73.1824 260.499 72.8431 260.057 71.9706C259.91 73.6186 260.843 74.5881 261.383 74.9274C261.726 74.685 262.855 73.1339 262.61 71.0982ZM264.819 75.4605C265.849 74.2003 266.389 72.7946 265.948 71.292C265.015 72.6977 265.015 74.1518 264.819 75.4605ZM262.315 77.6417C262.61 76.9631 263.395 75.6544 263.199 74.2003C262.61 74.782 262.266 76.7693 262.315 77.6417ZM267.715 69.5956C268.156 68.8685 268.844 67.8021 268.304 67.172C268.058 67.8506 267.911 68.6261 267.715 69.5956ZM264.328 71.9706C264.328 71.9706 266.046 70.3226 265.997 68.2868C265.506 69.644 264.328 70.2257 264.328 70.2257C264.328 70.2257 263.69 69.8379 263.395 68.917C263.15 71.0012 264.328 71.9706 264.328 71.9706ZM267.518 67.3174C267.518 67.2689 268.647 65.3786 268.009 64.3607C267.273 64.5061 267.518 67.3174 267.518 67.3174ZM267.469 70.565C266.782 71.4375 266.635 73.4732 266.389 74.1518C266.635 73.9095 267.862 71.0497 267.469 70.565ZM259.763 80.2592C260.106 79.1443 260.057 77.8356 259.566 77.254C259.272 78.3688 259.272 79.3867 259.763 80.2592ZM260.843 83.119C261.186 82.1496 261.186 80.9862 260.794 80.4531C260.45 81.471 260.45 82.3919 260.843 83.119ZM262.266 82.198C262.561 81.471 263.248 80.7439 263.199 78.3688C262.462 79.0959 262.168 81.2771 262.266 82.198ZM257.848 80.4531C257.701 79.9199 257.407 78.1265 256.67 77.3509C256.376 78.6112 257.259 79.8714 257.848 80.4531ZM266.487 82.0041C266.487 82.0041 266.487 81.471 266.291 81.2771C266.144 81.9072 265.26 83.3129 265.457 84.9124C265.849 83.5067 266.978 83.2159 267.273 81.8587C267.518 82.0041 267.715 82.1011 267.96 82.1011C267.813 81.5679 267.42 81.0347 267.322 79.9684C267.224 80.3561 267.076 81.4225 266.487 82.0041ZM254.805 84.8155C255.001 83.2159 254.118 81.8587 253.971 81.1801C253.774 81.374 253.774 81.9072 253.774 81.9072C253.185 81.3255 253.038 80.2107 252.94 79.8714C252.793 80.9378 252.4 81.5194 252.302 82.0041C252.547 82.0041 252.743 81.9072 252.989 81.7618C253.283 83.119 254.363 83.4098 254.805 84.8155ZM246.019 69.9348C246.019 69.9348 245.479 69.7894 245.184 69.4017C245.43 70.5165 246.46 71.0012 246.46 71.0012C246.46 71.0012 247.344 68.9654 245.381 66.0572C246.411 69.1593 246.019 69.9348 246.019 69.9348ZM244.841 72.9885C244.841 72.9885 244.35 72.7946 244.055 72.4069C244.203 73.2309 244.497 73.5702 245.282 74.1034C245.675 72.8916 245.921 71.9222 244.153 68.3353C245.332 71.8252 244.841 72.9885 244.841 72.9885ZM237.674 71.292C237.674 71.292 237.183 70.5165 237.085 68.4807C236.643 70.6619 237.478 71.9706 237.478 71.9706C237.478 71.9706 238.067 71.5829 238.018 70.9527C237.969 71.0982 237.674 71.292 237.674 71.292ZM238.754 70.2257C238.754 70.2257 238.214 69.4017 238.018 67.0751C237.625 69.5956 238.656 71.0012 238.656 71.0012C238.656 71.0012 239.294 70.565 239.245 69.8379C239.147 70.0318 238.754 70.2257 238.754 70.2257ZM243.515 64.0214C243.024 63.4882 242.288 62.7127 241.552 59.9013C241.65 62.2764 242.877 64.5061 243.761 65.2816C244.203 64.7 244.252 62.9065 243.663 61.5978C243.614 61.5978 243.712 63.052 243.515 64.0214ZM242.239 66.0087C241.797 65.427 241.012 64.2153 240.521 61.3555C240.374 63.7306 241.552 66.2995 242.337 67.1235C242.828 66.5419 242.975 65.427 242.485 64.1183C242.485 64.1183 242.583 65.0393 242.239 66.0087ZM241.061 67.5113C240.668 66.9296 240.128 66.1541 239.638 62.6642C239.539 65.8148 240.374 67.6567 241.11 68.5777C241.65 68.0445 241.748 67.0751 241.601 66.4449C241.601 66.4449 241.356 67.2689 241.061 67.5113ZM239.883 68.9654C239.539 68.4322 239.294 67.8021 238.999 64.7C238.803 67.5113 239.245 69.2078 239.883 70.0318C240.374 69.5956 240.521 68.7231 240.423 68.1414C240.423 68.1414 240.178 68.82 239.883 68.9654ZM282.588 70.8558C282.588 71.4859 283.128 71.8737 283.128 71.8737C283.128 71.8737 283.962 70.565 283.52 68.3838C283.422 70.4196 282.931 71.1951 282.931 71.1951C282.931 71.1951 282.637 71.0012 282.588 70.8558ZM281.41 69.7894C281.36 70.5165 281.999 70.9527 281.999 70.9527C281.999 70.9527 283.029 69.4986 282.637 67.0266C282.44 69.3532 281.9 70.1772 281.9 70.1772C281.9 70.1772 281.459 69.9348 281.41 69.7894ZM277.139 63.9244C276.894 62.955 277.041 61.5009 277.041 61.5009C276.452 62.8096 276.501 64.5546 276.943 65.1847C277.826 64.4091 279.053 62.1795 279.152 59.8044C278.366 62.6157 277.63 63.3913 277.139 63.9244ZM278.366 65.9118C278.023 64.9423 278.121 64.0214 278.121 64.0214C277.63 65.3786 277.777 66.4934 278.268 67.0266C279.053 66.2026 280.231 63.6336 280.084 61.2585C279.642 64.1183 278.808 65.3301 278.366 65.9118ZM281.017 62.5672C280.526 66.0087 279.986 66.8327 279.593 67.4144C279.299 67.2205 279.053 66.348 279.053 66.348C278.906 66.9781 279.004 67.9475 279.544 68.4807C280.281 67.5598 281.115 65.7179 281.017 62.5672ZM281.655 64.603C281.36 67.7052 281.066 68.3353 280.771 68.8685C280.477 68.6746 280.281 68.0445 280.281 68.0445C280.182 68.6261 280.33 69.4501 280.821 69.9348C281.41 69.1108 281.851 67.4144 281.655 64.603ZM274.636 69.8379C274.636 69.8379 274.194 69.0624 275.274 65.9602C273.31 68.8685 274.194 70.9043 274.194 70.9043C274.194 70.9043 275.225 70.4196 275.47 69.3047C275.176 69.6925 274.636 69.8379 274.636 69.8379ZM276.55 72.3099C276.403 73.1339 276.108 73.4732 275.323 74.0064C274.93 72.7946 274.685 71.8252 276.452 68.2384C275.274 71.7767 275.765 72.9401 275.765 72.9401C275.765 72.9401 276.256 72.6977 276.55 72.3099Z" fill="black"/>
<path d="M7.4375 84.7559C9.8005 84.7559 10.9824 85.8409 10.9824 88.0107V88.5527H9.43652C9.43647 86.9747 8.75492 86.1855 7.3916 86.1855C6.61912 86.1856 6.02806 86.4322 5.70996 86.9746C5.39184 87.5171 5.20996 88.1587 5.20996 88.9971V93.3857C5.20996 94.7666 5.3918 95.6548 5.80078 96.0986C6.20977 96.5424 6.71004 96.7392 7.30078 96.7393C8.2549 96.7393 8.98204 96.5423 9.43652 96.1973V92.3506H7.20996V90.9697H10.9365V97.2324C9.89136 97.8735 8.70991 98.1699 7.34668 98.1699C6.11965 98.1699 5.16501 97.7749 4.57422 97.0352C3.93803 96.2954 3.66504 95.0131 3.66504 93.1885V88.9971C3.66504 86.186 4.93798 84.7559 7.4375 84.7559ZM18.2988 84.7559C19.5034 84.7559 20.3959 85.1532 21.0205 85.8984C21.645 86.6437 21.957 87.6869 21.957 88.9785V93.251C21.957 94.9402 21.6444 96.1826 21.0645 96.9775C20.4844 97.7722 19.5478 98.1699 18.2988 98.1699C16.9604 98.1699 16.0233 97.7723 15.4434 96.9277C14.908 96.1825 14.6406 94.9403 14.6406 93.3008V89.0283C14.6406 87.687 14.9527 86.6437 15.5771 85.8984C16.2017 85.1532 17.0942 84.7559 18.2988 84.7559ZM28.709 96.7627L31.4209 85.9756H32.9326L29.5537 98.1699H27.7754L24.3965 85.9756H25.9971L28.709 96.7627ZM41.3799 87.335H36.873V91.2285H41.0264V92.5889H36.873V96.8096H41.4688V98.1699H35.3711V85.9756H41.3799V87.335ZM48.0811 85.9756C49.0191 85.9756 49.7233 86.2565 50.2393 86.7725C50.7551 87.2883 51.0361 88.0387 51.0361 89.0234C51.0361 90.5712 50.2859 91.5095 48.7383 91.8379C49.3948 91.8848 49.8641 92.1199 50.1924 92.4951C50.5205 92.8704 50.708 93.4803 50.7549 94.418C50.8018 96.0125 50.9422 97.2319 51.2236 98.1699H49.582C49.4413 97.9354 49.3008 97.4193 49.2539 96.5752C49.207 95.7779 49.1602 94.9331 49.1133 94.1357C49.0662 93.1042 48.4565 92.542 47.3311 92.542H45.502V98.123H43.9072V85.9756H48.0811ZM60.7686 96.4814V85.9756H62.1992V98.1699H60.0059L55.0938 87.5234V98.1699H53.6631V85.9756H55.9043L60.7686 96.4814ZM71.3223 96.2471L74.3486 85.9756H76.833V98.1699H75.2969V87.3818L72 98.1699H70.5996L67.2578 87.2881V98.1699H65.8574V85.9756H68.2969L71.3223 96.2471ZM86.5 87.335H82.0049V91.2285H86.1885V92.5889H82.0049V96.8096H86.5889V98.1699H80.4912V85.9756H86.5V87.335ZM96.1416 96.4814V85.9756H97.5635V98.1699H95.3828L90.4502 87.5234V98.1699H89.0273V85.9756H91.3037L96.1416 96.4814ZM107.319 87.335H104.419V98.1699H102.946V87.335H100.002V85.9756H107.319V87.335ZM117.685 84.7559C119.09 84.7559 120.131 85.1532 120.859 85.8984C121.588 86.6437 121.952 87.6868 121.952 88.9785V93.251C121.952 94.9401 121.589 96.1826 120.912 96.9775C120.235 97.7724 119.142 98.1699 117.685 98.1699C116.123 98.1699 115.03 97.7722 114.354 96.9277C113.729 96.1825 113.416 94.9403 113.416 93.3008V89.0283C113.416 87.6869 113.781 86.6437 114.51 85.8984C115.238 85.1532 116.279 84.7559 117.685 84.7559ZM130.489 87.335H125.986V91.2285H130.255V92.5889H125.986V98.1699H124.392V85.9756H130.489V87.335ZM145.122 98.1699H143.311L142.428 95.2617H137.736L136.854 98.1699H135.367L139.176 85.9756H141.174L145.122 98.1699ZM159.087 93.6943C159.087 94.8356 159.295 95.6119 159.659 96.1143C160.076 96.571 160.7 96.8457 161.533 96.8457C162.418 96.8457 163.043 96.6168 163.459 96.1602C163.875 95.7034 164.084 94.8811 164.084 93.7393V86.0664H165.854V93.6025C165.854 95.2466 165.489 96.3884 164.761 97.1191C164.032 97.8499 162.99 98.1699 161.585 98.1699C160.18 98.1698 159.035 97.8042 158.358 97.1191C157.682 96.434 157.317 95.2467 157.317 93.6025V85.9756H159.087V93.6943ZM176.115 85.9756C177.572 85.9756 178.666 86.3502 179.395 87.1475C180.123 87.9448 180.487 89.446 180.487 91.791C180.487 94.5579 180.071 96.2934 179.238 97.0439C178.405 97.7944 177.156 98.1699 175.49 98.1699H171.951V85.9756H176.115ZM184.501 91.2285H188.668V85.9756H190.243V98.1699H188.668V92.5889H184.501V98.1699H182.926V85.9756H184.501V91.2285ZM202.438 98.1699H200.719L199.836 95.2617H195.144L194.261 98.1699H192.682L196.491 85.9756H198.488L202.438 98.1699ZM217.07 98.1699H215.852V85.9756H217.07V98.1699ZM150.87 85.9756C151.963 85.9756 152.848 86.2567 153.473 86.7725C154.097 87.2883 154.462 87.9918 154.462 88.8828C154.462 90.5244 153.577 91.5096 151.859 91.7441C153.889 91.8848 154.878 92.87 154.878 94.6992C154.878 95.8717 154.514 96.7155 153.837 97.2783C153.16 97.8411 152.224 98.123 150.975 98.123H146.342V85.9756H150.87ZM208.758 85.9756C209.695 85.9756 210.453 86.2566 210.988 86.7725C211.524 87.2883 211.836 87.9918 211.836 88.8828C211.836 90.5243 211.078 91.5096 209.605 91.7441C211.345 91.8849 212.192 92.8701 212.192 94.6992C212.192 95.8715 211.881 96.7155 211.301 97.2783C210.721 97.8411 209.917 98.123 208.847 98.123H204.876V85.9756H208.758ZM18.2539 86.1963C16.8711 86.1964 16.1572 87.1406 16.1572 89.0283V93.4502C16.1573 94.5927 16.2913 95.4371 16.6035 96.0332C16.9158 96.5797 17.4512 96.8779 18.2988 96.8779C19.0573 96.8779 19.593 96.6295 19.9053 96.083C20.2621 95.5862 20.3955 94.6919 20.3955 93.4004V88.9287C20.3955 88.0345 20.2169 87.3387 19.8154 86.8916C19.414 86.4447 18.923 86.1963 18.2539 86.1963ZM117.633 86.1963C116.019 86.1963 115.187 87.1404 115.187 89.0283V93.4502C115.187 94.5927 115.343 95.4371 115.707 96.0332C116.071 96.5796 116.696 96.8779 117.685 96.8779C118.569 96.8779 119.194 96.6295 119.559 96.083C119.975 95.5862 120.131 94.6919 120.131 93.4004V88.9287C120.131 88.0345 119.923 87.3387 119.454 86.8916C118.986 86.4447 118.413 86.1964 117.633 86.1963ZM148.111 96.8096H150.61C151.339 96.8095 151.911 96.6222 152.38 96.2471C152.848 95.8719 153.057 95.3558 153.057 94.7461C153.057 93.9957 152.848 93.4328 152.38 93.0576C151.911 92.6824 151.131 92.4952 150.038 92.4951H148.111V96.8096ZM173.721 96.8096H175.49C176.687 96.8096 177.52 96.5283 177.988 96.0127C178.457 95.4968 178.718 94.5583 178.718 93.292V90.5713C178.718 89.3991 178.509 88.5549 178.041 88.0859C177.573 87.57 176.947 87.335 176.062 87.335H173.721V96.8096ZM206.349 96.8096H208.534C209.159 96.8096 209.65 96.6223 210.052 96.2471C210.453 95.8719 210.631 95.3557 210.631 94.7461C210.631 93.9958 210.453 93.4328 210.052 93.0576C209.65 92.6824 208.981 92.4952 208.044 92.4951H206.349V96.8096ZM138.2 93.8545H142.057L140.059 87.335L138.2 93.8545ZM195.562 93.8545H199.418L197.467 87.335L195.562 93.8545ZM45.502 91.2285H47.7998C48.3157 91.2285 48.7381 91.0403 49.0195 90.665C49.3008 90.29 49.4882 89.8213 49.4883 89.2119C49.4883 88.696 49.3478 88.2736 49.0664 87.8984C48.785 87.5232 48.4095 87.335 47.8467 87.335H45.502V91.2285ZM148.111 91.0879H150.61C151.963 91.0878 152.64 90.4311 152.641 89.165C152.641 88.6022 152.432 88.133 152.067 87.8047C151.703 87.4764 151.183 87.335 150.559 87.335H148.111V91.0879ZM206.393 91.0879H208.534C209.694 91.0879 210.274 90.4311 210.274 89.165C210.274 88.6022 210.096 88.133 209.783 87.8047C209.471 87.4765 209.025 87.335 208.49 87.335H206.393V91.0879ZM6.41992 76.6836C6.72574 76.6837 6.98066 76.7778 7.18457 76.9658C7.38845 77.2009 7.49023 77.4359 7.49023 77.6709C7.49021 77.9529 7.38849 78.1879 7.18457 78.376C6.98066 78.564 6.72574 78.6581 6.41992 78.6582C6.1139 78.6582 5.85831 78.5641 5.6543 78.376C5.4504 78.1879 5.34866 77.9529 5.34863 77.6709C5.34863 77.3889 5.45044 77.1539 5.6543 76.9658C5.85831 76.7777 6.1139 76.6836 6.41992 76.6836ZM9.93848 76.6836C10.2445 76.6836 10.5001 76.7777 10.7041 76.9658C10.9079 77.2008 11.0098 77.4359 11.0098 77.6709C11.0097 77.9529 10.9079 78.1879 10.7041 78.376C10.5001 78.5641 10.2445 78.6582 9.93848 78.6582C9.63257 78.6581 9.37779 78.564 9.17383 78.376C8.96984 78.1879 8.86721 77.953 8.86719 77.6709C8.86719 77.3888 8.96988 77.1539 9.17383 76.9658C9.37779 76.7778 9.63257 76.6836 9.93848 76.6836ZM71.8867 69.2764H72.2549C72.4377 68.9789 72.6631 68.9023 72.9326 68.9023H93.9053V71.3418H72.9326C72.6534 71.3418 72.4206 71.1785 72.2344 70.9346C72.2218 70.9126 72.2109 70.8904 72.1992 70.8691H71.8867V71.665H71.9346C71.9346 72.4116 71.8864 73.1088 71.791 73.8057C71.6956 74.5022 71.5048 75.0991 71.2188 75.6465C70.9326 76.194 70.5509 76.593 70.0264 76.9414C69.5019 77.2896 68.8345 77.4384 67.9766 77.4385V75.8457C68.5963 75.8456 69.0256 75.697 69.3594 75.4482C69.6932 75.1994 69.9312 74.8503 70.0742 74.4023C70.2173 73.9544 70.3127 73.4566 70.3604 72.9092C70.408 72.3617 70.4082 71.7642 70.4082 71.167V70.8193H69.8838C68.1671 70.8193 66.8797 70.4702 65.9736 69.7236C65.0676 68.977 64.6377 68.0315 64.6377 66.8369C64.6377 65.991 64.8284 65.1947 65.1621 64.4482C65.4959 63.7017 66.0209 63.0543 66.6885 62.457C67.3561 61.8598 68.1192 61.4119 68.9775 61.0635C69.8836 60.7151 70.8376 60.4658 71.8867 60.3662V69.2764ZM172.918 69.2764H173.471C173.653 68.9791 173.878 68.9023 174.147 68.9023H184.146V71.3418H174.147C173.868 71.3418 173.635 71.1785 173.449 70.9346C173.437 70.9126 173.426 70.8904 173.414 70.8691H172.918V71.665H172.973C172.973 72.4116 172.919 73.1088 172.81 73.8057C172.701 74.5022 172.482 75.0991 172.155 75.6465C171.828 76.194 171.392 76.593 170.793 76.9414C170.193 77.2898 169.43 77.4385 168.449 77.4385V75.8457C169.157 75.8457 169.648 75.6969 170.029 75.4482C170.411 75.1994 170.684 74.8503 170.848 74.4023C171.011 73.9545 171.119 73.4565 171.174 72.9092C171.228 72.3617 171.229 71.7642 171.229 71.167V70.8193H170.629C168.667 70.8193 167.196 70.4702 166.16 69.7236C165.125 68.977 164.634 68.0314 164.634 66.8369C164.634 65.9909 164.852 65.1947 165.233 64.4482C165.615 63.7017 166.215 63.0543 166.978 62.457C167.741 61.8598 168.613 61.4119 169.594 61.0635C170.629 60.7151 171.719 60.4658 172.918 60.3662V69.2764ZM16.8652 69.2236H18.2773V61.5859H19.6113V69.1738H20.7373V70.7412H17.0791V70.7588H15.6006L12.6934 62.2002C12.2854 62.3413 11.9281 62.5296 11.6221 62.7646C11.316 62.9998 11.0607 63.2822 10.8057 63.6113C10.6018 63.9404 10.4487 64.2696 10.3467 64.5986C10.2447 64.9747 10.1934 65.3038 10.1934 65.6328C10.1934 66.4322 10.4487 67.1377 11.0098 67.749C11.5708 68.3603 12.2342 68.9243 12.9482 69.3945C13.1522 69.4886 13.3052 69.6297 13.4072 69.6768L13.6621 69.959L14.0703 70.5703C14.0703 70.9935 13.9677 71.5111 13.7637 72.0283C13.5597 72.5455 13.2538 73.0631 12.7949 73.5332C12.3359 74.0033 11.7745 74.4258 11.0605 74.7549C10.3465 75.084 9.42826 75.2256 8.4082 75.2256C7.8983 75.2255 7.38804 75.1313 6.82715 74.9902C6.26642 74.8492 5.75668 74.5672 5.29785 74.2383C4.83884 73.9091 4.43004 73.486 4.12402 72.9688C3.81802 72.4515 3.66506 71.84 3.66504 71.1348V69.3008H5.29785V71.2285C5.29785 71.6517 5.3995 72.0283 5.60352 72.3574C5.80743 72.6864 6.06237 72.9682 6.36816 73.1562C6.67419 73.3443 7.03164 73.5329 7.38867 73.627C7.74549 73.7209 8.10232 73.7675 8.4082 73.7676C9.22418 73.7676 9.88744 73.6735 10.3975 73.4385C10.9075 73.2034 11.3161 72.9688 11.6221 72.6396C11.928 72.3105 12.1323 72.0283 12.2344 71.6992C12.3364 71.3701 12.4383 71.1344 12.4893 70.9463L12.3867 70.8525C12.0807 70.6645 11.7234 70.4297 11.3154 70.1006C10.9074 69.8185 10.4998 69.4417 10.0918 69.0186C9.68376 68.5953 9.37731 68.1248 9.07129 67.5605C8.81638 66.9964 8.66406 66.3849 8.66406 65.6797C8.66409 65.0215 8.76574 64.41 8.96973 63.7988C9.17374 63.1877 9.53052 62.6703 9.93848 62.2002C10.3975 61.73 10.9082 61.3066 11.5713 61.0244C12.2342 60.6954 12.9993 60.5072 13.8662 60.3662L16.8652 69.2236ZM18.9443 72.9443C19.1944 72.9443 19.4036 73.0415 19.5703 73.2373C19.737 73.4331 19.8203 73.6781 19.8203 73.9717C19.8203 74.2653 19.7369 74.5103 19.5703 74.7061C19.4035 74.9019 19.1945 75 18.9443 75C18.6944 74.9999 18.5277 74.9018 18.3193 74.7061C18.1527 74.5103 18.0693 74.2653 18.0693 73.9717C18.0694 73.6781 18.1526 73.4331 18.3193 73.2373C18.486 73.0417 18.6944 72.9444 18.9443 72.9443ZM107.449 72.9443C107.76 72.9444 108.02 73.0416 108.228 73.2373C108.435 73.4331 108.539 73.6781 108.539 73.9717C108.539 74.2653 108.435 74.5103 108.228 74.7061C108.02 74.9018 107.76 74.9999 107.449 75C107.138 75 106.93 74.9018 106.671 74.7061C106.463 74.5102 106.359 74.2654 106.359 73.9717C106.359 73.6781 106.463 73.4331 106.671 73.2373C106.878 73.0417 107.138 72.9443 107.449 72.9443ZM47.5654 71.3418H21.7148C21.4357 71.3417 21.2027 71.1784 21.0166 70.9346C20.8306 70.6096 20.7373 70.3658 20.7373 70.1221C20.7373 69.8782 20.8304 69.5525 21.0166 69.3086C21.2027 68.9837 21.4357 68.9024 21.7148 68.9023H47.5654V71.3418ZM51.4707 66.3535C51.8471 65.7609 52.3182 65.1684 52.8828 64.5264C53.4474 63.9337 54.1062 63.3409 54.9531 62.8965C55.753 62.4027 56.6942 62.0078 57.7764 61.6621C58.8586 61.3658 60.0818 61.168 61.4463 61.168H62.1992V71.3418H48.5537V71.292C48.2714 71.292 48.0359 71.1931 47.8477 71.0449C47.6598 70.8477 47.5656 70.6997 47.5654 70.5518C47.5654 70.4037 47.6596 70.2058 47.8477 70.0576C48.0359 69.8601 48.2714 69.8105 48.5537 69.8105H49.9648V55.4883H51.4707V66.3535ZM108.331 70.7412H104.881V71.3418H94.8828C94.6035 71.3418 94.3708 71.1785 94.1846 70.9346C93.9985 70.6096 93.9053 70.3659 93.9053 70.1221C93.9053 69.8782 93.9984 69.5525 94.1846 69.3086C94.3707 68.9837 94.6037 68.9023 94.8828 68.9023H104.881V69.2236H106.671V61.5859H108.331V70.7412ZM112.212 71.3418H110.835V56.5332H112.212V71.3418ZM163.415 71.3418H133.905C133.626 71.3417 133.393 71.1784 133.207 70.9346C133.026 70.6174 132.933 70.3776 132.929 70.1396V71.3418H127.809C127.575 71.3418 127.375 71.2273 127.207 71.0479H126.893C126.41 71.0478 125.977 70.901 125.688 70.5586C125.398 70.2161 125.205 69.7269 125.205 69.0908L125.156 62.5811C124.819 62.7768 124.384 62.973 123.902 63.2666C123.42 63.5113 122.987 63.8538 122.553 64.2451C122.119 64.6366 121.781 65.077 121.491 65.5664C121.202 66.0557 121.058 66.6432 121.058 67.2793C121.058 68.1602 121.299 68.7482 121.829 69.0908C122.36 69.4333 123.18 69.6775 124.337 69.7754L124.24 71.3418C123.228 71.2928 122.456 71.0972 121.829 70.8525C121.202 70.5589 120.719 70.2156 120.382 69.873C120.044 69.4817 119.803 69.0898 119.707 68.6006C119.611 68.1602 119.514 67.7196 119.514 67.2793C119.514 66.2029 119.803 65.2243 120.382 64.4414C120.961 63.6583 121.637 62.973 122.408 62.3857C123.18 61.8475 123.951 61.407 124.771 61.0645C125.59 60.7219 126.218 60.5257 126.7 60.3789V69.041H126.748C126.748 69.2992 126.823 69.4434 127.005 69.4746C127.036 69.4169 127.071 69.3605 127.11 69.3086C127.296 68.9837 127.529 68.9023 127.809 68.9023H132.929V70.1006C132.934 69.8593 133.026 69.5454 133.207 69.3086C133.393 68.9837 133.626 68.9024 133.905 68.9023H154.878V69.7432H156.928C156.621 69.3702 156.366 68.9439 156.162 68.4111C155.958 67.8784 155.855 67.2923 155.855 66.4932C155.855 65.3745 156.162 64.4157 156.774 63.6699C157.387 62.924 158.103 62.2842 158.92 61.8047C159.737 61.3252 160.555 61.0061 161.423 60.793C162.291 60.5266 162.955 60.3662 163.415 60.3662V71.3418ZM204.866 58.2715H203.293V56.8525C202.9 57.0552 202.457 57.3593 201.916 57.7139C201.424 58.0684 200.883 58.4231 200.392 58.8789C199.851 59.3348 199.359 59.7913 198.916 60.2979C198.424 60.8044 198.08 61.3619 197.785 61.9697C198.769 62.375 199.703 62.7804 200.49 63.2363C201.277 63.6922 201.965 64.1988 202.604 64.8066C203.194 65.4145 203.735 66.1241 204.178 66.9346C204.571 67.6438 204.915 68.5556 205.21 69.6699H205.921C205.928 69.6698 205.936 69.6689 205.943 69.6689H214.073C213.87 69.2509 213.717 68.6763 213.615 67.9971C213.514 67.3177 213.412 66.4286 213.361 65.3311C213.311 64.5472 213.158 63.92 213.006 63.502C212.803 63.0317 212.6 62.7178 212.346 62.5088C212.092 62.2997 211.786 62.1431 211.481 62.0908C211.177 62.0386 210.871 61.9863 210.566 61.9863C209.855 61.9864 209.093 62.248 208.331 62.7705L207.366 61.4639C207.773 61.1504 208.229 60.8887 208.788 60.6797C209.347 60.4706 209.958 60.3662 210.618 60.3662C211.99 60.3663 213.006 60.7846 213.717 61.5684C214.428 62.4045 214.886 63.6065 215.038 65.2266C215.14 66.6897 215.292 67.6829 215.394 68.3623C215.495 68.9895 215.801 69.3559 216.207 69.5127L217.07 69.7734L217.02 71.3418H205.943V71.291H203.981C203.883 70.6831 203.735 70.0245 203.489 69.2646C203.243 68.5047 202.948 67.7952 202.555 67.0859C202.653 67.4912 202.653 67.8967 202.653 68.4033C202.653 68.8086 202.604 69.2139 202.555 69.6191C202.506 70.0244 202.358 70.6326 202.211 71.3418H185.123C184.844 71.3418 184.611 71.1785 184.425 70.9346C184.239 70.6095 184.146 70.3659 184.146 70.1221C184.146 69.8782 184.239 69.5525 184.425 69.3086C184.611 68.9838 184.844 68.9023 185.123 68.9023H195.121V69.7715H200.933C201.031 69.3662 201.03 68.91 201.03 68.4541C201.03 67.4916 200.834 66.6812 200.44 66.0732C200.047 65.4653 199.605 64.958 199.015 64.5527C198.474 64.1982 197.883 63.895 197.244 63.6924C196.605 63.4898 196.064 63.3884 195.572 63.2871L195.818 62.5264C196.163 61.3613 196.753 60.2975 197.589 59.3857C198.376 58.4739 199.261 57.6633 200.195 56.9541C201.129 56.245 202.015 55.6873 202.851 55.2314C203.735 54.7757 204.375 54.4721 204.866 54.2695V58.2715ZM60.6465 62.748C58.9055 62.8962 57.4934 63.2912 56.4111 63.8838C55.282 64.4764 54.3882 65.1187 53.7295 65.8594C53.0708 66.6001 52.553 67.2915 52.2236 68.0322C51.8944 68.7727 51.6596 69.3164 51.5654 69.7607H60.6934V62.748H60.6465ZM161.831 62.3906C161.474 62.4971 161.014 62.6571 160.555 62.8701C160.044 63.0832 159.584 63.3503 159.124 63.6699C158.664 63.9896 158.306 64.3624 158 64.8418C157.694 65.3212 157.541 65.8012 157.541 66.4404C157.541 67.6654 157.898 68.4644 158.664 68.8906C159.43 69.3168 160.452 69.5297 161.831 69.583V62.3906ZM70.4082 62.2578C69.1207 62.6062 68.0716 63.2036 67.3086 64C66.5456 64.7964 66.1641 65.7419 66.1641 66.7871C66.1641 67.5337 66.4502 68.1809 67.0225 68.6289C67.5947 69.0768 68.5484 69.2763 69.7881 69.2764H70.4082V62.2578ZM171.283 62.2578C169.812 62.6062 168.612 63.2036 167.74 64C166.868 64.7963 166.433 65.742 166.433 66.7871C166.433 67.5337 166.76 68.1809 167.414 68.6289C168.068 69.0767 169.158 69.2764 170.575 69.2764H171.283V62.2578ZM54.624 57.8594C54.906 57.8595 55.141 57.958 55.3291 58.1553C55.5173 58.3528 55.6113 58.6002 55.6113 58.8965C55.6113 59.1927 55.5172 59.4392 55.3291 59.6367C55.141 59.8342 54.9061 59.9335 54.624 59.9336C54.3417 59.9336 54.1062 59.8343 53.918 59.6367C53.7299 59.4392 53.6358 59.1927 53.6357 58.8965C53.6357 58.6002 53.7298 58.3528 53.918 58.1553C54.1062 57.9578 54.3418 57.8594 54.624 57.8594ZM122.359 56.708C122.649 56.708 122.89 56.8062 123.083 57.002C123.276 57.2466 123.372 57.4427 123.372 57.7363C123.372 58.0297 123.276 58.2741 123.083 58.4697C122.89 58.6655 122.649 58.7637 122.359 58.7637C122.07 58.7636 121.829 58.6655 121.636 58.4697C121.443 58.2741 121.347 58.0296 121.347 57.7363C121.347 57.4428 121.443 57.1977 121.636 57.002C121.829 56.8062 122.07 56.708 122.359 56.708ZM125.688 56.708C125.977 56.7081 126.217 56.8064 126.41 57.002C126.603 57.2467 126.7 57.4427 126.7 57.7363C126.7 58.0298 126.603 58.274 126.41 58.4697C126.217 58.6654 125.977 58.7636 125.688 58.7637C125.398 58.7637 125.157 58.6655 124.964 58.4697C124.771 58.2741 124.675 58.0297 124.675 57.7363C124.675 57.4427 124.771 57.1977 124.964 57.002C125.157 56.8062 125.398 56.708 125.688 56.708ZM111.997 51.8301C112.47 51.8301 112.944 51.9306 113.417 52.1807L113.158 52.9307C112.771 52.7308 112.384 52.6309 112.04 52.6309C111.825 52.6309 111.61 52.6804 111.48 52.7803C111.351 52.8803 111.265 53.0809 111.265 53.3311C111.265 53.7313 111.394 53.9815 111.652 54.1816C111.911 54.3817 112.255 54.4316 112.643 54.4316H113.288V55.2324H109.759V54.4316H110.878C110.792 54.3816 110.748 54.2814 110.662 54.0312C110.576 53.7812 110.576 53.5811 110.576 53.3311C110.576 52.7808 110.706 52.3808 111.007 52.1807C111.308 51.9805 111.61 51.8301 111.997 51.8301Z" fill="black"/>
</svg>
