<svg width="120" height="60" viewBox="0 0 120 60" fill="none" xmlns="http://www.w3.org/2000/svg">
<path d="M117.062 28.0042C116.449 28.5049 115.857 29.0247 113.925 30.1415L113.427 30.411V30.0452C113.427 30.0067 113.561 25.0584 111.189 20.8032C111.036 21.015 110.539 21.6504 110.022 22.305C110.328 22.2665 110.634 22.3435 110.921 22.6324C111.419 23.1137 112.222 24.2882 112.681 25.5012C112.93 26.2714 113.14 27.3111 113.083 28.1968C113.083 28.1968 112.796 33.2221 112.222 38.0356C111.706 42.4063 111.419 42.9839 111.419 42.9839C111.094 42.5796 110.941 42.0597 110.864 41.7709L110.807 41.8094C110.807 41.8094 110.501 41.3666 110.328 40.5194C110.118 39.5374 110.08 37.7853 110.099 36.9381C110.099 36.9381 110.118 36.6878 109.908 36.2643C109.812 36.0717 109.735 35.8599 109.678 35.6481C109.372 34.3003 108.76 33.9153 108.416 33.5109C108.014 33.0103 107.708 32.4904 107.536 32.0476L107.497 32.0669C107.268 32.2787 107.115 32.4904 107.096 32.6252C107.172 33.4146 107.249 33.973 107.134 34.3773L106.962 34.2426C107.019 34.7624 106.771 35.3593 106.924 35.8407L106.617 35.8022L106.656 35.8792C106.694 35.9369 106.732 35.9754 106.809 36.0139L106.904 36.0525C106.924 36.0717 107 36.091 107.21 36.168C107.383 35.7829 107.249 35.3978 107.077 35.186C106.924 35.0127 107.115 34.7432 107.402 34.878C107.784 35.0512 108.205 35.3015 108.664 35.7251C109.295 36.3413 109.487 36.9189 109.353 37.0344C109.257 37.1307 109.162 37.1114 109.047 37.0537L109.028 37.1307C108.989 37.2462 108.894 37.3232 108.76 37.3617L108.741 37.381C108.664 37.4773 108.569 37.5158 108.377 37.5158C108.205 37.5158 108.033 37.4195 107.995 37.4002L107.861 37.304L107.784 37.4387C108.282 38.1319 109.257 39.2486 109.946 40.5001C110.443 41.3858 110.673 42.1175 110.673 42.1175C110.673 42.1175 110.405 42.1945 110.061 42.1175C110.175 42.4641 110.252 42.7914 110.233 43.0224C109.965 43.0417 109.621 43.0032 109.257 42.7914C109.276 42.8491 109.276 42.9069 109.295 42.9647C109.602 43.1957 109.946 43.446 110.099 43.5615C108.588 44.2739 106.388 43.9466 106.35 43.9466C106.235 43.9274 106.158 43.9274 106.063 43.9081L106.005 44.0429C106.158 44.3895 106.503 45.2174 106.579 45.3907C107.536 45.8335 108.435 46.1223 109.812 45.8913C109.812 45.8913 110.041 45.872 110.634 45.6602C111.247 45.4484 112.375 44.7938 113.236 43.9659C114.326 42.9454 114.977 41.8672 115.187 41.4436C116.87 38.1511 117.138 33.2606 117.138 31.2774V30.257C117.138 29.6023 117.1 28.5049 117.062 28.0042Z" fill="#E62832"/>
<path d="M100.635 45.3361C100.694 45.1629 101.008 44.4317 101.165 44.0469C101.145 43.9892 101.126 43.9122 101.106 43.8545C100.89 43.8929 100.675 43.9122 100.459 43.9507C100.321 43.9699 98.1824 44.297 96.6126 43.5658C96.8088 43.4312 97.162 43.1425 97.633 42.8539L97.6526 42.7577C97.2798 42.9694 96.9266 42.9886 96.6518 42.9886C96.6322 42.7577 96.6911 42.4306 96.8284 42.0843C96.4752 42.1612 96.2005 42.0843 96.2005 42.0843C96.2005 42.0843 96.436 41.3338 96.9462 40.468C97.4171 39.6406 98.0843 38.794 98.6534 38.1013C98.7122 37.8319 98.9281 37.601 98.9477 37.5818L99.0458 37.4855C98.987 37.4278 98.9281 37.3893 98.8692 37.3316C98.8104 37.3893 98.7515 37.4278 98.7122 37.4471C98.5356 37.524 98.4179 37.5625 98.3198 37.5625C98.1236 37.5625 98.0058 37.524 97.9469 37.4278L97.9273 37.4086C97.79 37.3701 97.6918 37.2931 97.6526 37.1777L97.633 37.1007C97.5152 37.1392 97.4564 37.1392 97.3583 37.0622C97.2209 36.9468 97.4171 36.3503 98.0647 35.7538C98.516 35.3305 98.9477 35.0804 99.3598 34.9072C99.6738 34.7725 99.8504 35.0419 99.6934 35.2151C99.5168 35.4267 99.3794 35.8115 99.556 36.1964C99.7523 36.1386 99.8111 36.1002 99.8504 36.1002C99.9289 36.0809 100.007 36.0424 100.105 35.927L100.145 35.85L99.87 35.8885C100.007 35.5614 99.7915 34.734 99.9289 34.1953L99.7326 34.3107C99.6345 33.8297 99.6541 33.06 99.6934 32.6752C99.6934 32.579 99.556 32.4058 99.3598 32.2134C99.2028 32.5982 98.9477 33.06 98.4964 33.5988C98.1432 34.0221 97.5152 34.3877 97.2013 35.7346C97.1424 35.9462 97.0639 36.1386 96.9658 36.3503C96.7499 36.7736 96.7696 37.0238 96.7696 37.0238C96.7892 37.8704 96.75 39.6213 96.5341 40.6027C96.3575 41.4685 96.0435 41.9111 96.0435 41.9111L96.0043 41.8726C95.9258 42.1612 95.7884 42.6807 95.4352 43.0848C95.4352 43.0848 95.1409 42.5076 94.611 38.1398C94.0224 33.3294 93.728 28.2881 93.728 28.2881C93.6691 27.403 93.885 26.364 94.1401 25.5943C94.6111 24.3821 95.4352 23.2084 95.9454 22.7274C96.2594 22.4195 96.6126 22.3618 96.9462 22.4195C96.8481 22.2848 96.75 22.1501 96.75 22.1501C96.4164 21.7076 96.0239 21.2265 95.6903 20.8032C93.2963 24.9401 93.3552 29.8852 93.3552 29.9237V30.4432L92.9431 30.2315C91.0593 29.1732 90.2351 28.5383 89.6268 28.038C89.6072 28.5383 89.5483 30.2508 89.5483 30.2508V31.2898C89.5483 33.2717 89.9016 38.1205 91.5499 41.4493C91.7854 41.8726 92.3937 42.9694 93.5122 43.9892C94.356 44.7588 95.3371 45.3168 96.4164 45.6632C96.4752 45.6824 96.6126 45.7209 96.6715 45.7401C97.9273 46.125 99.3009 46.048 100.635 45.3938V45.3361Z" fill="#E62832"/>
<path d="M101.469 46.7837C101.483 46.1935 101.552 45.308 101.649 44.521C101.511 44.7178 101.4 44.7965 101.386 44.7965L101.317 44.7178C101.054 45.6425 100.681 46.9215 100.681 46.9412C100.847 46.7247 101.123 46.5673 101.469 46.7837Z" fill="#E62832"/>
<path d="M105.193 47.3555C105.212 46.7555 104.986 45.162 104.835 44.2433L104.778 44.1683L104.683 44.0371C104.627 44.2246 104.57 44.4121 104.476 44.5995C104.381 44.8245 104.211 45.0682 104.174 45.0495C104.155 45.0495 103.72 44.7495 103.437 44.1496C103.154 44.7308 102.739 45.0307 102.701 45.0307C102.663 45.0307 102.512 44.8058 102.399 44.5808C102.361 44.4871 102.304 44.3746 102.285 44.2808C102.134 45.237 101.927 46.7743 101.964 47.3555C101.077 46.7743 100.529 47.3555 100.718 47.7679L100.775 47.8616C100.888 48.0116 101.02 48.0866 101.228 48.0866C101.511 48.1054 101.889 48.1429 102.323 48.3303C102.72 48.5178 103.154 48.8178 103.588 49.3615C104.023 48.8178 104.457 48.5178 104.853 48.3303C105.288 48.1241 105.665 48.1054 105.949 48.0866C106.137 48.0679 106.289 47.9741 106.402 47.8616L106.458 47.7679C106.628 47.3555 106.081 46.7555 105.193 47.3555Z" fill="#E62832"/>
<path d="M105.365 44.7428C105.344 44.7428 105.221 44.6622 105.037 44.521C105.181 45.2269 105.303 46.1143 105.324 46.7798C105.835 46.5781 106.244 46.7193 106.489 46.9412C106.489 46.921 105.896 45.4487 105.549 44.5412C105.467 44.642 105.365 44.7428 105.365 44.7428Z" fill="#E62832"/>
<path d="M117.192 30.1444C117.172 29.4903 117.153 28.3936 117.114 27.8934C116.491 28.3936 115.887 28.9131 113.919 30.029L113.412 30.2983V29.9328C113.412 29.8943 113.549 24.9498 111.133 20.6979C110.977 20.8903 110.47 21.5444 109.944 22.1986C110.256 22.1601 110.568 22.237 110.86 22.5256C111.366 23.0066 112.185 24.1802 112.652 25.3923C112.906 26.1619 113.12 27.2008 113.062 28.0858C113.062 28.0858 112.769 33.1072 112.185 37.9171C111.659 42.2844 111.366 42.8615 111.366 42.8615C111.035 42.4575 110.879 41.9381 110.801 41.6495L110.762 41.688C110.762 41.688 110.451 41.2454 110.275 40.3989C110.061 39.4177 110.022 37.6669 110.042 36.8204C110.042 36.8204 110.061 36.5703 109.847 36.147C109.749 35.9547 109.671 35.743 109.613 35.5314C109.301 34.1846 108.678 33.7999 108.327 33.3958C107.918 32.8956 107.606 32.3761 107.431 31.9336L107.392 31.9529C107.158 32.1645 107.002 32.3761 106.983 32.5108C107.061 33.2996 107.139 33.8576 107.022 34.2616L106.846 34.1269C106.905 34.6464 106.652 35.2428 106.807 35.7238L106.496 35.6853L106.535 35.7623C106.574 35.82 106.613 35.8585 106.69 35.8969L106.788 35.9354C106.807 35.9546 106.885 35.9739 107.1 36.0508C107.275 35.6661 107.139 35.2813 106.963 35.0696C106.807 34.8965 107.002 34.6271 107.294 34.7618C107.684 34.935 108.113 35.1851 108.58 35.6083C109.223 36.224 109.418 36.8012 109.282 36.9166C109.184 37.0128 109.087 36.9936 108.97 36.9359L108.951 37.0128C108.912 37.1282 108.814 37.2052 108.678 37.2437L108.658 37.2629C108.58 37.3591 108.483 37.3976 108.288 37.3976C108.113 37.3976 107.937 37.3014 107.898 37.2822L107.762 37.186L107.665 37.3206C108.171 38.0133 109.165 39.1291 109.866 40.3797C110.373 41.2647 110.607 42.015 110.607 42.015C110.607 42.015 110.334 42.092 109.983 42.015C110.1 42.3613 110.178 42.6884 110.159 42.9193C109.886 42.9385 109.535 42.9 109.165 42.6884C109.184 42.7461 109.184 42.8038 109.204 42.8615C109.516 43.0924 109.866 43.3425 110.022 43.458C108.483 44.1698 106.242 43.8428 106.203 43.8428C106.087 43.8235 106.009 43.8235 105.911 43.8043L105.853 43.9389C106.009 44.2853 106.359 45.1125 106.437 45.2857C107.411 45.7282 108.327 46.0168 109.73 45.7859C109.73 45.7859 109.964 45.7667 110.568 45.555C111.191 45.3434 112.341 44.6893 113.217 43.862C114.328 42.8423 114.99 41.7649 115.205 41.3416C116.919 38.0517 117.192 33.165 117.192 31.1833C117.192 30.5292 117.192 30.1829 117.192 30.1444ZM106.515 46.6324C106.515 46.6132 105.95 45.2087 105.619 44.343C105.541 44.4584 105.463 44.5354 105.444 44.5354C105.424 44.5354 105.307 44.4584 105.132 44.3237C105.268 44.9971 105.385 45.8436 105.405 46.4785C105.892 46.2669 106.281 46.4208 106.515 46.6324ZM105.112 47.0557C105.132 46.4401 104.898 44.8047 104.742 43.862L104.684 43.785L104.586 43.6504C104.528 43.8428 104.469 44.0351 104.372 44.2275C104.275 44.4584 104.099 44.7085 104.06 44.6893C104.041 44.6893 103.593 44.3814 103.3 43.7658C103.008 44.3622 102.58 44.67 102.541 44.67C102.502 44.67 102.346 44.4392 102.229 44.2083C102.19 44.1121 102.131 43.9967 102.112 43.9005C101.956 44.8817 101.742 46.4593 101.781 47.0557C100.865 46.4593 100.3 47.0557 100.495 47.479L100.553 47.5752C100.67 47.7291 100.807 47.806 101.021 47.806C101.313 47.8253 101.703 47.8638 102.151 48.0562C102.56 48.2485 103.008 48.5564 103.456 49.1143C103.904 48.5564 104.352 48.2485 104.762 48.0562C105.21 47.8445 105.599 47.8253 105.892 47.806C106.087 47.7868 106.242 47.6906 106.359 47.5752L106.418 47.479C106.593 47.0557 106.028 46.4401 105.112 47.0557ZM100.358 46.6324C100.612 46.4208 101.001 46.2861 101.469 46.4785C101.488 45.9014 101.586 45.0356 101.722 44.266C101.527 44.4584 101.372 44.5354 101.352 44.5354L101.255 44.4584C100.884 45.3434 100.378 46.6132 100.358 46.6324ZM100.456 45.2472L100.475 45.2087C100.534 45.0356 100.846 44.3045 101.001 43.9197C100.982 43.862 100.962 43.785 100.943 43.7273C100.729 43.7658 100.514 43.785 100.3 43.8235C100.164 43.8428 98.0399 44.1698 96.4813 43.4387C96.6761 43.3041 97.0268 43.0155 97.4944 42.7269L97.5139 42.6307C97.1437 42.8423 96.793 42.8615 96.5202 42.8615C96.5007 42.6307 96.5592 42.3036 96.6956 41.9573C96.3449 42.0343 96.0721 41.9573 96.0721 41.9573C96.0721 41.9573 96.3059 41.207 96.8125 40.322C97.2801 39.4947 97.9425 38.6481 98.5075 37.9748C98.566 37.7054 98.7803 37.4746 98.7998 37.4553L98.8972 37.3591C98.8387 37.3014 98.7803 37.2629 98.7218 37.2052C98.6634 37.2629 98.6049 37.3014 98.566 37.3206C98.3906 37.3976 98.2737 37.4361 98.1763 37.4361C97.9815 37.4361 97.8646 37.3976 97.8061 37.3014L97.7866 37.2822C97.6503 37.2437 97.5528 37.1667 97.5139 37.0513L97.4944 36.9743C97.3775 37.0128 97.319 37.0128 97.2216 36.9359C97.0852 36.8204 97.2801 36.224 97.923 35.6276C98.3711 35.2043 98.7998 34.9542 99.2089 34.7811C99.5207 34.6464 99.696 34.9157 99.5401 35.0889C99.3648 35.3005 99.2284 35.6853 99.4038 36.0701C99.5986 36.0124 99.657 35.9739 99.696 35.9739C99.7739 35.9546 99.8519 35.9162 99.9493 35.8007L99.9882 35.743L99.7155 35.7815C99.8519 35.4544 99.6375 34.6271 99.7739 34.0884L99.5791 34.2039C99.4817 33.7229 99.5012 32.9533 99.5401 32.5685C99.5401 32.4723 99.4038 32.2992 99.2089 32.1068C99.0531 32.4916 98.7998 32.9533 98.3517 33.492C98.001 33.9153 97.3775 34.2808 97.0658 35.6276C97.0073 35.8392 96.9294 36.0316 96.832 36.2432C96.6176 36.6665 96.6371 36.9166 96.6371 36.9166C96.6566 37.7631 96.6176 39.5139 96.4033 40.4951C96.228 41.3609 95.9163 41.7841 95.9163 41.7841L95.8773 41.7457C95.7993 42.0343 95.663 42.5537 95.3123 42.9577C95.3123 42.9577 95.02 42.3806 94.494 38.0133C93.9095 33.2034 93.6172 28.1627 93.6172 28.1627C93.5588 27.2777 93.7731 26.2388 94.0264 25.4692C94.494 24.2572 95.3123 23.0836 95.8188 22.6026C96.1306 22.2948 96.4813 22.237 96.8125 22.2948C96.7151 22.1601 96.6176 22.0254 96.6176 22.0254C96.2864 21.5829 95.8968 21.1019 95.5655 20.6787C93.1886 24.8151 93.247 29.7596 93.247 29.7981V30.3175L92.8379 30.1059C90.9675 29.0477 90.1492 28.4129 89.5452 27.9126C89.5257 28.4129 89.4673 30.1252 89.4673 30.1252V31.1641C89.4673 33.1457 89.818 37.994 91.4546 41.3224C91.6884 41.7457 92.2924 42.8423 93.3834 43.862C94.2212 44.6316 95.1954 45.1895 96.2669 45.5358C96.3254 45.555 96.4618 45.5935 96.5202 45.6128C97.7672 45.9975 99.131 45.9206 100.456 45.2472ZM89.5647 27.3547C89.7985 27.5471 90.9675 28.5283 92.8379 29.5865C92.8769 28.4898 92.9158 24.5458 95.3123 20.3324C95.0395 19.9668 94.9226 19.8129 94.6498 19.4666C94.455 19.6782 94.2017 19.8129 93.8315 19.9283C93.851 19.101 93.6562 18.6393 93.4224 18.1391C93.0912 18.1583 92.5067 18.1583 91.591 17.9659C90.383 20.5055 89.779 23.4491 89.5647 27.3547ZM91.6105 17.9467C91.7274 17.889 92.0975 17.6581 92.3313 17.331C92.4482 17.1771 92.5456 17.004 92.6041 16.8693L92.3508 16.5615C92.078 16.9847 91.8442 17.4657 91.6105 17.9467ZM92.8379 16.4075C92.8769 16.3306 92.9158 16.2729 92.9548 16.2344C92.3508 15.4648 91.9612 14.9454 91.9222 14.9069C91.8248 14.7914 91.5715 14.3105 91.6494 13.9257C90.9285 13.5986 90.422 13.2331 90.422 13.2331C90.422 13.2331 91.552 14.7337 92.8379 16.4075ZM92.9158 15.7919C92.9743 15.8688 93.0522 15.965 93.1107 16.042C94.0848 14.8107 95.3902 13.9257 96.9489 13.3485C96.832 13.1754 96.6566 12.7521 97.1047 12.3096C97.7866 12.3865 97.9425 12.7906 98.001 13.0022C99.2284 12.6751 100.67 12.4827 102.287 12.425C102.346 11.3284 103.145 11.059 103.145 11.059C103.145 11.059 103.164 10.8474 103.32 10.7897C103.495 10.8666 103.495 11.059 103.495 11.059C103.495 11.059 104.294 11.3284 104.353 12.425C105.97 12.4827 107.411 12.6751 108.639 13.0022C108.678 12.7906 108.853 12.3865 109.535 12.3096C110.003 12.7521 109.808 13.1561 109.691 13.3485C111.269 13.9257 112.613 14.8492 113.588 16.0805C113.665 15.9843 113.724 15.9073 113.782 15.8111C112.867 14.6953 111.6 13.791 110.236 13.2523C110.392 12.8098 110.236 12.4443 109.983 12.1749C109.983 12.0018 109.886 11.8478 109.769 11.7901C109.632 11.7709 109.438 11.8286 109.301 11.9633C108.912 12.021 108.522 12.2134 108.308 12.6367C107.294 12.3865 106.145 12.2326 104.703 12.1557C104.664 11.5015 104.275 11.0783 103.807 10.8474C103.71 10.6165 103.515 10.4819 103.339 10.4434C103.164 10.4819 102.969 10.6165 102.872 10.8474C102.385 11.0783 101.995 11.4823 101.976 12.1557C100.514 12.2326 99.3843 12.3865 98.3711 12.6367C98.1568 12.2134 97.7672 12.021 97.3775 11.9633C97.2411 11.8286 97.0463 11.7709 96.9099 11.7901C96.793 11.8478 96.6956 12.0018 96.6956 12.1749C96.4423 12.4443 96.2864 12.8098 96.4423 13.2523C95.0395 13.8102 93.8121 14.676 92.9158 15.7919ZM113.743 16.2921L113.841 16.4653C115.146 14.753 116.354 13.1754 116.354 13.1754C116.354 13.1754 115.848 13.5217 115.127 13.868C115.205 14.2527 114.951 14.7337 114.854 14.8492C114.815 14.9069 114.386 15.4648 113.743 16.2921ZM114.269 16.5999C114.192 16.6961 114.036 16.9078 114.036 16.9078C114.23 17.2733 114.445 17.6389 115.01 17.9275C114.796 17.4657 114.542 17.0232 114.269 16.5999ZM110.568 20.7941C110.665 20.6594 111.152 20.0245 111.795 19.1972C111.756 19.1395 111.698 19.0818 111.659 19.0241C111.211 19.6013 110.762 20.1977 110.334 20.7749C110.022 21.1981 109.516 21.8907 109.496 21.9677C109.496 22.1024 110.314 21.1212 110.568 20.7941ZM102.365 43.3618C102.424 43.5734 102.541 43.8428 102.638 43.9774C102.638 43.9774 103.067 43.6311 103.184 42.8615C103.106 42.9193 102.969 43.0347 102.852 43.0924C102.677 43.2079 102.502 43.3041 102.365 43.3618ZM97.0268 43.3618C97.6892 43.6119 99.5207 43.6311 100.378 43.5349C101.469 43.4002 102.307 43.0732 103.008 42.5922C102.833 42.4383 102.599 42.2267 102.365 42.015C101.995 42.3036 101.664 42.5345 101.469 42.6307C100.164 43.1501 98.4296 43.2848 98.4296 43.2848C98.4296 43.2848 100.67 42.7846 101.449 42.3613C101.605 42.2844 101.859 42.092 102.151 41.8419C101.859 41.5725 101.586 41.2839 101.352 41.0723C101.216 41.207 101.099 41.2839 100.943 41.3994C100.651 41.611 100.222 41.7457 99.8908 41.8996C98.3127 42.496 97.2606 43.1501 97.0268 43.3618ZM99.5986 30.3175C99.7155 29.952 99.8519 27.6048 98.9167 26.6044C99.1505 27.5086 99.4622 28.5668 99.5986 30.3175ZM97.8256 24.5265C97.7866 24.8343 97.7866 25.2191 97.8646 25.5077C97.923 25.7001 98.0204 25.8925 98.0789 26.0657C98.1179 25.4692 97.962 24.8151 97.8256 24.5265ZM98.2932 25.2769C98.2932 25.931 98.4296 26.4312 98.6634 27.2393C98.6829 26.3735 98.5075 25.5077 98.2932 25.2769ZM94.8836 19.1203C95.5655 20.0245 96.0916 20.7171 96.189 20.8518C96.4228 21.1789 97.2606 22.1601 97.2411 22.0254C97.2411 21.9485 96.7345 21.2558 96.4033 20.8326C95.9357 20.2169 95.4486 19.5628 94.9811 18.9471C94.9616 19.0049 94.9226 19.0626 94.8836 19.1203ZM94.2797 15.9073C94.2017 15.8304 94.0264 15.6765 93.5977 15.9843C92.8184 16.6577 93.0717 17.2541 92.2534 17.7928C92.5456 17.8505 92.7794 17.8697 92.9743 17.8697C93.1107 17.8697 93.2081 17.8697 93.3055 17.8505C93.4614 17.8313 93.5783 17.812 93.6757 17.7928C93.8705 18.2353 94.1433 18.6393 94.1238 19.4089C95.059 18.9087 94.6888 17.331 95.5655 17.3503C95.0785 16.7923 94.3576 16.0035 94.2797 15.9073ZM112.243 15.5418C111.737 15.0416 110.938 14.5029 109.964 14.0796C107.45 12.983 104.236 12.983 103.32 12.983C102.404 12.983 99.2089 12.983 96.6761 14.0796C95.7019 14.5029 94.9031 15.0416 94.3966 15.5418C94.3966 15.5418 95.5461 16.8116 95.8383 17.1579C95.9942 17.331 96.0526 17.4849 95.9552 17.7543C97.7087 16.5999 99.696 16.0228 103.261 15.9843H103.417C106.905 16.0228 108.951 16.5999 110.704 17.7543C110.607 17.4849 110.665 17.331 110.821 17.1579C111.113 16.8116 112.243 15.5418 112.243 15.5418ZM111.756 18.1968C111.873 18.6008 111.99 19.0433 112.341 19.3127L112.496 19.4089C112.496 18.6393 112.75 18.2353 112.945 17.7928C113.237 17.8313 113.607 17.9467 114.367 17.812C113.646 17.331 113.802 16.7923 113.256 16.1959C113.198 16.1382 113.139 16.0612 113.062 16.0035C112.867 15.8688 112.73 15.8304 112.613 15.8111C112.477 15.8111 112.399 15.8688 112.36 15.9266C112.282 16.0035 111.542 16.8116 111.035 17.3503C111.503 17.331 111.62 17.7351 111.756 18.1968ZM111.133 19.2934C111.211 19.1972 111.289 19.101 111.366 18.9856C110.334 18.0814 108.795 17.1771 107.119 16.8116C105.989 16.5615 105.073 16.5422 104.508 16.5615C104.041 16.5615 103.729 16.7539 103.729 17.0424C103.437 16.9847 103.359 16.6192 103.32 16.5615C103.3 16.7154 103.145 17.004 102.911 17.0424C102.911 16.7539 102.618 16.5807 102.131 16.5615C101.566 16.5615 100.651 16.5807 99.5207 16.8116C97.8061 17.1771 96.3254 18.0044 95.2928 18.9279C95.3707 19.0241 95.4487 19.1203 95.5266 19.2165C96.4618 18.3507 97.6892 17.6773 99.0141 17.2926C100.105 16.9847 101.449 16.8693 102.073 16.8885C102.618 16.9078 102.696 17.2156 102.638 17.3888C102.891 17.408 103.242 17.1964 103.32 17.0617C103.378 17.1771 103.71 17.408 104.021 17.3888C103.963 17.2156 104.041 16.9078 104.586 16.8885C105.21 16.8693 106.554 16.9655 107.645 17.2926C108.912 17.6966 110.217 18.4662 111.133 19.2934ZM107.061 24.161C107.197 24.161 107.314 24.1417 107.431 24.084C107.528 24.0263 107.548 23.9878 107.587 23.9301C108.386 22.795 109.847 20.9673 110.957 19.5243C108.697 17.331 105.463 17.1771 104.625 17.2348C104.43 17.2541 104.197 17.408 104.45 17.7351C104.275 17.812 103.573 17.7543 103.32 17.5234C103.067 17.7543 102.365 17.8313 102.19 17.7351C102.443 17.408 102.209 17.2541 102.015 17.2348C101.157 17.1771 97.7672 17.5042 95.7214 19.4858C96.8514 20.9673 99.2089 24.0455 99.2674 24.1033C99.3063 24.161 99.4232 24.2379 99.5791 24.2379H99.6376C99.7545 24.2379 99.8713 24.1417 100.008 24.0071C100.261 23.7377 100.378 23.603 100.612 23.3529C101.079 22.8912 101.508 22.5256 101.586 22.4679C101.781 22.2948 101.839 22.1409 101.859 22.0062C101.839 21.833 101.703 21.7753 101.625 21.6791L101.586 21.7368C101.508 21.6791 101.43 21.4098 101.43 21.4098L101.391 21.5252C101.391 21.5252 101.216 21.1212 100.943 21.1404C100.573 21.1981 100.319 21.025 100.3 21.025C100.28 21.025 100.261 21.1404 100.261 21.2943H100.242C99.9882 21.0827 99.9103 20.5248 100.397 20.1592C100.709 19.9283 100.768 19.9476 101.001 19.8321C101.099 19.7937 101.177 19.6975 101.196 19.659C101.352 19.4666 101.683 19.3512 101.859 19.3127C102.092 19.255 102.638 19.178 103.184 19.1972C103.495 19.2165 103.787 19.2742 103.982 19.3704C104.138 19.4281 104.606 19.7744 104.879 20.1207C105.054 20.3324 105.346 20.9673 105.502 21.3713C105.853 22.1986 105.814 22.1216 106.048 22.6603C106.32 23.2952 106.476 23.6415 106.729 23.9878C106.807 24.1033 106.885 24.1417 107.061 24.161ZM100.144 30.2021C100.144 30.5292 100.378 30.9909 100.69 31.1641C100.514 30.6638 100.358 30.5099 100.144 30.2021ZM104.45 33.8768C104.333 34.0692 104.236 34.1654 104.08 34.3001C104.138 34.1654 104.138 34.0115 104.138 34.0115C104.06 34.1654 103.904 34.3578 103.787 34.4732C103.515 34.7426 103.456 35.0119 103.456 35.0119C103.456 35.0119 103.534 34.9157 103.865 34.7233C104.216 34.5117 104.333 34.2039 104.45 33.8768ZM104.664 37.3014C104.567 37.1667 104.314 36.8397 104.099 36.6473C104.255 36.9936 104.314 37.2244 104.333 37.3014L104.372 37.2822L104.489 37.2629L104.625 37.2822L104.664 37.3014ZM104.489 40.1103C104.684 40.3027 104.918 40.5336 105.093 40.7067C105.19 40.5913 105.288 40.4951 105.346 40.4182L104.742 39.8602L104.489 40.1103ZM103.398 39.0329C103.671 39.3023 104.021 39.6871 104.255 39.8987C104.411 39.7448 104.508 39.6678 104.508 39.6678L103.593 38.8405C103.554 38.8598 103.476 38.9367 103.398 39.0329ZM103.3 38.5135V38.8213L103.456 38.6674L103.3 38.5135ZM103.3 38.3403C103.3 38.3211 103.456 38.1479 103.534 38.0902L103.554 38.071C103.515 37.7439 103.437 37.3399 103.32 37.186C103.281 37.3399 103.3 37.9171 103.3 38.3403ZM103.671 36.8204C103.71 37.0705 103.749 37.6669 103.749 37.8593C103.807 37.7824 103.885 37.7247 103.963 37.6477C103.963 37.5323 103.885 37.0705 103.671 36.8204ZM103.281 36.5703C103.281 36.5703 103.339 36.5511 103.476 36.4741C103.593 36.3972 103.69 36.3202 103.749 36.2048C103.807 36.0893 103.807 35.9739 103.787 35.9162C103.787 35.9162 103.768 36.0316 103.612 36.1663C103.554 36.224 103.456 36.3202 103.398 36.3779C103.32 36.4741 103.281 36.5703 103.281 36.5703ZM103.047 34.8772C103.047 34.454 102.58 34.4155 102.463 33.9922C102.424 34.5887 102.833 34.5887 103.047 34.8772ZM103.3 35.8392C103.3 35.8392 103.339 35.743 103.476 35.6468C103.573 35.5891 104.099 35.262 104.216 35.1274C104.314 34.9927 104.353 34.8003 104.353 34.8003C104.353 34.8003 104.255 34.9542 104.041 35.0696C103.865 35.1658 103.437 35.4352 103.359 35.5506C103.32 35.6083 103.3 35.6661 103.3 35.7238L103.261 35.6083C103.125 35.339 102.735 35.2236 102.502 34.9542C102.346 34.7811 102.346 34.7041 102.346 34.7041C102.346 34.8772 102.385 35.0119 102.443 35.1081C102.502 35.2043 102.696 35.3582 102.969 35.5314C103.261 35.7238 103.3 35.8392 103.3 35.8392ZM103.106 36.3779C103.106 36.3779 103.067 36.0508 102.813 35.9547C102.833 36.1855 103.106 36.3779 103.106 36.3779ZM102.989 38.0902C102.989 37.8401 102.969 37.5515 102.95 37.4361C102.872 37.5515 102.813 37.7247 102.774 37.8786L102.989 38.0902ZM101.566 37.3976C101.644 37.3784 101.82 37.2822 101.917 37.2629L101.995 37.2437C102.053 37.0513 102.131 36.7435 102.209 36.6088C102.151 36.5895 101.664 37.2629 101.566 37.3976ZM102.346 37.4361L102.521 37.59C102.541 37.3976 102.638 36.7627 102.599 36.6857C102.365 37.109 102.346 37.3976 102.346 37.4361ZM102.365 33.8383C102.365 33.8383 102.365 33.7229 102.287 33.5882C102.248 33.5113 102.131 33.4151 102.053 33.3381C101.995 33.2804 101.995 33.2419 101.995 33.2419C101.976 33.3189 102.015 33.492 102.034 33.5497C102.053 33.6267 102.112 33.7037 102.19 33.7614C102.307 33.8191 102.365 33.8383 102.365 33.8383ZM102.17 38.2634L100.242 40.0526C100.358 40.168 100.495 40.3027 100.573 40.3989H100.67C100.787 40.2835 102.716 38.5519 102.872 38.4173V38.3788C102.794 38.2826 102.58 38.071 102.443 37.9171C102.268 37.7439 102.053 37.513 101.898 37.5515C101.742 37.59 101.742 37.6092 101.527 37.6477C101.118 37.7247 100.807 37.6285 100.651 37.59L100.612 37.5707L100.592 37.7054L100.573 37.8401C100.768 37.8786 100.884 37.8786 101.372 37.8786C101.527 37.8786 101.625 37.9363 101.488 38.071C101.488 38.071 100.222 39.3023 100.164 39.3792C99.8908 39.6293 99.8908 39.6871 99.9688 39.764C99.9882 39.7833 99.9882 39.764 100.047 39.841L100.553 39.3985L101.372 38.6866L101.995 38.1094L102.073 38.0902L102.19 38.2056L102.17 38.2634ZM105.132 37.8593C105.599 37.8593 105.716 37.8593 105.911 37.8209L105.872 37.6669L105.853 37.5515H105.833C105.677 37.59 105.366 37.6862 104.956 37.6092C104.762 37.5707 104.742 37.5707 104.586 37.513C104.45 37.4746 104.216 37.7054 104.041 37.8786C103.885 38.0325 103.69 38.2634 103.612 38.3403V38.398C103.768 38.5327 105.697 40.2835 105.814 40.3797H105.911C105.989 40.3027 106.125 40.1681 106.242 40.0334L104.314 38.2441L104.294 38.1672L104.411 38.0517L104.489 38.071L105.112 38.6481L105.931 39.36L106.437 39.8025C106.515 39.7255 106.496 39.7448 106.515 39.7255C106.593 39.6486 106.574 39.5909 106.32 39.3408C106.242 39.2638 104.995 38.0325 104.995 38.0325C104.898 37.9171 104.976 37.8593 105.132 37.8593ZM104.742 32.7609C104.742 32.7609 105.034 32.4723 105.151 31.5489C105.21 31.6258 105.307 31.6835 105.346 31.8182C105.541 31.5873 105.911 30.3368 105.95 29.9135C106.067 29.9712 105.97 29.9328 106.106 30.0097C106.203 29.8366 106.418 29.1247 106.515 28.1435L106.671 28.2012C106.729 27.7587 106.807 27.0276 106.827 26.5274C106.846 26.0849 106.827 25.1999 106.652 24.6804C106.457 24.161 106.379 23.8916 106.087 23.4299C106.087 23.4299 105.97 23.4876 105.931 23.5646C105.853 23.3144 105.619 22.718 105.502 22.5064C105.21 21.9485 105.073 21.6022 104.781 21.4098C104.918 21.4098 104.976 21.4482 105.132 21.4482C104.937 21.2751 104.859 21.1404 104.645 20.9865C104.723 20.948 104.84 20.948 105.054 20.9865C104.762 20.7171 104.664 20.3131 103.904 20.0438C104.041 20.0245 104.138 20.063 104.314 20.063C104.216 19.9091 103.982 19.6782 103.612 19.5628C102.833 19.4089 101.781 19.3896 101.274 19.9668C101.235 20.0053 101.099 20.0438 100.982 20.0822C100.904 20.1207 100.865 20.14 100.846 20.1592C100.768 20.2169 100.748 20.3131 100.904 20.544C100.69 20.5055 100.631 20.3131 100.592 20.3324C100.514 20.3901 100.436 20.4478 100.358 20.5632C100.28 20.6787 100.222 20.8903 100.242 20.9865C100.261 21.0057 100.456 21.0827 100.475 20.8711C100.495 20.7941 100.826 20.7749 100.943 20.7749C101.118 20.7749 101.274 20.8133 101.488 20.8133C101.411 20.8326 101.177 20.9095 101.079 20.9288C100.982 20.948 100.982 21.0635 101.06 21.0635C101.157 21.0827 101.196 21.025 101.294 21.0057C101.333 21.025 101.294 21.1404 101.333 21.1981C101.956 21.0635 101.995 21.7176 102.657 21.5829C102.346 21.3328 102.073 20.948 101.839 20.8133C102.502 20.9095 102.852 21.4867 103.554 21.5252C103.541 21.4867 103.515 21.4226 103.476 21.3328C103.71 21.3328 103.885 21.5252 103.963 21.506C103.865 21.6022 103.671 21.6791 103.398 21.7176C103.437 21.8138 103.71 21.833 103.807 21.833C103.671 21.9677 103.495 22.0254 103.184 21.9677C103.086 22.0639 102.93 22.2755 102.482 22.5641C102.482 22.4872 102.489 22.4166 102.502 22.3525C102.19 22.5256 101.995 22.8527 101.761 22.9297C101.839 22.8142 101.878 22.6218 101.937 22.5256C101.138 23.2375 100.378 23.9301 100.086 24.4496C99.7739 25.0267 99.657 25.6232 99.7155 26.6044C99.7545 27.1238 99.9688 28.6245 100.008 28.9131C100.066 28.8938 100.125 28.8554 100.164 28.8361C100.358 29.9328 100.923 31.4527 101.235 31.9529C101.294 31.8374 101.313 31.7797 101.411 31.722C101.449 32.0106 101.605 32.3377 101.859 32.5493C101.859 32.3569 101.937 32.2415 101.956 32.1645C102.015 32.3761 101.976 33.0303 102.365 33.3958C102.346 33.2227 102.404 33.0688 102.463 32.8186C102.521 33.0303 102.541 33.2996 102.638 33.5113C102.755 33.7614 102.911 34.0115 103.047 34.0692C103.028 33.5497 103.106 33.569 103.125 33.3573C103.125 33.3958 103.339 33.5882 103.437 34.2424C103.826 33.9538 103.982 32.9918 103.982 32.9918C103.982 32.9918 104.099 33.088 104.177 33.3573C104.508 33.011 104.625 32.5493 104.723 32.203C104.762 32.3954 104.781 32.6455 104.742 32.7609ZM98.4686 28.586C98.7608 28.99 99.3063 30.2791 99.3063 31.1641C99.657 30.2791 99.092 28.5283 98.566 27.5663C98.566 27.8549 98.488 27.9319 98.4296 28.0473C98.3322 26.9314 97.6113 26.1041 97.4944 25.3346C97.4749 25.4692 97.4554 25.5654 97.4165 25.6809C97.1632 25.2384 96.9294 24.7189 96.7735 24.084C96.7345 24.1417 96.6371 24.3341 96.6371 24.5458C96.2864 23.5838 96.6176 23.1798 96.7345 23.1221C97.0073 22.9681 97.319 23.2183 97.5723 23.4876C97.9425 23.8916 98.3322 24.7189 99.5986 24.7382C99.7934 24.7382 99.8713 24.6997 99.7739 24.6804C98.7413 24.488 98.5465 24.084 97.6697 23.1413C97.1242 22.5641 96.5982 22.2178 95.9552 22.9681C94.7083 24.4111 94.3186 25.6232 94.1043 26.6236C93.9679 27.2008 93.89 28.3936 94.0459 28.99C94.2017 28.9323 94.2017 28.8938 94.2017 28.8938C94.2017 28.8938 94.3576 30.5484 94.6498 30.9524C94.7278 30.7793 94.8447 30.3368 94.8447 29.952C95.0005 30.433 95.1369 30.7023 95.3707 30.9717C95.4876 30.5677 95.4876 30.1829 95.4292 29.7211C95.6825 30.3175 95.8773 30.5677 96.0137 30.6638C96.1111 30.3945 96.228 29.9712 96.15 28.6245C96.2475 29.1247 96.3059 29.5287 96.3254 29.8366C96.4033 29.8943 96.5007 29.9712 96.5982 30.0097C96.6371 29.875 96.7735 29.6826 96.5592 27.9704C97.1437 29.8173 96.8125 30.3175 96.754 30.4522C96.5592 30.3368 96.4228 30.2021 96.3449 30.1059C96.3644 30.6638 96.2475 30.8755 96.1695 31.0871C95.9552 30.9717 95.8188 30.8178 95.6824 30.6061C95.7019 31.1833 95.5461 31.5296 95.5461 31.5296C95.5461 31.5296 95.1174 31.0679 95.0005 30.7023C95.02 30.914 94.8642 31.5873 94.7278 31.7028C94.2407 31.0871 94.0848 29.3171 94.0848 29.3171L94.0069 29.3748C94.0264 29.7981 94.0848 30.4715 94.1433 31.2218C94.2212 32.1068 94.2991 33.088 94.3771 33.973C94.5719 36.0893 94.8057 38.2056 95.098 40.3027C95.098 40.3027 95.1369 40.649 95.1954 40.8414C95.2538 40.6298 95.2733 39.7833 95.2343 39.3215C95.2149 39.2061 95.3902 39.0137 95.3902 38.3788C95.3902 38.1287 95.098 34.8773 94.9811 33.6075C94.9616 33.4535 94.9421 33.1072 94.9421 33.1072L94.9616 33.2419C95.059 33.7229 95.1369 34.2039 95.2149 34.6849C95.2538 34.9734 95.3123 35.2813 95.3512 35.5891C95.4876 36.5318 95.6045 37.4746 95.624 38.4173C95.6435 39.0329 95.4292 39.1868 95.4487 39.3215C95.5656 40.0719 95.4681 40.8029 95.3123 41.2262C95.2538 41.207 95.1954 41.1493 95.1759 41.1108C95.2733 41.688 95.4097 42.1497 95.4097 42.1497C95.6435 41.6687 95.7604 41.1493 95.7214 39.8602C95.7214 39.764 95.9163 39.4754 95.9357 38.8021C95.9357 38.6097 95.9162 37.9748 95.8578 37.2052C95.7604 35.82 95.6435 34.4347 95.5266 33.0688C95.5266 33.011 95.5071 32.8379 95.5071 32.8186C95.5266 32.8764 95.5461 32.9341 95.5461 33.011C95.9357 34.7811 96.0916 36.628 96.189 38.4173C96.228 39.2253 95.9163 39.841 95.9357 39.9564C95.9747 40.3604 95.9747 40.3412 95.9552 40.6875C95.9357 41.1108 95.9163 41.1685 95.9163 41.1685C96.0526 40.8607 96.5007 39.8025 96.3644 36.4933C96.3644 36.4164 96.3644 36.3394 96.3449 36.2432C96.228 33.9345 96.0332 32.4339 96.0332 32.4339C96.2475 33.0688 96.4423 34.454 96.5592 36.0701L96.5982 35.9931C96.832 35.3775 96.8709 34.7618 96.832 34.1269C96.754 32.9148 96.6176 31.9336 96.6176 31.9336L96.6566 32.0298C96.6956 32.1645 96.8125 32.5301 96.9294 33.1457C97.0073 33.569 97.0852 34.0115 97.1047 34.4347V34.6079C97.5723 33.9153 97.3775 32.5493 97.1437 31.1256C97.3385 31.5873 97.7087 32.8571 97.6113 33.8191C98.3127 33.165 97.923 31.8952 97.6697 30.4137C98.0594 31.2987 98.3517 32.3569 98.2542 33.0688C98.8193 32.3377 98.6049 31.3757 98.0984 29.4903C98.4101 29.9905 98.8387 31.1833 98.8582 31.9144C99.2674 31.1448 98.8387 29.7404 98.4686 28.586ZM99.2089 35.2236C99.3258 35.0504 99.1505 34.9927 98.8387 35.2043C98.6439 35.3198 97.9815 35.7623 97.6308 36.224C97.5528 36.3394 97.5723 36.3972 97.7282 36.2625C98.0594 35.9354 98.5855 35.4544 98.566 35.6853C98.566 35.8777 98.5855 36.0701 98.6634 36.2625L98.8193 36.224L99.2674 36.1086C99.1115 35.7623 99.0725 35.4352 99.2089 35.2236ZM98.9946 37.513C98.8193 37.7054 98.6634 37.9171 98.6634 38.2056C98.6634 38.398 98.7998 38.5135 98.9556 38.5135C99.2089 38.4942 99.0725 38.2249 99.2284 38.3788C99.2869 38.4558 99.4817 38.2249 99.5401 38.1672C99.4232 38.1864 99.2674 38.2056 99.2868 38.0325C99.3063 37.9171 99.4037 37.8209 99.4622 37.7247C99.5206 37.6477 99.735 37.2437 99.8713 37.3014C99.9298 37.3399 99.8908 37.7247 99.7934 37.9555C99.5596 38.4365 99.5206 38.7636 99.6765 38.8598H99.696V38.879C99.6765 39.0522 99.6765 39.2446 99.8908 39.36L99.9103 39.3408C99.8519 39.1676 99.9103 39.0714 99.9298 38.9945C99.9298 38.9752 99.9493 38.9175 99.8129 38.879H99.7934H100.027C100.125 38.8598 100.222 38.8405 100.242 38.6674C100.242 38.6097 100.261 38.552 100.261 38.475C100.3 38.2056 100.339 37.9555 100.378 37.7631C100.417 37.5515 100.475 37.0128 100.475 37.0128L100.592 36.9936C100.651 36.9936 100.748 37.032 100.807 37.1475C100.826 37.186 100.826 37.2437 100.807 37.3206C100.865 37.3014 100.943 37.2437 100.943 37.1282V37.109C101.021 37.0513 101.06 36.9936 101.079 36.9166C101.118 36.7242 100.884 36.5318 100.865 36.5126C100.729 36.4164 100.768 36.2048 100.826 36.0316L100.904 35.82C100.982 35.8969 101.06 35.9931 101.177 36.0508C101.488 36.2625 101.8 36.224 101.8 36.224C101.8 36.224 101.722 36.0508 101.703 35.8392C101.664 35.5506 101.683 35.3198 101.683 35.3198L101.917 35.5699C101.917 35.5699 102.053 35.1081 101.976 34.2231C101.878 33.2034 101.644 32.8186 101.605 32.6647C101.527 32.4339 101.391 32.203 101.391 32.203C101.391 32.203 101.372 32.3184 101.196 32.4723C101.001 32.2222 100.651 31.7412 100.553 31.4142C100.495 31.5104 100.417 31.5873 100.358 31.6643L100.319 31.7028V31.6643C100.28 31.4142 100.144 31.241 100.008 31.0679C99.9103 30.9524 99.8129 30.8178 99.7739 30.7023C99.696 30.9717 99.6765 31.2603 99.657 31.5296C99.6375 31.799 99.6181 32.0106 99.5596 32.1645L99.6765 32.0876C99.735 32.0491 99.7739 32.0298 99.7934 32.0298H99.8129L99.8324 32.0683C99.7545 32.4146 99.6765 32.8186 99.657 33.0495C99.6181 33.3958 99.657 33.7037 99.6765 33.8576L99.9493 33.7037C99.9493 33.7037 99.7934 34.2039 99.8713 35.0504C99.8908 35.1851 99.8713 35.4352 99.8519 35.5121C100.008 35.4929 100.144 35.4159 100.222 35.3582C100.164 35.5891 100.105 35.7815 100.047 35.8585C99.8324 36.147 99.3843 36.224 99.0531 36.301C98.6439 36.4164 98.2348 36.4933 97.8646 36.6857C97.7477 36.7435 97.6113 36.8781 97.6503 36.9743C97.6892 37.0705 97.8256 37.0898 97.8841 37.0898L97.9035 37.1475C98.001 37.2822 98.2932 37.2052 98.3711 37.1667C98.4491 37.1282 98.5075 37.0705 98.527 37.0513C98.5075 37.0705 98.4101 37.032 98.3517 37.0128L98.3127 36.9551C98.2932 36.7819 99.0141 36.7627 99.131 36.7627C99.2479 36.7627 99.2869 36.7819 99.3258 36.8589C99.3843 36.9359 99.4232 37.0513 98.9946 37.513ZM99.3453 40.0141C99.2089 40.4566 98.9167 41.1108 98.4686 41.7264C98.2542 42.0343 97.923 42.3613 97.923 42.3613C97.923 42.3613 97.9035 42.419 97.8841 42.5152L97.8256 42.5537L98.1958 42.3613C98.2542 42.3228 98.3127 42.3036 98.3711 42.2651C98.6049 42.1305 98.8777 42.015 99.131 41.8996C99.3843 41.4378 99.696 40.8799 99.7934 40.7452C99.7544 40.8607 99.696 41.1685 99.4232 41.7841L99.6181 41.7072C100.027 41.5533 100.397 41.4186 100.573 41.3416C100.865 41.207 100.982 41.1108 101.099 41.0146L101.216 40.9184L100.923 40.6298L100.826 40.7067C100.826 40.7067 100.651 40.8607 100.495 40.726C100.358 40.6106 99.7544 39.9372 99.696 39.8795C99.6375 39.8025 99.5596 39.6871 99.7155 39.4754V39.4562C99.5207 39.283 99.5012 39.0522 99.5012 38.9367C99.4232 38.8405 99.3843 38.7059 99.4038 38.5327C99.3453 38.5712 99.2869 38.5904 99.2284 38.5712C99.17 38.6289 99.0725 38.6866 98.9751 38.6866H98.9362C98.8387 38.6866 98.7413 38.6674 98.6634 38.6097C98.5855 38.5327 98.5855 38.5519 98.5075 38.4173L98.488 38.398C98.1373 38.7636 97.8061 39.2253 97.3385 39.9564C96.754 40.8799 96.6176 41.207 96.5007 41.5533C96.8904 41.534 97.1047 41.4763 97.5918 40.9569C97.8256 40.726 98.4296 39.8217 98.8193 39.36C98.488 40.1488 98.1373 40.7452 97.8451 41.13C97.5139 41.5918 97.1632 41.8803 97.1632 41.8803C97.1632 41.8803 97.0073 41.9765 96.9294 42.4383C97.1827 42.4383 97.8646 42.0727 98.488 41.2262C98.7024 40.9569 98.8387 40.7645 99.3453 40.0141ZM103.495 42.977C103.495 43.4387 103.885 43.9005 103.963 43.9774C103.963 43.9774 104.099 43.8043 104.177 43.3425C103.865 43.2079 103.651 43.0732 103.495 42.977ZM106.145 43.5157C107.002 43.6311 108.834 43.5926 109.496 43.3425C109.243 43.1501 108.21 42.4768 106.613 41.8611C106.281 41.7264 105.853 41.5725 105.56 41.3609C105.385 41.2262 105.268 41.1493 105.093 40.9761C104.567 40.4951 103.183 39.0714 102.93 38.8021L102.015 39.6293C102.015 39.6293 104.45 41.9765 105.073 42.3036C105.853 42.7269 108.113 43.2271 108.113 43.2271C108.113 43.2271 106.398 43.0924 105.073 42.573C104.294 42.2651 101.8 39.841 101.8 39.841L101.196 40.3989C101.508 40.726 102.17 41.4763 103.261 42.3421C103.982 42.9577 104.898 43.3618 106.145 43.5157ZM107.859 39.3985C108.249 39.8795 108.853 40.7645 109.087 40.9953C109.593 41.5148 109.808 41.5725 110.178 41.5918C110.061 41.2454 109.925 40.8991 109.34 39.9757C109.028 39.4947 108.522 38.7059 107.996 38.1287C107.996 38.2249 107.996 38.3018 107.957 38.398L107.937 38.4558C107.898 38.5135 107.859 38.5712 107.801 38.6097C107.723 38.6674 107.606 38.6866 107.509 38.6866C107.411 38.6674 107.314 38.6289 107.255 38.5712C107.197 38.5712 107.139 38.552 107.061 38.5327C107.08 38.7059 107.041 38.8405 106.963 38.9367C106.963 39.0522 106.944 39.2638 106.768 39.437L106.788 39.4754C106.924 39.7063 106.866 39.8025 106.807 39.8795C106.749 39.9372 106.145 40.6106 106.009 40.726C105.853 40.8607 105.677 40.7067 105.677 40.7067L105.58 40.6298C105.58 40.6298 105.424 40.7837 105.307 40.8991L105.346 40.9376C105.541 41.1108 105.775 41.2454 106.028 41.3609C106.242 41.4571 106.885 41.688 107.333 41.8611C107.236 41.5533 107.119 41.1877 106.983 40.8222C107.1 40.9761 107.411 41.5148 107.665 41.9958H107.684C108.035 42.1497 108.502 42.3806 108.834 42.5922C108.814 42.4768 108.775 42.3998 108.775 42.3998C108.775 42.3998 108.444 42.0727 108.23 41.7649C107.782 41.13 107.509 40.4759 107.353 40.0526C107.859 40.8029 107.976 41.0146 108.171 41.2647C108.795 42.1112 109.477 42.4575 109.73 42.4768C109.632 42.015 109.477 41.8996 109.477 41.8996C109.477 41.8996 109.165 41.6495 108.834 41.1877C108.912 41.3032 108.99 41.3994 108.814 41.1685C108.678 40.9953 108.736 41.0531 108.814 41.1493C108.522 40.7645 108.191 40.168 107.859 39.3985ZM107.255 36.1086L107.665 36.2048C107.723 36.224 107.782 36.2432 107.859 36.2432C107.918 36.0508 107.957 35.8585 107.957 35.6661C107.957 35.4544 108.463 35.9162 108.795 36.2432C108.931 36.3779 108.97 36.3202 108.873 36.2048C108.541 35.743 107.859 35.3005 107.665 35.1851C107.333 34.9927 107.178 35.0312 107.294 35.2043C107.431 35.4544 107.411 35.7623 107.255 36.1086ZM106.652 32.0683L106.671 32.0298H106.71C106.729 32.0298 106.768 32.0491 106.827 32.0876L106.944 32.1645C106.866 32.0106 106.866 31.7797 106.846 31.5296C106.827 31.2603 106.827 30.9909 106.749 30.7408L106.729 30.7023C106.69 30.837 106.593 30.9524 106.496 31.0679C106.359 31.241 106.223 31.4334 106.184 31.6643V31.7028L106.145 31.6643C106.223 31.722 105.95 31.4334 105.95 31.4142C105.853 31.799 105.171 32.6263 105.015 32.7994C104.995 32.8186 104.742 33.2034 104.645 34.1269C104.547 35.0119 104.645 35.5506 104.645 35.5506L104.879 35.3005C104.879 35.3005 104.898 35.5506 104.859 35.82C104.84 36.0316 104.762 36.2048 104.762 36.2048C104.762 36.2048 105.229 36.2817 105.599 35.8585L105.658 36.0316C105.716 36.2048 105.755 36.3972 105.619 36.5126C105.599 36.5318 105.366 36.7242 105.405 36.9166C105.424 36.9743 105.444 37.0513 105.541 37.109V37.1282C105.541 37.2437 105.638 37.3014 105.677 37.3206C105.658 37.2244 105.677 37.1667 105.677 37.1475C105.736 37.032 105.814 36.9936 105.892 36.9936L106.009 37.0128C106.009 37.0128 106.067 37.5515 106.106 37.7631C106.145 37.9555 106.203 38.2056 106.223 38.475C106.223 38.5327 106.242 38.5904 106.242 38.6674C106.262 38.8405 106.379 38.8598 106.476 38.879H106.71H106.69C106.554 38.9175 106.554 38.9752 106.574 38.9945C106.593 39.0714 106.632 39.1676 106.593 39.3408L106.613 39.36C106.827 39.2446 106.827 39.0522 106.807 38.879V38.8598H106.827C106.983 38.7636 106.944 38.4558 106.71 37.9555C106.593 37.7247 106.554 37.3399 106.632 37.3014H106.652C106.69 37.3014 106.729 37.3014 106.846 37.4553C106.924 37.5707 107.002 37.6477 107.1 37.7824C107.197 37.8978 107.255 37.994 107.255 38.0902L107.236 38.1672L107.158 38.1864L107.002 38.1672C107.061 38.2249 107.255 38.4365 107.314 38.3788C107.45 38.2056 107.333 38.475 107.587 38.5135C107.743 38.5135 107.879 38.4173 107.879 38.2056C107.879 38.1287 107.859 38.0902 107.859 38.0325C107.821 37.8401 107.684 37.6669 107.606 37.59L107.548 37.5323C107.119 37.0705 107.158 36.9551 107.178 36.9166C107.217 36.8397 107.256 36.8204 107.372 36.8204C107.548 36.8204 107.723 36.8397 107.743 36.8397C107.918 36.8781 108.21 36.9166 108.191 37.0128L108.152 37.0705C108.093 37.0898 107.996 37.1282 107.976 37.109C107.996 37.1282 108.054 37.186 108.132 37.2244C108.21 37.2629 108.502 37.3399 108.6 37.2052L108.639 37.1475C108.697 37.1475 108.834 37.1282 108.873 37.032C108.892 36.9359 108.775 36.8204 108.658 36.7435C108.561 36.6857 108.269 36.5703 108.015 36.5126C107.918 36.4933 107.801 36.4549 107.704 36.4356L107.178 36.301C107.158 36.301 106.885 36.2048 106.788 36.1663L106.671 36.1086C106.574 36.0701 106.515 36.0124 106.457 35.9162C106.398 35.8392 106.34 35.6276 106.281 35.3967C106.34 35.4352 106.496 35.5314 106.69 35.5699C106.671 35.4929 106.652 35.2428 106.671 35.1081C106.749 34.2616 106.768 33.7806 106.768 33.7806L106.944 33.9538C106.963 33.7999 106.924 33.4535 106.885 33.1072C106.788 32.8186 106.729 32.4146 106.652 32.0683ZM108.795 25.4692C108.873 25.1807 108.873 24.7959 108.834 24.488C108.697 24.7959 108.541 25.4308 108.58 26.0272C108.639 25.854 108.736 25.6616 108.795 25.4692ZM107.976 27.2008C108.21 26.3927 108.347 25.9117 108.347 25.2384C108.132 25.4692 107.957 26.335 107.976 27.2008ZM107.217 26.4697C107.509 25.5847 107.255 25.1422 107.1 25.046C107.1 25.45 107.197 25.6424 107.217 26.4697ZM107.041 30.2791C107.178 28.5283 107.489 27.4701 107.723 26.5659C106.788 27.5856 106.924 29.9135 107.041 30.2791ZM111.25 29.7019C111.191 30.1444 111.191 30.5292 111.308 30.9524C111.522 30.6831 111.659 30.4137 111.834 29.9328C111.834 30.3175 111.951 30.76 112.029 30.9332C112.321 30.5292 112.477 28.8746 112.477 28.8746C112.477 28.8746 112.477 28.9131 112.633 28.9708C112.789 28.3744 112.711 27.1815 112.574 26.6044C112.36 25.6039 111.951 24.3918 110.724 22.9489C110.081 22.1986 109.555 22.5449 109.009 23.1221C108.132 24.0648 107.957 24.4688 106.905 24.6612C106.807 24.6804 106.885 24.7382 107.08 24.7189C108.327 24.6997 108.717 23.8724 109.106 23.4684C109.36 23.199 109.671 22.9489 109.944 23.1028C110.042 23.1605 110.392 23.5453 110.042 24.5265C110.042 24.2956 109.964 24.1225 109.905 24.0648C109.749 24.6997 109.516 25.2191 109.262 25.6616C109.223 25.5462 109.204 25.45 109.184 25.3153C109.067 26.1041 108.347 26.9122 108.249 28.0281C108.171 27.9126 108.113 27.8357 108.113 27.5471C107.567 28.5283 107.022 30.2791 107.372 31.1641C107.353 30.2791 107.918 28.99 108.21 28.586C107.84 29.7404 107.411 31.1448 107.782 32.0106C107.801 31.2795 108.23 30.0867 108.541 29.5865C108.035 31.4719 107.821 32.4339 108.386 33.165C108.288 32.4531 108.58 31.3757 108.97 30.5099C108.697 31.9914 108.327 33.2612 109.028 33.9153C108.931 32.9533 109.301 31.6643 109.496 31.2218C109.262 32.6455 109.067 34.0115 109.535 34.7041C109.535 34.2039 109.632 33.7037 109.73 33.2227C109.847 32.607 110.042 32.0106 110.042 32.0106C110.042 32.0106 109.905 33.011 109.808 34.2039C109.788 34.3963 109.788 34.6079 109.788 34.8195C109.788 35.0696 109.808 35.3198 109.866 35.5699C109.905 35.7815 109.964 35.9931 110.081 36.1855C110.197 34.5887 110.392 33.2034 110.607 32.5493C110.607 32.5493 110.412 34.05 110.295 36.3587C110.295 36.4356 110.295 36.5126 110.275 36.6088C110.12 39.9179 110.568 40.9761 110.724 41.2839C110.724 41.2839 110.685 41.2262 110.685 40.8029C110.665 40.4374 110.665 40.4759 110.704 40.0719C110.724 39.9564 110.412 39.3408 110.451 38.5327C110.47 38.0325 110.509 37.5515 110.548 37.0705C110.587 36.628 110.626 36.2048 110.665 35.8007C110.724 35.4352 110.743 35.0696 110.801 34.7041C110.879 34.1654 110.977 33.6459 111.074 33.1072C111.152 32.684 111.113 33.0495 111.094 33.165C111.055 33.6459 110.957 34.6849 110.879 35.743C110.821 36.5318 110.646 38.1287 110.685 38.879C110.724 39.5332 110.918 39.841 110.899 39.9372C110.86 41.2262 110.996 41.7457 111.211 42.2267C111.211 42.2267 111.347 41.7649 111.444 41.1877C111.425 41.2262 111.386 41.2839 111.308 41.3032C111.152 40.8799 111.055 40.1488 111.172 39.3985C111.191 39.2638 110.996 39.0907 110.996 38.4942C111.016 37.5515 111.152 36.5895 111.269 35.6661C111.308 35.3582 111.347 35.0504 111.405 34.7618C111.444 34.5694 111.464 34.3963 111.503 34.2039C111.542 33.896 111.6 33.6075 111.659 33.3189L111.678 33.1842C111.678 33.1842 111.678 33.3958 111.639 33.6844C111.542 34.9542 111.25 38.2056 111.25 38.4558C111.23 39.0907 111.405 39.283 111.405 39.3985C111.366 39.8602 111.386 40.7067 111.444 40.9184C111.503 40.726 111.542 40.3797 111.542 40.3797C111.542 40.3797 111.717 39.0714 111.931 37.186C111.97 36.8974 111.99 36.6088 112.029 36.3202C112.048 36.0508 112.087 35.7623 112.107 35.4929C112.146 35.1658 112.165 34.8195 112.204 34.4925C112.224 34.3386 112.224 34.2039 112.243 34.05C112.321 33.165 112.419 32.1645 112.477 31.2987C112.477 31.2987 112.594 29.875 112.633 29.4325L112.555 29.3748C112.555 29.3748 112.399 31.1448 111.912 31.7605C111.776 31.6451 111.639 30.9909 111.639 30.76C111.542 31.1064 111.094 31.5873 111.094 31.5873C111.094 31.5873 110.938 31.241 110.957 30.6638C110.801 30.8755 110.685 31.0294 110.47 31.1448C110.392 30.9524 110.275 30.7216 110.295 30.1636C110.217 30.2598 110.081 30.3945 109.886 30.5099C109.827 30.3753 109.516 29.875 110.081 28.0281C109.847 29.7211 109.983 29.9328 110.042 30.0674C110.139 30.029 110.236 29.952 110.314 29.8943C110.334 29.5864 110.392 29.1824 110.49 28.6822C110.412 30.029 110.509 30.4522 110.626 30.7216C110.821 30.5484 110.996 30.2983 111.25 29.7019ZM115.049 17.9659C114.133 18.1583 113.568 18.1391 113.217 18.1391C112.984 18.6201 112.808 19.0818 112.808 19.9283C112.438 19.8129 112.243 19.7167 112.048 19.5051C111.795 19.8514 111.639 20.0438 111.366 20.3901C113.763 24.6035 113.763 28.4898 113.802 29.5865C115.653 28.5475 116.841 27.5471 117.075 27.3547C116.861 23.4491 116.257 20.5055 115.049 17.9659ZM115.731 41.5725C114.815 43.3425 113.685 44.4392 112.146 45.4011C109.886 46.8248 107.528 46.4785 106.768 46.036L106.846 46.2284L106.924 46.4208C107.236 47.2289 107.022 48.0562 105.911 48.1908C105.619 48.2293 105.288 48.2293 104.918 48.4025C104.645 48.5371 104.352 48.7295 104.021 49.0566C103.885 49.1913 103.593 49.5568 103.456 49.8454C103.32 49.5568 103.028 49.1913 102.891 49.0566C102.56 48.7295 102.268 48.5179 101.995 48.4025C101.605 48.2293 101.294 48.2101 101.001 48.1908C99.8908 48.0562 99.696 47.2289 99.9882 46.4208L100.066 46.2477L100.144 46.0553C99.5791 46.3823 98.1958 46.6324 96.5787 46.1899L96.4228 46.1515C95.1174 45.8052 93.9679 45.1703 92.9938 44.266C91.8248 43.1694 91.1818 41.9958 90.9285 41.5533C88.7854 37.1667 89.0776 30.6446 89.0776 29.952C88.9997 22.4294 90.6947 18.216 92.1365 16.1767C91.7079 15.5995 91.4351 15.2724 91.4156 15.2532C91.2792 15.1185 91.026 14.8876 90.4999 14.8107C90.3635 13.8295 89.9933 12.6559 89.9933 12.6559C89.9933 12.6559 90.987 13.3677 91.9222 13.7718C91.8443 14.272 91.9806 14.5606 92.117 14.753C92.1365 14.7722 92.3508 15.0608 92.682 15.5033C93.325 14.7145 94.0069 14.1373 95.0785 13.5217C95.3317 13.3677 95.6045 13.2331 95.9163 13.0984C95.8968 12.6944 96.0331 12.3096 96.3059 12.0402C96.3254 11.8094 96.5202 11.5208 96.754 11.4246C97.0073 11.3669 97.3775 11.4823 97.5528 11.6362C97.962 11.6939 98.3517 11.9056 98.6244 12.2134C99.5012 12.021 100.514 11.8863 101.664 11.8286C101.8 11.2707 102.17 10.8666 102.618 10.655C102.735 10.4241 103.067 10.174 103.359 10.1548C103.651 10.174 103.982 10.4049 104.099 10.655C104.547 10.8666 104.918 11.2707 105.054 11.8286C106.203 11.9056 107.217 12.0402 108.093 12.2134C108.386 11.9056 108.756 11.6939 109.165 11.6362C109.34 11.4631 109.71 11.3476 109.964 11.4246C110.197 11.5208 110.392 11.8094 110.412 12.0402C110.685 12.3096 110.821 12.6944 110.801 13.0984C111.094 13.2331 111.366 13.3677 111.639 13.5217C112.711 14.1373 113.451 14.7914 114.075 15.5225C114.464 15.0223 114.698 14.7145 114.698 14.6953C114.834 14.5221 114.951 14.2143 114.893 13.7141C115.828 13.31 116.822 12.6174 116.822 12.6174C116.822 12.6174 116.452 13.791 116.315 14.7722C115.809 14.8492 115.555 15.0608 115.399 15.2147C115.38 15.234 115.068 15.6187 114.581 16.2729C116.023 18.3315 117.679 22.5064 117.621 29.9712C117.582 30.5484 117.874 37.186 115.731 41.5725ZM98.7413 15.965C98.8777 16.0228 98.9751 16.0805 99.131 16.1382C99.2284 16.0228 99.2869 15.965 99.4038 15.8304C99.2479 15.7727 99.1505 15.7149 98.9946 15.6572C98.9167 15.7534 98.8193 15.8881 98.7413 15.965ZM106.164 14.5798C106.145 14.5798 106.048 14.6375 105.989 14.7722C106.048 14.8492 106.145 14.8876 106.301 14.9069H106.379C106.457 14.7337 106.301 14.5221 106.164 14.5798ZM109.438 15.4456C109.379 15.6572 109.204 15.7919 109.106 15.9266C108.541 15.7149 107.294 15.4071 106.613 15.3301C106.437 15.5225 106.145 15.7919 105.853 15.8688C105.424 15.8111 105.151 15.7149 104.859 15.5803C105.015 15.5995 105.073 15.5803 105.19 15.5803C105.619 15.561 105.989 15.4456 106.262 15.2724C105.658 15.1762 105.521 15.0223 105.814 14.6568C105.95 14.4836 106.164 14.1758 106.476 14.2527C106.729 14.3105 106.788 14.6568 106.749 14.9261C107.45 15.0031 108.327 15.2532 109.009 15.4648C109.048 15.2724 108.931 15.1762 108.853 15.0416C108.951 14.9454 109.106 14.8107 109.223 14.7337C109.399 14.8492 109.496 15.234 109.438 15.4456ZM106.71 15.7534C106.807 15.8496 106.885 15.9266 107.002 16.042C107.158 15.965 107.217 15.9266 107.392 15.8304C107.275 15.7149 107.217 15.6572 107.1 15.5418C106.963 15.6187 106.807 15.6957 106.71 15.7534ZM109.769 15.6187C109.632 15.9266 109.516 16.2344 109.36 16.5037C109.457 16.5422 109.574 16.4653 109.652 16.4075C110.061 16.1574 110.353 15.4841 110.509 15.0993C110.509 15.08 110.275 15.1378 110.139 15.1955C109.925 15.3109 109.886 15.3686 109.769 15.6187ZM109.964 15.0223C110.295 15.0031 110.587 15.08 110.724 14.9261C110.529 14.8684 110.314 14.8107 110.236 14.7145C110.314 14.6375 110.451 14.7337 110.509 14.7914L110.626 14.676C110.412 14.5029 110.081 14.5991 110.003 14.7914C110.061 14.8299 110.159 14.8492 110.197 14.8876C110.139 14.9069 110.003 14.9838 109.964 15.0223ZM97.8061 16.2344C97.7087 16.1959 97.6308 16.1767 97.5139 16.1382C97.4359 16.2536 97.358 16.3883 97.2996 16.4845C97.4359 16.523 97.5528 16.5615 97.7087 16.6192C97.7672 16.523 97.8061 16.4653 97.8646 16.3883C97.962 16.4075 98.0399 16.446 98.1568 16.4845C98.2348 16.3498 98.2737 16.2921 98.3711 16.1382C98.2153 16.0997 98.1179 16.0612 97.9425 16.0035C97.8841 16.0805 97.8451 16.1574 97.8061 16.2344ZM104.664 14.4836C104.469 14.1566 103.69 14.4451 103.203 14.6568C103.476 14.6568 103.729 14.6375 104.021 14.6568C104.138 14.6568 104.469 14.6568 104.664 14.676C104.684 14.5798 104.703 14.5413 104.664 14.4836ZM104.995 15.08C103.359 14.9838 100.125 15.157 98.5465 15.5803C98.5465 15.5803 98.3711 15.1762 98.2348 15.0223C97.8061 14.5798 97.6503 15.0608 97.6308 15.1185C98.1568 15.157 98.2542 15.4263 98.2542 15.4263C98.1373 15.6572 98.0399 15.7342 97.7477 15.9266C97.6503 15.9843 97.319 16.1959 96.8514 16.2344C95.8578 16.2729 96.1306 15.2532 96.7345 14.8492C96.6566 14.9454 96.3059 15.4841 96.5202 15.7534C96.7735 16.0612 97.6892 15.8111 97.9035 15.5418C97.7866 15.4263 97.5528 15.3879 97.2216 15.4263C97.2411 15.2724 97.319 14.8492 97.7866 14.4451C97.962 14.4836 98.4491 14.7337 98.6049 15.157C100.066 14.7722 102.716 14.6568 102.852 14.6568C102.813 14.4067 102.735 13.4639 102.735 13.4062C102.716 13.2523 102.833 13.1754 102.93 13.1176C103.047 13.31 103.145 13.387 103.398 13.4832C103.3 13.5986 103.203 13.6371 103.106 13.7333C103.125 13.9257 103.145 14.272 103.145 14.4067C103.378 14.3105 103.71 14.1758 104.119 14.0796C104.255 14.0411 104.45 14.0219 104.567 14.0411C104.703 14.0604 104.879 14.1373 104.956 14.195C105.015 14.2528 105.112 14.3682 105.112 14.5029C105.112 14.7145 105.054 14.9261 104.995 15.08ZM102.209 19.9283L101.976 19.9476L102.131 20.063L102.209 20.0245V19.9283ZM102.326 19.9283C102.326 19.9283 102.365 20.0053 102.346 20.14C102.326 20.2746 102.268 20.4093 102.053 20.4478C101.839 20.5055 101.605 20.3708 101.605 20.14C101.605 20.0822 101.625 20.0053 101.644 19.9476C101.566 19.9476 101.566 20.0053 101.488 20.1015C101.449 20.1592 101.372 20.14 101.274 20.2169C101.274 20.0822 101.43 19.8706 101.586 19.8129C101.839 19.6975 102.677 19.6782 103.261 19.9668C103.047 19.9283 102.872 19.9476 102.677 19.9283C102.443 19.9283 102.326 19.9283 102.326 19.9283ZM104.469 13.4639C104.333 13.3677 104.255 13.31 104.119 13.2138C104.002 13.2908 103.865 13.4062 103.787 13.4639C103.904 13.5601 103.982 13.6179 104.119 13.7141C104.255 13.6179 104.314 13.5601 104.469 13.4639ZM100.962 20.2169C100.923 20.2362 100.884 20.3516 101.021 20.3516C101.138 20.3516 101.157 20.2362 101.157 20.2362L100.962 20.2169ZM104.586 21.1981C104.567 21.1212 104.372 20.8711 103.982 20.7749C104.099 20.8711 104.158 21.0635 104.197 21.1212C104.119 21.1596 103.904 21.1789 103.826 21.1981C103.963 21.3136 104.236 21.3328 104.586 21.1981ZM103.749 20.5055C103.515 20.2362 103.203 20.14 103.047 20.1015C103.222 20.3324 103.417 20.5248 103.749 20.5055ZM103.534 20.1207C103.651 20.2554 104.06 20.4093 104.275 20.6209C104.255 20.2746 103.963 20.0822 103.534 20.1207ZM103.378 24.9498C102.911 25.6232 103.378 26.335 103.378 26.335C103.378 26.3158 103.69 25.3923 103.378 24.9498ZM104.158 27.6433C104.158 27.6433 104.684 27.1623 104.723 26.2003C104.43 26.6813 104.119 26.9507 104.119 26.9507C104.119 26.9507 103.846 26.7583 103.612 26.4889C103.593 27.1046 104.158 27.6433 104.158 27.6433ZM103.534 23.4491C103.125 23.8916 103.378 24.2572 103.378 24.2572C103.378 24.2572 103.885 23.7185 103.534 23.4491ZM104.119 21.8138C104.255 21.9485 104.684 22.0447 104.918 22.2563C104.879 21.91 104.508 21.6791 104.119 21.8138ZM104.762 22.8912C104.762 22.6411 104.684 22.1986 104.099 22.1216C104.06 22.4102 104.567 22.6026 104.762 22.8912ZM104.528 23.6992C104.255 23.9878 104.508 24.565 104.664 25.0652C104.801 24.8151 104.976 23.9686 104.528 23.6992ZM105.95 25.0075C105.794 25.7194 105.483 25.9695 105.483 25.9695C105.483 25.9695 105.229 25.7771 105.034 25.5077C105.015 26.0849 105.521 26.6236 105.502 26.6236C105.502 26.6236 106.106 26.1426 105.95 25.0075ZM105.19 22.5834C105.132 22.9104 105.658 23.3914 105.658 23.3914C105.658 23.3722 105.716 22.7757 105.19 22.5834ZM106.106 24.0648C106.067 24.4303 106.496 25.2769 106.515 25.3538C106.515 25.2769 106.749 24.5842 106.106 24.0648ZM102.677 28.4321C102.794 28.182 103.125 27.7202 102.95 26.9314C102.891 27.5278 102.502 27.778 102.502 27.778C102.502 27.778 102.287 27.6625 102.112 27.297C102.19 28.0281 102.463 28.2397 102.677 28.4321ZM102.287 23.9686C101.625 24.4688 101.937 24.9305 102.053 25.1807C102.19 24.7189 102.248 24.5842 102.287 23.9686ZM101.956 25.4885C101.508 26.0464 102.209 26.739 102.19 26.739C102.19 26.739 102.248 25.7001 101.956 25.4885ZM100.28 27.6818C100.183 27.1238 100.222 26.739 99.9493 26.2581C99.8713 26.8352 100.222 27.5856 100.28 27.6818ZM100.865 24.7766C101.06 24.1225 101.43 23.7377 101.566 23.3529C100.884 23.8339 100.748 24.5458 100.865 24.7766ZM101.157 26.4889C101.157 26.7775 101.157 27.0276 101.079 27.3355C100.884 27.297 100.807 27.1623 100.67 27.0469C100.787 27.4124 101.255 27.8549 101.333 27.9704C101.391 27.4509 101.411 26.8352 101.157 26.4889ZM100.69 27.7395C100.534 28.3936 101.196 29.0285 101.196 29.0477C101.196 29.0477 101.196 28.2589 100.69 27.7395ZM100.884 29.5095C101.118 29.8943 101.294 30.0674 101.469 30.2406C101.177 29.8173 100.962 29.0093 100.67 28.7976C100.651 28.9131 100.748 29.2786 100.884 29.5095ZM100.066 25.6424C100.008 25.3153 100.417 25.0267 100.28 24.488C99.8713 24.9498 99.9493 25.373 100.066 25.6424ZM102.463 30.1252C102.385 30.1059 101.976 29.7404 101.859 29.5095C101.917 29.875 102.443 30.6061 102.677 30.76C102.755 30.6254 103.067 30.029 102.794 29.0862C102.677 29.6442 102.56 29.9328 102.463 30.1252ZM104.236 28.4513C104.119 28.8554 103.943 29.1055 103.651 29.3941C103.534 29.2786 103.398 29.1439 103.222 28.7976C103.164 29.4518 103.534 29.8366 103.749 29.9712C103.885 29.875 104.333 29.2594 104.236 28.4513ZM105.112 30.1829C105.521 29.6826 105.736 29.1247 105.56 28.5283C105.19 29.0862 105.19 29.6634 105.112 30.1829ZM104.119 31.0486C104.236 30.7793 104.547 30.2598 104.469 29.6826C104.236 29.9135 104.099 30.7023 104.119 31.0486ZM106.262 27.8549C106.437 27.5663 106.71 27.1431 106.496 26.893C106.398 27.1623 106.34 27.4701 106.262 27.8549ZM104.918 28.7976C104.918 28.7976 105.599 28.1435 105.58 27.3355C105.385 27.8742 104.918 28.105 104.918 28.105C104.918 28.105 104.664 27.9511 104.547 27.5856C104.45 28.4129 104.918 28.7976 104.918 28.7976ZM106.184 26.9507C106.184 26.9314 106.632 26.1811 106.379 25.7771C106.087 25.8348 106.184 26.9507 106.184 26.9507ZM106.164 28.2397C105.892 28.586 105.833 29.3941 105.736 29.6634C105.833 29.5672 106.32 28.4321 106.164 28.2397ZM103.106 32.0876C103.242 31.6451 103.222 31.1256 103.028 30.8947C102.911 31.3372 102.911 31.7412 103.106 32.0876ZM103.534 33.2227C103.671 32.8379 103.671 32.3761 103.515 32.1645C103.378 32.5685 103.378 32.9341 103.534 33.2227ZM104.099 32.8571C104.216 32.5685 104.489 32.2799 104.469 31.3372C104.177 31.6258 104.06 32.4916 104.099 32.8571ZM102.346 32.1645C102.287 31.9529 102.17 31.241 101.878 30.9332C101.761 31.4334 102.112 31.9336 102.346 32.1645ZM105.775 32.7802C105.775 32.7802 105.775 32.5685 105.697 32.4916C105.638 32.7417 105.288 33.2996 105.366 33.9345C105.521 33.3766 105.97 33.2612 106.087 32.7225C106.184 32.7802 106.262 32.8186 106.359 32.8186C106.301 32.607 106.145 32.3954 106.106 31.9721C106.067 32.126 106.009 32.5493 105.775 32.7802ZM101.138 33.896C101.216 33.2612 100.865 32.7225 100.807 32.4531C100.729 32.5301 100.729 32.7417 100.729 32.7417C100.495 32.5108 100.436 32.0683 100.397 31.9336C100.339 32.3569 100.183 32.5878 100.144 32.7802C100.242 32.7802 100.319 32.7417 100.417 32.684C100.534 33.2227 100.962 33.3381 101.138 33.896ZM97.6503 27.9896C97.6503 27.9896 97.4359 27.9319 97.319 27.778C97.4165 28.2205 97.8256 28.4129 97.8256 28.4129C97.8256 28.4129 98.1763 27.6048 97.397 26.4504C97.8061 27.6818 97.6503 27.9896 97.6503 27.9896ZM97.1827 29.2017C97.1827 29.2017 96.9878 29.1247 96.8709 28.9708C96.9294 29.2979 97.0463 29.4325 97.358 29.6442C97.5139 29.1632 97.6113 28.7784 96.9099 27.3547C97.3775 28.7399 97.1827 29.2017 97.1827 29.2017ZM94.3381 28.5283C94.3381 28.5283 94.1433 28.2205 94.1043 27.4124C93.929 28.2782 94.2602 28.7976 94.2602 28.7976C94.2602 28.7976 94.494 28.6437 94.4745 28.3936C94.455 28.4513 94.3381 28.5283 94.3381 28.5283ZM94.7667 28.105C94.7667 28.105 94.5524 27.778 94.4745 26.8545C94.3186 27.8549 94.7278 28.4129 94.7278 28.4129C94.7278 28.4129 94.9811 28.2397 94.9616 27.9511C94.9226 28.0281 94.7667 28.105 94.7667 28.105ZM96.6566 25.6424C96.4618 25.4308 96.1695 25.1229 95.8773 24.0071C95.9162 24.9498 96.4033 25.8348 96.754 26.1426C96.9294 25.9117 96.9489 25.1999 96.7151 24.6804C96.6956 24.6804 96.7345 25.2576 96.6566 25.6424ZM96.15 26.4312C95.9747 26.2003 95.663 25.7194 95.4681 24.5842C95.4097 25.527 95.8773 26.5466 96.189 26.8737C96.3838 26.6428 96.4423 26.2003 96.2475 25.6809C96.2475 25.6809 96.2864 26.0464 96.15 26.4312ZM95.6824 27.0276C95.5266 26.7968 95.3123 26.4889 95.1174 25.1037C95.0785 26.3543 95.4097 27.0853 95.7019 27.4509C95.9162 27.2393 95.9552 26.8545 95.8968 26.6044C95.8968 26.6044 95.7993 26.9314 95.6824 27.0276ZM95.2149 27.6048C95.0785 27.3932 94.9811 27.1431 94.8642 25.9117C94.7862 27.0276 94.9616 27.701 95.2149 28.0281C95.4097 27.8549 95.4681 27.5086 95.4292 27.2777C95.4292 27.2777 95.3318 27.5471 95.2149 27.6048ZM112.165 28.3551C112.165 28.6052 112.38 28.7592 112.38 28.7592C112.38 28.7592 112.711 28.2397 112.535 27.3739C112.496 28.182 112.302 28.4898 112.302 28.4898C112.302 28.4898 112.185 28.4129 112.165 28.3551ZM111.698 27.9319C111.678 28.2205 111.931 28.3936 111.931 28.3936C111.931 28.3936 112.341 27.8164 112.185 26.8352C112.107 27.7587 111.893 28.0858 111.893 28.0858C111.893 28.0858 111.717 27.9896 111.698 27.9319ZM110.003 25.6039C109.905 25.2191 109.964 24.642 109.964 24.642C109.73 25.1614 109.749 25.854 109.925 26.1041C110.275 25.7963 110.762 24.9113 110.801 23.9686C110.49 25.0845 110.197 25.3923 110.003 25.6039ZM110.49 26.3927C110.353 26.0079 110.392 25.6424 110.392 25.6424C110.197 26.1811 110.256 26.6236 110.451 26.8352C110.762 26.5082 111.23 25.4885 111.172 24.5458C110.996 25.6809 110.665 26.1619 110.49 26.3927ZM111.542 25.0652C111.347 26.4312 111.133 26.7583 110.977 26.9891C110.86 26.9122 110.762 26.5659 110.762 26.5659C110.704 26.816 110.743 27.2008 110.957 27.4124C111.25 27.0469 111.581 26.3158 111.542 25.0652ZM111.795 25.8733C111.678 27.1046 111.561 27.3547 111.444 27.5663C111.327 27.4894 111.25 27.2393 111.25 27.2393C111.211 27.4701 111.269 27.7972 111.464 27.9896C111.698 27.6625 111.873 26.9891 111.795 25.8733ZM109.009 27.9511C109.009 27.9511 108.834 27.6433 109.262 26.412C108.483 27.5663 108.834 28.3744 108.834 28.3744C108.834 28.3744 109.243 28.182 109.34 27.7395C109.223 27.8934 109.009 27.9511 109.009 27.9511ZM109.769 28.9323C109.71 29.2594 109.593 29.3941 109.282 29.6057C109.126 29.1247 109.028 28.7399 109.73 27.3162C109.262 28.7207 109.457 29.1824 109.457 29.1824C109.457 29.1824 109.652 29.0862 109.769 28.9323Z" fill="black"/>
<path d="M2.95166 33.8726C3.88966 33.8726 4.35889 34.3033 4.35889 35.1646V35.3794H3.74561C3.74561 34.7531 3.47501 34.4401 2.93408 34.4399C2.62743 34.4399 2.39238 34.5381 2.26611 34.7534C2.14004 34.9686 2.06793 35.2228 2.06787 35.5552V37.2974C2.06787 37.8455 2.1399 38.1983 2.30225 38.3745C2.46459 38.5507 2.66346 38.6284 2.89795 38.6284C3.27662 38.6284 3.56527 38.5506 3.74561 38.4136V36.8862H2.86182V36.3384H4.34033V38.8247C3.92554 39.079 3.45652 39.1968 2.91553 39.1968C2.42858 39.1967 2.04941 39.0402 1.81494 38.7466C1.56242 38.453 1.45459 37.9435 1.45459 37.2192V35.5552C1.45471 34.4397 1.95974 33.8726 2.95166 33.8726ZM7.26318 33.8726C7.7412 33.8726 8.09538 34.0299 8.34326 34.3257C8.59116 34.6215 8.71533 35.0356 8.71533 35.5483V37.2446C8.71528 37.9149 8.59099 38.4077 8.36084 38.7231C8.13066 39.0386 7.75891 39.1967 7.26318 39.1968C6.73193 39.1968 6.3596 39.0389 6.12939 38.7036C5.91693 38.4078 5.81106 37.9148 5.81104 37.2642V35.5679C5.81106 35.0355 5.93521 34.6214 6.18311 34.3257C6.43102 34.03 6.78515 33.8726 7.26318 33.8726ZM11.395 38.6382L12.4712 34.356H13.0718L11.73 39.1968H11.0239L9.68311 34.356H10.3188L11.395 38.6382ZM16.4243 34.896H14.6353V36.4409H16.2847V36.981H14.6353V38.6567H16.4595V39.1968H14.0396V34.356H16.4243V34.896ZM19.0845 34.356C19.4567 34.356 19.7362 34.4677 19.9409 34.6724C20.1456 34.8771 20.2572 35.1752 20.2573 35.5659C20.2573 36.1802 19.9594 36.5528 19.3452 36.6831C19.6058 36.7017 19.7921 36.7949 19.9224 36.9438C20.0527 37.0928 20.1274 37.3352 20.146 37.7075C20.1646 38.3404 20.2199 38.8245 20.3315 39.1968H19.6802C19.6243 39.1037 19.5689 38.8988 19.5503 38.564C19.5317 38.2475 19.5123 37.9117 19.4937 37.5952C19.4749 37.1859 19.2332 36.9624 18.7866 36.9624H18.0601V39.1782H17.4272V34.356H19.0845ZM24.1206 38.5269V34.356H24.688V39.1968H23.8179L21.8677 34.9702V39.1968H21.3003V34.356H22.1899L24.1206 38.5269ZM28.3091 38.4331L29.5103 34.356H30.4966V39.1968H29.8872V34.9146L28.5786 39.1968H28.0229L26.6958 34.8774V39.1968H26.1401V34.356H27.1079L28.3091 38.4331ZM34.3335 34.896H32.5493V36.4409H34.2095V36.981H32.5493V38.6567H34.3687V39.1968H31.9487V34.356H34.3335V34.896ZM38.1606 38.5269V34.356H38.7251V39.1968H37.8589L35.9019 34.9702V39.1968H35.3374V34.356H36.2407L38.1606 38.5269ZM42.5972 34.896H41.4458V39.1968H40.8618V34.896H39.6929V34.356H42.5972V34.896ZM46.7114 33.8726C47.2692 33.8726 47.6829 34.0299 47.9722 34.3257C48.2613 34.6215 48.4058 35.0357 48.4058 35.5483V37.2446C48.4057 37.9148 48.2611 38.4077 47.9927 38.7231C47.7241 39.0387 47.2899 39.1968 46.7114 39.1968C46.0917 39.1968 45.6577 39.0388 45.3892 38.7036C45.1413 38.4078 45.0171 37.9148 45.0171 37.2642V35.5679C45.0171 35.0355 45.1625 34.6214 45.4517 34.3257C45.7409 34.03 46.1538 33.8726 46.7114 33.8726ZM51.7935 34.896H50.0063V36.4409H51.7007V36.981H50.0063V39.1968H49.3735V34.356H51.7935V34.896ZM57.6021 39.1968H56.8833L56.5327 38.0425H54.6704L54.3198 39.1968H53.73L55.2417 34.356H56.0347L57.6021 39.1968ZM63.145 37.4204C63.1451 37.8733 63.2281 38.181 63.3726 38.3804C63.5378 38.5616 63.7854 38.6703 64.1157 38.6704C64.4669 38.6704 64.7151 38.5802 64.8804 38.3989C65.0457 38.2176 65.1284 37.8912 65.1284 37.438V34.3921H65.8306V37.3833C65.8306 38.0359 65.6862 38.4897 65.397 38.7798C65.1078 39.0697 64.6947 39.1967 64.1372 39.1968C63.5795 39.1968 63.1246 39.0516 62.856 38.7798C62.5874 38.5079 62.4429 38.0359 62.4429 37.3833V34.356H63.145V37.4204ZM69.9038 34.356C70.4823 34.356 70.9163 34.5053 71.2056 34.8218C71.4947 35.1383 71.6391 35.7339 71.6392 36.6646C71.6392 37.7629 71.4736 38.4516 71.1431 38.7495C70.8125 39.0473 70.3168 39.1968 69.6558 39.1968H68.2515V34.356H69.9038ZM73.2319 36.4409H74.8862V34.356H75.5112V39.1968H74.8862V36.981H73.2319V39.1968H72.6069V34.356H73.2319V36.4409ZM80.3521 39.1968H79.6694L79.3188 38.0425H77.4565L77.1069 39.1968H76.48L77.9917 34.356H78.7847L80.3521 39.1968ZM86.1606 39.1968H85.6763V34.356H86.1606V39.1968ZM59.8833 34.356C60.317 34.356 60.6686 34.4677 60.9165 34.6724C61.1644 34.8771 61.309 35.1567 61.3091 35.5103C61.3091 36.1618 60.9577 36.5529 60.2759 36.646C61.0816 36.7018 61.4741 37.0929 61.4741 37.8188C61.4741 38.2843 61.3296 38.6199 61.061 38.8433C60.7925 39.0664 60.4208 39.1782 59.9253 39.1782H58.0864V34.356H59.8833ZM82.8608 34.356C83.2323 34.356 83.5332 34.4678 83.7456 34.6724C83.9581 34.8771 84.0825 35.1567 84.0825 35.5103C84.0825 36.1618 83.7812 36.5529 83.1968 36.646C83.8874 36.7018 84.2241 37.0929 84.2241 37.8188C84.2241 38.2843 84.0998 38.6199 83.8696 38.8433C83.6395 39.0665 83.3207 39.1782 82.896 39.1782H81.3198V34.356H82.8608ZM7.24561 34.4438C6.69668 34.4438 6.41264 34.8186 6.4126 35.5679V37.3228C6.4126 37.7762 6.46644 38.1115 6.59033 38.3481C6.71429 38.5651 6.92672 38.6841 7.26318 38.6841C7.56405 38.684 7.77694 38.5854 7.90088 38.3687C8.04255 38.1715 8.09521 37.8159 8.09521 37.3032V35.5288C8.09521 35.1739 8.02412 34.8977 7.86475 34.7202C7.70545 34.5429 7.51101 34.4439 7.24561 34.4438ZM46.6909 34.4438C46.0505 34.4438 45.7203 34.8186 45.7202 35.5679V37.3228C45.7202 37.7761 45.7818 38.1115 45.9263 38.3481C46.0709 38.565 46.3189 38.6841 46.7114 38.6841C47.0626 38.6841 47.3109 38.5855 47.4556 38.3687C47.6208 38.1715 47.6821 37.8159 47.6821 37.3032V35.5288C47.6821 35.1739 47.5995 34.8977 47.4136 34.7202C47.2277 34.5428 47.0007 34.4439 46.6909 34.4438ZM58.7886 38.6567H59.7808C60.0698 38.6567 60.297 38.582 60.4829 38.4331C60.6687 38.2842 60.7515 38.0794 60.7515 37.8374C60.7514 37.5397 60.6687 37.3164 60.4829 37.1675C60.297 37.0186 59.987 36.9439 59.5532 36.9438H58.7886V38.6567ZM68.9536 38.6567H69.6558C70.1309 38.6567 70.462 38.5451 70.6479 38.3403C70.8338 38.1355 70.937 37.7628 70.937 37.2603V36.1812C70.937 35.7157 70.8544 35.38 70.6685 35.1938C70.4825 34.9891 70.2345 34.896 69.8833 34.896H68.9536V38.6567ZM81.9038 38.6567H82.772C83.0198 38.6567 83.2142 38.5819 83.3735 38.4331C83.5329 38.2842 83.604 38.0794 83.604 37.8374C83.604 37.5396 83.5329 37.3164 83.3735 37.1675C83.2141 37.0187 82.9484 36.9438 82.5767 36.9438H81.9038V38.6567ZM54.855 37.4839H56.3853L55.5923 34.896L54.855 37.4839ZM77.6226 37.4839H79.1528L78.3784 34.896L77.6226 37.4839ZM18.0601 36.4409H18.9731C19.1776 36.4408 19.3449 36.3669 19.4565 36.2183C19.5682 36.0694 19.643 35.883 19.6431 35.6411C19.6431 35.4363 19.5868 35.2686 19.4751 35.1196C19.3635 34.9708 19.2149 34.8961 18.9917 34.896H18.0601V36.4409ZM58.7886 36.3853H59.7808C60.3176 36.3851 60.5863 36.1249 60.5864 35.6226C60.5864 35.3992 60.5034 35.2128 60.3589 35.0825C60.2143 34.9522 60.0072 34.896 59.7593 34.896H58.7886V36.3853ZM81.9214 36.3853H82.772C83.2322 36.3852 83.4623 36.1249 83.4624 35.6226C83.4624 35.3993 83.3919 35.2128 83.2681 35.0825C83.1442 34.9523 82.9668 34.896 82.7544 34.896H81.9214V36.3853ZM2.54736 30.6685C2.66865 30.6685 2.77016 30.7053 2.85107 30.7798C2.93205 30.8731 2.97314 30.9667 2.97314 31.0601C2.97314 31.172 2.93205 31.2657 2.85107 31.3403C2.77016 31.4148 2.66864 31.4517 2.54736 31.4517C2.42609 31.4516 2.32453 31.4149 2.24365 31.3403C2.16274 31.2657 2.12256 31.172 2.12256 31.0601C2.12256 30.9481 2.16275 30.8544 2.24365 30.7798C2.32453 30.7052 2.42609 30.6685 2.54736 30.6685ZM3.94482 30.6685C4.06621 30.6685 4.16759 30.7052 4.24854 30.7798C4.32951 30.8731 4.36963 30.9667 4.36963 31.0601C4.36962 31.172 4.32951 31.2657 4.24854 31.3403C4.1676 31.4149 4.0662 31.4516 3.94482 31.4517C3.82346 31.4517 3.72206 31.4149 3.64111 31.3403C3.56014 31.2657 3.52002 31.172 3.52002 31.0601C3.52002 30.9481 3.56013 30.8544 3.64111 30.7798C3.72206 30.7052 3.82345 30.6685 3.94482 30.6685ZM28.5327 27.728H28.6812C28.7536 27.6106 28.842 27.5796 28.9487 27.5796H37.2729V28.5474H28.9487C28.8379 28.5474 28.7453 28.483 28.6714 28.3862C28.6663 28.3773 28.6615 28.3685 28.6567 28.3599H28.5327V28.6763H28.5522C28.5522 28.9726 28.5335 29.2493 28.4956 29.5259C28.4578 29.8023 28.3816 30.0391 28.2681 30.2563C28.1546 30.4735 28.0034 30.6318 27.7954 30.77C27.5872 30.9083 27.3217 30.9683 26.981 30.9683V30.3354C27.227 30.3354 27.3973 30.276 27.5298 30.1772C27.6622 30.0785 27.7572 29.9408 27.814 29.7632C27.8707 29.5855 27.9083 29.3876 27.9272 29.1704C27.9462 28.9532 27.9468 28.716 27.9468 28.479V28.3403H27.7378C27.0566 28.3403 26.5456 28.202 26.186 27.9058C25.8265 27.6095 25.6559 27.2342 25.6558 26.7603C25.6558 26.4245 25.7323 26.1083 25.8647 25.812C25.9972 25.5157 26.2052 25.2581 26.4702 25.021C26.7351 24.7841 27.0379 24.6065 27.3784 24.4683C27.7379 24.33 28.1165 24.2314 28.5327 24.1919V27.728ZM68.6353 27.728H68.856C68.9283 27.6108 69.016 27.5796 69.1226 27.5796H73.0913V28.5474H69.1226C69.0119 28.5472 68.92 28.4829 68.8462 28.3862C68.8411 28.3773 68.8363 28.3685 68.8315 28.3599H68.6353V28.6763H68.6567C68.6567 28.9726 68.6346 29.2493 68.5913 29.5259C68.5481 29.8022 68.4621 30.0392 68.3325 30.2563C68.2028 30.4736 68.0293 30.6318 67.7915 30.77C67.5535 30.9083 67.2502 30.9683 66.8608 30.9683V30.3354C67.1421 30.3354 67.3373 30.276 67.4888 30.1772C67.6399 30.0785 67.7481 29.9407 67.813 29.7632C67.8779 29.5854 67.9212 29.3876 67.9429 29.1704C67.9645 28.9532 67.9644 28.716 67.9644 28.479V28.3403H67.7261C66.9475 28.3403 66.3636 28.202 65.9526 27.9058C65.5417 27.6095 65.3473 27.2342 65.3472 26.7603C65.3472 26.4246 65.4332 26.1082 65.5845 25.812C65.7359 25.5157 65.974 25.2581 66.2769 25.021C66.5796 24.784 66.9257 24.6065 67.3149 24.4683C67.726 24.33 68.1593 24.2314 68.6353 24.1919V27.728ZM6.69385 27.7065H7.25439V24.6753H7.78369V27.688H8.23096V28.3091H6.77881V28.3159H6.19189L5.0376 24.9194C4.87583 24.9754 4.73415 25.0499 4.61279 25.1431C4.49135 25.2364 4.38977 25.3484 4.28857 25.479C4.2076 25.6097 4.14742 25.7409 4.10693 25.8716C4.0665 26.0207 4.04641 26.1512 4.04639 26.2817C4.04639 26.5989 4.14709 26.879 4.36963 27.1216C4.5923 27.3642 4.85576 27.5883 5.13916 27.7749C5.22014 27.8122 5.28129 27.8685 5.32178 27.8872L5.42236 27.9995L5.58447 28.2417C5.58447 28.4095 5.54422 28.6147 5.46338 28.8198C5.38242 29.0251 5.26073 29.2309 5.07861 29.4175C4.89642 29.6041 4.67353 29.7722 4.39014 29.9028C4.10672 30.0335 3.74227 30.0894 3.3374 30.0894C3.13496 30.0894 2.93216 30.0526 2.70947 29.9966C2.48685 29.9406 2.28421 29.8284 2.10205 29.6978C1.92002 29.5672 1.75862 29.3989 1.63721 29.1938C1.51574 28.9885 1.45459 28.7453 1.45459 28.4653V27.7378H2.10205V28.5034C2.10212 28.6712 2.14325 28.8202 2.22412 28.9507C2.3051 29.0813 2.40636 29.1934 2.52783 29.2681C2.64917 29.3426 2.79059 29.4172 2.93213 29.4546C3.07384 29.4919 3.21593 29.5112 3.3374 29.5112C3.66108 29.5112 3.92408 29.4736 4.12646 29.3804C4.32891 29.2871 4.49133 29.1936 4.61279 29.063C4.7342 28.9324 4.81545 28.8205 4.85596 28.6899C4.89641 28.5594 4.93628 28.4657 4.95654 28.3911L4.9165 28.354C4.79511 28.2794 4.65353 28.1857 4.4917 28.0552C4.32974 27.9432 4.16733 27.7935 4.00537 27.6255C3.8435 27.4576 3.72152 27.2713 3.6001 27.0474C3.49888 26.8234 3.43896 26.5803 3.43896 26.3003C3.439 26.0392 3.47915 25.7967 3.56006 25.5542C3.64104 25.3116 3.78287 25.1061 3.94482 24.9194C4.12698 24.7328 4.3292 24.5646 4.59229 24.4526C4.85542 24.322 5.15933 24.2479 5.50342 24.1919L6.69385 27.7065ZM7.51904 29.1841C7.61833 29.1841 7.70187 29.2226 7.76807 29.3003C7.83418 29.378 7.8667 29.4758 7.8667 29.5923C7.86663 29.7086 7.83402 29.8057 7.76807 29.8833C7.70187 29.961 7.61833 30.0005 7.51904 30.0005C7.41993 30.0004 7.35365 29.9609 7.271 29.8833C7.20495 29.8057 7.17145 29.7087 7.17139 29.5923C7.17139 29.4757 7.2048 29.378 7.271 29.3003C7.33711 29.2227 7.41991 29.1842 7.51904 29.1841ZM42.6489 29.1841C42.7723 29.1841 42.8752 29.2227 42.9575 29.3003C43.0399 29.378 43.0815 29.4757 43.0815 29.5923C43.0815 29.7087 43.0398 29.8057 42.9575 29.8833C42.8752 29.961 42.7724 30.0005 42.6489 30.0005C42.5253 30.0005 42.4423 29.961 42.3394 29.8833C42.2572 29.8057 42.2164 29.7086 42.2163 29.5923C42.2163 29.4758 42.2571 29.378 42.3394 29.3003C42.4217 29.2226 42.5253 29.1841 42.6489 29.1841ZM20.4302 26.5679C20.5795 26.3329 20.7659 26.0978 20.9897 25.8433C21.2139 25.608 21.4758 25.3722 21.812 25.1958C22.1294 24.9999 22.5027 24.8427 22.9321 24.7056C23.3617 24.588 23.8476 24.5103 24.3892 24.5103H24.688V28.5483H19.272V28.5288C19.1599 28.5288 19.0664 28.489 18.9917 28.4302C18.9171 28.3518 18.8794 28.2927 18.8794 28.2339C18.8796 28.1752 18.9173 28.0972 18.9917 28.0386C19.0664 27.9602 19.1599 27.9399 19.272 27.9399H19.8325V22.2554H20.4302V26.5679ZM50.2896 27.6353H50.3091C50.3092 27.7381 50.3396 27.7923 50.4126 27.8042C50.4246 27.7823 50.4375 27.7605 50.4526 27.7407C50.5265 27.6118 50.6192 27.5796 50.73 27.5796H52.7622V28.5474H50.73C50.6377 28.5474 50.5593 28.5019 50.4927 28.4312H50.3667C50.1753 28.4312 50.003 28.3728 49.8882 28.2368C49.7733 28.1008 49.6968 27.9063 49.6968 27.6538L49.6772 25.0708C49.5433 25.1485 49.3705 25.2258 49.1792 25.3423C48.988 25.4394 48.8162 25.5757 48.644 25.731C48.4718 25.8864 48.337 26.0611 48.2222 26.2554C48.1074 26.4495 48.0504 26.6827 48.0503 26.9351C48.0503 27.2847 48.1464 27.5178 48.3569 27.6538C48.5675 27.7898 48.8927 27.8874 49.3521 27.9263L49.314 28.5483C48.9122 28.5289 48.6057 28.451 48.3569 28.354C48.1083 28.2375 47.9167 28.1012 47.7827 27.9653C47.6488 27.81 47.5525 27.6545 47.5142 27.4604C47.4759 27.2856 47.438 27.1099 47.438 26.9351C47.4381 26.5079 47.5531 26.1198 47.7827 25.8091C48.0124 25.4983 48.2802 25.2258 48.5864 24.9927C48.8926 24.7791 49.1987 24.6042 49.5239 24.4683C49.8491 24.3324 50.0982 24.255 50.2896 24.1968V27.6353ZM81.3159 23.3599H80.6909V22.7974C80.5349 22.8778 80.3595 22.9986 80.145 23.1392C79.9499 23.2799 79.7347 23.4201 79.5396 23.6011C79.3249 23.782 79.1302 23.9635 78.9546 24.1646C78.7595 24.3656 78.6225 24.5864 78.5054 24.8276C78.8957 24.9885 79.2664 25.1496 79.5786 25.3306C79.8909 25.5115 80.1647 25.7123 80.4185 25.9536C80.6526 26.1949 80.8668 26.4767 81.0425 26.7983C81.1986 27.0799 81.3355 27.4419 81.4526 27.8843H84.9702C84.8895 27.7183 84.8289 27.4899 84.7886 27.2202C84.7483 26.9506 84.7082 26.598 84.688 26.1626C84.6678 25.8514 84.6069 25.602 84.5464 25.436C84.4658 25.2497 84.3853 25.1254 84.2847 25.0425C84.1839 24.9596 84.0628 24.8973 83.9419 24.8765C83.8209 24.8557 83.6996 24.8345 83.5786 24.8345C83.2963 24.8345 82.9934 24.9386 82.6909 25.146L82.3081 24.6274C82.4694 24.503 82.6508 24.3989 82.8726 24.3159C83.0944 24.2329 83.3369 24.1919 83.5991 24.1919C84.1433 24.192 84.5463 24.3575 84.8286 24.6685C85.1109 25.0003 85.2925 25.4776 85.353 26.1206C85.3934 26.7014 85.4543 27.096 85.4946 27.3657C85.535 27.6143 85.6558 27.7595 85.8169 27.8218L86.1597 27.9253L86.1401 28.5474H81.7437V28.5278H80.9644C80.9253 28.2865 80.8666 28.0248 80.769 27.7231C80.6715 27.4217 80.5549 27.1402 80.3989 26.8589C80.4379 27.0196 80.438 27.1805 80.438 27.3813C80.438 27.5421 80.4184 27.7031 80.3989 27.8638C80.3794 28.0246 80.3208 28.2668 80.2622 28.5483H77.3735C77.37 28.5483 77.3663 28.5474 77.3628 28.5474H73.479C73.3683 28.5473 73.2755 28.483 73.2017 28.3862C73.1279 28.2574 73.0914 28.1606 73.0913 28.064C73.0913 27.9672 73.1278 27.8375 73.2017 27.7407C73.2755 27.6118 73.3683 27.5796 73.479 27.5796H77.4478V27.9243H79.7544C79.7934 27.7635 79.7935 27.5827 79.7935 27.4019C79.7935 27.0198 79.7152 26.6978 79.5591 26.4565C79.403 26.2153 79.2278 26.0139 78.9937 25.853C78.779 25.7123 78.5443 25.5917 78.2905 25.5112C78.0371 25.4309 77.8224 25.3912 77.6274 25.3511L77.7251 25.0493C77.8617 24.5868 78.0955 24.1642 78.4272 23.8022C78.7394 23.4404 79.0907 23.1189 79.4614 22.8374C79.8323 22.5559 80.1843 22.3348 80.5161 22.1538C80.8673 21.9729 81.1208 21.8514 81.3159 21.771V23.3599ZM18.8794 28.5474H8.61865C8.50797 28.5473 8.41611 28.4829 8.34229 28.3862C8.26845 28.2573 8.23102 28.1607 8.23096 28.064C8.23096 27.9672 8.26839 27.8375 8.34229 27.7407C8.41608 27.6121 8.50806 27.5796 8.61865 27.5796H18.8794V28.5474ZM42.9985 28.3091H41.6294V28.5474H37.6606C37.5499 28.5473 37.4571 28.483 37.3833 28.3862C37.3096 28.2574 37.273 28.1606 37.2729 28.064C37.2729 27.9672 37.3094 27.8375 37.3833 27.7407C37.4571 27.6118 37.5499 27.5796 37.6606 27.5796H41.6294V27.7065H42.3394V24.6753H42.9985V28.3091ZM44.5396 28.5474H43.9927V22.6704H44.5396V28.5474ZM64.8628 28.5474H53.1499C53.0391 28.5473 52.9464 28.483 52.8726 28.3862C52.7988 28.2574 52.7623 28.1606 52.7622 28.064C52.7622 27.9672 52.7987 27.8375 52.8726 27.7407C52.9464 27.6118 53.0391 27.5796 53.1499 27.5796H61.4741V27.9136H62.2876C62.166 27.7656 62.065 27.5957 61.9839 27.3843C61.9029 27.1729 61.8618 26.9405 61.8618 26.6235C61.8618 26.1794 61.9838 25.7985 62.2271 25.5024C62.4703 25.2064 62.7542 24.9525 63.0786 24.7622C63.4029 24.572 63.7273 24.4454 64.0718 24.3608C64.4164 24.2551 64.6803 24.1919 64.8628 24.1919V28.5474ZM24.0718 25.1372C23.3808 25.196 22.8207 25.3532 22.3911 25.5884C21.9429 25.8236 21.5881 26.0785 21.3267 26.3726C21.0652 26.6666 20.8597 26.9409 20.729 27.2349C20.5984 27.5287 20.5047 27.7441 20.4673 27.9204H24.0903V25.1372H24.0718ZM64.2339 24.9946C64.092 25.0369 63.9094 25.1005 63.7271 25.1851C63.5244 25.2696 63.3421 25.3756 63.1597 25.5024C62.9772 25.6293 62.835 25.7779 62.7134 25.9683C62.592 26.1584 62.5318 26.3486 62.5317 26.6021C62.5317 27.0882 62.6732 27.4055 62.9771 27.5747C63.2811 27.7438 63.6867 27.8289 64.2339 27.8501V24.9946ZM27.9468 24.9419C27.4359 25.0801 27.0191 25.3174 26.7163 25.6333C26.4135 25.9493 26.2623 26.325 26.2622 26.7397C26.2622 27.036 26.375 27.2934 26.6021 27.4712C26.8292 27.649 27.2085 27.728 27.7007 27.728H27.9468V24.9419ZM67.9858 24.9419C67.4018 25.0802 66.9257 25.3172 66.5796 25.6333C66.2336 25.9493 66.0611 26.325 66.061 26.7397C66.061 27.036 66.1902 27.2934 66.4497 27.4712C66.7093 27.649 67.1422 27.728 67.7046 27.728H67.9858V24.9419ZM21.6812 23.1968C21.7932 23.1968 21.8867 23.2356 21.9614 23.314C22.0361 23.3923 22.0737 23.4904 22.0737 23.6079C22.0737 23.7254 22.036 23.8235 21.9614 23.9019C21.8867 23.9803 21.7932 24.02 21.6812 24.02C21.5691 24.02 21.4756 23.9803 21.4009 23.9019C21.3263 23.8235 21.2886 23.7254 21.2886 23.6079C21.2886 23.4904 21.3262 23.3923 21.4009 23.314C21.4756 23.2356 21.5691 23.1968 21.6812 23.1968ZM48.5669 22.7397C48.6817 22.7397 48.7775 22.7784 48.854 22.856C48.9305 22.953 48.9691 23.0307 48.9692 23.147C48.9692 23.2635 48.9306 23.3613 48.854 23.439C48.7775 23.5165 48.6817 23.5552 48.5669 23.5552C48.4521 23.5551 48.3563 23.5166 48.2798 23.439C48.2032 23.3613 48.1655 23.2635 48.1655 23.147C48.1656 23.0306 48.2033 22.9336 48.2798 22.856C48.3563 22.7783 48.4521 22.7398 48.5669 22.7397ZM49.8882 22.7397C50.0029 22.7398 50.0988 22.7783 50.1753 22.856C50.2517 22.9529 50.2895 23.0307 50.2896 23.147C50.2896 23.2635 50.2518 23.3613 50.1753 23.439C50.0988 23.5166 50.0029 23.5551 49.8882 23.5552C49.7734 23.5552 49.6776 23.5165 49.6011 23.439C49.5245 23.3613 49.4858 23.2635 49.4858 23.147C49.4859 23.0306 49.5246 22.9336 49.6011 22.856C49.6776 22.7784 49.7734 22.7397 49.8882 22.7397ZM44.4536 20.8032C44.6414 20.8032 44.8294 20.8428 45.0171 20.9419L44.9155 21.2397C44.7619 21.1604 44.6078 21.1207 44.4712 21.1206C44.3858 21.1206 44.2998 21.1405 44.2485 21.1802C44.1973 21.2199 44.1636 21.2997 44.1636 21.3989C44.1636 21.5578 44.2144 21.6574 44.3169 21.7368C44.4194 21.8162 44.5567 21.8354 44.7104 21.8354H44.9663V22.1538H43.5659V21.8354H44.0093C43.9754 21.8155 43.9583 21.7759 43.9243 21.6772C43.8901 21.578 43.8901 21.4982 43.8901 21.3989C43.8902 21.1806 43.9415 21.0213 44.061 20.9419C44.1805 20.8626 44.3001 20.8033 44.4536 20.8032Z" fill="black"/>
</svg>
