<svg width="184" height="150" viewBox="0 0 184 150" fill="none" xmlns="http://www.w3.org/2000/svg">
<path d="M11.2523 41.539C14.1311 41.2117 16.4246 43.3846 16.5696 46.1503L16.5591 104.04C15.8763 110.317 7.03427 109.804 7 103.481L7.01318 46.1581C7.18981 43.864 8.84274 41.8123 11.2549 41.5365L11.2523 41.539Z" fill="#333333"/>
<path d="M51.8689 42.8728C54.7482 40.1276 59.6286 41.7696 60.1646 45.5665V104.407C59.2596 109.689 51.6427 109.954 50.6031 104.598L50.595 45.5588C50.6435 44.6488 51.2064 43.5043 51.8689 42.8728Z" fill="#333333"/>
<path d="M159.96 65.0302V59.591C159.96 56.0252 163.471 52.5912 166.951 52.245C175.064 51.4362 177.772 55.2862 177.001 63.0251C176.682 66.2343 174.165 68.4875 170.978 68.6657C163.466 68.1929 155.226 69.2756 147.802 68.6554C145.7 68.4797 144.364 67.7717 142.846 66.3816C141.601 67.8208 139.713 68.4978 137.838 68.6554C132.867 69.0714 127.359 68.3505 122.328 68.658L121.877 68.9706C122.175 73.7767 118.627 77.3399 113.902 77.6268C112.118 77.7353 109.8 77.6939 110.181 75.2547C110.45 73.5235 112.335 74.1333 113.518 73.9989C115.815 73.7354 117.431 72.9111 118.128 70.5778C118.635 65.7485 117.744 60.3352 118.203 55.5731C118.337 54.17 119.412 53.1313 120.844 53.723C121.028 53.7979 121.849 54.5602 121.849 54.6273V64.7434L122.136 65.0302H138.413C138.486 65.0302 139.604 64.5625 139.757 64.4591C141.862 63.0587 140.656 56.9348 141.039 54.6661C141.898 53.0408 144.239 53.1209 144.594 55.0537C145.052 57.5652 143.742 62.4824 145.684 64.2731C145.928 64.4979 146.78 65.0276 147.033 65.0276H159.96V65.0302ZM163.598 65.0302H171.545C171.92 65.0302 173.054 63.8752 173.215 63.4488C173.461 62.7899 173.479 59.2577 173.352 58.4567C172.847 55.2268 167.505 54.9865 165.338 56.5524C164.781 56.9529 163.598 58.3663 163.598 59.0174V65.0302Z" fill="#333333"/>
<path d="M32.6503 52.2244C35.2273 51.7529 37.4574 53.2633 37.8354 56.0948L37.8139 94.1692C36.4739 99.4903 29.7431 98.9541 29.3291 93.2366L29.3339 56.2917C29.5205 54.442 30.9107 52.5431 32.6503 52.2244Z" fill="#333333"/>
<path d="M81.8108 105.283C81.5098 106.641 78.7307 106.848 78.4432 105.08C78.8624 98.911 77.8465 91.981 78.4217 85.9027C78.5964 84.0514 80.4186 83.5892 81.9129 84.4694L88.7503 94.902L89.1615 95.0215L95.835 84.6771C96.8267 83.5503 99.2295 83.9605 99.4902 85.5392L99.5063 104.906C99.4149 106.129 98.2404 106.607 97.1062 106.254C96.8912 106.186 96.1225 105.584 96.1225 105.477V90.8048L95.6683 91.0463L89.5727 100.253C89.4249 100.446 89.0916 100.596 88.8605 100.583C88.0811 100.547 83.1036 91.7006 81.8135 90.8048V105.285L81.8108 105.283Z" fill="#333333"/>
<path d="M127.985 84.0381C130.367 84.3768 132.983 87.0502 133.393 89.4161C134.049 93.2177 132.355 96.3211 128.848 97.8063C128.85 98.4889 132.295 102.551 132.861 103.614C134.07 105.886 131.746 107.489 129.929 105.389C128.113 103.289 126.617 100.276 124.71 98.0903H120.084L119.795 98.3795V105.308C119.795 106.673 116.519 106.673 116.519 105.308V84.0381H127.985ZM119.795 87.3108V94.5284L120.084 94.8176H127.214C127.3 94.8176 128.363 94.3199 128.532 94.2105C130.844 92.7175 130.857 89.1842 128.454 87.8058C128.275 87.7042 127.506 87.3134 127.407 87.3134H119.795V87.3108Z" fill="#333333"/>
<path d="M96.1694 45.7812C97.3074 45.6174 98.1872 46.3981 98.2997 47.5372C97.9468 53.7037 98.7524 60.3513 98.3023 66.4589C97.4021 78.692 80.4153 78.2338 79.3847 67.0169C79.2952 66.0417 79.2312 62.202 79.4665 61.4316C79.9678 59.7933 82.712 59.7856 82.9754 62.1048C83.2823 64.8028 82.2797 66.9222 83.9574 69.4436C87.0596 74.0998 94.039 72.1236 94.6835 66.6227C95.3817 60.6508 94.2078 53.4528 94.6988 47.3504C94.7295 46.5492 95.4021 45.8939 96.1719 45.7838L96.1694 45.7812Z" fill="#333333"/>
<path d="M157.592 105.855C157.123 106.422 155.748 106.469 155.202 106C154.399 105.308 153.578 101.927 152.953 100.863L143.067 100.78C142.302 101.013 141.317 105.277 140.478 106C139.233 107.07 137.223 105.622 137.932 103.989L145.916 85.299C146.742 83.7033 149.04 83.5582 149.831 85.2317L157.987 104.811C157.86 105.124 157.801 105.603 157.592 105.855ZM144.538 97.6816H151.422L147.931 89.0682L144.281 97.2386L144.536 97.6816H144.538Z" fill="#333333"/>
<path d="M164.501 84.0985C165.451 83.8793 166.413 84.2498 166.575 85.322C166.935 90.3413 166.135 95.9842 166.58 100.928C166.653 101.734 166.888 102.527 167.627 102.918C168.777 103.529 173.495 102.963 175.187 103.13C177.204 103.325 177.829 104.974 176.192 106.312L166.905 106.367C164.878 105.798 163.616 104.291 163.436 102.084C163.011 96.9103 163.774 91.1214 163.436 85.8803C163.454 85.1081 163.694 84.2837 164.501 84.0985Z" fill="#333333"/>
<path d="M32.5231 33.0937C40.0203 31.8974 41.0758 42.5373 34.7826 43.5329C26.9751 44.7715 26.1344 34.113 32.5231 33.0937Z" fill="#FF8A03"/>
<path d="M32.5226 106.461C40.0204 105.265 41.076 115.905 34.7823 116.901C26.9768 118.136 26.1334 107.478 32.5226 106.461Z" fill="#1CA6B8"/>
<path d="M107.636 45.8108C108.971 45.5386 109.831 46.3853 109.947 47.5345C110.562 53.6206 109.459 60.551 109.947 66.7278C109.685 68.5247 106.337 68.8523 106.053 65.7929C105.523 60.0822 106.461 53.6988 106.064 47.9176C106.08 47.0708 106.662 46.0073 107.636 45.8108Z" fill="#333333"/>
<path d="M108.021 84.1195C109.308 83.7534 109.905 84.6595 110.007 86.0848C110.428 91.9653 109.681 98.5467 110.001 104.505C109.807 106.93 107.29 107.042 107.094 104.515C106.632 98.5545 107.457 91.7576 107.098 85.7058C107.174 85.0515 107.425 84.2934 108.021 84.1221V84.1195Z" fill="#333333"/>
<path d="M146.37 71.3238C149.921 70.7502 150.446 75.8051 147.872 76.4558C143.559 77.5476 142.944 71.8759 146.37 71.3238Z" fill="#333333"/>
<path d="M138.859 71.3382C142.967 70.5587 143.382 77.697 138.394 76.4479C135.989 75.8464 136.206 71.8415 138.859 71.3382Z" fill="#333333"/>
</svg>
