<svg width="190" height="150" viewBox="0 0 190 150" fill="none" xmlns="http://www.w3.org/2000/svg">
<path fill-rule="evenodd" clip-rule="evenodd" d="M3.90434 58.1489C3.59234 58.2069 3.26196 58.3715 3.17028 58.5148C3.07861 58.6581 3.00214 66.1339 3.0001 75.1279C2.99738 88.775 3.04866 91.5234 3.31051 91.7406C3.52563 91.9191 4.79201 91.9812 7.33818 91.9383L11.052 91.876L11.0157 81.9571C10.996 76.5019 11.0096 72.0382 11.0459 72.0382C11.0824 72.0382 13.0811 75.303 15.4874 79.2932C17.8936 83.2834 19.9415 86.5481 20.0384 86.5481C20.2339 86.5481 21.1797 85.0375 25.8139 77.3253C27.5507 74.4347 29.0018 72.0999 29.0385 72.1366C29.0753 72.1734 29.1279 76.6297 29.1552 82.0396L29.2049 91.876H33.0623H36.9198L36.9781 75.2252C37.0142 64.8525 36.9545 58.4926 36.8193 58.3575C36.5268 58.0652 32.442 57.8845 30.6482 58.0845L29.2049 58.2452L26.8223 62.1196C25.5119 64.2503 23.4524 67.6179 22.2457 69.6029C20.1178 73.1034 20.042 73.1961 19.7288 72.6819C19.5514 72.3901 17.4915 69.027 15.1516 65.2079L10.897 58.2645L9.86505 58.123C8.72324 57.9668 4.79383 57.9838 3.90434 58.1489ZM130.624 58.2167C128.67 58.4577 125.79 59.4514 124.026 60.4931C122.262 61.5342 119.428 64.3546 118.462 66.0302C116.658 69.1567 116.135 71.1606 116.125 74.9856C116.115 78.5477 116.433 80.0321 117.804 82.8073C120.619 88.5092 126.342 91.9893 132.903 91.9893C137.911 91.9893 142.246 90.1278 145.557 86.5549C152.065 79.5313 151.102 67.3325 143.595 61.6936C139.888 58.91 135.197 57.6526 130.624 58.2167ZM57.7754 58.6372C55.551 59.9925 55.099 62.7286 56.7829 64.645C57.6798 65.6657 58.5564 65.9947 60.0495 65.8709C62.3347 65.6816 63.7243 64.0098 63.5312 61.682C63.4182 60.3222 62.9371 59.513 61.7688 58.7186C60.7919 58.0543 58.7987 58.0138 57.7754 58.6372ZM82.2885 58.5019C82.2266 58.6633 82.2041 60.3211 82.2388 62.186L82.3019 65.5768L88.5419 65.6902L94.782 65.8035L96.2977 66.5211C98.4209 67.5259 99.735 68.815 100.747 70.8858C101.563 72.5538 101.588 72.6794 101.584 75.0989C101.581 77.1611 101.49 77.8166 101.062 78.8856C100.46 80.3876 98.8813 82.2401 97.5278 83.0324C95.4182 84.2678 94.9628 84.3406 88.4285 84.4852L82.3019 84.621V88.2485V91.876L88.0881 91.9435C91.5435 91.9839 94.5955 91.9084 95.6647 91.7565C101.82 90.8812 106.864 87.0304 109.02 81.5604C109.87 79.4043 110.168 77.6638 110.147 74.9856C110.085 67.0371 105.138 60.7042 97.4731 58.7617C95.4132 58.2393 94.9306 58.2085 88.846 58.2085C83.7827 58.2085 82.377 58.2713 82.2885 58.5019ZM155.763 75.0422L155.821 91.876L159.735 91.9381L163.649 92V82.0059C163.649 75.442 163.727 72.0593 163.875 72.1507C163.999 72.2273 165.831 74.7074 167.945 77.662C170.06 80.6165 173.262 85.0235 175.061 87.455L178.331 91.876H182.165H186V75.0989V58.3219L181.972 58.26L177.945 58.1981V67.9655C177.945 74.0359 177.864 77.6828 177.73 77.6005C177.612 77.5277 176.214 75.6598 174.623 73.4496C173.032 71.2393 169.848 66.9061 167.547 63.8198L163.365 58.2085H159.535H155.704L155.763 75.0422ZM48.4423 62.1076C46.013 64.2337 44.3552 66.8068 43.3532 70.0057C42.9003 71.4513 42.8227 72.1777 42.8213 74.9856C42.8197 77.8009 42.8957 78.5171 43.3509 79.9733C45.765 87.698 52.4092 92.3224 60.5185 91.9218C63.5012 91.7744 65.1246 91.3693 67.5527 90.1668C69.5543 89.1753 71.3784 87.7289 72.864 85.955C77.3963 80.5431 77.9872 72.3935 74.3058 66.0717C73.2949 64.3358 70.1236 61.0862 69.5484 61.1971C69.2963 61.2456 68.4719 62.4894 67.3671 64.4888L65.5911 67.7025L66.4987 68.8497C70.2956 73.6491 68.5214 81.5361 63.1738 83.6294C61.2886 84.3673 58.0912 84.3608 56.2129 83.6149C52.7486 82.2396 50.635 78.5176 50.9399 74.3304C51.104 72.0806 51.6272 70.5494 52.7289 69.095L53.6229 67.9149L51.821 64.6006C50.8299 62.7778 49.915 61.2517 49.7877 61.2093C49.6606 61.1672 49.0552 61.5714 48.4423 62.1076ZM136.911 66.6723C142.247 69.2437 143.474 77.496 139.161 81.8052C135.489 85.4744 128.741 84.9668 125.891 80.8072C124.569 78.8772 124.307 77.9206 124.298 74.9856C124.29 72.6032 124.343 72.2618 124.918 71.0275C126.059 68.5763 127.214 67.4359 129.551 66.4531C130.712 65.9652 131.131 65.9112 133.243 65.9779C135.281 66.042 135.812 66.1427 136.911 66.6723Z" fill="black"/>
</svg>
