<svg width="82" height="80" viewBox="0 0 82 80" fill="none" xmlns="http://www.w3.org/2000/svg">
<path fill-rule="evenodd" clip-rule="evenodd" d="M40.3363 0.2248C39.675 0.588316 39.5586 1.21929 39.5586 4.44201V7.39874L38.7178 7.59217C37.3619 7.90417 35.2922 9.01383 34.256 9.98418C33.0308 11.1316 32.0016 12.7175 31.4409 14.3219L30.9902 15.6117L30.9459 31.9876L30.9013 48.3634L26.1412 49.7108C23.5229 50.4521 21.2548 51.092 21.1006 51.133C20.8363 51.2031 20.8203 50.7223 20.8203 42.6944C20.8203 37.4473 20.7593 34.0189 20.6611 33.7579C20.4393 33.1678 19.5682 32.8143 18.9087 33.0467C18.6351 33.1433 18.3406 33.3555 18.2544 33.5185C18.1576 33.7017 18.0977 37.2811 18.0977 42.8926V51.9705L17.2507 52.2195C16.785 52.3565 14.2626 53.0758 11.6453 53.8181L6.88672 55.1676V44.7397C6.88672 33.2313 6.90001 33.3939 5.9293 33.0518C5.19755 32.7937 4.42688 33.1435 4.18568 33.843C4.05708 34.2162 4.00391 37.5326 4.00391 45.1803V55.9901L2.39754 56.4357C1.51412 56.6808 0.613238 57.023 0.395586 57.1961L0 57.5109V63.7242V69.9375L0.422012 70.2732C0.842262 70.6075 0.908728 70.609 16.0776 70.609H31.3112L31.8714 71.3725C32.566 72.3193 33.6067 72.9825 34.7356 73.1982C35.8596 73.4128 46.1404 73.4128 47.2644 73.1982C48.3933 72.9825 49.434 72.3193 50.1286 71.3725L50.6888 70.609H65.9224C81.0913 70.609 81.1577 70.6075 81.578 70.2732L82 69.9375V63.7242V57.5109L81.6044 57.1961C81.3868 57.023 80.4859 56.6808 79.6025 56.4357L77.9961 55.9901V45.151C77.9961 33.193 78.0121 33.3949 77.0387 33.0518C76.3069 32.7937 75.5363 33.1435 75.2951 33.843C75.1668 34.2154 75.1133 37.4282 75.1133 44.769V55.1676L70.3547 53.8181C67.7374 53.0758 65.215 52.3565 64.7493 52.2195L63.9023 51.9705V42.8926C63.9023 37.2811 63.8424 33.7017 63.7456 33.5185C63.6594 33.3555 63.3649 33.1433 63.0913 33.0467C62.4318 32.8143 61.5607 33.1678 61.3389 33.7579C61.2407 34.0189 61.1797 37.4473 61.1797 42.6944C61.1797 50.7223 61.1637 51.2031 60.8994 51.133C60.7453 51.092 58.4751 50.4515 55.8545 49.7097L51.0898 48.3609V40.4425C51.0898 32.0963 51.0641 31.7793 50.3619 31.5068C49.7943 31.2865 49.0613 31.4087 48.7154 31.7811L48.3672 32.1561V50.2283C48.3672 60.1681 48.3204 68.5368 48.2634 68.8254C48.2064 69.1139 47.9157 69.597 47.6175 69.8986L47.0752 70.447H41H34.9248L34.3695 69.8854C33.9736 69.4849 33.7859 69.1245 33.7156 68.6299C33.6613 68.2482 33.6403 56.3089 33.669 42.0979C33.7257 13.9137 33.6591 15.926 34.5974 14.0655C35.0521 13.1638 36.4016 11.724 37.2799 11.2035C38.3288 10.5818 39.7782 10.1849 41 10.1849C44.2009 10.1849 46.9058 12.2414 48.0064 15.5114C48.2138 16.1278 48.2698 17.4016 48.3246 22.7395C48.3893 29.0515 48.3997 29.2287 48.7274 29.5838C49.4104 30.3241 50.7658 29.9361 51.0159 28.9287C51.0676 28.7197 51.0871 25.6379 51.0591 22.0802L51.0082 15.6117L50.5583 14.3219C50.0375 12.829 49.039 11.2398 47.9376 10.151C46.9101 9.135 44.9219 8.01092 43.5522 7.67138L42.4414 7.39615V4.44088C42.4414 1.18073 42.3264 0.580865 41.6312 0.217348C41.0738 -0.0742426 40.8786 -0.0731088 40.3363 0.2248ZM39.544 13.3525C38.5637 13.6579 37.3609 14.7543 36.8946 15.7676C36.1144 17.4619 36.5198 19.7531 37.8174 20.984C38.7866 21.9034 39.655 22.2485 41 22.2485C41.943 22.2485 42.356 22.1677 42.9219 21.8723C44.6234 20.9844 45.4812 19.5918 45.4812 17.7177C45.4812 14.5377 42.5819 12.406 39.544 13.3525ZM41.906 16.2082C42.8828 16.6921 42.9925 18.2471 42.1033 19.0039C40.6792 20.2159 38.593 18.5497 39.4708 16.901C39.9707 15.9623 40.8847 15.7023 41.906 16.2082ZM40.0881 47.0246L39.6387 47.4157V56.74V66.0641L39.9998 66.4294C40.4961 66.9314 41.5039 66.9314 42.0002 66.4294L42.3613 66.0641V56.74V47.4157L41.9119 47.0246C41.6613 46.8066 41.2582 46.6338 41 46.6338C40.7418 46.6338 40.3387 46.8066 40.0881 47.0246ZM30.9102 59.5933V67.8551H16.8164H2.72266V63.5749V59.2945L3.24316 59.1291C3.52952 59.038 7.29512 57.9731 11.6113 56.7623C15.9275 55.5516 19.8346 54.4481 20.2936 54.3102C22.4488 53.6625 30.5323 51.3645 30.71 51.3491C30.8677 51.3353 30.9102 53.0826 30.9102 59.5933ZM55.8524 52.6337C58.3861 53.3499 60.9274 54.0766 61.5 54.2485C62.0726 54.4205 66.0725 55.5517 70.3887 56.7625C74.7049 57.9731 78.4705 59.038 78.7568 59.1291L79.2773 59.2945V63.5749V67.8551H65.1836H51.0898V59.5933C51.0898 55.0494 51.1249 51.3316 51.1678 51.3316C51.2108 51.3316 53.3189 51.9175 55.8524 52.6337ZM31.7145 77.3726C30.714 77.8813 30.7119 79.284 31.7109 79.7951C32.0194 79.9529 34.1525 80 41 80C47.8475 80 49.9806 79.9529 50.2891 79.7951C51.2881 79.284 51.286 77.8813 50.2855 77.3726C49.7756 77.1133 48.9908 77.0893 41 77.0893C33.0092 77.0893 32.2244 77.1133 31.7145 77.3726Z" fill="#999999"/>
</svg>
