<svg width="80" height="80" viewBox="0 0 80 80" fill="none" xmlns="http://www.w3.org/2000/svg">
<path d="M72.9741 52.5508C73.2163 52.5908 73.4418 52.702 73.6216 52.8691C73.8005 53.0358 73.9262 53.2517 73.9839 53.4893C74.0416 53.7269 74.0284 53.9759 73.9458 54.2061L64.9272 79.1748C64.8395 79.4174 64.6788 79.6277 64.4673 79.7754C64.256 79.9228 64.0042 80.0011 63.7466 80C63.6125 79.9984 63.4788 79.9755 63.3521 79.9316L36.6089 70.7373C36.3733 70.6546 36.1678 70.5033 36.019 70.3027C35.8703 70.1022 35.7847 69.8617 35.7739 69.6123C35.7632 69.3629 35.8277 69.1159 35.9585 68.9033C36.0894 68.6907 36.2808 68.5217 36.5083 68.4189L72.2583 52.6436C72.4824 52.5431 72.7318 52.5108 72.9741 52.5508ZM40.4399 69.4131L63.0083 77.1689L70.6216 56.1064L40.4399 69.4131ZM64.5806 61.3887C64.8228 61.4287 65.0482 61.5389 65.228 61.7061C65.4047 61.8717 65.5297 62.0851 65.5874 62.3203C65.6451 62.5555 65.6332 62.8027 65.5532 63.0312L62.3589 71.875C62.3049 72.0301 62.2211 72.1733 62.1118 72.2959C62.0024 72.4186 61.8692 72.5184 61.7212 72.5898C61.5732 72.6612 61.4125 72.7027 61.2485 72.7119C61.0845 72.7211 60.9202 72.6979 60.7651 72.6436L51.2905 69.3877C51.055 69.305 50.8494 69.1535 50.7007 68.9531C50.5519 68.7525 50.4663 68.5112 50.4556 68.2617C50.4449 68.0123 50.5092 67.7653 50.6401 67.5527C50.7711 67.3401 50.9624 67.1711 51.1899 67.0684L63.8657 61.4814C64.0897 61.3811 64.3384 61.3487 64.5806 61.3887ZM55.1216 68.0684L60.4155 69.8877L62.1968 64.9434L55.1216 68.0684ZM20.6216 19.3379C22.2216 16.9566 26.7907 13.0437 32.522 15.1562C32.655 15.2077 32.784 15.2688 32.9087 15.3379C33.1854 15.5202 33.3789 15.8044 33.4458 16.1289C33.5126 16.4535 33.4474 16.7916 33.2651 17.0684L28.1216 24.7998L52.7778 27.9062L52.0903 30.3379L26.5649 27.125L12.728 47.9248C12.5589 48.1801 12.3015 48.365 12.0054 48.4434C11.7094 48.5216 11.3948 48.4878 11.1216 48.3496C10.2433 47.87 9.26263 47.6087 8.26221 47.5869C7.26163 47.5652 6.26997 47.7836 5.37158 48.2246C4.6769 48.5447 4.06469 49.0205 3.58252 49.6143C3.10045 50.208 2.76104 50.9049 2.59033 51.6504C2.34104 53.0466 2.65577 54.4849 3.46533 55.6494C4.27488 56.8138 5.51321 57.6096 6.90869 57.8623L42.3345 63.125L38.0464 65L6.46533 60.3184C4.41743 59.9498 2.59895 58.7849 1.40869 57.0781C0.21848 55.3713 -0.246243 53.262 0.115723 51.2129C0.42599 50.159 0.851376 49.1423 1.38428 48.1816L20.6216 19.3379ZM24.9487 34.1387C25.1101 34.1062 25.2765 34.1058 25.438 34.1377C25.5995 34.1696 25.7532 34.2337 25.8901 34.3252C26.1669 34.5076 26.3604 34.7925 26.4272 35.1172C26.4939 35.4417 26.4288 35.7799 26.2466 36.0566L14.4653 53.8125L50.8843 59.375L46.6274 61.25L12.147 55.9746C11.9394 55.9433 11.7427 55.8606 11.5757 55.7334C11.4087 55.6062 11.2762 55.4389 11.1909 55.2471C11.1056 55.0553 11.0701 54.8449 11.0874 54.6357C11.1048 54.4266 11.1748 54.2249 11.2905 54.0498L24.1528 34.6748C24.2436 34.5375 24.361 34.4191 24.4976 34.3271C24.6341 34.2353 24.7874 34.1712 24.9487 34.1387ZM48.3774 33.7939C48.5506 33.746 48.7335 33.7433 48.9077 33.7871C49.0818 33.831 49.2418 33.9199 49.3716 34.0439L61.5776 45C61.8262 45.2238 61.9761 45.5371 61.9937 45.8711C62.0112 46.2051 61.8951 46.5326 61.6714 46.7812C61.4477 47.0298 61.1342 47.1796 60.8003 47.1973C60.4663 47.2148 60.1388 47.0987 59.8901 46.875L57.771 45L52.5337 54.2812C52.423 54.4729 52.263 54.6314 52.0708 54.7412C51.8787 54.8509 51.6612 54.9082 51.4399 54.9062C51.3776 54.9062 26.8311 51.2672 26.7153 51.25C26.5164 51.2234 26.3259 51.1495 26.1616 51.0342C25.9975 50.9189 25.8635 50.7658 25.771 50.5879C25.6826 50.4057 25.6395 50.2043 25.646 50.002C25.6525 49.7994 25.7091 49.601 25.8091 49.4248L31.5151 39.4121C31.5151 39.4121 28.6405 39.9247 28.5649 39.9248C28.2334 39.9546 27.9035 39.852 27.6479 39.6387C27.3924 39.4254 27.2325 39.1186 27.2026 38.7871C27.1729 38.4559 27.2757 38.1265 27.4888 37.8711C27.7021 37.6156 28.0088 37.4546 28.3403 37.4248L48.3774 33.7939ZM78.896 31.2188C79.1024 31.2431 79.2993 31.3188 79.4692 31.4385C79.6392 31.5581 79.7772 31.7181 79.8696 31.9043C79.962 32.0903 80.0068 32.2964 79.9995 32.5039C79.9922 32.7116 79.933 32.9146 79.8276 33.0938L69.3149 51.2188L65.4214 52.9316L76.6958 33.4561L73.5708 33.0625C73.5495 32.8363 73.5076 32.6122 73.4458 32.3936L72.896 30.4629L78.896 31.2188ZM34.7339 38.8066L28.8901 49.0752L50.7651 52.3184L55.8716 43.2373L48.2271 36.3623L34.7339 38.8066ZM38.9058 42.0879C39.0697 42.1085 39.2282 42.162 39.3716 42.2441C39.6574 42.409 39.8669 42.6797 39.9536 42.998C40.0402 43.3164 39.9973 43.6564 39.8345 43.9434L38.8843 45.625L46.4595 46.7812L47.9409 43.9316C48.0167 43.7851 48.1202 43.654 48.2466 43.5479C48.3729 43.4417 48.5198 43.3619 48.6772 43.3125C48.8346 43.2632 49.0004 43.2458 49.1646 43.2607C49.3288 43.2757 49.4884 43.3234 49.6343 43.4004C49.7808 43.4778 49.9108 43.583 50.0161 43.7109C50.1214 43.8389 50.1999 43.9868 50.2476 44.1455C50.2952 44.3042 50.3107 44.471 50.2935 44.6357C50.2761 44.8006 50.2267 44.9611 50.147 45.1064L48.272 48.75C48.1598 48.9445 47.997 49.1049 47.8013 49.2148C47.6056 49.3248 47.384 49.3803 47.1597 49.375C47.0972 49.375 36.6841 47.8496 36.6841 47.8496C36.4806 47.8207 36.2874 47.7424 36.1216 47.6211C35.9556 47.4996 35.8219 47.3387 35.7329 47.1533C35.6439 46.9678 35.6018 46.7632 35.6108 46.5576C35.6198 46.3521 35.6798 46.1516 35.7847 45.9746L37.6597 42.7188C37.7402 42.5746 37.8482 42.4477 37.978 42.3457C38.108 42.2436 38.2573 42.1682 38.4165 42.124C38.5756 42.0799 38.7419 42.0674 38.9058 42.0879ZM30.1782 17.125C25.7157 16.425 22.8095 20.5377 22.6782 20.7314L6.32178 45.2871C7.95672 44.9574 9.65119 45.0899 11.2153 45.6689L30.1782 17.125ZM62.4966 0C62.828 9.79557e-05 63.146 0.131878 63.3804 0.366211C63.6147 0.600614 63.7466 0.918566 63.7466 1.25V2.75C64.695 3.0064 65.5469 3.53674 66.1958 4.27441C66.8448 5.01217 67.2617 5.92495 67.395 6.89844C67.5283 7.87186 67.3724 8.863 66.9458 9.74805C66.5191 10.6331 65.8411 11.373 64.9966 11.875L67.0962 19.1377H69.7026C70.0341 19.1377 70.352 19.2695 70.5864 19.5039C70.8207 19.7383 70.9526 20.0563 70.9526 20.3877C70.956 20.5565 70.925 20.7243 70.8618 20.8809C70.7986 21.0375 70.7042 21.1797 70.5845 21.2988C70.4648 21.4179 70.3223 21.5117 70.1655 21.5742C70.0086 21.6367 69.8402 21.6663 69.6714 21.6621H67.7964L70.1958 30.125L70.7778 32.1816L71.0337 33.0752C71.078 33.2336 71.0905 33.3993 71.0708 33.5625C71.0511 33.7255 70.9999 33.8832 70.9194 34.0264C70.8388 34.1696 70.7303 34.2959 70.6011 34.3975C70.4717 34.499 70.323 34.5748 70.1646 34.6191C70.0063 34.6633 69.8404 34.6759 69.6772 34.6562C69.5141 34.6365 69.3566 34.5845 69.2134 34.5039C69.07 34.4232 68.9439 34.3149 68.8423 34.1855C68.7408 34.0562 68.6659 33.9083 68.6216 33.75L68.2339 32.3936L67.4966 29.7812L65.1899 21.6562H59.771L56.3403 33.75C56.2461 34.0657 56.0307 34.3312 55.7417 34.4893C55.4527 34.6472 55.1129 34.6849 54.7964 34.5938C54.4775 34.5048 54.2063 34.2931 54.0435 34.0049C53.8807 33.7168 53.8391 33.3756 53.9272 33.0566L57.1401 21.6436H55.2651C54.9336 21.6436 54.6158 21.5118 54.3813 21.2773C54.1469 21.0429 54.0151 20.7251 54.0151 20.3936C54.0152 20.0621 54.147 19.7441 54.3813 19.5098C54.6157 19.2755 54.9337 19.1436 55.2651 19.1436H57.8716L59.9341 11.875C59.0901 11.3682 58.4143 10.6235 57.9917 9.73438C57.5691 8.84516 57.4179 7.85046 57.5581 6.87598C57.6983 5.90166 58.1238 4.9908 58.7798 4.25684C59.4358 3.52277 60.2939 2.99834 61.2466 2.75V1.25C61.2466 0.918479 61.3784 0.600631 61.6128 0.366211C61.8472 0.131907 62.1651 0 62.4966 0ZM64.7896 29.4248L65.5278 32.0312L59.6401 31.2871L60.3276 28.8623L64.7896 29.4248ZM60.4839 19.1377H64.5024L62.6274 12.5625H62.3589L60.4839 19.1377ZM63.4399 5.26562C62.9832 5.07651 62.4805 5.02661 61.9956 5.12305C61.5108 5.21956 61.0659 5.45807 60.7163 5.80762C60.3668 6.15716 60.1282 6.6021 60.0317 7.08691C59.9353 7.57177 59.9852 8.07451 60.1743 8.53125C60.3635 8.98807 60.6841 9.37862 61.0952 9.65332C61.5063 9.92797 61.9895 10.0752 62.4839 10.0752H62.4966C63.1573 10.0718 63.7903 9.80629 64.2563 9.33789C64.7222 8.8695 64.9838 8.23579 64.9839 7.5752C64.9839 7.0808 64.8367 6.59762 64.562 6.18652C64.2873 5.7754 63.8968 5.45484 63.4399 5.26562Z" fill="#999999"/>
</svg>
