<svg width="82" height="82" viewBox="0 0 82 82" fill="none" xmlns="http://www.w3.org/2000/svg">
<path d="M63.3714 63.0017H74.5614C75.4504 63.0017 76.1711 63.7214 76.1711 64.6093V67.9852C76.1711 68.8731 75.4504 69.5928 74.5614 69.5928H64.5255C63.8371 69.5928 63.2247 69.1554 63.0021 68.5046L61.8478 65.1287C61.4913 64.0857 62.2676 63.0017 63.3714 63.0017Z" stroke="#999999" stroke-width="2" stroke-miterlimit="10" stroke-linecap="round" stroke-linejoin="round"/>
<path d="M16.6566 63.0017H18.6804C19.7692 63.0017 20.544 64.0588 20.2148 65.0952L19.1429 68.4712C18.9309 69.139 18.3101 69.5929 17.6086 69.5929H7.43876C6.54975 69.5929 5.8291 68.8733 5.8291 67.9854V64.6094C5.8291 63.7215 6.54975 63.0019 7.43876 63.0019H11.0228" stroke="#999999" stroke-width="2" stroke-miterlimit="10" stroke-linecap="round" stroke-linejoin="round"/>
<path d="M30.4857 69.5929H24.8752C24.3312 69.5929 23.9437 69.0648 24.1079 68.5467L25.5085 64.1244C25.7201 63.456 26.3411 63.0017 27.0431 63.0017H54.9565C55.6585 63.0017 56.2795 63.4561 56.4912 64.1244L57.8917 68.5467C58.0559 69.0648 57.6685 69.5929 57.1244 69.5929H51.483" stroke="#999999" stroke-width="2" stroke-miterlimit="10" stroke-linecap="round" stroke-linejoin="round"/>
<path d="M28.2964 53.4363H53.704C54.8966 53.4363 55.675 54.6863 55.1479 55.7547C54.4153 57.2389 52.9024 58.1788 51.2456 58.1788H30.7548C29.098 58.1788 27.5849 57.2389 26.8525 55.7547C26.3252 54.6863 27.1038 53.4363 28.2964 53.4363Z" stroke="#999999" stroke-width="2" stroke-miterlimit="10" stroke-linecap="round" stroke-linejoin="round"/>
<path d="M19.9923 58.1789H10.6581C7.99103 58.1789 5.8291 56.0197 5.8291 53.356C5.8291 52.0242 6.91015 50.9446 8.24359 50.9446H15.473C18.4908 50.9446 21.1036 53.0379 21.7583 55.9801C22.0094 57.1084 21.1497 58.1789 19.9923 58.1789Z" stroke="#999999" stroke-width="2" stroke-miterlimit="10" stroke-linecap="round" stroke-linejoin="round"/>
<path d="M62.008 58.1789H71.3423C74.0093 58.1789 76.1712 56.0197 76.1712 53.356C76.1712 52.0242 75.0902 50.9446 73.7568 50.9446H66.5273C63.5095 50.9446 60.8967 53.0379 60.2421 55.9801C59.991 57.1084 60.8507 58.1789 62.008 58.1789Z" stroke="#999999" stroke-width="2" stroke-miterlimit="10" stroke-linecap="round" stroke-linejoin="round"/>
<path d="M81 59.1308V53.9828C81 50.5143 79.1356 47.313 76.1168 45.5982L68.1228 41.0574H37.0923" stroke="#999999" stroke-width="2" stroke-miterlimit="10" stroke-linecap="round" stroke-linejoin="round"/>
<path d="M31.4584 41.0574H13.8773L5.88322 45.5982C2.86447 47.313 1 50.5144 1 53.9828V69.5927C1 72.2564 3.16193 74.4156 5.82897 74.4156H76.171C78.8381 74.4156 81 72.2562 81 69.5927V64.7646" stroke="#999999" stroke-width="2" stroke-miterlimit="10" stroke-linecap="round" stroke-linejoin="round"/>
<path d="M68.1227 58.1788C70.1229 58.1788 71.7444 56.5593 71.7444 54.5616C71.7444 52.5638 70.1229 50.9443 68.1227 50.9443C66.1225 50.9443 64.501 52.5638 64.501 54.5616C64.501 56.5593 66.1225 58.1788 68.1227 58.1788Z" stroke="#999999" stroke-width="2" stroke-miterlimit="10" stroke-linecap="round" stroke-linejoin="round"/>
<path d="M13.8771 58.1788C15.8773 58.1788 17.4988 56.5593 17.4988 54.5616C17.4988 52.5638 15.8773 50.9443 13.8771 50.9443C11.8769 50.9443 10.2554 52.5638 10.2554 54.5616C10.2554 56.5593 11.8769 58.1788 13.8771 58.1788Z" stroke="#999999" stroke-width="2" stroke-miterlimit="10" stroke-linecap="round" stroke-linejoin="round"/>
<path d="M23.4549 22.5693H20.4956C18.9813 22.5693 17.6719 23.6253 17.35 25.1047L13.8774 41.0574" stroke="#999999" stroke-width="2" stroke-miterlimit="10" stroke-linecap="round" stroke-linejoin="round"/>
<path d="M68.1229 41.0574L64.6504 25.1047C64.3283 23.6253 63.0188 22.5693 61.5048 22.5693H58.5454" stroke="#999999" stroke-width="2" stroke-miterlimit="10" stroke-linecap="round" stroke-linejoin="round"/>
<path d="M70.537 34.5505H76.309C77.9816 34.5505 79.2104 36.118 78.8092 37.7398C78.3271 39.6886 76.5765 41.0576 74.5665 41.0576H68.1226V36.962C68.1226 35.6303 69.2036 34.5505 70.537 34.5505Z" stroke="#999999" stroke-width="2" stroke-miterlimit="10" stroke-linecap="round" stroke-linejoin="round"/>
<path d="M11.4629 34.5505H5.69095C4.01835 34.5505 2.78954 36.118 3.19067 37.7398C3.67276 39.6886 5.42343 41.0576 7.43341 41.0576H13.8773V36.962C13.8773 35.6303 12.7963 34.5505 11.4629 34.5505Z" stroke="#999999" stroke-width="2" stroke-miterlimit="10" stroke-linecap="round" stroke-linejoin="round"/>
<path d="M53.7036 53.4361L57.9299 41.0574" stroke="#999999" stroke-width="2" stroke-miterlimit="10" stroke-linecap="round" stroke-linejoin="round"/>
<path d="M28.2961 53.4361L24.0698 41.0574" stroke="#999999" stroke-width="2" stroke-miterlimit="10" stroke-linecap="round" stroke-linejoin="round"/>
<path d="M37.7808 48.6062H44.2194" stroke="#999999" stroke-width="2" stroke-miterlimit="10" stroke-linecap="round" stroke-linejoin="round"/>
<path d="M17.4183 74.481V79.3904C17.4183 80.2794 16.6976 81.0001 15.8086 81.0001H6.15067C5.26166 81.0001 4.54102 80.2794 4.54102 79.3904V74.481" stroke="#999999" stroke-width="2" stroke-miterlimit="10" stroke-linecap="round" stroke-linejoin="round"/>
<path d="M77.4588 74.481V79.3904C77.4588 80.2794 76.7382 81.0001 75.8491 81.0001H66.1912C65.3022 81.0001 64.5815 80.2794 64.5815 79.3904V74.481" stroke="#999999" stroke-width="2" stroke-miterlimit="10" stroke-linecap="round" stroke-linejoin="round"/>
<path d="M58.7064 22.4084V15.004C58.7064 14.9152 58.6343 14.8431 58.5455 14.8431H56.5044C56.4313 14.8431 56.3681 14.7935 56.3497 14.7227C55.9769 13.282 55.4068 11.921 54.6697 10.67C54.6325 10.6071 54.6424 10.5274 54.694 10.4756L56.1382 9.03139C56.2012 8.96845 56.2012 8.86656 56.1382 8.80378L50.9025 3.56805C50.8395 3.50511 50.7376 3.50511 50.6749 3.56805L49.2307 5.01223C49.179 5.0639 49.0993 5.07372 49.0362 5.03654C47.7852 4.29948 46.4241 3.72934 44.9836 3.35654C44.9128 3.33819 44.8632 3.27493 44.8632 3.20185V1.16097C44.8632 1.07211 44.7911 1 44.7022 1H37.2978C37.209 1 37.1368 1.07211 37.1368 1.16097V3.20201C37.1368 3.27509 37.0873 3.33835 37.0164 3.3567C35.5758 3.7295 34.2148 4.29964 32.9638 5.0367C32.9009 5.07388 32.8212 5.06406 32.7694 5.01239L31.3252 3.56821C31.2622 3.50527 31.1603 3.50527 31.0976 3.56821L25.8618 8.80394C25.7989 8.86688 25.7989 8.96877 25.8618 9.03155L27.306 10.4757C27.3577 10.5274 27.3675 10.6071 27.3303 10.6702C26.5933 11.9212 26.0231 13.2823 25.6503 14.7228C25.632 14.7936 25.5687 14.8432 25.4956 14.8432H23.4549C23.3661 14.8432 23.2939 14.9153 23.2939 15.0042V22.4086C23.2939 22.4975 23.3661 22.5696 23.4549 22.5696H25.496C25.569 22.5696 25.6323 22.6192 25.6506 22.69C26.0234 24.1306 26.5936 25.4916 27.3306 26.7426C27.3678 26.8056 27.358 26.8852 27.3063 26.9371L25.8622 28.3812C25.7992 28.4442 25.7992 28.5461 25.8622 28.6089L31.0979 33.8446C31.1608 33.9075 31.2627 33.9075 31.3255 33.8446L32.7697 32.4004C32.8213 32.3487 32.901 32.3389 32.9641 32.3761C34.2152 33.1132 35.5763 33.6833 37.0168 34.0561C37.0876 34.0744 37.1372 34.1377 37.1372 34.2108V36.2518C37.1372 36.3407 37.2093 36.4128 37.2981 36.4128H44.7026C44.7914 36.4128 44.8635 36.3407 44.8635 36.2518V34.2108C44.8635 34.1377 44.9131 34.0744 44.9839 34.0561C46.4246 33.6833 47.7855 33.1132 49.0366 32.3761C49.0995 32.3389 49.1792 32.3487 49.231 32.4004L50.6752 33.8446C50.7381 33.9075 50.84 33.9075 50.9028 33.8446L56.1385 28.6089C56.2015 28.5459 56.2015 28.444 56.1385 28.3812L54.6944 26.9371C54.6427 26.8854 54.6329 26.8057 54.67 26.7426C55.4071 25.4916 55.9772 24.1305 56.35 22.69C56.3684 22.6192 56.4317 22.5696 56.5047 22.5696H58.5455C58.6343 22.5694 58.7064 22.4973 58.7064 22.4084Z" stroke="#999999" stroke-width="2" stroke-miterlimit="10" stroke-linecap="round" stroke-linejoin="round"/>
<path d="M46.1902 9.54418C44.6584 8.67464 42.8873 8.17822 41.0001 8.17822C35.1857 8.17822 30.4722 12.8918 30.4722 18.7062C30.4722 24.5206 35.1857 29.2342 41.0001 29.2342C46.8145 29.2342 51.5281 24.5206 51.5281 18.7062C51.5281 16.7967 51.0198 15.0059 50.1309 13.4618M41.0001 23.4917C38.3572 23.4917 36.2146 21.3492 36.2146 18.7062C36.2146 16.0631 38.3571 13.9207 41.0001 13.9207C43.6432 13.9207 45.7856 16.0631 45.7856 18.7062C45.7856 21.3492 43.643 23.4917 41.0001 23.4917Z" stroke="#999999" stroke-width="2" stroke-miterlimit="10" stroke-linecap="round" stroke-linejoin="round"/>
<path d="M30.5371 74.4158V67.8162H51.4627V74.4158" stroke="#999999" stroke-width="2" stroke-miterlimit="10" stroke-linecap="round" stroke-linejoin="round"/>
</svg>
