<svg width="81" height="79" viewBox="0 0 81 79" fill="none" xmlns="http://www.w3.org/2000/svg">
<path fill-rule="evenodd" clip-rule="evenodd" d="M28.6879 0.340517C28.3784 0.652772 28.3501 0.911224 28.3462 3.44774L28.342 6.21444L26.3213 8.92496L24.3005 11.6353V14.3349V17.0345L23.7852 16.7657C23.5019 16.6179 22.8944 16.4519 22.4352 16.3971L21.6006 16.2973V13.2565C21.6006 10.4425 21.5755 10.1901 21.2631 9.875C20.9417 9.55066 20.7007 9.53448 16.2008 9.53448C11.7009 9.53448 11.4599 9.55066 11.1385 9.875C10.8261 10.1901 10.801 10.4425 10.801 13.2565V16.2973L9.95119 16.399C8.34728 16.5907 6.75264 17.7813 5.87247 19.4444C5.49212 20.1632 5.4847 20.2827 5.43559 26.4327L5.38565 32.6897H4.80905C3.08279 32.6897 1.01247 34.2322 0.353351 36.0095C-0.117784 37.2802 -0.117784 38.9957 0.353351 40.2663C1.02259 42.0707 3.08347 43.5862 4.86844 43.5862H5.5041L7.78654 58.5417C9.88994 72.3248 10.109 73.5827 10.5801 74.5886C11.518 76.5908 13.1474 78.0317 15.2037 78.6774C16.1917 78.9877 17.1551 79 40.5 79C63.8449 79 64.8083 78.9877 65.7963 78.6774C67.8526 78.0317 69.482 76.5908 70.4199 74.5886C70.891 73.5827 71.1101 72.3248 73.2135 58.5417L75.4959 43.5862H76.1316C77.9165 43.5862 79.9774 42.0707 80.6466 40.2663C81.1178 38.9957 81.1178 37.2802 80.6466 36.0095C79.9906 34.2402 77.9174 32.6897 76.2082 32.6897H75.6488L75.5502 31.1999C75.3779 28.5987 74.2816 25.8526 72.4961 23.55L71.549 22.3287V19.6773C71.549 17.2528 71.5201 16.9967 71.2115 16.6853C70.9982 16.4701 70.649 16.3448 70.263 16.3448H69.6519L70.7896 15.1278C72.3125 13.4991 72.6424 12.7456 72.6424 10.8966C72.6424 9.16451 72.2884 8.23745 71.2115 7.15086C70.1605 6.09049 69.2112 5.71286 67.5835 5.70792C65.1883 5.70043 65.2103 5.68494 59.5595 11.3477L54.5731 16.3448H53.6113H52.6496V13.9902V11.6353L50.6289 8.92496L48.6082 6.21444L48.6039 3.44774C48.6001 0.911224 48.5717 0.652772 48.2622 0.340517C47.9328 0.00817242 47.6998 0 38.4751 0C29.2503 0 29.0173 0.00817242 28.6879 0.340517ZM45.8998 4.08621V5.44828H38.4751H31.0503V4.08621V2.72414H38.4751H45.8998V4.08621ZM43.8764 8.89601C43.5828 9.29408 43.1397 9.90531 42.8916 10.2545L42.4406 10.8892L35.4652 10.893L28.49 10.8966L29.0239 10.173C29.3175 9.77489 29.7606 9.16366 30.0087 8.81446L30.4597 8.17974L37.4351 8.17599L44.4103 8.17241L43.8764 8.89601ZM68.6396 8.8526C69.7218 9.51831 70.1567 10.864 69.6192 11.8841C69.3261 12.4403 41.9205 40.0668 41.397 40.3336C39.6072 41.2462 37.4314 38.9506 38.3799 37.1504C38.6528 36.6327 66.0455 8.99562 66.571 8.70805C67.1019 8.41742 68.0389 8.48297 68.6396 8.8526ZM48.648 11.13L49.9497 12.8957V14.6203V16.3448H48.9372C47.2594 16.3448 47.2498 16.3678 47.2498 20.3924V23.7591L45.8998 25.1131L44.5499 26.4672V19.6814V12.8957L45.8516 11.13C46.5675 10.1588 47.1966 9.36422 47.2498 9.36422C47.3029 9.36422 47.932 10.1588 48.648 11.13ZM18.9007 14.3017V16.3448H16.2008H13.5009V14.3017V12.2586H16.2008H18.9007V14.3017ZM41.85 21.4131V29.2055L40.1175 30.9476L38.385 32.6897H32.6927H27.0004V23.1552V13.6207H34.4252H41.85V21.4131ZM21.9405 19.2556C23.1046 19.5076 23.8659 20.2756 24.1156 21.4502C24.2268 21.9736 24.3005 24.3877 24.3005 27.5051V32.6897H16.2008H8.10108V31.3276V29.9655H14.8509H21.6006V28.6034V27.2414H14.8509H8.10108V24.781C8.10108 23.4278 8.18427 21.929 8.28602 21.4502C8.52159 20.3423 9.31266 19.4985 10.3315 19.2685C11.3627 19.0358 20.8754 19.0252 21.9405 19.2556ZM51.8059 19.1173C51.8059 19.1439 51.3882 19.582 50.8778 20.0905L49.9497 21.0154V20.0422V19.069H50.8778C51.3882 19.069 51.8059 19.0908 51.8059 19.1173ZM68.8491 20.431V21.7931H66.5327H64.2165L65.5585 20.431L66.9006 19.069H67.8749H68.8491V20.431ZM67.1616 24.5949C67.1616 24.6376 66.9493 25.0398 66.6898 25.4887C65.6243 27.3318 64.8026 30.0748 64.8004 31.7958L64.7992 32.6897H59.1054H53.4116L57.4588 28.6034L61.506 24.5172H64.3338C65.8891 24.5172 67.1616 24.5521 67.1616 24.5949ZM71.8271 28.0482C72.3471 29.2348 72.7244 30.8405 72.7276 31.8809L72.7302 32.6897H70.199H67.6678L67.6704 31.9661C67.6759 30.3426 68.4613 28.06 69.6202 26.2983L70.2422 25.3527L70.8298 26.2329C71.1527 26.717 71.6016 27.5339 71.8271 28.0482ZM35.586 36.3077C35.1955 37.448 35.196 38.8294 35.5873 39.9725L35.895 40.8706L20.3528 40.8238C5.02065 40.7776 4.80263 40.7722 4.22047 40.4272C2.10036 39.1706 2.54905 36.1525 4.94134 35.5791C5.24069 35.5074 12.3269 35.4409 20.6887 35.4312L35.8921 35.4138L35.586 36.3077ZM76.7795 35.8486C78.5918 36.923 78.5918 39.3529 76.7795 40.4272C76.1975 40.7722 75.979 40.7776 60.7493 40.8231L45.3092 40.8692L48.0091 38.1374L50.709 35.4056L63.4492 35.4523C75.9545 35.4981 76.2002 35.5054 76.7795 35.8486ZM72.5614 43.6792C72.5614 43.7304 71.5726 50.2472 70.364 58.161C68.749 68.7372 68.0755 72.7454 67.8227 73.288C67.352 74.2985 66.4136 75.2146 65.3054 75.7458L64.3773 76.1907H40.5H16.6227L15.6946 75.7458C14.5864 75.2146 13.648 74.2985 13.1772 73.288C12.9245 72.7454 12.251 68.7372 10.636 58.161C9.42741 50.2472 8.43857 43.7304 8.43857 43.6792C8.43857 43.6281 22.8662 43.5862 40.5 43.5862C58.1338 43.5862 72.5614 43.6281 72.5614 43.6792ZM18.4789 49.358C18.1076 49.5318 17.5609 49.9323 17.2641 50.2481C16.1753 51.4058 16.2005 51.143 16.2045 61.3302C16.2079 69.9703 16.2287 70.6165 16.5214 71.2532C17.1951 72.718 18.5477 73.5517 20.2507 73.5517C21.9536 73.5517 23.3063 72.718 23.9799 71.2532C24.2729 70.6161 24.2931 69.9739 24.2931 61.2931C24.2931 52.6123 24.2729 51.9701 23.9799 51.333C23.593 50.4914 22.7309 49.6476 21.9013 49.2986C21.035 48.9339 19.3211 48.9637 18.4789 49.358ZM31.9784 49.358C31.6072 49.5318 31.0604 49.9323 30.7636 50.2481C29.6749 51.4058 29.7 51.143 29.7041 61.3302C29.7074 69.9703 29.7282 70.6165 30.021 71.2532C30.6946 72.718 32.0473 73.5517 33.7502 73.5517C35.4532 73.5517 36.8058 72.718 37.4795 71.2532C37.7724 70.6161 37.7927 69.9739 37.7927 61.2931C37.7927 52.6123 37.7724 51.9701 37.4795 51.333C37.0925 50.4914 36.2304 49.6476 35.4009 49.2986C34.5345 48.9339 32.8206 48.9637 31.9784 49.358ZM45.478 49.358C45.1067 49.5318 44.56 49.9323 44.2632 50.2481C43.1744 51.4058 43.1996 51.143 43.2036 61.3302C43.207 69.9703 43.2277 70.6165 43.5205 71.2532C44.1941 72.718 45.5468 73.5517 47.2498 73.5517C48.9527 73.5517 50.3054 72.718 50.979 71.2532C51.272 70.6161 51.2922 69.9739 51.2922 61.2931C51.2922 52.6123 51.272 51.9701 50.979 51.333C50.5921 50.4914 49.73 49.6476 48.9004 49.2986C48.0341 48.9339 46.3202 48.9637 45.478 49.358ZM58.9775 49.358C58.6063 49.5318 58.0595 49.9323 57.7627 50.2481C56.674 51.4058 56.6991 51.143 56.7032 61.3302C56.7065 69.9703 56.7273 70.6165 57.0201 71.2532C57.6937 72.718 59.0464 73.5517 60.7493 73.5517C62.4523 73.5517 63.8049 72.718 64.4786 71.2532C64.7715 70.6161 64.7918 69.9739 64.7918 61.2931C64.7918 52.6123 64.7715 51.9701 64.4786 51.333C64.0916 50.4914 63.2295 49.6476 62.4 49.2986C61.5336 48.9339 59.8197 48.9637 58.9775 49.358ZM20.9191 52.0956C21.5519 52.4373 21.6006 53.0967 21.6006 61.3239C21.6006 67.871 21.5571 69.4112 21.3587 69.8907C21.0947 70.5279 20.5546 70.7712 19.8177 70.5846C18.9328 70.3606 18.9007 70.0371 18.9007 61.3096C18.9007 56.1681 18.9637 53.142 19.0771 52.8338C19.3838 52 20.1634 51.6876 20.9191 52.0956ZM34.4186 52.0956C35.0514 52.4373 35.1002 53.0967 35.1002 61.3239C35.1002 67.871 35.0566 69.4112 34.8582 69.8907C34.5943 70.5279 34.0541 70.7712 33.3172 70.5846C32.4323 70.3606 32.4003 70.0371 32.4003 61.3096C32.4003 56.1681 32.4632 53.142 32.5766 52.8338C32.8834 52 33.663 51.6876 34.4186 52.0956ZM47.9182 52.0956C48.551 52.4373 48.5997 53.0967 48.5997 61.3239C48.5997 67.871 48.5562 69.4112 48.3577 69.8907C48.0938 70.5279 47.5537 70.7712 46.8168 70.5846C45.9319 70.3606 45.8998 70.0371 45.8998 61.3096C45.8998 56.1681 45.9628 53.142 46.0762 52.8338C46.3829 52 47.1625 51.6876 47.9182 52.0956ZM61.4177 52.0956C62.0505 52.4373 62.0993 53.0967 62.0993 61.3239C62.0993 67.871 62.0557 69.4112 61.8573 69.8907C61.5934 70.5279 61.0532 70.7712 60.3163 70.5846C59.4314 70.3606 59.3994 70.0371 59.3994 61.3096C59.3994 56.1681 59.4623 53.142 59.5757 52.8338C59.8825 52 60.6621 51.6876 61.4177 52.0956Z" fill="#999999"/>
</svg>
