<svg width="77" height="60" viewBox="0 0 77 60" fill="none" xmlns="http://www.w3.org/2000/svg">
<path fill-rule="evenodd" clip-rule="evenodd" d="M11.2215 0.112825C10.1075 0.221352 9.9071 0.287571 9.60316 0.647334C9.41242 0.873125 9.2563 1.19886 9.2563 1.37131C9.2563 1.5436 9.62619 2.35019 10.0783 3.16384C11.4366 5.60799 12.4707 8.36914 13.0798 11.1783L13.1674 11.5822L9.9908 11.5973C5.96287 11.6168 1.87773 11.9196 1.2605 12.2445C0.840789 12.4654 0.700483 13.133 0.34505 16.5994C0.0537489 19.4404 -0.000597253 20.8171 4.91982e-06 25.3367C0.000908179 30.2745 0.0287587 30.859 0.349867 32.6762C0.541659 33.7623 0.900705 35.3488 1.1476 36.2018C1.58206 37.7036 2.9222 40.7811 3.51082 41.6294C4.00671 42.344 4.3492 46.812 4.35703 52.6724C4.36335 57.397 4.37735 57.6383 4.65585 57.8458C4.81664 57.9654 5.18381 58.0634 5.4718 58.0634C6.60208 58.0634 13.4717 54.9311 16.9182 52.8444L18.4832 51.8968L20.1455 52.3071C22.5417 52.8985 25.6515 53.409 28.7261 53.7159L31.4057 53.9833L32.8634 55.2185C33.6652 55.898 35.111 57.2332 36.0763 58.1857C38.5421 60.6185 38.3245 60.6228 40.9664 58.0893C42.1142 56.9885 43.6167 55.6134 44.3055 55.0336L45.5578 53.9793L48.2173 53.7139C51.2246 53.4137 54.4577 52.8853 56.8468 52.3038L58.4663 51.9095L59.717 52.6611C62.7872 54.5059 66.2777 56.2176 69.6747 57.544C71.1132 58.1057 71.8096 58.1868 72.2675 57.8458C72.5457 57.6386 72.5602 57.3972 72.5683 52.8257C72.5793 46.7683 72.9093 42.7318 73.4812 41.6617C75.0301 38.7634 75.845 36.5657 76.3801 33.8441C76.7712 31.8548 77.0519 29.3205 76.9341 28.8425C76.7334 28.0284 75.2736 27.8124 74.8277 28.5307C74.7145 28.7132 74.5428 29.5866 74.446 30.4718C73.6829 37.4598 70.9381 42.4283 65.9723 45.8104C61.6577 48.7489 55.3031 50.6365 47.419 51.3215C46.3426 51.4152 45.2391 51.5254 44.967 51.5665C44.4325 51.6474 42.5739 53.1482 39.9268 55.6364L38.4563 57.0186L37.187 55.7952C35.6887 54.3511 33.4838 52.4304 32.7121 51.8973C32.248 51.5764 31.9164 51.5027 30.5335 51.4123C28.2223 51.2613 24.5545 50.7648 22.3725 50.3074C12.0972 48.1534 6.24002 43.6229 3.68259 35.8503C2.11484 31.0854 1.80457 24.6468 2.7554 16.6012L3.00876 14.4569L3.76148 14.3435C4.17547 14.2811 6.02188 14.1606 7.86453 14.0757C18.8105 13.5712 29.2903 15.5348 36.9692 19.5293C37.6801 19.899 38.3518 20.2016 38.4618 20.2016C38.5719 20.2016 39.4953 19.7861 40.5139 19.2779C46.8046 16.1408 53.6751 14.5265 62.6612 14.0745C65.5363 13.9299 70.9457 14.0547 73.1294 14.316L73.9468 14.4138L74.2014 17.1928C74.3414 18.7212 74.5106 20.9601 74.5776 22.1681C74.6851 24.1072 74.7367 24.4024 75.0187 24.6897C75.4223 25.1007 76.2681 25.1212 76.6921 24.7305C76.9625 24.4814 77.0006 24.2639 77 22.9753C76.9992 21.5541 76.7492 18.1799 76.3743 14.5335C76.1574 12.4233 75.9941 12.1734 74.7327 12.0209C72.4637 11.7465 70.0444 11.613 67.0735 11.5983L63.7904 11.582L64.0632 10.3352C64.5722 8.01014 65.5015 5.62853 66.8567 3.17702C67.3025 2.37073 67.6671 1.56414 67.6671 1.38449C67.6671 1.20484 67.5081 0.869753 67.3139 0.639824C66.9767 0.240666 66.8696 0.215067 64.9428 0.0720508C63.5434 -0.0317241 62.0483 -0.023753 60.0646 0.098263C52.645 0.55475 45.6522 2.27493 40.3213 4.95514L38.4813 5.88022L36.4521 4.86808C33.131 3.2112 28.154 1.65013 23.7837 0.894432C19.5875 0.168928 14.1309 -0.170602 11.2215 0.112825ZM18.3437 2.67301C18.9066 2.75702 18.945 2.80285 19.5285 4.08463C19.8603 4.81335 20.3921 6.21485 20.7105 7.1991C21.2925 8.99807 21.9813 12.0477 21.8386 12.193C21.7964 12.2359 20.7829 12.1585 19.5863 12.0209C18.3896 11.8834 17.1509 11.7699 16.8336 11.7687C15.6847 11.7646 15.6401 11.7192 15.3562 10.2633C14.9953 8.41252 14.1952 6.00209 13.329 4.15591C12.6194 2.64343 12.6059 2.58901 12.9204 2.51896C13.3136 2.43143 17.5267 2.55115 18.3437 2.67301ZM63.878 2.51482L64.3419 2.60925L63.886 3.52866C62.8872 5.54361 61.7783 8.93093 61.4266 11.0415C61.3144 11.7151 61.4377 11.6764 58.6345 11.9169C57.5167 12.0129 56.2869 12.1309 55.9018 12.1792L55.2013 12.2672L55.4159 11.061C55.8348 8.70437 57.3511 4.21615 58.1797 2.88026C58.2857 2.70919 58.7376 2.62764 59.9462 2.56142C62.4712 2.42331 63.376 2.41258 63.878 2.51482ZM24.0848 3.43148C26.4113 3.85455 28.5361 4.45282 28.6792 4.72521C29.1631 5.64554 30.0411 10.2104 30.2611 12.9493L30.362 14.2044L29.4064 13.9098C28.8807 13.7478 27.6715 13.4409 26.7193 13.228C25.7671 13.0151 24.8357 12.8057 24.6494 12.7628C24.3925 12.7036 24.3106 12.5761 24.3106 12.2356C24.3106 10.809 23.0614 6.04102 22.1195 3.87233L21.749 3.01913L22.3147 3.11586C22.6259 3.1689 23.4224 3.31099 24.0848 3.43148ZM55.3225 3.09746C55.3225 3.13257 55.1795 3.49478 55.0046 3.90222C54.1253 5.95089 53.1148 9.66901 52.8374 11.8777L52.7373 12.6743L51.8846 12.8489C51.0792 13.0139 47.7243 13.8381 47.1556 14.0108C46.9251 14.0807 46.8921 13.9751 46.8921 13.1661C46.8921 11.7284 47.3145 8.9878 47.886 6.71702C48.1723 5.57978 48.4594 4.59538 48.5238 4.52977C48.8579 4.18963 55.3225 2.82768 55.3225 3.09746ZM45.3697 6.63639C44.8971 8.60412 44.4849 11.7273 44.4842 13.3453C44.4834 14.7537 44.4632 14.8518 44.1447 14.9862C43.9583 15.065 43.264 15.344 42.6016 15.6064C41.9392 15.8688 40.7368 16.3997 39.9296 16.7861L38.462 17.4886L36.693 16.6437C35.72 16.1789 34.4455 15.6158 33.8608 15.392L32.7977 14.9851L32.6178 12.4965C32.4666 10.4049 32.2108 8.76415 31.5895 5.9023L31.497 5.47524L32.3825 5.80297C32.8695 5.98339 34.3775 6.67547 35.7335 7.34135C37.0895 8.00707 38.327 8.55185 38.4834 8.55185C38.6398 8.55185 39.5287 8.16067 40.4589 7.68241C41.8992 6.94204 45.5587 5.3215 45.6382 5.38894C45.6524 5.4009 45.5315 5.96239 45.3697 6.63639ZM22.401 19.4304C21.749 19.7094 21.5429 20.6819 22.0148 21.2529C22.1598 21.4282 23.5316 22.1664 25.0633 22.8935C26.5951 23.6204 29.0526 24.8703 30.5243 25.671C33.0218 27.0298 33.2314 27.1158 33.6687 26.9606C34.62 26.6229 34.8402 25.6824 34.1336 24.976C33.3694 24.2124 24.2286 19.5394 23.146 19.359C22.9172 19.321 22.5819 19.353 22.401 19.4304ZM52.7633 19.7203C48.8969 21.4561 43.2473 24.4529 42.7145 25.0505C42.1413 25.6936 42.3799 26.6576 43.1829 26.9425C43.6175 27.0967 43.9448 26.9553 48.2431 24.7545C50.7706 23.4603 53.2602 22.2138 53.7757 21.9845C54.291 21.7552 54.8161 21.4173 54.9424 21.2337C55.2476 20.7899 55.2331 20.1572 54.9085 19.7592C54.4839 19.2384 53.8617 19.227 52.7633 19.7203ZM9.56838 21.8318C9.19699 22.3124 9.19263 22.4422 9.48227 24.3991C9.8633 26.9727 10.4123 28.9671 10.8481 29.3605C11.3276 29.7934 11.8088 29.7987 12.3352 29.3772C12.6962 29.0881 12.7379 28.965 12.686 28.3425C12.6536 27.9539 12.4651 26.9309 12.2672 26.0691C12.0694 25.2073 11.9528 24.4561 12.0082 24.3995C12.2458 24.1578 18.7831 26.5359 22.5041 28.2177C26.4769 30.0133 32.5229 33.277 32.3633 33.5398C32.3257 33.6018 31.8363 33.9287 31.276 34.2661C28.0122 36.2317 24.1006 37.7888 19.645 38.8963L17.7643 39.3638L17.5134 39.025C17.1282 38.5051 15.7661 35.8655 14.9419 34.042C14.535 33.1417 14.0884 32.3172 13.9496 32.2098C13.6052 31.9431 12.8544 31.9556 12.4632 32.2348C11.8943 32.6405 11.902 33.2041 12.4955 34.6211C13.6878 37.467 16.0106 41.5891 16.5674 41.8475C17.2547 42.1662 22.4603 40.8821 26.0861 39.4993C29.5982 38.1599 33.9446 35.7879 35.3096 34.4658C36.453 33.3583 36.0772 32.7699 33.0421 30.9156C27.3802 27.4564 18.8599 23.6944 12.5798 21.881C10.5793 21.3033 9.98403 21.2936 9.56838 21.8318ZM64.5248 21.818C58.0821 23.6759 49.7448 27.3544 43.8812 30.9263C40.4594 33.0108 40.2652 33.5693 42.4199 35.1263C44.1582 36.3824 46.0051 37.3697 46.6165 37.3697C47.6027 37.3697 48.1254 36.3847 47.5685 35.5753C47.4437 35.394 46.7337 34.8914 45.9908 34.4583C45.2477 34.0254 44.6064 33.6163 44.5658 33.5492C44.3714 33.229 51.3548 29.5483 55.7069 27.6769C59.7566 25.9356 64.7014 24.182 64.9236 24.4083C65.243 24.7335 63.4088 30.8621 62.0995 33.8441C61.336 35.5833 59.4741 39.1363 59.2535 39.2752C59.0664 39.3929 55.0606 38.3569 53.1151 37.6875C51.0631 36.9814 50.6316 36.9344 50.2041 37.3697C49.8093 37.7716 49.7959 38.7563 50.1803 39.1106C50.7761 39.6596 55.6453 41.1715 58.6599 41.7436C60.4416 42.0817 60.5256 42.0422 61.4828 40.4163C64.7536 34.8601 67.1314 28.2183 67.595 23.344C67.6862 22.3846 67.6623 22.2264 67.37 21.8494C66.9553 21.3146 66.2956 21.3074 64.5248 21.818ZM32.5905 40.4633C30.8001 41.5697 28.2923 42.7603 26.343 43.4297C24.1791 44.1727 23.7131 44.6638 24.1809 45.7089C24.4726 46.361 25.0504 46.4476 26.3804 46.039C29.5045 45.0792 34.8524 42.3604 35.3031 41.5029C35.7122 40.725 35.1278 39.6671 34.2909 39.6708C34.0524 39.6717 33.3158 40.0151 32.5905 40.4633ZM41.8421 40.0453C41.4552 40.4391 41.3678 41.0228 41.6229 41.5081C42.0082 42.2413 46.9212 44.803 49.8437 45.7946C51.4272 46.332 51.7285 46.3909 52.1426 46.2439C52.6876 46.0505 52.9138 45.7063 52.9138 45.0708C52.9138 44.4874 52.441 44.0662 51.4084 43.7294C49.0053 42.9458 46.5359 41.8023 44.3317 40.4524C42.8925 39.571 42.3886 39.4887 41.8421 40.0453ZM9.93375 48.0976C11.1256 48.8875 13.6228 50.1771 14.7135 50.566C15.0241 50.6766 15.278 50.8149 15.278 50.8733C15.278 51.0925 7.3831 54.9976 6.9399 54.9976C6.91521 54.9976 6.84942 53.187 6.79372 50.9739C6.73787 48.7609 6.6492 46.609 6.59651 46.1921L6.50076 45.4341L7.61508 46.3667C8.22794 46.8797 9.27136 47.6586 9.93375 48.0976ZM70.215 48.4183C70.1269 49.9714 70.0765 52.0872 70.103 53.1202C70.1294 54.153 70.1033 54.9981 70.0449 54.9979C69.4555 54.9963 61.5437 51.0467 61.7489 50.8566C61.8162 50.7944 62.5278 50.4531 63.3305 50.0984C65.6283 49.0829 68.0142 47.5712 69.6994 46.0633C70.0306 45.767 70.3181 45.5403 70.3385 45.5595C70.3588 45.5788 70.3032 46.8652 70.215 48.4183Z" fill="#999999"/>
</svg>
