<svg width="80" height="80" viewBox="0 0 80 80" fill="none" xmlns="http://www.w3.org/2000/svg">
<mask id="mask0_13_216" style="mask-type:luminance" maskUnits="userSpaceOnUse" x="0" y="0" width="80" height="80">
<path d="M1.5 78.5V1.5H78.5V78.5H1.5Z" fill="white" stroke="white" stroke-width="3"/>
</mask>
<g mask="url(#mask0_13_216)">
<path d="M67.4702 17.305C69.5834 18.2333 71.9188 18.7495 74.375 18.7495C74.375 45.0517 69.9766 70.4051 40.0001 78.4373C10.0235 70.4051 5.6251 45.0517 5.6251 18.7495C15.1176 18.7495 22.8126 11.0545 22.8126 1.56206H57.1875C57.1875 4.01784 57.7036 6.35299 58.6316 8.4658" stroke="#999999" stroke-width="3" stroke-miterlimit="22.926" stroke-linecap="round" stroke-linejoin="round"/>
<path d="M19.8539 57.615C13.6827 48.0856 12.24 35.251 11.9418 24.1382C19.8289 21.935 26.0389 15.7088 28.2192 7.81224H51.78C53.9603 15.7088 60.1704 21.935 68.0576 24.1382C67.7557 35.3878 66.269 47.8492 60.4184 57.187C55.5909 64.8922 48.4845 69.3831 39.9997 71.9404C35.8138 70.6787 31.9638 68.9461 28.5571 66.5897" stroke="#999999" stroke-width="3" stroke-miterlimit="22.926" stroke-linecap="round" stroke-linejoin="round"/>
<path d="M51.5527 30.0018L44.6435 32.4935L39.9998 26.6037L35.3559 32.4935L28.4467 30.0018V40.6487H51.5527V30.0018Z" stroke="#999999" stroke-width="3" stroke-miterlimit="22.926" stroke-linecap="round" stroke-linejoin="round"/>
<path d="M40 40.6486V71.9404M40 7.81224V26.6036" stroke="#999999" stroke-width="3" stroke-miterlimit="22.926" stroke-linecap="round" stroke-linejoin="round"/>
<path d="M28.4464 35.3252H12.7188M67.2803 35.3252H51.5525" stroke="#999999" stroke-width="3" stroke-miterlimit="22.926" stroke-linecap="round" stroke-linejoin="round"/>
<path d="M62.2203 13.7142L62.2217 13.7156" stroke="#999999" stroke-width="3" stroke-miterlimit="2.613" stroke-linecap="round" stroke-linejoin="round"/>
<path d="M23.7652 62.5401L23.7666 62.5415" stroke="#999999" stroke-width="3" stroke-miterlimit="2.613" stroke-linecap="round" stroke-linejoin="round"/>
</g>
</svg>
