<svg width="88" height="67" viewBox="0 0 88 67" fill="none" xmlns="http://www.w3.org/2000/svg">
<path fill-rule="evenodd" clip-rule="evenodd" d="M41.6915 0.105313C41.2259 0.189392 40.4796 0.377841 40.0333 0.52382C38.7453 0.945249 2.30599 18.4084 1.61627 18.9347C0.572673 19.7311 0 20.8112 0 21.9834C0 23.9089 0.983787 25.0422 3.91005 26.4877L5.8436 27.4427V35.4182V43.3937L5.35016 43.5984C4.62727 43.8979 3.51681 45.0673 3.08215 45.9866C2.63237 46.9382 2.55176 48.7219 2.91733 49.6332C3.32896 50.6595 4.13624 51.7035 4.88594 52.1791L5.60831 52.6375L3.41043 59.5996C2.20166 63.4288 1.21066 66.6585 1.20791 66.7766C1.20412 66.9448 2.587 66.9916 7.5623 66.9916C12.5385 66.9916 13.9201 66.9448 13.9153 66.7766C13.9119 66.6585 12.9193 63.4296 11.7099 59.6013L9.5108 52.641L10.2327 52.1829C11.6741 51.2685 12.4128 49.8478 12.4128 47.9906C12.4128 47.0836 12.3131 46.5676 12.0151 45.9333C11.5643 44.9739 10.5651 43.9259 9.79799 43.608L9.28101 43.3937V36.2895V29.1852L11.902 30.458L14.5231 31.7311L14.5672 42.5507L14.6116 53.3703L15.7772 54.7192C19.2 58.6797 24.3853 62.2896 29.6477 64.3756C36.6103 67.1355 45.2162 67.7598 52.7643 66.0526C58.6611 64.719 64.5606 61.7021 69.006 57.7468C70.6067 56.3226 72.2468 54.5817 72.9267 53.5847C73.1911 53.1974 73.2174 52.213 73.2227 42.4945L73.2285 31.8295L79.1952 28.9147C85.8629 25.6574 86.7119 25.1658 87.4103 24.1576C88.4468 22.6613 88.0806 20.3939 86.5975 19.124C85.7859 18.429 50.8391 1.28225 48.7634 0.560443C47.5229 0.129212 47.0566 0.0619834 44.9441 0.0107447C43.6207 -0.0214084 42.1571 0.0210611 41.6915 0.105313ZM47.7243 3.8196C49.2904 4.39561 84.4225 21.6593 84.5139 21.8979C84.5624 22.0243 84.4665 22.2774 84.3008 22.4605C83.9881 22.8061 71.6214 28.9924 71.2431 28.9924C71.1254 28.9924 70.8345 29.1454 70.597 29.3323C69.9248 29.8612 48.2618 40.29 47.1425 40.6234C45.8129 41.0196 42.903 41.0191 41.553 40.6222C40.6769 40.3648 14.1939 27.7792 13.8818 27.4719C13.8127 27.404 20.7199 26.5321 29.2311 25.5345C44.5432 23.7398 44.7106 23.716 45.1494 23.2772C45.4874 22.9389 45.5926 22.6596 45.5926 22.0987C45.5926 21.0949 44.9971 20.5673 43.8646 20.5673C43.4233 20.5673 35.1664 21.4995 25.5162 22.6388L7.97032 24.7104L5.77708 23.6516C4.5709 23.069 3.54036 22.4791 3.48708 22.3403C3.43397 22.2016 3.49774 21.9811 3.6287 21.8503C3.83443 21.6452 33.1423 7.47337 38.9287 4.78127C40.063 4.25341 41.3778 3.7228 41.8505 3.6021C43.1276 3.27575 46.5946 3.40419 47.7243 3.8196ZM28.7282 38.3393C34.3667 41.0393 39.4326 43.3996 39.9857 43.5844C41.3419 44.0378 43.9631 44.3339 45.4481 44.2017C48.2551 43.9517 47.3235 44.3561 65.2678 35.5953L69.9513 33.3088V42.6675V52.0263L68.7912 53.2612C64.8916 57.4123 59.411 60.7246 53.7924 62.3258C44.9656 64.8409 35.4887 63.9069 27.6983 59.7538C24.4958 58.0466 20.6566 55.1205 18.8628 53.0197L18.0464 52.0637V42.659C18.0464 35.2028 18.0909 33.2724 18.2612 33.3422C18.3795 33.3907 23.0894 35.6393 28.7282 38.3393Z" fill="#999999"/>
</svg>
