<svg width="94" height="70" viewBox="0 0 94 70" fill="none" xmlns="http://www.w3.org/2000/svg">
<path fill-rule="evenodd" clip-rule="evenodd" d="M23.1499 0.439117C22.9401 0.665236 19.3646 6.33184 15.2043 13.0318L7.64023 25.2135L6.72249 25.1213C6.00169 25.0487 5.71792 25.1027 5.40038 25.3721C5.17811 25.5608 3.87711 27.8349 2.50949 30.4255C-0.111956 35.3914 -0.323956 36.0197 0.344163 36.8415C0.52092 37.0588 13.9222 44.6076 30.125 53.6169L59.5846 69.9972L72.4699 69.9987C81.0972 69.9996 85.6766 69.9333 86.3278 69.7984C88.8665 69.2721 91.6383 67.1963 92.8381 64.9232C93.9488 62.8189 94 62.4217 94 55.9197C94 50.2411 93.9833 49.9572 93.576 48.7095C92.8053 46.349 91.4237 44.5467 89.3911 43.2498C87.1457 41.8172 86.9479 41.785 75.4392 40.9796L70.7363 40.6504L63.7495 28.9478L56.7627 17.245L56.7025 15.4957C56.6496 13.9586 56.5813 13.6518 56.1392 12.9657C55.3453 11.7338 54.3619 11.1851 52.8098 11.1081C51.5156 11.0437 51.4712 11.0579 44.8124 13.6389C41.1295 15.0665 38.0653 16.2133 38.0033 16.1873C37.9412 16.1614 38.1314 15.3116 38.4262 14.2989C39.3637 11.0768 38.9311 8.72892 37.0624 6.89677C36.5167 6.36167 34.5357 5.18522 30.6294 3.07594C24.4957 -0.235742 23.9541 -0.426691 23.1499 0.439117ZM29.1615 6.21694C34.0034 8.80957 34.7785 9.31245 35.1553 10.1052C35.4831 10.7949 35.5367 12.0384 35.2735 12.8444C35.1775 13.1379 34.8851 14.0974 34.6238 14.9765L34.1487 16.5748L28.0529 12.8996C24.7002 10.8783 21.9833 9.12739 22.0152 9.00881C22.1248 8.60242 24.8914 4.0793 25.0304 4.0793C25.1069 4.0793 26.9657 5.04123 29.1615 6.21694ZM27.7091 16.7893C33.0058 19.9723 34.6942 20.9034 35.1428 20.8883C35.462 20.8777 39.497 19.4121 44.1096 17.6315C48.8486 15.802 52.6227 14.4428 52.7874 14.5062C53.2352 14.6785 53.4364 15.2015 53.4287 16.1741L53.4217 17.0609L50.8181 18.9943C47.0416 21.7987 47.0115 21.8284 47.0115 22.7616C47.0115 23.5112 47.356 23.9942 55.1086 34.113C59.562 39.9256 63.3681 44.8594 63.5663 45.077C64.1924 45.7638 64.7419 45.7314 67.4025 44.8511L69.8973 44.0256L77.5248 44.5793C83.8505 45.0383 85.3246 45.1974 86.1612 45.5116C88.0657 46.2262 89.4739 47.5932 90.1961 49.4281C90.5113 50.2284 90.5882 50.9217 90.6561 53.5659L90.7378 56.7422H76.349H61.9604L56.6426 53.6798C53.7178 51.9954 51.2946 50.5908 51.2573 50.5585C51.2202 50.5261 52.0462 49.5806 53.0928 48.4572C54.1396 47.334 55.0518 46.2067 55.1203 45.952C55.4042 44.8975 54.5539 43.8527 53.4115 43.8527C52.9036 43.8527 52.4937 44.1804 50.3978 46.2625L47.9718 48.6724L45.018 46.958C43.3934 46.015 42.1243 45.1917 42.1975 45.1284C42.271 45.065 43.6112 43.9939 45.176 42.7482C46.7407 41.5026 48.1636 40.3094 48.3382 40.0965C48.5127 39.8836 48.6572 39.3955 48.6594 39.0108C48.6651 38.0382 48.0223 37.4079 47.0249 37.4079C46.3478 37.4079 45.9864 37.6493 42.612 40.3541C40.5906 41.9745 38.8861 43.3003 38.8246 43.3003C38.7632 43.3003 37.6013 42.6663 36.2428 41.8914C34.2671 40.7645 33.8209 40.4382 34.0138 40.2611C34.1463 40.1392 36.0061 38.5781 38.1466 36.792C41.6419 33.8753 42.0514 33.475 42.1658 32.8629C42.3958 31.6329 41.3936 30.6126 40.2114 30.8729C39.8773 30.9466 37.9045 32.4674 35.1327 34.788L30.6004 38.5825L29.399 37.9242C28.4435 37.4005 28.1977 37.1768 28.1977 36.8305C28.1977 36.5911 28.2651 34.4479 28.3473 32.068C28.4861 28.0512 28.4705 27.6397 28.1298 26.3314C27.5496 24.1028 26.4968 22.2237 24.9113 20.5873C24.4562 20.1175 22.738 18.7327 21.0931 17.51C19.4483 16.2872 18.1025 15.2656 18.1025 15.2398C18.1025 15.214 18.5377 14.5069 19.0698 13.6684C20.0037 12.1962 20.0513 12.1527 20.4464 12.4074C20.6715 12.5523 23.9397 14.5242 27.7091 16.7893ZM19.9184 20.9988C23.422 23.6542 24.5605 25.2874 24.9621 28.2333C25.0957 29.2126 24.9012 34.976 24.7288 35.1489C24.6484 35.2298 11.2481 27.5259 10.8867 27.1911C10.691 27.0099 11.1023 26.2428 13.0696 23.1192C14.4027 21.0025 15.6532 19.0416 15.8485 18.7618L16.2037 18.253L16.7859 18.6596C17.1062 18.8833 18.5159 19.936 19.9184 20.9988ZM60.93 30.9906C64.176 36.4239 66.8773 40.9879 66.9328 41.1326C67.0825 41.5243 65.5916 41.9548 65.2739 41.6117C65.1492 41.4771 62.1322 37.5552 58.5695 32.8966C55.0069 28.2379 51.8619 24.1301 51.5809 23.768L51.0697 23.1099L52.8342 21.7919C54.425 20.6037 54.6198 20.5053 54.8132 20.793C54.9312 20.9683 57.6837 25.5573 60.93 30.9906ZM34.0957 44.6813L61.053 60.2408H75.889H90.7253L90.6038 60.8392C90.1697 62.9782 89.4838 64.1563 88.0347 65.2515C86.3185 66.5485 86.8862 66.5014 72.9708 66.5014H60.4502L32.3342 50.8673C16.8705 42.2686 4.17538 35.1902 4.1227 35.1375C4.0502 35.0648 6.99763 29.1402 7.114 29.1249C7.1274 29.1233 19.2692 36.1236 34.0957 44.6813ZM0.473565 47.6192C-0.171793 48.2664 -0.155091 49.413 0.508622 50.0301L0.994293 50.4816H5.7148H10.4351L10.9191 49.9962C11.5746 49.3387 11.5897 48.2583 10.9524 47.6192L10.5019 47.1671H5.71297H0.923994L0.473565 47.6192ZM1.1281 56.9448C0.292218 57.2847 0.0229519 57.6708 0.0229519 58.5289C0.0229519 59.1669 0.125372 59.433 0.508622 59.7893L0.994293 60.2408H12.1392C23.0288 60.2408 23.2949 60.2323 23.7536 59.8703C24.3217 59.4221 24.5434 58.5541 24.2633 57.8757C23.8204 56.803 24.1998 56.8376 12.4125 56.7969C5.49142 56.7731 1.41884 56.8265 1.1281 56.9448ZM1.21602 66.6333C0.5178 66.8027 0.0229519 67.4423 0.0229519 68.1758C0.0229519 69.1209 0.165202 69.4167 0.770363 69.7306C1.21675 69.9622 4.08801 70 21.2278 70H41.1662L41.7027 69.4618C42.6342 68.5273 42.2579 67.0455 40.9999 66.6951C40.3103 66.5031 1.99831 66.4434 1.21602 66.6333Z" fill="#999999"/>
</svg>
