<svg width="86" height="80" viewBox="0 0 86 80" fill="none" xmlns="http://www.w3.org/2000/svg">
<path fill-rule="evenodd" clip-rule="evenodd" d="M29.6542 2.68826C22.688 5.5718 22.2749 5.8138 21.8758 7.24727C21.4288 8.85148 21.8102 10.8533 22.812 12.1626C24.8627 14.8434 28.3516 15.1226 34.7075 13.1145C36.8905 12.4248 37.2676 12.1283 37.2676 11.1008C37.2676 10.3619 36.5895 9.63054 35.9045 9.63054C35.6383 9.63054 34.5665 9.90559 33.5227 10.2417C29.7373 11.4607 27.2645 11.697 26.0125 10.9597C25.3321 10.5589 24.7278 9.49337 24.7278 8.69413V8.0742L31.0828 5.45892L37.4377 2.84364L44.2943 2.84382C51.9944 2.844 54.3563 3.00313 56.4531 3.6636C57.2476 3.91383 60.612 5.4307 63.9295 7.03419C69.9792 9.95846 72.2586 10.8461 74.7076 11.2308C75.348 11.3316 77.9881 11.4144 80.5743 11.4151C85.0388 11.4166 85.2948 11.3985 85.635 11.0594C86.1065 10.5893 86.1217 9.40139 85.6619 8.94292C85.3627 8.64466 84.8808 8.60215 80.6908 8.50534C73.7526 8.34478 73.5582 8.29102 65.2141 4.22531C62.4056 2.85686 59.4225 1.47036 58.5851 1.14441C55.7511 0.0413637 55.0738 -0.0157893 45.0852 0.00242818L36.1032 0.0188595L29.6542 2.68826ZM40.9967 6.959C40.4675 7.26691 39.9193 9.05919 39.8212 10.8022C39.6718 13.4603 40.3858 15.2438 42.3332 17.077C43.864 18.518 45.2994 19.2412 52.1979 22.0466L54.3198 22.9097L55.0268 24.0259C56.3043 26.0423 58.6361 27.9089 61.093 28.8812C64.4678 30.2168 68.8913 30.2016 72.7148 28.8414C73.3647 28.6101 74.5039 28.5624 79.3877 28.5624C85.0379 28.5624 85.2913 28.548 85.635 28.2052C86.1235 27.7182 86.1212 26.5467 85.6307 26.0577C85.2775 25.7055 85.0992 25.698 78.5995 25.76C72.0303 25.8225 71.9069 25.8303 70.3187 26.2906C67.2695 27.1743 63.6395 26.8596 61.0368 25.486C59.6268 24.7418 57.9434 23.0675 57.2032 21.6732C56.8865 21.0765 56.4401 20.5033 56.2113 20.3994C55.9824 20.2954 53.9038 19.4289 51.592 18.4737C46.4061 16.3308 45.4922 15.8556 44.3272 14.6957C43.2886 13.6614 42.8209 12.5741 42.8209 11.194C42.8209 10.3894 42.8502 10.3301 43.1954 10.4394C43.4015 10.5046 46.7669 11.8829 50.6745 13.5021C54.5819 15.1215 58.0389 16.4557 58.3567 16.4671C59.6323 16.5132 60.3105 14.9847 59.436 14.0351C58.9077 13.4614 42.7241 6.77058 41.8838 6.77826C41.5617 6.78129 41.1626 6.86274 40.9967 6.959ZM23.4601 17.4753C23.074 17.8602 22.9365 18.1674 22.9365 18.6444C22.9365 20.388 25.3013 20.7346 25.984 19.0913C26.6661 17.4494 24.7296 16.2096 23.4601 17.4753ZM18.9839 21.787C18.3129 22.456 16.6609 25.1349 15.7704 26.998C14.7158 29.2045 13.9561 31.4276 13.4351 33.8312C12.5951 37.7083 12.8366 45.886 13.8224 46.941C14.2866 47.4377 14.9496 47.5809 15.5799 47.3205C16.4305 46.9694 16.5609 46.3709 16.2338 44.3191C15.8653 42.0089 15.8667 37.9709 16.2368 35.6385C16.7997 32.0898 18.4256 28.0122 20.5097 24.9211C21.6511 23.2283 21.7715 22.5624 21.0636 21.8568C20.5005 21.2953 19.5103 21.2622 18.9839 21.787ZM37.6258 26.062C37.2892 26.3976 37.2676 26.6573 37.2676 30.3485V34.2777H33.3265C29.6242 34.2777 29.3638 34.2993 29.0272 34.6349C28.6859 34.9752 28.6689 35.2302 28.6689 39.993C28.6689 44.7558 28.6859 45.0108 29.0272 45.3511C29.3638 45.6867 29.6242 45.7083 33.3265 45.7083H37.2676V49.6375C37.2676 53.3287 37.2892 53.5884 37.6258 53.924C37.9671 54.2642 38.2229 54.2812 43 54.2812C47.7771 54.2812 48.0329 54.2642 48.3742 53.924C48.7108 53.5884 48.7324 53.3287 48.7324 49.6375V45.7083H52.6735C56.3757 45.7083 56.6362 45.6867 56.9728 45.3511C57.3141 45.0108 57.3311 44.7558 57.3311 39.993C57.3311 35.2302 57.3141 34.9752 56.9728 34.6349C56.6362 34.2993 56.3757 34.2777 52.6735 34.2777H48.7324V30.3485C48.7324 26.6573 48.7108 26.3976 48.3742 26.062C48.0329 25.7218 47.7771 25.7048 43 25.7048C38.2229 25.7048 37.9671 25.7218 37.6258 26.062ZM45.8662 32.4917C45.8662 36.1829 45.8879 36.4426 46.2245 36.7781C46.5611 37.1137 46.8216 37.1354 50.5238 37.1354H54.4649V39.993V42.8506H50.5238C46.8216 42.8506 46.5611 42.8723 46.2245 43.2078C45.8879 43.5434 45.8662 43.8031 45.8662 47.4943V51.4236H43H40.1338V47.4943C40.1338 43.8031 40.1121 43.5434 39.7755 43.2078C39.4389 42.8723 39.1784 42.8506 35.4762 42.8506H31.5351V39.993V37.1354H35.4762C39.1784 37.1354 39.4389 37.1137 39.7755 36.7781C40.1121 36.4426 40.1338 36.1829 40.1338 32.4917V28.5624H43H45.8662V32.4917ZM70.1745 32.8687C69.5605 33.2248 69.4805 33.8576 69.7959 35.8633C70.1669 38.2218 70.063 43.2882 69.6014 45.3511C68.8162 48.8597 67.4372 52.1555 65.6245 54.8556C64.3521 56.7509 64.258 57.0085 64.5681 57.7484C64.8779 58.4873 65.6713 58.8175 66.4697 58.54C67.566 58.159 70.4301 53.1796 71.6418 49.5482C72.7549 46.2121 72.9887 44.5952 72.9977 40.1716C73.0068 35.5749 72.7768 33.7653 72.0971 33.0877C71.6464 32.6383 70.7481 32.536 70.1745 32.8687ZM18.0101 50.0983C16.22 50.3346 14.8329 50.6268 13.7343 50.9994C12.5179 51.412 12.3223 51.4236 6.60348 51.4236C0.962047 51.4236 0.708744 51.438 0.364977 51.7808C-0.123534 52.2678 -0.121206 53.4393 0.369276 53.9283C0.722538 54.2805 0.90096 54.288 7.40047 54.2264C14.0503 54.1633 14.0739 54.1617 15.7709 53.6729C17.335 53.2225 17.6614 53.1891 19.8015 53.2621C22.3222 53.348 23.5627 53.6741 25.3763 54.7281C26.5868 55.4314 28.1105 57.0304 28.7968 58.3176C29.1633 59.0049 29.5542 59.4803 29.8716 59.6254C30.1463 59.7506 32.2248 60.6168 34.4909 61.5502C39.4629 63.5982 40.4788 64.1194 41.5757 65.1845C42.698 66.2744 43.0365 66.9824 43.1426 68.4617C43.225 69.6098 43.2074 69.6894 42.8916 69.598C42.705 69.5441 39.3277 68.159 35.3866 66.5203C31.0808 64.73 27.983 63.5393 27.6247 63.5368C26.3385 63.5282 25.6914 65.002 26.564 65.9522C27.1134 66.5505 43.2515 73.2131 44.1511 73.2131C44.5465 73.2131 44.9247 73.0802 45.1398 72.8657C46.0412 71.967 46.5043 68.3796 45.9619 66.498C45.3766 64.4682 43.8142 62.6571 41.4773 61.2998C40.7876 60.8992 38.3051 59.7843 35.9604 58.822L31.6976 57.0726L30.9092 55.8904C29.0809 53.1483 26.2082 51.218 22.8469 50.4725C21.5275 50.18 18.9205 49.9783 18.0101 50.0983ZM60.6371 60.435C59.6929 61.3762 60.3526 63.0376 61.6671 63.0288C62.6483 63.0222 63.5673 62.0038 63.3215 61.1953C62.9539 59.9854 61.5007 59.5737 60.6371 60.435ZM54.945 65.8904C52.2937 66.4474 49.3222 67.4523 49.0096 67.8973C48.3299 68.8647 49.0056 70.3555 50.1238 70.3555C50.4054 70.3555 51.3296 70.1217 52.1776 69.8357C55.9874 68.5519 58.7015 68.269 59.9807 69.0224C60.6672 69.4265 61.2721 70.4898 61.2721 71.292V71.9122L54.9228 74.5273L48.5734 77.1424L41.7113 77.1422C34.0252 77.142 31.6421 76.9823 29.5642 76.3279C28.7792 76.0806 25.4141 74.5635 22.0861 72.9566C16.0203 70.0279 13.7379 69.1394 11.2924 68.7552C10.652 68.6544 8.01205 68.5716 5.42565 68.5709C0.961151 68.5694 0.705161 68.5875 0.364977 68.9266C-0.106516 69.3967 -0.121743 70.5846 0.338106 71.0431C0.637626 71.3417 1.11449 71.3831 5.30921 71.4749C9.9523 71.5766 11.3211 71.7357 13.5317 72.4306C14.0243 72.5855 17.2488 74.0647 20.6972 75.7176C24.1456 77.3706 27.4911 78.8975 28.1315 79.1106C30.6461 79.9477 31.3918 80 40.827 80H49.7292L56.262 77.3093C59.855 75.8294 62.9838 74.443 63.2149 74.2285C64.6643 72.882 64.6527 69.7378 63.1911 67.8273C61.5756 65.7155 58.8375 65.0724 54.945 65.8904Z" fill="#999999"/>
</svg>
