<svg width="80" height="80" viewBox="0 0 80 80" fill="none" xmlns="http://www.w3.org/2000/svg">
<path fill-rule="evenodd" clip-rule="evenodd" d="M23.431 0.239062C20.4769 0.699687 17.7243 1.59469 14.9998 2.98031C7.52655 6.78125 2.40339 13.5166 0.449806 22.1094L0.0945233 23.6719L0.0473398 51.4708L0 79.2697L0.343096 79.6348L0.686192 80H19.302H37.9178L38.293 79.6006C38.843 79.015 38.8152 78.062 38.2335 77.5616C37.8803 77.2577 37.6243 77.1875 36.8699 77.1875H35.9412V75.8594V74.5312H47.7963H59.6514L60.5362 75.0641C63.1403 76.6323 66.3722 75.9714 68.0412 73.5294C68.5964 72.7167 69.0634 71.2716 69.0634 70.3655C69.0634 69.4297 68.7344 68.3136 68.194 67.4159L67.6573 66.5247V64.3561V62.1875L71.9929 62.1866C74.4931 62.1861 76.5743 62.1175 76.9095 62.0244C77.5954 61.8339 78.3605 61.2275 78.67 60.6291C79.0043 59.9823 80 55.8859 80 55.157C80 54.6859 79.8989 54.4159 79.6164 54.1336L79.233 53.75H57.6039H35.9748L35.895 49.6484C35.8381 46.7313 35.7451 45.2536 35.5733 44.5312C34.7483 41.0664 33.2891 38.333 30.9669 35.9022C27.9708 32.7659 24.6326 31.0923 19.966 30.3869L19.3801 30.2983L19.3827 28.6258C19.386 26.5903 19.6621 25.2048 20.3263 23.8891C20.9795 22.5948 22.5898 20.9794 23.8722 20.332C25.8166 19.3505 25.2366 19.3798 42.7047 19.3773C57.9993 19.3752 58.6302 19.3638 59.1877 19.0791C60.5985 18.3591 60.7829 17.7789 60.7829 14.0594V11.0773L61.5905 11.1247L62.3979 11.1719L63.5434 14.6067L64.6888 18.0416V21.0542V24.0669L63.9845 24.9316C62.6474 26.5734 62.0328 28.2927 62.0328 30.3909V31.5963L59.9381 34.1372C58.7858 35.5348 57.7312 36.8948 57.5945 37.1595C57.2111 37.9008 57.2728 39.1747 57.7281 39.9219L58.1089 40.5469L55.2275 43.4469C52.5215 46.1703 52.3461 46.3823 52.3461 46.9305C52.3461 47.7641 52.896 48.2812 53.7827 48.2812C54.4423 48.2812 54.4942 48.2394 57.2777 45.4586L60.1032 42.6359L60.8569 43.0367C61.709 43.4898 62.5561 43.5494 63.3619 43.2128C63.6576 43.0892 65.1644 42.0256 66.7103 40.8495L69.5209 38.7109L70.7334 38.6533C74.3236 38.4823 77.2059 36.2181 78.3672 32.6562C78.7738 31.4088 78.7523 29.2925 78.3186 27.8841C77.9641 26.7333 77.0545 25.1889 76.3506 24.5431L75.9378 24.1642V21.1873V18.2103L77.1487 14.563C78.2472 11.2541 78.4036 10.8884 78.8342 10.6217C79.0952 10.4602 79.4644 10.0513 79.6544 9.71297C79.9837 9.12703 80 8.92562 80 5.43156C80 1.87656 79.9892 1.74891 79.6447 1.23781C79.4494 0.947813 79.0523 0.550625 78.7623 0.355312L78.2351 0L51.5027 0.0151563C30.0273 0.0273438 24.5068 0.0714062 23.431 0.239062ZM77.1877 5.46141V8.11031L68.5556 8.15672C59.17 8.20719 59.4936 8.17672 58.6421 9.08891C57.9192 9.86312 57.8144 10.4231 57.8144 13.5106V16.4062L42.8547 16.4089C34.3348 16.4105 27.2777 16.4767 26.4609 16.5628C23.1142 16.9155 20.1785 18.6775 18.3467 21.4331C17.0281 23.4169 16.4116 25.8077 16.4116 28.9383C16.4116 30.4767 16.533 30.3441 14.9342 30.5528C10.821 31.0895 6.12042 33.9522 3.53064 37.4973L2.79055 38.5105L2.86648 31.638C2.94756 24.2961 3.00631 23.6311 3.8264 20.7806C6.59351 11.1614 15.1072 4.02109 25.0596 2.97266C25.6738 2.90781 37.654 2.84531 51.6821 2.83375L77.1877 2.8125V5.46141ZM26.0102 8.30219C17.487 8.89703 10.3259 15.2358 8.61131 23.7028C8.28774 25.3006 8.15385 27.6364 8.35102 28.2439C8.48507 28.6572 9.19048 29.0625 9.77574 29.0625C10.0154 29.0625 10.3654 28.8833 10.6168 28.6319C11.0027 28.2459 11.0578 28.0542 11.1478 26.7845C11.4586 22.4064 13.1748 18.6684 16.2022 15.7758C19.1812 12.9294 22.5825 11.4408 26.789 11.142C28.0586 11.052 28.2503 10.9969 28.6362 10.6109C29.124 10.1231 29.1843 9.58656 28.8284 8.89844C28.6973 8.645 28.5738 8.4375 28.554 8.4375C28.5342 8.4375 28.3075 8.38234 28.0501 8.315C27.793 8.24766 26.8749 8.24187 26.0102 8.30219ZM35.3573 8.29688C34.3363 8.59672 34.0912 10.0969 34.9525 10.7745C35.3511 11.088 35.528 11.0938 44.833 11.0938C55.2947 11.0938 54.8077 11.1406 55.151 10.1002C55.3528 9.48875 55.2047 8.97844 54.6912 8.51562C54.3536 8.21125 54.1048 8.20234 45.1039 8.17578C39.6339 8.15953 35.6567 8.20891 35.3573 8.29688ZM75.1567 11.2147C75.1567 11.2811 74.7815 12.4589 74.3228 13.8319L73.4891 16.3281L70.3761 16.3703L67.2631 16.4125L66.3801 13.7531L65.497 11.0938H70.3269C72.9832 11.0938 75.1567 11.1481 75.1567 11.2147ZM72.9693 20.8664V22.358L72.3834 22.2336C71.6044 22.0684 68.9789 22.075 68.2432 22.2439L67.6573 22.3786V20.8767V19.375H70.3133H72.9693V20.8664ZM71.1767 25.0139C72.4455 25.2486 73.3895 25.7642 74.2664 26.7017C75.3434 27.8533 75.6749 28.6938 75.6907 30.3125C75.7016 31.4419 75.641 31.7739 75.2863 32.5306C74.7542 33.6661 73.6666 34.7537 72.5312 35.2859C71.7746 35.6406 71.4426 35.7012 70.3133 35.6903C68.6947 35.6745 67.8543 35.343 66.7028 34.2659C63.4276 31.202 64.9878 25.883 69.4181 25.0084C69.7815 24.9367 70.1188 24.8703 70.1674 24.8609C70.2161 24.8514 70.6703 24.9203 71.1767 25.0139ZM69.1292 27.7962C67.0275 28.7509 66.9972 31.822 69.0789 32.8986C69.3196 33.0231 69.8893 33.1239 70.3446 33.1225C71.9897 33.1173 73.1179 31.9891 73.1231 30.3438C73.1259 29.4136 72.8964 28.873 72.2294 28.2391C71.4248 27.4745 70.2175 27.302 69.1292 27.7962ZM19.5404 33.2877C21.376 33.5133 22.4997 33.8364 24.2003 34.6278C28.9057 36.8175 32.0904 41.07 32.875 46.2109L32.9764 46.875H17.9579H2.93928L3.05084 45.9766C3.62657 41.3434 7.15549 36.6695 11.6437 34.5956C13.4226 33.7738 15.6898 33.2347 17.7437 33.1455C18.0038 33.1342 18.8123 33.1983 19.5404 33.2877ZM65.756 37.3581C66.1135 37.577 66.0851 37.6077 64.2034 39.0305L62.2866 40.4797L61.2992 39.5011C60.7561 38.9628 60.3309 38.4656 60.354 38.3961C60.3771 38.3267 61.0203 37.502 61.7832 36.5636L63.1705 34.8575L64.2812 35.9963C64.892 36.6225 65.5557 37.2355 65.756 37.3581ZM9.14657 41.3977C8.02198 41.8581 7.9298 43.6592 9.01002 44.07C9.24063 44.1577 12.9611 44.2188 18.0743 44.2188H26.7473L27.204 43.762C27.9441 43.0219 27.7938 41.9572 26.8826 41.4859C26.4914 41.2836 25.2174 41.2514 17.9427 41.2598C13.2767 41.2653 9.31844 41.3273 9.14657 41.3977ZM32.9727 63.4375V77.1875H17.8958H2.81898V63.4375V49.6875H17.8958H32.9727V63.4375ZM5.95575 52.7483L5.47501 53.1528V59.2895V65.4261L5.88685 65.8381L6.29885 66.25H17.9085H29.518L29.9564 65.873L30.3948 65.4958V59.2969V53.098L29.9564 52.7208L29.518 52.3438H17.9772H6.43633L5.95575 52.7483ZM27.5044 59.375V63.4375H17.8958H8.28727V59.375V55.3125H17.8958H27.5044V59.375ZM76.7181 56.6797C76.7176 56.7442 76.6518 57.043 76.5718 57.3438C76.492 57.6445 76.3491 58.1895 76.2542 58.5547L76.082 59.2188H56.0115H35.9412V57.8906V56.5625H56.3301C67.544 56.5625 76.7186 56.6152 76.7181 56.6797ZM59.2205 64.1406V66.0938H47.5808H35.9412V64.1406V62.1875H47.5808H59.2205V64.1406ZM64.6888 63.495V64.8027H63.4389H62.189V63.495V62.1875H63.4389H64.6888V63.495ZM64.227 67.8119C64.8552 67.9864 65.6824 68.77 65.9291 69.4242C66.5646 71.11 65.2605 72.9636 63.4389 72.9636C62.4655 72.9636 61.6022 72.4414 61.1461 71.577C60.3895 70.1425 60.8911 68.6989 62.4233 67.902C62.9656 67.6198 63.4492 67.5958 64.227 67.8119ZM8.32211 69.2284C6.38353 70.2138 6.39103 73.2628 8.33446 74.2038C9.89854 74.9609 11.5062 74.4163 12.2104 72.8906C12.77 71.6781 12.4111 70.2642 11.3356 69.4439C10.5391 68.8363 9.27203 68.7458 8.32211 69.2284ZM16.6027 69.2284C14.6763 70.2075 14.6555 73.1586 16.5678 74.1803C18.026 74.9592 19.8207 74.377 20.4873 72.9088C21.049 71.6719 20.6959 70.2675 19.6162 69.4439C18.8197 68.8363 17.5526 68.7458 16.6027 69.2284ZM24.8339 69.2695C22.9407 70.2683 22.9493 73.1658 24.8484 74.1803C27.1963 75.4345 29.8423 73.0963 28.8265 70.6647C28.5164 69.9225 28.1876 69.5677 27.4716 69.2022C26.6801 68.7981 25.6789 68.8238 24.8339 69.2695ZM57.9017 70.3906L57.9109 71.7188H46.9261H35.9412V70.3906V69.0625H46.9168H57.8925L57.9017 70.3906Z" fill="#999999"/>
</svg>
