<svg width="89" height="80" viewBox="0 0 89 80" fill="none" xmlns="http://www.w3.org/2000/svg">
<path d="M83.9552 69.9106H74.5532V67.3684H75.5961C78.7055 67.3684 81.2351 64.8386 81.2351 61.7294V49.5838C81.2351 46.9425 79.3753 44.6939 76.8974 44.0996V40.2144C76.8974 37.1052 74.3679 34.5754 71.2584 34.5754H40.8946C37.7852 34.5754 35.2556 37.1052 35.2556 40.2144V44.1019C34.2892 44.3373 33.3937 44.8334 32.6546 45.5586C31.5511 46.6417 30.9179 48.1443 30.9179 49.6815V61.7294C30.9179 64.8386 33.4475 67.3684 36.5569 67.3684H37.5999V69.9106H28.3316V68.9027C28.3316 65.7934 25.8021 63.2637 22.6926 63.2637H19.4316V40.5882H20.94V42.8939C20.94 43.6126 21.5225 44.1952 22.2413 44.1952C22.9602 44.1952 23.5426 43.6126 23.5426 42.8939V40.5882H24.4296C26.1038 40.5882 27.466 39.226 27.466 37.5518V24.816C27.466 21.7067 24.9364 19.177 21.827 19.177H14.4333C11.3239 19.177 8.79433 21.7067 8.79433 24.816V28.6797C8.79433 29.3983 9.37679 29.981 10.0956 29.981C10.8145 29.981 11.3969 29.3983 11.3969 28.6797V24.816C11.3969 23.1418 12.7591 21.7796 14.4333 21.7796H21.827C23.5012 21.7796 24.8634 23.1418 24.8634 24.816V37.5518C24.8634 37.7909 24.6689 37.9856 24.4296 37.9856H11.8307C11.5914 37.9856 11.3969 37.7909 11.3969 37.5518V34.3508C11.3969 33.6321 10.8145 33.0494 10.0956 33.0494C9.37679 33.0494 8.79433 33.6321 8.79433 34.3508V37.5516C8.79433 39.2258 10.1565 40.588 11.8307 40.588H16.8289V63.2635H13.5679C10.4584 63.2635 7.92887 65.7933 7.92887 68.9025V69.9104H5.20879C2.42712 69.9106 0.164062 72.1737 0.164062 74.9553C0.164062 77.737 2.42712 80.0001 5.20879 80.0001H83.9552C86.7369 80.0001 88.9999 77.737 88.9999 74.9553C88.9999 72.1737 86.7369 69.9106 83.9552 69.9106ZM71.9506 69.9106H68.83V67.3684H71.9506V69.9106ZM45.9256 69.9106V67.3684H66.2274V69.9106H45.9256ZM33.5205 61.7292V49.6814C33.5205 48.8385 33.8693 48.0129 34.4774 47.4162C35.0632 46.8412 35.8143 46.531 36.6161 46.548C38.2578 46.579 39.5933 47.9409 39.5933 49.5838V55.6566C39.5933 57.3308 40.9555 58.693 42.6297 58.693H59.0565C59.7752 58.693 60.3578 58.1104 60.3578 57.3917C60.3578 56.673 59.7752 56.0904 59.0565 56.0904H42.6297C42.3904 56.0904 42.1959 55.8957 42.1959 55.6566V49.5838C42.1959 46.9425 40.3361 44.6939 37.8582 44.0996V40.2144C37.8582 38.5403 39.2204 37.1781 40.8946 37.1781H71.2584C72.9328 37.1781 74.2948 38.5403 74.2948 40.2144V44.1017C73.328 44.337 72.4333 44.8332 71.6938 45.5588C70.5902 46.6419 69.9571 48.1444 69.9571 49.6817V55.6568C69.9571 55.8959 69.7626 56.0906 69.5234 56.0906H64.7278C64.0089 56.0906 63.4265 56.6732 63.4265 57.3919C63.4265 58.1105 64.0089 58.6932 64.7278 58.6932H69.5234C71.1977 58.6932 72.5597 57.331 72.5597 55.6568V49.6817C72.5597 48.8388 72.9085 48.0133 73.5166 47.4166C74.1024 46.8416 74.8533 46.5313 75.6553 46.5483C77.297 46.5794 78.6325 47.9413 78.6325 49.5842V61.7297C78.6325 63.4039 77.2705 64.7661 75.5961 64.7661H36.5569C34.8827 64.7656 33.5205 63.4036 33.5205 61.7292ZM43.323 67.3682V69.9104H40.2025V67.3682H43.323ZM10.5315 68.9027C10.5315 67.2285 11.8937 65.8663 13.5679 65.8663H22.6926C24.3668 65.8663 25.729 67.2285 25.729 68.9027V69.9106H10.5315V68.9027ZM83.9552 77.3974H5.20879C3.8622 77.3974 2.76668 76.3019 2.76668 74.9553C2.76668 73.6087 3.86238 72.5132 5.20879 72.5132H83.9552C85.3018 72.5132 86.3973 73.6087 86.3973 74.9553C86.3973 76.3019 85.3016 77.3974 83.9552 77.3974Z" fill="#999999"/>
<path d="M48.9595 47.5015C48.2408 47.5015 47.6582 48.0841 47.6582 48.8028C47.6582 49.5214 48.2408 50.1041 48.9595 50.1041C49.6782 50.1041 50.2608 49.5214 50.2608 48.8028C50.2608 48.0839 49.6782 47.5015 48.9595 47.5015Z" fill="#999999"/>
<path d="M64.4942 48.8028C64.4942 48.0841 63.9116 47.5015 63.1929 47.5015C62.4742 47.5015 61.8916 48.0841 61.8916 48.8028C61.8916 49.5214 62.4742 50.1041 63.1929 50.1041C63.9116 50.1041 64.4942 49.5214 64.4942 48.8028Z" fill="#999999"/>
<path d="M73.1186 26.4412C74.7927 26.4412 76.1549 25.079 76.1549 23.4048V3.03916C76.1549 2.99457 76.1529 2.9498 76.1482 2.90469C76.0784 1.29176 74.7483 0.000173743 73.1186 0.000173743H53.8781C53.1595 0.000173743 52.5768 0.582812 52.5768 1.30148C52.5768 2.02015 53.1595 2.60279 53.8781 2.60279H71.2383C64.4187 4.61686 60.1798 7.85816 57.7376 10.3905C55.9019 12.2939 54.8061 14.0558 54.2068 15.2076C51.6671 13.9625 49.1945 13.247 47.0758 12.8427C43.4458 12.15 40.3539 12.2408 38.6011 12.3954V3.03638C38.6011 2.79729 38.7956 2.60261 39.0349 2.60261H48.2069C48.9257 2.60261 49.5082 2.01998 49.5082 1.30131C49.5082 0.582639 48.9257 0 48.2069 0H39.0349C37.3607 0 35.9985 1.36221 35.9985 3.03638V23.4048C35.9985 25.079 37.3607 26.4412 39.0349 26.4412H73.1186ZM73.5523 4.66874V23.4048C73.5523 23.6439 73.3578 23.8385 73.1186 23.8385H64.2535C61.916 20.5218 59.2109 18.1532 56.4844 16.4659C57.7349 14.034 62.0614 7.52919 73.5523 4.66874ZM46.6816 15.4172C49.3661 15.9391 51.8259 16.8139 54.053 18.0335C54.1374 18.0958 54.2309 18.1475 54.3317 18.189C56.864 19.6211 59.0896 21.5068 60.9926 23.8387H39.0347C38.7955 23.8387 38.601 23.644 38.601 23.405V15.0124C40.1289 14.8644 43.1493 14.7306 46.6816 15.4172Z" fill="#999999"/>
</svg>
