<svg width="80" height="80" viewBox="0 0 80 80" fill="none" xmlns="http://www.w3.org/2000/svg">
<path fill-rule="evenodd" clip-rule="evenodd" d="M38.8386 0.413507L38.4252 0.827171V5.49042V10.1537L38.8386 10.5673C39.1687 10.8975 39.4016 10.9808 39.9935 10.9808C40.8594 10.9808 41.4601 10.5096 41.6212 9.70408C41.7482 9.06876 41.7482 1.91208 41.6212 1.27676C41.4601 0.471235 40.8594 0 39.9935 0C39.4016 0 39.1687 0.0832975 38.8386 0.413507ZM27.4981 1.16993C26.8906 1.43426 26.6624 1.83035 26.6624 2.62034C26.6624 3.1057 27.0524 3.8971 28.6816 6.7173C29.7922 8.63988 30.8631 10.3857 31.0615 10.5968C31.4948 11.0583 32.569 11.1256 33.1738 10.7294C33.6012 10.4492 33.8969 9.60918 33.7602 9.06296C33.7111 8.86672 32.7469 7.09111 31.6175 5.11692C29.187 0.868898 28.8756 0.570533 27.4981 1.16993ZM50.921 1.21652C50.6163 1.40476 49.82 2.63807 48.3724 5.16382C46.5991 8.25791 46.267 8.93982 46.267 9.48761C46.267 10.4095 46.874 10.9808 47.8536 10.9808C48.334 10.9808 48.6641 10.8842 48.8839 10.6795C49.2378 10.3496 52.7129 4.43799 53.1994 3.33818C53.5857 2.46457 53.3805 1.69387 52.642 1.24335C52.0294 0.86984 51.496 0.861526 50.921 1.21652ZM12.5253 16.5889C11.0972 18.0622 0.368568 30.1939 0.176599 30.5525C0.0795165 30.734 0 31.153 0 31.4835C0 32.0485 1.11605 33.4516 18.7557 55.0633C29.0714 67.7019 37.898 78.4837 38.3706 79.0229C39.1968 79.9658 39.2576 80.0031 39.9645 79.9998C40.4253 79.9976 40.8215 79.8952 41.0271 79.7253C41.2608 79.5321 71.0084 43.1616 79.5448 32.6322C79.9896 32.0837 80.1238 31.2855 79.879 30.6472C79.7628 30.3445 67.4581 16.4167 66.9078 15.9649C66.5977 15.7104 64.946 15.6937 39.9887 15.6904L13.3997 15.6869L12.5253 16.5889ZM34.8885 18.9667C34.5834 19.2584 21.0065 28.7071 20.8925 28.7071C20.8076 28.7071 17.5318 21.1764 16.651 18.9561C16.6221 18.8836 20.7474 18.8243 25.8181 18.8243C31.3454 18.8243 34.9779 18.8814 34.8885 18.9667ZM63.3196 19.0204C62.6884 20.6437 59.2103 28.7063 59.1423 28.7041C59.0656 28.7017 47.4006 20.3345 45.8674 19.1823L45.4044 18.8342L54.4001 18.8293C61.5344 18.8254 63.38 18.8649 63.3196 19.0204ZM47.5862 24.55L54.7679 29.7267L47.4711 29.7675C43.4578 29.7899 36.8449 29.7899 32.7759 29.7675L25.3777 29.7267L32.8032 24.5221C36.8874 21.6597 40.2683 19.3302 40.3166 19.3454C40.3651 19.3608 43.6364 21.7029 47.5862 24.55ZM15.6677 25.1585C16.7181 27.6502 17.5506 29.7159 17.5175 29.7488C17.4845 29.7819 14.7175 29.7904 11.3687 29.7678L5.27977 29.7267L9.42075 25.0653C11.6982 22.5015 13.6058 20.4543 13.6598 20.5161C13.7137 20.5778 14.6172 22.667 15.6677 25.1585ZM70.8673 25.367C72.9502 27.7144 74.6546 29.6734 74.6546 29.7201C74.6546 29.7669 71.8946 29.8051 68.5211 29.8051C63.6769 29.8051 62.4043 29.7639 62.4666 29.6091C62.6823 29.0735 66.0262 21.1968 66.1992 20.8172L66.3991 20.3786L66.7395 20.7387C66.9267 20.9369 68.7843 23.0196 70.8673 25.367ZM19.8961 35.1779C27.1493 52.2698 33.6989 67.8411 33.6537 67.8861C33.6225 67.9173 27.4719 60.4384 19.9858 51.2663C12.4998 42.0941 6.06114 34.219 5.67783 33.7661L4.98068 32.9425H11.964H18.9474L19.8961 35.1779ZM57.3576 33.1386C57.3145 33.2465 56.3838 35.4469 55.2896 38.0287C53.0931 43.211 53.0564 43.3808 53.9695 44.1493C54.5592 44.6456 55.4599 44.6886 56.0212 44.247C56.2936 44.0327 57.0918 42.3233 58.7314 38.4428L61.0555 32.9425H68.0243H74.9932L73.6751 34.5504C72.9502 35.4349 66.5128 43.3233 59.3697 52.0806C46.8937 67.3756 45.9581 68.5136 46.1486 68.1597C46.6627 67.2048 51.7563 54.8258 51.7563 54.531C51.7563 53.5747 51.0297 52.8649 50.0509 52.8649C49.0195 52.8649 48.9596 52.9807 44.3812 63.8196C42.0111 69.4308 40.0232 73.9734 39.9637 73.9144C39.8781 73.8294 23.2555 34.6529 22.7292 33.2955L22.5924 32.9425H40.0142C53.8889 32.9425 57.42 32.9825 57.3576 33.1386ZM51.7736 47.2711C50.9339 47.7558 50.7024 49.0826 51.3302 49.8127C51.5893 50.1139 51.8865 50.2513 52.4056 50.3098C53.041 50.3815 53.1837 50.3365 53.6552 49.9151C54.1128 49.5062 54.1873 49.3394 54.1873 48.7244C54.1873 48.1634 54.0995 47.9212 53.78 47.6016C53.2915 47.1132 52.3236 46.9536 51.7736 47.2711Z" fill="#999999"/>
</svg>
