<svg width="80" height="80" viewBox="0 0 80 80" fill="none" xmlns="http://www.w3.org/2000/svg">
<path d="M78.8281 74.4375C79.4751 74.4375 79.9996 74.9624 80 75.6094C80 76.2567 79.4755 76.7812 78.8281 76.7812C76.7557 76.7813 75.7676 77.4368 74.624 78.1953C73.3489 79.0411 71.9034 79.9999 69.124 80C63.8867 80 63.7436 76.7814 59.4199 76.7812C55.0942 76.7812 54.952 79.9999 49.7158 80C44.4784 80 44.3357 76.7812 40.0117 76.7812C35.685 76.7813 35.5459 80 30.3086 80C25.0712 80 24.9284 76.7812 20.6045 76.7812C16.2791 76.7814 16.137 79.9998 10.9014 80C5.66431 80 5.52088 76.7812 1.19727 76.7812C0.550083 76.7811 0.0253906 76.2566 0.0253906 75.6094C0.0256496 74.9624 0.550243 74.4377 1.19727 74.4375C3.9765 74.4375 5.42226 75.3964 6.69727 76.2422C7.84078 77.0009 8.82817 77.6562 10.9004 77.6562C15.2262 77.6562 15.3685 74.4375 20.6045 74.4375C25.8419 74.4375 25.9847 77.6562 30.3086 77.6562C34.6339 77.6562 34.776 74.4375 40.0117 74.4375C45.249 74.4376 45.3919 77.6562 49.7158 77.6562C54.0411 77.656 54.1831 74.4377 59.4189 74.4375C64.6565 74.4375 64.7999 77.6562 69.124 77.6562C71.1966 77.6562 72.1844 77.0007 73.3281 76.2422C74.6033 75.3964 76.0488 74.4375 78.8281 74.4375ZM45.4805 0C46.1276 0.000241066 46.6523 0.524676 46.6523 1.17188V17.8613H51.6533C53.3943 17.8613 54.9389 19.0312 55.4102 20.707C55.4267 20.7658 55.3649 20.4933 56.3574 24.999H57.9697C60.9288 24.9991 63.5547 26.9892 64.3555 29.8379C64.3716 29.8939 64.2159 29.1984 67.2422 42.9404H77.6582C79.5536 42.9404 80.6094 45.1285 79.4365 46.6113L74.3877 53.502C74.0049 54.0238 73.2714 54.1364 72.749 53.7539C72.2273 53.3713 72.1147 52.6383 72.4971 52.1162L77.5029 45.2842C77.377 45.2841 48.4981 45.2766 47.9619 45.3184C46.8901 45.4027 45.8371 45.6511 44.8418 46.0527C43.8069 46.4707 44.4315 46.1742 28.4854 55.3438C26.6483 56.4005 24.5567 56.9589 22.4375 56.959H2.55859L3.95215 61.7812H15.7129C16.3601 61.7814 16.8848 62.3068 16.8848 62.9541C16.8845 63.6012 16.36 64.1259 15.7129 64.126H4.62891L5.60938 67.5205C7.32852 68.5022 8.20411 69.62 10.9004 69.6201C15.2879 69.6201 15.3291 66.4015 20.6045 66.4014C25.7789 66.4014 26.0698 69.6201 30.3086 69.6201C34.6337 69.6199 34.7761 66.4014 40.0117 66.4014C45.2486 66.4015 45.3914 69.6199 49.7148 69.6201C54.0406 69.6201 54.1827 66.4015 59.4189 66.4014C60.2137 66.4014 61.0423 66.487 61.8174 66.6885L63.6953 64.126H21.1807C20.5337 64.1257 20.0091 63.6011 20.0088 62.9541C20.0088 62.3069 20.5335 61.7815 21.1807 61.7812H65.4131L69.2637 56.5283C69.6464 56.0062 70.379 55.8933 70.9014 56.2754C71.4233 56.658 71.5365 57.3909 71.1543 57.9131C69.9804 59.5151 65.0794 66.2023 64.0283 67.6367C65.6602 68.6133 66.5499 69.6201 69.124 69.6201C73.4494 69.6199 73.5919 66.4014 78.8281 66.4014C79.4754 66.4014 80.0003 66.9261 80 67.5732C80 68.2204 79.4753 68.7449 78.8281 68.7451C74.502 68.7451 74.3598 71.9639 69.123 71.9639C64.4646 71.9638 63.7753 69.3944 60.7705 68.8564C55.499 67.9118 55.3718 71.9639 49.7148 71.9639C44.4775 71.9638 44.3347 68.7451 40.0107 68.7451C37.3622 68.7452 36.4849 69.8162 34.8008 70.7979C32.1519 72.3416 28.3939 72.4671 25.2969 70.4795C23.8959 69.5804 22.9526 68.7451 20.6045 68.7451C16.3388 68.7453 16.0764 71.9639 10.9004 71.9639C5.57464 71.9638 5.59145 68.7451 1.19727 68.7451C0.549944 68.7451 0.0254279 68.2206 0.0253906 67.5732C0.0253906 66.9261 0.549668 66.4019 1.19727 66.4014C1.82442 66.4014 2.38102 66.4518 2.88574 66.5371C2.74864 66.0627 0.330426 57.69 0.166992 57.124C-0.0189464 56.5573 0.0603883 55.8983 0.466797 55.3672C-0.201844 54.1749 0.187528 53.5906 0.0712891 48.1533C0.0714895 46.4425 1.463 45.0508 3.17383 45.0508H4.49902V43.2568C4.49925 41.4132 5.99876 39.9132 7.84277 39.9131C9.68655 39.9131 11.1873 41.413 11.1875 43.2568V45.0508H12.5117C14.2225 45.0508 15.615 46.4425 15.6152 48.1533C15.5824 53.7872 15.6954 53.9111 15.5176 54.6143H21.4121L27.0264 29.2793C27.5116 27.0894 29.7851 24.999 32.6084 24.999H34.6045L35.6104 20.46C35.9158 19.087 37.2962 17.8604 38.9727 17.8604H44.3086V13.6543H35.8467C34.1358 13.6543 32.7432 12.2626 32.7432 10.5518V4.75879C32.7432 3.04784 34.1357 1.65527 35.8467 1.65527H44.3086V1.17188C44.3086 0.524528 44.8331 0 45.4805 0ZM3.17285 47.3945C2.7616 47.3947 2.41406 47.7429 2.41406 48.1543V53.8555C2.41406 54.2668 2.76145 54.615 3.17285 54.6152H12.5117C12.9231 54.6152 13.2715 54.267 13.2715 53.8555V48.1543C13.2715 47.7429 12.9233 47.3945 12.5117 47.3945H3.17285ZM32.6074 27.3428C31.0841 27.3429 29.7313 28.3606 29.3066 29.8213L23.8359 54.5127C26.6206 54.1103 28.031 52.7949 31.832 50.7139V44.9004C31.832 44.2531 32.3567 43.7287 33.0039 43.7285C33.6511 43.7285 34.1758 44.253 34.1758 44.9004V49.3652C34.1916 49.3562 42.7284 44.44 43.2402 44.1963V33.7236C43.2401 33.3695 42.9401 33.0703 42.5859 33.0703H34.8291C34.4751 33.0704 34.1759 33.3696 34.1758 33.7236V39.4316C34.1756 40.0787 33.651 40.6035 33.0039 40.6035C32.3568 40.6034 31.8322 40.0787 31.832 39.4316V33.7236C31.8322 32.0712 33.1768 30.7267 34.8291 30.7266H42.5859C44.2387 30.7266 45.5838 32.0713 45.584 33.7236V43.3467C48.3072 42.6475 48.9749 43.0614 64.8418 42.9404L62.0898 30.4414C61.5619 28.6157 59.8727 27.343 57.9697 27.3428H32.6074ZM7.84277 42.2568C7.29105 42.2568 6.8418 42.7061 6.8418 43.2578V45.0508H8.84277V43.2578C8.84277 42.7061 8.39443 42.2569 7.84277 42.2568ZM37.2793 40.2432C37.9266 40.2432 38.4512 40.7677 38.4512 41.415V43.208C38.451 43.8553 37.9266 44.3799 37.2793 44.3799C36.6324 44.3796 36.1075 43.8551 36.1074 43.208V41.415C36.1074 40.7678 36.6322 40.2434 37.2793 40.2432ZM53.3975 30.7266C56.2683 30.7266 58.6045 33.0628 58.6045 35.9336C58.6044 38.8043 56.2682 41.1396 53.3975 41.1396C50.5268 41.1395 48.1913 38.8042 48.1914 35.9336C48.1914 33.0629 50.5268 30.7267 53.3975 30.7266ZM53.3975 33.0703C51.819 33.0705 50.535 34.3552 50.5352 35.9336C50.5353 37.5118 51.8191 38.7957 53.3975 38.7959C54.9758 38.7959 56.2606 37.5121 56.2607 35.9336C56.2607 34.3551 54.9759 33.0703 53.3975 33.0703ZM38.9727 20.2041C38.4762 20.2041 38.034 20.5324 37.8887 21.0049L37.0039 24.999H53.957L53.1455 21.3135C52.9481 20.6591 52.3382 20.2041 51.6523 20.2041H38.9727ZM35.8457 3.99902C35.4345 3.99905 35.0872 4.34647 35.0869 4.75781V10.5518C35.087 10.9631 35.4342 11.3105 35.8457 11.3105H44.3076V3.99902H35.8457Z" fill="#999999"/>
</svg>
