<svg width="75" height="80" viewBox="0 0 75 80" fill="none" xmlns="http://www.w3.org/2000/svg">
<path fill-rule="evenodd" clip-rule="evenodd" d="M22.4537 11.6406L7.98234 23.2812H5.78094C3.65203 23.2812 3.56688 23.2939 3.19609 23.6648C2.81672 24.0441 2.8125 24.0794 2.8125 26.9188C2.8125 30.5995 2.71859 30.4688 5.36156 30.4688H7.1875V32.3364C7.1875 33.3995 7.26406 34.3722 7.36531 34.5942C7.58984 35.087 8.23062 35.3125 9.40641 35.3125H10.3287L10.235 36.6016C10.1027 38.4209 8.90625 61.7362 8.90625 62.4972C8.90625 63.108 8.89172 63.125 8.37078 63.125C7.97828 63.125 7.74859 63.235 7.51141 63.5367C7.22344 63.9028 7.1875 64.1625 7.1875 65.8805V67.8125H5.49594C3.92984 67.8125 3.77922 67.8394 3.46469 68.1741C3.15281 68.5062 3.125 68.6978 3.125 70.5178V72.5H1.97422C1.04656 72.5 0.743594 72.5628 0.411719 72.8239L0 73.1477V76.2614C0 79.1667 0.0209375 79.3959 0.3125 79.6875C0.622969 79.998 0.833282 80 31.7727 80C61.7495 80 62.93 79.9892 63.1789 79.7142C63.5358 79.3198 63.5197 78.2478 63.1517 77.9148C62.888 77.6761 60.5494 77.6562 32.683 77.6562H2.5V76.3281V75H6.45719C10.3914 75 10.4162 74.998 10.7541 74.6384C11.2495 74.1109 11.2152 73.2431 10.682 72.8239C10.3075 72.5292 10.0609 72.5 7.94766 72.5H5.625V71.4062V70.3125H37.5H69.375V71.405V72.4973L42.0175 72.5378L14.6598 72.5781L14.3612 72.947C13.9453 73.4605 13.9805 74.1509 14.4461 74.6164L14.8295 75H43.6648H72.5V76.3281V77.6562H69.7898C66.7022 77.6562 66.5625 77.7081 66.5625 78.8553C66.5625 79.9808 66.6331 80 70.7545 80C74.1667 80 74.393 79.982 74.6875 79.6875C74.9791 79.3959 75 79.1667 75 76.2614V73.1477L74.5883 72.8239C74.2564 72.5628 73.9534 72.5 73.0258 72.5H71.875V70.4959C71.875 68.6033 71.8548 68.4731 71.5134 68.1522C71.1886 67.8472 70.9812 67.8125 69.4822 67.8125H67.8125V65.8805C67.8125 64.1625 67.7766 63.9028 67.4886 63.5367C67.2514 63.235 67.0217 63.125 66.6292 63.125C66.1083 63.125 66.0938 63.108 66.0938 62.4972C66.0938 61.7423 64.8981 38.4311 64.7664 36.6189L64.6741 35.3473L65.8695 35.287C66.9463 35.2327 67.1022 35.1834 67.4388 34.792C67.7897 34.3842 67.8125 34.2386 67.8125 32.4131V30.4688H69.6603C72.2787 30.4688 72.1875 30.5978 72.1875 26.8969C72.1875 24.0808 72.1831 24.0439 71.8039 23.6648C71.4331 23.2939 71.348 23.2812 69.2203 23.2812H67.0202L52.5505 11.6406C39.2388 0.931719 38.0344 0 37.503 0C36.9714 0 35.7666 0.932031 22.4537 11.6406ZM50.185 13.0078L62.8598 23.2031L59.5709 23.2812C56.6206 23.3514 56.2481 23.39 55.9534 23.657C55.4605 24.1038 55.5036 25.0381 56.0367 25.4573C56.4384 25.7734 56.6077 25.7812 63.068 25.7812H69.6875V26.875V27.9688H37.5H5.3125V26.875V25.7812L28.5547 25.7763C47.3752 25.7722 51.8477 25.7327 52.0642 25.5683C52.7433 25.0523 52.6973 23.832 51.9847 23.4578C51.7306 23.3244 46.4745 23.2675 31.8925 23.2402L12.1444 23.2031L24.7831 13.0188C31.7344 7.41734 37.4417 2.82938 37.4661 2.82344C37.4903 2.81734 43.2139 7.40031 50.185 13.0078ZM21.25 31.6406V32.8125H15.4688H9.6875V31.6406V30.4688H15.4688H21.25V31.6406ZM51.25 32.4322C51.25 33.512 51.3189 34.5242 51.403 34.6814C51.6141 35.0758 52.3794 35.3125 53.4436 35.3125H54.3405L54.2636 36.6016C54.2212 37.3105 53.895 43.5508 53.5386 50.4688L52.8906 63.0469L52.4219 63.0984C52.1641 63.1269 51.795 63.2973 51.6016 63.4772C51.2722 63.7838 51.25 63.9314 51.25 65.8084V67.8125H48.125H45V60.3967V52.9809L44.658 52.6623C44.4028 52.4247 44.1053 52.3438 43.4861 52.3438C43.0297 52.3438 42.6562 52.3172 42.6562 52.2847C42.6562 52.2523 43.1481 51.2395 43.7494 50.0341C44.3505 48.8288 45.1016 47.08 45.4184 46.1478C46.6948 42.3925 46.1611 39.222 44.0173 37.8253L43.4375 37.4477V35.755C43.4375 33.2364 43.9527 33.4375 37.5 33.4375C31.0473 33.4375 31.5625 33.2364 31.5625 35.755V37.4477L30.9827 37.8253C29.5939 38.7302 28.9062 40.2758 28.9062 42.4925C28.9062 44.5608 29.5947 46.7145 31.4167 50.3459C31.9266 51.3622 32.3438 52.2275 32.3438 52.2687C32.3438 52.31 31.9703 52.3438 31.5139 52.3438C30.8947 52.3438 30.5972 52.4247 30.342 52.6623L30 52.9809V60.3967V67.8125H26.875H23.75V65.8084C23.75 63.9314 23.7278 63.7838 23.3984 63.4772C23.205 63.2973 22.8359 63.1269 22.5781 63.0984L22.1094 63.0469L21.4614 50.4688C21.105 43.5508 20.7787 37.3105 20.7364 36.6016L20.6595 35.3125H21.5564C22.6206 35.3125 23.3859 35.0758 23.597 34.6814C23.6811 34.5242 23.75 33.512 23.75 32.4322V30.4688H37.5H51.25V32.4322ZM65.3125 31.6406V32.8125H59.5312H53.75V31.6406V30.4688H59.5312H65.3125V31.6406ZM18.1897 36.1328C18.2972 37.1437 19.5364 61.3537 19.5334 62.3828L19.5312 63.125H15.4688H11.4062V62.5569C11.4062 61.8041 12.6198 38.2567 12.7439 36.6016L12.8406 35.3125H15.4716H18.1025L18.1897 36.1328ZM62.2561 36.6016C62.3802 38.2567 63.5938 61.8041 63.5938 62.5569V63.125H59.5312H55.4688L55.4666 62.3828C55.4636 61.3537 56.7028 37.1437 56.8103 36.1328L56.8975 35.3125H59.5284H62.1594L62.2561 36.6016ZM40.9375 37.2583C40.9375 38.9192 41.103 39.293 41.988 39.6309C42.6787 39.8948 43.3064 40.5472 43.508 41.2109L43.6148 41.5625H37.5105C34.1531 41.5625 31.4062 41.5239 31.4062 41.4766C31.4062 41.3134 31.9134 40.3897 32.153 40.1166C32.2852 39.9658 32.663 39.7698 32.9925 39.6811C33.8336 39.4547 34.0625 38.9395 34.0625 37.2734V35.9375H37.5H40.9375V37.2583ZM43.35 44.4141C43.2903 44.6075 43.1047 45.1348 42.9377 45.5859L42.6337 46.4062H37.5H32.3662L32.0623 45.5859C31.8953 45.1348 31.7097 44.6075 31.65 44.4141L31.5414 44.0625H37.5H43.4586L43.35 44.4141ZM40.8913 50.0391C40.5066 50.7481 40.0608 51.5562 39.9006 51.835L39.6094 52.3417L37.5 52.3422L35.3906 52.3427L34.6631 51.0542C34.263 50.3455 33.8217 49.5372 33.6825 49.2578L33.4295 48.75H37.5102H41.5908L40.8913 50.0391ZM42.5 61.3281V67.8125H37.5H32.5V61.3281V54.8438H37.5H42.5V61.3281ZM21.25 66.7188V67.8125H15.4688H9.6875V66.7188V65.625H15.4688H21.25V66.7188ZM65.3125 66.7188V67.8125H59.5312H53.75V66.7188V65.625H59.5312H65.3125V66.7188Z" fill="#999999"/>
</svg>
