<svg width="80" height="80" viewBox="0 0 80 80" fill="none" xmlns="http://www.w3.org/2000/svg">
<path fill-rule="evenodd" clip-rule="evenodd" d="M6.49121 6.03255C8.93709 1.58304 13.9295 -0.753905 18.9131 0.218092L25.4512 1.49348C26.0861 1.61754 26.5006 2.23262 26.377 2.86751C26.253 3.50264 25.6387 3.91766 25.002 3.79329L18.4648 2.51887C14.485 1.74297 10.4982 3.6084 8.54492 7.16145L8.2666 7.66829C10.0049 7.85484 61.5366 13.3884 63.4229 13.5911V11.2855L29.6875 4.70735C29.0522 4.58343 28.6378 3.96748 28.7617 3.33235C28.8858 2.69761 29.5 2.28297 30.1357 2.40657L64.2646 9.06184L72.3115 2.19661C72.8435 1.74287 73.5828 1.60798 74.2412 1.84407C74.8996 2.08017 75.3845 2.65469 75.5068 3.34309C78.0008 17.3891 77.9092 28.9557 75.2334 37.721C75.0444 38.3399 74.3891 38.6879 73.7705 38.4993C73.1515 38.3104 72.8031 37.6555 72.9922 37.0365C75.5168 28.7658 75.6252 17.7954 73.3164 4.42024L65.7666 10.8607V48.4984C68.0192 46.7506 69.8923 44.3361 71.3496 41.2962C71.6295 40.7128 72.3293 40.4668 72.9121 40.7464C73.4958 41.0261 73.7427 41.7263 73.4629 42.3099C71.4341 46.5423 68.6484 49.7055 65.1826 51.7113C64.8147 51.9243 64.3671 51.9182 64.0098 51.7122C63.647 51.503 63.4229 51.1155 63.4229 50.6966V15.9486L50.9043 14.6038V19.1488C50.9043 20.6257 49.7026 21.8275 48.2256 21.8275H46.1748L51.6152 63.8704H53.0869C54.094 63.8705 54.9131 64.6895 54.9131 65.6966V70.763H57.1445C58.3593 70.763 59.3477 71.7515 59.3477 72.9661V77.6566H78.8281C79.4751 77.6568 80 78.1813 80 78.8284C79.9999 79.4755 79.4752 80.0001 78.8281 80.0003H1.17383C0.526561 80.0003 0.00204705 79.4757 0.00195312 78.8284C0.00195312 78.1811 0.526503 77.6566 1.17383 77.6566H3.02051L6.14258 68.056C5.8923 67.8692 5.65199 67.663 5.4248 67.4359C2.86785 64.8788 2.86785 60.7186 5.4248 58.1615L5.71191 57.8734C6.16952 57.4162 6.9114 57.4161 7.36914 57.8734C7.82671 58.3309 7.82657 59.0728 7.36914 59.5306L7.08203 59.8187C5.43864 61.4619 5.43864 64.1354 7.08203 65.7786C8.72528 67.422 11.3991 67.4218 13.042 65.7786L22.8203 56.0003C24.4635 54.3573 24.4634 51.6838 22.8203 50.0404C21.173 48.3934 18.5072 48.3935 16.8604 50.0404L10.6826 56.2181C10.2248 56.6757 9.48206 56.6754 9.02441 56.2181C8.5671 55.7605 8.56709 55.0186 9.02441 54.5609L13.8584 49.7269V15.0042H12.6191C11.1856 15.0042 10.0186 13.838 10.0186 12.4046V10.2142L6.26758 9.81087C5.87791 9.76901 5.53482 9.53522 5.35352 9.18782C5.17229 8.84021 5.17639 8.42478 5.36523 8.08137L6.49121 6.03255ZM13.1299 68.595C12.1734 69.1006 11.1175 69.3537 10.0615 69.3538C9.45679 69.354 8.85259 69.2696 8.2666 69.1038L5.48438 77.6566H16.0781L13.1299 68.595ZM20.042 12.4046C20.042 13.8379 18.8757 15.0041 17.4424 15.0042H16.2021V47.5618C18.7116 45.8819 22.1973 46.103 24.4775 48.3831C27.0343 50.9402 27.0343 55.1006 24.4775 57.6575L15.0898 67.0452L18.542 77.6566H22.6885V72.9661C22.6885 71.7514 23.677 70.763 24.8916 70.763H27.123V65.6966C27.1231 64.6896 27.9422 63.8706 28.9492 63.8704H30.4209L35.8623 21.8275H33.8105C32.3337 21.8275 31.132 20.6266 31.1318 19.1497V12.4808L20.042 11.2904V12.4046ZM25.0322 73.1068V77.6566H57.0039V73.1068H25.0322ZM29.4668 66.2132V70.763H52.5693V66.2132H29.4668ZM8.03125 60.4027C9.25462 59.1794 11.2347 59.1795 12.458 60.4027C13.6784 61.6232 13.6784 63.6088 12.458 64.8294C11.2344 66.0533 9.2545 66.0527 8.03125 64.8294C6.81089 63.6087 6.81084 61.6232 8.03125 60.4027ZM32.7832 63.8704H37.623C37.631 63.8659 37.6384 63.8602 37.6465 63.8558L46.7939 58.888L34.0674 53.9505L32.7832 63.8704ZM42.5312 63.8704H49.2529L48.8115 60.4593L42.5312 63.8704ZM10.8008 62.0599C10.4921 61.7513 9.99487 61.7537 9.68848 62.0599C9.38179 62.3664 9.38184 62.8653 9.68848 63.1722C9.99737 63.4808 10.4944 63.4786 10.8008 63.1722C11.1073 62.8656 11.1074 62.3664 10.8008 62.0599ZM13.5059 56.4632C13.9631 56.0058 14.7051 56.0059 15.1631 56.4632L16.3975 57.6986C16.855 58.1561 16.8552 58.8982 16.3975 59.3558C16.1687 59.5844 15.8681 59.6986 15.5684 59.6986C15.2685 59.6985 14.969 59.5836 14.7402 59.3548L13.5059 58.1204C13.0482 57.6629 13.0481 56.9209 13.5059 56.4632ZM36.3506 52.3226L48.3613 56.9818L47.1562 47.6712L36.3506 52.3226ZM17.2158 51.2171C18.4393 49.9938 20.4192 49.9941 21.6426 51.2171C22.8661 52.4407 22.8661 54.4213 21.6426 55.6449C20.419 56.868 18.439 56.8679 17.2158 55.6449C15.9924 54.4211 15.9923 52.4407 17.2158 51.2171ZM19.9854 52.8743C19.6785 52.5677 19.1811 52.5664 18.873 52.8743C18.565 53.1824 18.5664 53.6798 18.873 53.9866C19.1807 54.294 19.6778 54.2948 19.9854 53.9876C20.2932 53.6798 20.2928 53.1818 19.9854 52.8743ZM34.5059 50.5648L45.1416 45.9866L35.6885 41.4241L34.5059 50.5648ZM37.3994 39.6478L46.6982 44.1361L45.5361 35.1585L37.3994 39.6478ZM68.4502 35.0247C69.0973 35.0249 69.6218 35.5497 69.6221 36.1966V37.639C69.6221 38.2861 69.0974 38.8107 68.4502 38.8109C67.8028 38.8109 67.2783 38.2862 67.2783 37.639V36.1966C67.2785 35.5496 67.803 35.0247 68.4502 35.0247ZM36.1777 37.6449L44.0449 33.305L37.3047 28.9349L36.1777 37.6449ZM38.5039 26.9183L45.0166 31.1419L43.8662 22.2493L38.5039 26.9183ZM38.2158 21.8978L37.9004 24.3363L40.7002 21.8978H38.2158ZM33.4746 19.1497C33.4748 19.3341 33.6252 19.4845 33.8096 19.4847H48.2256C48.4101 19.4847 48.5604 19.3343 48.5605 19.1497V14.3519L33.4746 12.7327V19.1497ZM43.7461 15.8734C44.3933 15.8734 44.9178 16.3982 44.918 17.0452C44.918 17.6924 44.3934 18.2171 43.7461 18.2171H38.29C37.6427 18.2171 37.1182 17.6924 37.1182 17.0452C37.1183 16.3982 37.6428 15.8734 38.29 15.8734H43.7461ZM70.8672 10.1849C71.36 9.76473 72.0995 9.82372 72.5195 10.3157C72.9393 10.8081 72.8808 11.5482 72.3887 11.9681L69.8584 14.1263C69.6377 14.3144 69.3674 14.4065 69.0986 14.4066C68.7674 14.4066 68.4378 14.267 68.2061 13.9954C67.7861 13.5032 67.8449 12.7631 68.3369 12.3431L70.8672 10.1849ZM12.3623 12.4046C12.3623 12.5456 12.4772 12.6601 12.6182 12.6605H17.4424C17.5834 12.6602 17.6982 12.5456 17.6982 12.4046V11.0384L12.3623 10.4652V12.4046Z" fill="#999999"/>
</svg>
