<svg width="80" height="80" viewBox="0 0 80 80" fill="none" xmlns="http://www.w3.org/2000/svg">
<path fill-rule="evenodd" clip-rule="evenodd" d="M69.9052 0.0598188C69.4908 0.175823 68.5494 0.786019 68.2265 1.14795C67.6714 1.77002 67.3267 2.82063 67.3233 3.90141L67.3199 4.95671H66.7011C65.231 4.95671 63.3832 6.13848 62.7465 7.48567C62.165 8.71591 62.0933 10.1233 62.565 11.054C62.8353 11.5879 63.5579 12.2501 64.0894 12.451C64.3749 12.5591 66.8554 12.6174 71.1625 12.6174C77.3758 12.6174 77.8327 12.5985 78.3754 12.3199C79.5548 11.7144 79.9709 10.9628 79.9684 9.44133C79.9648 7.11717 77.8657 4.95671 75.6113 4.95671H75.0125L74.9405 3.71193C74.8506 2.15697 74.3374 1.21861 73.1875 0.506952C72.549 0.11188 72.2467 0.0307396 71.3174 0.00525611C70.7079 -0.0114723 70.0723 0.0130731 69.9052 0.0598188ZM27.7298 0.403142C26.9897 0.59544 26.6038 0.853245 26.1354 1.4686C25.7282 2.00344 25.6997 2.13961 25.7009 3.53792C25.7026 5.26657 25.8722 5.69901 26.9651 6.76228C27.8863 7.65842 28.8878 7.98924 30.3883 7.89278C32.8114 7.73722 34.4106 5.98449 34.4226 3.47147C34.4295 2.00594 33.9755 1.19031 32.8054 0.566361C32.3595 0.328724 28.4952 0.204434 27.7298 0.403142ZM0.696061 0.802435C0.149296 1.0407 0.00889521 1.30335 0.00889521 2.08755C0.00889521 2.82047 0.222073 3.17177 0.786485 3.36876C1.91172 3.76149 2.88421 2.73777 2.49831 1.56678C2.36884 1.17452 2.16769 0.955335 1.79287 0.798526C1.17708 0.541034 1.29686 0.540565 0.696061 0.802435ZM71.934 2.99542C72.2398 3.30138 72.3174 3.53886 72.3174 4.16797V4.95671H71.1461H69.9748V4.14593C69.9748 3.52885 70.0559 3.24885 70.3143 2.97337C70.7646 2.49372 71.4422 2.50295 71.934 2.99542ZM31.683 3.59451C31.7242 4.09496 31.6479 4.27069 31.1911 4.72798C30.7514 5.16808 30.5314 5.26939 30.0151 5.26939C29.1706 5.26939 28.2764 4.43578 28.2764 3.64861C28.2764 3.36485 28.3256 3.08359 28.3855 3.0234C28.4457 2.96321 29.2012 2.93398 30.0644 2.95821L31.6341 3.00245L31.683 3.59451ZM12.4035 3.26354C11.6621 3.62281 11.4928 4.89792 12.1053 5.51093C12.9624 6.36908 14.3822 5.75701 14.3719 4.53381C14.3625 3.41113 13.3916 2.78452 12.4035 3.26354ZM54.5862 3.3858C54.0727 3.59405 53.8463 3.98177 53.8463 4.65294C53.8463 5.50171 54.354 6.05109 55.1383 6.05109C55.9353 6.05109 56.4303 5.50327 56.4303 4.62151C56.4303 3.57372 55.5601 2.99057 54.5862 3.3858ZM35.4216 5.07506C34.8843 5.40869 34.6892 6.24448 35.0136 6.82372C35.1916 7.14156 35.6528 7.36966 37.2622 7.93546C38.3755 8.32709 39.884 8.9501 40.6141 9.32032C43.3692 10.7169 46.2665 12.9635 46.4414 13.8392C46.5757 14.5113 47.4737 15.5969 48.3379 16.1317C49.0481 16.5712 49.2051 16.6041 50.5971 16.6041C51.945 16.6041 52.1646 16.5618 52.8183 16.1772C54.2745 15.3202 55.0291 13.9768 55.0376 12.2265C55.0432 11.0551 54.8217 10.4467 54.177 9.86188C53.4858 9.2348 53.061 9.12005 51.1734 9.05016C49.0666 8.97215 47.9427 9.16054 47.2592 9.70617L46.7999 10.0728L45.6982 9.26701C43.275 7.49442 40.9918 6.31358 38.2359 5.40775C36.1482 4.72141 36.0165 4.70594 35.4216 5.07506ZM21.7066 5.40603C19.2063 6.22322 15.5771 8.16747 13.7653 9.66036L13.2318 10.1L12.7772 9.71711C12.1217 9.16492 11.7452 9.09957 9.22316 9.1005C6.66643 9.10129 6.28787 9.21588 5.52215 10.2208C5.11703 10.7524 5.08455 10.9006 5.08455 12.2143C5.08455 13.8831 5.33287 14.5243 6.37158 15.5369C7.26958 16.4122 8.28393 16.7435 9.77336 16.6478C11.5703 16.5324 12.9165 15.5447 13.5539 13.8739C13.8548 13.085 14.2941 12.6544 16.2313 11.2494C18.002 9.96506 20.5078 8.68511 22.6034 7.99471C24.435 7.39124 24.9967 6.97459 24.9967 6.21978C24.9967 5.97823 24.851 5.5952 24.673 5.36866C24.2423 4.82038 23.4683 4.83007 21.7066 5.40603ZM76.1453 7.83962C76.7717 8.10165 77.3398 8.929 77.2792 9.49057L77.2369 9.88142L71.1071 9.92238L64.9773 9.96319V9.44899C64.9773 8.8316 65.3098 8.31833 65.9716 7.91435C66.4237 7.63825 66.8078 7.61558 71.034 7.61512C74.6618 7.61465 75.7184 7.66108 76.1453 7.83962ZM27.027 11.5403C19.2555 12.7804 13.0964 18.4154 11.1136 26.0992C10.4477 28.6799 10.3773 32.3283 10.9434 34.9263C11.9248 39.4307 14.6953 43.695 18.4534 46.4854C19.6667 47.3863 19.8108 47.5444 19.6934 47.8447C19.6203 48.0317 19.2745 48.8031 18.9252 49.559L18.2898 50.9332L17.856 50.705C17.6175 50.5794 17.0711 50.2249 16.6419 49.917C15.4075 49.0317 14.2615 49.2211 13.9765 50.3581C13.7763 51.156 14.2417 51.6268 16.9277 53.344C17.1401 53.4799 17.0578 53.7525 16.301 55.4202L15.4298 57.3402L15.0205 57.0697C12.7177 55.5479 9.26361 55.0999 6.66347 55.9854C5.04379 56.5371 4.22341 57.0344 2.9509 58.2362C1.45663 59.6473 1.23424 60.6501 2.26576 61.3267C2.90217 61.7442 3.6376 61.5161 4.31211 60.6918C5.54979 59.1799 7.55647 58.2514 9.61359 58.2387C11.6671 58.2262 13.4492 58.9821 14.7469 60.4162C16.2885 62.1202 16.2019 62.0578 16.9182 61.982C17.2813 61.9436 18.0879 61.8169 18.7106 61.7002C22.0828 61.0688 25.5349 63.2702 26.5563 66.7036C26.7306 67.2897 26.9886 67.8653 27.1296 67.9828C27.3081 68.1314 28.0548 68.2204 29.5881 68.2753C31.5937 68.3473 31.8695 68.3933 32.6777 68.7898C35.5797 70.2136 36.114 74.0055 33.7165 76.1633C32.3341 77.4076 33.0333 77.3532 19.0524 77.3059L6.64629 77.264L5.78733 76.8585C4.69193 76.3412 3.66383 75.312 3.14705 74.2154C2.74787 73.368 2.74131 73.2961 2.69571 69.2718L2.64948 65.1879L3.00806 65.0917C3.20531 65.0389 3.90497 64.9946 4.56308 64.9935C7.86101 64.9876 10.3784 66.9026 11.4725 70.2494C11.8989 71.5534 12.0191 71.6088 14.6596 71.7176C16.5651 71.7961 17.0607 71.8678 17.5855 72.1406C18.4938 72.6132 19.4071 73.6799 19.8302 74.7626C20.032 75.2785 20.3359 75.8238 20.5058 75.9742C20.9712 76.3865 21.8095 76.3259 22.2898 75.8451C22.6321 75.5024 22.6807 75.3412 22.6155 74.7632C22.4056 72.8981 20.6707 70.6351 18.7498 69.7205C17.7439 69.2416 16.0275 68.8998 14.6287 68.8998H13.9658L13.2924 67.5703C12.1673 65.3489 10.149 63.5852 7.84633 62.8112C4.86669 61.8097 1.3687 62.2415 0.360287 63.7353C0.0157668 64.2458 0.00889521 64.345 0.00889521 68.8284C0.00889521 72.9314 0.0404424 73.5028 0.315621 74.3944C1.07791 76.8632 3.13878 78.9294 5.59727 79.6897C6.57101 79.9908 7.08217 80 22.6579 80C31.489 80 38.8283 79.9562 38.9673 79.9029C39.3604 79.7519 39.7102 78.9436 39.6001 78.4414C39.4331 77.6804 39.0213 77.4542 37.6606 77.3752L36.4287 77.3039L36.8766 76.5968C37.5836 75.4808 37.8673 74.448 37.8745 72.9647C37.8851 70.7994 37.2629 69.2027 35.8491 67.767C34.4362 66.3323 32.6124 65.625 30.3066 65.6175L29.1353 65.6137L28.5169 64.3255C28.0323 63.316 27.6265 62.7641 26.6428 61.7764C24.5498 59.675 22.2865 58.8018 19.2661 58.9305L17.674 58.9984L17.8832 58.5162C18.3751 57.3821 19.5636 54.7475 19.6011 54.7085C19.6234 54.6851 20.1966 54.8752 20.8747 55.131C23.6916 56.1935 26.643 56.7037 29.9757 56.7047C33.3778 56.7056 36.3792 56.1808 39.2717 55.0794C39.8646 54.8536 40.3685 54.6874 40.3913 54.7103C40.4141 54.7331 41.0289 56.0707 41.7576 57.6828L43.0826 60.6138H37.0341H30.9858L30.6462 60.9756C30.2838 61.3617 30.1958 62.1467 30.4595 62.6401C30.7745 63.2294 31.365 63.2716 39.3099 63.2716H47.0173L47.0174 66.1248L47.0176 68.978L43.6206 68.9296C39.654 68.8728 39.1409 68.9624 38.8039 69.7696C38.609 70.2366 38.609 70.3773 38.8039 70.8443C39.1409 71.6514 39.654 71.741 43.6206 71.6843L47.0176 71.6358L47.0174 74.477L47.0173 77.318L44.895 77.3693C42.7904 77.4199 42.7696 77.424 42.3962 77.8591C41.9341 78.3974 41.9144 79.0421 42.3434 79.588L42.667 80H51.1545C55.8225 80 59.7556 79.9562 59.8946 79.9029C60.2877 79.7519 60.6375 78.9436 60.5274 78.4414C60.3469 77.6188 59.9678 77.4437 58.1656 77.3497L56.524 77.264L59.3061 74.009L62.088 70.7542L62.1678 74.9471C62.2117 77.2533 62.3079 79.2652 62.3815 79.4181C62.455 79.571 62.6429 79.7644 62.7989 79.848C62.9712 79.9403 65.9732 80 70.438 80C76.3364 80 77.8932 79.9573 78.2961 79.7847C78.9039 79.5244 79.5778 78.8299 79.8038 78.231C80.0549 77.5659 80.0227 61.3994 79.7697 61.0688C79.6651 60.932 78.6489 60.3466 77.5115 59.768C73.8012 57.8805 70.9397 55.7873 67.7337 52.6159C66.7158 51.6089 65.6265 50.6618 65.313 50.511C64.4787 50.1099 63.1367 50.0508 62.1689 50.3726C61.4972 50.5958 61.0429 50.9556 59.4879 52.4944C56.2781 55.6711 53.483 57.7501 49.9174 59.6132C48.0519 60.588 47.9334 60.6273 46.9951 60.5824L46.0173 60.5356L44.4332 57.0189L42.8493 53.5022L44.2327 52.6067C45.9851 51.4723 46.3223 50.7764 45.5536 49.8817C44.999 49.2363 44.3078 49.3175 42.9149 50.1919C42.2936 50.5819 41.7386 50.8526 41.6811 50.7936C41.6238 50.7345 41.2607 49.9691 40.8741 49.0926L40.1714 47.4991L41.4468 46.5665C42.6338 45.6986 44.2997 44.1229 45.19 43.0255C45.3993 42.7676 45.9767 41.9319 46.473 41.1684C50.7963 34.5188 50.3978 25.4087 45.5028 18.9937C42.5607 15.1382 37.9804 12.3729 33.2697 11.608C31.6789 11.3498 28.4407 11.3147 27.027 11.5403ZM11.0735 11.8851C11.3413 12.2082 11.002 13.1636 10.456 13.6236C9.73228 14.2332 8.91862 14.1781 8.21318 13.4721C7.80447 13.0629 7.66142 12.7858 7.66142 12.4037C7.66142 12.1199 7.70827 11.8408 7.76559 11.7836C7.9708 11.5782 10.8933 11.6679 11.0735 11.8851ZM52.298 12.3496C52.3392 12.85 52.2628 13.0257 51.806 13.483C51.3664 13.9231 51.1463 14.0244 50.63 14.0244C49.7856 14.0244 48.8913 13.1908 48.8913 12.4037C48.8913 12.1199 48.9405 11.8386 49.0005 11.7785C49.0606 11.7183 49.8162 11.689 50.6794 11.7133L52.2491 11.7575L52.298 12.3496ZM34.1329 14.5521C42.9053 16.8431 48.3377 25.689 46.3847 34.5027C45.7611 37.3171 44.0114 40.4903 41.9393 42.5647C40.936 43.569 39.3619 44.8235 39.105 44.8235C39.0208 44.8235 37.9531 42.5928 36.7321 39.8664L34.5124 34.9093L34.8096 34.5069C36.8883 31.6924 36.1875 27.6217 33.306 25.7704C30.0611 23.6861 25.7111 25.1094 24.3634 28.6965C23.6974 30.4697 24.0403 33.0893 25.1042 34.3551C25.5746 34.9148 25.8195 34.1987 23.0364 40.4026L20.987 44.9712L20.0635 44.2932C14.5128 40.2172 12.0665 33.1896 13.8286 26.3817C15.3619 20.4586 20.4591 15.7037 26.7315 14.3454C28.8241 13.8923 31.9393 13.9793 34.1329 14.5521ZM67.9938 14.1819C67.8062 14.2575 67.5777 14.4595 67.4862 14.6307C67.3717 14.8448 67.3199 19.7015 67.3199 30.1953V45.4488H63.4427C59.5919 45.4488 59.5633 45.4513 59.226 45.8106C58.8412 46.2208 58.7767 47.0888 59.0993 47.5142C59.211 47.6613 59.4945 47.8547 59.7293 47.9442C60.3392 48.1763 78.5019 48.1666 79.1691 47.9338C79.7532 47.73 79.97 47.3848 79.97 46.6589C79.97 46.3068 79.8484 46.0145 79.6086 45.7887C79.2737 45.474 79.0893 45.4488 77.1098 45.4488H74.9724V30.1547V14.8607L74.5943 14.505C74.0464 13.9899 73.1441 14.0179 72.6741 14.5647L72.3174 14.98V30.2144V45.4488H71.1483H69.9793L69.938 30.1139L69.8967 14.7789L69.4585 14.4017C69.0039 14.0102 68.5779 13.9463 67.9938 14.1819ZM6.71048 18.6346C6.05985 18.9887 4.81468 22.2046 4.25808 24.9683L3.959 26.4535L2.91295 26.5709C1.64247 26.7135 1.09836 26.9778 0.524582 27.7309C0.119466 28.2625 0.0869822 28.4107 0.0869822 29.7244C0.0869822 31.3443 0.330301 32.0126 1.25829 32.9416C2.18424 33.8685 2.85485 34.1142 4.45985 34.1142C5.70956 34.1142 5.94585 34.0668 6.59085 33.6873C8.04701 32.8303 8.80164 31.4869 8.81008 29.7366C8.81351 29.0098 8.72824 28.4779 8.5563 28.1527C8.26659 27.6051 7.51352 26.9177 7.0375 26.7665C6.86524 26.7118 6.72438 26.5387 6.72438 26.3819C6.72438 25.8006 7.54398 22.9655 8.13947 21.4864C8.4779 20.6464 8.75464 19.8142 8.75464 19.6374C8.75464 19.1995 7.92504 18.4006 7.47823 18.4082C7.27832 18.4117 6.93287 18.5136 6.71048 18.6346ZM51.7296 18.9201C51.2483 19.4332 51.2995 20.0909 51.9477 21.7125C52.4908 23.0714 53.2728 25.8475 53.2558 26.3562C53.2511 26.4957 52.9219 26.8209 52.5243 27.0788C51.5608 27.7037 51.1743 28.475 51.2007 29.7196C51.2363 31.4042 51.8169 32.5781 53.0215 33.4016C53.9721 34.0515 54.7169 34.2405 56.0021 34.1579C57.7641 34.0447 58.9844 33.183 59.7172 31.5345C60.1151 30.6395 60.154 28.8558 59.7906 28.1732C59.25 27.158 58.4953 26.7127 57.0931 26.5815C56.0043 26.4797 56.0185 26.4935 55.8344 25.3591C55.4886 23.2296 53.945 18.9957 53.4096 18.7089C52.8947 18.4331 52.0921 18.5339 51.7296 18.9201ZM37.4055 20.5055C36.552 21.3598 37.1378 22.9421 38.3035 22.9308C38.9281 22.9249 39.297 22.6657 39.5212 22.0752C40.0585 20.6608 38.4456 19.4641 37.4055 20.5055ZM60.9439 22.2032C60.5388 22.635 60.4846 23.6331 60.8388 24.1393C61.3589 24.8826 62.6596 24.6929 63.0812 23.8126C63.3463 23.2587 63.0997 22.247 62.6393 22.0003C62.1104 21.7168 61.3106 21.8127 60.9439 22.2032ZM17.2992 27.1589C16.8165 27.539 16.6467 28.1957 16.8754 28.7978C17.1037 29.3989 17.4702 29.6475 18.1369 29.6535C18.9139 29.6603 19.3745 29.1468 19.3745 28.2733C19.3745 27.0504 18.2225 26.4318 17.2992 27.1589ZM31.3305 27.7646C33.6036 28.7981 33.9967 31.8061 32.0669 33.3998C31.0194 34.2647 29.9007 34.4031 28.6668 33.8207C27.3646 33.2058 26.7146 32.2106 26.7146 30.831C26.7146 28.4193 29.1753 26.7846 31.3305 27.7646ZM77.9067 28.7772C77.2264 29.2947 77.2244 30.5358 77.9031 31.0704C78.4082 31.4679 79.0407 31.4618 79.5584 31.0541C80.1243 30.6087 80.1521 29.4152 79.6086 28.904C79.1988 28.5187 78.3317 28.4542 77.9067 28.7772ZM6.07594 29.3952C6.34378 29.7183 6.00441 30.6737 5.45843 31.1337C4.73472 31.7433 3.92105 31.6882 3.21562 30.9822C2.80691 30.573 2.66385 30.2959 2.66385 29.9138C2.66385 29.63 2.7107 29.3509 2.76802 29.2937C2.97323 29.0883 5.89572 29.178 6.07594 29.3952ZM57.2955 29.8597C57.3368 30.3601 57.2604 30.5358 56.8036 30.9931C56.3639 31.4332 56.1439 31.5345 55.6276 31.5345C54.7832 31.5345 53.8889 30.7009 53.8889 29.9138C53.8889 29.63 53.9381 29.3487 53.9981 29.2886C54.0582 29.2284 54.8138 29.1991 55.6769 29.2234L57.2466 29.2676L57.2955 29.8597ZM39.1812 30.4461C38.7286 30.7105 38.5345 31.5827 38.7913 32.1977C39.4784 33.8442 41.7949 32.8308 41.234 31.1292C41.137 30.8349 40.9272 30.5243 40.7681 30.4389C40.4013 30.2424 39.5232 30.2465 39.1812 30.4461ZM4.85216 35.6755C4.59791 35.9465 4.49343 36.2329 4.50795 36.6192C4.5495 37.7253 5.68098 40.8044 6.81277 42.8911L7.5029 44.1637L6.9488 44.2678C6.21025 44.4065 5.21417 45.4055 5.07533 46.1469C4.91042 47.0266 5.07346 48.5949 5.40033 49.274C5.7814 50.0657 6.64004 50.9256 7.43231 51.3092C8.18413 51.6732 9.84988 51.7981 10.7427 51.5575C12.1812 51.1696 13.4492 49.7163 13.7531 48.1066C14.1484 46.0132 13.18 44.4056 11.359 44.1323C10.714 44.0353 10.6345 43.9647 9.94421 42.8741C8.99343 41.3713 8.10917 39.4418 7.49369 37.5263C7.2221 36.6814 6.8554 35.832 6.67877 35.6385C6.22431 35.1408 5.33708 35.1588 4.85216 35.6755ZM53.5766 36.1761C53.076 36.3673 52.7962 36.7694 52.4694 37.7672C52.0051 39.1852 50.7276 41.883 49.9666 43.0527C49.4034 43.9184 49.2715 44.0291 48.6855 44.1265C46.8231 44.4362 45.9154 45.8797 46.2551 47.9917C46.4394 49.1367 46.7018 49.6669 47.4602 50.4261C48.2643 51.2311 49.1016 51.5981 50.3003 51.6715C51.5841 51.75 52.4446 51.52 53.2934 50.8719C54.9685 49.5929 55.6157 46.9051 54.6087 45.4093C54.1936 44.7927 53.3375 44.1981 52.8646 44.1981C52.5285 44.1981 52.5517 44.1198 53.3407 42.5956C54.3149 40.7139 55.2945 38.1546 55.2945 37.4909C55.2945 36.6689 54.2931 35.9024 53.5766 36.1761ZM29.9943 36.7707C30.6385 36.7707 31.4116 36.7138 31.7122 36.6442L32.2588 36.5177L34.35 41.1787C35.5 43.7422 36.471 45.949 36.5075 46.0825C36.5578 46.2665 36.2539 46.4294 35.2495 46.7566C32.7473 47.5716 30.1011 47.8227 27.7598 47.467C25.7756 47.1654 23.3472 46.392 23.4603 46.0973C23.4893 46.0216 24.4618 43.8366 25.6214 41.2419L27.7298 36.5241L28.2764 36.6475C28.577 36.7152 29.3501 36.7707 29.9943 36.7707ZM59.226 37.2119C58.8351 37.6287 58.7693 38.6368 59.1043 39.0786C59.6488 39.7966 60.8137 39.7366 61.3189 38.9646C61.6559 38.4498 61.5228 37.502 61.0604 37.1237C60.5707 36.723 59.643 36.7677 59.226 37.2119ZM11.0735 46.9053C11.3413 47.2284 11.002 48.1838 10.456 48.6438C9.68403 49.294 8.49992 49.0861 7.91879 48.1982C7.66001 47.8028 7.57162 46.998 7.76559 46.8038C7.9708 46.5984 10.8933 46.6881 11.0735 46.9053ZM52.298 47.3698C52.3392 47.8702 52.2628 48.0459 51.806 48.5032C51.4179 48.8917 51.1262 49.0446 50.7732 49.0446C50.1417 49.0446 49.4757 48.6977 49.1487 48.1982C48.887 47.7983 48.8022 46.9972 49.0005 46.7987C49.0606 46.7385 49.8162 46.7092 50.6794 46.7335L52.2491 46.7777L52.298 47.3698ZM24.0203 49.3462C25.896 49.968 27.9517 50.2941 29.9943 50.2941C32.0369 50.2941 34.0926 49.968 35.9683 49.3462C36.7627 49.0829 37.4863 48.8359 37.5764 48.7972C37.7899 48.7055 39.2663 52.0198 39.0905 52.1958C38.8455 52.4411 36.3401 53.2424 34.7576 53.5816C32.3286 54.1022 28.7354 54.1745 26.2663 53.7525C24.512 53.4528 21.1914 52.4874 20.8934 52.1905C20.7301 52.0278 22.2218 48.7138 22.4197 48.7997C22.5058 48.837 23.2259 49.0829 24.0203 49.3462ZM0.348417 52.3769C0.0109255 52.7366 -0.104956 53.5687 0.105879 54.1187C0.368876 54.8047 1.72696 54.9779 2.23625 54.3904C2.7674 53.7777 2.65042 52.499 2.03307 52.1682C1.51394 51.89 0.712147 51.9895 0.348417 52.3769ZM71.1969 52.3337C70.7654 52.5857 70.5408 53.4916 70.7841 53.9994C71.151 54.7653 71.476 54.8244 75.3316 54.8269C79.6935 54.8297 79.97 54.7421 79.97 53.3585C79.97 53.0305 79.8422 52.7311 79.6086 52.5113C79.257 52.1808 79.1394 52.1716 75.3528 52.1761C73.1088 52.179 71.3476 52.2457 71.1969 52.3337ZM64.1651 53.016C64.3971 53.1365 65.0697 53.7366 65.6599 54.3493C67.7059 56.4735 70.1905 58.5479 72.2456 59.8481L73.3326 60.5356L71.7955 60.6138C70.418 60.6839 70.2275 60.7303 69.9604 61.0611C69.5552 61.5631 69.5859 62.2271 70.0392 62.7547L70.4157 63.1934L73.8654 63.241L77.315 63.2885V70.3153V77.3422H71.068H64.8211V70.3069V63.2716L65.9533 63.2693C67.2465 63.2666 67.7771 63.0579 68.0757 62.4347C68.3038 61.9588 68.2418 61.4918 67.886 61.0047C67.6652 60.7023 67.4304 60.6895 60.7487 60.6138L53.8399 60.5356L54.9966 59.7683C56.9662 58.4618 58.7109 57.0232 60.9402 54.8683C63.1603 52.7219 63.369 52.6022 64.1651 53.016ZM62.1655 64.8741L62.1649 66.4766L57.5193 71.9081L52.8738 77.3399L51.3678 77.341C50.1379 77.3421 49.8445 77.2969 49.767 77.0949C49.7148 76.9589 49.6722 73.793 49.6722 70.0596V63.2716H55.9192H62.1661L62.1655 64.8741Z" fill="#999999"/>
</svg>
