<svg width="92" height="80" viewBox="0 0 92 80" fill="none" xmlns="http://www.w3.org/2000/svg">
<path fill-rule="evenodd" clip-rule="evenodd" d="M4.65023 0.309926C2.7798 0.980432 1.41259 2.21861 0.488626 4.07846L0 5.06213V40.0272V74.9922L0.529675 76.0653C1.2059 77.4358 2.58338 78.8042 3.96086 79.4744L5.0411 80H46H86.9589L88.0391 79.4738C89.4177 78.8024 90.7945 77.4348 91.4703 76.0653L92 74.9922V40.0272V5.06213L91.4703 3.98904C90.7945 2.61959 89.4177 1.25193 88.0391 0.580525L86.9589 0.0543499L46.2701 0.015361C6.95239 -0.022555 5.54989 -0.0125396 4.65023 0.309926ZM86.5088 3.29582C87.4862 3.75421 88.3565 4.63057 88.7951 5.59868C89.101 6.27366 89.1221 7.5916 89.1683 28.8938L89.2175 51.4735H47.8044C6.63138 51.4735 6.38923 51.4757 6.03131 51.8312C5.54269 52.3166 5.54269 53.492 6.03131 53.9774C6.38419 54.328 6.63138 54.3351 18.274 54.3351H30.1566V65.7815V77.2278H28.7162H27.2759V72.3932C27.2759 67.0574 27.2262 66.7612 26.1415 65.6255C25.4613 64.9132 24.3445 64.3602 23.5756 64.3546L23.0259 64.3507L22.6072 62.1598C22.1255 59.6409 21.8674 58.9199 21.1901 58.2031C20.5387 57.5136 19.7335 57.1967 18.6341 57.1967C17.5346 57.1967 16.7294 57.5136 16.078 58.2031C15.4007 58.9199 15.1426 59.6409 14.6609 62.1598L14.2422 64.3507L13.6925 64.3546C12.9236 64.3602 11.8068 64.9132 11.1266 65.6255C10.0419 66.7612 9.99217 67.0574 9.99217 72.3932V77.2278H7.91272C6.43766 77.2278 5.6851 77.1516 5.32286 76.9656C4.5116 76.5489 3.40256 75.1675 3.12962 74.2339C2.92168 73.5228 2.88063 67.8767 2.88063 39.9378C2.88063 3.15542 2.79817 5.738 4.01415 4.40128C4.7651 3.57536 5.48561 3.16418 6.48141 2.99284C6.8775 2.9247 24.8634 2.87945 46.4501 2.89251L85.6986 2.91594L86.5088 3.29582ZM35.8278 10.7971C30.5796 13.604 26.1845 16.0324 26.0607 16.1939C25.7332 16.621 25.7332 37.6789 26.0607 38.1063C26.1845 38.2678 30.5856 40.6977 35.8411 43.506C42.9249 47.2913 45.5526 48.6119 46 48.6119C46.4474 48.6119 49.0751 47.2913 56.1589 43.506C61.4144 40.6977 65.8156 38.2678 65.9393 38.1063C66.1136 37.879 66.1644 35.4043 66.1644 27.15C66.1644 18.8958 66.1136 16.421 65.9393 16.1937C65.8156 16.0322 61.4144 13.6024 56.1589 10.7941C48.9078 6.91948 46.4548 5.68882 45.9867 5.69097C45.5249 5.69329 42.9712 6.97671 35.8278 10.7971ZM54.0024 13.1456C58.1665 15.3694 61.5977 17.2076 61.6276 17.2303C61.6573 17.2532 58.1537 19.0995 53.8416 21.3333L46.0014 25.3948L38.3512 21.3093C34.1435 19.0623 30.701 17.1836 30.701 17.1345C30.7012 16.9241 45.9345 8.92116 46.1707 9.00719C46.3142 9.05941 49.8384 10.9218 54.0024 13.1456ZM7.47162 14.6306C7.11911 14.9808 7.11155 15.2267 7.11155 26.4346C7.11155 37.6426 7.11911 37.8885 7.47162 38.2387C7.81676 38.5815 8.07169 38.5964 13.593 38.5964C19.1142 38.5964 19.3692 38.5815 19.7143 38.2387C20.3655 37.5918 20.1847 36.8438 18.6341 33.7674L17.1937 30.9102V26.4346V21.9591L18.6341 19.1018C20.1847 16.0254 20.3655 15.2775 19.7143 14.6306C19.3692 14.2877 19.1142 14.2729 13.593 14.2729C8.07169 14.2729 7.81676 14.2877 7.47162 14.6306ZM72.2857 14.6306C71.6345 15.2775 71.8153 16.0254 73.366 19.1018L74.8063 21.9591V26.4346V30.9102L73.366 33.7674C71.8153 36.8438 71.6345 37.5918 72.2857 38.2387C72.6309 38.5815 72.8858 38.5964 78.407 38.5964C83.9283 38.5964 84.1832 38.5815 84.5284 38.2387C84.8809 37.8885 84.8885 37.6426 84.8885 26.4346C84.8885 15.2267 84.8809 14.9808 84.5284 14.6306C84.1832 14.2877 83.9283 14.2729 78.407 14.2729C72.8858 14.2729 72.6309 14.2877 72.2857 14.6306ZM16.1135 17.2271C16.1135 17.2781 15.7084 18.1217 15.2133 19.1018L14.3131 20.8839V26.4346V31.9854L15.2133 33.7674C15.7084 34.7475 16.1135 35.5912 16.1135 35.6421C16.1135 35.6931 14.7362 35.7348 13.0528 35.7348H9.99217V26.4346V17.1345H13.0528C14.7362 17.1345 16.1135 17.1761 16.1135 17.2271ZM82.0078 26.4346V35.7348H78.9472C77.2638 35.7348 75.8865 35.6931 75.8865 35.6421C75.8865 35.5912 76.2916 34.7475 76.7867 33.7674L77.6869 31.9854V26.4346V20.8839L76.7867 19.1018C76.2916 18.1217 75.8865 17.2781 75.8865 17.2271C75.8865 17.1761 77.2638 17.1345 78.9472 17.1345H82.0078V26.4346ZM38.0428 24.6447L44.5597 28.1307V36.3944V44.6581L43.1548 43.9075C42.3823 43.4947 38.8175 41.5883 35.2331 39.6709L28.7162 36.185V27.9212V19.6575L30.1211 20.4081C30.8936 20.8209 34.4584 22.7273 38.0428 24.6447ZM7.72368 43.4969C7.18446 44.0325 7.11155 44.2158 7.11155 45.035C7.11155 45.8541 7.18446 46.0374 7.72368 46.5731C8.2629 47.1087 8.44744 47.1811 9.27202 47.1811C10.6301 47.1811 11.4325 46.384 11.4325 45.035C11.4325 43.6859 10.6301 42.8888 9.27202 42.8888C8.44744 42.8888 8.2629 42.9612 7.72368 43.4969ZM81.1796 43.4969C80.6404 44.0325 80.5675 44.2158 80.5675 45.035C80.5675 45.8541 80.6404 46.0374 81.1796 46.5731C81.7189 47.1087 81.9034 47.1811 82.728 47.1811C83.5526 47.1811 83.7371 47.1087 84.2763 46.5731C84.8155 46.0374 84.8885 45.8541 84.8885 45.035C84.8885 44.2158 84.8155 44.0325 84.2763 43.4969C83.7371 42.9612 83.5526 42.8888 82.728 42.8888C81.9034 42.8888 81.7189 42.9612 81.1796 43.4969ZM89.1642 64.0377C89.0949 74.7933 89.1244 74.5177 87.894 75.9061C86.913 77.0132 86.4119 77.2278 84.8074 77.2278H83.4481V72.3932C83.4481 67.0574 83.3985 66.7612 82.3137 65.6255C81.6335 64.9132 80.5167 64.3602 79.7478 64.3546L79.1981 64.3507L78.7794 62.1598C78.2978 59.6409 78.0396 58.9199 77.3623 58.2031C76.7109 57.5136 75.9058 57.1967 74.8063 57.1967C73.7068 57.1967 72.9016 57.5136 72.2502 58.2031C71.5729 58.9199 71.3148 59.6409 70.8332 62.1598C70.4147 64.3487 70.4138 64.3507 69.904 64.3507C68.6689 64.3507 67.12 65.4515 66.5065 66.7652C66.207 67.4062 66.1719 67.9879 66.1683 72.3542L66.1644 77.2278H64.0039H61.8434V65.7815V54.3351H75.5351H89.2267L89.1642 64.0377ZM47.6384 57.7647C48.789 58.4072 49.1618 59.148 49.7382 61.9362L50.2558 64.4401L50.9635 64.5404C52.3491 64.737 53.5231 65.6493 54.1716 67.0334C54.5184 67.7733 54.5538 68.2174 54.6107 72.533L54.6728 77.2278H46H37.3272L37.3927 72.533C37.4649 67.345 37.532 66.9919 38.6726 65.811C39.381 65.0772 40.0409 64.7232 41.0055 64.5598L41.745 64.4344L42.2626 61.9334C42.8362 59.1617 43.1644 58.4946 44.2896 57.8145C45.2451 57.2368 46.6552 57.2158 47.6384 57.7647Z" fill="#999999"/>
</svg>
